0, 0, Header, 1, 3, 48
1, 0, Start_track
1, 0, Time_signature, 6, 3, 12, 8
1, 0, Key_signature, 1, "major"
1, 0, Tempo, 500000
1, 0, Marker_t, "Chopin  Nocturne in G Op.37. No.2."
1, 144, Time_signature, 3, 2, 24, 8
1, 144, Tempo, 1111111
1, 168, Tempo, 845070
1, 192, Tempo, 895522
1, 216, Tempo, 952381
1, 240, Tempo, 923077
1, 252, Tempo, 800000
1, 264, Tempo, 821918
1, 276, Tempo, 923077
1, 288, Tempo, 869565
1, 312, Tempo, 845070
1, 336, Tempo, 869565
1, 360, Tempo, 952381
1, 384, Tempo, 923077
1, 396, Tempo, 845070
1, 408, Tempo, 869565
1, 420, Tempo, 1034483
1, 432, Tempo, 895522
1, 444, Tempo, 952381
1, 456, Tempo, 821918
1, 468, Tempo, 869565
1, 492, Tempo, 895522
1, 504, Tempo, 923077
1, 516, Tempo, 895522
1, 528, Tempo, 923077
1, 540, Tempo, 869565
1, 552, Tempo, 895522
1, 564, Tempo, 952381
1, 600, Tempo, 845070
1, 624, Tempo, 895522
1, 684, Tempo, 869565
1, 696, Tempo, 845070
1, 708, Tempo, 952381
1, 720, Tempo, 983607
1, 744, Tempo, 869565
1, 768, Tempo, 923077
1, 840, Tempo, 952381
1, 852, Tempo, 1000000
1, 876, Tempo, 952381
1, 888, Tempo, 923077
1, 900, Tempo, 895522
1, 912, Tempo, 869565
1, 948, Tempo, 895522
1, 972, Tempo, 952381
1, 996, Tempo, 1071429
1, 1008, Tempo, 1111111
1, 1032, Tempo, 845070
1, 1056, Tempo, 923077
1, 1080, Tempo, 1000000
1, 1096, Tempo, 800000
1, 1104, Tempo, 952381
1, 1116, Tempo, 869565
1, 1128, Tempo, 952381
1, 1140, Tempo, 983607
1, 1152, Tempo, 1034483
1, 1176, Tempo, 895522
1, 1200, Tempo, 952381
1, 1224, Tempo, 983607
1, 1240, Tempo, 845070
1, 1248, Tempo, 952381
1, 1260, Tempo, 869565
1, 1272, Tempo, 983607
1, 1284, Tempo, 1034483
1, 1296, Tempo, 1153846
1, 1308, Tempo, 1000000
1, 1320, Tempo, 923077
1, 1344, Tempo, 895522
1, 1368, Tempo, 869565
1, 1380, Tempo, 895522
1, 1392, Tempo, 923077
1, 1404, Tempo, 895522
1, 1416, Tempo, 923077
1, 1428, Tempo, 952381
1, 1440, Tempo, 1034483
1, 1464, Tempo, 923077
1, 1512, Tempo, 952381
1, 1536, Tempo, 983607
1, 1548, Tempo, 923077
1, 1572, Tempo, 952381
1, 1584, Tempo, 983607
1, 1608, Tempo, 923077
1, 1632, Tempo, 1000000
1, 1656, Tempo, 952381
1, 1680, Tempo, 983607
1, 1692, Tempo, 952381
1, 1704, Tempo, 983607
1, 1716, Tempo, 1000000
1, 1740, Tempo, 983607
1, 1752, Tempo, 895522
1, 1764, Tempo, 845070
1, 1788, Tempo, 869565
1, 1800, Tempo, 952381
1, 1812, Tempo, 895522
1, 1836, Tempo, 952381
1, 1848, Tempo, 983607
1, 1860, Tempo, 1034483
1, 1872, Tempo, 983607
1, 1944, Tempo, 1071429
1, 1968, Tempo, 1538462
1, 1980, Tempo, 1111111
1, 1992, Tempo, 952381
1, 2004, Tempo, 1000000
1, 2016, Tempo, 1034483
1, 2040, Tempo, 952381
1, 2064, Tempo, 983607
1, 2088, Tempo, 1071429
1, 2112, Tempo, 1304348
1, 2124, Tempo, 1111111
1, 2136, Tempo, 1071429
1, 2148, Tempo, 1111111
1, 2208, Tempo, 1000000
1, 2232, Tempo, 1071429
1, 2256, Tempo, 1463415
1, 2268, Tempo, 1111111
1, 2280, Tempo, 1034483
1, 2292, Tempo, 1071429
1, 2304, Tempo, 1034483
1, 2328, Tempo, 952381
1, 2352, Tempo, 1000000
1, 2376, Tempo, 1153846
1, 2388, Tempo, 1463415
1, 2400, Tempo, 1200000
1, 2412, Tempo, 1333333
1, 2436, Tempo, 1395349
1, 2448, Tempo, 1333333
1, 2460, Tempo, 1034483
1, 2472, Tempo, 983607
1, 2484, Tempo, 952381
1, 2496, Tempo, 923077
1, 2508, Tempo, 895522
1, 2520, Tempo, 923077
1, 2544, Tempo, 952381
1, 2580, Tempo, 983607
1, 2592, Tempo, 1111111
1, 2616, Tempo, 895522
1, 2676, Tempo, 1153846
1, 2688, Tempo, 1111111
1, 2700, Tempo, 1153846
1, 2712, Tempo, 1333333
1, 2724, Tempo, 1304348
1, 2736, Tempo, 1200000
1, 2748, Tempo, 1034483
1, 2760, Tempo, 952381
1, 2772, Tempo, 983607
1, 2784, Tempo, 895522
1, 2796, Tempo, 952381
1, 2808, Tempo, 983607
1, 2844, Tempo, 1000000
1, 2868, Tempo, 1034483
1, 2904, Tempo, 1000000
1, 2928, Tempo, 1034483
1, 2952, Tempo, 1000000
1, 2964, Tempo, 1304348
1, 2976, Tempo, 1111111
1, 2988, Tempo, 1200000
1, 3000, Tempo, 1333333
1, 3012, Tempo, 1395349
1, 3024, Tempo, 1071429
1, 3048, Tempo, 923077
1, 3072, Tempo, 983607
1, 3096, Tempo, 800000
1, 3112, Tempo, 952381
1, 3116, Tempo, 845070
1, 3120, Tempo, 1071429
1, 3132, Tempo, 983607
1, 3156, Tempo, 923077
1, 3168, Tempo, 1000000
1, 3192, Tempo, 952381
1, 3240, Tempo, 1034483
1, 3256, Tempo, 952381
1, 3260, Tempo, 895522
1, 3264, Tempo, 1071429
1, 3276, Tempo, 1034483
1, 3288, Tempo, 1153846
1, 3300, Tempo, 1111111
1, 3312, Tempo, 1200000
1, 3324, Tempo, 1034483
1, 3336, Tempo, 983607
1, 3348, Tempo, 1000000
1, 3372, Tempo, 983607
1, 3396, Tempo, 952381
1, 3408, Tempo, 983607
1, 3420, Tempo, 952381
1, 3432, Tempo, 1000000
1, 3444, Tempo, 1034483
1, 3480, Tempo, 952381
1, 3504, Tempo, 983607
1, 3528, Tempo, 1034483
1, 3540, Tempo, 1395349
1, 3552, Tempo, 1200000
1, 3564, Tempo, 1333333
1, 3576, Tempo, 1463415
1, 3588, Tempo, 1395349
1, 3600, Tempo, 1250000
1, 3612, Tempo, 1111111
1, 3624, Tempo, 1000000
1, 3636, Tempo, 983607
1, 3660, Tempo, 1000000
1, 3672, Tempo, 983607
1, 3684, Tempo, 952381
1, 3696, Tempo, 1000000
1, 3708, Tempo, 1071429
1, 3720, Tempo, 1111111
1, 3732, Tempo, 1200000
1, 3744, Tempo, 1304348
1, 3756, Tempo, 1153846
1, 3792, Tempo, 1000000
1, 3840, Tempo, 983607
1, 3852, Tempo, 1000000
1, 3864, Tempo, 1034483
1, 3876, Tempo, 1153846
1, 3900, Tempo, 1111111
1, 3936, Tempo, 1034483
1, 3960, Tempo, 1071429
1, 3984, Tempo, 1304348
1, 3996, Tempo, 1333333
1, 4008, Tempo, 1621622
1, 4020, Tempo, 3000000
1, 4032, Tempo, 895522
1, 4104, Tempo, 714286
1, 4152, Tempo, 800000
1, 4176, Tempo, 731707
1, 4224, Tempo, 845070
1, 4248, Tempo, 789474
1, 4296, Tempo, 895522
1, 4320, Tempo, 750000
1, 4368, Tempo, 800000
1, 4392, Tempo, 769231
1, 4440, Tempo, 821918
1, 4464, Tempo, 769231
1, 4512, Tempo, 800000
1, 4536, Tempo, 731707
1, 4584, Tempo, 952381
1, 4608, Tempo, 731707
1, 4656, Tempo, 789474
1, 4680, Tempo, 750000
1, 4728, Tempo, 845070
1, 4752, Tempo, 821918
1, 4824, Tempo, 731707
1, 4872, Tempo, 821918
1, 4896, Tempo, 731707
1, 4944, Tempo, 821918
1, 4968, Tempo, 731707
1, 5016, Tempo, 821918
1, 5040, Tempo, 731707
1, 5088, Tempo, 789474
1, 5112, Tempo, 750000
1, 5160, Tempo, 1071429
1, 5184, Tempo, 800000
1, 5232, Tempo, 869565
1, 5256, Tempo, 845070
1, 5304, Tempo, 1200000
1, 5328, Tempo, 1000000
1, 5400, Tempo, 845070
1, 5448, Tempo, 869565
1, 5472, Tempo, 800000
1, 5520, Tempo, 845070
1, 5544, Tempo, 731707
1, 5592, Tempo, 800000
1, 5616, Tempo, 731707
1, 5664, Tempo, 800000
1, 5688, Tempo, 697674
1, 5736, Tempo, 983607
1, 5760, Tempo, 800000
1, 5808, Tempo, 789474
1, 5832, Tempo, 800000
1, 5880, Tempo, 845070
1, 5904, Tempo, 869565
1, 5976, Tempo, 750000
1, 6024, Tempo, 869565
1, 6048, Tempo, 750000
1, 6096, Tempo, 821918
1, 6120, Tempo, 714286
1, 6168, Tempo, 821918
1, 6192, Tempo, 750000
1, 6240, Tempo, 800000
1, 6264, Tempo, 731707
1, 6312, Tempo, 1034483
1, 6336, Tempo, 821918
1, 6384, Tempo, 1000000
1, 6396, Tempo, 952381
1, 6402, Tempo, 1071429
1, 6408, Tempo, 895522
1, 6456, Tempo, 1304348
1, 6480, Tempo, 952381
1, 6552, Tempo, 800000
1, 6600, Tempo, 895522
1, 6624, Tempo, 750000
1, 6696, Tempo, 731707
1, 6744, Tempo, 800000
1, 6768, Tempo, 769231
1, 6840, Tempo, 714286
1, 6888, Tempo, 845070
1, 6912, Tempo, 731707
1, 6960, Tempo, 714286
1, 6984, Tempo, 666667
1, 7032, Tempo, 869565
1, 7056, Tempo, 789474
1, 7128, Tempo, 666667
1, 7176, Tempo, 750000
1, 7248, Tempo, 789474
1, 7272, Tempo, 750000
1, 7320, Tempo, 952381
1, 7344, Tempo, 821918
1, 7392, Tempo, 789474
1, 7416, Tempo, 769231
1, 7464, Tempo, 869565
1, 7488, Tempo, 800000
1, 7536, Tempo, 869565
1, 7560, Tempo, 923077
1, 7608, Tempo, 1250000
1, 7632, Tempo, 1153846
1, 7704, Tempo, 731707
1, 7752, Tempo, 952381
1, 7776, Tempo, 769231
1, 7824, Tempo, 800000
1, 7848, Tempo, 789474
1, 7896, Tempo, 845070
1, 7920, Tempo, 750000
1, 7968, Tempo, 845070
1, 7992, Tempo, 800000
1, 8040, Tempo, 1153846
1, 8064, Tempo, 895522
1, 8136, Tempo, 869565
1, 8184, Tempo, 952381
1, 8208, Tempo, 845070
1, 8280, Tempo, 731707
1, 8328, Tempo, 800000
1, 8352, Tempo, 731707
1, 8400, Tempo, 789474
1, 8424, Tempo, 750000
1, 8472, Tempo, 800000
1, 8496, Tempo, 750000
1, 8544, Tempo, 800000
1, 8616, Tempo, 1153846
1, 8640, Tempo, 845070
1, 8688, Tempo, 952381
1, 8712, Tempo, 983607
1, 8760, Tempo, 1250000
1, 8784, Tempo, 1034483
1, 8856, Tempo, 800000
1, 8904, Tempo, 952381
1, 8928, Tempo, 789474
1, 8976, Tempo, 821918
1, 9000, Tempo, 731707
1, 9048, Tempo, 845070
1, 9072, Tempo, 800000
1, 9120, Tempo, 821918
1, 9192, Tempo, 1071429
1, 9216, Tempo, 821918
1, 9264, Tempo, 869565
1, 9288, Tempo, 845070
1, 9336, Tempo, 983607
1, 9360, Tempo, 845070
1, 9432, Tempo, 800000
1, 9480, Tempo, 869565
1, 9504, Tempo, 800000
1, 9552, Tempo, 821918
1, 9576, Tempo, 800000
1, 9624, Tempo, 845070
1, 9648, Tempo, 789474
1, 9696, Tempo, 800000
1, 9720, Tempo, 750000
1, 9768, Tempo, 923077
1, 9792, Tempo, 895522
1, 9840, Tempo, 952381
1, 9852, Tempo, 1153846
1, 9858, Tempo, 1463415
1, 9864, Tempo, 1071429
1, 9912, Tempo, 1153846
1, 9936, Tempo, 1071429
1, 9960, Tempo, 821918
1, 9984, Tempo, 845070
1, 10008, Tempo, 923077
1, 10032, Tempo, 869565
1, 10044, Tempo, 769231
1, 10056, Tempo, 789474
1, 10068, Tempo, 869565
1, 10080, Tempo, 821918
1, 10152, Tempo, 895522
1, 10176, Tempo, 869565
1, 10188, Tempo, 800000
1, 10200, Tempo, 821918
1, 10212, Tempo, 869565
1, 10236, Tempo, 895522
1, 10248, Tempo, 800000
1, 10260, Tempo, 821918
1, 10284, Tempo, 845070
1, 10296, Tempo, 821918
1, 10320, Tempo, 800000
1, 10332, Tempo, 845070
1, 10344, Tempo, 869565
1, 10356, Tempo, 895522
1, 10368, Tempo, 923077
1, 10416, Tempo, 800000
1, 10440, Tempo, 869565
1, 10464, Tempo, 821918
1, 10476, Tempo, 800000
1, 10488, Tempo, 789474
1, 10500, Tempo, 869565
1, 10512, Tempo, 895522
1, 10560, Tempo, 845070
1, 10608, Tempo, 821918
1, 10632, Tempo, 845070
1, 10644, Tempo, 895522
1, 10656, Tempo, 869565
1, 10680, Tempo, 845070
1, 10692, Tempo, 821918
1, 10704, Tempo, 800000
1, 10740, Tempo, 821918
1, 10764, Tempo, 869565
1, 10788, Tempo, 983607
1, 10800, Tempo, 895522
1, 10824, Tempo, 821918
1, 10848, Tempo, 869565
1, 10872, Tempo, 895522
1, 10888, Tempo, 800000
1, 10892, Tempo, 895522
1, 10896, Tempo, 845070
1, 10908, Tempo, 800000
1, 10920, Tempo, 821918
1, 10932, Tempo, 895522
1, 10944, Tempo, 923077
1, 10968, Tempo, 845070
1, 11016, Tempo, 1000000
1, 11032, Tempo, 895522
1, 11036, Tempo, 800000
1, 11040, Tempo, 821918
1, 11052, Tempo, 869565
1, 11064, Tempo, 895522
1, 11076, Tempo, 952381
1, 11088, Tempo, 1000000
1, 11100, Tempo, 895522
1, 11112, Tempo, 821918
1, 11136, Tempo, 800000
1, 11160, Tempo, 821918
1, 11172, Tempo, 845070
1, 11208, Tempo, 869565
1, 11220, Tempo, 923077
1, 11256, Tempo, 845070
1, 11280, Tempo, 923077
1, 11304, Tempo, 895522
1, 11324, Tempo, 800000
1, 11328, Tempo, 869565
1, 11340, Tempo, 895522
1, 11364, Tempo, 923077
1, 11376, Tempo, 952381
1, 11400, Tempo, 845070
1, 11424, Tempo, 869565
1, 11448, Tempo, 895522
1, 11464, Tempo, 845070
1, 11468, Tempo, 769231
1, 11472, Tempo, 845070
1, 11484, Tempo, 895522
1, 11508, Tempo, 983607
1, 11520, Tempo, 1071429
1, 11532, Tempo, 952381
1, 11544, Tempo, 895522
1, 11568, Tempo, 845070
1, 11580, Tempo, 895522
1, 11592, Tempo, 845070
1, 11604, Tempo, 821918
1, 11616, Tempo, 845070
1, 11628, Tempo, 869565
1, 11640, Tempo, 895522
1, 11652, Tempo, 952381
1, 11664, Tempo, 869565
1, 11676, Tempo, 895522
1, 11688, Tempo, 845070
1, 11700, Tempo, 821918
1, 11712, Tempo, 845070
1, 11724, Tempo, 895522
1, 11736, Tempo, 923077
1, 11748, Tempo, 895522
1, 11760, Tempo, 952381
1, 11772, Tempo, 1071429
1, 11784, Tempo, 1111111
1, 11796, Tempo, 1071429
1, 11808, Tempo, 1250000
1, 11820, Tempo, 952381
1, 11832, Tempo, 1000000
1, 11856, Tempo, 869565
1, 11880, Tempo, 895522
1, 11904, Tempo, 983607
1, 11928, Tempo, 1034483
1, 11940, Tempo, 1153846
1, 11964, Tempo, 983607
1, 12000, Tempo, 895522
1, 12024, Tempo, 952381
1, 12048, Tempo, 1153846
1, 12060, Tempo, 1111111
1, 12084, Tempo, 1304348
1, 12096, Tempo, 1333333
1, 12108, Tempo, 1200000
1, 12120, Tempo, 1304348
1, 12144, Tempo, 1153846
1, 12168, Tempo, 869565
1, 12216, Tempo, 983607
1, 12240, Tempo, 750000
1, 12288, Tempo, 800000
1, 12312, Tempo, 769231
1, 12360, Tempo, 821918
1, 12384, Tempo, 769231
1, 12432, Tempo, 800000
1, 12456, Tempo, 731707
1, 12504, Tempo, 952381
1, 12528, Tempo, 731707
1, 12576, Tempo, 789474
1, 12600, Tempo, 750000
1, 12648, Tempo, 845070
1, 12672, Tempo, 821918
1, 12744, Tempo, 731707
1, 12792, Tempo, 821918
1, 12816, Tempo, 731707
1, 12864, Tempo, 821918
1, 12888, Tempo, 731707
1, 12936, Tempo, 821918
1, 12960, Tempo, 731707
1, 13008, Tempo, 789474
1, 13032, Tempo, 769231
1, 13080, Tempo, 1250000
1, 13110, Tempo, 1621622
1, 13116, Tempo, 1000000
1, 13122, Tempo, 1250000
1, 13128, Tempo, 1333333
1, 13134, Tempo, 2500000
1, 13152, Tempo, 869565
1, 13176, Tempo, 845070
1, 13224, Tempo, 1200000
1, 13248, Tempo, 1000000
1, 13320, Tempo, 845070
1, 13368, Tempo, 869565
1, 13392, Tempo, 800000
1, 13440, Tempo, 845070
1, 13464, Tempo, 731707
1, 13512, Tempo, 800000
1, 13536, Tempo, 731707
1, 13584, Tempo, 800000
1, 13608, Tempo, 697674
1, 13656, Tempo, 983607
1, 13680, Tempo, 800000
1, 13728, Tempo, 789474
1, 13752, Tempo, 800000
1, 13800, Tempo, 845070
1, 13824, Tempo, 869565
1, 13896, Tempo, 750000
1, 13944, Tempo, 869565
1, 13968, Tempo, 750000
1, 14016, Tempo, 821918
1, 14040, Tempo, 714286
1, 14088, Tempo, 821918
1, 14112, Tempo, 750000
1, 14160, Tempo, 800000
1, 14184, Tempo, 731707
1, 14232, Tempo, 1034483
1, 14256, Tempo, 821918
1, 14304, Tempo, 2000000
1, 14310, Tempo, 952381
1, 14322, Tempo, 1071429
1, 14328, Tempo, 895522
1, 14376, Tempo, 1304348
1, 14400, Tempo, 952381
1, 14472, Tempo, 800000
1, 14520, Tempo, 895522
1, 14544, Tempo, 750000
1, 14616, Tempo, 731707
1, 14664, Tempo, 800000
1, 14688, Tempo, 769231
1, 14760, Tempo, 714286
1, 14808, Tempo, 845070
1, 14832, Tempo, 731707
1, 14880, Tempo, 714286
1, 14904, Tempo, 666667
1, 14952, Tempo, 869565
1, 14976, Tempo, 789474
1, 15048, Tempo, 666667
1, 15096, Tempo, 750000
1, 15168, Tempo, 789474
1, 15192, Tempo, 750000
1, 15240, Tempo, 952381
1, 15264, Tempo, 821918
1, 15312, Tempo, 789474
1, 15336, Tempo, 769231
1, 15384, Tempo, 869565
1, 15408, Tempo, 800000
1, 15456, Tempo, 869565
1, 15480, Tempo, 895522
1, 15528, Tempo, 1621622
1, 15552, Tempo, 1153846
1, 15624, Tempo, 731707
1, 15672, Tempo, 952381
1, 15696, Tempo, 769231
1, 15744, Tempo, 800000
1, 15768, Tempo, 789474
1, 15816, Tempo, 845070
1, 15840, Tempo, 750000
1, 15888, Tempo, 845070
1, 15912, Tempo, 800000
1, 15960, Tempo, 1153846
1, 15984, Tempo, 895522
1, 16056, Tempo, 869565
1, 16104, Tempo, 952381
1, 16128, Tempo, 845070
1, 16200, Tempo, 731707
1, 16248, Tempo, 800000
1, 16272, Tempo, 731707
1, 16320, Tempo, 789474
1, 16344, Tempo, 750000
1, 16392, Tempo, 800000
1, 16416, Tempo, 750000
1, 16464, Tempo, 800000
1, 16536, Tempo, 1153846
1, 16560, Tempo, 845070
1, 16608, Tempo, 952381
1, 16632, Tempo, 983607
1, 16680, Tempo, 1250000
1, 16704, Tempo, 2142857
1, 16710, Tempo, 1621622
1, 16716, Tempo, 952381
1, 16722, Tempo, 2000000
1, 16728, Tempo, 1818182
1, 16776, Tempo, 800000
1, 16824, Tempo, 952381
1, 16848, Tempo, 789474
1, 16896, Tempo, 821918
1, 16920, Tempo, 731707
1, 16968, Tempo, 845070
1, 16992, Tempo, 800000
1, 17040, Tempo, 821918
1, 17112, Tempo, 1071429
1, 17136, Tempo, 1000000
1, 17142, Tempo, 895522
1, 17148, Tempo, 869565
1, 17154, Tempo, 895522
1, 17160, Tempo, 1000000
1, 17166, Tempo, 2727273
1, 17184, Tempo, 869565
1, 17208, Tempo, 845070
1, 17256, Tempo, 983607
1, 17280, Tempo, 845070
1, 17352, Tempo, 800000
1, 17400, Tempo, 869565
1, 17424, Tempo, 800000
1, 17472, Tempo, 821918
1, 17496, Tempo, 800000
1, 17544, Tempo, 845070
1, 17568, Tempo, 789474
1, 17616, Tempo, 800000
1, 17640, Tempo, 750000
1, 17688, Tempo, 923077
1, 17712, Tempo, 895522
1, 17760, Tempo, 1935484
1, 17766, Tempo, 952381
1, 17778, Tempo, 1463415
1, 17784, Tempo, 1071429
1, 17832, Tempo, 1304348
1, 17856, Tempo, 1153846
1, 17880, Tempo, 983607
1, 17904, Tempo, 1250000
1, 17928, Tempo, 1621622
1, 17944, Tempo, 895522
1, 17948, Tempo, 800000
1, 17952, Tempo, 1071429
1, 17964, Tempo, 923077
1, 17976, Tempo, 952381
1, 17988, Tempo, 983607
1, 18000, Tempo, 1071429
1, 18024, Tempo, 869565
1, 18048, Tempo, 923077
1, 18088, Tempo, 895522
1, 18092, Tempo, 845070
1, 18096, Tempo, 1000000
1, 18108, Tempo, 923077
1, 18120, Tempo, 983607
1, 18132, Tempo, 1034483
1, 18144, Tempo, 952381
1, 18168, Tempo, 821918
1, 18180, Tempo, 869565
1, 18204, Tempo, 895522
1, 18216, Tempo, 923077
1, 18228, Tempo, 895522
1, 18252, Tempo, 869565
1, 18264, Tempo, 895522
1, 18276, Tempo, 952381
1, 18312, Tempo, 845070
1, 18336, Tempo, 895522
1, 18396, Tempo, 869565
1, 18408, Tempo, 845070
1, 18420, Tempo, 952381
1, 18432, Tempo, 983607
1, 18456, Tempo, 869565
1, 18480, Tempo, 923077
1, 18552, Tempo, 952381
1, 18564, Tempo, 1000000
1, 18588, Tempo, 952381
1, 18600, Tempo, 923077
1, 18612, Tempo, 895522
1, 18624, Tempo, 869565
1, 18660, Tempo, 895522
1, 18684, Tempo, 952381
1, 18708, Tempo, 1071429
1, 18720, Tempo, 983607
1, 18744, Tempo, 869565
1, 18768, Tempo, 923077
1, 18792, Tempo, 845070
1, 18816, Tempo, 952381
1, 18828, Tempo, 923077
1, 18840, Tempo, 869565
1, 18852, Tempo, 895522
1, 18864, Tempo, 952381
1, 18888, Tempo, 895522
1, 18912, Tempo, 923077
1, 18936, Tempo, 1000000
1, 18956, Tempo, 845070
1, 18960, Tempo, 952381
1, 18984, Tempo, 983607
1, 18996, Tempo, 1071429
1, 19008, Tempo, 1111111
1, 19024, Tempo, 845070
1, 19028, Tempo, 769231
1, 19032, Tempo, 1000000
1, 19044, Tempo, 895522
1, 19056, Tempo, 983607
1, 19068, Tempo, 1000000
1, 19080, Tempo, 1153846
1, 19096, Tempo, 800000
1, 19100, Tempo, 731707
1, 19104, Tempo, 1250000
1, 19128, Tempo, 1714286
1, 19140, Tempo, 2307692
1, 19152, Tempo, 3333333
1, 19200, Tempo, 2307692
1, 19224, Tempo, 2142857
1, 19272, Tempo, 2307692
1, 19296, Tempo, 1538462
1, 19368, Tempo, 1071429
1, 19416, Tempo, 1153846
1, 19440, Tempo, 923077
1, 19488, Tempo, 952381
1, 19560, Tempo, 1000000
1, 19584, Tempo, 923077
1, 19632, Tempo, 1034483
1, 19656, Tempo, 1111111
1, 19704, Tempo, 1621622
1, 19728, Tempo, 1250000
1, 19776, Tempo, 1304348
1, 19800, Tempo, 1621622
1, 19848, Tempo, 3333333
1, 19872, Tempo, 1818182
1, 19944, Tempo, 1463415
1, 20016, Tempo, 2142857
1, 20088, Tempo, 1818182
1, 20160, Tempo, 2727273
1, 20160, End_track
2, 0, Start_track
2, 0, MIDI_port, 0
2, 0, Title_t, "Piano R"
2, 0, Control_c, 0, 0, 0
2, 0, Control_c, 0, 32, 0
2, 0, Program_c, 0, 0
2, 0, Control_c, 0, 7, 127
2, 0, Control_c, 0, 10, 50
2, 16, Control_c, 0, 91, 100
2, 38, Control_c, 0, 93, 80
2, 144, Control_c, 0, 64, 127
2, 216, Note_on_c, 0, 66, 55
2, 216, Note_on_c, 0, 69, 57
2, 218, Control_c, 0, 64, 0
2, 240, Note_on_c, 0, 69, 0
2, 240, Note_on_c, 0, 66, 0
2, 240, Note_on_c, 0, 67, 60
2, 240, Note_on_c, 0, 71, 62
2, 248, Control_c, 0, 64, 127
2, 252, Note_on_c, 0, 71, 0
2, 252, Note_on_c, 0, 67, 0
2, 252, Note_on_c, 0, 67, 64
2, 252, Note_on_c, 0, 72, 67
2, 264, Note_on_c, 0, 72, 0
2, 264, Note_on_c, 0, 67, 0
2, 264, Note_on_c, 0, 70, 69
2, 264, Note_on_c, 0, 73, 72
2, 276, Note_on_c, 0, 73, 0
2, 276, Note_on_c, 0, 70, 0
2, 276, Note_on_c, 0, 72, 72
2, 276, Note_on_c, 0, 76, 74
2, 288, Note_on_c, 0, 76, 0
2, 288, Note_on_c, 0, 72, 0
2, 288, Note_on_c, 0, 71, 62
2, 288, Note_on_c, 0, 74, 67
2, 288, Control_c, 0, 64, 127
2, 290, Control_c, 0, 64, 0
2, 296, Control_c, 0, 64, 127
2, 334, Note_on_c, 0, 74, 0
2, 334, Note_on_c, 0, 71, 0
2, 360, Note_on_c, 0, 66, 55
2, 360, Note_on_c, 0, 69, 57
2, 362, Control_c, 0, 64, 0
2, 384, Note_on_c, 0, 69, 0
2, 384, Note_on_c, 0, 66, 0
2, 384, Note_on_c, 0, 67, 60
2, 384, Note_on_c, 0, 71, 62
2, 392, Control_c, 0, 64, 127
2, 396, Note_on_c, 0, 71, 0
2, 396, Note_on_c, 0, 67, 0
2, 396, Note_on_c, 0, 67, 62
2, 396, Note_on_c, 0, 72, 64
2, 408, Note_on_c, 0, 72, 0
2, 408, Note_on_c, 0, 67, 0
2, 408, Note_on_c, 0, 70, 64
2, 408, Note_on_c, 0, 73, 67
2, 420, Note_on_c, 0, 73, 0
2, 420, Note_on_c, 0, 70, 0
2, 420, Note_on_c, 0, 72, 62
2, 420, Note_on_c, 0, 76, 64
2, 432, Note_on_c, 0, 76, 0
2, 432, Note_on_c, 0, 72, 0
2, 432, Note_on_c, 0, 71, 60
2, 432, Note_on_c, 0, 74, 62
2, 432, Control_c, 0, 64, 127
2, 434, Control_c, 0, 64, 0
2, 440, Control_c, 0, 64, 127
2, 442, Note_on_c, 0, 74, 0
2, 442, Note_on_c, 0, 71, 0
2, 444, Note_on_c, 0, 76, 74
2, 444, Note_on_c, 0, 84, 79
2, 454, Note_on_c, 0, 84, 0
2, 456, Note_on_c, 0, 76, 0
2, 456, Note_on_c, 0, 74, 72
2, 456, Note_on_c, 0, 83, 76
2, 468, Note_on_c, 0, 83, 0
2, 468, Note_on_c, 0, 74, 0
2, 468, Note_on_c, 0, 72, 67
2, 468, Note_on_c, 0, 78, 72
2, 480, Note_on_c, 0, 78, 0
2, 480, Note_on_c, 0, 72, 0
2, 480, Note_on_c, 0, 71, 69
2, 480, Note_on_c, 0, 79, 74
2, 492, Note_on_c, 0, 79, 0
2, 492, Note_on_c, 0, 71, 0
2, 492, Note_on_c, 0, 72, 67
2, 492, Note_on_c, 0, 76, 69
2, 504, Note_on_c, 0, 76, 0
2, 504, Note_on_c, 0, 72, 0
2, 504, Note_on_c, 0, 71, 64
2, 504, Note_on_c, 0, 74, 67
2, 506, Control_c, 0, 64, 0
2, 516, Note_on_c, 0, 74, 0
2, 516, Note_on_c, 0, 71, 0
2, 516, Note_on_c, 0, 69, 67
2, 516, Note_on_c, 0, 77, 72
2, 526, Note_on_c, 0, 77, 0
2, 528, Note_on_c, 0, 69, 0
2, 528, Note_on_c, 0, 68, 64
2, 528, Note_on_c, 0, 76, 69
2, 536, Control_c, 0, 64, 127
2, 540, Note_on_c, 0, 76, 0
2, 540, Note_on_c, 0, 68, 0
2, 540, Note_on_c, 0, 65, 60
2, 540, Note_on_c, 0, 69, 62
2, 552, Note_on_c, 0, 69, 0
2, 552, Note_on_c, 0, 65, 0
2, 552, Note_on_c, 0, 64, 58
2, 552, Note_on_c, 0, 71, 63
2, 564, Note_on_c, 0, 71, 0
2, 564, Note_on_c, 0, 64, 0
2, 564, Note_on_c, 0, 62, 57
2, 564, Note_on_c, 0, 72, 62
2, 574, Note_on_c, 0, 62, 0
2, 576, Note_on_c, 0, 72, 0
2, 576, Note_on_c, 0, 60, 55
2, 576, Note_on_c, 0, 64, 57
2, 576, Control_c, 0, 64, 127
2, 578, Control_c, 0, 64, 0
2, 584, Control_c, 0, 64, 127
2, 622, Note_on_c, 0, 64, 0
2, 622, Note_on_c, 0, 60, 0
2, 648, Note_on_c, 0, 69, 64
2, 648, Note_on_c, 0, 72, 72
2, 650, Control_c, 0, 64, 0
2, 672, Note_on_c, 0, 72, 0
2, 672, Note_on_c, 0, 69, 0
2, 672, Note_on_c, 0, 68, 64
2, 672, Note_on_c, 0, 71, 67
2, 680, Control_c, 0, 64, 127
2, 684, Note_on_c, 0, 71, 0
2, 684, Note_on_c, 0, 68, 0
2, 684, Note_on_c, 0, 69, 67
2, 684, Note_on_c, 0, 72, 69
2, 696, Note_on_c, 0, 72, 0
2, 696, Note_on_c, 0, 69, 0
2, 696, Note_on_c, 0, 71, 69
2, 696, Note_on_c, 0, 74, 72
2, 708, Note_on_c, 0, 74, 0
2, 708, Note_on_c, 0, 71, 0
2, 708, Note_on_c, 0, 68, 67
2, 708, Note_on_c, 0, 77, 74
2, 720, Note_on_c, 0, 77, 0
2, 720, Note_on_c, 0, 68, 0
2, 720, Note_on_c, 0, 72, 62
2, 720, Note_on_c, 0, 76, 64
2, 720, Control_c, 0, 64, 127
2, 722, Control_c, 0, 64, 0
2, 728, Control_c, 0, 64, 127
2, 766, Note_on_c, 0, 76, 0
2, 766, Note_on_c, 0, 72, 0
2, 792, Note_on_c, 0, 69, 64
2, 792, Note_on_c, 0, 72, 72
2, 794, Control_c, 0, 64, 0
2, 816, Note_on_c, 0, 72, 0
2, 816, Note_on_c, 0, 69, 0
2, 816, Note_on_c, 0, 68, 64
2, 816, Note_on_c, 0, 71, 67
2, 824, Control_c, 0, 64, 127
2, 828, Note_on_c, 0, 71, 0
2, 828, Note_on_c, 0, 68, 0
2, 828, Note_on_c, 0, 69, 64
2, 828, Note_on_c, 0, 72, 67
2, 840, Note_on_c, 0, 72, 0
2, 840, Note_on_c, 0, 69, 0
2, 840, Note_on_c, 0, 71, 63
2, 840, Note_on_c, 0, 74, 66
2, 852, Note_on_c, 0, 74, 0
2, 852, Note_on_c, 0, 71, 0
2, 852, Note_on_c, 0, 68, 57
2, 852, Note_on_c, 0, 77, 64
2, 864, Note_on_c, 0, 77, 0
2, 864, Note_on_c, 0, 68, 0
2, 864, Note_on_c, 0, 72, 55
2, 864, Note_on_c, 0, 76, 57
2, 864, Control_c, 0, 64, 127
2, 866, Control_c, 0, 64, 0
2, 872, Control_c, 0, 64, 127
2, 874, Note_on_c, 0, 76, 0
2, 876, Note_on_c, 0, 72, 0
2, 876, Note_on_c, 0, 76, 72
2, 876, Note_on_c, 0, 84, 76
2, 888, Note_on_c, 0, 84, 0
2, 888, Note_on_c, 0, 76, 0
2, 888, Note_on_c, 0, 74, 69
2, 888, Note_on_c, 0, 83, 74
2, 898, Note_on_c, 0, 74, 0
2, 900, Note_on_c, 0, 83, 0
2, 900, Note_on_c, 0, 71, 67
2, 900, Note_on_c, 0, 80, 72
2, 912, Note_on_c, 0, 80, 0
2, 912, Note_on_c, 0, 71, 0
2, 912, Note_on_c, 0, 72, 69
2, 912, Note_on_c, 0, 81, 74
2, 924, Note_on_c, 0, 81, 0
2, 924, Note_on_c, 0, 72, 0
2, 924, Note_on_c, 0, 74, 67
2, 924, Note_on_c, 0, 77, 69
2, 936, Note_on_c, 0, 77, 0
2, 936, Note_on_c, 0, 74, 0
2, 936, Note_on_c, 0, 72, 64
2, 936, Note_on_c, 0, 76, 67
2, 938, Control_c, 0, 64, 0
2, 948, Note_on_c, 0, 76, 0
2, 948, Note_on_c, 0, 72, 0
2, 948, Note_on_c, 0, 71, 67
2, 948, Note_on_c, 0, 79, 72
2, 958, Note_on_c, 0, 79, 0
2, 960, Note_on_c, 0, 71, 0
2, 960, Note_on_c, 0, 69, 64
2, 960, Note_on_c, 0, 78, 69
2, 968, Control_c, 0, 64, 127
2, 972, Note_on_c, 0, 78, 0
2, 972, Note_on_c, 0, 69, 0
2, 972, Note_on_c, 0, 67, 60
2, 972, Note_on_c, 0, 71, 62
2, 984, Note_on_c, 0, 71, 0
2, 984, Note_on_c, 0, 67, 0
2, 984, Note_on_c, 0, 66, 58
2, 984, Note_on_c, 0, 72, 63
2, 996, Note_on_c, 0, 72, 0
2, 996, Note_on_c, 0, 66, 0
2, 996, Note_on_c, 0, 62, 57
2, 996, Note_on_c, 0, 74, 62
2, 1008, Note_on_c, 0, 74, 0
2, 1008, Note_on_c, 0, 62, 0
2, 1008, Note_on_c, 0, 67, 55
2, 1008, Note_on_c, 0, 71, 60
2, 1008, Control_c, 0, 64, 127
2, 1010, Control_c, 0, 64, 0
2, 1016, Control_c, 0, 64, 127
2, 1078, Note_on_c, 0, 71, 0
2, 1078, Note_on_c, 0, 67, 0
2, 1082, Control_c, 0, 64, 0
2, 1096, Note_on_c, 0, 67, 67
2, 1100, Note_on_c, 0, 67, 0
2, 1100, Note_on_c, 0, 69, 69
2, 1104, Note_on_c, 0, 69, 0
2, 1104, Note_on_c, 0, 64, 67
2, 1104, Note_on_c, 0, 67, 69
2, 1112, Control_c, 0, 64, 127
2, 1116, Note_on_c, 0, 67, 0
2, 1116, Note_on_c, 0, 66, 69
2, 1128, Note_on_c, 0, 66, 0
2, 1128, Note_on_c, 0, 64, 0
2, 1128, Note_on_c, 0, 63, 67
2, 1128, Note_on_c, 0, 67, 72
2, 1130, Control_c, 0, 64, 0
2, 1136, Control_c, 0, 64, 127
2, 1140, Note_on_c, 0, 67, 0
2, 1140, Note_on_c, 0, 63, 0
2, 1140, Note_on_c, 0, 65, 66
2, 1140, Note_on_c, 0, 69, 68
2, 1152, Note_on_c, 0, 69, 0
2, 1152, Note_on_c, 0, 65, 0
2, 1152, Note_on_c, 0, 62, 62
2, 1152, Note_on_c, 0, 70, 69
2, 1152, Control_c, 0, 64, 127
2, 1154, Control_c, 0, 64, 0
2, 1160, Control_c, 0, 64, 127
2, 1198, Note_on_c, 0, 70, 0
2, 1198, Note_on_c, 0, 62, 0
2, 1226, Control_c, 0, 64, 0
2, 1240, Note_on_c, 0, 70, 62
2, 1244, Note_on_c, 0, 70, 0
2, 1244, Note_on_c, 0, 72, 64
2, 1248, Note_on_c, 0, 72, 0
2, 1248, Note_on_c, 0, 67, 62
2, 1248, Note_on_c, 0, 70, 64
2, 1256, Control_c, 0, 64, 127
2, 1260, Note_on_c, 0, 70, 0
2, 1260, Note_on_c, 0, 69, 64
2, 1272, Note_on_c, 0, 69, 0
2, 1272, Note_on_c, 0, 67, 0
2, 1272, Note_on_c, 0, 66, 62
2, 1272, Note_on_c, 0, 70, 67
2, 1274, Control_c, 0, 64, 0
2, 1280, Control_c, 0, 64, 127
2, 1284, Note_on_c, 0, 70, 0
2, 1284, Note_on_c, 0, 66, 0
2, 1284, Note_on_c, 0, 68, 61
2, 1284, Note_on_c, 0, 72, 63
2, 1296, Note_on_c, 0, 72, 0
2, 1296, Note_on_c, 0, 68, 0
2, 1296, Note_on_c, 0, 65, 62
2, 1296, Note_on_c, 0, 73, 69
2, 1296, Control_c, 0, 64, 127
2, 1298, Control_c, 0, 64, 0
2, 1304, Control_c, 0, 64, 127
2, 1306, Note_on_c, 0, 73, 0
2, 1306, Note_on_c, 0, 65, 0
2, 1308, Note_on_c, 0, 82, 76
2, 1308, Note_on_c, 0, 90, 81
2, 1318, Note_on_c, 0, 90, 0
2, 1320, Note_on_c, 0, 82, 0
2, 1320, Note_on_c, 0, 80, 76
2, 1320, Note_on_c, 0, 89, 79
2, 1332, Note_on_c, 0, 89, 0
2, 1332, Note_on_c, 0, 80, 0
2, 1332, Note_on_c, 0, 78, 72
2, 1332, Note_on_c, 0, 84, 76
2, 1342, Note_on_c, 0, 78, 0
2, 1344, Note_on_c, 0, 84, 0
2, 1344, Note_on_c, 0, 77, 74
2, 1344, Note_on_c, 0, 85, 79
2, 1356, Note_on_c, 0, 85, 0
2, 1356, Note_on_c, 0, 77, 0
2, 1356, Note_on_c, 0, 78, 72
2, 1356, Note_on_c, 0, 82, 74
2, 1368, Note_on_c, 0, 82, 0
2, 1368, Note_on_c, 0, 78, 0
2, 1368, Note_on_c, 0, 77, 69
2, 1368, Note_on_c, 0, 80, 72
2, 1378, Note_on_c, 0, 77, 0
2, 1380, Note_on_c, 0, 80, 0
2, 1380, Note_on_c, 0, 75, 72
2, 1380, Note_on_c, 0, 83, 76
2, 1382, Control_c, 0, 64, 0
2, 1390, Note_on_c, 0, 83, 0
2, 1392, Note_on_c, 0, 75, 0
2, 1392, Note_on_c, 0, 74, 69
2, 1392, Note_on_c, 0, 82, 74
2, 1400, Control_c, 0, 64, 127
2, 1404, Note_on_c, 0, 82, 0
2, 1404, Note_on_c, 0, 74, 0
2, 1404, Note_on_c, 0, 71, 64
2, 1404, Note_on_c, 0, 75, 67
2, 1416, Note_on_c, 0, 75, 0
2, 1416, Note_on_c, 0, 71, 0
2, 1416, Note_on_c, 0, 70, 63
2, 1416, Note_on_c, 0, 77, 68
2, 1428, Note_on_c, 0, 77, 0
2, 1428, Note_on_c, 0, 70, 0
2, 1428, Note_on_c, 0, 68, 62
2, 1428, Note_on_c, 0, 78, 67
2, 1438, Note_on_c, 0, 68, 0
2, 1440, Note_on_c, 0, 78, 0
2, 1440, Note_on_c, 0, 66, 60
2, 1440, Note_on_c, 0, 70, 62
2, 1440, Control_c, 0, 64, 127
2, 1442, Control_c, 0, 64, 0
2, 1448, Control_c, 0, 64, 127
2, 1510, Note_on_c, 0, 70, 0
2, 1510, Note_on_c, 0, 66, 0
2, 1514, Control_c, 0, 64, 0
2, 1536, Note_on_c, 0, 74, 67
2, 1536, Note_on_c, 0, 77, 69
2, 1544, Control_c, 0, 64, 127
2, 1546, Note_on_c, 0, 74, 0
2, 1548, Note_on_c, 0, 77, 0
2, 1548, Note_on_c, 0, 75, 69
2, 1548, Note_on_c, 0, 78, 72
2, 1560, Note_on_c, 0, 78, 0
2, 1560, Note_on_c, 0, 75, 0
2, 1560, Note_on_c, 0, 77, 72
2, 1560, Note_on_c, 0, 80, 74
2, 1572, Note_on_c, 0, 80, 0
2, 1572, Note_on_c, 0, 77, 0
2, 1572, Note_on_c, 0, 74, 69
2, 1572, Note_on_c, 0, 83, 76
2, 1584, Note_on_c, 0, 83, 0
2, 1584, Note_on_c, 0, 74, 0
2, 1584, Note_on_c, 0, 78, 62
2, 1584, Note_on_c, 0, 82, 64
2, 1584, Control_c, 0, 64, 127
2, 1586, Control_c, 0, 64, 0
2, 1592, Control_c, 0, 64, 127
2, 1630, Note_on_c, 0, 82, 0
2, 1630, Note_on_c, 0, 78, 0
2, 1656, Note_on_c, 0, 75, 67
2, 1656, Note_on_c, 0, 78, 74
2, 1658, Control_c, 0, 64, 0
2, 1680, Note_on_c, 0, 78, 0
2, 1680, Note_on_c, 0, 75, 0
2, 1680, Note_on_c, 0, 74, 67
2, 1680, Note_on_c, 0, 77, 69
2, 1688, Control_c, 0, 64, 127
2, 1690, Note_on_c, 0, 74, 0
2, 1692, Note_on_c, 0, 77, 0
2, 1692, Note_on_c, 0, 75, 67
2, 1692, Note_on_c, 0, 78, 69
2, 1702, Note_on_c, 0, 75, 0
2, 1704, Note_on_c, 0, 78, 0
2, 1704, Note_on_c, 0, 77, 66
2, 1704, Note_on_c, 0, 80, 68
2, 1716, Note_on_c, 0, 80, 0
2, 1716, Note_on_c, 0, 77, 0
2, 1716, Note_on_c, 0, 74, 60
2, 1716, Note_on_c, 0, 83, 67
2, 1728, Note_on_c, 0, 83, 0
2, 1728, Note_on_c, 0, 74, 0
2, 1728, Note_on_c, 0, 78, 60
2, 1728, Note_on_c, 0, 82, 62
2, 1728, Control_c, 0, 64, 127
2, 1730, Control_c, 0, 64, 0
2, 1736, Control_c, 0, 64, 127
2, 1738, Note_on_c, 0, 82, 0
2, 1738, Note_on_c, 0, 78, 0
2, 1740, Note_on_c, 0, 82, 76
2, 1740, Note_on_c, 0, 90, 81
2, 1750, Note_on_c, 0, 90, 0
2, 1752, Note_on_c, 0, 82, 0
2, 1752, Note_on_c, 0, 80, 74
2, 1752, Note_on_c, 0, 89, 79
2, 1764, Note_on_c, 0, 89, 0
2, 1764, Note_on_c, 0, 80, 0
2, 1764, Note_on_c, 0, 77, 72
2, 1764, Note_on_c, 0, 86, 76
2, 1774, Note_on_c, 0, 77, 0
2, 1776, Note_on_c, 0, 86, 0
2, 1776, Note_on_c, 0, 78, 74
2, 1776, Note_on_c, 0, 87, 79
2, 1788, Note_on_c, 0, 87, 0
2, 1788, Note_on_c, 0, 78, 0
2, 1788, Note_on_c, 0, 80, 72
2, 1788, Note_on_c, 0, 83, 74
2, 1800, Note_on_c, 0, 83, 0
2, 1800, Note_on_c, 0, 80, 0
2, 1800, Note_on_c, 0, 78, 69
2, 1800, Note_on_c, 0, 82, 72
2, 1802, Control_c, 0, 64, 0
2, 1810, Note_on_c, 0, 78, 0
2, 1812, Note_on_c, 0, 82, 0
2, 1812, Note_on_c, 0, 77, 72
2, 1812, Note_on_c, 0, 85, 76
2, 1822, Note_on_c, 0, 85, 0
2, 1824, Note_on_c, 0, 77, 0
2, 1824, Note_on_c, 0, 75, 69
2, 1824, Note_on_c, 0, 84, 74
2, 1832, Control_c, 0, 64, 127
2, 1836, Note_on_c, 0, 84, 0
2, 1836, Note_on_c, 0, 75, 0
2, 1836, Note_on_c, 0, 73, 64
2, 1836, Note_on_c, 0, 77, 67
2, 1846, Note_on_c, 0, 73, 0
2, 1848, Note_on_c, 0, 77, 0
2, 1848, Note_on_c, 0, 72, 63
2, 1848, Note_on_c, 0, 78, 68
2, 1858, Note_on_c, 0, 72, 0
2, 1860, Note_on_c, 0, 78, 0
2, 1860, Note_on_c, 0, 68, 62
2, 1860, Note_on_c, 0, 80, 67
2, 1872, Note_on_c, 0, 80, 0
2, 1872, Note_on_c, 0, 68, 0
2, 1872, Note_on_c, 0, 73, 60
2, 1872, Note_on_c, 0, 77, 64
2, 1872, Control_c, 0, 64, 127
2, 1874, Control_c, 0, 64, 0
2, 1880, Control_c, 0, 64, 127
2, 1946, Control_c, 0, 64, 0
2, 1964, Note_on_c, 0, 77, 0
2, 1964, Note_on_c, 0, 73, 0
2, 1968, Note_on_c, 0, 70, 72
2, 1968, Note_on_c, 0, 78, 79
2, 1976, Control_c, 0, 64, 127
2, 1978, Note_on_c, 0, 70, 0
2, 1980, Note_on_c, 0, 78, 0
2, 1980, Note_on_c, 0, 68, 84
2, 1980, Note_on_c, 0, 77, 88
2, 1992, Note_on_c, 0, 77, 0
2, 1992, Note_on_c, 0, 68, 0
2, 1992, Note_on_c, 0, 66, 75
2, 1992, Note_on_c, 0, 75, 82
2, 1994, Control_c, 0, 64, 0
2, 2000, Control_c, 0, 64, 127
2, 2004, Note_on_c, 0, 75, 0
2, 2004, Note_on_c, 0, 66, 0
2, 2004, Note_on_c, 0, 65, 76
2, 2004, Note_on_c, 0, 73, 84
2, 2014, Note_on_c, 0, 65, 0
2, 2016, Note_on_c, 0, 73, 0
2, 2016, Note_on_c, 0, 63, 67
2, 2016, Note_on_c, 0, 69, 69
2, 2016, Note_on_c, 0, 72, 79
2, 2016, Control_c, 0, 64, 127
2, 2018, Control_c, 0, 64, 0
2, 2024, Control_c, 0, 64, 127
2, 2086, Note_on_c, 0, 72, 0
2, 2086, Note_on_c, 0, 69, 0
2, 2086, Note_on_c, 0, 63, 0
2, 2088, Note_on_c, 0, 61, 64
2, 2088, Note_on_c, 0, 65, 67
2, 2088, Note_on_c, 0, 70, 76
2, 2090, Control_c, 0, 64, 0
2, 2110, Note_on_c, 0, 61, 0
2, 2112, Note_on_c, 0, 70, 0
2, 2112, Note_on_c, 0, 63, 72
2, 2112, Note_on_c, 0, 72, 79
2, 2120, Control_c, 0, 64, 127
2, 2122, Note_on_c, 0, 63, 0
2, 2124, Note_on_c, 0, 72, 0
2, 2124, Note_on_c, 0, 61, 69
2, 2124, Note_on_c, 0, 70, 76
2, 2134, Note_on_c, 0, 61, 0
2, 2136, Note_on_c, 0, 70, 0
2, 2136, Note_on_c, 0, 65, 0
2, 2136, Note_on_c, 0, 58, 62
2, 2136, Note_on_c, 0, 64, 69
2, 2136, Note_on_c, 0, 67, 76
2, 2138, Control_c, 0, 64, 0
2, 2144, Control_c, 0, 64, 127
2, 2146, Note_on_c, 0, 58, 0
2, 2148, Note_on_c, 0, 67, 0
2, 2148, Note_on_c, 0, 60, 69
2, 2148, Note_on_c, 0, 69, 76
2, 2158, Note_on_c, 0, 60, 0
2, 2160, Note_on_c, 0, 69, 0
2, 2160, Note_on_c, 0, 64, 0
2, 2160, Note_on_c, 0, 57, 62
2, 2160, Note_on_c, 0, 65, 69
2, 2160, Control_c, 0, 64, 127
2, 2162, Control_c, 0, 64, 0
2, 2168, Control_c, 0, 64, 127
2, 2206, Note_on_c, 0, 65, 0
2, 2206, Note_on_c, 0, 57, 0
2, 2232, Note_on_c, 0, 69, 76
2, 2232, Note_on_c, 0, 74, 81
2, 2232, Note_on_c, 0, 77, 91
2, 2234, Control_c, 0, 64, 0
2, 2240, Control_c, 0, 64, 127
2, 2254, Note_on_c, 0, 69, 0
2, 2256, Note_on_c, 0, 77, 0
2, 2256, Note_on_c, 0, 70, 79
2, 2256, Note_on_c, 0, 79, 86
2, 2266, Note_on_c, 0, 79, 0
2, 2266, Note_on_c, 0, 70, 0
2, 2268, Note_on_c, 0, 69, 81
2, 2268, Note_on_c, 0, 77, 91
2, 2278, Note_on_c, 0, 69, 0
2, 2280, Note_on_c, 0, 77, 0
2, 2280, Note_on_c, 0, 74, 0
2, 2280, Note_on_c, 0, 67, 79
2, 2280, Note_on_c, 0, 76, 86
2, 2290, Note_on_c, 0, 67, 0
2, 2292, Note_on_c, 0, 76, 0
2, 2292, Note_on_c, 0, 65, 76
2, 2292, Note_on_c, 0, 74, 84
2, 2302, Note_on_c, 0, 65, 0
2, 2304, Note_on_c, 0, 74, 0
2, 2304, Note_on_c, 0, 64, 67
2, 2304, Note_on_c, 0, 69, 72
2, 2304, Note_on_c, 0, 72, 79
2, 2304, Control_c, 0, 64, 127
2, 2306, Control_c, 0, 64, 0
2, 2312, Control_c, 0, 64, 127
2, 2350, Note_on_c, 0, 72, 0
2, 2350, Note_on_c, 0, 69, 0
2, 2350, Note_on_c, 0, 64, 0
2, 2378, Control_c, 0, 64, 0
2, 2388, Note_on_c, 0, 63, 67
2, 2388, Note_on_c, 0, 71, 74
2, 2400, Note_on_c, 0, 71, 0
2, 2400, Note_on_c, 0, 63, 0
2, 2400, Note_on_c, 0, 64, 69
2, 2400, Note_on_c, 0, 72, 75
2, 2412, Note_on_c, 0, 72, 0
2, 2412, Note_on_c, 0, 64, 0
2, 2412, Note_on_c, 0, 63, 67
2, 2412, Note_on_c, 0, 71, 72
2, 2422, Note_on_c, 0, 71, 0
2, 2422, Note_on_c, 0, 63, 0
2, 2424, Note_on_c, 0, 62, 62
2, 2424, Note_on_c, 0, 65, 67
2, 2424, Note_on_c, 0, 74, 69
2, 2434, Note_on_c, 0, 74, 0
2, 2434, Note_on_c, 0, 65, 0
2, 2436, Note_on_c, 0, 64, 64
2, 2436, Note_on_c, 0, 72, 69
2, 2446, Note_on_c, 0, 62, 0
2, 2448, Note_on_c, 0, 72, 0
2, 2448, Note_on_c, 0, 64, 0
2, 2448, Note_on_c, 0, 60, 62
2, 2448, Note_on_c, 0, 69, 67
2, 2448, Control_c, 0, 64, 0
2, 2456, Control_c, 0, 64, 127
2, 2458, Note_on_c, 0, 69, 0
2, 2458, Note_on_c, 0, 60, 0
2, 2460, Note_on_c, 0, 76, 81
2, 2460, Note_on_c, 0, 84, 86
2, 2470, Note_on_c, 0, 84, 0
2, 2472, Note_on_c, 0, 76, 0
2, 2472, Note_on_c, 0, 74, 79
2, 2472, Note_on_c, 0, 83, 84
2, 2484, Note_on_c, 0, 83, 0
2, 2484, Note_on_c, 0, 74, 0
2, 2484, Note_on_c, 0, 71, 74
2, 2484, Note_on_c, 0, 80, 79
2, 2496, Note_on_c, 0, 80, 0
2, 2496, Note_on_c, 0, 71, 0
2, 2496, Note_on_c, 0, 72, 76
2, 2496, Note_on_c, 0, 81, 81
2, 2508, Note_on_c, 0, 81, 0
2, 2508, Note_on_c, 0, 72, 0
2, 2508, Note_on_c, 0, 74, 74
2, 2508, Note_on_c, 0, 77, 76
2, 2520, Note_on_c, 0, 77, 0
2, 2520, Note_on_c, 0, 74, 0
2, 2520, Note_on_c, 0, 72, 72
2, 2520, Note_on_c, 0, 76, 74
2, 2522, Control_c, 0, 64, 0
2, 2528, Control_c, 0, 64, 127
2, 2532, Note_on_c, 0, 76, 0
2, 2532, Note_on_c, 0, 72, 0
2, 2532, Note_on_c, 0, 71, 74
2, 2532, Note_on_c, 0, 79, 79
2, 2542, Note_on_c, 0, 79, 0
2, 2544, Note_on_c, 0, 71, 0
2, 2544, Note_on_c, 0, 69, 72
2, 2544, Note_on_c, 0, 77, 76
2, 2556, Note_on_c, 0, 77, 0
2, 2556, Note_on_c, 0, 69, 0
2, 2556, Note_on_c, 0, 68, 72
2, 2556, Note_on_c, 0, 71, 74
2, 2568, Note_on_c, 0, 71, 0
2, 2568, Note_on_c, 0, 68, 0
2, 2568, Note_on_c, 0, 69, 70
2, 2568, Note_on_c, 0, 72, 75
2, 2580, Note_on_c, 0, 72, 0
2, 2580, Note_on_c, 0, 69, 0
2, 2580, Note_on_c, 0, 65, 67
2, 2580, Note_on_c, 0, 71, 69
2, 2580, Note_on_c, 0, 74, 74
2, 2590, Note_on_c, 0, 74, 0
2, 2590, Note_on_c, 0, 71, 0
2, 2590, Note_on_c, 0, 65, 0
2, 2592, Note_on_c, 0, 64, 64
2, 2592, Note_on_c, 0, 72, 72
2, 2592, Note_on_c, 0, 76, 76
2, 2592, Control_c, 0, 64, 127
2, 2594, Control_c, 0, 64, 0
2, 2600, Control_c, 0, 64, 127
2, 2614, Note_on_c, 0, 76, 0
2, 2614, Note_on_c, 0, 72, 0
2, 2614, Note_on_c, 0, 64, 0
2, 2666, Control_c, 0, 64, 0
2, 2676, Note_on_c, 0, 63, 67
2, 2676, Note_on_c, 0, 71, 74
2, 2688, Note_on_c, 0, 71, 0
2, 2688, Note_on_c, 0, 63, 0
2, 2688, Note_on_c, 0, 64, 69
2, 2688, Note_on_c, 0, 72, 75
2, 2700, Note_on_c, 0, 72, 0
2, 2700, Note_on_c, 0, 64, 0
2, 2700, Note_on_c, 0, 63, 67
2, 2700, Note_on_c, 0, 71, 72
2, 2710, Note_on_c, 0, 71, 0
2, 2710, Note_on_c, 0, 63, 0
2, 2712, Note_on_c, 0, 62, 60
2, 2712, Note_on_c, 0, 65, 62
2, 2712, Note_on_c, 0, 74, 69
2, 2722, Note_on_c, 0, 65, 0
2, 2724, Note_on_c, 0, 74, 0
2, 2724, Note_on_c, 0, 64, 62
2, 2724, Note_on_c, 0, 72, 67
2, 2734, Note_on_c, 0, 62, 0
2, 2736, Note_on_c, 0, 72, 0
2, 2736, Note_on_c, 0, 64, 0
2, 2736, Note_on_c, 0, 60, 60
2, 2736, Note_on_c, 0, 69, 64
2, 2736, Control_c, 0, 64, 0
2, 2744, Control_c, 0, 64, 127
2, 2746, Note_on_c, 0, 69, 0
2, 2746, Note_on_c, 0, 60, 0
2, 2748, Note_on_c, 0, 76, 72
2, 2748, Note_on_c, 0, 84, 76
2, 2758, Note_on_c, 0, 84, 0
2, 2760, Note_on_c, 0, 76, 0
2, 2760, Note_on_c, 0, 74, 69
2, 2760, Note_on_c, 0, 83, 74
2, 2772, Note_on_c, 0, 83, 0
2, 2772, Note_on_c, 0, 74, 0
2, 2772, Note_on_c, 0, 71, 64
2, 2772, Note_on_c, 0, 80, 69
2, 2784, Note_on_c, 0, 80, 0
2, 2784, Note_on_c, 0, 71, 0
2, 2784, Note_on_c, 0, 72, 67
2, 2784, Note_on_c, 0, 81, 72
2, 2796, Note_on_c, 0, 81, 0
2, 2796, Note_on_c, 0, 72, 0
2, 2796, Note_on_c, 0, 74, 64
2, 2796, Note_on_c, 0, 77, 67
2, 2808, Note_on_c, 0, 77, 0
2, 2808, Note_on_c, 0, 74, 0
2, 2808, Note_on_c, 0, 72, 62
2, 2808, Note_on_c, 0, 76, 64
2, 2810, Control_c, 0, 64, 0
2, 2816, Control_c, 0, 64, 127
2, 2820, Note_on_c, 0, 76, 0
2, 2820, Note_on_c, 0, 72, 0
2, 2820, Note_on_c, 0, 71, 64
2, 2820, Note_on_c, 0, 79, 69
2, 2832, Note_on_c, 0, 79, 0
2, 2832, Note_on_c, 0, 71, 0
2, 2832, Note_on_c, 0, 69, 62
2, 2832, Note_on_c, 0, 77, 67
2, 2844, Note_on_c, 0, 77, 0
2, 2844, Note_on_c, 0, 69, 0
2, 2844, Note_on_c, 0, 68, 62
2, 2844, Note_on_c, 0, 71, 64
2, 2856, Note_on_c, 0, 71, 0
2, 2856, Note_on_c, 0, 68, 0
2, 2856, Note_on_c, 0, 69, 61
2, 2856, Note_on_c, 0, 72, 66
2, 2868, Note_on_c, 0, 72, 0
2, 2868, Note_on_c, 0, 69, 0
2, 2868, Note_on_c, 0, 65, 57
2, 2868, Note_on_c, 0, 71, 60
2, 2868, Note_on_c, 0, 74, 64
2, 2878, Note_on_c, 0, 74, 0
2, 2878, Note_on_c, 0, 71, 0
2, 2878, Note_on_c, 0, 65, 0
2, 2880, Note_on_c, 0, 64, 55
2, 2880, Note_on_c, 0, 72, 57
2, 2880, Note_on_c, 0, 76, 62
2, 2880, Control_c, 0, 64, 127
2, 2882, Control_c, 0, 64, 0
2, 2888, Control_c, 0, 64, 127
2, 2902, Note_on_c, 0, 76, 0
2, 2902, Note_on_c, 0, 72, 0
2, 2902, Note_on_c, 0, 64, 0
2, 2954, Control_c, 0, 64, 0
2, 2964, Note_on_c, 0, 63, 55
2, 2964, Note_on_c, 0, 71, 62
2, 2976, Note_on_c, 0, 71, 0
2, 2976, Note_on_c, 0, 63, 0
2, 2976, Note_on_c, 0, 64, 57
2, 2976, Note_on_c, 0, 72, 63
2, 2988, Note_on_c, 0, 72, 0
2, 2988, Note_on_c, 0, 64, 0
2, 2988, Note_on_c, 0, 63, 55
2, 2988, Note_on_c, 0, 71, 60
2, 2998, Note_on_c, 0, 71, 0
2, 2998, Note_on_c, 0, 63, 0
2, 3000, Note_on_c, 0, 62, 50
2, 3000, Note_on_c, 0, 65, 52
2, 3000, Note_on_c, 0, 74, 60
2, 3010, Note_on_c, 0, 65, 0
2, 3012, Note_on_c, 0, 74, 0
2, 3012, Note_on_c, 0, 64, 52
2, 3012, Note_on_c, 0, 72, 57
2, 3022, Note_on_c, 0, 62, 0
2, 3024, Note_on_c, 0, 72, 0
2, 3024, Note_on_c, 0, 64, 0
2, 3024, Note_on_c, 0, 60, 48
2, 3024, Note_on_c, 0, 69, 52
2, 3024, Control_c, 0, 64, 0
2, 3032, Control_c, 0, 64, 127
2, 3046, Note_on_c, 0, 69, 0
2, 3046, Note_on_c, 0, 60, 0
2, 3112, Note_on_c, 0, 64, 69
2, 3116, Note_on_c, 0, 64, 0
2, 3116, Note_on_c, 0, 66, 72
2, 3120, Note_on_c, 0, 66, 0
2, 3120, Note_on_c, 0, 60, 69
2, 3120, Note_on_c, 0, 64, 72
2, 3130, Note_on_c, 0, 60, 0
2, 3132, Note_on_c, 0, 64, 0
2, 3132, Note_on_c, 0, 59, 69
2, 3132, Note_on_c, 0, 62, 72
2, 3134, Control_c, 0, 64, 0
2, 3142, Note_on_c, 0, 59, 0
2, 3144, Note_on_c, 0, 62, 0
2, 3144, Note_on_c, 0, 60, 72
2, 3144, Note_on_c, 0, 64, 74
2, 3156, Note_on_c, 0, 64, 0
2, 3156, Note_on_c, 0, 60, 0
2, 3156, Note_on_c, 0, 62, 70
2, 3156, Note_on_c, 0, 66, 73
2, 3168, Note_on_c, 0, 66, 0
2, 3168, Note_on_c, 0, 62, 0
2, 3168, Note_on_c, 0, 59, 64
2, 3168, Note_on_c, 0, 67, 72
2, 3168, Control_c, 0, 64, 0
2, 3176, Control_c, 0, 64, 127
2, 3214, Note_on_c, 0, 67, 0
2, 3214, Note_on_c, 0, 59, 0
2, 3254, Control_c, 0, 64, 0
2, 3256, Note_on_c, 0, 62, 62
2, 3260, Note_on_c, 0, 62, 0
2, 3260, Note_on_c, 0, 64, 64
2, 3264, Note_on_c, 0, 64, 0
2, 3264, Note_on_c, 0, 58, 62
2, 3264, Note_on_c, 0, 62, 64
2, 3274, Note_on_c, 0, 58, 0
2, 3276, Note_on_c, 0, 62, 0
2, 3276, Note_on_c, 0, 57, 62
2, 3276, Note_on_c, 0, 60, 64
2, 3286, Note_on_c, 0, 57, 0
2, 3288, Note_on_c, 0, 60, 0
2, 3288, Note_on_c, 0, 58, 64
2, 3288, Note_on_c, 0, 62, 67
2, 3300, Note_on_c, 0, 62, 0
2, 3300, Note_on_c, 0, 58, 0
2, 3300, Note_on_c, 0, 60, 62
2, 3300, Note_on_c, 0, 64, 64
2, 3312, Note_on_c, 0, 64, 0
2, 3312, Note_on_c, 0, 60, 0
2, 3312, Note_on_c, 0, 56, 52
2, 3312, Note_on_c, 0, 65, 60
2, 3312, Control_c, 0, 64, 127
2, 3314, Control_c, 0, 64, 0
2, 3320, Control_c, 0, 64, 127
2, 3322, Note_on_c, 0, 65, 0
2, 3322, Note_on_c, 0, 56, 0
2, 3324, Note_on_c, 0, 72, 72
2, 3324, Note_on_c, 0, 80, 76
2, 3334, Note_on_c, 0, 80, 0
2, 3336, Note_on_c, 0, 72, 0
2, 3336, Note_on_c, 0, 70, 69
2, 3336, Note_on_c, 0, 79, 74
2, 3348, Note_on_c, 0, 79, 0
2, 3348, Note_on_c, 0, 70, 0
2, 3348, Note_on_c, 0, 67, 64
2, 3348, Note_on_c, 0, 76, 69
2, 3358, Note_on_c, 0, 67, 0
2, 3360, Note_on_c, 0, 76, 0
2, 3360, Note_on_c, 0, 68, 67
2, 3360, Note_on_c, 0, 77, 72
2, 3372, Note_on_c, 0, 77, 0
2, 3372, Note_on_c, 0, 68, 0
2, 3372, Note_on_c, 0, 70, 64
2, 3372, Note_on_c, 0, 73, 67
2, 3384, Note_on_c, 0, 73, 0
2, 3384, Note_on_c, 0, 70, 0
2, 3384, Note_on_c, 0, 68, 62
2, 3384, Note_on_c, 0, 72, 64
2, 3394, Note_on_c, 0, 68, 0
2, 3396, Note_on_c, 0, 72, 0
2, 3396, Note_on_c, 0, 67, 64
2, 3396, Note_on_c, 0, 75, 69
2, 3398, Control_c, 0, 64, 0
2, 3406, Note_on_c, 0, 75, 0
2, 3408, Note_on_c, 0, 67, 0
2, 3408, Note_on_c, 0, 65, 62
2, 3408, Note_on_c, 0, 73, 67
2, 3416, Control_c, 0, 64, 127
2, 3420, Note_on_c, 0, 73, 0
2, 3420, Note_on_c, 0, 65, 0
2, 3420, Note_on_c, 0, 64, 62
2, 3420, Note_on_c, 0, 67, 64
2, 3432, Note_on_c, 0, 67, 0
2, 3432, Note_on_c, 0, 64, 0
2, 3432, Note_on_c, 0, 65, 61
2, 3432, Note_on_c, 0, 68, 66
2, 3444, Note_on_c, 0, 68, 0
2, 3444, Note_on_c, 0, 65, 0
2, 3444, Note_on_c, 0, 61, 57
2, 3444, Note_on_c, 0, 67, 60
2, 3444, Note_on_c, 0, 70, 64
2, 3454, Note_on_c, 0, 70, 0
2, 3454, Note_on_c, 0, 67, 0
2, 3454, Note_on_c, 0, 61, 0
2, 3456, Note_on_c, 0, 60, 57
2, 3456, Note_on_c, 0, 68, 60
2, 3456, Note_on_c, 0, 72, 67
2, 3456, Control_c, 0, 64, 127
2, 3458, Control_c, 0, 64, 0
2, 3464, Control_c, 0, 64, 127
2, 3478, Note_on_c, 0, 72, 0
2, 3478, Note_on_c, 0, 68, 0
2, 3478, Note_on_c, 0, 60, 0
2, 3530, Control_c, 0, 64, 0
2, 3540, Note_on_c, 0, 59, 60
2, 3540, Note_on_c, 0, 67, 67
2, 3552, Note_on_c, 0, 67, 0
2, 3552, Note_on_c, 0, 59, 0
2, 3552, Note_on_c, 0, 60, 64
2, 3552, Note_on_c, 0, 68, 70
2, 3564, Note_on_c, 0, 68, 0
2, 3564, Note_on_c, 0, 60, 0
2, 3564, Note_on_c, 0, 59, 62
2, 3564, Note_on_c, 0, 67, 67
2, 3574, Note_on_c, 0, 67, 0
2, 3574, Note_on_c, 0, 59, 0
2, 3576, Note_on_c, 0, 58, 57
2, 3576, Note_on_c, 0, 61, 62
2, 3576, Note_on_c, 0, 70, 64
2, 3586, Note_on_c, 0, 61, 0
2, 3588, Note_on_c, 0, 70, 0
2, 3588, Note_on_c, 0, 60, 60
2, 3588, Note_on_c, 0, 68, 64
2, 3598, Note_on_c, 0, 58, 0
2, 3600, Note_on_c, 0, 68, 0
2, 3600, Note_on_c, 0, 60, 0
2, 3600, Note_on_c, 0, 56, 55
2, 3600, Note_on_c, 0, 65, 60
2, 3600, Control_c, 0, 64, 0
2, 3608, Control_c, 0, 64, 127
2, 3610, Note_on_c, 0, 65, 0
2, 3610, Note_on_c, 0, 56, 0
2, 3612, Note_on_c, 0, 72, 62
2, 3612, Note_on_c, 0, 80, 64
2, 3622, Note_on_c, 0, 80, 0
2, 3624, Note_on_c, 0, 72, 0
2, 3624, Note_on_c, 0, 70, 62
2, 3624, Note_on_c, 0, 79, 69
2, 3636, Note_on_c, 0, 79, 0
2, 3636, Note_on_c, 0, 70, 0
2, 3636, Note_on_c, 0, 67, 64
2, 3636, Note_on_c, 0, 76, 69
2, 3646, Note_on_c, 0, 67, 0
2, 3648, Note_on_c, 0, 76, 0
2, 3648, Note_on_c, 0, 68, 69
2, 3648, Note_on_c, 0, 77, 74
2, 3660, Note_on_c, 0, 77, 0
2, 3660, Note_on_c, 0, 68, 0
2, 3660, Note_on_c, 0, 70, 67
2, 3660, Note_on_c, 0, 73, 69
2, 3670, Note_on_c, 0, 70, 0
2, 3672, Note_on_c, 0, 73, 0
2, 3672, Note_on_c, 0, 68, 64
2, 3672, Note_on_c, 0, 72, 67
2, 3674, Control_c, 0, 64, 0
2, 3680, Control_c, 0, 64, 127
2, 3684, Note_on_c, 0, 72, 0
2, 3684, Note_on_c, 0, 68, 0
2, 3684, Note_on_c, 0, 67, 67
2, 3684, Note_on_c, 0, 75, 72
2, 3696, Note_on_c, 0, 75, 0
2, 3696, Note_on_c, 0, 67, 0
2, 3696, Note_on_c, 0, 65, 64
2, 3696, Note_on_c, 0, 73, 69
2, 3708, Note_on_c, 0, 73, 0
2, 3708, Note_on_c, 0, 65, 0
2, 3708, Note_on_c, 0, 63, 64
2, 3708, Note_on_c, 0, 67, 67
2, 3720, Note_on_c, 0, 67, 0
2, 3720, Note_on_c, 0, 63, 0
2, 3720, Note_on_c, 0, 61, 63
2, 3720, Note_on_c, 0, 68, 68
2, 3732, Note_on_c, 0, 68, 0
2, 3732, Note_on_c, 0, 61, 0
2, 3732, Note_on_c, 0, 58, 60
2, 3732, Note_on_c, 0, 70, 67
2, 3744, Note_on_c, 0, 70, 0
2, 3744, Note_on_c, 0, 58, 0
2, 3744, Note_on_c, 0, 62, 63
2, 3744, Note_on_c, 0, 66, 68
2, 3744, Control_c, 0, 64, 127
2, 3756, Note_on_c, 0, 62, 0
2, 3756, Note_on_c, 0, 61, 60
2, 3766, Note_on_c, 0, 61, 0
2, 3766, Note_on_c, 0, 66, 0
2, 3770, Control_c, 0, 64, 0
2, 3776, Control_c, 0, 64, 127
2, 3840, Note_on_c, 0, 60, 67
2, 3840, Note_on_c, 0, 63, 69
2, 3842, Control_c, 0, 64, 0
2, 3848, Control_c, 0, 64, 127
2, 3850, Note_on_c, 0, 60, 0
2, 3852, Note_on_c, 0, 63, 0
2, 3852, Note_on_c, 0, 61, 69
2, 3852, Note_on_c, 0, 65, 72
2, 3864, Note_on_c, 0, 65, 0
2, 3864, Note_on_c, 0, 61, 0
2, 3864, Note_on_c, 0, 60, 67
2, 3864, Note_on_c, 0, 66, 72
2, 3876, Note_on_c, 0, 66, 0
2, 3876, Note_on_c, 0, 60, 0
2, 3876, Note_on_c, 0, 56, 62
2, 3876, Note_on_c, 0, 68, 67
2, 3888, Note_on_c, 0, 68, 0
2, 3888, Note_on_c, 0, 56, 0
2, 3888, Note_on_c, 0, 60, 57
2, 3888, Note_on_c, 0, 64, 62
2, 3888, Control_c, 0, 64, 127
2, 3900, Note_on_c, 0, 60, 0
2, 3900, Note_on_c, 0, 59, 52
2, 3910, Note_on_c, 0, 59, 0
2, 3910, Note_on_c, 0, 64, 0
2, 3914, Control_c, 0, 64, 0
2, 3920, Control_c, 0, 64, 127
2, 3984, Note_on_c, 0, 58, 57
2, 3984, Note_on_c, 0, 61, 60
2, 3986, Control_c, 0, 64, 0
2, 3992, Control_c, 0, 64, 127
2, 3994, Note_on_c, 0, 58, 0
2, 3996, Note_on_c, 0, 61, 0
2, 3996, Note_on_c, 0, 59, 62
2, 3996, Note_on_c, 0, 63, 64
2, 4008, Note_on_c, 0, 63, 0
2, 4008, Note_on_c, 0, 59, 0
2, 4008, Note_on_c, 0, 58, 57
2, 4008, Note_on_c, 0, 64, 62
2, 4010, Control_c, 0, 64, 0
2, 4020, Note_on_c, 0, 64, 0
2, 4020, Note_on_c, 0, 58, 0
2, 4020, Note_on_c, 0, 54, 52
2, 4020, Note_on_c, 0, 66, 60
2, 4022, Control_c, 0, 64, 127
2, 4026, Note_on_c, 0, 66, 0
2, 4026, Note_on_c, 0, 54, 0
2, 4032, Note_on_c, 0, 55, 52
2, 4032, Note_on_c, 0, 59, 57
2, 4032, Note_on_c, 0, 67, 64
2, 4032, Control_c, 0, 64, 0
2, 4040, Control_c, 0, 64, 127
2, 4096, Note_on_c, 0, 67, 0
2, 4104, Note_on_c, 0, 67, 79
2, 4152, Note_on_c, 0, 67, 0
2, 4152, Note_on_c, 0, 69, 69
2, 4164, Note_on_c, 0, 55, 0
2, 4176, Note_on_c, 0, 69, 0
2, 4176, Note_on_c, 0, 67, 79
2, 4176, Control_c, 0, 64, 127
2, 4178, Control_c, 0, 64, 0
2, 4184, Control_c, 0, 64, 127
2, 4224, Note_on_c, 0, 67, 0
2, 4224, Note_on_c, 0, 55, 74
2, 4248, Note_on_c, 0, 55, 0
2, 4248, Note_on_c, 0, 67, 72
2, 4296, Note_on_c, 0, 67, 0
2, 4296, Note_on_c, 0, 69, 67
2, 4308, Note_on_c, 0, 59, 0
2, 4320, Note_on_c, 0, 69, 0
2, 4320, Note_on_c, 0, 59, 52
2, 4320, Note_on_c, 0, 65, 57
2, 4320, Note_on_c, 0, 67, 72
2, 4320, Control_c, 0, 64, 127
2, 4322, Control_c, 0, 64, 0
2, 4328, Control_c, 0, 64, 127
2, 4368, Note_on_c, 0, 67, 0
2, 4368, Note_on_c, 0, 55, 74
2, 4386, Note_on_c, 0, 65, 0
2, 4386, Note_on_c, 0, 59, 0
2, 4392, Note_on_c, 0, 55, 0
2, 4392, Note_on_c, 0, 59, 52
2, 4392, Note_on_c, 0, 65, 57
2, 4392, Note_on_c, 0, 67, 79
2, 4440, Note_on_c, 0, 67, 0
2, 4440, Note_on_c, 0, 69, 72
2, 4458, Note_on_c, 0, 65, 0
2, 4458, Note_on_c, 0, 59, 0
2, 4464, Note_on_c, 0, 69, 0
2, 4464, Note_on_c, 0, 60, 62
2, 4464, Note_on_c, 0, 64, 64
2, 4464, Note_on_c, 0, 67, 81
2, 4464, Control_c, 0, 64, 127
2, 4466, Control_c, 0, 64, 0
2, 4472, Control_c, 0, 64, 127
2, 4512, Note_on_c, 0, 67, 0
2, 4512, Note_on_c, 0, 55, 74
2, 4530, Note_on_c, 0, 64, 0
2, 4530, Note_on_c, 0, 60, 0
2, 4536, Note_on_c, 0, 55, 0
2, 4536, Note_on_c, 0, 60, 62
2, 4536, Note_on_c, 0, 64, 64
2, 4536, Note_on_c, 0, 67, 81
2, 4582, Note_on_c, 0, 67, 0
2, 4584, Note_on_c, 0, 76, 96
2, 4600, Note_on_c, 0, 76, 0
2, 4602, Note_on_c, 0, 64, 0
2, 4602, Note_on_c, 0, 60, 0
2, 4608, Note_on_c, 0, 65, 72
2, 4608, Note_on_c, 0, 76, 98
2, 4608, Control_c, 0, 64, 127
2, 4610, Control_c, 0, 64, 0
2, 4616, Control_c, 0, 64, 127
2, 4656, Note_on_c, 0, 76, 0
2, 4656, Note_on_c, 0, 74, 79
2, 4680, Note_on_c, 0, 74, 0
2, 4680, Note_on_c, 0, 72, 72
2, 4682, Control_c, 0, 64, 0
2, 4688, Control_c, 0, 64, 127
2, 4728, Note_on_c, 0, 72, 0
2, 4728, Note_on_c, 0, 69, 67
2, 4740, Note_on_c, 0, 65, 0
2, 4752, Note_on_c, 0, 69, 0
2, 4752, Note_on_c, 0, 64, 52
2, 4752, Note_on_c, 0, 67, 64
2, 4752, Control_c, 0, 64, 127
2, 4754, Control_c, 0, 64, 0
2, 4760, Control_c, 0, 64, 127
2, 4818, Note_on_c, 0, 67, 0
2, 4824, Note_on_c, 0, 67, 76
2, 4872, Note_on_c, 0, 67, 0
2, 4872, Note_on_c, 0, 69, 67
2, 4884, Note_on_c, 0, 64, 0
2, 4896, Note_on_c, 0, 69, 0
2, 4896, Note_on_c, 0, 59, 52
2, 4896, Note_on_c, 0, 65, 57
2, 4896, Note_on_c, 0, 67, 74
2, 4896, Control_c, 0, 64, 127
2, 4898, Control_c, 0, 64, 0
2, 4904, Control_c, 0, 64, 127
2, 4944, Note_on_c, 0, 67, 0
2, 4944, Note_on_c, 0, 55, 74
2, 4962, Note_on_c, 0, 65, 0
2, 4962, Note_on_c, 0, 59, 0
2, 4968, Note_on_c, 0, 55, 0
2, 4968, Note_on_c, 0, 59, 52
2, 4968, Note_on_c, 0, 65, 57
2, 4968, Note_on_c, 0, 67, 74
2, 5016, Note_on_c, 0, 67, 0
2, 5016, Note_on_c, 0, 69, 69
2, 5034, Note_on_c, 0, 65, 0
2, 5034, Note_on_c, 0, 59, 0
2, 5040, Note_on_c, 0, 69, 0
2, 5040, Note_on_c, 0, 60, 52
2, 5040, Note_on_c, 0, 64, 57
2, 5040, Note_on_c, 0, 67, 74
2, 5040, Control_c, 0, 64, 127
2, 5042, Control_c, 0, 64, 0
2, 5048, Control_c, 0, 64, 127
2, 5088, Note_on_c, 0, 67, 0
2, 5088, Note_on_c, 0, 55, 74
2, 5106, Note_on_c, 0, 64, 0
2, 5106, Note_on_c, 0, 60, 0
2, 5112, Note_on_c, 0, 55, 0
2, 5112, Note_on_c, 0, 60, 55
2, 5112, Note_on_c, 0, 64, 60
2, 5112, Note_on_c, 0, 67, 74
2, 5158, Note_on_c, 0, 67, 0
2, 5160, Note_on_c, 0, 72, 88
2, 5176, Note_on_c, 0, 72, 0
2, 5178, Note_on_c, 0, 64, 0
2, 5178, Note_on_c, 0, 60, 0
2, 5184, Note_on_c, 0, 60, 52
2, 5184, Note_on_c, 0, 64, 57
2, 5184, Note_on_c, 0, 72, 86
2, 5184, Control_c, 0, 64, 127
2, 5186, Control_c, 0, 64, 0
2, 5192, Control_c, 0, 64, 127
2, 5232, Note_on_c, 0, 72, 0
2, 5232, Note_on_c, 0, 71, 69
2, 5256, Note_on_c, 0, 71, 0
2, 5256, Note_on_c, 0, 69, 66
2, 5258, Control_c, 0, 64, 0
2, 5264, Control_c, 0, 64, 127
2, 5292, Note_on_c, 0, 64, 0
2, 5304, Note_on_c, 0, 69, 0
2, 5304, Note_on_c, 0, 64, 67
2, 5316, Note_on_c, 0, 60, 0
2, 5328, Note_on_c, 0, 59, 40
2, 5328, Note_on_c, 0, 68, 48
2, 5328, Note_on_c, 0, 71, 64
2, 5328, Control_c, 0, 64, 127
2, 5330, Control_c, 0, 64, 0
2, 5336, Control_c, 0, 64, 127
2, 5392, Note_on_c, 0, 71, 0
2, 5400, Note_on_c, 0, 71, 64
2, 5416, Note_on_c, 0, 64, 0
2, 5416, Note_on_c, 0, 68, 0
2, 5416, Note_on_c, 0, 59, 0
2, 5448, Note_on_c, 0, 71, 0
2, 5448, Note_on_c, 0, 73, 62
2, 5472, Note_on_c, 0, 73, 0
2, 5472, Note_on_c, 0, 63, 48
2, 5472, Note_on_c, 0, 69, 52
2, 5472, Note_on_c, 0, 71, 64
2, 5472, Control_c, 0, 64, 127
2, 5474, Control_c, 0, 64, 0
2, 5480, Control_c, 0, 64, 127
2, 5520, Note_on_c, 0, 71, 0
2, 5520, Note_on_c, 0, 59, 62
2, 5538, Note_on_c, 0, 69, 0
2, 5538, Note_on_c, 0, 63, 0
2, 5544, Note_on_c, 0, 59, 0
2, 5544, Note_on_c, 0, 63, 48
2, 5544, Note_on_c, 0, 69, 52
2, 5544, Note_on_c, 0, 71, 66
2, 5592, Note_on_c, 0, 71, 0
2, 5592, Note_on_c, 0, 73, 67
2, 5610, Note_on_c, 0, 69, 0
2, 5610, Note_on_c, 0, 63, 0
2, 5616, Note_on_c, 0, 73, 0
2, 5616, Note_on_c, 0, 64, 50
2, 5616, Note_on_c, 0, 68, 55
2, 5616, Note_on_c, 0, 71, 67
2, 5616, Control_c, 0, 64, 127
2, 5618, Control_c, 0, 64, 0
2, 5624, Control_c, 0, 64, 127
2, 5664, Note_on_c, 0, 71, 0
2, 5664, Note_on_c, 0, 59, 64
2, 5682, Note_on_c, 0, 68, 0
2, 5682, Note_on_c, 0, 64, 0
2, 5688, Note_on_c, 0, 59, 0
2, 5688, Note_on_c, 0, 64, 52
2, 5688, Note_on_c, 0, 68, 57
2, 5688, Note_on_c, 0, 71, 72
2, 5734, Note_on_c, 0, 71, 0
2, 5736, Note_on_c, 0, 80, 86
2, 5752, Note_on_c, 0, 80, 0
2, 5754, Note_on_c, 0, 68, 0
2, 5754, Note_on_c, 0, 64, 0
2, 5760, Note_on_c, 0, 69, 60
2, 5760, Note_on_c, 0, 80, 74
2, 5760, Control_c, 0, 64, 127
2, 5762, Control_c, 0, 64, 0
2, 5768, Control_c, 0, 64, 127
2, 5808, Note_on_c, 0, 80, 0
2, 5808, Note_on_c, 0, 78, 68
2, 5832, Note_on_c, 0, 78, 0
2, 5832, Note_on_c, 0, 76, 69
2, 5834, Control_c, 0, 64, 0
2, 5840, Control_c, 0, 64, 127
2, 5880, Note_on_c, 0, 76, 0
2, 5880, Note_on_c, 0, 73, 62
2, 5892, Note_on_c, 0, 69, 0
2, 5904, Note_on_c, 0, 73, 0
2, 5904, Note_on_c, 0, 68, 48
2, 5904, Note_on_c, 0, 71, 60
2, 5904, Control_c, 0, 64, 127
2, 5906, Control_c, 0, 64, 0
2, 5912, Control_c, 0, 64, 127
2, 5970, Note_on_c, 0, 71, 0
2, 5976, Note_on_c, 0, 71, 67
2, 6024, Note_on_c, 0, 71, 0
2, 6024, Note_on_c, 0, 73, 64
2, 6036, Note_on_c, 0, 68, 0
2, 6048, Note_on_c, 0, 73, 0
2, 6048, Note_on_c, 0, 63, 52
2, 6048, Note_on_c, 0, 69, 57
2, 6048, Note_on_c, 0, 71, 72
2, 6048, Control_c, 0, 64, 127
2, 6050, Control_c, 0, 64, 0
2, 6056, Control_c, 0, 64, 127
2, 6096, Note_on_c, 0, 71, 0
2, 6096, Note_on_c, 0, 59, 67
2, 6114, Note_on_c, 0, 69, 0
2, 6114, Note_on_c, 0, 63, 0
2, 6120, Note_on_c, 0, 59, 0
2, 6120, Note_on_c, 0, 63, 52
2, 6120, Note_on_c, 0, 69, 57
2, 6120, Note_on_c, 0, 71, 72
2, 6168, Note_on_c, 0, 71, 0
2, 6168, Note_on_c, 0, 73, 74
2, 6186, Note_on_c, 0, 69, 0
2, 6186, Note_on_c, 0, 63, 0
2, 6192, Note_on_c, 0, 73, 0
2, 6192, Note_on_c, 0, 64, 52
2, 6192, Note_on_c, 0, 68, 57
2, 6192, Note_on_c, 0, 71, 74
2, 6192, Control_c, 0, 64, 127
2, 6194, Control_c, 0, 64, 0
2, 6200, Control_c, 0, 64, 127
2, 6240, Note_on_c, 0, 71, 0
2, 6240, Note_on_c, 0, 59, 72
2, 6258, Note_on_c, 0, 68, 0
2, 6258, Note_on_c, 0, 64, 0
2, 6264, Note_on_c, 0, 59, 0
2, 6264, Note_on_c, 0, 64, 60
2, 6264, Note_on_c, 0, 68, 64
2, 6264, Note_on_c, 0, 71, 81
2, 6310, Note_on_c, 0, 71, 0
2, 6312, Note_on_c, 0, 73, 86
2, 6330, Note_on_c, 0, 68, 0
2, 6330, Note_on_c, 0, 64, 0
2, 6336, Note_on_c, 0, 73, 0
2, 6336, Note_on_c, 0, 69, 64
2, 6336, Note_on_c, 0, 74, 79
2, 6336, Control_c, 0, 64, 127
2, 6338, Control_c, 0, 64, 0
2, 6344, Control_c, 0, 64, 127
2, 6384, Note_on_c, 0, 74, 0
2, 6384, Note_on_c, 0, 62, 62
2, 6390, Note_on_c, 0, 62, 0
2, 6396, Note_on_c, 0, 69, 0
2, 6396, Note_on_c, 0, 62, 62
2, 6402, Note_on_c, 0, 69, 67
2, 6408, Note_on_c, 0, 74, 74
2, 6448, Note_on_c, 0, 74, 0
2, 6448, Note_on_c, 0, 62, 0
2, 6456, Note_on_c, 0, 61, 57
2, 6456, Note_on_c, 0, 73, 67
2, 6458, Control_c, 0, 64, 0
2, 6464, Control_c, 0, 64, 127
2, 6472, Note_on_c, 0, 73, 0
2, 6472, Note_on_c, 0, 61, 0
2, 6472, Note_on_c, 0, 69, 0
2, 6480, Note_on_c, 0, 61, 48
2, 6480, Note_on_c, 0, 68, 52
2, 6480, Note_on_c, 0, 73, 62
2, 6480, Control_c, 0, 64, 127
2, 6482, Control_c, 0, 64, 0
2, 6488, Control_c, 0, 64, 127
2, 6546, Note_on_c, 0, 73, 0
2, 6546, Note_on_c, 0, 61, 0
2, 6552, Note_on_c, 0, 73, 60
2, 6554, Control_c, 0, 64, 0
2, 6560, Control_c, 0, 64, 127
2, 6600, Note_on_c, 0, 73, 0
2, 6600, Note_on_c, 0, 74, 62
2, 6612, Note_on_c, 0, 68, 0
2, 6616, Note_on_c, 0, 74, 0
2, 6624, Note_on_c, 0, 69, 48
2, 6624, Note_on_c, 0, 74, 62
2, 6624, Control_c, 0, 64, 127
2, 6626, Control_c, 0, 64, 0
2, 6632, Control_c, 0, 64, 127
2, 6672, Note_on_c, 0, 74, 0
2, 6672, Note_on_c, 0, 73, 60
2, 6688, Note_on_c, 0, 73, 0
2, 6696, Note_on_c, 0, 73, 67
2, 6698, Control_c, 0, 64, 0
2, 6704, Control_c, 0, 64, 127
2, 6744, Note_on_c, 0, 73, 0
2, 6744, Note_on_c, 0, 78, 64
2, 6756, Note_on_c, 0, 69, 0
2, 6760, Note_on_c, 0, 78, 0
2, 6768, Note_on_c, 0, 71, 45
2, 6768, Note_on_c, 0, 73, 50
2, 6768, Note_on_c, 0, 78, 64
2, 6768, Control_c, 0, 64, 127
2, 6770, Control_c, 0, 64, 0
2, 6776, Control_c, 0, 64, 127
2, 6816, Note_on_c, 0, 78, 0
2, 6816, Note_on_c, 0, 77, 55
2, 6832, Note_on_c, 0, 77, 0
2, 6840, Note_on_c, 0, 77, 64
2, 6842, Control_c, 0, 64, 0
2, 6848, Control_c, 0, 64, 127
2, 6888, Note_on_c, 0, 77, 0
2, 6888, Note_on_c, 0, 74, 62
2, 6900, Note_on_c, 0, 73, 0
2, 6900, Note_on_c, 0, 71, 0
2, 6904, Note_on_c, 0, 74, 0
2, 6912, Note_on_c, 0, 69, 52
2, 6912, Note_on_c, 0, 74, 67
2, 6912, Control_c, 0, 64, 127
2, 6914, Control_c, 0, 64, 0
2, 6920, Control_c, 0, 64, 127
2, 6960, Note_on_c, 0, 74, 0
2, 6960, Note_on_c, 0, 73, 64
2, 6976, Note_on_c, 0, 73, 0
2, 6984, Note_on_c, 0, 73, 73
2, 6986, Control_c, 0, 64, 0
2, 6992, Control_c, 0, 64, 127
2, 7032, Note_on_c, 0, 73, 0
2, 7032, Note_on_c, 0, 74, 74
2, 7044, Note_on_c, 0, 69, 0
2, 7054, Note_on_c, 0, 74, 0
2, 7056, Note_on_c, 0, 63, 57
2, 7056, Note_on_c, 0, 70, 48
2, 7056, Note_on_c, 0, 73, 60
2, 7056, Note_on_c, 0, 75, 76
2, 7056, Control_c, 0, 64, 127
2, 7058, Control_c, 0, 64, 0
2, 7064, Control_c, 0, 64, 127
2, 7122, Note_on_c, 0, 75, 0
2, 7122, Note_on_c, 0, 63, 0
2, 7128, Note_on_c, 0, 75, 81
2, 7130, Control_c, 0, 64, 0
2, 7136, Control_c, 0, 64, 127
2, 7176, Note_on_c, 0, 75, 0
2, 7176, Note_on_c, 0, 76, 79
2, 7188, Note_on_c, 0, 73, 0
2, 7188, Note_on_c, 0, 70, 0
2, 7192, Note_on_c, 0, 76, 0
2, 7200, Note_on_c, 0, 64, 60
2, 7200, Note_on_c, 0, 71, 67
2, 7200, Note_on_c, 0, 76, 84
2, 7200, Control_c, 0, 64, 127
2, 7202, Control_c, 0, 64, 0
2, 7208, Control_c, 0, 64, 127
2, 7240, Note_on_c, 0, 64, 0
2, 7248, Note_on_c, 0, 76, 0
2, 7248, Note_on_c, 0, 75, 84
2, 7264, Note_on_c, 0, 75, 0
2, 7272, Note_on_c, 0, 75, 85
2, 7274, Control_c, 0, 64, 0
2, 7280, Control_c, 0, 64, 127
2, 7320, Note_on_c, 0, 75, 0
2, 7320, Note_on_c, 0, 80, 91
2, 7332, Note_on_c, 0, 71, 0
2, 7336, Note_on_c, 0, 80, 0
2, 7344, Note_on_c, 0, 73, 72
2, 7344, Note_on_c, 0, 80, 91
2, 7344, Control_c, 0, 64, 127
2, 7346, Control_c, 0, 64, 0
2, 7352, Control_c, 0, 64, 127
2, 7392, Note_on_c, 0, 80, 0
2, 7392, Note_on_c, 0, 79, 79
2, 7408, Note_on_c, 0, 79, 0
2, 7416, Note_on_c, 0, 79, 76
2, 7418, Control_c, 0, 64, 0
2, 7424, Control_c, 0, 64, 127
2, 7464, Note_on_c, 0, 79, 0
2, 7464, Note_on_c, 0, 78, 67
2, 7480, Note_on_c, 0, 78, 0
2, 7488, Note_on_c, 0, 78, 64
2, 7488, Control_c, 0, 64, 127
2, 7490, Control_c, 0, 64, 0
2, 7496, Control_c, 0, 64, 127
2, 7536, Note_on_c, 0, 78, 0
2, 7536, Note_on_c, 0, 77, 60
2, 7552, Note_on_c, 0, 77, 0
2, 7560, Note_on_c, 0, 77, 58
2, 7562, Control_c, 0, 64, 0
2, 7568, Control_c, 0, 64, 127
2, 7608, Note_on_c, 0, 77, 0
2, 7608, Note_on_c, 0, 76, 52
2, 7620, Note_on_c, 0, 73, 0
2, 7632, Note_on_c, 0, 76, 0
2, 7632, Note_on_c, 0, 72, 43
2, 7632, Note_on_c, 0, 77, 55
2, 7632, Control_c, 0, 64, 127
2, 7634, Control_c, 0, 64, 0
2, 7640, Control_c, 0, 64, 127
2, 7698, Note_on_c, 0, 77, 0
2, 7698, Note_on_c, 0, 72, 0
2, 7704, Note_on_c, 0, 65, 62
2, 7752, Note_on_c, 0, 65, 0
2, 7752, Note_on_c, 0, 67, 64
2, 7776, Note_on_c, 0, 67, 0
2, 7776, Note_on_c, 0, 57, 48
2, 7776, Note_on_c, 0, 63, 52
2, 7776, Note_on_c, 0, 65, 67
2, 7776, Control_c, 0, 64, 127
2, 7778, Control_c, 0, 64, 0
2, 7784, Control_c, 0, 64, 127
2, 7824, Note_on_c, 0, 65, 0
2, 7824, Note_on_c, 0, 53, 67
2, 7842, Note_on_c, 0, 63, 0
2, 7842, Note_on_c, 0, 57, 0
2, 7848, Note_on_c, 0, 53, 0
2, 7848, Note_on_c, 0, 57, 48
2, 7848, Note_on_c, 0, 63, 52
2, 7848, Note_on_c, 0, 65, 74
2, 7896, Note_on_c, 0, 65, 0
2, 7896, Note_on_c, 0, 67, 64
2, 7914, Note_on_c, 0, 63, 0
2, 7914, Note_on_c, 0, 57, 0
2, 7920, Note_on_c, 0, 67, 0
2, 7920, Note_on_c, 0, 58, 55
2, 7920, Note_on_c, 0, 62, 57
2, 7920, Note_on_c, 0, 65, 74
2, 7920, Control_c, 0, 64, 127
2, 7922, Control_c, 0, 64, 0
2, 7928, Control_c, 0, 64, 127
2, 7968, Note_on_c, 0, 65, 0
2, 7968, Note_on_c, 0, 53, 67
2, 7986, Note_on_c, 0, 62, 0
2, 7986, Note_on_c, 0, 58, 0
2, 7992, Note_on_c, 0, 53, 0
2, 7992, Note_on_c, 0, 58, 55
2, 7992, Note_on_c, 0, 62, 57
2, 7992, Note_on_c, 0, 65, 74
2, 8038, Note_on_c, 0, 65, 0
2, 8040, Note_on_c, 0, 74, 81
2, 8056, Note_on_c, 0, 74, 0
2, 8058, Note_on_c, 0, 62, 0
2, 8058, Note_on_c, 0, 58, 0
2, 8064, Note_on_c, 0, 63, 62
2, 8064, Note_on_c, 0, 74, 84
2, 8064, Control_c, 0, 64, 127
2, 8066, Control_c, 0, 64, 0
2, 8072, Control_c, 0, 64, 127
2, 8112, Note_on_c, 0, 74, 0
2, 8112, Note_on_c, 0, 72, 72
2, 8136, Note_on_c, 0, 72, 0
2, 8136, Note_on_c, 0, 70, 64
2, 8138, Control_c, 0, 64, 0
2, 8144, Control_c, 0, 64, 127
2, 8184, Note_on_c, 0, 70, 0
2, 8184, Note_on_c, 0, 67, 62
2, 8196, Note_on_c, 0, 63, 0
2, 8208, Note_on_c, 0, 67, 0
2, 8208, Note_on_c, 0, 62, 48
2, 8208, Note_on_c, 0, 65, 60
2, 8208, Control_c, 0, 64, 127
2, 8210, Control_c, 0, 64, 0
2, 8216, Control_c, 0, 64, 127
2, 8274, Note_on_c, 0, 65, 0
2, 8280, Note_on_c, 0, 65, 69
2, 8328, Note_on_c, 0, 65, 0
2, 8328, Note_on_c, 0, 67, 64
2, 8340, Note_on_c, 0, 62, 0
2, 8352, Note_on_c, 0, 67, 0
2, 8352, Note_on_c, 0, 57, 50
2, 8352, Note_on_c, 0, 63, 55
2, 8352, Note_on_c, 0, 65, 72
2, 8352, Control_c, 0, 64, 127
2, 8354, Control_c, 0, 64, 0
2, 8360, Control_c, 0, 64, 127
2, 8400, Note_on_c, 0, 65, 0
2, 8400, Note_on_c, 0, 53, 72
2, 8418, Note_on_c, 0, 63, 0
2, 8418, Note_on_c, 0, 57, 0
2, 8424, Note_on_c, 0, 53, 0
2, 8424, Note_on_c, 0, 57, 55
2, 8424, Note_on_c, 0, 63, 60
2, 8424, Note_on_c, 0, 65, 76
2, 8472, Note_on_c, 0, 65, 0
2, 8472, Note_on_c, 0, 67, 72
2, 8490, Note_on_c, 0, 63, 0
2, 8490, Note_on_c, 0, 57, 0
2, 8496, Note_on_c, 0, 67, 0
2, 8496, Note_on_c, 0, 58, 55
2, 8496, Note_on_c, 0, 62, 60
2, 8496, Note_on_c, 0, 65, 76
2, 8496, Control_c, 0, 64, 127
2, 8498, Control_c, 0, 64, 0
2, 8504, Control_c, 0, 64, 127
2, 8544, Note_on_c, 0, 65, 0
2, 8544, Note_on_c, 0, 53, 76
2, 8562, Note_on_c, 0, 62, 0
2, 8562, Note_on_c, 0, 58, 0
2, 8568, Note_on_c, 0, 53, 0
2, 8568, Note_on_c, 0, 58, 57
2, 8568, Note_on_c, 0, 62, 62
2, 8568, Note_on_c, 0, 65, 76
2, 8614, Note_on_c, 0, 65, 0
2, 8616, Note_on_c, 0, 70, 86
2, 8632, Note_on_c, 0, 70, 0
2, 8634, Note_on_c, 0, 62, 0
2, 8634, Note_on_c, 0, 58, 0
2, 8640, Note_on_c, 0, 58, 55
2, 8640, Note_on_c, 0, 62, 60
2, 8640, Note_on_c, 0, 70, 84
2, 8640, Control_c, 0, 64, 127
2, 8642, Control_c, 0, 64, 0
2, 8648, Control_c, 0, 64, 127
2, 8688, Note_on_c, 0, 70, 0
2, 8688, Note_on_c, 0, 69, 72
2, 8712, Note_on_c, 0, 69, 0
2, 8712, Note_on_c, 0, 67, 68
2, 8714, Control_c, 0, 64, 0
2, 8720, Control_c, 0, 64, 127
2, 8752, Note_on_c, 0, 62, 0
2, 8760, Note_on_c, 0, 67, 0
2, 8760, Note_on_c, 0, 62, 64
2, 8772, Note_on_c, 0, 58, 0
2, 8784, Note_on_c, 0, 57, 50
2, 8784, Note_on_c, 0, 66, 55
2, 8784, Note_on_c, 0, 69, 67
2, 8784, Control_c, 0, 64, 127
2, 8786, Control_c, 0, 64, 0
2, 8792, Control_c, 0, 64, 127
2, 8854, Note_on_c, 0, 69, 0
2, 8856, Note_on_c, 0, 69, 72
2, 8904, Note_on_c, 0, 69, 0
2, 8904, Note_on_c, 0, 71, 69
2, 8916, Note_on_c, 0, 66, 0
2, 8916, Note_on_c, 0, 62, 0
2, 8916, Note_on_c, 0, 57, 0
2, 8928, Note_on_c, 0, 71, 0
2, 8928, Note_on_c, 0, 61, 50
2, 8928, Note_on_c, 0, 67, 55
2, 8928, Note_on_c, 0, 69, 72
2, 8928, Control_c, 0, 64, 127
2, 8930, Control_c, 0, 64, 0
2, 8936, Control_c, 0, 64, 127
2, 8976, Note_on_c, 0, 69, 0
2, 8976, Note_on_c, 0, 57, 69
2, 8994, Note_on_c, 0, 67, 0
2, 8994, Note_on_c, 0, 61, 0
2, 9000, Note_on_c, 0, 57, 0
2, 9000, Note_on_c, 0, 61, 50
2, 9000, Note_on_c, 0, 67, 55
2, 9000, Note_on_c, 0, 69, 73
2, 9048, Note_on_c, 0, 69, 0
2, 9048, Note_on_c, 0, 71, 74
2, 9066, Note_on_c, 0, 67, 0
2, 9066, Note_on_c, 0, 61, 0
2, 9072, Note_on_c, 0, 71, 0
2, 9072, Note_on_c, 0, 62, 50
2, 9072, Note_on_c, 0, 66, 55
2, 9072, Note_on_c, 0, 69, 74
2, 9072, Control_c, 0, 64, 127
2, 9074, Control_c, 0, 64, 0
2, 9080, Control_c, 0, 64, 127
2, 9120, Note_on_c, 0, 69, 0
2, 9120, Note_on_c, 0, 57, 72
2, 9138, Note_on_c, 0, 66, 0
2, 9138, Note_on_c, 0, 62, 0
2, 9144, Note_on_c, 0, 57, 0
2, 9144, Note_on_c, 0, 62, 52
2, 9144, Note_on_c, 0, 66, 57
2, 9144, Note_on_c, 0, 69, 79
2, 9190, Note_on_c, 0, 69, 0
2, 9192, Note_on_c, 0, 78, 84
2, 9208, Note_on_c, 0, 78, 0
2, 9210, Note_on_c, 0, 66, 0
2, 9210, Note_on_c, 0, 62, 0
2, 9216, Note_on_c, 0, 67, 64
2, 9216, Note_on_c, 0, 78, 84
2, 9216, Control_c, 0, 64, 127
2, 9218, Control_c, 0, 64, 0
2, 9224, Control_c, 0, 64, 127
2, 9264, Note_on_c, 0, 78, 0
2, 9264, Note_on_c, 0, 76, 75
2, 9288, Note_on_c, 0, 76, 0
2, 9288, Note_on_c, 0, 74, 70
2, 9290, Control_c, 0, 64, 0
2, 9296, Control_c, 0, 64, 127
2, 9336, Note_on_c, 0, 74, 0
2, 9336, Note_on_c, 0, 71, 67
2, 9348, Note_on_c, 0, 67, 0
2, 9360, Note_on_c, 0, 71, 0
2, 9360, Note_on_c, 0, 66, 52
2, 9360, Note_on_c, 0, 69, 64
2, 9360, Control_c, 0, 64, 127
2, 9362, Control_c, 0, 64, 0
2, 9368, Control_c, 0, 64, 127
2, 9426, Note_on_c, 0, 69, 0
2, 9432, Note_on_c, 0, 69, 69
2, 9480, Note_on_c, 0, 69, 0
2, 9480, Note_on_c, 0, 71, 67
2, 9492, Note_on_c, 0, 66, 0
2, 9504, Note_on_c, 0, 71, 0
2, 9504, Note_on_c, 0, 61, 52
2, 9504, Note_on_c, 0, 67, 57
2, 9504, Note_on_c, 0, 69, 74
2, 9504, Control_c, 0, 64, 127
2, 9506, Control_c, 0, 64, 0
2, 9512, Control_c, 0, 64, 127
2, 9552, Note_on_c, 0, 69, 0
2, 9552, Note_on_c, 0, 57, 69
2, 9570, Note_on_c, 0, 67, 0
2, 9570, Note_on_c, 0, 61, 0
2, 9576, Note_on_c, 0, 57, 0
2, 9576, Note_on_c, 0, 61, 52
2, 9576, Note_on_c, 0, 67, 57
2, 9576, Note_on_c, 0, 69, 74
2, 9624, Note_on_c, 0, 69, 0
2, 9624, Note_on_c, 0, 71, 76
2, 9642, Note_on_c, 0, 67, 0
2, 9642, Note_on_c, 0, 61, 0
2, 9648, Note_on_c, 0, 71, 0
2, 9648, Note_on_c, 0, 62, 52
2, 9648, Note_on_c, 0, 66, 57
2, 9648, Note_on_c, 0, 69, 76
2, 9648, Control_c, 0, 64, 127
2, 9650, Control_c, 0, 64, 0
2, 9656, Control_c, 0, 64, 127
2, 9696, Note_on_c, 0, 69, 0
2, 9696, Note_on_c, 0, 57, 74
2, 9714, Note_on_c, 0, 66, 0
2, 9714, Note_on_c, 0, 62, 0
2, 9720, Note_on_c, 0, 57, 0
2, 9720, Note_on_c, 0, 62, 57
2, 9720, Note_on_c, 0, 66, 62
2, 9720, Note_on_c, 0, 69, 81
2, 9768, Note_on_c, 0, 69, 0
2, 9768, Note_on_c, 0, 71, 84
2, 9786, Note_on_c, 0, 66, 0
2, 9786, Note_on_c, 0, 62, 0
2, 9792, Note_on_c, 0, 71, 0
2, 9792, Note_on_c, 0, 67, 72
2, 9792, Note_on_c, 0, 72, 88
2, 9792, Control_c, 0, 64, 127
2, 9794, Control_c, 0, 64, 0
2, 9800, Control_c, 0, 64, 127
2, 9840, Note_on_c, 0, 72, 0
2, 9840, Note_on_c, 0, 60, 64
2, 9846, Note_on_c, 0, 60, 0
2, 9852, Note_on_c, 0, 67, 0
2, 9852, Note_on_c, 0, 60, 62
2, 9858, Note_on_c, 0, 67, 69
2, 9864, Note_on_c, 0, 72, 81
2, 9904, Note_on_c, 0, 72, 0
2, 9904, Note_on_c, 0, 60, 0
2, 9912, Note_on_c, 0, 59, 62
2, 9912, Note_on_c, 0, 71, 74
2, 9914, Control_c, 0, 64, 0
2, 9920, Control_c, 0, 64, 127
2, 9928, Note_on_c, 0, 71, 0
2, 9928, Note_on_c, 0, 59, 0
2, 9928, Note_on_c, 0, 67, 0
2, 9936, Note_on_c, 0, 59, 60
2, 9936, Note_on_c, 0, 67, 64
2, 9936, Note_on_c, 0, 71, 76
2, 9936, Control_c, 0, 64, 127
2, 10002, Note_on_c, 0, 71, 0
2, 10002, Note_on_c, 0, 67, 0
2, 10002, Note_on_c, 0, 59, 0
2, 10008, Note_on_c, 0, 66, 64
2, 10008, Note_on_c, 0, 69, 67
2, 10010, Control_c, 0, 64, 0
2, 10032, Note_on_c, 0, 69, 0
2, 10032, Note_on_c, 0, 66, 0
2, 10032, Note_on_c, 0, 67, 64
2, 10032, Note_on_c, 0, 71, 69
2, 10040, Control_c, 0, 64, 127
2, 10044, Note_on_c, 0, 71, 0
2, 10044, Note_on_c, 0, 67, 0
2, 10044, Note_on_c, 0, 67, 69
2, 10044, Note_on_c, 0, 72, 72
2, 10056, Note_on_c, 0, 72, 0
2, 10056, Note_on_c, 0, 67, 0
2, 10056, Note_on_c, 0, 70, 72
2, 10056, Note_on_c, 0, 73, 74
2, 10068, Note_on_c, 0, 73, 0
2, 10068, Note_on_c, 0, 70, 0
2, 10068, Note_on_c, 0, 72, 74
2, 10068, Note_on_c, 0, 76, 76
2, 10080, Note_on_c, 0, 76, 0
2, 10080, Note_on_c, 0, 72, 0
2, 10080, Note_on_c, 0, 71, 69
2, 10080, Note_on_c, 0, 74, 74
2, 10080, Control_c, 0, 64, 127
2, 10082, Control_c, 0, 64, 0
2, 10088, Control_c, 0, 64, 127
2, 10126, Note_on_c, 0, 74, 0
2, 10126, Note_on_c, 0, 71, 0
2, 10152, Note_on_c, 0, 66, 69
2, 10152, Note_on_c, 0, 69, 72
2, 10154, Control_c, 0, 64, 0
2, 10176, Note_on_c, 0, 69, 0
2, 10176, Note_on_c, 0, 66, 0
2, 10176, Note_on_c, 0, 67, 69
2, 10176, Note_on_c, 0, 71, 72
2, 10184, Control_c, 0, 64, 127
2, 10188, Note_on_c, 0, 71, 0
2, 10188, Note_on_c, 0, 67, 0
2, 10188, Note_on_c, 0, 67, 72
2, 10188, Note_on_c, 0, 72, 74
2, 10200, Note_on_c, 0, 72, 0
2, 10200, Note_on_c, 0, 67, 0
2, 10200, Note_on_c, 0, 70, 74
2, 10200, Note_on_c, 0, 73, 76
2, 10212, Note_on_c, 0, 73, 0
2, 10212, Note_on_c, 0, 70, 0
2, 10212, Note_on_c, 0, 72, 72
2, 10212, Note_on_c, 0, 76, 74
2, 10224, Note_on_c, 0, 76, 0
2, 10224, Note_on_c, 0, 72, 0
2, 10224, Note_on_c, 0, 71, 69
2, 10224, Note_on_c, 0, 74, 72
2, 10224, Control_c, 0, 64, 127
2, 10226, Control_c, 0, 64, 0
2, 10232, Control_c, 0, 64, 127
2, 10234, Note_on_c, 0, 74, 0
2, 10234, Note_on_c, 0, 71, 0
2, 10236, Note_on_c, 0, 76, 81
2, 10236, Note_on_c, 0, 84, 86
2, 10246, Note_on_c, 0, 84, 0
2, 10248, Note_on_c, 0, 76, 0
2, 10248, Note_on_c, 0, 74, 79
2, 10248, Note_on_c, 0, 83, 84
2, 10260, Note_on_c, 0, 83, 0
2, 10260, Note_on_c, 0, 74, 0
2, 10260, Note_on_c, 0, 72, 74
2, 10260, Note_on_c, 0, 78, 79
2, 10272, Note_on_c, 0, 78, 0
2, 10272, Note_on_c, 0, 72, 0
2, 10272, Note_on_c, 0, 71, 76
2, 10272, Note_on_c, 0, 79, 81
2, 10284, Note_on_c, 0, 79, 0
2, 10284, Note_on_c, 0, 71, 0
2, 10284, Note_on_c, 0, 72, 74
2, 10284, Note_on_c, 0, 76, 76
2, 10296, Note_on_c, 0, 76, 0
2, 10296, Note_on_c, 0, 72, 0
2, 10296, Note_on_c, 0, 71, 72
2, 10296, Note_on_c, 0, 74, 74
2, 10298, Control_c, 0, 64, 0
2, 10308, Note_on_c, 0, 74, 0
2, 10308, Note_on_c, 0, 71, 0
2, 10308, Note_on_c, 0, 69, 76
2, 10308, Note_on_c, 0, 77, 79
2, 10318, Note_on_c, 0, 77, 0
2, 10320, Note_on_c, 0, 69, 0
2, 10320, Note_on_c, 0, 68, 74
2, 10320, Note_on_c, 0, 76, 76
2, 10328, Control_c, 0, 64, 127
2, 10332, Note_on_c, 0, 76, 0
2, 10332, Note_on_c, 0, 68, 0
2, 10332, Note_on_c, 0, 65, 67
2, 10332, Note_on_c, 0, 69, 69
2, 10344, Note_on_c, 0, 69, 0
2, 10344, Note_on_c, 0, 65, 0
2, 10344, Note_on_c, 0, 64, 66
2, 10344, Note_on_c, 0, 71, 70
2, 10356, Note_on_c, 0, 71, 0
2, 10356, Note_on_c, 0, 64, 0
2, 10356, Note_on_c, 0, 62, 64
2, 10356, Note_on_c, 0, 72, 69
2, 10366, Note_on_c, 0, 62, 0
2, 10368, Note_on_c, 0, 72, 0
2, 10368, Note_on_c, 0, 60, 62
2, 10368, Note_on_c, 0, 64, 64
2, 10368, Control_c, 0, 64, 127
2, 10370, Control_c, 0, 64, 0
2, 10376, Control_c, 0, 64, 127
2, 10414, Note_on_c, 0, 64, 0
2, 10414, Note_on_c, 0, 60, 0
2, 10440, Note_on_c, 0, 69, 69
2, 10440, Note_on_c, 0, 72, 76
2, 10442, Control_c, 0, 64, 0
2, 10464, Note_on_c, 0, 72, 0
2, 10464, Note_on_c, 0, 69, 0
2, 10464, Note_on_c, 0, 68, 69
2, 10464, Note_on_c, 0, 71, 72
2, 10472, Control_c, 0, 64, 127
2, 10476, Note_on_c, 0, 71, 0
2, 10476, Note_on_c, 0, 68, 0
2, 10476, Note_on_c, 0, 69, 72
2, 10476, Note_on_c, 0, 72, 74
2, 10488, Note_on_c, 0, 72, 0
2, 10488, Note_on_c, 0, 69, 0
2, 10488, Note_on_c, 0, 71, 74
2, 10488, Note_on_c, 0, 74, 76
2, 10500, Note_on_c, 0, 74, 0
2, 10500, Note_on_c, 0, 71, 0
2, 10500, Note_on_c, 0, 68, 72
2, 10500, Note_on_c, 0, 77, 79
2, 10512, Note_on_c, 0, 77, 0
2, 10512, Note_on_c, 0, 68, 0
2, 10512, Note_on_c, 0, 72, 67
2, 10512, Note_on_c, 0, 76, 69
2, 10512, Control_c, 0, 64, 127
2, 10514, Control_c, 0, 64, 0
2, 10520, Control_c, 0, 64, 127
2, 10558, Note_on_c, 0, 76, 0
2, 10558, Note_on_c, 0, 72, 0
2, 10584, Note_on_c, 0, 69, 69
2, 10584, Note_on_c, 0, 72, 76
2, 10586, Control_c, 0, 64, 0
2, 10608, Note_on_c, 0, 72, 0
2, 10608, Note_on_c, 0, 69, 0
2, 10608, Note_on_c, 0, 68, 69
2, 10608, Note_on_c, 0, 71, 72
2, 10616, Control_c, 0, 64, 127
2, 10620, Note_on_c, 0, 71, 0
2, 10620, Note_on_c, 0, 68, 0
2, 10620, Note_on_c, 0, 69, 69
2, 10620, Note_on_c, 0, 72, 72
2, 10632, Note_on_c, 0, 72, 0
2, 10632, Note_on_c, 0, 69, 0
2, 10632, Note_on_c, 0, 71, 68
2, 10632, Note_on_c, 0, 74, 70
2, 10644, Note_on_c, 0, 74, 0
2, 10644, Note_on_c, 0, 71, 0
2, 10644, Note_on_c, 0, 68, 62
2, 10644, Note_on_c, 0, 77, 69
2, 10656, Note_on_c, 0, 77, 0
2, 10656, Note_on_c, 0, 68, 0
2, 10656, Note_on_c, 0, 72, 60
2, 10656, Note_on_c, 0, 76, 62
2, 10656, Control_c, 0, 64, 127
2, 10658, Control_c, 0, 64, 0
2, 10664, Control_c, 0, 64, 127
2, 10666, Note_on_c, 0, 76, 0
2, 10666, Note_on_c, 0, 72, 0
2, 10668, Note_on_c, 0, 76, 76
2, 10668, Note_on_c, 0, 84, 81
2, 10680, Note_on_c, 0, 84, 0
2, 10680, Note_on_c, 0, 76, 0
2, 10680, Note_on_c, 0, 74, 74
2, 10680, Note_on_c, 0, 83, 79
2, 10690, Note_on_c, 0, 74, 0
2, 10692, Note_on_c, 0, 83, 0
2, 10692, Note_on_c, 0, 71, 72
2, 10692, Note_on_c, 0, 80, 76
2, 10704, Note_on_c, 0, 80, 0
2, 10704, Note_on_c, 0, 71, 0
2, 10704, Note_on_c, 0, 72, 74
2, 10704, Note_on_c, 0, 81, 79
2, 10716, Note_on_c, 0, 81, 0
2, 10716, Note_on_c, 0, 72, 0
2, 10716, Note_on_c, 0, 74, 72
2, 10716, Note_on_c, 0, 77, 74
2, 10728, Note_on_c, 0, 77, 0
2, 10728, Note_on_c, 0, 74, 0
2, 10728, Note_on_c, 0, 72, 69
2, 10728, Note_on_c, 0, 76, 72
2, 10730, Control_c, 0, 64, 0
2, 10740, Note_on_c, 0, 76, 0
2, 10740, Note_on_c, 0, 72, 0
2, 10740, Note_on_c, 0, 71, 72
2, 10740, Note_on_c, 0, 79, 76
2, 10750, Note_on_c, 0, 79, 0
2, 10752, Note_on_c, 0, 71, 0
2, 10752, Note_on_c, 0, 69, 69
2, 10752, Note_on_c, 0, 78, 74
2, 10760, Control_c, 0, 64, 127
2, 10764, Note_on_c, 0, 78, 0
2, 10764, Note_on_c, 0, 69, 0
2, 10764, Note_on_c, 0, 67, 64
2, 10764, Note_on_c, 0, 71, 67
2, 10776, Note_on_c, 0, 71, 0
2, 10776, Note_on_c, 0, 67, 0
2, 10776, Note_on_c, 0, 66, 63
2, 10776, Note_on_c, 0, 72, 68
2, 10788, Note_on_c, 0, 72, 0
2, 10788, Note_on_c, 0, 66, 0
2, 10788, Note_on_c, 0, 62, 62
2, 10788, Note_on_c, 0, 74, 67
2, 10800, Note_on_c, 0, 74, 0
2, 10800, Note_on_c, 0, 62, 0
2, 10800, Note_on_c, 0, 67, 60
2, 10800, Note_on_c, 0, 71, 64
2, 10800, Control_c, 0, 64, 127
2, 10802, Control_c, 0, 64, 0
2, 10808, Control_c, 0, 64, 127
2, 10870, Note_on_c, 0, 71, 0
2, 10870, Note_on_c, 0, 67, 0
2, 10874, Control_c, 0, 64, 0
2, 10888, Note_on_c, 0, 67, 62
2, 10892, Note_on_c, 0, 67, 0
2, 10892, Note_on_c, 0, 69, 64
2, 10896, Note_on_c, 0, 69, 0
2, 10896, Note_on_c, 0, 64, 62
2, 10896, Note_on_c, 0, 67, 64
2, 10904, Control_c, 0, 64, 127
2, 10908, Note_on_c, 0, 67, 0
2, 10908, Note_on_c, 0, 66, 64
2, 10920, Note_on_c, 0, 66, 0
2, 10920, Note_on_c, 0, 64, 0
2, 10920, Note_on_c, 0, 63, 62
2, 10920, Note_on_c, 0, 67, 67
2, 10922, Control_c, 0, 64, 0
2, 10928, Control_c, 0, 64, 127
2, 10932, Note_on_c, 0, 67, 0
2, 10932, Note_on_c, 0, 63, 0
2, 10932, Note_on_c, 0, 65, 61
2, 10932, Note_on_c, 0, 69, 63
2, 10944, Note_on_c, 0, 69, 0
2, 10944, Note_on_c, 0, 65, 0
2, 10944, Note_on_c, 0, 62, 57
2, 10944, Note_on_c, 0, 70, 64
2, 10944, Control_c, 0, 64, 127
2, 10946, Control_c, 0, 64, 0
2, 10952, Control_c, 0, 64, 127
2, 10990, Note_on_c, 0, 70, 0
2, 10990, Note_on_c, 0, 62, 0
2, 11018, Control_c, 0, 64, 0
2, 11032, Note_on_c, 0, 70, 62
2, 11036, Note_on_c, 0, 70, 0
2, 11036, Note_on_c, 0, 72, 64
2, 11040, Note_on_c, 0, 72, 0
2, 11040, Note_on_c, 0, 67, 62
2, 11040, Note_on_c, 0, 70, 64
2, 11048, Control_c, 0, 64, 127
2, 11052, Note_on_c, 0, 70, 0
2, 11052, Note_on_c, 0, 69, 64
2, 11064, Note_on_c, 0, 69, 0
2, 11064, Note_on_c, 0, 67, 0
2, 11064, Note_on_c, 0, 66, 62
2, 11064, Note_on_c, 0, 70, 67
2, 11066, Control_c, 0, 64, 0
2, 11072, Control_c, 0, 64, 127
2, 11076, Note_on_c, 0, 70, 0
2, 11076, Note_on_c, 0, 66, 0
2, 11076, Note_on_c, 0, 68, 61
2, 11076, Note_on_c, 0, 72, 63
2, 11088, Note_on_c, 0, 72, 0
2, 11088, Note_on_c, 0, 68, 0
2, 11088, Note_on_c, 0, 65, 62
2, 11088, Note_on_c, 0, 73, 69
2, 11088, Control_c, 0, 64, 127
2, 11090, Control_c, 0, 64, 0
2, 11096, Control_c, 0, 64, 127
2, 11098, Note_on_c, 0, 73, 0
2, 11098, Note_on_c, 0, 65, 0
2, 11100, Note_on_c, 0, 82, 72
2, 11100, Note_on_c, 0, 90, 76
2, 11110, Note_on_c, 0, 90, 0
2, 11112, Note_on_c, 0, 82, 0
2, 11112, Note_on_c, 0, 80, 72
2, 11112, Note_on_c, 0, 89, 74
2, 11124, Note_on_c, 0, 89, 0
2, 11124, Note_on_c, 0, 80, 0
2, 11124, Note_on_c, 0, 78, 67
2, 11124, Note_on_c, 0, 84, 72
2, 11134, Note_on_c, 0, 78, 0
2, 11136, Note_on_c, 0, 84, 0
2, 11136, Note_on_c, 0, 77, 69
2, 11136, Note_on_c, 0, 85, 74
2, 11148, Note_on_c, 0, 85, 0
2, 11148, Note_on_c, 0, 77, 0
2, 11148, Note_on_c, 0, 78, 67
2, 11148, Note_on_c, 0, 82, 69
2, 11160, Note_on_c, 0, 82, 0
2, 11160, Note_on_c, 0, 78, 0
2, 11160, Note_on_c, 0, 77, 64
2, 11160, Note_on_c, 0, 80, 67
2, 11170, Note_on_c, 0, 77, 0
2, 11172, Note_on_c, 0, 80, 0
2, 11172, Note_on_c, 0, 75, 67
2, 11172, Note_on_c, 0, 83, 72
2, 11174, Control_c, 0, 64, 0
2, 11182, Note_on_c, 0, 83, 0
2, 11184, Note_on_c, 0, 75, 0
2, 11184, Note_on_c, 0, 74, 64
2, 11184, Note_on_c, 0, 82, 69
2, 11192, Control_c, 0, 64, 127
2, 11196, Note_on_c, 0, 82, 0
2, 11196, Note_on_c, 0, 74, 0
2, 11196, Note_on_c, 0, 71, 60
2, 11196, Note_on_c, 0, 75, 62
2, 11208, Note_on_c, 0, 75, 0
2, 11208, Note_on_c, 0, 71, 0
2, 11208, Note_on_c, 0, 70, 58
2, 11208, Note_on_c, 0, 77, 63
2, 11220, Note_on_c, 0, 77, 0
2, 11220, Note_on_c, 0, 70, 0
2, 11220, Note_on_c, 0, 68, 57
2, 11220, Note_on_c, 0, 78, 62
2, 11230, Note_on_c, 0, 68, 0
2, 11232, Note_on_c, 0, 78, 0
2, 11232, Note_on_c, 0, 66, 55
2, 11232, Note_on_c, 0, 70, 60
2, 11232, Control_c, 0, 64, 127
2, 11234, Control_c, 0, 64, 0
2, 11240, Control_c, 0, 64, 127
2, 11302, Note_on_c, 0, 70, 0
2, 11302, Note_on_c, 0, 66, 0
2, 11306, Control_c, 0, 64, 0
2, 11320, Note_on_c, 0, 75, 69
2, 11324, Note_on_c, 0, 75, 0
2, 11324, Note_on_c, 0, 77, 72
2, 11328, Note_on_c, 0, 77, 0
2, 11328, Note_on_c, 0, 72, 69
2, 11328, Note_on_c, 0, 75, 72
2, 11336, Control_c, 0, 64, 127
2, 11340, Note_on_c, 0, 75, 0
2, 11340, Note_on_c, 0, 74, 72
2, 11352, Note_on_c, 0, 74, 0
2, 11352, Note_on_c, 0, 72, 0
2, 11352, Note_on_c, 0, 71, 69
2, 11352, Note_on_c, 0, 75, 74
2, 11354, Control_c, 0, 64, 0
2, 11360, Control_c, 0, 64, 127
2, 11364, Note_on_c, 0, 75, 0
2, 11364, Note_on_c, 0, 71, 0
2, 11364, Note_on_c, 0, 73, 68
2, 11364, Note_on_c, 0, 77, 70
2, 11376, Note_on_c, 0, 77, 0
2, 11376, Note_on_c, 0, 73, 0
2, 11376, Note_on_c, 0, 70, 64
2, 11376, Note_on_c, 0, 78, 72
2, 11376, Control_c, 0, 64, 127
2, 11378, Control_c, 0, 64, 0
2, 11384, Control_c, 0, 64, 127
2, 11422, Note_on_c, 0, 78, 0
2, 11422, Note_on_c, 0, 70, 0
2, 11450, Control_c, 0, 64, 0
2, 11464, Note_on_c, 0, 78, 64
2, 11468, Note_on_c, 0, 78, 0
2, 11468, Note_on_c, 0, 80, 67
2, 11472, Note_on_c, 0, 80, 0
2, 11472, Note_on_c, 0, 75, 64
2, 11472, Note_on_c, 0, 78, 67
2, 11480, Control_c, 0, 64, 127
2, 11484, Note_on_c, 0, 78, 0
2, 11484, Note_on_c, 0, 77, 67
2, 11496, Note_on_c, 0, 77, 0
2, 11496, Note_on_c, 0, 75, 0
2, 11496, Note_on_c, 0, 74, 64
2, 11496, Note_on_c, 0, 78, 69
2, 11498, Control_c, 0, 64, 0
2, 11504, Control_c, 0, 64, 127
2, 11508, Note_on_c, 0, 78, 0
2, 11508, Note_on_c, 0, 74, 0
2, 11508, Note_on_c, 0, 76, 63
2, 11508, Note_on_c, 0, 80, 66
2, 11520, Note_on_c, 0, 80, 0
2, 11520, Note_on_c, 0, 76, 0
2, 11520, Note_on_c, 0, 73, 57
2, 11520, Note_on_c, 0, 81, 67
2, 11520, Control_c, 0, 64, 127
2, 11522, Control_c, 0, 64, 0
2, 11528, Control_c, 0, 64, 127
2, 11530, Note_on_c, 0, 81, 0
2, 11530, Note_on_c, 0, 73, 0
2, 11532, Note_on_c, 0, 90, 74
2, 11532, Note_on_c, 0, 98, 79
2, 11542, Note_on_c, 0, 98, 0
2, 11544, Note_on_c, 0, 90, 0
2, 11544, Note_on_c, 0, 88, 74
2, 11544, Note_on_c, 0, 97, 76
2, 11556, Note_on_c, 0, 97, 0
2, 11556, Note_on_c, 0, 88, 0
2, 11556, Note_on_c, 0, 86, 69
2, 11556, Note_on_c, 0, 92, 74
2, 11566, Note_on_c, 0, 86, 0
2, 11568, Note_on_c, 0, 92, 0
2, 11568, Note_on_c, 0, 85, 72
2, 11568, Note_on_c, 0, 93, 76
2, 11580, Note_on_c, 0, 93, 0
2, 11580, Note_on_c, 0, 85, 0
2, 11580, Note_on_c, 0, 86, 69
2, 11580, Note_on_c, 0, 90, 72
2, 11592, Note_on_c, 0, 90, 0
2, 11592, Note_on_c, 0, 86, 0
2, 11592, Note_on_c, 0, 85, 67
2, 11592, Note_on_c, 0, 88, 69
2, 11602, Note_on_c, 0, 85, 0
2, 11604, Note_on_c, 0, 88, 0
2, 11604, Note_on_c, 0, 83, 69
2, 11604, Note_on_c, 0, 91, 74
2, 11606, Control_c, 0, 64, 0
2, 11614, Note_on_c, 0, 91, 0
2, 11616, Note_on_c, 0, 83, 0
2, 11616, Note_on_c, 0, 82, 67
2, 11616, Note_on_c, 0, 90, 72
2, 11624, Control_c, 0, 64, 127
2, 11628, Note_on_c, 0, 90, 0
2, 11628, Note_on_c, 0, 82, 0
2, 11628, Note_on_c, 0, 79, 64
2, 11628, Note_on_c, 0, 83, 67
2, 11640, Note_on_c, 0, 83, 0
2, 11640, Note_on_c, 0, 79, 0
2, 11640, Note_on_c, 0, 78, 63
2, 11640, Note_on_c, 0, 85, 68
2, 11652, Note_on_c, 0, 85, 0
2, 11652, Note_on_c, 0, 78, 0
2, 11652, Note_on_c, 0, 76, 62
2, 11652, Note_on_c, 0, 86, 67
2, 11662, Note_on_c, 0, 76, 0
2, 11664, Note_on_c, 0, 86, 0
2, 11664, Note_on_c, 0, 74, 57
2, 11664, Note_on_c, 0, 78, 64
2, 11664, Control_c, 0, 64, 127
2, 11666, Control_c, 0, 64, 0
2, 11672, Control_c, 0, 64, 127
2, 11674, Note_on_c, 0, 78, 0
2, 11674, Note_on_c, 0, 74, 0
2, 11676, Note_on_c, 0, 78, 72
2, 11676, Note_on_c, 0, 86, 76
2, 11686, Note_on_c, 0, 86, 0
2, 11688, Note_on_c, 0, 78, 0
2, 11688, Note_on_c, 0, 76, 72
2, 11688, Note_on_c, 0, 85, 74
2, 11700, Note_on_c, 0, 85, 0
2, 11700, Note_on_c, 0, 76, 0
2, 11700, Note_on_c, 0, 73, 67
2, 11700, Note_on_c, 0, 82, 72
2, 11710, Note_on_c, 0, 73, 0
2, 11712, Note_on_c, 0, 82, 0
2, 11712, Note_on_c, 0, 74, 69
2, 11712, Note_on_c, 0, 83, 74
2, 11724, Note_on_c, 0, 83, 0
2, 11724, Note_on_c, 0, 74, 0
2, 11724, Note_on_c, 0, 76, 67
2, 11724, Note_on_c, 0, 79, 69
2, 11734, Note_on_c, 0, 76, 0
2, 11736, Note_on_c, 0, 79, 0
2, 11736, Note_on_c, 0, 74, 64
2, 11736, Note_on_c, 0, 78, 67
2, 11738, Control_c, 0, 64, 0
2, 11744, Control_c, 0, 64, 127
2, 11748, Note_on_c, 0, 78, 0
2, 11748, Note_on_c, 0, 74, 0
2, 11748, Note_on_c, 0, 73, 67
2, 11748, Note_on_c, 0, 81, 72
2, 11760, Note_on_c, 0, 81, 0
2, 11760, Note_on_c, 0, 73, 0
2, 11760, Note_on_c, 0, 71, 64
2, 11760, Note_on_c, 0, 80, 69
2, 11772, Note_on_c, 0, 80, 0
2, 11772, Note_on_c, 0, 71, 0
2, 11772, Note_on_c, 0, 69, 67
2, 11772, Note_on_c, 0, 73, 69
2, 11784, Note_on_c, 0, 73, 0
2, 11784, Note_on_c, 0, 69, 0
2, 11784, Note_on_c, 0, 68, 66
2, 11784, Note_on_c, 0, 74, 70
2, 11796, Note_on_c, 0, 74, 0
2, 11796, Note_on_c, 0, 68, 0
2, 11796, Note_on_c, 0, 64, 64
2, 11796, Note_on_c, 0, 76, 69
2, 11808, Note_on_c, 0, 76, 0
2, 11808, Note_on_c, 0, 64, 0
2, 11808, Note_on_c, 0, 68, 66
2, 11808, Note_on_c, 0, 72, 70
2, 11808, Control_c, 0, 64, 127
2, 11820, Note_on_c, 0, 68, 0
2, 11820, Note_on_c, 0, 67, 62
2, 11830, Note_on_c, 0, 67, 0
2, 11830, Note_on_c, 0, 72, 0
2, 11834, Control_c, 0, 64, 0
2, 11840, Control_c, 0, 64, 127
2, 11904, Note_on_c, 0, 66, 69
2, 11904, Note_on_c, 0, 69, 72
2, 11906, Control_c, 0, 64, 0
2, 11912, Control_c, 0, 64, 127
2, 11914, Note_on_c, 0, 66, 0
2, 11916, Note_on_c, 0, 69, 0
2, 11916, Note_on_c, 0, 67, 72
2, 11916, Note_on_c, 0, 71, 74
2, 11928, Note_on_c, 0, 71, 0
2, 11928, Note_on_c, 0, 67, 0
2, 11928, Note_on_c, 0, 66, 69
2, 11928, Note_on_c, 0, 72, 74
2, 11940, Note_on_c, 0, 72, 0
2, 11940, Note_on_c, 0, 66, 0
2, 11940, Note_on_c, 0, 62, 64
2, 11940, Note_on_c, 0, 74, 69
2, 11952, Note_on_c, 0, 74, 0
2, 11952, Note_on_c, 0, 62, 0
2, 11952, Note_on_c, 0, 66, 60
2, 11952, Note_on_c, 0, 70, 64
2, 11952, Control_c, 0, 64, 127
2, 11964, Note_on_c, 0, 66, 0
2, 11964, Note_on_c, 0, 65, 55
2, 11974, Note_on_c, 0, 65, 0
2, 11974, Note_on_c, 0, 70, 0
2, 11978, Control_c, 0, 64, 0
2, 11984, Control_c, 0, 64, 127
2, 12048, Note_on_c, 0, 64, 60
2, 12048, Note_on_c, 0, 67, 62
2, 12050, Control_c, 0, 64, 0
2, 12056, Control_c, 0, 64, 127
2, 12058, Note_on_c, 0, 64, 0
2, 12060, Note_on_c, 0, 67, 0
2, 12060, Note_on_c, 0, 66, 64
2, 12060, Note_on_c, 0, 69, 67
2, 12072, Note_on_c, 0, 69, 0
2, 12072, Note_on_c, 0, 66, 0
2, 12072, Note_on_c, 0, 64, 60
2, 12072, Note_on_c, 0, 70, 64
2, 12084, Note_on_c, 0, 70, 0
2, 12084, Note_on_c, 0, 64, 0
2, 12084, Note_on_c, 0, 60, 55
2, 12084, Note_on_c, 0, 72, 62
2, 12096, Note_on_c, 0, 72, 0
2, 12096, Note_on_c, 0, 60, 0
2, 12096, Note_on_c, 0, 64, 55
2, 12096, Note_on_c, 0, 69, 60
2, 12096, Control_c, 0, 64, 127
2, 12108, Note_on_c, 0, 64, 0
2, 12108, Note_on_c, 0, 63, 48
2, 12118, Note_on_c, 0, 63, 0
2, 12118, Note_on_c, 0, 69, 0
2, 12122, Control_c, 0, 64, 0
2, 12128, Control_c, 0, 64, 127
2, 12168, Note_on_c, 0, 59, 64
2, 12170, Control_c, 0, 64, 0
2, 12176, Control_c, 0, 64, 127
2, 12216, Note_on_c, 0, 59, 0
2, 12216, Note_on_c, 0, 61, 62
2, 12240, Note_on_c, 0, 61, 0
2, 12240, Note_on_c, 0, 59, 64
2, 12240, Control_c, 0, 64, 127
2, 12242, Control_c, 0, 64, 0
2, 12248, Control_c, 0, 64, 127
2, 12288, Note_on_c, 0, 59, 0
2, 12312, Note_on_c, 0, 59, 74
2, 12360, Note_on_c, 0, 59, 0
2, 12360, Note_on_c, 0, 61, 69
2, 12384, Note_on_c, 0, 61, 0
2, 12384, Note_on_c, 0, 52, 52
2, 12384, Note_on_c, 0, 56, 55
2, 12384, Note_on_c, 0, 59, 74
2, 12384, Control_c, 0, 64, 127
2, 12386, Control_c, 0, 64, 0
2, 12392, Control_c, 0, 64, 127
2, 12432, Note_on_c, 0, 59, 0
2, 12432, Note_on_c, 0, 47, 67
2, 12450, Note_on_c, 0, 56, 0
2, 12450, Note_on_c, 0, 52, 0
2, 12456, Note_on_c, 0, 47, 0
2, 12456, Note_on_c, 0, 52, 52
2, 12456, Note_on_c, 0, 56, 55
2, 12456, Note_on_c, 0, 59, 74
2, 12502, Note_on_c, 0, 59, 0
2, 12504, Note_on_c, 0, 68, 84
2, 12520, Note_on_c, 0, 68, 0
2, 12522, Note_on_c, 0, 56, 0
2, 12522, Note_on_c, 0, 52, 0
2, 12528, Note_on_c, 0, 57, 64
2, 12528, Note_on_c, 0, 68, 86
2, 12528, Control_c, 0, 64, 127
2, 12530, Control_c, 0, 64, 0
2, 12536, Control_c, 0, 64, 127
2, 12576, Note_on_c, 0, 68, 0
2, 12576, Note_on_c, 0, 66, 72
2, 12600, Note_on_c, 0, 66, 0
2, 12600, Note_on_c, 0, 64, 64
2, 12602, Control_c, 0, 64, 0
2, 12608, Control_c, 0, 64, 127
2, 12648, Note_on_c, 0, 64, 0
2, 12648, Note_on_c, 0, 61, 62
2, 12660, Note_on_c, 0, 57, 0
2, 12672, Note_on_c, 0, 61, 0
2, 12672, Note_on_c, 0, 56, 48
2, 12672, Note_on_c, 0, 59, 60
2, 12672, Control_c, 0, 64, 127
2, 12674, Control_c, 0, 64, 0
2, 12680, Control_c, 0, 64, 127
2, 12738, Note_on_c, 0, 59, 0
2, 12744, Note_on_c, 0, 59, 67
2, 12792, Note_on_c, 0, 59, 0
2, 12792, Note_on_c, 0, 61, 62
2, 12804, Note_on_c, 0, 56, 0
2, 12816, Note_on_c, 0, 61, 0
2, 12816, Note_on_c, 0, 51, 45
2, 12816, Note_on_c, 0, 57, 50
2, 12816, Note_on_c, 0, 59, 69
2, 12816, Control_c, 0, 64, 127
2, 12818, Control_c, 0, 64, 0
2, 12824, Control_c, 0, 64, 127
2, 12864, Note_on_c, 0, 59, 0
2, 12864, Note_on_c, 0, 47, 69
2, 12882, Note_on_c, 0, 57, 0
2, 12882, Note_on_c, 0, 51, 0
2, 12888, Note_on_c, 0, 47, 0
2, 12888, Note_on_c, 0, 51, 45
2, 12888, Note_on_c, 0, 57, 50
2, 12888, Note_on_c, 0, 59, 69
2, 12936, Note_on_c, 0, 59, 0
2, 12936, Note_on_c, 0, 61, 64
2, 12954, Note_on_c, 0, 57, 0
2, 12954, Note_on_c, 0, 51, 0
2, 12960, Note_on_c, 0, 61, 0
2, 12960, Note_on_c, 0, 52, 45
2, 12960, Note_on_c, 0, 56, 50
2, 12960, Note_on_c, 0, 59, 69
2, 12960, Control_c, 0, 64, 127
2, 12962, Control_c, 0, 64, 0
2, 12968, Control_c, 0, 64, 127
2, 13008, Note_on_c, 0, 59, 0
2, 13008, Note_on_c, 0, 47, 69
2, 13026, Note_on_c, 0, 56, 0
2, 13026, Note_on_c, 0, 52, 0
2, 13032, Note_on_c, 0, 47, 0
2, 13032, Note_on_c, 0, 52, 48
2, 13032, Note_on_c, 0, 56, 52
2, 13032, Note_on_c, 0, 59, 69
2, 13078, Note_on_c, 0, 59, 0
2, 13080, Note_on_c, 0, 64, 81
2, 13096, Note_on_c, 0, 64, 0
2, 13098, Note_on_c, 0, 56, 0
2, 13098, Note_on_c, 0, 52, 0
2, 13104, Control_c, 0, 64, 127
2, 13106, Control_c, 0, 64, 0
2, 13112, Control_c, 0, 64, 127
2, 13116, Note_on_c, 0, 52, 64
2, 13120, Note_on_c, 0, 52, 0
2, 13122, Note_on_c, 0, 52, 64
2, 13128, Note_on_c, 0, 56, 74
2, 13134, Note_on_c, 0, 64, 81
2, 13152, Note_on_c, 0, 64, 0
2, 13152, Note_on_c, 0, 63, 64
2, 13176, Note_on_c, 0, 63, 0
2, 13176, Note_on_c, 0, 61, 61
2, 13178, Control_c, 0, 64, 0
2, 13184, Control_c, 0, 64, 127
2, 13216, Note_on_c, 0, 56, 0
2, 13224, Note_on_c, 0, 61, 0
2, 13224, Note_on_c, 0, 56, 62
2, 13236, Note_on_c, 0, 52, 0
2, 13248, Note_on_c, 0, 51, 38
2, 13248, Note_on_c, 0, 60, 45
2, 13248, Note_on_c, 0, 63, 62
2, 13248, Control_c, 0, 64, 127
2, 13250, Control_c, 0, 64, 0
2, 13256, Control_c, 0, 64, 127
2, 13318, Note_on_c, 0, 63, 0
2, 13320, Note_on_c, 0, 63, 62
2, 13336, Note_on_c, 0, 56, 0
2, 13336, Note_on_c, 0, 60, 0
2, 13336, Note_on_c, 0, 51, 0
2, 13368, Note_on_c, 0, 63, 0
2, 13368, Note_on_c, 0, 65, 60
2, 13392, Note_on_c, 0, 65, 0
2, 13392, Note_on_c, 0, 55, 43
2, 13392, Note_on_c, 0, 61, 48
2, 13392, Note_on_c, 0, 63, 62
2, 13392, Control_c, 0, 64, 127
2, 13394, Control_c, 0, 64, 0
2, 13400, Control_c, 0, 64, 127
2, 13440, Note_on_c, 0, 63, 0
2, 13440, Note_on_c, 0, 51, 60
2, 13458, Note_on_c, 0, 61, 0
2, 13458, Note_on_c, 0, 55, 0
2, 13464, Note_on_c, 0, 51, 0
2, 13464, Note_on_c, 0, 55, 43
2, 13464, Note_on_c, 0, 61, 48
2, 13464, Note_on_c, 0, 63, 63
2, 13512, Note_on_c, 0, 63, 0
2, 13512, Note_on_c, 0, 65, 64
2, 13530, Note_on_c, 0, 61, 0
2, 13530, Note_on_c, 0, 55, 0
2, 13536, Note_on_c, 0, 65, 0
2, 13536, Note_on_c, 0, 56, 43
2, 13536, Note_on_c, 0, 60, 48
2, 13536, Note_on_c, 0, 63, 64
2, 13536, Control_c, 0, 64, 127
2, 13538, Control_c, 0, 64, 0
2, 13544, Control_c, 0, 64, 127
2, 13584, Note_on_c, 0, 63, 0
2, 13584, Note_on_c, 0, 51, 62
2, 13602, Note_on_c, 0, 60, 0
2, 13602, Note_on_c, 0, 56, 0
2, 13608, Note_on_c, 0, 51, 0
2, 13608, Note_on_c, 0, 56, 45
2, 13608, Note_on_c, 0, 60, 50
2, 13608, Note_on_c, 0, 63, 69
2, 13654, Note_on_c, 0, 63, 0
2, 13656, Note_on_c, 0, 72, 79
2, 13672, Note_on_c, 0, 72, 0
2, 13674, Note_on_c, 0, 60, 0
2, 13674, Note_on_c, 0, 56, 0
2, 13680, Note_on_c, 0, 61, 57
2, 13680, Note_on_c, 0, 72, 76
2, 13680, Control_c, 0, 64, 127
2, 13682, Control_c, 0, 64, 0
2, 13688, Control_c, 0, 64, 127
2, 13728, Note_on_c, 0, 72, 0
2, 13728, Note_on_c, 0, 70, 66
2, 13752, Note_on_c, 0, 70, 0
2, 13752, Note_on_c, 0, 68, 67
2, 13754, Control_c, 0, 64, 0
2, 13760, Control_c, 0, 64, 127
2, 13800, Note_on_c, 0, 68, 0
2, 13800, Note_on_c, 0, 65, 60
2, 13812, Note_on_c, 0, 61, 0
2, 13824, Note_on_c, 0, 65, 0
2, 13824, Note_on_c, 0, 60, 45
2, 13824, Note_on_c, 0, 63, 57
2, 13824, Control_c, 0, 64, 127
2, 13826, Control_c, 0, 64, 0
2, 13832, Control_c, 0, 64, 127
2, 13890, Note_on_c, 0, 63, 0
2, 13896, Note_on_c, 0, 63, 64
2, 13944, Note_on_c, 0, 63, 0
2, 13944, Note_on_c, 0, 65, 62
2, 13956, Note_on_c, 0, 60, 0
2, 13968, Note_on_c, 0, 65, 0
2, 13968, Note_on_c, 0, 55, 48
2, 13968, Note_on_c, 0, 61, 52
2, 13968, Note_on_c, 0, 63, 69
2, 13968, Control_c, 0, 64, 127
2, 13970, Control_c, 0, 64, 0
2, 13976, Control_c, 0, 64, 127
2, 14016, Note_on_c, 0, 63, 0
2, 14016, Note_on_c, 0, 51, 64
2, 14034, Note_on_c, 0, 61, 0
2, 14034, Note_on_c, 0, 55, 0
2, 14040, Note_on_c, 0, 51, 0
2, 14040, Note_on_c, 0, 55, 48
2, 14040, Note_on_c, 0, 61, 52
2, 14040, Note_on_c, 0, 63, 69
2, 14088, Note_on_c, 0, 63, 0
2, 14088, Note_on_c, 0, 65, 72
2, 14106, Note_on_c, 0, 61, 0
2, 14106, Note_on_c, 0, 55, 0
2, 14112, Note_on_c, 0, 65, 0
2, 14112, Note_on_c, 0, 56, 48
2, 14112, Note_on_c, 0, 60, 52
2, 14112, Note_on_c, 0, 63, 72
2, 14112, Control_c, 0, 64, 127
2, 14114, Control_c, 0, 64, 0
2, 14120, Control_c, 0, 64, 127
2, 14160, Note_on_c, 0, 63, 0
2, 14160, Note_on_c, 0, 51, 69
2, 14178, Note_on_c, 0, 60, 0
2, 14178, Note_on_c, 0, 56, 0
2, 14184, Note_on_c, 0, 51, 0
2, 14184, Note_on_c, 0, 56, 55
2, 14184, Note_on_c, 0, 60, 60
2, 14184, Note_on_c, 0, 63, 79
2, 14230, Note_on_c, 0, 63, 0
2, 14232, Note_on_c, 0, 65, 84
2, 14250, Note_on_c, 0, 60, 0
2, 14250, Note_on_c, 0, 56, 0
2, 14256, Note_on_c, 0, 65, 0
2, 14256, Note_on_c, 0, 61, 64
2, 14256, Note_on_c, 0, 66, 76
2, 14256, Control_c, 0, 64, 127
2, 14258, Control_c, 0, 64, 0
2, 14264, Control_c, 0, 64, 127
2, 14304, Note_on_c, 0, 66, 0
2, 14304, Note_on_c, 0, 54, 60
2, 14308, Note_on_c, 0, 54, 0
2, 14310, Note_on_c, 0, 54, 57
2, 14312, Note_on_c, 0, 61, 0
2, 14314, Note_on_c, 0, 54, 0
2, 14316, Note_on_c, 0, 54, 60
2, 14322, Note_on_c, 0, 61, 64
2, 14328, Note_on_c, 0, 66, 72
2, 14368, Note_on_c, 0, 66, 0
2, 14368, Note_on_c, 0, 54, 0
2, 14376, Note_on_c, 0, 53, 55
2, 14376, Note_on_c, 0, 65, 64
2, 14378, Control_c, 0, 64, 0
2, 14384, Control_c, 0, 64, 127
2, 14392, Note_on_c, 0, 65, 0
2, 14392, Note_on_c, 0, 53, 0
2, 14394, Note_on_c, 0, 61, 0
2, 14400, Note_on_c, 0, 53, 48
2, 14400, Note_on_c, 0, 60, 52
2, 14400, Note_on_c, 0, 65, 60
2, 14400, Control_c, 0, 64, 127
2, 14402, Control_c, 0, 64, 0
2, 14408, Control_c, 0, 64, 127
2, 14466, Note_on_c, 0, 65, 0
2, 14466, Note_on_c, 0, 53, 0
2, 14472, Note_on_c, 0, 65, 60
2, 14474, Control_c, 0, 64, 0
2, 14480, Control_c, 0, 64, 127
2, 14520, Note_on_c, 0, 65, 0
2, 14520, Note_on_c, 0, 66, 62
2, 14532, Note_on_c, 0, 60, 0
2, 14536, Note_on_c, 0, 66, 0
2, 14544, Note_on_c, 0, 54, 48
2, 14544, Note_on_c, 0, 61, 52
2, 14544, Note_on_c, 0, 66, 62
2, 14544, Control_c, 0, 64, 127
2, 14546, Control_c, 0, 64, 0
2, 14552, Control_c, 0, 64, 127
2, 14592, Note_on_c, 0, 66, 0
2, 14592, Note_on_c, 0, 54, 0
2, 14592, Note_on_c, 0, 65, 60
2, 14608, Note_on_c, 0, 65, 0
2, 14616, Note_on_c, 0, 65, 67
2, 14618, Control_c, 0, 64, 0
2, 14624, Control_c, 0, 64, 127
2, 14664, Note_on_c, 0, 65, 0
2, 14664, Note_on_c, 0, 70, 64
2, 14676, Note_on_c, 0, 61, 0
2, 14680, Note_on_c, 0, 70, 0
2, 14688, Note_on_c, 0, 63, 52
2, 14688, Note_on_c, 0, 70, 64
2, 14688, Control_c, 0, 64, 127
2, 14690, Control_c, 0, 64, 0
2, 14696, Control_c, 0, 64, 127
2, 14736, Note_on_c, 0, 70, 0
2, 14736, Note_on_c, 0, 69, 55
2, 14752, Note_on_c, 0, 69, 0
2, 14760, Note_on_c, 0, 69, 64
2, 14762, Control_c, 0, 64, 0
2, 14768, Control_c, 0, 64, 127
2, 14808, Note_on_c, 0, 69, 0
2, 14808, Note_on_c, 0, 66, 62
2, 14820, Note_on_c, 0, 63, 0
2, 14824, Note_on_c, 0, 66, 0
2, 14832, Note_on_c, 0, 61, 55
2, 14832, Note_on_c, 0, 66, 67
2, 14832, Control_c, 0, 64, 127
2, 14834, Control_c, 0, 64, 0
2, 14840, Control_c, 0, 64, 127
2, 14880, Note_on_c, 0, 66, 0
2, 14880, Note_on_c, 0, 65, 64
2, 14896, Note_on_c, 0, 65, 0
2, 14904, Note_on_c, 0, 65, 73
2, 14906, Control_c, 0, 64, 0
2, 14912, Control_c, 0, 64, 127
2, 14952, Note_on_c, 0, 65, 0
2, 14952, Note_on_c, 0, 66, 74
2, 14964, Note_on_c, 0, 61, 0
2, 14968, Note_on_c, 0, 66, 0
2, 14976, Note_on_c, 0, 55, 60
2, 14976, Note_on_c, 0, 62, 55
2, 14976, Note_on_c, 0, 65, 60
2, 14976, Note_on_c, 0, 67, 76
2, 14976, Control_c, 0, 64, 127
2, 14978, Control_c, 0, 64, 0
2, 14984, Control_c, 0, 64, 127
2, 15042, Note_on_c, 0, 67, 0
2, 15042, Note_on_c, 0, 55, 0
2, 15048, Note_on_c, 0, 67, 79
2, 15050, Control_c, 0, 64, 0
2, 15056, Control_c, 0, 64, 127
2, 15096, Note_on_c, 0, 67, 0
2, 15096, Note_on_c, 0, 68, 76
2, 15108, Note_on_c, 0, 65, 0
2, 15108, Note_on_c, 0, 62, 0
2, 15112, Note_on_c, 0, 68, 0
2, 15120, Note_on_c, 0, 56, 60
2, 15120, Note_on_c, 0, 63, 64
2, 15120, Note_on_c, 0, 68, 81
2, 15120, Control_c, 0, 64, 127
2, 15122, Control_c, 0, 64, 0
2, 15128, Control_c, 0, 64, 127
2, 15160, Note_on_c, 0, 56, 0
2, 15168, Note_on_c, 0, 68, 0
2, 15168, Note_on_c, 0, 67, 81
2, 15184, Note_on_c, 0, 67, 0
2, 15192, Note_on_c, 0, 67, 82
2, 15194, Control_c, 0, 64, 0
2, 15200, Control_c, 0, 64, 127
2, 15240, Note_on_c, 0, 67, 0
2, 15240, Note_on_c, 0, 72, 88
2, 15252, Note_on_c, 0, 63, 0
2, 15256, Note_on_c, 0, 72, 0
2, 15264, Note_on_c, 0, 65, 72
2, 15264, Note_on_c, 0, 72, 88
2, 15264, Control_c, 0, 64, 127
2, 15266, Control_c, 0, 64, 0
2, 15272, Control_c, 0, 64, 127
2, 15312, Note_on_c, 0, 72, 0
2, 15312, Note_on_c, 0, 71, 76
2, 15328, Note_on_c, 0, 71, 0
2, 15336, Note_on_c, 0, 71, 74
2, 15338, Control_c, 0, 64, 0
2, 15344, Control_c, 0, 64, 127
2, 15384, Note_on_c, 0, 71, 0
2, 15384, Note_on_c, 0, 70, 64
2, 15400, Note_on_c, 0, 70, 0
2, 15408, Note_on_c, 0, 70, 62
2, 15408, Control_c, 0, 64, 127
2, 15410, Control_c, 0, 64, 0
2, 15416, Control_c, 0, 64, 127
2, 15456, Note_on_c, 0, 70, 0
2, 15456, Note_on_c, 0, 69, 57
2, 15472, Note_on_c, 0, 69, 0
2, 15480, Note_on_c, 0, 69, 56
2, 15482, Control_c, 0, 64, 0
2, 15488, Control_c, 0, 64, 127
2, 15528, Note_on_c, 0, 69, 0
2, 15528, Note_on_c, 0, 68, 50
2, 15550, Note_on_c, 0, 65, 0
2, 15552, Note_on_c, 0, 68, 0
2, 15552, Note_on_c, 0, 64, 43
2, 15552, Note_on_c, 0, 69, 52
2, 15552, Control_c, 0, 64, 127
2, 15554, Control_c, 0, 64, 0
2, 15560, Control_c, 0, 64, 127
2, 15618, Note_on_c, 0, 69, 0
2, 15618, Note_on_c, 0, 64, 0
2, 15624, Note_on_c, 0, 69, 62
2, 15672, Note_on_c, 0, 69, 0
2, 15672, Note_on_c, 0, 71, 64
2, 15696, Note_on_c, 0, 71, 0
2, 15696, Note_on_c, 0, 61, 45
2, 15696, Note_on_c, 0, 67, 50
2, 15696, Note_on_c, 0, 69, 67
2, 15696, Control_c, 0, 64, 127
2, 15698, Control_c, 0, 64, 0
2, 15704, Control_c, 0, 64, 127
2, 15744, Note_on_c, 0, 69, 0
2, 15744, Note_on_c, 0, 57, 67
2, 15762, Note_on_c, 0, 67, 0
2, 15762, Note_on_c, 0, 61, 0
2, 15768, Note_on_c, 0, 57, 0
2, 15768, Note_on_c, 0, 61, 45
2, 15768, Note_on_c, 0, 67, 50
2, 15768, Note_on_c, 0, 69, 74
2, 15816, Note_on_c, 0, 69, 0
2, 15816, Note_on_c, 0, 71, 64
2, 15834, Note_on_c, 0, 67, 0
2, 15834, Note_on_c, 0, 61, 0
2, 15840, Note_on_c, 0, 71, 0
2, 15840, Note_on_c, 0, 62, 52
2, 15840, Note_on_c, 0, 66, 55
2, 15840, Note_on_c, 0, 69, 74
2, 15840, Control_c, 0, 64, 127
2, 15842, Control_c, 0, 64, 0
2, 15848, Control_c, 0, 64, 127
2, 15888, Note_on_c, 0, 69, 0
2, 15888, Note_on_c, 0, 57, 67
2, 15906, Note_on_c, 0, 66, 0
2, 15906, Note_on_c, 0, 62, 0
2, 15912, Note_on_c, 0, 57, 0
2, 15912, Note_on_c, 0, 62, 52
2, 15912, Note_on_c, 0, 66, 55
2, 15912, Note_on_c, 0, 69, 74
2, 15958, Note_on_c, 0, 69, 0
2, 15960, Note_on_c, 0, 78, 81
2, 15976, Note_on_c, 0, 78, 0
2, 15978, Note_on_c, 0, 66, 0
2, 15978, Note_on_c, 0, 62, 0
2, 15984, Note_on_c, 0, 67, 62
2, 15984, Note_on_c, 0, 78, 84
2, 15984, Control_c, 0, 64, 127
2, 15986, Control_c, 0, 64, 0
2, 15992, Control_c, 0, 64, 127
2, 16032, Note_on_c, 0, 78, 0
2, 16032, Note_on_c, 0, 76, 72
2, 16056, Note_on_c, 0, 76, 0
2, 16056, Note_on_c, 0, 74, 64
2, 16058, Control_c, 0, 64, 0
2, 16064, Control_c, 0, 64, 127
2, 16104, Note_on_c, 0, 74, 0
2, 16104, Note_on_c, 0, 71, 62
2, 16116, Note_on_c, 0, 67, 0
2, 16128, Note_on_c, 0, 71, 0
2, 16128, Note_on_c, 0, 66, 48
2, 16128, Note_on_c, 0, 69, 60
2, 16128, Control_c, 0, 64, 127
2, 16130, Control_c, 0, 64, 0
2, 16136, Control_c, 0, 64, 127
2, 16194, Note_on_c, 0, 69, 0
2, 16200, Note_on_c, 0, 69, 69
2, 16248, Note_on_c, 0, 69, 0
2, 16248, Note_on_c, 0, 71, 64
2, 16260, Note_on_c, 0, 66, 0
2, 16272, Note_on_c, 0, 71, 0
2, 16272, Note_on_c, 0, 61, 48
2, 16272, Note_on_c, 0, 67, 52
2, 16272, Note_on_c, 0, 69, 72
2, 16272, Control_c, 0, 64, 127
2, 16274, Control_c, 0, 64, 0
2, 16280, Control_c, 0, 64, 127
2, 16320, Note_on_c, 0, 69, 0
2, 16320, Note_on_c, 0, 57, 72
2, 16338, Note_on_c, 0, 67, 0
2, 16338, Note_on_c, 0, 61, 0
2, 16344, Note_on_c, 0, 57, 0
2, 16344, Note_on_c, 0, 61, 52
2, 16344, Note_on_c, 0, 67, 57
2, 16344, Note_on_c, 0, 69, 76
2, 16392, Note_on_c, 0, 69, 0
2, 16392, Note_on_c, 0, 71, 72
2, 16410, Note_on_c, 0, 67, 0
2, 16410, Note_on_c, 0, 61, 0
2, 16416, Note_on_c, 0, 71, 0
2, 16416, Note_on_c, 0, 62, 52
2, 16416, Note_on_c, 0, 66, 57
2, 16416, Note_on_c, 0, 69, 76
2, 16416, Control_c, 0, 64, 127
2, 16418, Control_c, 0, 64, 0
2, 16424, Control_c, 0, 64, 127
2, 16464, Note_on_c, 0, 69, 0
2, 16464, Note_on_c, 0, 57, 76
2, 16482, Note_on_c, 0, 66, 0
2, 16482, Note_on_c, 0, 62, 0
2, 16488, Note_on_c, 0, 57, 0
2, 16488, Note_on_c, 0, 62, 55
2, 16488, Note_on_c, 0, 66, 60
2, 16488, Note_on_c, 0, 69, 76
2, 16534, Note_on_c, 0, 69, 0
2, 16536, Note_on_c, 0, 74, 86
2, 16552, Note_on_c, 0, 74, 0
2, 16554, Note_on_c, 0, 66, 0
2, 16554, Note_on_c, 0, 62, 0
2, 16560, Note_on_c, 0, 62, 57
2, 16560, Note_on_c, 0, 66, 62
2, 16560, Note_on_c, 0, 74, 84
2, 16560, Control_c, 0, 64, 127
2, 16562, Control_c, 0, 64, 0
2, 16568, Control_c, 0, 64, 127
2, 16608, Note_on_c, 0, 74, 0
2, 16608, Note_on_c, 0, 73, 72
2, 16632, Note_on_c, 0, 73, 0
2, 16632, Note_on_c, 0, 71, 68
2, 16634, Control_c, 0, 64, 0
2, 16640, Control_c, 0, 64, 127
2, 16672, Note_on_c, 0, 66, 0
2, 16680, Note_on_c, 0, 71, 0
2, 16680, Note_on_c, 0, 66, 64
2, 16692, Note_on_c, 0, 62, 0
2, 16702, Note_on_c, 0, 66, 0
2, 16704, Note_on_c, 0, 61, 40
2, 16704, Control_c, 0, 64, 127
2, 16706, Control_c, 0, 64, 0
2, 16708, Note_on_c, 0, 61, 0
2, 16710, Note_on_c, 0, 61, 48
2, 16712, Control_c, 0, 64, 127
2, 16716, Note_on_c, 0, 66, 52
2, 16722, Note_on_c, 0, 70, 48
2, 16728, Note_on_c, 0, 73, 55
2, 16770, Note_on_c, 0, 73, 0
2, 16770, Note_on_c, 0, 61, 0
2, 16770, Note_on_c, 0, 66, 0
2, 16770, Note_on_c, 0, 70, 0
2, 16776, Note_on_c, 0, 61, 62
2, 16776, Note_on_c, 0, 73, 72
2, 16816, Note_on_c, 0, 73, 0
2, 16816, Note_on_c, 0, 61, 0
2, 16824, Note_on_c, 0, 63, 72
2, 16824, Note_on_c, 0, 75, 69
2, 16840, Note_on_c, 0, 75, 0
2, 16840, Note_on_c, 0, 63, 0
2, 16848, Note_on_c, 0, 65, 50
2, 16848, Note_on_c, 0, 71, 55
2, 16848, Note_on_c, 0, 73, 72
2, 16848, Control_c, 0, 64, 127
2, 16850, Control_c, 0, 64, 0
2, 16856, Control_c, 0, 64, 127
2, 16896, Note_on_c, 0, 73, 0
2, 16896, Note_on_c, 0, 61, 69
2, 16912, Note_on_c, 0, 61, 0
2, 16914, Note_on_c, 0, 71, 0
2, 16914, Note_on_c, 0, 65, 0
2, 16920, Note_on_c, 0, 65, 50
2, 16920, Note_on_c, 0, 71, 55
2, 16920, Note_on_c, 0, 73, 73
2, 16968, Note_on_c, 0, 73, 0
2, 16968, Note_on_c, 0, 75, 74
2, 16984, Note_on_c, 0, 75, 0
2, 16986, Note_on_c, 0, 71, 0
2, 16986, Note_on_c, 0, 65, 0
2, 16992, Note_on_c, 0, 66, 50
2, 16992, Note_on_c, 0, 70, 55
2, 16992, Note_on_c, 0, 73, 74
2, 16992, Control_c, 0, 64, 127
2, 16994, Control_c, 0, 64, 0
2, 17000, Control_c, 0, 64, 127
2, 17040, Note_on_c, 0, 73, 0
2, 17040, Note_on_c, 0, 61, 72
2, 17056, Note_on_c, 0, 61, 0
2, 17058, Note_on_c, 0, 70, 0
2, 17058, Note_on_c, 0, 66, 0
2, 17064, Note_on_c, 0, 66, 52
2, 17064, Note_on_c, 0, 70, 57
2, 17064, Note_on_c, 0, 73, 79
2, 17110, Note_on_c, 0, 73, 0
2, 17112, Note_on_c, 0, 82, 81
2, 17128, Note_on_c, 0, 82, 0
2, 17130, Note_on_c, 0, 70, 0
2, 17130, Note_on_c, 0, 66, 0
2, 17136, Control_c, 0, 64, 127
2, 17138, Control_c, 0, 64, 0
2, 17144, Control_c, 0, 64, 127
2, 17148, Note_on_c, 0, 70, 57
2, 17154, Note_on_c, 0, 71, 60
2, 17160, Note_on_c, 0, 75, 64
2, 17166, Note_on_c, 0, 82, 79
2, 17184, Note_on_c, 0, 82, 0
2, 17184, Note_on_c, 0, 80, 72
2, 17208, Note_on_c, 0, 80, 0
2, 17208, Note_on_c, 0, 78, 67
2, 17248, Note_on_c, 0, 75, 0
2, 17256, Note_on_c, 0, 78, 0
2, 17256, Note_on_c, 0, 75, 63
2, 17268, Note_on_c, 0, 71, 0
2, 17268, Note_on_c, 0, 70, 0
2, 17280, Note_on_c, 0, 75, 0
2, 17280, Note_on_c, 0, 70, 48
2, 17280, Note_on_c, 0, 73, 60
2, 17280, Control_c, 0, 64, 127
2, 17282, Control_c, 0, 64, 0
2, 17288, Control_c, 0, 64, 127
2, 17346, Note_on_c, 0, 73, 0
2, 17352, Note_on_c, 0, 73, 69
2, 17400, Note_on_c, 0, 73, 0
2, 17400, Note_on_c, 0, 75, 67
2, 17412, Note_on_c, 0, 70, 0
2, 17424, Note_on_c, 0, 75, 0
2, 17424, Note_on_c, 0, 65, 52
2, 17424, Note_on_c, 0, 71, 57
2, 17424, Note_on_c, 0, 73, 74
2, 17424, Control_c, 0, 64, 127
2, 17426, Control_c, 0, 64, 0
2, 17432, Control_c, 0, 64, 127
2, 17472, Note_on_c, 0, 73, 0
2, 17472, Note_on_c, 0, 61, 69
2, 17490, Note_on_c, 0, 71, 0
2, 17490, Note_on_c, 0, 65, 0
2, 17496, Note_on_c, 0, 61, 0
2, 17496, Note_on_c, 0, 65, 52
2, 17496, Note_on_c, 0, 71, 57
2, 17496, Note_on_c, 0, 73, 74
2, 17544, Note_on_c, 0, 73, 0
2, 17544, Note_on_c, 0, 75, 76
2, 17562, Note_on_c, 0, 71, 0
2, 17562, Note_on_c, 0, 65, 0
2, 17568, Note_on_c, 0, 75, 0
2, 17568, Note_on_c, 0, 61, 57
2, 17568, Note_on_c, 0, 66, 52
2, 17568, Note_on_c, 0, 70, 57
2, 17568, Note_on_c, 0, 73, 76
2, 17568, Control_c, 0, 64, 127
2, 17570, Control_c, 0, 64, 0
2, 17576, Control_c, 0, 64, 127
2, 17608, Note_on_c, 0, 73, 0
2, 17608, Note_on_c, 0, 61, 0
2, 17616, Note_on_c, 0, 61, 74
2, 17632, Note_on_c, 0, 61, 0
2, 17634, Note_on_c, 0, 70, 0
2, 17634, Note_on_c, 0, 66, 0
2, 17640, Note_on_c, 0, 66, 57
2, 17640, Note_on_c, 0, 70, 62
2, 17640, Note_on_c, 0, 73, 81
2, 17688, Note_on_c, 0, 73, 0
2, 17688, Note_on_c, 0, 75, 84
2, 17706, Note_on_c, 0, 70, 0
2, 17706, Note_on_c, 0, 66, 0
2, 17712, Note_on_c, 0, 75, 0
2, 17712, Note_on_c, 0, 71, 74
2, 17712, Note_on_c, 0, 76, 88
2, 17712, Control_c, 0, 64, 127
2, 17714, Control_c, 0, 64, 0
2, 17720, Control_c, 0, 64, 127
2, 17760, Note_on_c, 0, 76, 0
2, 17760, Note_on_c, 0, 64, 76
2, 17764, Note_on_c, 0, 64, 0
2, 17766, Note_on_c, 0, 64, 64
2, 17770, Note_on_c, 0, 64, 0
2, 17772, Note_on_c, 0, 71, 0
2, 17772, Note_on_c, 0, 64, 64
2, 17778, Note_on_c, 0, 71, 72
2, 17784, Note_on_c, 0, 76, 84
2, 17824, Note_on_c, 0, 76, 0
2, 17824, Note_on_c, 0, 64, 0
2, 17832, Note_on_c, 0, 63, 72
2, 17832, Note_on_c, 0, 75, 84
2, 17834, Control_c, 0, 64, 0
2, 17840, Control_c, 0, 64, 127
2, 17848, Note_on_c, 0, 75, 0
2, 17848, Note_on_c, 0, 63, 0
2, 17848, Note_on_c, 0, 71, 0
2, 17856, Note_on_c, 0, 63, 72
2, 17856, Note_on_c, 0, 71, 76
2, 17856, Note_on_c, 0, 75, 84
2, 17856, Control_c, 0, 64, 127
2, 17858, Control_c, 0, 64, 0
2, 17864, Control_c, 0, 64, 127
2, 17922, Note_on_c, 0, 75, 0
2, 17922, Note_on_c, 0, 71, 0
2, 17922, Note_on_c, 0, 63, 0
2, 17928, Note_on_c, 0, 61, 48
2, 17928, Note_on_c, 0, 70, 55
2, 17928, Note_on_c, 0, 73, 60
2, 17930, Control_c, 0, 64, 0
2, 17938, Note_on_c, 0, 73, 0
2, 17938, Note_on_c, 0, 70, 0
2, 17938, Note_on_c, 0, 61, 0
2, 17944, Note_on_c, 0, 61, 60
2, 17948, Note_on_c, 0, 61, 0
2, 17948, Note_on_c, 0, 63, 62
2, 17952, Note_on_c, 0, 63, 0
2, 17952, Note_on_c, 0, 58, 60
2, 17952, Note_on_c, 0, 61, 62
2, 17960, Control_c, 0, 64, 127
2, 17964, Note_on_c, 0, 61, 0
2, 17964, Note_on_c, 0, 60, 62
2, 17976, Note_on_c, 0, 60, 0
2, 17976, Note_on_c, 0, 58, 0
2, 17976, Note_on_c, 0, 57, 62
2, 17976, Note_on_c, 0, 61, 67
2, 17988, Note_on_c, 0, 61, 0
2, 17988, Note_on_c, 0, 57, 0
2, 17988, Note_on_c, 0, 59, 61
2, 17988, Note_on_c, 0, 63, 63
2, 18000, Note_on_c, 0, 63, 0
2, 18000, Note_on_c, 0, 59, 0
2, 18000, Note_on_c, 0, 56, 57
2, 18000, Note_on_c, 0, 64, 64
2, 18000, Control_c, 0, 64, 127
2, 18002, Control_c, 0, 64, 0
2, 18008, Control_c, 0, 64, 127
2, 18046, Note_on_c, 0, 64, 0
2, 18046, Note_on_c, 0, 56, 0
2, 18074, Control_c, 0, 64, 0
2, 18088, Note_on_c, 0, 64, 60
2, 18092, Note_on_c, 0, 64, 0
2, 18092, Note_on_c, 0, 66, 62
2, 18096, Note_on_c, 0, 66, 0
2, 18096, Note_on_c, 0, 61, 60
2, 18096, Note_on_c, 0, 64, 62
2, 18104, Control_c, 0, 64, 127
2, 18108, Note_on_c, 0, 64, 0
2, 18108, Note_on_c, 0, 63, 62
2, 18120, Note_on_c, 0, 63, 0
2, 18120, Note_on_c, 0, 61, 0
2, 18120, Note_on_c, 0, 60, 60
2, 18120, Note_on_c, 0, 64, 64
2, 18132, Note_on_c, 0, 64, 0
2, 18132, Note_on_c, 0, 60, 0
2, 18132, Note_on_c, 0, 62, 58
2, 18132, Note_on_c, 0, 66, 61
2, 18144, Note_on_c, 0, 66, 0
2, 18144, Note_on_c, 0, 62, 0
2, 18144, Note_on_c, 0, 59, 64
2, 18144, Note_on_c, 0, 67, 67
2, 18144, Control_c, 0, 64, 127
2, 18146, Control_c, 0, 64, 0
2, 18152, Control_c, 0, 64, 127
2, 18154, Note_on_c, 0, 67, 0
2, 18154, Note_on_c, 0, 59, 0
2, 18156, Note_on_c, 0, 76, 69
2, 18156, Note_on_c, 0, 84, 74
2, 18166, Note_on_c, 0, 84, 0
2, 18168, Note_on_c, 0, 76, 0
2, 18168, Note_on_c, 0, 74, 67
2, 18168, Note_on_c, 0, 83, 72
2, 18180, Note_on_c, 0, 83, 0
2, 18180, Note_on_c, 0, 74, 0
2, 18180, Note_on_c, 0, 72, 64
2, 18180, Note_on_c, 0, 78, 69
2, 18192, Note_on_c, 0, 78, 0
2, 18192, Note_on_c, 0, 72, 0
2, 18192, Note_on_c, 0, 71, 67
2, 18192, Note_on_c, 0, 79, 72
2, 18204, Note_on_c, 0, 79, 0
2, 18204, Note_on_c, 0, 71, 0
2, 18204, Note_on_c, 0, 72, 64
2, 18204, Note_on_c, 0, 76, 67
2, 18216, Note_on_c, 0, 76, 0
2, 18216, Note_on_c, 0, 72, 0
2, 18216, Note_on_c, 0, 71, 62
2, 18216, Note_on_c, 0, 74, 64
2, 18218, Control_c, 0, 64, 0
2, 18228, Note_on_c, 0, 74, 0
2, 18228, Note_on_c, 0, 71, 0
2, 18228, Note_on_c, 0, 69, 64
2, 18228, Note_on_c, 0, 77, 69
2, 18238, Note_on_c, 0, 77, 0
2, 18240, Note_on_c, 0, 69, 0
2, 18240, Note_on_c, 0, 68, 62
2, 18240, Note_on_c, 0, 76, 67
2, 18248, Control_c, 0, 64, 127
2, 18252, Note_on_c, 0, 76, 0
2, 18252, Note_on_c, 0, 68, 0
2, 18252, Note_on_c, 0, 65, 57
2, 18252, Note_on_c, 0, 69, 60
2, 18264, Note_on_c, 0, 69, 0
2, 18264, Note_on_c, 0, 65, 0
2, 18264, Note_on_c, 0, 64, 56
2, 18264, Note_on_c, 0, 71, 61
2, 18276, Note_on_c, 0, 71, 0
2, 18276, Note_on_c, 0, 64, 0
2, 18276, Note_on_c, 0, 62, 55
2, 18276, Note_on_c, 0, 72, 60
2, 18286, Note_on_c, 0, 62, 0
2, 18288, Note_on_c, 0, 72, 0
2, 18288, Note_on_c, 0, 60, 52
2, 18288, Note_on_c, 0, 64, 55
2, 18288, Control_c, 0, 64, 127
2, 18290, Control_c, 0, 64, 0
2, 18296, Control_c, 0, 64, 127
2, 18334, Note_on_c, 0, 64, 0
2, 18334, Note_on_c, 0, 60, 0
2, 18360, Note_on_c, 0, 69, 55
2, 18360, Note_on_c, 0, 72, 62
2, 18362, Control_c, 0, 64, 0
2, 18384, Note_on_c, 0, 72, 0
2, 18384, Note_on_c, 0, 69, 0
2, 18384, Note_on_c, 0, 68, 55
2, 18384, Note_on_c, 0, 71, 57
2, 18392, Control_c, 0, 64, 127
2, 18396, Note_on_c, 0, 71, 0
2, 18396, Note_on_c, 0, 68, 0
2, 18396, Note_on_c, 0, 69, 57
2, 18396, Note_on_c, 0, 72, 60
2, 18408, Note_on_c, 0, 72, 0
2, 18408, Note_on_c, 0, 69, 0
2, 18408, Note_on_c, 0, 71, 60
2, 18408, Note_on_c, 0, 74, 62
2, 18420, Note_on_c, 0, 74, 0
2, 18420, Note_on_c, 0, 71, 0
2, 18420, Note_on_c, 0, 68, 57
2, 18420, Note_on_c, 0, 77, 64
2, 18432, Note_on_c, 0, 77, 0
2, 18432, Note_on_c, 0, 68, 0
2, 18432, Note_on_c, 0, 72, 55
2, 18432, Note_on_c, 0, 76, 60
2, 18432, Control_c, 0, 64, 127
2, 18434, Control_c, 0, 64, 0
2, 18440, Control_c, 0, 64, 127
2, 18478, Note_on_c, 0, 76, 0
2, 18478, Note_on_c, 0, 72, 0
2, 18504, Note_on_c, 0, 69, 60
2, 18504, Note_on_c, 0, 72, 67
2, 18506, Control_c, 0, 64, 0
2, 18528, Note_on_c, 0, 72, 0
2, 18528, Note_on_c, 0, 69, 0
2, 18528, Note_on_c, 0, 68, 64
2, 18528, Note_on_c, 0, 71, 67
2, 18536, Control_c, 0, 64, 127
2, 18540, Note_on_c, 0, 71, 0
2, 18540, Note_on_c, 0, 68, 0
2, 18540, Note_on_c, 0, 69, 64
2, 18540, Note_on_c, 0, 72, 67
2, 18552, Note_on_c, 0, 72, 0
2, 18552, Note_on_c, 0, 69, 0
2, 18552, Note_on_c, 0, 71, 63
2, 18552, Note_on_c, 0, 74, 66
2, 18564, Note_on_c, 0, 74, 0
2, 18564, Note_on_c, 0, 71, 0
2, 18564, Note_on_c, 0, 68, 57
2, 18564, Note_on_c, 0, 77, 64
2, 18576, Note_on_c, 0, 77, 0
2, 18576, Note_on_c, 0, 68, 0
2, 18576, Note_on_c, 0, 72, 55
2, 18576, Note_on_c, 0, 76, 57
2, 18576, Control_c, 0, 64, 127
2, 18578, Control_c, 0, 64, 0
2, 18584, Control_c, 0, 64, 127
2, 18586, Note_on_c, 0, 76, 0
2, 18588, Note_on_c, 0, 72, 0
2, 18588, Note_on_c, 0, 76, 67
2, 18588, Note_on_c, 0, 84, 72
2, 18600, Note_on_c, 0, 84, 0
2, 18600, Note_on_c, 0, 76, 0
2, 18600, Note_on_c, 0, 74, 64
2, 18600, Note_on_c, 0, 83, 69
2, 18610, Note_on_c, 0, 74, 0
2, 18612, Note_on_c, 0, 83, 0
2, 18612, Note_on_c, 0, 71, 62
2, 18612, Note_on_c, 0, 80, 67
2, 18624, Note_on_c, 0, 80, 0
2, 18624, Note_on_c, 0, 71, 0
2, 18624, Note_on_c, 0, 72, 64
2, 18624, Note_on_c, 0, 81, 69
2, 18636, Note_on_c, 0, 81, 0
2, 18636, Note_on_c, 0, 72, 0
2, 18636, Note_on_c, 0, 74, 62
2, 18636, Note_on_c, 0, 77, 64
2, 18648, Note_on_c, 0, 77, 0
2, 18648, Note_on_c, 0, 74, 0
2, 18648, Note_on_c, 0, 72, 60
2, 18648, Note_on_c, 0, 76, 62
2, 18650, Control_c, 0, 64, 0
2, 18660, Note_on_c, 0, 76, 0
2, 18660, Note_on_c, 0, 72, 0
2, 18660, Note_on_c, 0, 71, 62
2, 18660, Note_on_c, 0, 79, 67
2, 18670, Note_on_c, 0, 79, 0
2, 18672, Note_on_c, 0, 71, 0
2, 18672, Note_on_c, 0, 69, 60
2, 18672, Note_on_c, 0, 78, 64
2, 18680, Control_c, 0, 64, 127
2, 18684, Note_on_c, 0, 78, 0
2, 18684, Note_on_c, 0, 69, 0
2, 18684, Note_on_c, 0, 67, 55
2, 18684, Note_on_c, 0, 71, 57
2, 18696, Note_on_c, 0, 71, 0
2, 18696, Note_on_c, 0, 67, 0
2, 18696, Note_on_c, 0, 66, 54
2, 18696, Note_on_c, 0, 72, 58
2, 18708, Note_on_c, 0, 72, 0
2, 18708, Note_on_c, 0, 66, 0
2, 18708, Note_on_c, 0, 62, 52
2, 18708, Note_on_c, 0, 74, 57
2, 18720, Note_on_c, 0, 74, 0
2, 18720, Note_on_c, 0, 62, 0
2, 18720, Note_on_c, 0, 67, 50
2, 18720, Note_on_c, 0, 71, 55
2, 18720, Control_c, 0, 64, 127
2, 18722, Control_c, 0, 64, 0
2, 18728, Control_c, 0, 64, 127
2, 18790, Note_on_c, 0, 71, 0
2, 18790, Note_on_c, 0, 67, 0
2, 18794, Control_c, 0, 64, 0
2, 18808, Note_on_c, 0, 67, 62
2, 18812, Note_on_c, 0, 67, 0
2, 18812, Note_on_c, 0, 69, 64
2, 18816, Note_on_c, 0, 69, 0
2, 18816, Note_on_c, 0, 64, 62
2, 18816, Note_on_c, 0, 67, 64
2, 18824, Control_c, 0, 64, 127
2, 18828, Note_on_c, 0, 67, 0
2, 18828, Note_on_c, 0, 66, 64
2, 18840, Note_on_c, 0, 66, 0
2, 18840, Note_on_c, 0, 64, 0
2, 18840, Note_on_c, 0, 63, 62
2, 18840, Note_on_c, 0, 67, 67
2, 18842, Control_c, 0, 64, 0
2, 18848, Control_c, 0, 64, 127
2, 18852, Note_on_c, 0, 67, 0
2, 18852, Note_on_c, 0, 63, 0
2, 18852, Note_on_c, 0, 65, 61
2, 18852, Note_on_c, 0, 69, 63
2, 18864, Note_on_c, 0, 69, 0
2, 18864, Note_on_c, 0, 65, 0
2, 18864, Note_on_c, 0, 62, 57
2, 18864, Note_on_c, 0, 70, 64
2, 18864, Control_c, 0, 64, 127
2, 18866, Control_c, 0, 64, 0
2, 18872, Control_c, 0, 64, 127
2, 18910, Note_on_c, 0, 70, 0
2, 18910, Note_on_c, 0, 62, 0
2, 18938, Control_c, 0, 64, 0
2, 18952, Note_on_c, 0, 70, 57
2, 18956, Note_on_c, 0, 70, 0
2, 18956, Note_on_c, 0, 72, 60
2, 18960, Note_on_c, 0, 72, 0
2, 18960, Note_on_c, 0, 67, 60
2, 18960, Note_on_c, 0, 70, 62
2, 18968, Control_c, 0, 64, 127
2, 18972, Note_on_c, 0, 70, 0
2, 18972, Note_on_c, 0, 69, 62
2, 18984, Note_on_c, 0, 69, 0
2, 18984, Note_on_c, 0, 67, 0
2, 18984, Note_on_c, 0, 66, 62
2, 18984, Note_on_c, 0, 70, 67
2, 18986, Control_c, 0, 64, 0
2, 18992, Control_c, 0, 64, 127
2, 18996, Note_on_c, 0, 70, 0
2, 18996, Note_on_c, 0, 66, 0
2, 18996, Note_on_c, 0, 68, 64
2, 18996, Note_on_c, 0, 72, 69
2, 19008, Note_on_c, 0, 72, 0
2, 19008, Note_on_c, 0, 68, 0
2, 19008, Note_on_c, 0, 65, 64
2, 19008, Note_on_c, 0, 73, 69
2, 19008, Control_c, 0, 64, 127
2, 19010, Control_c, 0, 64, 0
2, 19016, Control_c, 0, 64, 127
2, 19018, Note_on_c, 0, 73, 0
2, 19018, Note_on_c, 0, 65, 0
2, 19024, Note_on_c, 0, 73, 69
2, 19028, Note_on_c, 0, 73, 0
2, 19028, Note_on_c, 0, 75, 72
2, 19032, Note_on_c, 0, 75, 0
2, 19032, Note_on_c, 0, 70, 79
2, 19032, Note_on_c, 0, 73, 81
2, 19034, Control_c, 0, 64, 0
2, 19040, Control_c, 0, 64, 127
2, 19044, Note_on_c, 0, 73, 0
2, 19044, Note_on_c, 0, 72, 76
2, 19056, Note_on_c, 0, 72, 0
2, 19056, Note_on_c, 0, 70, 0
2, 19056, Note_on_c, 0, 69, 74
2, 19056, Note_on_c, 0, 73, 79
2, 19058, Control_c, 0, 64, 0
2, 19064, Control_c, 0, 64, 127
2, 19068, Note_on_c, 0, 73, 0
2, 19068, Note_on_c, 0, 69, 0
2, 19068, Note_on_c, 0, 71, 69
2, 19068, Note_on_c, 0, 75, 74
2, 19080, Note_on_c, 0, 75, 0
2, 19080, Note_on_c, 0, 71, 0
2, 19080, Note_on_c, 0, 68, 79
2, 19080, Note_on_c, 0, 76, 84
2, 19082, Control_c, 0, 64, 0
2, 19088, Control_c, 0, 64, 127
2, 19090, Note_on_c, 0, 76, 0
2, 19090, Note_on_c, 0, 68, 0
2, 19096, Note_on_c, 0, 76, 76
2, 19100, Note_on_c, 0, 76, 0
2, 19100, Note_on_c, 0, 78, 79
2, 19104, Note_on_c, 0, 78, 0
2, 19104, Note_on_c, 0, 73, 81
2, 19104, Note_on_c, 0, 76, 84
2, 19106, Control_c, 0, 64, 0
2, 19112, Control_c, 0, 64, 127
2, 19116, Note_on_c, 0, 76, 0
2, 19116, Note_on_c, 0, 75, 79
2, 19128, Note_on_c, 0, 75, 0
2, 19128, Note_on_c, 0, 73, 0
2, 19128, Note_on_c, 0, 72, 76
2, 19128, Note_on_c, 0, 76, 81
2, 19130, Control_c, 0, 64, 0
2, 19136, Control_c, 0, 64, 127
2, 19140, Note_on_c, 0, 76, 0
2, 19140, Note_on_c, 0, 72, 0
2, 19140, Note_on_c, 0, 74, 69
2, 19140, Note_on_c, 0, 78, 74
2, 19152, Note_on_c, 0, 78, 0
2, 19152, Note_on_c, 0, 74, 0
2, 19152, Note_on_c, 0, 70, 67
2, 19152, Note_on_c, 0, 76, 72
2, 19152, Note_on_c, 0, 79, 86
2, 19152, Control_c, 0, 64, 127
2, 19154, Control_c, 0, 64, 0
2, 19160, Control_c, 0, 64, 127
2, 19200, Note_on_c, 0, 79, 0
2, 19200, Note_on_c, 0, 76, 0
2, 19200, Note_on_c, 0, 70, 0
2, 19200, Control_c, 0, 64, 0
2, 19232, Control_c, 0, 64, 127
2, 19274, Control_c, 0, 64, 0
2, 19280, Control_c, 0, 64, 127
2, 19296, Control_c, 0, 64, 127
2, 19298, Control_c, 0, 64, 0
2, 19304, Control_c, 0, 64, 127
2, 19368, Note_on_c, 0, 62, 55
2, 19370, Control_c, 0, 64, 0
2, 19376, Control_c, 0, 64, 127
2, 19416, Note_on_c, 0, 62, 0
2, 19416, Note_on_c, 0, 64, 50
2, 19440, Note_on_c, 0, 64, 0
2, 19440, Note_on_c, 0, 54, 36
2, 19440, Note_on_c, 0, 60, 40
2, 19440, Note_on_c, 0, 62, 57
2, 19440, Control_c, 0, 64, 127
2, 19442, Control_c, 0, 64, 0
2, 19448, Control_c, 0, 64, 127
2, 19488, Note_on_c, 0, 62, 0
2, 19506, Note_on_c, 0, 60, 0
2, 19506, Note_on_c, 0, 54, 0
2, 19512, Note_on_c, 0, 54, 34
2, 19512, Note_on_c, 0, 60, 39
2, 19512, Note_on_c, 0, 62, 56
2, 19514, Control_c, 0, 64, 0
2, 19520, Control_c, 0, 64, 127
2, 19560, Note_on_c, 0, 62, 0
2, 19560, Note_on_c, 0, 64, 52
2, 19578, Note_on_c, 0, 60, 0
2, 19578, Note_on_c, 0, 54, 0
2, 19584, Note_on_c, 0, 64, 0
2, 19584, Note_on_c, 0, 55, 31
2, 19584, Note_on_c, 0, 59, 38
2, 19584, Note_on_c, 0, 62, 55
2, 19584, Control_c, 0, 64, 127
2, 19586, Control_c, 0, 64, 0
2, 19592, Control_c, 0, 64, 127
2, 19632, Note_on_c, 0, 50, 45
2, 19650, Note_on_c, 0, 62, 0
2, 19650, Note_on_c, 0, 55, 0
2, 19650, Note_on_c, 0, 59, 0
2, 19656, Note_on_c, 0, 50, 0
2, 19656, Note_on_c, 0, 55, 31
2, 19656, Note_on_c, 0, 59, 36
2, 19656, Note_on_c, 0, 62, 52
2, 19658, Control_c, 0, 64, 0
2, 19664, Control_c, 0, 64, 127
2, 19702, Note_on_c, 0, 62, 0
2, 19702, Note_on_c, 0, 59, 0
2, 19702, Note_on_c, 0, 55, 0
2, 19704, Note_on_c, 0, 71, 60
2, 19720, Note_on_c, 0, 71, 0
2, 19728, Note_on_c, 0, 60, 39
2, 19728, Note_on_c, 0, 71, 54
2, 19728, Control_c, 0, 64, 127
2, 19730, Control_c, 0, 64, 0
2, 19736, Control_c, 0, 64, 127
2, 19776, Note_on_c, 0, 71, 0
2, 19776, Note_on_c, 0, 69, 48
2, 19800, Note_on_c, 0, 69, 0
2, 19800, Note_on_c, 0, 67, 45
2, 19802, Control_c, 0, 64, 0
2, 19808, Control_c, 0, 64, 127
2, 19848, Note_on_c, 0, 67, 0
2, 19848, Note_on_c, 0, 64, 40
2, 19860, Note_on_c, 0, 60, 0
2, 19872, Note_on_c, 0, 64, 0
2, 19872, Note_on_c, 0, 59, 37
2, 19872, Note_on_c, 0, 62, 43
2, 19872, Control_c, 0, 64, 127
2, 19874, Control_c, 0, 64, 0
2, 19880, Control_c, 0, 64, 127
2, 19944, Note_on_c, 0, 62, 0
2, 19944, Note_on_c, 0, 59, 0
2, 19944, Control_c, 0, 64, 0
2, 20016, Note_on_c, 0, 54, 40
2, 20016, Note_on_c, 0, 60, 50
2, 20016, Control_c, 0, 64, 0
2, 20024, Control_c, 0, 64, 127
2, 20088, Note_on_c, 0, 60, 0
2, 20088, Note_on_c, 0, 54, 0
2, 20088, Control_c, 0, 64, 0
2, 20160, Note_on_c, 0, 50, 31
2, 20160, Note_on_c, 0, 55, 31
2, 20160, Note_on_c, 0, 59, 40
2, 20160, Control_c, 0, 64, 0
2, 20168, Control_c, 0, 64, 127
2, 20256, Note_on_c, 0, 59, 0
2, 20256, Note_on_c, 0, 55, 0
2, 20256, Note_on_c, 0, 50, 0
2, 20256, Control_c, 0, 64, 0
2, 20256, End_track
3, 0, Start_track
3, 0, MIDI_port, 0
3, 0, Title_t, "Piano L"
3, 0, Control_c, 1, 0, 0
3, 0, Control_c, 1, 32, 0
3, 0, Program_c, 1, 0
3, 0, Control_c, 1, 7, 127
3, 0, Control_c, 1, 10, 70
3, 16, Control_c, 1, 91, 100
3, 38, Control_c, 1, 93, 80
3, 144, Note_on_c, 1, 43, 55
3, 144, Control_c, 1, 64, 127
3, 168, Note_on_c, 1, 43, 0
3, 168, Note_on_c, 1, 50, 45
3, 192, Note_on_c, 1, 50, 0
3, 192, Note_on_c, 1, 59, 52
3, 216, Note_on_c, 1, 59, 0
3, 216, Note_on_c, 1, 60, 45
3, 218, Control_c, 1, 64, 0
3, 240, Note_on_c, 1, 60, 0
3, 240, Note_on_c, 1, 59, 43
3, 248, Control_c, 1, 64, 127
3, 264, Note_on_c, 1, 59, 0
3, 264, Note_on_c, 1, 50, 40
3, 286, Note_on_c, 1, 50, 0
3, 288, Note_on_c, 1, 43, 52
3, 288, Control_c, 1, 64, 127
3, 290, Control_c, 1, 64, 0
3, 296, Control_c, 1, 64, 127
3, 312, Note_on_c, 1, 43, 0
3, 312, Note_on_c, 1, 50, 45
3, 336, Note_on_c, 1, 50, 0
3, 336, Note_on_c, 1, 59, 51
3, 360, Note_on_c, 1, 59, 0
3, 360, Note_on_c, 1, 60, 45
3, 362, Control_c, 1, 64, 0
3, 384, Note_on_c, 1, 60, 0
3, 384, Note_on_c, 1, 59, 43
3, 392, Control_c, 1, 64, 127
3, 408, Note_on_c, 1, 59, 0
3, 408, Note_on_c, 1, 50, 40
3, 430, Note_on_c, 1, 50, 0
3, 432, Note_on_c, 1, 43, 52
3, 432, Control_c, 1, 64, 127
3, 434, Control_c, 1, 64, 0
3, 440, Control_c, 1, 64, 127
3, 456, Note_on_c, 1, 43, 0
3, 456, Note_on_c, 1, 50, 45
3, 480, Note_on_c, 1, 50, 0
3, 480, Note_on_c, 1, 59, 50
3, 504, Note_on_c, 1, 59, 0
3, 504, Note_on_c, 1, 62, 45
3, 506, Control_c, 1, 64, 0
3, 528, Note_on_c, 1, 62, 0
3, 528, Note_on_c, 1, 52, 43
3, 536, Control_c, 1, 64, 127
3, 552, Note_on_c, 1, 52, 0
3, 552, Note_on_c, 1, 40, 45
3, 574, Note_on_c, 1, 40, 0
3, 576, Note_on_c, 1, 45, 40
3, 576, Control_c, 1, 64, 127
3, 578, Control_c, 1, 64, 0
3, 584, Control_c, 1, 64, 127
3, 600, Note_on_c, 1, 45, 0
3, 600, Note_on_c, 1, 52, 45
3, 624, Note_on_c, 1, 52, 0
3, 624, Note_on_c, 1, 60, 45
3, 648, Note_on_c, 1, 60, 0
3, 648, Note_on_c, 1, 64, 43
3, 650, Control_c, 1, 64, 0
3, 672, Note_on_c, 1, 64, 0
3, 672, Note_on_c, 1, 62, 40
3, 680, Control_c, 1, 64, 127
3, 696, Note_on_c, 1, 62, 0
3, 696, Note_on_c, 1, 52, 36
3, 718, Note_on_c, 1, 52, 0
3, 720, Note_on_c, 1, 45, 40
3, 720, Control_c, 1, 64, 127
3, 722, Control_c, 1, 64, 0
3, 728, Control_c, 1, 64, 127
3, 744, Note_on_c, 1, 45, 0
3, 744, Note_on_c, 1, 52, 45
3, 768, Note_on_c, 1, 52, 0
3, 768, Note_on_c, 1, 60, 45
3, 792, Note_on_c, 1, 60, 0
3, 792, Note_on_c, 1, 64, 40
3, 794, Control_c, 1, 64, 0
3, 816, Note_on_c, 1, 64, 0
3, 816, Note_on_c, 1, 62, 38
3, 824, Control_c, 1, 64, 127
3, 840, Note_on_c, 1, 62, 0
3, 840, Note_on_c, 1, 52, 33
3, 862, Note_on_c, 1, 52, 0
3, 864, Note_on_c, 1, 45, 43
3, 864, Control_c, 1, 64, 127
3, 866, Control_c, 1, 64, 0
3, 872, Control_c, 1, 64, 127
3, 888, Note_on_c, 1, 45, 0
3, 888, Note_on_c, 1, 52, 40
3, 912, Note_on_c, 1, 52, 0
3, 912, Note_on_c, 1, 64, 45
3, 936, Note_on_c, 1, 64, 0
3, 936, Note_on_c, 1, 60, 43
3, 938, Control_c, 1, 64, 0
3, 960, Note_on_c, 1, 60, 0
3, 960, Note_on_c, 1, 50, 44
3, 968, Control_c, 1, 64, 127
3, 984, Note_on_c, 1, 50, 0
3, 984, Note_on_c, 1, 38, 45
3, 1006, Note_on_c, 1, 38, 0
3, 1008, Note_on_c, 1, 43, 43
3, 1008, Control_c, 1, 64, 127
3, 1010, Control_c, 1, 64, 0
3, 1016, Control_c, 1, 64, 127
3, 1032, Note_on_c, 1, 43, 0
3, 1032, Note_on_c, 1, 50, 43
3, 1056, Note_on_c, 1, 50, 0
3, 1056, Note_on_c, 1, 62, 55
3, 1080, Note_on_c, 1, 62, 0
3, 1080, Note_on_c, 1, 61, 50
3, 1082, Control_c, 1, 64, 0
3, 1104, Note_on_c, 1, 61, 0
3, 1104, Note_on_c, 1, 60, 48
3, 1112, Control_c, 1, 64, 127
3, 1128, Note_on_c, 1, 60, 0
3, 1128, Note_on_c, 1, 53, 40
3, 1130, Control_c, 1, 64, 0
3, 1136, Control_c, 1, 64, 127
3, 1150, Note_on_c, 1, 53, 0
3, 1152, Note_on_c, 1, 46, 43
3, 1152, Control_c, 1, 64, 127
3, 1154, Control_c, 1, 64, 0
3, 1160, Control_c, 1, 64, 127
3, 1176, Note_on_c, 1, 46, 0
3, 1176, Note_on_c, 1, 53, 43
3, 1200, Note_on_c, 1, 53, 0
3, 1200, Note_on_c, 1, 65, 50
3, 1224, Note_on_c, 1, 65, 0
3, 1224, Note_on_c, 1, 64, 48
3, 1226, Control_c, 1, 64, 0
3, 1248, Note_on_c, 1, 64, 0
3, 1248, Note_on_c, 1, 63, 45
3, 1256, Control_c, 1, 64, 127
3, 1272, Note_on_c, 1, 63, 0
3, 1272, Note_on_c, 1, 56, 38
3, 1274, Control_c, 1, 64, 0
3, 1280, Control_c, 1, 64, 127
3, 1294, Note_on_c, 1, 56, 0
3, 1296, Note_on_c, 1, 49, 43
3, 1296, Control_c, 1, 64, 127
3, 1298, Control_c, 1, 64, 0
3, 1304, Control_c, 1, 64, 127
3, 1320, Note_on_c, 1, 49, 0
3, 1320, Note_on_c, 1, 56, 43
3, 1344, Note_on_c, 1, 56, 0
3, 1344, Note_on_c, 1, 68, 48
3, 1368, Note_on_c, 1, 68, 0
3, 1368, Note_on_c, 1, 65, 43
3, 1382, Control_c, 1, 64, 0
3, 1392, Note_on_c, 1, 65, 0
3, 1392, Note_on_c, 1, 58, 48
3, 1400, Control_c, 1, 64, 127
3, 1416, Note_on_c, 1, 58, 0
3, 1416, Note_on_c, 1, 46, 43
3, 1438, Note_on_c, 1, 46, 0
3, 1440, Note_on_c, 1, 51, 38
3, 1440, Control_c, 1, 64, 127
3, 1442, Control_c, 1, 64, 0
3, 1448, Control_c, 1, 64, 127
3, 1464, Note_on_c, 1, 51, 0
3, 1464, Note_on_c, 1, 58, 52
3, 1488, Note_on_c, 1, 58, 0
3, 1488, Note_on_c, 1, 70, 60
3, 1512, Note_on_c, 1, 70, 0
3, 1512, Note_on_c, 1, 69, 55
3, 1514, Control_c, 1, 64, 0
3, 1536, Note_on_c, 1, 69, 0
3, 1536, Note_on_c, 1, 68, 50
3, 1544, Control_c, 1, 64, 127
3, 1560, Note_on_c, 1, 68, 0
3, 1560, Note_on_c, 1, 58, 52
3, 1582, Note_on_c, 1, 58, 0
3, 1584, Note_on_c, 1, 51, 43
3, 1584, Control_c, 1, 64, 127
3, 1586, Control_c, 1, 64, 0
3, 1592, Control_c, 1, 64, 127
3, 1608, Note_on_c, 1, 51, 0
3, 1608, Note_on_c, 1, 58, 52
3, 1632, Note_on_c, 1, 58, 0
3, 1632, Note_on_c, 1, 70, 62
3, 1656, Note_on_c, 1, 70, 0
3, 1656, Note_on_c, 1, 69, 50
3, 1658, Control_c, 1, 64, 0
3, 1680, Note_on_c, 1, 69, 0
3, 1680, Note_on_c, 1, 68, 45
3, 1688, Control_c, 1, 64, 127
3, 1704, Note_on_c, 1, 68, 0
3, 1704, Note_on_c, 1, 58, 48
3, 1726, Note_on_c, 1, 58, 0
3, 1728, Note_on_c, 1, 51, 43
3, 1728, Control_c, 1, 64, 127
3, 1730, Control_c, 1, 64, 0
3, 1736, Control_c, 1, 64, 127
3, 1752, Note_on_c, 1, 51, 0
3, 1752, Note_on_c, 1, 58, 43
3, 1776, Note_on_c, 1, 58, 0
3, 1776, Note_on_c, 1, 70, 40
3, 1800, Note_on_c, 1, 70, 0
3, 1800, Note_on_c, 1, 66, 36
3, 1802, Control_c, 1, 64, 0
3, 1824, Note_on_c, 1, 66, 0
3, 1824, Note_on_c, 1, 56, 48
3, 1832, Control_c, 1, 64, 127
3, 1848, Note_on_c, 1, 56, 0
3, 1848, Note_on_c, 1, 44, 50
3, 1870, Note_on_c, 1, 44, 0
3, 1872, Note_on_c, 1, 49, 40
3, 1872, Control_c, 1, 64, 127
3, 1874, Control_c, 1, 64, 0
3, 1880, Control_c, 1, 64, 127
3, 1896, Note_on_c, 1, 49, 0
3, 1896, Note_on_c, 1, 56, 55
3, 1920, Note_on_c, 1, 56, 0
3, 1920, Note_on_c, 1, 68, 52
3, 1944, Note_on_c, 1, 68, 0
3, 1944, Note_on_c, 1, 65, 57
3, 1946, Control_c, 1, 64, 0
3, 1968, Note_on_c, 1, 65, 0
3, 1968, Note_on_c, 1, 56, 50
3, 1976, Control_c, 1, 64, 127
3, 1992, Note_on_c, 1, 56, 0
3, 1992, Note_on_c, 1, 49, 55
3, 1994, Control_c, 1, 64, 0
3, 2000, Control_c, 1, 64, 127
3, 2014, Note_on_c, 1, 49, 0
3, 2016, Note_on_c, 1, 41, 60
3, 2016, Control_c, 1, 64, 127
3, 2018, Control_c, 1, 64, 0
3, 2024, Control_c, 1, 64, 127
3, 2040, Note_on_c, 1, 41, 0
3, 2040, Note_on_c, 1, 53, 40
3, 2064, Note_on_c, 1, 53, 0
3, 2064, Note_on_c, 1, 65, 45
3, 2088, Note_on_c, 1, 65, 0
3, 2088, Note_on_c, 1, 58, 50
3, 2090, Control_c, 1, 64, 0
3, 2112, Note_on_c, 1, 58, 0
3, 2112, Note_on_c, 1, 46, 50
3, 2120, Control_c, 1, 64, 127
3, 2136, Note_on_c, 1, 46, 0
3, 2136, Note_on_c, 1, 48, 48
3, 2138, Control_c, 1, 64, 0
3, 2144, Control_c, 1, 64, 127
3, 2158, Note_on_c, 1, 48, 0
3, 2160, Note_on_c, 1, 41, 55
3, 2160, Control_c, 1, 64, 127
3, 2162, Control_c, 1, 64, 0
3, 2168, Control_c, 1, 64, 127
3, 2184, Note_on_c, 1, 41, 0
3, 2184, Note_on_c, 1, 48, 45
3, 2208, Note_on_c, 1, 48, 0
3, 2208, Note_on_c, 1, 57, 48
3, 2232, Note_on_c, 1, 57, 0
3, 2232, Note_on_c, 1, 50, 57
3, 2234, Control_c, 1, 64, 0
3, 2240, Control_c, 1, 64, 127
3, 2256, Note_on_c, 1, 50, 0
3, 2256, Note_on_c, 1, 57, 60
3, 2280, Note_on_c, 1, 57, 0
3, 2280, Note_on_c, 1, 69, 57
3, 2302, Note_on_c, 1, 69, 0
3, 2304, Note_on_c, 1, 40, 60
3, 2304, Control_c, 1, 64, 127
3, 2306, Control_c, 1, 64, 0
3, 2312, Control_c, 1, 64, 127
3, 2328, Note_on_c, 1, 40, 0
3, 2328, Note_on_c, 1, 52, 52
3, 2352, Note_on_c, 1, 52, 0
3, 2352, Note_on_c, 1, 64, 57
3, 2376, Note_on_c, 1, 64, 0
3, 2376, Note_on_c, 1, 54, 48
3, 2378, Control_c, 1, 64, 0
3, 2400, Note_on_c, 1, 54, 0
3, 2400, Note_on_c, 1, 52, 45
3, 2424, Note_on_c, 1, 52, 0
3, 2424, Note_on_c, 1, 56, 40
3, 2446, Note_on_c, 1, 56, 0
3, 2448, Note_on_c, 1, 45, 45
3, 2448, Control_c, 1, 64, 0
3, 2456, Control_c, 1, 64, 127
3, 2472, Note_on_c, 1, 45, 0
3, 2472, Note_on_c, 1, 57, 48
3, 2496, Note_on_c, 1, 57, 0
3, 2496, Note_on_c, 1, 64, 45
3, 2520, Note_on_c, 1, 64, 0
3, 2520, Note_on_c, 1, 50, 50
3, 2522, Control_c, 1, 64, 0
3, 2528, Control_c, 1, 64, 127
3, 2544, Note_on_c, 1, 50, 0
3, 2544, Note_on_c, 1, 57, 45
3, 2568, Note_on_c, 1, 57, 0
3, 2568, Note_on_c, 1, 65, 48
3, 2590, Note_on_c, 1, 65, 0
3, 2592, Note_on_c, 1, 40, 55
3, 2592, Control_c, 1, 64, 127
3, 2594, Control_c, 1, 64, 0
3, 2600, Control_c, 1, 64, 127
3, 2616, Note_on_c, 1, 40, 0
3, 2616, Note_on_c, 1, 52, 52
3, 2640, Note_on_c, 1, 52, 0
3, 2640, Note_on_c, 1, 64, 60
3, 2664, Note_on_c, 1, 64, 0
3, 2664, Note_on_c, 1, 54, 48
3, 2666, Control_c, 1, 64, 0
3, 2688, Note_on_c, 1, 54, 0
3, 2688, Note_on_c, 1, 52, 45
3, 2712, Note_on_c, 1, 52, 0
3, 2712, Note_on_c, 1, 56, 40
3, 2734, Note_on_c, 1, 56, 0
3, 2736, Note_on_c, 1, 45, 40
3, 2736, Control_c, 1, 64, 0
3, 2744, Control_c, 1, 64, 127
3, 2760, Note_on_c, 1, 45, 0
3, 2760, Note_on_c, 1, 57, 43
3, 2784, Note_on_c, 1, 57, 0
3, 2784, Note_on_c, 1, 64, 40
3, 2808, Note_on_c, 1, 64, 0
3, 2808, Note_on_c, 1, 50, 45
3, 2810, Control_c, 1, 64, 0
3, 2816, Control_c, 1, 64, 127
3, 2832, Note_on_c, 1, 50, 0
3, 2832, Note_on_c, 1, 57, 40
3, 2856, Note_on_c, 1, 57, 0
3, 2856, Note_on_c, 1, 65, 38
3, 2878, Note_on_c, 1, 65, 0
3, 2880, Note_on_c, 1, 40, 50
3, 2880, Control_c, 1, 64, 127
3, 2882, Control_c, 1, 64, 0
3, 2888, Control_c, 1, 64, 127
3, 2904, Note_on_c, 1, 40, 0
3, 2904, Note_on_c, 1, 52, 38
3, 2928, Note_on_c, 1, 52, 0
3, 2928, Note_on_c, 1, 64, 48
3, 2952, Note_on_c, 1, 64, 0
3, 2952, Note_on_c, 1, 54, 48
3, 2954, Control_c, 1, 64, 0
3, 2976, Note_on_c, 1, 54, 0
3, 2976, Note_on_c, 1, 52, 38
3, 3000, Note_on_c, 1, 52, 0
3, 3000, Note_on_c, 1, 56, 36
3, 3022, Note_on_c, 1, 56, 0
3, 3024, Note_on_c, 1, 45, 43
3, 3024, Control_c, 1, 64, 0
3, 3032, Control_c, 1, 64, 127
3, 3048, Note_on_c, 1, 45, 0
3, 3048, Note_on_c, 1, 52, 50
3, 3072, Note_on_c, 1, 52, 0
3, 3072, Note_on_c, 1, 57, 48
3, 3096, Note_on_c, 1, 57, 0
3, 3096, Note_on_c, 1, 52, 50
3, 3120, Note_on_c, 1, 52, 0
3, 3120, Note_on_c, 1, 45, 55
3, 3134, Control_c, 1, 64, 0
3, 3144, Note_on_c, 1, 45, 0
3, 3144, Note_on_c, 1, 38, 50
3, 3166, Note_on_c, 1, 38, 0
3, 3168, Note_on_c, 1, 43, 57
3, 3168, Control_c, 1, 64, 0
3, 3176, Control_c, 1, 64, 127
3, 3192, Note_on_c, 1, 43, 0
3, 3192, Note_on_c, 1, 50, 60
3, 3216, Note_on_c, 1, 50, 0
3, 3216, Note_on_c, 1, 55, 60
3, 3240, Note_on_c, 1, 55, 0
3, 3240, Note_on_c, 1, 50, 50
3, 3254, Control_c, 1, 64, 0
3, 3264, Note_on_c, 1, 50, 0
3, 3264, Note_on_c, 1, 43, 45
3, 3288, Note_on_c, 1, 43, 0
3, 3288, Note_on_c, 1, 36, 38
3, 3310, Note_on_c, 1, 36, 0
3, 3312, Note_on_c, 1, 41, 45
3, 3312, Control_c, 1, 64, 127
3, 3314, Control_c, 1, 64, 0
3, 3320, Control_c, 1, 64, 127
3, 3336, Note_on_c, 1, 41, 0
3, 3336, Note_on_c, 1, 53, 48
3, 3360, Note_on_c, 1, 53, 0
3, 3360, Note_on_c, 1, 60, 50
3, 3384, Note_on_c, 1, 60, 0
3, 3384, Note_on_c, 1, 46, 50
3, 3398, Control_c, 1, 64, 0
3, 3408, Note_on_c, 1, 46, 0
3, 3408, Note_on_c, 1, 53, 48
3, 3416, Control_c, 1, 64, 127
3, 3432, Note_on_c, 1, 53, 0
3, 3432, Note_on_c, 1, 61, 43
3, 3454, Note_on_c, 1, 61, 0
3, 3456, Note_on_c, 1, 36, 55
3, 3456, Control_c, 1, 64, 127
3, 3458, Control_c, 1, 64, 0
3, 3464, Control_c, 1, 64, 127
3, 3480, Note_on_c, 1, 36, 0
3, 3480, Note_on_c, 1, 48, 48
3, 3504, Note_on_c, 1, 48, 0
3, 3504, Note_on_c, 1, 60, 55
3, 3528, Note_on_c, 1, 60, 0
3, 3528, Note_on_c, 1, 50, 45
3, 3530, Control_c, 1, 64, 0
3, 3552, Note_on_c, 1, 50, 0
3, 3552, Note_on_c, 1, 48, 40
3, 3576, Note_on_c, 1, 48, 0
3, 3576, Note_on_c, 1, 52, 36
3, 3598, Note_on_c, 1, 52, 0
3, 3600, Note_on_c, 1, 41, 45
3, 3600, Control_c, 1, 64, 0
3, 3608, Control_c, 1, 64, 127
3, 3624, Note_on_c, 1, 41, 0
3, 3624, Note_on_c, 1, 53, 43
3, 3648, Note_on_c, 1, 53, 0
3, 3648, Note_on_c, 1, 60, 45
3, 3672, Note_on_c, 1, 60, 0
3, 3672, Note_on_c, 1, 46, 50
3, 3674, Control_c, 1, 64, 0
3, 3680, Control_c, 1, 64, 127
3, 3696, Note_on_c, 1, 46, 0
3, 3696, Note_on_c, 1, 56, 45
3, 3720, Note_on_c, 1, 56, 0
3, 3720, Note_on_c, 1, 34, 45
3, 3744, Control_c, 1, 64, 127
3, 3768, Note_on_c, 1, 34, 0
3, 3768, Note_on_c, 1, 33, 54
3, 3770, Control_c, 1, 64, 0
3, 3776, Control_c, 1, 64, 127
3, 3792, Note_on_c, 1, 33, 0
3, 3792, Note_on_c, 1, 54, 62
3, 3814, Note_on_c, 1, 54, 0
3, 3816, Note_on_c, 1, 51, 52
3, 3838, Note_on_c, 1, 51, 0
3, 3840, Note_on_c, 1, 44, 55
3, 3842, Control_c, 1, 64, 0
3, 3848, Control_c, 1, 64, 127
3, 3862, Note_on_c, 1, 44, 0
3, 3864, Note_on_c, 1, 32, 57
3, 3888, Control_c, 1, 64, 127
3, 3912, Note_on_c, 1, 32, 0
3, 3912, Note_on_c, 1, 31, 50
3, 3914, Control_c, 1, 64, 0
3, 3920, Control_c, 1, 64, 127
3, 3934, Note_on_c, 1, 31, 0
3, 3936, Note_on_c, 1, 52, 52
3, 3958, Note_on_c, 1, 52, 0
3, 3960, Note_on_c, 1, 49, 43
3, 3982, Note_on_c, 1, 49, 0
3, 3984, Note_on_c, 1, 42, 48
3, 3986, Control_c, 1, 64, 0
3, 3992, Control_c, 1, 64, 127
3, 4006, Note_on_c, 1, 42, 0
3, 4008, Note_on_c, 1, 30, 45
3, 4010, Control_c, 1, 64, 0
3, 4022, Control_c, 1, 64, 127
3, 4030, Note_on_c, 1, 30, 0
3, 4032, Note_on_c, 1, 40, 60
3, 4032, Control_c, 1, 64, 0
3, 4040, Control_c, 1, 64, 127
3, 4176, Control_c, 1, 64, 127
3, 4178, Control_c, 1, 64, 0
3, 4184, Control_c, 1, 64, 127
3, 4308, Note_on_c, 1, 40, 0
3, 4320, Note_on_c, 1, 38, 62
3, 4320, Control_c, 1, 64, 127
3, 4322, Control_c, 1, 64, 0
3, 4328, Control_c, 1, 64, 127
3, 4452, Note_on_c, 1, 38, 0
3, 4464, Note_on_c, 1, 36, 64
3, 4464, Control_c, 1, 64, 127
3, 4466, Control_c, 1, 64, 0
3, 4472, Control_c, 1, 64, 127
3, 4596, Note_on_c, 1, 36, 0
3, 4608, Note_on_c, 1, 48, 55
3, 4608, Note_on_c, 1, 57, 60
3, 4608, Control_c, 1, 64, 127
3, 4610, Control_c, 1, 64, 0
3, 4616, Control_c, 1, 64, 127
3, 4682, Control_c, 1, 64, 0
3, 4688, Control_c, 1, 64, 127
3, 4752, Note_on_c, 1, 57, 0
3, 4752, Note_on_c, 1, 55, 55
3, 4752, Control_c, 1, 64, 127
3, 4754, Control_c, 1, 64, 0
3, 4760, Control_c, 1, 64, 127
3, 4846, Note_on_c, 1, 55, 0
3, 4846, Note_on_c, 1, 48, 0
3, 4896, Note_on_c, 1, 31, 52
3, 4896, Note_on_c, 1, 43, 52
3, 4896, Control_c, 1, 64, 127
3, 4898, Control_c, 1, 64, 0
3, 4904, Control_c, 1, 64, 127
3, 5028, Note_on_c, 1, 43, 0
3, 5028, Note_on_c, 1, 31, 0
3, 5040, Note_on_c, 1, 36, 50
3, 5040, Note_on_c, 1, 48, 50
3, 5040, Control_c, 1, 64, 127
3, 5042, Control_c, 1, 64, 0
3, 5048, Control_c, 1, 64, 127
3, 5172, Note_on_c, 1, 48, 0
3, 5172, Note_on_c, 1, 36, 0
3, 5184, Note_on_c, 1, 45, 52
3, 5184, Note_on_c, 1, 52, 55
3, 5184, Control_c, 1, 64, 127
3, 5186, Control_c, 1, 64, 0
3, 5192, Control_c, 1, 64, 127
3, 5258, Control_c, 1, 64, 0
3, 5264, Control_c, 1, 64, 127
3, 5316, Note_on_c, 1, 52, 0
3, 5316, Note_on_c, 1, 45, 0
3, 5328, Note_on_c, 1, 40, 36
3, 5328, Note_on_c, 1, 52, 36
3, 5328, Control_c, 1, 64, 127
3, 5330, Control_c, 1, 64, 0
3, 5336, Control_c, 1, 64, 127
3, 5422, Note_on_c, 1, 52, 0
3, 5422, Note_on_c, 1, 40, 0
3, 5472, Note_on_c, 1, 35, 40
3, 5472, Note_on_c, 1, 47, 40
3, 5472, Control_c, 1, 64, 127
3, 5474, Control_c, 1, 64, 0
3, 5480, Control_c, 1, 64, 127
3, 5604, Note_on_c, 1, 47, 0
3, 5604, Note_on_c, 1, 35, 0
3, 5616, Note_on_c, 1, 40, 48
3, 5616, Note_on_c, 1, 52, 48
3, 5616, Control_c, 1, 64, 127
3, 5618, Control_c, 1, 64, 0
3, 5624, Control_c, 1, 64, 127
3, 5748, Note_on_c, 1, 52, 0
3, 5748, Note_on_c, 1, 40, 0
3, 5760, Note_on_c, 1, 52, 40
3, 5760, Note_on_c, 1, 61, 45
3, 5760, Control_c, 1, 64, 127
3, 5762, Control_c, 1, 64, 0
3, 5768, Control_c, 1, 64, 127
3, 5834, Control_c, 1, 64, 0
3, 5840, Control_c, 1, 64, 127
3, 5904, Note_on_c, 1, 61, 0
3, 5904, Note_on_c, 1, 59, 36
3, 5904, Control_c, 1, 64, 127
3, 5906, Control_c, 1, 64, 0
3, 5912, Control_c, 1, 64, 127
3, 5998, Note_on_c, 1, 59, 0
3, 5998, Note_on_c, 1, 52, 0
3, 6048, Note_on_c, 1, 35, 43
3, 6048, Note_on_c, 1, 47, 43
3, 6048, Control_c, 1, 64, 127
3, 6050, Control_c, 1, 64, 0
3, 6056, Control_c, 1, 64, 127
3, 6180, Note_on_c, 1, 47, 0
3, 6180, Note_on_c, 1, 35, 0
3, 6192, Note_on_c, 1, 40, 55
3, 6192, Note_on_c, 1, 52, 55
3, 6192, Control_c, 1, 64, 127
3, 6194, Control_c, 1, 64, 0
3, 6200, Control_c, 1, 64, 127
3, 6324, Note_on_c, 1, 52, 0
3, 6324, Note_on_c, 1, 40, 0
3, 6336, Note_on_c, 1, 42, 60
3, 6336, Note_on_c, 1, 54, 60
3, 6336, Control_c, 1, 64, 127
3, 6338, Control_c, 1, 64, 0
3, 6344, Control_c, 1, 64, 127
3, 6458, Control_c, 1, 64, 0
3, 6464, Control_c, 1, 64, 127
3, 6468, Note_on_c, 1, 54, 0
3, 6468, Note_on_c, 1, 42, 0
3, 6480, Note_on_c, 1, 41, 38
3, 6480, Note_on_c, 1, 53, 38
3, 6480, Control_c, 1, 64, 127
3, 6482, Control_c, 1, 64, 0
3, 6488, Control_c, 1, 64, 127
3, 6528, Note_on_c, 1, 41, 0
3, 6552, Note_on_c, 1, 61, 50
3, 6554, Control_c, 1, 64, 0
3, 6560, Control_c, 1, 64, 127
3, 6600, Note_on_c, 1, 61, 0
3, 6600, Note_on_c, 1, 62, 52
3, 6612, Note_on_c, 1, 53, 0
3, 6616, Note_on_c, 1, 62, 0
3, 6624, Note_on_c, 1, 42, 48
3, 6624, Note_on_c, 1, 54, 48
3, 6624, Note_on_c, 1, 62, 52
3, 6624, Control_c, 1, 64, 127
3, 6626, Control_c, 1, 64, 0
3, 6632, Control_c, 1, 64, 127
3, 6672, Note_on_c, 1, 62, 0
3, 6672, Note_on_c, 1, 42, 0
3, 6672, Note_on_c, 1, 61, 50
3, 6688, Note_on_c, 1, 61, 0
3, 6696, Note_on_c, 1, 61, 62
3, 6698, Control_c, 1, 64, 0
3, 6704, Control_c, 1, 64, 127
3, 6744, Note_on_c, 1, 61, 0
3, 6744, Note_on_c, 1, 66, 55
3, 6756, Note_on_c, 1, 54, 0
3, 6760, Note_on_c, 1, 66, 0
3, 6768, Note_on_c, 1, 56, 45
3, 6768, Note_on_c, 1, 59, 48
3, 6768, Note_on_c, 1, 61, 50
3, 6768, Note_on_c, 1, 66, 55
3, 6768, Control_c, 1, 64, 127
3, 6770, Control_c, 1, 64, 0
3, 6776, Control_c, 1, 64, 127
3, 6816, Note_on_c, 1, 66, 0
3, 6816, Note_on_c, 1, 65, 45
3, 6832, Note_on_c, 1, 65, 0
3, 6840, Note_on_c, 1, 65, 55
3, 6842, Control_c, 1, 64, 0
3, 6848, Control_c, 1, 64, 127
3, 6888, Note_on_c, 1, 65, 0
3, 6888, Note_on_c, 1, 62, 52
3, 6900, Note_on_c, 1, 56, 0
3, 6900, Note_on_c, 1, 61, 0
3, 6900, Note_on_c, 1, 59, 0
3, 6904, Note_on_c, 1, 62, 0
3, 6912, Note_on_c, 1, 57, 50
3, 6912, Note_on_c, 1, 62, 57
3, 6912, Control_c, 1, 64, 127
3, 6914, Control_c, 1, 64, 0
3, 6920, Control_c, 1, 64, 127
3, 6960, Note_on_c, 1, 62, 0
3, 6960, Note_on_c, 1, 61, 55
3, 6976, Note_on_c, 1, 61, 0
3, 6984, Note_on_c, 1, 61, 63
3, 6986, Control_c, 1, 64, 0
3, 6992, Control_c, 1, 64, 127
3, 7032, Note_on_c, 1, 61, 0
3, 7032, Note_on_c, 1, 62, 64
3, 7044, Note_on_c, 1, 57, 0
3, 7048, Note_on_c, 1, 62, 0
3, 7056, Note_on_c, 1, 43, 60
3, 7056, Note_on_c, 1, 55, 57
3, 7056, Control_c, 1, 64, 127
3, 7058, Control_c, 1, 64, 0
3, 7064, Control_c, 1, 64, 127
3, 7104, Note_on_c, 1, 43, 0
3, 7128, Note_on_c, 1, 63, 72
3, 7130, Control_c, 1, 64, 0
3, 7136, Control_c, 1, 64, 127
3, 7176, Note_on_c, 1, 63, 0
3, 7176, Note_on_c, 1, 64, 69
3, 7188, Note_on_c, 1, 55, 0
3, 7192, Note_on_c, 1, 64, 0
3, 7200, Note_on_c, 1, 44, 62
3, 7200, Note_on_c, 1, 56, 62
3, 7200, Control_c, 1, 64, 127
3, 7202, Control_c, 1, 64, 0
3, 7208, Control_c, 1, 64, 127
3, 7248, Note_on_c, 1, 44, 0
3, 7248, Note_on_c, 1, 63, 74
3, 7264, Note_on_c, 1, 63, 0
3, 7272, Note_on_c, 1, 63, 75
3, 7274, Control_c, 1, 64, 0
3, 7280, Control_c, 1, 64, 127
3, 7320, Note_on_c, 1, 63, 0
3, 7320, Note_on_c, 1, 68, 84
3, 7332, Note_on_c, 1, 56, 0
3, 7336, Note_on_c, 1, 68, 0
3, 7344, Note_on_c, 1, 58, 76
3, 7344, Note_on_c, 1, 61, 81
3, 7344, Note_on_c, 1, 68, 84
3, 7344, Control_c, 1, 64, 127
3, 7346, Control_c, 1, 64, 0
3, 7352, Control_c, 1, 64, 127
3, 7392, Note_on_c, 1, 68, 0
3, 7392, Note_on_c, 1, 67, 69
3, 7408, Note_on_c, 1, 67, 0
3, 7416, Note_on_c, 1, 67, 67
3, 7418, Control_c, 1, 64, 0
3, 7424, Control_c, 1, 64, 127
3, 7464, Note_on_c, 1, 67, 0
3, 7464, Note_on_c, 1, 66, 60
3, 7480, Note_on_c, 1, 66, 0
3, 7488, Note_on_c, 1, 66, 57
3, 7488, Control_c, 1, 64, 127
3, 7490, Control_c, 1, 64, 0
3, 7496, Control_c, 1, 64, 127
3, 7536, Note_on_c, 1, 66, 0
3, 7536, Note_on_c, 1, 65, 52
3, 7552, Note_on_c, 1, 65, 0
3, 7560, Note_on_c, 1, 65, 51
3, 7562, Control_c, 1, 64, 0
3, 7568, Control_c, 1, 64, 127
3, 7608, Note_on_c, 1, 65, 0
3, 7608, Note_on_c, 1, 64, 45
3, 7620, Note_on_c, 1, 61, 0
3, 7620, Note_on_c, 1, 58, 0
3, 7632, Note_on_c, 1, 64, 0
3, 7632, Note_on_c, 1, 57, 36
3, 7632, Note_on_c, 1, 60, 40
3, 7632, Note_on_c, 1, 65, 45
3, 7632, Control_c, 1, 64, 127
3, 7634, Control_c, 1, 64, 0
3, 7640, Control_c, 1, 64, 127
3, 7698, Note_on_c, 1, 65, 0
3, 7698, Note_on_c, 1, 60, 0
3, 7698, Note_on_c, 1, 57, 0
3, 7776, Note_on_c, 1, 29, 45
3, 7776, Note_on_c, 1, 41, 45
3, 7776, Control_c, 1, 64, 127
3, 7778, Control_c, 1, 64, 0
3, 7784, Control_c, 1, 64, 127
3, 7908, Note_on_c, 1, 41, 0
3, 7908, Note_on_c, 1, 29, 0
3, 7920, Note_on_c, 1, 34, 43
3, 7920, Note_on_c, 1, 46, 43
3, 7920, Control_c, 1, 64, 127
3, 7922, Control_c, 1, 64, 0
3, 7928, Control_c, 1, 64, 127
3, 8052, Note_on_c, 1, 46, 0
3, 8052, Note_on_c, 1, 34, 0
3, 8064, Note_on_c, 1, 46, 45
3, 8064, Note_on_c, 1, 55, 48
3, 8064, Control_c, 1, 64, 127
3, 8066, Control_c, 1, 64, 0
3, 8072, Control_c, 1, 64, 127
3, 8138, Control_c, 1, 64, 0
3, 8144, Control_c, 1, 64, 127
3, 8208, Note_on_c, 1, 55, 0
3, 8208, Note_on_c, 1, 53, 36
3, 8208, Control_c, 1, 64, 127
3, 8210, Control_c, 1, 64, 0
3, 8216, Control_c, 1, 64, 127
3, 8302, Note_on_c, 1, 53, 0
3, 8302, Note_on_c, 1, 46, 0
3, 8352, Note_on_c, 1, 29, 48
3, 8352, Note_on_c, 1, 41, 48
3, 8352, Control_c, 1, 64, 127
3, 8354, Control_c, 1, 64, 0
3, 8360, Control_c, 1, 64, 127
3, 8484, Note_on_c, 1, 41, 0
3, 8484, Note_on_c, 1, 29, 0
3, 8496, Note_on_c, 1, 34, 45
3, 8496, Note_on_c, 1, 46, 45
3, 8496, Control_c, 1, 64, 127
3, 8498, Control_c, 1, 64, 0
3, 8504, Control_c, 1, 64, 127
3, 8628, Note_on_c, 1, 46, 0
3, 8628, Note_on_c, 1, 34, 0
3, 8640, Note_on_c, 1, 43, 48
3, 8640, Note_on_c, 1, 50, 48
3, 8640, Note_on_c, 1, 55, 50
3, 8640, Control_c, 1, 64, 127
3, 8642, Control_c, 1, 64, 0
3, 8648, Control_c, 1, 64, 127
3, 8714, Control_c, 1, 64, 0
3, 8720, Control_c, 1, 64, 127
3, 8772, Note_on_c, 1, 55, 0
3, 8772, Note_on_c, 1, 50, 0
3, 8772, Note_on_c, 1, 43, 0
3, 8784, Note_on_c, 1, 38, 40
3, 8784, Note_on_c, 1, 50, 40
3, 8784, Control_c, 1, 64, 127
3, 8786, Control_c, 1, 64, 0
3, 8792, Control_c, 1, 64, 127
3, 8916, Note_on_c, 1, 50, 0
3, 8916, Note_on_c, 1, 38, 0
3, 8928, Note_on_c, 1, 33, 40
3, 8928, Note_on_c, 1, 45, 40
3, 8928, Control_c, 1, 64, 127
3, 8930, Control_c, 1, 64, 0
3, 8936, Control_c, 1, 64, 127
3, 9060, Note_on_c, 1, 45, 0
3, 9060, Note_on_c, 1, 33, 0
3, 9072, Note_on_c, 1, 38, 45
3, 9072, Note_on_c, 1, 50, 45
3, 9072, Control_c, 1, 64, 127
3, 9074, Control_c, 1, 64, 0
3, 9080, Control_c, 1, 64, 127
3, 9204, Note_on_c, 1, 50, 0
3, 9204, Note_on_c, 1, 38, 0
3, 9216, Note_on_c, 1, 50, 40
3, 9216, Note_on_c, 1, 59, 45
3, 9216, Control_c, 1, 64, 127
3, 9218, Control_c, 1, 64, 0
3, 9224, Control_c, 1, 64, 127
3, 9290, Control_c, 1, 64, 0
3, 9296, Control_c, 1, 64, 127
3, 9360, Note_on_c, 1, 59, 0
3, 9360, Note_on_c, 1, 57, 36
3, 9360, Control_c, 1, 64, 127
3, 9362, Control_c, 1, 64, 0
3, 9368, Control_c, 1, 64, 127
3, 9454, Note_on_c, 1, 57, 0
3, 9454, Note_on_c, 1, 50, 0
3, 9504, Note_on_c, 1, 33, 43
3, 9504, Note_on_c, 1, 45, 43
3, 9504, Control_c, 1, 64, 127
3, 9506, Control_c, 1, 64, 0
3, 9512, Control_c, 1, 64, 127
3, 9636, Note_on_c, 1, 45, 0
3, 9636, Note_on_c, 1, 33, 0
3, 9648, Note_on_c, 1, 38, 55
3, 9648, Note_on_c, 1, 50, 55
3, 9648, Control_c, 1, 64, 127
3, 9650, Control_c, 1, 64, 0
3, 9656, Control_c, 1, 64, 127
3, 9780, Note_on_c, 1, 50, 0
3, 9780, Note_on_c, 1, 38, 0
3, 9792, Note_on_c, 1, 40, 60
3, 9792, Note_on_c, 1, 52, 60
3, 9792, Control_c, 1, 64, 127
3, 9794, Control_c, 1, 64, 0
3, 9800, Control_c, 1, 64, 127
3, 9914, Control_c, 1, 64, 0
3, 9920, Control_c, 1, 64, 127
3, 9924, Note_on_c, 1, 52, 0
3, 9924, Note_on_c, 1, 40, 0
3, 9936, Note_on_c, 1, 38, 57
3, 9936, Control_c, 1, 64, 127
3, 9960, Note_on_c, 1, 38, 0
3, 9960, Note_on_c, 1, 50, 52
3, 9984, Note_on_c, 1, 50, 0
3, 9984, Note_on_c, 1, 59, 60
3, 10008, Note_on_c, 1, 59, 0
3, 10008, Note_on_c, 1, 60, 55
3, 10010, Control_c, 1, 64, 0
3, 10032, Note_on_c, 1, 60, 0
3, 10032, Note_on_c, 1, 59, 52
3, 10040, Control_c, 1, 64, 127
3, 10056, Note_on_c, 1, 59, 0
3, 10056, Note_on_c, 1, 50, 48
3, 10078, Note_on_c, 1, 50, 0
3, 10080, Note_on_c, 1, 38, 55
3, 10080, Control_c, 1, 64, 127
3, 10082, Control_c, 1, 64, 0
3, 10088, Control_c, 1, 64, 127
3, 10104, Note_on_c, 1, 38, 0
3, 10104, Note_on_c, 1, 50, 50
3, 10128, Note_on_c, 1, 50, 0
3, 10128, Note_on_c, 1, 59, 57
3, 10152, Note_on_c, 1, 59, 0
3, 10152, Note_on_c, 1, 60, 55
3, 10154, Control_c, 1, 64, 0
3, 10176, Note_on_c, 1, 60, 0
3, 10176, Note_on_c, 1, 59, 52
3, 10184, Control_c, 1, 64, 127
3, 10200, Note_on_c, 1, 59, 0
3, 10200, Note_on_c, 1, 50, 50
3, 10222, Note_on_c, 1, 50, 0
3, 10224, Note_on_c, 1, 38, 55
3, 10224, Control_c, 1, 64, 127
3, 10226, Control_c, 1, 64, 0
3, 10232, Control_c, 1, 64, 127
3, 10248, Note_on_c, 1, 38, 0
3, 10248, Note_on_c, 1, 50, 50
3, 10272, Note_on_c, 1, 50, 0
3, 10272, Note_on_c, 1, 59, 57
3, 10296, Note_on_c, 1, 59, 0
3, 10296, Note_on_c, 1, 62, 55
3, 10298, Control_c, 1, 64, 0
3, 10320, Note_on_c, 1, 62, 0
3, 10320, Note_on_c, 1, 59, 52
3, 10328, Control_c, 1, 64, 127
3, 10344, Note_on_c, 1, 59, 0
3, 10344, Note_on_c, 1, 50, 50
3, 10366, Note_on_c, 1, 50, 0
3, 10368, Note_on_c, 1, 38, 52
3, 10368, Control_c, 1, 64, 127
3, 10370, Control_c, 1, 64, 0
3, 10376, Control_c, 1, 64, 127
3, 10392, Note_on_c, 1, 38, 0
3, 10392, Note_on_c, 1, 50, 48
3, 10416, Note_on_c, 1, 50, 0
3, 10416, Note_on_c, 1, 60, 55
3, 10440, Note_on_c, 1, 60, 0
3, 10440, Note_on_c, 1, 64, 57
3, 10442, Control_c, 1, 64, 0
3, 10464, Note_on_c, 1, 64, 0
3, 10464, Note_on_c, 1, 62, 50
3, 10472, Control_c, 1, 64, 127
3, 10488, Note_on_c, 1, 62, 0
3, 10488, Note_on_c, 1, 50, 45
3, 10510, Note_on_c, 1, 50, 0
3, 10512, Note_on_c, 1, 38, 52
3, 10512, Control_c, 1, 64, 127
3, 10514, Control_c, 1, 64, 0
3, 10520, Control_c, 1, 64, 127
3, 10536, Note_on_c, 1, 38, 0
3, 10536, Note_on_c, 1, 50, 48
3, 10560, Note_on_c, 1, 50, 0
3, 10560, Note_on_c, 1, 60, 55
3, 10584, Note_on_c, 1, 60, 0
3, 10584, Note_on_c, 1, 64, 50
3, 10586, Control_c, 1, 64, 0
3, 10608, Note_on_c, 1, 64, 0
3, 10608, Note_on_c, 1, 62, 48
3, 10616, Control_c, 1, 64, 127
3, 10632, Note_on_c, 1, 62, 0
3, 10632, Note_on_c, 1, 50, 45
3, 10654, Note_on_c, 1, 50, 0
3, 10656, Note_on_c, 1, 38, 50
3, 10656, Control_c, 1, 64, 127
3, 10658, Control_c, 1, 64, 0
3, 10664, Control_c, 1, 64, 127
3, 10680, Note_on_c, 1, 38, 0
3, 10680, Note_on_c, 1, 50, 48
3, 10704, Note_on_c, 1, 50, 0
3, 10704, Note_on_c, 1, 64, 52
3, 10728, Note_on_c, 1, 64, 0
3, 10728, Note_on_c, 1, 60, 52
3, 10730, Control_c, 1, 64, 0
3, 10752, Note_on_c, 1, 60, 0
3, 10752, Note_on_c, 1, 50, 50
3, 10760, Control_c, 1, 64, 127
3, 10776, Note_on_c, 1, 50, 0
3, 10776, Note_on_c, 1, 38, 48
3, 10798, Note_on_c, 1, 38, 0
3, 10800, Note_on_c, 1, 43, 43
3, 10800, Control_c, 1, 64, 127
3, 10802, Control_c, 1, 64, 0
3, 10808, Control_c, 1, 64, 127
3, 10824, Note_on_c, 1, 43, 0
3, 10824, Note_on_c, 1, 50, 43
3, 10848, Note_on_c, 1, 50, 0
3, 10848, Note_on_c, 1, 62, 55
3, 10872, Note_on_c, 1, 62, 0
3, 10872, Note_on_c, 1, 61, 50
3, 10874, Control_c, 1, 64, 0
3, 10896, Note_on_c, 1, 61, 0
3, 10896, Note_on_c, 1, 60, 48
3, 10904, Control_c, 1, 64, 127
3, 10920, Note_on_c, 1, 60, 0
3, 10920, Note_on_c, 1, 53, 40
3, 10922, Control_c, 1, 64, 0
3, 10928, Control_c, 1, 64, 127
3, 10942, Note_on_c, 1, 53, 0
3, 10944, Note_on_c, 1, 46, 43
3, 10944, Control_c, 1, 64, 127
3, 10946, Control_c, 1, 64, 0
3, 10952, Control_c, 1, 64, 127
3, 10968, Note_on_c, 1, 46, 0
3, 10968, Note_on_c, 1, 53, 43
3, 10992, Note_on_c, 1, 53, 0
3, 10992, Note_on_c, 1, 65, 50
3, 11016, Note_on_c, 1, 65, 0
3, 11016, Note_on_c, 1, 64, 48
3, 11018, Control_c, 1, 64, 0
3, 11040, Note_on_c, 1, 64, 0
3, 11040, Note_on_c, 1, 63, 45
3, 11048, Control_c, 1, 64, 127
3, 11064, Note_on_c, 1, 63, 0
3, 11064, Note_on_c, 1, 56, 38
3, 11066, Control_c, 1, 64, 0
3, 11072, Control_c, 1, 64, 127
3, 11086, Note_on_c, 1, 56, 0
3, 11088, Note_on_c, 1, 49, 43
3, 11088, Control_c, 1, 64, 127
3, 11090, Control_c, 1, 64, 0
3, 11096, Control_c, 1, 64, 127
3, 11112, Note_on_c, 1, 49, 0
3, 11112, Note_on_c, 1, 56, 43
3, 11136, Note_on_c, 1, 56, 0
3, 11136, Note_on_c, 1, 68, 48
3, 11160, Note_on_c, 1, 68, 0
3, 11160, Note_on_c, 1, 65, 43
3, 11174, Control_c, 1, 64, 0
3, 11184, Note_on_c, 1, 65, 0
3, 11184, Note_on_c, 1, 58, 48
3, 11192, Control_c, 1, 64, 127
3, 11208, Note_on_c, 1, 58, 0
3, 11208, Note_on_c, 1, 46, 43
3, 11230, Note_on_c, 1, 46, 0
3, 11232, Note_on_c, 1, 51, 45
3, 11232, Control_c, 1, 64, 127
3, 11234, Control_c, 1, 64, 0
3, 11240, Control_c, 1, 64, 127
3, 11256, Note_on_c, 1, 51, 0
3, 11256, Note_on_c, 1, 58, 50
3, 11280, Note_on_c, 1, 58, 0
3, 11280, Note_on_c, 1, 70, 60
3, 11304, Note_on_c, 1, 70, 0
3, 11304, Note_on_c, 1, 69, 57
3, 11306, Control_c, 1, 64, 0
3, 11328, Note_on_c, 1, 69, 0
3, 11328, Note_on_c, 1, 68, 50
3, 11336, Control_c, 1, 64, 127
3, 11352, Note_on_c, 1, 68, 0
3, 11352, Note_on_c, 1, 61, 38
3, 11354, Control_c, 1, 64, 0
3, 11360, Control_c, 1, 64, 127
3, 11374, Note_on_c, 1, 61, 0
3, 11376, Note_on_c, 1, 54, 50
3, 11376, Control_c, 1, 64, 127
3, 11378, Control_c, 1, 64, 0
3, 11384, Control_c, 1, 64, 127
3, 11400, Note_on_c, 1, 54, 0
3, 11400, Note_on_c, 1, 61, 55
3, 11424, Note_on_c, 1, 61, 0
3, 11424, Note_on_c, 1, 73, 62
3, 11448, Note_on_c, 1, 73, 0
3, 11448, Note_on_c, 1, 72, 60
3, 11450, Control_c, 1, 64, 0
3, 11472, Note_on_c, 1, 72, 0
3, 11472, Note_on_c, 1, 71, 52
3, 11480, Control_c, 1, 64, 127
3, 11496, Note_on_c, 1, 71, 0
3, 11496, Note_on_c, 1, 64, 55
3, 11498, Control_c, 1, 64, 0
3, 11504, Control_c, 1, 64, 127
3, 11518, Note_on_c, 1, 64, 0
3, 11520, Note_on_c, 1, 57, 52
3, 11520, Control_c, 1, 64, 127
3, 11522, Control_c, 1, 64, 0
3, 11528, Control_c, 1, 64, 127
3, 11544, Note_on_c, 1, 57, 0
3, 11544, Note_on_c, 1, 64, 55
3, 11568, Note_on_c, 1, 64, 0
3, 11568, Note_on_c, 1, 76, 57
3, 11592, Note_on_c, 1, 76, 0
3, 11592, Note_on_c, 1, 73, 62
3, 11606, Control_c, 1, 64, 0
3, 11616, Note_on_c, 1, 73, 0
3, 11616, Note_on_c, 1, 66, 45
3, 11624, Control_c, 1, 64, 127
3, 11640, Note_on_c, 1, 66, 0
3, 11640, Note_on_c, 1, 54, 50
3, 11662, Note_on_c, 1, 54, 0
3, 11664, Note_on_c, 1, 47, 48
3, 11664, Control_c, 1, 64, 127
3, 11666, Control_c, 1, 64, 0
3, 11672, Control_c, 1, 64, 127
3, 11688, Note_on_c, 1, 47, 0
3, 11688, Note_on_c, 1, 54, 45
3, 11712, Note_on_c, 1, 54, 0
3, 11712, Note_on_c, 1, 66, 48
3, 11736, Note_on_c, 1, 66, 0
3, 11736, Note_on_c, 1, 62, 43
3, 11738, Control_c, 1, 64, 0
3, 11744, Control_c, 1, 64, 127
3, 11760, Note_on_c, 1, 62, 0
3, 11760, Note_on_c, 1, 52, 42
3, 11784, Note_on_c, 1, 52, 0
3, 11784, Note_on_c, 1, 40, 52
3, 11808, Control_c, 1, 64, 127
3, 11832, Note_on_c, 1, 40, 0
3, 11832, Note_on_c, 1, 39, 55
3, 11834, Control_c, 1, 64, 0
3, 11840, Control_c, 1, 64, 127
3, 11854, Note_on_c, 1, 39, 0
3, 11856, Note_on_c, 1, 55, 62
3, 11880, Note_on_c, 1, 55, 0
3, 11880, Note_on_c, 1, 54, 55
3, 11904, Note_on_c, 1, 54, 0
3, 11904, Note_on_c, 1, 45, 62
3, 11906, Control_c, 1, 64, 0
3, 11912, Control_c, 1, 64, 127
3, 11928, Note_on_c, 1, 45, 0
3, 11928, Note_on_c, 1, 38, 57
3, 11952, Control_c, 1, 64, 127
3, 11974, Note_on_c, 1, 38, 0
3, 11976, Note_on_c, 1, 37, 48
3, 11978, Control_c, 1, 64, 0
3, 11984, Control_c, 1, 64, 127
3, 11998, Note_on_c, 1, 37, 0
3, 12000, Note_on_c, 1, 53, 55
3, 12022, Note_on_c, 1, 53, 0
3, 12024, Note_on_c, 1, 52, 50
3, 12046, Note_on_c, 1, 52, 0
3, 12048, Note_on_c, 1, 43, 45
3, 12050, Control_c, 1, 64, 0
3, 12056, Control_c, 1, 64, 127
3, 12070, Note_on_c, 1, 43, 0
3, 12072, Note_on_c, 1, 36, 45
3, 12096, Control_c, 1, 64, 127
3, 12118, Note_on_c, 1, 36, 0
3, 12120, Note_on_c, 1, 35, 52
3, 12122, Control_c, 1, 64, 0
3, 12128, Control_c, 1, 64, 127
3, 12142, Note_on_c, 1, 35, 0
3, 12144, Note_on_c, 1, 54, 57
3, 12166, Note_on_c, 1, 54, 0
3, 12170, Control_c, 1, 64, 0
3, 12176, Control_c, 1, 64, 127
3, 12240, Control_c, 1, 64, 127
3, 12242, Control_c, 1, 64, 0
3, 12248, Control_c, 1, 64, 127
3, 12288, Note_on_c, 1, 47, 62
3, 12312, Note_on_c, 1, 47, 0
3, 12384, Note_on_c, 1, 28, 43
3, 12384, Note_on_c, 1, 40, 43
3, 12384, Control_c, 1, 64, 127
3, 12386, Control_c, 1, 64, 0
3, 12392, Control_c, 1, 64, 127
3, 12516, Note_on_c, 1, 40, 0
3, 12516, Note_on_c, 1, 28, 0
3, 12528, Note_on_c, 1, 40, 55
3, 12528, Note_on_c, 1, 49, 60
3, 12528, Control_c, 1, 64, 127
3, 12530, Control_c, 1, 64, 0
3, 12536, Control_c, 1, 64, 127
3, 12602, Control_c, 1, 64, 0
3, 12608, Control_c, 1, 64, 127
3, 12672, Note_on_c, 1, 49, 0
3, 12672, Note_on_c, 1, 47, 55
3, 12672, Control_c, 1, 64, 127
3, 12674, Control_c, 1, 64, 0
3, 12680, Control_c, 1, 64, 127
3, 12766, Note_on_c, 1, 47, 0
3, 12766, Note_on_c, 1, 40, 0
3, 12816, Note_on_c, 1, 35, 52
3, 12816, Control_c, 1, 64, 127
3, 12818, Control_c, 1, 64, 0
3, 12824, Control_c, 1, 64, 127
3, 12948, Note_on_c, 1, 35, 0
3, 12960, Note_on_c, 1, 28, 50
3, 12960, Note_on_c, 1, 40, 50
3, 12960, Control_c, 1, 64, 127
3, 12962, Control_c, 1, 64, 0
3, 12968, Control_c, 1, 64, 127
3, 13092, Note_on_c, 1, 40, 0
3, 13092, Note_on_c, 1, 28, 0
3, 13104, Note_on_c, 1, 37, 55
3, 13104, Control_c, 1, 64, 127
3, 13106, Control_c, 1, 64, 0
3, 13110, Note_on_c, 1, 44, 50
3, 13112, Control_c, 1, 64, 127
3, 13178, Control_c, 1, 64, 0
3, 13184, Control_c, 1, 64, 127
3, 13236, Note_on_c, 1, 44, 0
3, 13236, Note_on_c, 1, 37, 0
3, 13248, Note_on_c, 1, 32, 36
3, 13248, Note_on_c, 1, 44, 36
3, 13248, Control_c, 1, 64, 127
3, 13250, Control_c, 1, 64, 0
3, 13256, Control_c, 1, 64, 127
3, 13342, Note_on_c, 1, 44, 0
3, 13342, Note_on_c, 1, 32, 0
3, 13392, Note_on_c, 1, 27, 40
3, 13392, Note_on_c, 1, 39, 40
3, 13392, Control_c, 1, 64, 127
3, 13394, Control_c, 1, 64, 0
3, 13400, Control_c, 1, 64, 127
3, 13524, Note_on_c, 1, 39, 0
3, 13524, Note_on_c, 1, 27, 0
3, 13536, Note_on_c, 1, 32, 48
3, 13536, Note_on_c, 1, 44, 48
3, 13536, Control_c, 1, 64, 127
3, 13538, Control_c, 1, 64, 0
3, 13544, Control_c, 1, 64, 127
3, 13668, Note_on_c, 1, 44, 0
3, 13668, Note_on_c, 1, 32, 0
3, 13680, Note_on_c, 1, 44, 40
3, 13680, Note_on_c, 1, 53, 45
3, 13680, Control_c, 1, 64, 127
3, 13682, Control_c, 1, 64, 0
3, 13688, Control_c, 1, 64, 127
3, 13754, Control_c, 1, 64, 0
3, 13760, Control_c, 1, 64, 127
3, 13824, Note_on_c, 1, 53, 0
3, 13824, Note_on_c, 1, 51, 40
3, 13824, Control_c, 1, 64, 127
3, 13826, Control_c, 1, 64, 0
3, 13832, Control_c, 1, 64, 127
3, 13918, Note_on_c, 1, 51, 0
3, 13918, Note_on_c, 1, 44, 0
3, 13968, Note_on_c, 1, 27, 50
3, 13968, Note_on_c, 1, 39, 50
3, 13968, Control_c, 1, 64, 127
3, 13970, Control_c, 1, 64, 0
3, 13976, Control_c, 1, 64, 127
3, 14100, Note_on_c, 1, 39, 0
3, 14100, Note_on_c, 1, 27, 0
3, 14112, Note_on_c, 1, 32, 55
3, 14112, Note_on_c, 1, 44, 55
3, 14112, Control_c, 1, 64, 127
3, 14114, Control_c, 1, 64, 0
3, 14120, Control_c, 1, 64, 127
3, 14244, Note_on_c, 1, 44, 0
3, 14244, Note_on_c, 1, 32, 0
3, 14256, Note_on_c, 1, 34, 60
3, 14256, Note_on_c, 1, 46, 60
3, 14256, Control_c, 1, 64, 127
3, 14258, Control_c, 1, 64, 0
3, 14264, Control_c, 1, 64, 127
3, 14378, Control_c, 1, 64, 0
3, 14384, Control_c, 1, 64, 127
3, 14388, Note_on_c, 1, 46, 0
3, 14388, Note_on_c, 1, 34, 0
3, 14400, Note_on_c, 1, 33, 40
3, 14400, Note_on_c, 1, 45, 40
3, 14400, Control_c, 1, 64, 127
3, 14402, Control_c, 1, 64, 0
3, 14408, Control_c, 1, 64, 127
3, 14448, Note_on_c, 1, 33, 0
3, 14472, Note_on_c, 1, 53, 52
3, 14474, Control_c, 1, 64, 0
3, 14480, Control_c, 1, 64, 127
3, 14520, Note_on_c, 1, 53, 0
3, 14520, Note_on_c, 1, 54, 55
3, 14532, Note_on_c, 1, 45, 0
3, 14536, Note_on_c, 1, 54, 0
3, 14544, Note_on_c, 1, 34, 50
3, 14544, Note_on_c, 1, 46, 50
3, 14544, Control_c, 1, 64, 127
3, 14546, Control_c, 1, 64, 0
3, 14552, Control_c, 1, 64, 127
3, 14592, Note_on_c, 1, 34, 0
3, 14592, Note_on_c, 1, 53, 52
3, 14608, Note_on_c, 1, 53, 0
3, 14616, Note_on_c, 1, 53, 64
3, 14618, Control_c, 1, 64, 0
3, 14624, Control_c, 1, 64, 127
3, 14664, Note_on_c, 1, 53, 0
3, 14664, Note_on_c, 1, 58, 57
3, 14676, Note_on_c, 1, 46, 0
3, 14680, Note_on_c, 1, 58, 0
3, 14688, Note_on_c, 1, 48, 48
3, 14688, Note_on_c, 1, 58, 57
3, 14688, Control_c, 1, 64, 127
3, 14690, Control_c, 1, 64, 0
3, 14696, Control_c, 1, 64, 127
3, 14736, Note_on_c, 1, 58, 0
3, 14736, Note_on_c, 1, 57, 48
3, 14752, Note_on_c, 1, 57, 0
3, 14760, Note_on_c, 1, 57, 57
3, 14762, Control_c, 1, 64, 0
3, 14768, Control_c, 1, 64, 127
3, 14808, Note_on_c, 1, 57, 0
3, 14808, Note_on_c, 1, 54, 55
3, 14820, Note_on_c, 1, 48, 0
3, 14824, Note_on_c, 1, 54, 0
3, 14832, Note_on_c, 1, 49, 52
3, 14832, Note_on_c, 1, 54, 60
3, 14832, Control_c, 1, 64, 127
3, 14834, Control_c, 1, 64, 0
3, 14840, Control_c, 1, 64, 127
3, 14880, Note_on_c, 1, 54, 0
3, 14880, Note_on_c, 1, 53, 57
3, 14896, Note_on_c, 1, 53, 0
3, 14904, Note_on_c, 1, 53, 66
3, 14906, Control_c, 1, 64, 0
3, 14912, Control_c, 1, 64, 127
3, 14952, Note_on_c, 1, 53, 0
3, 14952, Note_on_c, 1, 54, 67
3, 14964, Note_on_c, 1, 49, 0
3, 14968, Note_on_c, 1, 54, 0
3, 14976, Note_on_c, 1, 35, 55
3, 14976, Note_on_c, 1, 47, 55
3, 14976, Control_c, 1, 64, 127
3, 14978, Control_c, 1, 64, 0
3, 14984, Control_c, 1, 64, 127
3, 15042, Note_on_c, 1, 35, 0
3, 15048, Note_on_c, 1, 55, 69
3, 15050, Control_c, 1, 64, 0
3, 15056, Control_c, 1, 64, 127
3, 15096, Note_on_c, 1, 55, 0
3, 15096, Note_on_c, 1, 56, 67
3, 15108, Note_on_c, 1, 47, 0
3, 15112, Note_on_c, 1, 56, 0
3, 15120, Note_on_c, 1, 36, 60
3, 15120, Note_on_c, 1, 48, 60
3, 15120, Control_c, 1, 64, 127
3, 15122, Control_c, 1, 64, 0
3, 15128, Control_c, 1, 64, 127
3, 15168, Note_on_c, 1, 55, 72
3, 15184, Note_on_c, 1, 55, 0
3, 15186, Note_on_c, 1, 36, 0
3, 15192, Note_on_c, 1, 55, 73
3, 15194, Control_c, 1, 64, 0
3, 15200, Control_c, 1, 64, 127
3, 15240, Note_on_c, 1, 55, 0
3, 15240, Note_on_c, 1, 60, 81
3, 15252, Note_on_c, 1, 48, 0
3, 15256, Note_on_c, 1, 60, 0
3, 15264, Note_on_c, 1, 50, 74
3, 15264, Note_on_c, 1, 53, 79
3, 15264, Note_on_c, 1, 60, 81
3, 15264, Control_c, 1, 64, 127
3, 15266, Control_c, 1, 64, 0
3, 15272, Control_c, 1, 64, 127
3, 15312, Note_on_c, 1, 60, 0
3, 15312, Note_on_c, 1, 59, 67
3, 15328, Note_on_c, 1, 59, 0
3, 15336, Note_on_c, 1, 59, 64
3, 15338, Control_c, 1, 64, 0
3, 15344, Control_c, 1, 64, 127
3, 15384, Note_on_c, 1, 59, 0
3, 15384, Note_on_c, 1, 58, 57
3, 15400, Note_on_c, 1, 58, 0
3, 15408, Note_on_c, 1, 58, 55
3, 15408, Control_c, 1, 64, 127
3, 15410, Control_c, 1, 64, 0
3, 15416, Control_c, 1, 64, 127
3, 15456, Note_on_c, 1, 58, 0
3, 15456, Note_on_c, 1, 57, 50
3, 15472, Note_on_c, 1, 57, 0
3, 15480, Note_on_c, 1, 57, 49
3, 15482, Control_c, 1, 64, 0
3, 15488, Control_c, 1, 64, 127
3, 15528, Note_on_c, 1, 57, 0
3, 15528, Note_on_c, 1, 56, 43
3, 15540, Note_on_c, 1, 53, 0
3, 15540, Note_on_c, 1, 50, 0
3, 15544, Note_on_c, 1, 56, 0
3, 15552, Note_on_c, 1, 49, 40
3, 15552, Note_on_c, 1, 57, 43
3, 15552, Control_c, 1, 64, 127
3, 15554, Control_c, 1, 64, 0
3, 15560, Control_c, 1, 64, 127
3, 15618, Note_on_c, 1, 57, 0
3, 15618, Note_on_c, 1, 49, 0
3, 15696, Note_on_c, 1, 33, 45
3, 15696, Note_on_c, 1, 45, 45
3, 15696, Control_c, 1, 64, 127
3, 15698, Control_c, 1, 64, 0
3, 15704, Control_c, 1, 64, 127
3, 15828, Note_on_c, 1, 45, 0
3, 15828, Note_on_c, 1, 33, 0
3, 15840, Note_on_c, 1, 38, 43
3, 15840, Note_on_c, 1, 50, 43
3, 15840, Control_c, 1, 64, 127
3, 15842, Control_c, 1, 64, 0
3, 15848, Control_c, 1, 64, 127
3, 15972, Note_on_c, 1, 50, 0
3, 15972, Note_on_c, 1, 38, 0
3, 15984, Note_on_c, 1, 50, 45
3, 15984, Note_on_c, 1, 59, 48
3, 15984, Control_c, 1, 64, 127
3, 15986, Control_c, 1, 64, 0
3, 15992, Control_c, 1, 64, 127
3, 16058, Control_c, 1, 64, 0
3, 16064, Control_c, 1, 64, 127
3, 16128, Note_on_c, 1, 59, 0
3, 16128, Note_on_c, 1, 57, 36
3, 16128, Control_c, 1, 64, 127
3, 16130, Control_c, 1, 64, 0
3, 16136, Control_c, 1, 64, 127
3, 16222, Note_on_c, 1, 57, 0
3, 16222, Note_on_c, 1, 50, 0
3, 16272, Note_on_c, 1, 33, 48
3, 16272, Note_on_c, 1, 45, 48
3, 16272, Control_c, 1, 64, 127
3, 16274, Control_c, 1, 64, 0
3, 16280, Control_c, 1, 64, 127
3, 16404, Note_on_c, 1, 45, 0
3, 16404, Note_on_c, 1, 33, 0
3, 16416, Note_on_c, 1, 38, 45
3, 16416, Note_on_c, 1, 50, 45
3, 16416, Control_c, 1, 64, 127
3, 16418, Control_c, 1, 64, 0
3, 16424, Control_c, 1, 64, 127
3, 16548, Note_on_c, 1, 50, 0
3, 16548, Note_on_c, 1, 38, 0
3, 16560, Note_on_c, 1, 47, 48
3, 16560, Note_on_c, 1, 54, 48
3, 16560, Note_on_c, 1, 59, 50
3, 16560, Control_c, 1, 64, 127
3, 16562, Control_c, 1, 64, 0
3, 16568, Control_c, 1, 64, 127
3, 16634, Control_c, 1, 64, 0
3, 16640, Control_c, 1, 64, 127
3, 16692, Note_on_c, 1, 59, 0
3, 16692, Note_on_c, 1, 54, 0
3, 16692, Note_on_c, 1, 47, 0
3, 16704, Note_on_c, 1, 42, 40
3, 16704, Note_on_c, 1, 54, 40
3, 16704, Control_c, 1, 64, 127
3, 16706, Control_c, 1, 64, 0
3, 16712, Control_c, 1, 64, 127
3, 16836, Note_on_c, 1, 54, 0
3, 16836, Note_on_c, 1, 42, 0
3, 16848, Note_on_c, 1, 49, 45
3, 16848, Note_on_c, 1, 61, 62
3, 16848, Control_c, 1, 64, 127
3, 16850, Control_c, 1, 64, 0
3, 16856, Control_c, 1, 64, 127
3, 16888, Note_on_c, 1, 61, 0
3, 16920, Note_on_c, 1, 61, 63
3, 16968, Note_on_c, 1, 61, 0
3, 16968, Note_on_c, 1, 63, 64
3, 16980, Note_on_c, 1, 49, 0
3, 16984, Note_on_c, 1, 63, 0
3, 16992, Note_on_c, 1, 54, 52
3, 16992, Note_on_c, 1, 61, 64
3, 16992, Control_c, 1, 64, 127
3, 16994, Control_c, 1, 64, 0
3, 17000, Control_c, 1, 64, 127
3, 17032, Note_on_c, 1, 61, 0
3, 17064, Note_on_c, 1, 61, 69
3, 17104, Note_on_c, 1, 61, 0
3, 17112, Note_on_c, 1, 70, 72
3, 17124, Note_on_c, 1, 54, 0
3, 17128, Note_on_c, 1, 70, 0
3, 17136, Note_on_c, 1, 54, 55
3, 17136, Control_c, 1, 64, 127
3, 17138, Control_c, 1, 64, 0
3, 17142, Note_on_c, 1, 63, 52
3, 17144, Control_c, 1, 64, 127
3, 17184, Note_on_c, 1, 68, 62
3, 17200, Note_on_c, 1, 68, 0
3, 17208, Note_on_c, 1, 66, 57
3, 17248, Note_on_c, 1, 66, 0
3, 17248, Note_on_c, 1, 63, 0
3, 17256, Note_on_c, 1, 63, 54
3, 17268, Note_on_c, 1, 54, 0
3, 17272, Note_on_c, 1, 63, 0
3, 17280, Note_on_c, 1, 54, 43
3, 17280, Note_on_c, 1, 61, 50
3, 17280, Control_c, 1, 64, 127
3, 17282, Control_c, 1, 64, 0
3, 17288, Control_c, 1, 64, 127
3, 17346, Note_on_c, 1, 61, 0
3, 17352, Note_on_c, 1, 61, 60
3, 17392, Note_on_c, 1, 61, 0
3, 17400, Note_on_c, 1, 63, 57
3, 17412, Note_on_c, 1, 54, 0
3, 17416, Note_on_c, 1, 63, 0
3, 17424, Note_on_c, 1, 49, 57
3, 17424, Note_on_c, 1, 61, 64
3, 17424, Control_c, 1, 64, 127
3, 17426, Control_c, 1, 64, 0
3, 17432, Control_c, 1, 64, 127
3, 17490, Note_on_c, 1, 61, 0
3, 17496, Note_on_c, 1, 61, 64
3, 17544, Note_on_c, 1, 61, 0
3, 17544, Note_on_c, 1, 63, 67
3, 17556, Note_on_c, 1, 49, 0
3, 17568, Note_on_c, 1, 63, 0
3, 17568, Note_on_c, 1, 42, 60
3, 17568, Note_on_c, 1, 54, 60
3, 17568, Control_c, 1, 64, 127
3, 17570, Control_c, 1, 64, 0
3, 17576, Control_c, 1, 64, 127
3, 17616, Note_on_c, 1, 42, 0
3, 17640, Note_on_c, 1, 61, 72
3, 17688, Note_on_c, 1, 61, 0
3, 17688, Note_on_c, 1, 63, 74
3, 17700, Note_on_c, 1, 54, 0
3, 17704, Note_on_c, 1, 63, 0
3, 17712, Note_on_c, 1, 44, 62
3, 17712, Note_on_c, 1, 56, 62
3, 17712, Control_c, 1, 64, 127
3, 17714, Control_c, 1, 64, 0
3, 17720, Control_c, 1, 64, 127
3, 17834, Control_c, 1, 64, 0
3, 17840, Control_c, 1, 64, 127
3, 17844, Note_on_c, 1, 56, 0
3, 17844, Note_on_c, 1, 44, 0
3, 17856, Note_on_c, 1, 30, 64
3, 17856, Control_c, 1, 64, 127
3, 17858, Control_c, 1, 64, 0
3, 17864, Control_c, 1, 64, 127
3, 17880, Note_on_c, 1, 30, 0
3, 17880, Note_on_c, 1, 42, 62
3, 17904, Note_on_c, 1, 42, 0
3, 17904, Note_on_c, 1, 53, 48
3, 17928, Note_on_c, 1, 53, 0
3, 17928, Note_on_c, 1, 54, 45
3, 17930, Control_c, 1, 64, 0
3, 17952, Note_on_c, 1, 54, 0
3, 17952, Note_on_c, 1, 42, 43
3, 17960, Control_c, 1, 64, 127
3, 17976, Note_on_c, 1, 42, 0
3, 17976, Note_on_c, 1, 35, 40
3, 17998, Note_on_c, 1, 35, 0
3, 18000, Note_on_c, 1, 28, 48
3, 18000, Control_c, 1, 64, 127
3, 18002, Control_c, 1, 64, 0
3, 18008, Control_c, 1, 64, 127
3, 18024, Note_on_c, 1, 28, 0
3, 18024, Note_on_c, 1, 47, 45
3, 18048, Note_on_c, 1, 47, 0
3, 18048, Note_on_c, 1, 59, 51
3, 18072, Note_on_c, 1, 59, 0
3, 18072, Note_on_c, 1, 58, 45
3, 18074, Control_c, 1, 64, 0
3, 18096, Note_on_c, 1, 58, 0
3, 18096, Note_on_c, 1, 57, 43
3, 18104, Control_c, 1, 64, 127
3, 18120, Note_on_c, 1, 57, 0
3, 18120, Note_on_c, 1, 50, 40
3, 18142, Note_on_c, 1, 50, 0
3, 18144, Note_on_c, 1, 43, 48
3, 18144, Control_c, 1, 64, 127
3, 18146, Control_c, 1, 64, 0
3, 18152, Control_c, 1, 64, 127
3, 18168, Note_on_c, 1, 43, 0
3, 18168, Note_on_c, 1, 50, 45
3, 18192, Note_on_c, 1, 50, 0
3, 18192, Note_on_c, 1, 59, 50
3, 18216, Note_on_c, 1, 59, 0
3, 18216, Note_on_c, 1, 62, 45
3, 18218, Control_c, 1, 64, 0
3, 18240, Note_on_c, 1, 62, 0
3, 18240, Note_on_c, 1, 52, 43
3, 18248, Control_c, 1, 64, 127
3, 18264, Note_on_c, 1, 52, 0
3, 18264, Note_on_c, 1, 40, 45
3, 18286, Note_on_c, 1, 40, 0
3, 18288, Note_on_c, 1, 45, 40
3, 18288, Control_c, 1, 64, 127
3, 18290, Control_c, 1, 64, 0
3, 18296, Control_c, 1, 64, 127
3, 18312, Note_on_c, 1, 45, 0
3, 18312, Note_on_c, 1, 52, 45
3, 18336, Note_on_c, 1, 52, 0
3, 18336, Note_on_c, 1, 60, 45
3, 18360, Note_on_c, 1, 60, 0
3, 18360, Note_on_c, 1, 64, 43
3, 18362, Control_c, 1, 64, 0
3, 18384, Note_on_c, 1, 64, 0
3, 18384, Note_on_c, 1, 62, 40
3, 18392, Control_c, 1, 64, 127
3, 18408, Note_on_c, 1, 62, 0
3, 18408, Note_on_c, 1, 52, 36
3, 18430, Note_on_c, 1, 52, 0
3, 18432, Note_on_c, 1, 45, 40
3, 18432, Control_c, 1, 64, 127
3, 18434, Control_c, 1, 64, 0
3, 18440, Control_c, 1, 64, 127
3, 18456, Note_on_c, 1, 45, 0
3, 18456, Note_on_c, 1, 52, 45
3, 18480, Note_on_c, 1, 52, 0
3, 18480, Note_on_c, 1, 60, 45
3, 18504, Note_on_c, 1, 60, 0
3, 18504, Note_on_c, 1, 64, 40
3, 18506, Control_c, 1, 64, 0
3, 18528, Note_on_c, 1, 64, 0
3, 18528, Note_on_c, 1, 62, 38
3, 18536, Control_c, 1, 64, 127
3, 18552, Note_on_c, 1, 62, 0
3, 18552, Note_on_c, 1, 52, 33
3, 18574, Note_on_c, 1, 52, 0
3, 18576, Note_on_c, 1, 45, 43
3, 18576, Control_c, 1, 64, 127
3, 18578, Control_c, 1, 64, 0
3, 18584, Control_c, 1, 64, 127
3, 18600, Note_on_c, 1, 45, 0
3, 18600, Note_on_c, 1, 52, 40
3, 18624, Note_on_c, 1, 52, 0
3, 18624, Note_on_c, 1, 64, 45
3, 18648, Note_on_c, 1, 64, 0
3, 18648, Note_on_c, 1, 60, 43
3, 18650, Control_c, 1, 64, 0
3, 18672, Note_on_c, 1, 60, 0
3, 18672, Note_on_c, 1, 50, 44
3, 18680, Control_c, 1, 64, 127
3, 18696, Note_on_c, 1, 50, 0
3, 18696, Note_on_c, 1, 38, 45
3, 18718, Note_on_c, 1, 38, 0
3, 18720, Note_on_c, 1, 43, 43
3, 18720, Control_c, 1, 64, 127
3, 18722, Control_c, 1, 64, 0
3, 18728, Control_c, 1, 64, 127
3, 18744, Note_on_c, 1, 43, 0
3, 18744, Note_on_c, 1, 50, 43
3, 18768, Note_on_c, 1, 50, 0
3, 18768, Note_on_c, 1, 62, 55
3, 18792, Note_on_c, 1, 62, 0
3, 18792, Note_on_c, 1, 61, 50
3, 18794, Control_c, 1, 64, 0
3, 18816, Note_on_c, 1, 61, 0
3, 18816, Note_on_c, 1, 60, 48
3, 18824, Control_c, 1, 64, 127
3, 18840, Note_on_c, 1, 60, 0
3, 18840, Note_on_c, 1, 53, 40
3, 18842, Control_c, 1, 64, 0
3, 18848, Control_c, 1, 64, 127
3, 18862, Note_on_c, 1, 53, 0
3, 18864, Note_on_c, 1, 46, 43
3, 18864, Control_c, 1, 64, 127
3, 18866, Control_c, 1, 64, 0
3, 18872, Control_c, 1, 64, 127
3, 18888, Note_on_c, 1, 46, 0
3, 18888, Note_on_c, 1, 53, 43
3, 18912, Note_on_c, 1, 53, 0
3, 18912, Note_on_c, 1, 65, 50
3, 18936, Note_on_c, 1, 65, 0
3, 18936, Note_on_c, 1, 64, 48
3, 18938, Control_c, 1, 64, 0
3, 18960, Note_on_c, 1, 64, 0
3, 18960, Note_on_c, 1, 63, 45
3, 18968, Control_c, 1, 64, 127
3, 18984, Note_on_c, 1, 63, 0
3, 18984, Note_on_c, 1, 56, 38
3, 18986, Control_c, 1, 64, 0
3, 18992, Control_c, 1, 64, 127
3, 19006, Note_on_c, 1, 56, 0
3, 19008, Note_on_c, 1, 49, 48
3, 19008, Control_c, 1, 64, 127
3, 19010, Control_c, 1, 64, 0
3, 19016, Control_c, 1, 64, 127
3, 19030, Note_on_c, 1, 49, 0
3, 19032, Note_on_c, 1, 54, 52
3, 19034, Control_c, 1, 64, 0
3, 19040, Control_c, 1, 64, 127
3, 19056, Note_on_c, 1, 54, 0
3, 19056, Note_on_c, 1, 47, 52
3, 19058, Control_c, 1, 64, 0
3, 19064, Control_c, 1, 64, 127
3, 19080, Note_on_c, 1, 47, 0
3, 19080, Note_on_c, 1, 40, 60
3, 19082, Control_c, 1, 64, 0
3, 19088, Control_c, 1, 64, 127
3, 19104, Note_on_c, 1, 40, 0
3, 19104, Note_on_c, 1, 33, 62
3, 19106, Control_c, 1, 64, 0
3, 19112, Control_c, 1, 64, 127
3, 19128, Note_on_c, 1, 33, 0
3, 19128, Note_on_c, 1, 26, 64
3, 19130, Control_c, 1, 64, 0
3, 19136, Control_c, 1, 64, 127
3, 19150, Note_on_c, 1, 26, 0
3, 19152, Note_on_c, 1, 25, 60
3, 19152, Control_c, 1, 64, 127
3, 19154, Control_c, 1, 64, 0
3, 19160, Control_c, 1, 64, 127
3, 19200, Note_on_c, 1, 25, 0
3, 19200, Control_c, 1, 64, 0
3, 19224, Note_on_c, 1, 58, 67
3, 19232, Control_c, 1, 64, 127
3, 19272, Note_on_c, 1, 58, 0
3, 19272, Note_on_c, 1, 49, 60
3, 19274, Control_c, 1, 64, 0
3, 19280, Control_c, 1, 64, 127
3, 19294, Note_on_c, 1, 49, 0
3, 19296, Note_on_c, 1, 50, 52
3, 19296, Control_c, 1, 64, 127
3, 19298, Control_c, 1, 64, 0
3, 19304, Control_c, 1, 64, 127
3, 19370, Control_c, 1, 64, 0
3, 19376, Control_c, 1, 64, 127
3, 19440, Note_on_c, 1, 38, 36
3, 19440, Control_c, 1, 64, 127
3, 19442, Control_c, 1, 64, 0
3, 19448, Control_c, 1, 64, 127
3, 19480, Note_on_c, 1, 50, 0
3, 19488, Note_on_c, 1, 50, 45
3, 19514, Control_c, 1, 64, 0
3, 19520, Control_c, 1, 64, 127
3, 19572, Note_on_c, 1, 50, 0
3, 19572, Note_on_c, 1, 38, 0
3, 19584, Note_on_c, 1, 31, 36
3, 19584, Note_on_c, 1, 43, 36
3, 19584, Control_c, 1, 64, 127
3, 19586, Control_c, 1, 64, 0
3, 19592, Control_c, 1, 64, 127
3, 19658, Control_c, 1, 64, 0
3, 19664, Control_c, 1, 64, 127
3, 19716, Note_on_c, 1, 43, 0
3, 19716, Note_on_c, 1, 31, 0
3, 19728, Note_on_c, 1, 43, 36
3, 19728, Note_on_c, 1, 52, 36
3, 19728, Control_c, 1, 64, 127
3, 19730, Control_c, 1, 64, 0
3, 19736, Control_c, 1, 64, 127
3, 19802, Control_c, 1, 64, 0
3, 19808, Control_c, 1, 64, 127
3, 19872, Note_on_c, 1, 52, 0
3, 19872, Note_on_c, 1, 50, 30
3, 19872, Control_c, 1, 64, 127
3, 19874, Control_c, 1, 64, 0
3, 19880, Control_c, 1, 64, 127
3, 19944, Note_on_c, 1, 50, 0
3, 19944, Note_on_c, 1, 43, 0
3, 19944, Control_c, 1, 64, 0
3, 20016, Note_on_c, 1, 38, 38
3, 20016, Control_c, 1, 64, 0
3, 20024, Control_c, 1, 64, 127
3, 20088, Note_on_c, 1, 38, 0
3, 20088, Control_c, 1, 64, 0
3, 20160, Note_on_c, 1, 31, 31
3, 20160, Note_on_c, 1, 43, 31
3, 20160, Control_c, 1, 64, 0
3, 20168, Control_c, 1, 64, 127
3, 20256, Note_on_c, 1, 43, 0
3, 20256, Note_on_c, 1, 31, 0
3, 20256, Control_c, 1, 64, 0
3, 20256, End_track
0, 0, End_of_file
