0, 0, Header, 1, 2, 480
1, 0, Start_track
1, 0, Key_signature, 0, "major"
1, 0, SMPTE_offset, 96, 0, 0, 0, 0
1, 0, Tempo, 500000
1, 0, Time_signature, 4, 2, 24, 8
1, 0, End_track
2, 0, Start_track
2, 0, Note_on_c, 0, 70, 46
2, 190, Control_c, 0, 64, 127
2, 742, Note_on_c, 0, 79, 81
2, 756, Note_on_c, 0, 39, 24
2, 798, Note_on_c, 0, 70, 0
2, 880, Control_c, 0, 64, 0
2, 1030, Note_on_c, 0, 39, 0
2, 1034, Control_c, 0, 64, 127
2, 1442, Note_on_c, 0, 55, 31
2, 1444, Note_on_c, 0, 63, 25
2, 1594, Note_on_c, 0, 55, 0
2, 1636, Note_on_c, 0, 63, 0
2, 1936, Note_on_c, 0, 67, 29
2, 1940, Note_on_c, 0, 58, 19
2, 1946, Note_on_c, 0, 63, 34
2, 2080, Note_on_c, 0, 67, 0
2, 2110, Note_on_c, 0, 63, 0
2, 2244, Note_on_c, 0, 58, 0
2, 2480, Note_on_c, 0, 51, 40
2, 2508, Control_c, 0, 64, 0
2, 2708, Control_c, 0, 64, 127
2, 2730, Note_on_c, 0, 51, 0
2, 3044, Note_on_c, 0, 77, 78
2, 3076, Note_on_c, 0, 56, 23
2, 3096, Note_on_c, 0, 62, 27
2, 3172, Note_on_c, 0, 79, 0
2, 3196, Note_on_c, 0, 62, 0
2, 3208, Note_on_c, 0, 56, 0
2, 3502, Note_on_c, 0, 79, 94
2, 3522, Note_on_c, 0, 68, 33
2, 3531, Note_on_c, 0, 59, 24
2, 3537, Note_on_c, 0, 62, 9
2, 3610, Note_on_c, 0, 68, 0
2, 3613, Note_on_c, 0, 62, 0
2, 3616, Note_on_c, 0, 77, 0
2, 3617, Note_on_c, 0, 59, 0
2, 4068, Note_on_c, 0, 77, 79
2, 4096, Note_on_c, 0, 39, 36
2, 4098, Control_c, 0, 64, 0
2, 4196, Note_on_c, 0, 79, 0
2, 4320, Note_on_c, 0, 39, 0
2, 4323, Control_c, 0, 64, 127
2, 4698, Note_on_c, 0, 63, 33
2, 4724, Note_on_c, 0, 55, 22
2, 4832, Note_on_c, 0, 63, 0
2, 4832, Note_on_c, 0, 55, 0
2, 5198, Note_on_c, 0, 58, 20
2, 5210, Note_on_c, 0, 67, 28
2, 5220, Note_on_c, 0, 63, 24
2, 5296, Note_on_c, 0, 63, 0
2, 5306, Note_on_c, 0, 67, 0
2, 5388, Note_on_c, 0, 58, 0
2, 5656, Note_on_c, 0, 75, 42
2, 5682, Note_on_c, 0, 38, 50
2, 5750, Control_c, 0, 64, 0
2, 5820, Note_on_c, 0, 77, 0
2, 5936, Note_on_c, 0, 38, 0
2, 5950, Control_c, 0, 64, 127
2, 6268, Note_on_c, 0, 63, 35
2, 6272, Note_on_c, 0, 55, 31
2, 6346, Note_on_c, 0, 75, 0
2, 6416, Note_on_c, 0, 63, 0
2, 6458, Note_on_c, 0, 55, 0
2, 6722, Note_on_c, 0, 70, 65
2, 6748, Note_on_c, 0, 58, 22
2, 6748, Note_on_c, 0, 67, 35
2, 6768, Note_on_c, 0, 63, 39
2, 6810, Note_on_c, 0, 67, 0
2, 6854, Note_on_c, 0, 63, 0
2, 6914, Note_on_c, 0, 58, 0
2, 7244, Note_on_c, 0, 36, 59
2, 7249, Note_on_c, 0, 79, 84
2, 7332, Note_on_c, 0, 70, 0
2, 7332, Control_c, 0, 64, 0
2, 7518, Note_on_c, 0, 36, 0
2, 7548, Control_c, 0, 64, 127
2, 7736, Note_on_c, 0, 55, 52
2, 7742, Note_on_c, 0, 64, 35
2, 7870, Note_on_c, 0, 64, 0
2, 7930, Note_on_c, 0, 55, 0
2, 8162, Note_on_c, 0, 72, 61
2, 8168, Note_on_c, 0, 79, 0
2, 8214, Note_on_c, 0, 67, 24
2, 8214, Note_on_c, 0, 58, 15
2, 8223, Note_on_c, 0, 64, 39
2, 8287, Note_on_c, 0, 64, 0
2, 8294, Note_on_c, 0, 67, 0
2, 8308, Note_on_c, 0, 73, 67
2, 8316, Note_on_c, 0, 72, 0
2, 8380, Note_on_c, 0, 58, 0
2, 8402, Note_on_c, 0, 72, 60
2, 8442, Note_on_c, 0, 73, 0
2, 8518, Note_on_c, 0, 71, 81
2, 8534, Note_on_c, 0, 72, 0
2, 8614, Note_on_c, 0, 71, 0
2, 8618, Note_on_c, 0, 72, 75
2, 8676, Note_on_c, 0, 48, 39
2, 8748, Control_c, 0, 64, 0
2, 8828, Note_on_c, 0, 72, 0
2, 8828, Note_on_c, 0, 84, 94
2, 8978, Control_c, 0, 64, 127
2, 9030, Note_on_c, 0, 48, 0
2, 9276, Note_on_c, 0, 64, 57
2, 9294, Note_on_c, 0, 55, 41
2, 9424, Note_on_c, 0, 64, 0
2, 9430, Note_on_c, 0, 55, 0
2, 9748, Note_on_c, 0, 79, 92
2, 9756, Note_on_c, 0, 70, 34
2, 9772, Note_on_c, 0, 60, 28
2, 9780, Note_on_c, 0, 64, 25
2, 9848, Note_on_c, 0, 64, 0
2, 9864, Note_on_c, 0, 70, 0
2, 9870, Note_on_c, 0, 60, 0
2, 9978, Note_on_c, 0, 84, 0
2, 10266, Note_on_c, 0, 82, 69
2, 10274, Note_on_c, 0, 41, 44
2, 10284, Control_c, 0, 64, 0
2, 10368, Note_on_c, 0, 79, 0
2, 10478, Note_on_c, 0, 41, 0
2, 10484, Control_c, 0, 64, 127
2, 10758, Note_on_c, 0, 61, 33
2, 10778, Note_on_c, 0, 53, 32
2, 10856, Note_on_c, 0, 53, 0
2, 10914, Note_on_c, 0, 61, 0
2, 11290, Note_on_c, 0, 58, 21
2, 11290, Note_on_c, 0, 64, 29
2, 11300, Note_on_c, 0, 61, 23
2, 11426, Note_on_c, 0, 64, 0
2, 11442, Note_on_c, 0, 61, 0
2, 11452, Note_on_c, 0, 58, 0
2, 11814, Note_on_c, 0, 80, 45
2, 11836, Note_on_c, 0, 41, 22
2, 11850, Control_c, 0, 64, 0
2, 11990, Note_on_c, 0, 82, 0
2, 12080, Note_on_c, 0, 41, 0
2, 12082, Control_c, 0, 64, 127
2, 12418, Note_on_c, 0, 60, 24
2, 12442, Note_on_c, 0, 53, 34
2, 12582, Note_on_c, 0, 53, 0
2, 12618, Note_on_c, 0, 60, 0
2, 12804, Note_on_c, 0, 80, 0
2, 12916, Note_on_c, 0, 79, 85
2, 12930, Note_on_c, 0, 56, 29
2, 12954, Note_on_c, 0, 65, 24
2, 13050, Note_on_c, 0, 65, 0
2, 13226, Note_on_c, 0, 56, 0
2, 13432, Note_on_c, 0, 77, 83
2, 13450, Note_on_c, 0, 46, 40
2, 13494, Control_c, 0, 64, 0
2, 13566, Note_on_c, 0, 79, 0
2, 13702, Note_on_c, 0, 46, 0
2, 13710, Control_c, 0, 64, 127
2, 13920, Note_on_c, 0, 62, 36
2, 13934, Note_on_c, 0, 53, 44
2, 14026, Note_on_c, 0, 62, 0
2, 14034, Note_on_c, 0, 53, 0
2, 14366, Note_on_c, 0, 68, 44
2, 14384, Note_on_c, 0, 62, 35
2, 14386, Note_on_c, 0, 58, 33
2, 14446, Note_on_c, 0, 62, 0
2, 14454, Note_on_c, 0, 68, 0
2, 14550, Note_on_c, 0, 58, 0
2, 14828, Note_on_c, 0, 79, 91
2, 14858, Note_on_c, 0, 47, 49
2, 14878, Control_c, 0, 64, 0
2, 14940, Note_on_c, 0, 77, 0
2, 15108, Control_c, 0, 64, 127
2, 15126, Note_on_c, 0, 47, 0
2, 15356, Note_on_c, 0, 65, 34
2, 15378, Note_on_c, 0, 55, 22
2, 15542, Note_on_c, 0, 55, 0
2, 15550, Note_on_c, 0, 65, 0
2, 15840, Note_on_c, 0, 74, 78
2, 15868, Note_on_c, 0, 67, 37
2, 15892, Note_on_c, 0, 62, 30
2, 15894, Note_on_c, 0, 65, 6
2, 15962, Note_on_c, 0, 67, 0
2, 15965, Note_on_c, 0, 62, 0
2, 15976, Note_on_c, 0, 65, 0
2, 16076, Note_on_c, 0, 79, 0
2, 16338, Note_on_c, 0, 75, 69
2, 16352, Control_c, 0, 64, 0
2, 16368, Note_on_c, 0, 48, 31
2, 16426, Note_on_c, 0, 74, 0
2, 16552, Control_c, 0, 64, 127
2, 16564, Note_on_c, 0, 48, 0
2, 16860, Note_on_c, 0, 63, 28
2, 16882, Note_on_c, 0, 55, 8
2, 16982, Note_on_c, 0, 55, 0
2, 17028, Note_on_c, 0, 63, 0
2, 17366, Note_on_c, 0, 67, 27
2, 17394, Note_on_c, 0, 63, 20
2, 17414, Note_on_c, 0, 60, 18
2, 17516, Note_on_c, 0, 63, 0
2, 17520, Note_on_c, 0, 67, 0
2, 17522, Note_on_c, 0, 60, 0
2, 17844, Note_on_c, 0, 72, 36
2, 17858, Control_c, 0, 64, 0
2, 17870, Note_on_c, 0, 45, 22
2, 17936, Note_on_c, 0, 75, 0
2, 18074, Control_c, 0, 64, 127
2, 18092, Note_on_c, 0, 45, 0
2, 18372, Note_on_c, 0, 63, 22
2, 18404, Note_on_c, 0, 54, 14
2, 18530, Note_on_c, 0, 63, 0
2, 18568, Note_on_c, 0, 54, 0
2, 18928, Note_on_c, 0, 66, 9
2, 18958, Note_on_c, 0, 60, 11
2, 18960, Note_on_c, 0, 63, 17
2, 19076, Note_on_c, 0, 66, 0
2, 19170, Note_on_c, 0, 63, 0
2, 19250, Note_on_c, 0, 60, 0
2, 19404, Note_on_c, 0, 72, 0
2, 19516, Note_on_c, 0, 70, 62
2, 19568, Note_on_c, 0, 46, 17
2, 19640, Control_c, 0, 64, 0
2, 19804, Note_on_c, 0, 46, 0
2, 19809, Control_c, 0, 64, 127
2, 19916, Note_on_c, 0, 70, 0
2, 20196, Note_on_c, 0, 86, 89
2, 20210, Note_on_c, 0, 63, 41
2, 20248, Note_on_c, 0, 53, 50
2, 20360, Note_on_c, 0, 53, 0
2, 20478, Note_on_c, 0, 63, 0
2, 20848, Note_on_c, 0, 84, 95
2, 20858, Note_on_c, 0, 68, 37
2, 20866, Note_on_c, 0, 58, 27
2, 20876, Note_on_c, 0, 63, 38
2, 20926, Note_on_c, 0, 68, 0
2, 20974, Note_on_c, 0, 63, 0
2, 21004, Note_on_c, 0, 86, 0
2, 21026, Note_on_c, 0, 58, 0
2, 21359, Note_on_c, 0, 82, 75
2, 21372, Note_on_c, 0, 34, 37
2, 21408, Control_c, 0, 64, 0
2, 21462, Note_on_c, 0, 84, 0
2, 21562, Control_c, 0, 64, 127
2, 21586, Note_on_c, 0, 34, 0
2, 21758, Note_on_c, 0, 80, 78
2, 21842, Note_on_c, 0, 82, 0
2, 22032, Note_on_c, 0, 80, 0
2, 22044, Note_on_c, 0, 79, 84
2, 22078, Note_on_c, 0, 62, 31
2, 22094, Note_on_c, 0, 53, 45
2, 22220, Note_on_c, 0, 53, 0
2, 22252, Note_on_c, 0, 62, 0
2, 22270, Note_on_c, 0, 79, 0
2, 22290, Note_on_c, 0, 80, 83
2, 22527, Note_on_c, 0, 58, 17
2, 22528, Note_on_c, 0, 72, 70
2, 22534, Note_on_c, 0, 68, 38
2, 22566, Note_on_c, 0, 80, 0
2, 22652, Note_on_c, 0, 68, 0
2, 22806, Note_on_c, 0, 74, 85
2, 22823, Note_on_c, 0, 58, 0
2, 22852, Note_on_c, 0, 72, 0
2, 23148, Note_on_c, 0, 75, 64
2, 23160, Note_on_c, 0, 39, 52
2, 23174, Control_c, 0, 64, 0
2, 23202, Note_on_c, 0, 74, 0
2, 23406, Control_c, 0, 64, 127
2, 23410, Note_on_c, 0, 39, 0
2, 23704, Note_on_c, 0, 63, 47
2, 23722, Note_on_c, 0, 55, 18
2, 23886, Note_on_c, 0, 63, 0
2, 23964, Note_on_c, 0, 55, 0
2, 24218, Note_on_c, 0, 67, 33
2, 24228, Note_on_c, 0, 58, 20
2, 24246, Note_on_c, 0, 63, 26
2, 24338, Note_on_c, 0, 63, 0
2, 24386, Note_on_c, 0, 67, 0
2, 24510, Note_on_c, 0, 58, 0
2, 24718, Note_on_c, 0, 51, 31
2, 24876, Note_on_c, 0, 51, 0
2, 25204, Note_on_c, 0, 63, 33
2, 25214, Note_on_c, 0, 55, 26
2, 25262, Note_on_c, 0, 75, 0
2, 25356, Note_on_c, 0, 63, 0
2, 25558, Note_on_c, 0, 55, 0
2, 25868, Note_on_c, 0, 70, 42
2, 25888, Note_on_c, 0, 67, 16
2, 25888, Note_on_c, 0, 63, 16
2, 25890, Note_on_c, 0, 58, 13
2, 26028, Note_on_c, 0, 67, 0
2, 26034, Note_on_c, 0, 63, 0
2, 26100, Note_on_c, 0, 58, 0
2, 26504, Note_on_c, 0, 79, 69
2, 26514, Note_on_c, 0, 51, 37
2, 26524, Control_c, 0, 64, 0
2, 26570, Note_on_c, 0, 70, 0
2, 26694, Control_c, 0, 64, 127
2, 26730, Note_on_c, 0, 51, 0
2, 27036, Note_on_c, 0, 63, 33
2, 27050, Note_on_c, 0, 55, 25
2, 27220, Note_on_c, 0, 63, 0
2, 27362, Note_on_c, 0, 55, 0
2, 27554, Note_on_c, 0, 58, 21
2, 27568, Note_on_c, 0, 67, 26
2, 27582, Note_on_c, 0, 63, 18
2, 27694, Note_on_c, 0, 67, 0
2, 27748, Note_on_c, 0, 63, 0
2, 27790, Note_on_c, 0, 58, 0
2, 28006, Note_on_c, 0, 51, 29
2, 28030, Note_on_c, 0, 77, 65
2, 28038, Note_on_c, 0, 79, 0
2, 28076, Control_c, 0, 64, 0
2, 28230, Control_c, 0, 64, 127
2, 28252, Note_on_c, 0, 51, 0
2, 28324, Note_on_c, 0, 77, 0
2, 28327, Note_on_c, 0, 79, 73
2, 28404, Note_on_c, 0, 79, 0
2, 28472, Note_on_c, 0, 77, 57
2, 28514, Note_on_c, 0, 77, 0
2, 28536, Note_on_c, 0, 79, 79
2, 28580, Note_on_c, 0, 77, 66
2, 28582, Note_on_c, 0, 56, 16
2, 28596, Note_on_c, 0, 62, 19
2, 28644, Note_on_c, 0, 79, 0
2, 28748, Note_on_c, 0, 62, 0
2, 28814, Note_on_c, 0, 76, 70
2, 28848, Note_on_c, 0, 77, 0
2, 29038, Note_on_c, 0, 68, 26
2, 29054, Note_on_c, 0, 62, 23
2, 29056, Note_on_c, 0, 77, 67
2, 29066, Note_on_c, 0, 59, 34
2, 29074, Control_c, 0, 64, 0
2, 29116, Note_on_c, 0, 76, 0
2, 29192, Note_on_c, 0, 62, 0
2, 29260, Control_c, 0, 64, 127
2, 29288, Note_on_c, 0, 68, 0
2, 29312, Note_on_c, 0, 79, 69
2, 29330, Note_on_c, 0, 77, 0
2, 29358, Note_on_c, 0, 59, 0
2, 29400, Note_on_c, 0, 56, 0
2, 29624, Note_on_c, 0, 77, 50
2, 29642, Note_on_c, 0, 79, 0
2, 29644, Control_c, 0, 64, 0
2, 29648, Note_on_c, 0, 51, 31
2, 29842, Control_c, 0, 64, 127
2, 29878, Note_on_c, 0, 51, 0
2, 29908, Note_on_c, 0, 77, 0
2, 30230, Note_on_c, 0, 75, 41
2, 30260, Note_on_c, 0, 63, 29
2, 30286, Note_on_c, 0, 55, 29
2, 30392, Note_on_c, 0, 63, 0
2, 30464, Note_on_c, 0, 55, 0
2, 30722, Note_on_c, 0, 67, 41
2, 30725, Note_on_c, 0, 58, 24
2, 30746, Note_on_c, 0, 63, 26
2, 30822, Note_on_c, 0, 67, 0
2, 30842, Note_on_c, 0, 63, 0
2, 30898, Note_on_c, 0, 58, 0
2, 31156, Note_on_c, 0, 50, 45
2, 31180, Control_c, 0, 64, 0
2, 31334, Control_c, 0, 64, 127
2, 31370, Note_on_c, 0, 50, 0
2, 31498, Note_on_c, 0, 77, 60
2, 31530, Note_on_c, 0, 75, 0
2, 31590, Note_on_c, 0, 77, 0
2, 31650, Note_on_c, 0, 75, 47
2, 31696, Note_on_c, 0, 63, 32
2, 31700, Note_on_c, 0, 75, 0
2, 31708, Note_on_c, 0, 55, 27
2, 31722, Note_on_c, 0, 77, 69
2, 31770, Note_on_c, 0, 75, 53
2, 31838, Note_on_c, 0, 77, 0
2, 31872, Note_on_c, 0, 55, 0
2, 31880, Note_on_c, 0, 63, 0
2, 32000, Note_on_c, 0, 74, 81
2, 32040, Note_on_c, 0, 75, 0
2, 32170, Note_on_c, 0, 58, 21
2, 32192, Note_on_c, 0, 67, 27
2, 32206, Note_on_c, 0, 63, 32
2, 32220, Note_on_c, 0, 75, 82
2, 32262, Note_on_c, 0, 67, 0
2, 32278, Note_on_c, 0, 74, 0
2, 32304, Note_on_c, 0, 63, 0
2, 32326, Note_on_c, 0, 58, 0
2, 32448, Note_on_c, 0, 77, 81
2, 32532, Note_on_c, 0, 75, 0
2, 32654, Note_on_c, 0, 48, 29
2, 32716, Control_c, 0, 64, 0
2, 32720, Note_on_c, 0, 77, 0
2, 32724, Note_on_c, 0, 79, 73
2, 32908, Note_on_c, 0, 79, 0
2, 32932, Control_c, 0, 64, 127
2, 32958, Note_on_c, 0, 48, 0
2, 32992, Note_on_c, 0, 71, 71
2, 33172, Note_on_c, 0, 71, 0
2, 33244, Note_on_c, 0, 72, 74
2, 33268, Note_on_c, 0, 55, 21
2, 33276, Note_on_c, 0, 64, 26
2, 33394, Note_on_c, 0, 64, 0
2, 33406, Note_on_c, 0, 72, 0
2, 33409, Note_on_c, 0, 55, 0
2, 33464, Note_on_c, 0, 73, 75
2, 33686, Note_on_c, 0, 58, 25
2, 33694, Note_on_c, 0, 67, 31
2, 33695, Note_on_c, 0, 64, 36
2, 33697, Note_on_c, 0, 73, 0
2, 33702, Note_on_c, 0, 72, 86
2, 33755, Note_on_c, 0, 64, 0
2, 33770, Note_on_c, 0, 67, 0
2, 33820, Note_on_c, 0, 72, 0
2, 33846, Note_on_c, 0, 58, 0
2, 33916, Note_on_c, 0, 77, 93
2, 34160, Note_on_c, 0, 76, 86
2, 34160, Control_c, 0, 64, 0
2, 34168, Note_on_c, 0, 48, 38
2, 34170, Note_on_c, 0, 77, 0
2, 34290, Note_on_c, 0, 76, 0
2, 34314, Control_c, 0, 64, 127
2, 34336, Note_on_c, 0, 48, 0
2, 34388, Note_on_c, 0, 80, 89
2, 34648, Note_on_c, 0, 79, 92
2, 34650, Note_on_c, 0, 80, 0
2, 34674, Note_on_c, 0, 64, 32
2, 34690, Note_on_c, 0, 55, 34
2, 34784, Note_on_c, 0, 79, 0
2, 34872, Note_on_c, 0, 55, 0
2, 34878, Note_on_c, 0, 64, 0
2, 34920, Note_on_c, 0, 85, 92
2, 35248, Note_on_c, 0, 84, 90
2, 35258, Note_on_c, 0, 70, 32
2, 35261, Note_on_c, 0, 60, 22
2, 35271, Note_on_c, 0, 64, 17
2, 35318, Note_on_c, 0, 85, 0
2, 35385, Note_on_c, 0, 64, 0
2, 35390, Note_on_c, 0, 70, 0
2, 35423, Note_on_c, 0, 60, 0
2, 35534, Note_on_c, 0, 79, 94
2, 35538, Note_on_c, 0, 84, 0
2, 35930, Note_on_c, 0, 82, 69
2, 35938, Note_on_c, 0, 41, 57
2, 35988, Control_c, 0, 64, 0
2, 35998, Note_on_c, 0, 79, 0
2, 36196, Note_on_c, 0, 41, 0
2, 36204, Control_c, 0, 64, 127
2, 36470, Note_on_c, 0, 61, 49
2, 36479, Note_on_c, 0, 53, 51
2, 36561, Note_on_c, 0, 53, 0
2, 36676, Note_on_c, 0, 61, 0
2, 37026, Note_on_c, 0, 64, 52
2, 37040, Note_on_c, 0, 61, 29
2, 37042, Note_on_c, 0, 58, 27
2, 37166, Note_on_c, 0, 64, 0
2, 37202, Note_on_c, 0, 61, 0
2, 37240, Note_on_c, 0, 58, 0
2, 37568, Note_on_c, 0, 80, 69
2, 37592, Note_on_c, 0, 41, 34
2, 37680, Control_c, 0, 64, 0
2, 37726, Note_on_c, 0, 82, 0
2, 37870, Note_on_c, 0, 41, 0
2, 37894, Control_c, 0, 64, 127
2, 38140, Note_on_c, 0, 53, 36
2, 38140, Note_on_c, 0, 60, 39
2, 38378, Note_on_c, 0, 60, 0
2, 38381, Note_on_c, 0, 53, 0
2, 38798, Note_on_c, 0, 79, 63
2, 38826, Note_on_c, 0, 60, 10
2, 38828, Note_on_c, 0, 56, 24
2, 38830, Note_on_c, 0, 65, 22
2, 38936, Note_on_c, 0, 80, 0
2, 38972, Note_on_c, 0, 65, 0
2, 39008, Note_on_c, 0, 60, 0
2, 39154, Note_on_c, 0, 56, 0
2, 39442, Note_on_c, 0, 77, 52
2, 39450, Note_on_c, 0, 46, 28
2, 39470, Note_on_c, 0, 79, 0
2, 39508, Control_c, 0, 64, 0
2, 39706, Note_on_c, 0, 79, 55
2, 39708, Control_c, 0, 64, 127
2, 39710, Note_on_c, 0, 77, 0
2, 39760, Note_on_c, 0, 46, 0
2, 39780, Note_on_c, 0, 79, 0
2, 39832, Note_on_c, 0, 77, 31
2, 39890, Note_on_c, 0, 77, 0
2, 39928, Note_on_c, 0, 79, 55
2, 39982, Note_on_c, 0, 79, 0
2, 40000, Note_on_c, 0, 77, 44
2, 40028, Note_on_c, 0, 62, 25
2, 40042, Note_on_c, 0, 53, 19
2, 40056, Note_on_c, 0, 77, 0
2, 40072, Note_on_c, 0, 79, 60
2, 40110, Note_on_c, 0, 62, 0
2, 40118, Note_on_c, 0, 53, 0
2, 40132, Note_on_c, 0, 79, 0
2, 40164, Note_on_c, 0, 77, 45
2, 40216, Note_on_c, 0, 77, 0
2, 40242, Note_on_c, 0, 79, 72
2, 40290, Note_on_c, 0, 79, 0
2, 40308, Note_on_c, 0, 77, 57
2, 40372, Note_on_c, 0, 77, 0
2, 40386, Note_on_c, 0, 79, 68
2, 40430, Note_on_c, 0, 79, 0
2, 40474, Note_on_c, 0, 77, 58
2, 40480, Note_on_c, 0, 68, 31
2, 40489, Note_on_c, 0, 62, 7
2, 40500, Note_on_c, 0, 58, 17
2, 40522, Note_on_c, 0, 77, 0
2, 40540, Note_on_c, 0, 79, 73
2, 40547, Note_on_c, 0, 62, 0
2, 40568, Note_on_c, 0, 68, 0
2, 40592, Note_on_c, 0, 79, 0
2, 40620, Note_on_c, 0, 77, 46
2, 40644, Note_on_c, 0, 58, 0
2, 40662, Note_on_c, 0, 77, 0
2, 40678, Note_on_c, 0, 79, 80
2, 40768, Note_on_c, 0, 77, 44
2, 40794, Note_on_c, 0, 79, 0
2, 40866, Note_on_c, 0, 77, 0
2, 40880, Note_on_c, 0, 76, 67
2, 41006, Note_on_c, 0, 76, 0
2, 41014, Note_on_c, 0, 77, 71
2, 41122, Note_on_c, 0, 47, 24
2, 41182, Control_c, 0, 64, 0
2, 41256, Note_on_c, 0, 77, 0
2, 41256, Note_on_c, 0, 79, 69
2, 41414, Control_c, 0, 64, 127
2, 41417, Note_on_c, 0, 47, 0
2, 41530, Note_on_c, 0, 79, 0
2, 41778, Note_on_c, 0, 79, 72
2, 41814, Note_on_c, 0, 65, 15
2, 41834, Note_on_c, 0, 55, 21
2, 41918, Note_on_c, 0, 55, 0
2, 41982, Note_on_c, 0, 65, 0
2, 42316, Note_on_c, 0, 74, 61
2, 42334, Note_on_c, 0, 67, 24
2, 42342, Note_on_c, 0, 62, 22
2, 42346, Note_on_c, 0, 65, 13
2, 42444, Note_on_c, 0, 65, 0
2, 42448, Note_on_c, 0, 67, 0
2, 42458, Note_on_c, 0, 62, 0
2, 42476, Note_on_c, 0, 79, 0
2, 42842, Control_c, 0, 64, 0
2, 42862, Note_on_c, 0, 48, 33
2, 42872, Note_on_c, 0, 75, 51
2, 42884, Note_on_c, 0, 74, 0
2, 43058, Control_c, 0, 64, 127
2, 43092, Note_on_c, 0, 48, 0
2, 43378, Note_on_c, 0, 55, 29
2, 43388, Note_on_c, 0, 63, 18
2, 43534, Note_on_c, 0, 55, 0
2, 43574, Note_on_c, 0, 63, 0
2, 43888, Note_on_c, 0, 67, 23
2, 43896, Note_on_c, 0, 63, 21
2, 43912, Note_on_c, 0, 60, 20
2, 43992, Note_on_c, 0, 67, 0
2, 44012, Note_on_c, 0, 63, 0
2, 44060, Note_on_c, 0, 60, 0
2, 44456, Control_c, 0, 64, 0
2, 44472, Note_on_c, 0, 72, 37
2, 44488, Note_on_c, 0, 45, 17
2, 44502, Note_on_c, 0, 75, 0
2, 44686, Control_c, 0, 64, 127
2, 44722, Note_on_c, 0, 45, 0
2, 44994, Note_on_c, 0, 63, 28
2, 45004, Note_on_c, 0, 54, 31
2, 45080, Note_on_c, 0, 54, 0
2, 45162, Note_on_c, 0, 63, 0
2, 45600, Note_on_c, 0, 66, 17
2, 45604, Note_on_c, 0, 60, 18
2, 45607, Note_on_c, 0, 63, 18
2, 45706, Note_on_c, 0, 63, 0
2, 45714, Note_on_c, 0, 66, 0
2, 45774, Note_on_c, 0, 60, 0
2, 46038, Note_on_c, 0, 72, 0
2, 46172, Note_on_c, 0, 70, 64
2, 46220, Note_on_c, 0, 46, 23
2, 46254, Control_c, 0, 64, 0
2, 46438, Control_c, 0, 64, 127
2, 46490, Note_on_c, 0, 46, 0
2, 46586, Note_on_c, 0, 70, 0
2, 46886, Note_on_c, 0, 86, 89
2, 46894, Note_on_c, 0, 63, 34
2, 46914, Note_on_c, 0, 53, 41
2, 47030, Note_on_c, 0, 53, 0
2, 47138, Note_on_c, 0, 63, 0
2, 47466, Note_on_c, 0, 68, 43
2, 47476, Note_on_c, 0, 58, 26
2, 47478, Note_on_c, 0, 84, 95
2, 47479, Note_on_c, 0, 63, 39
2, 47564, Note_on_c, 0, 68, 0
2, 47606, Note_on_c, 0, 63, 0
2, 47610, Note_on_c, 0, 86, 0
2, 47658, Note_on_c, 0, 58, 0
2, 48010, Note_on_c, 0, 82, 79
2, 48036, Note_on_c, 0, 34, 47
2, 48108, Note_on_c, 0, 84, 0
2, 48174, Control_c, 0, 64, 0
2, 48316, Note_on_c, 0, 34, 0
2, 48344, Control_c, 0, 64, 127
2, 48428, Note_on_c, 0, 80, 81
2, 48480, Note_on_c, 0, 82, 0
2, 48628, Note_on_c, 0, 80, 0
2, 48724, Note_on_c, 0, 79, 86
2, 48760, Note_on_c, 0, 62, 37
2, 48778, Note_on_c, 0, 53, 50
2, 48846, Note_on_c, 0, 53, 0
2, 48854, Note_on_c, 0, 79, 0
2, 48930, Note_on_c, 0, 62, 0
2, 48996, Note_on_c, 0, 80, 84
2, 49048, Note_on_c, 0, 80, 0
2, 49154, Note_on_c, 0, 80, 65
2, 49176, Note_on_c, 0, 58, 23
2, 49286, Note_on_c, 0, 68, 26
2, 49300, Note_on_c, 0, 72, 64
2, 49330, Note_on_c, 0, 80, 0
2, 49430, Note_on_c, 0, 68, 0
2, 49600, Note_on_c, 0, 58, 0
2, 49634, Note_on_c, 0, 74, 73
2, 49708, Note_on_c, 0, 72, 0
2, 50064, Control_c, 0, 64, 0
2, 50066, Note_on_c, 0, 75, 60
2, 50086, Note_on_c, 0, 39, 36
2, 50089, Note_on_c, 0, 74, 0
2, 50278, Control_c, 0, 64, 127
2, 50304, Note_on_c, 0, 39, 0
2, 50716, Note_on_c, 0, 63, 30
2, 50734, Note_on_c, 0, 55, 26
2, 50866, Note_on_c, 0, 63, 0
2, 50868, Note_on_c, 0, 55, 0
2, 51210, Note_on_c, 0, 67, 26
2, 51218, Note_on_c, 0, 58, 20
2, 51224, Note_on_c, 0, 63, 18
2, 51302, Note_on_c, 0, 63, 0
2, 51362, Note_on_c, 0, 67, 0
2, 51480, Note_on_c, 0, 58, 0
2, 51704, Note_on_c, 0, 51, 35
2, 51868, Note_on_c, 0, 51, 0
2, 52300, Note_on_c, 0, 74, 63
2, 52332, Note_on_c, 0, 63, 25
2, 52340, Note_on_c, 0, 55, 21
2, 52362, Note_on_c, 0, 75, 0
2, 52454, Note_on_c, 0, 63, 0
2, 52528, Note_on_c, 0, 55, 0
2, 52810, Note_on_c, 0, 75, 68
2, 52822, Note_on_c, 0, 67, 30
2, 52832, Note_on_c, 0, 58, 25
2, 52834, Note_on_c, 0, 63, 20
2, 52878, Note_on_c, 0, 74, 0
2, 52894, Note_on_c, 0, 67, 0
2, 52928, Note_on_c, 0, 63, 0
2, 53052, Note_on_c, 0, 58, 0
2, 53306, Control_c, 0, 64, 0
2, 53310, Note_on_c, 0, 77, 64
2, 53312, Note_on_c, 0, 46, 28
2, 53372, Note_on_c, 0, 75, 0
2, 53536, Note_on_c, 0, 46, 0
2, 53536, Control_c, 0, 64, 127
2, 53808, Note_on_c, 0, 62, 30
2, 53818, Note_on_c, 0, 53, 37
2, 53918, Note_on_c, 0, 62, 0
2, 53942, Note_on_c, 0, 53, 0
2, 54294, Note_on_c, 0, 62, 19
2, 54300, Note_on_c, 0, 58, 30
2, 54300, Note_on_c, 0, 65, 32
2, 54430, Note_on_c, 0, 65, 0
2, 54442, Note_on_c, 0, 62, 0
2, 54564, Note_on_c, 0, 58, 0
2, 54756, Note_on_c, 0, 79, 81
2, 54780, Note_on_c, 0, 46, 43
2, 54886, Note_on_c, 0, 77, 0
2, 54912, Note_on_c, 0, 46, 0
2, 55260, Note_on_c, 0, 62, 40
2, 55263, Note_on_c, 0, 53, 58
2, 55432, Note_on_c, 0, 62, 0
2, 55442, Note_on_c, 0, 53, 0
2, 55726, Note_on_c, 0, 77, 82
2, 55750, Note_on_c, 0, 65, 37
2, 55764, Note_on_c, 0, 58, 25
2, 55767, Note_on_c, 0, 62, 35
2, 55818, Note_on_c, 0, 65, 0
2, 55828, Note_on_c, 0, 79, 0
2, 55852, Note_on_c, 0, 62, 0
2, 55946, Note_on_c, 0, 58, 0
2, 56116, Note_on_c, 0, 77, 0
2, 56208, Note_on_c, 0, 45, 37
2, 56210, Note_on_c, 0, 77, 52
2, 56240, Control_c, 0, 64, 0
2, 56456, Control_c, 0, 64, 127
2, 56468, Note_on_c, 0, 45, 0
2, 56718, Note_on_c, 0, 60, 17
2, 56738, Note_on_c, 0, 53, 27
2, 56880, Note_on_c, 0, 60, 0
2, 56904, Note_on_c, 0, 53, 0
2, 57256, Note_on_c, 0, 65, 22
2, 57274, Note_on_c, 0, 60, 21
2, 57392, Note_on_c, 0, 65, 0
2, 57452, Note_on_c, 0, 60, 0
2, 57766, Note_on_c, 0, 72, 39
2, 57788, Note_on_c, 0, 45, 17
2, 57920, Note_on_c, 0, 77, 0
2, 57936, Note_on_c, 0, 45, 0
2, 58304, Note_on_c, 0, 60, 10
2, 58307, Note_on_c, 0, 53, 40
2, 58448, Note_on_c, 0, 53, 0
2, 58520, Note_on_c, 0, 60, 0
2, 58826, Note_on_c, 0, 65, 22
2, 58828, Note_on_c, 0, 60, 27
2, 58936, Note_on_c, 0, 65, 0
2, 58996, Note_on_c, 0, 60, 0
2, 59278, Note_on_c, 0, 72, 0
2, 59564, Note_on_c, 0, 75, 47
2, 59608, Note_on_c, 0, 44, 35
2, 59620, Control_c, 0, 64, 0
2, 59836, Control_c, 0, 64, 127
2, 59886, Note_on_c, 0, 44, 0
2, 60030, Note_on_c, 0, 75, 0
2, 60106, Note_on_c, 0, 75, 56
2, 60156, Note_on_c, 0, 51, 32
2, 60158, Note_on_c, 0, 60, 31
2, 60252, Note_on_c, 0, 60, 0
2, 60298, Note_on_c, 0, 51, 0
2, 60416, Note_on_c, 0, 75, 0
2, 60568, Note_on_c, 0, 75, 54
2, 60616, Note_on_c, 0, 56, 26
2, 60620, Note_on_c, 0, 63, 22
2, 60634, Note_on_c, 0, 60, 13
2, 60686, Note_on_c, 0, 63, 0
2, 60716, Note_on_c, 0, 60, 0
2, 60780, Note_on_c, 0, 56, 0
2, 60962, Note_on_c, 0, 75, 0
2, 61138, Note_on_c, 0, 75, 40
2, 61160, Note_on_c, 0, 32, 20
2, 61250, Control_c, 0, 64, 0
2, 61418, Control_c, 0, 64, 127
2, 61434, Note_on_c, 0, 32, 0
2, 61820, Note_on_c, 0, 74, 42
2, 61858, Note_on_c, 0, 59, 17
2, 61860, Note_on_c, 0, 51, 17
2, 61890, Note_on_c, 0, 75, 0
2, 62038, Note_on_c, 0, 59, 0
2, 62050, Note_on_c, 0, 51, 0
2, 62152, Note_on_c, 0, 75, 47
2, 62196, Note_on_c, 0, 74, 0
2, 62372, Note_on_c, 0, 63, 18
2, 62378, Note_on_c, 0, 59, 5
2, 62380, Note_on_c, 0, 56, 15
2, 62500, Note_on_c, 0, 77, 54
2, 62508, Note_on_c, 0, 75, 0
2, 62520, Note_on_c, 0, 63, 0
2, 62592, Note_on_c, 0, 59, 0
2, 62706, Note_on_c, 0, 56, 0
2, 62770, Note_on_c, 0, 77, 0
2, 63096, Note_on_c, 0, 75, 47
2, 63226, Note_on_c, 0, 75, 0
2, 63286, Note_on_c, 0, 75, 68
2, 63291, Control_c, 0, 64, 0
2, 63312, Note_on_c, 0, 39, 24
2, 63492, Control_c, 0, 64, 127
2, 63502, Note_on_c, 0, 39, 0
2, 63958, Note_on_c, 0, 63, 34
2, 63978, Note_on_c, 0, 55, 26
2, 64092, Note_on_c, 0, 55, 0
2, 64104, Note_on_c, 0, 63, 0
2, 64436, Note_on_c, 0, 67, 33
2, 64450, Note_on_c, 0, 58, 24
2, 64456, Note_on_c, 0, 63, 27
2, 64538, Note_on_c, 0, 67, 0
2, 64546, Note_on_c, 0, 63, 0
2, 64604, Note_on_c, 0, 58, 0
2, 64854, Note_on_c, 0, 75, 0
2, 64882, Note_on_c, 0, 70, 55
2, 64896, Note_on_c, 0, 51, 24
2, 64954, Note_on_c, 0, 70, 0
2, 64964, Note_on_c, 0, 51, 0
2, 65390, Note_on_c, 0, 63, 39
2, 65402, Note_on_c, 0, 55, 34
2, 65526, Note_on_c, 0, 55, 0
2, 65544, Note_on_c, 0, 63, 0
2, 65888, Note_on_c, 0, 67, 47
2, 65898, Note_on_c, 0, 58, 29
2, 65904, Note_on_c, 0, 63, 28
2, 65964, Note_on_c, 0, 67, 0
2, 65964, Note_on_c, 0, 63, 0
2, 66040, Note_on_c, 0, 58, 0
2, 66520, Note_on_c, 0, 82, 86
2, 66532, Note_on_c, 0, 40, 64
2, 66566, Control_c, 0, 64, 0
2, 66752, Note_on_c, 0, 40, 0
2, 66764, Control_c, 0, 64, 127
2, 67050, Note_on_c, 0, 61, 58
2, 67060, Note_on_c, 0, 52, 65
2, 67120, Note_on_c, 0, 52, 0
2, 67196, Note_on_c, 0, 61, 0
2, 67514, Note_on_c, 0, 67, 61
2, 67517, Note_on_c, 0, 58, 37
2, 67524, Note_on_c, 0, 61, 51
2, 67598, Note_on_c, 0, 67, 0
2, 67652, Note_on_c, 0, 61, 0
2, 67682, Note_on_c, 0, 58, 0
2, 67962, Note_on_c, 0, 81, 89
2, 67980, Note_on_c, 0, 40, 68
2, 68010, Control_c, 0, 64, 0
2, 68052, Note_on_c, 0, 82, 0
2, 68164, Note_on_c, 0, 40, 0
2, 68210, Control_c, 0, 64, 127
2, 68424, Note_on_c, 0, 60, 60
2, 68432, Note_on_c, 0, 52, 51
2, 68512, Note_on_c, 0, 52, 0
2, 68566, Note_on_c, 0, 60, 0
2, 68910, Note_on_c, 0, 67, 64
2, 68912, Note_on_c, 0, 79, 95
2, 68928, Note_on_c, 0, 58, 40
2, 68928, Note_on_c, 0, 60, 47
2, 68998, Note_on_c, 0, 81, 0
2, 69008, Note_on_c, 0, 67, 0
2, 69074, Note_on_c, 0, 60, 0
2, 69100, Note_on_c, 0, 58, 0
2, 69364, Note_on_c, 0, 77, 95
2, 69372, Note_on_c, 0, 69, 62
2, 69375, Note_on_c, 0, 41, 63
2, 69392, Control_c, 0, 64, 0
2, 69424, Note_on_c, 0, 79, 0
2, 69554, Note_on_c, 0, 41, 0
2, 69592, Control_c, 0, 64, 127
2, 69792, Note_on_c, 0, 63, 56
2, 69808, Note_on_c, 0, 53, 69
2, 69884, Note_on_c, 0, 53, 0
2, 69976, Note_on_c, 0, 63, 0
2, 70010, Note_on_c, 0, 69, 0
2, 70258, Note_on_c, 0, 69, 65
2, 70268, Note_on_c, 0, 63, 62
2, 70268, Note_on_c, 0, 60, 64
2, 70394, Note_on_c, 0, 69, 0
2, 70398, Note_on_c, 0, 63, 0
2, 70410, Note_on_c, 0, 60, 0
2, 70712, Note_on_c, 0, 70, 68
2, 70718, Note_on_c, 0, 74, 87
2, 70720, Note_on_c, 0, 43, 53
2, 70776, Control_c, 0, 64, 0
2, 70890, Note_on_c, 0, 77, 0
2, 70962, Note_on_c, 0, 43, 0
2, 70976, Control_c, 0, 64, 127
2, 71154, Note_on_c, 0, 62, 62
2, 71168, Note_on_c, 0, 55, 52
2, 71266, Note_on_c, 0, 62, 0
2, 71298, Note_on_c, 0, 55, 0
2, 71384, Note_on_c, 0, 70, 0
2, 71628, Note_on_c, 0, 70, 67
2, 71648, Note_on_c, 0, 58, 49
2, 71656, Note_on_c, 0, 62, 55
2, 71710, Note_on_c, 0, 70, 0
2, 71747, Note_on_c, 0, 62, 0
2, 71858, Note_on_c, 0, 58, 0
2, 72248, Note_on_c, 0, 75, 79
2, 72251, Note_on_c, 0, 67, 64
2, 72274, Note_on_c, 0, 36, 49
2, 72296, Note_on_c, 0, 74, 0
2, 72296, Control_c, 0, 64, 0
2, 72498, Note_on_c, 0, 36, 0
2, 72512, Control_c, 0, 64, 127
2, 72744, Note_on_c, 0, 67, 0
2, 72794, Note_on_c, 0, 63, 64
2, 72804, Note_on_c, 0, 55, 37
2, 72972, Note_on_c, 0, 55, 0
2, 73002, Note_on_c, 0, 63, 0
2, 73282, Note_on_c, 0, 67, 62
2, 73292, Note_on_c, 0, 60, 52
2, 73300, Note_on_c, 0, 63, 53
2, 73391, Note_on_c, 0, 67, 0
2, 73418, Note_on_c, 0, 60, 0
2, 73428, Note_on_c, 0, 63, 0
2, 73618, Note_on_c, 0, 75, 0
2, 73712, Note_on_c, 0, 74, 87
2, 73714, Note_on_c, 0, 69, 60
2, 73740, Note_on_c, 0, 41, 63
2, 73756, Control_c, 0, 64, 0
2, 73924, Note_on_c, 0, 41, 0
2, 73956, Control_c, 0, 64, 127
2, 73998, Note_on_c, 0, 69, 0
2, 74084, Note_on_c, 0, 74, 0
2, 74140, Note_on_c, 0, 69, 59
2, 74140, Note_on_c, 0, 72, 77
2, 74142, Note_on_c, 0, 53, 59
2, 74154, Note_on_c, 0, 63, 62
2, 74350, Note_on_c, 0, 63, 0
2, 74414, Note_on_c, 0, 69, 0
2, 74442, Note_on_c, 0, 53, 0
2, 74588, Note_on_c, 0, 74, 84
2, 74590, Note_on_c, 0, 72, 0
2, 74592, Note_on_c, 0, 69, 67
2, 74600, Note_on_c, 0, 65, 44
2, 74604, Note_on_c, 0, 63, 53
2, 74608, Note_on_c, 0, 60, 39
2, 74702, Note_on_c, 0, 60, 0
2, 74754, Note_on_c, 0, 65, 0
2, 74834, Note_on_c, 0, 69, 0
2, 74910, Note_on_c, 0, 63, 0
2, 74956, Note_on_c, 0, 74, 0
2, 75108, Note_on_c, 0, 70, 66
2, 75120, Note_on_c, 0, 65, 57
2, 75122, Note_on_c, 0, 58, 29
2, 75126, Note_on_c, 0, 62, 38
2, 75278, Control_c, 0, 64, 0
2, 75410, Note_on_c, 0, 62, 0
2, 75478, Control_c, 0, 64, 127
2, 75536, Note_on_c, 0, 70, 0
2, 75538, Note_on_c, 0, 65, 0
2, 75540, Note_on_c, 0, 58, 0
2, 75690, Note_on_c, 0, 63, 54
2, 75693, Note_on_c, 0, 66, 55
2, 75693, Note_on_c, 0, 71, 85
2, 75694, Note_on_c, 0, 57, 35
2, 75954, Control_c, 0, 64, 0
2, 76058, Note_on_c, 0, 57, 0
2, 76078, Note_on_c, 0, 71, 0
2, 76092, Control_c, 0, 64, 127
2, 76104, Note_on_c, 0, 63, 0
2, 76128, Note_on_c, 0, 66, 0
2, 76218, Note_on_c, 0, 71, 91
2, 76230, Note_on_c, 0, 56, 65
2, 76234, Note_on_c, 0, 64, 65
2, 76504, Note_on_c, 0, 64, 0
2, 76572, Note_on_c, 0, 71, 0
2, 76664, Note_on_c, 0, 70, 65
2, 76664, Note_on_c, 0, 72, 81
2, 76676, Note_on_c, 0, 64, 63
2, 76682, Note_on_c, 0, 56, 0
2, 76682, Note_on_c, 0, 55, 72
2, 76738, Control_c, 0, 64, 0
2, 76924, Control_c, 0, 64, 127
2, 76964, Note_on_c, 0, 64, 0
2, 76974, Note_on_c, 0, 72, 0
2, 76980, Note_on_c, 0, 55, 0
2, 77056, Note_on_c, 0, 70, 0
2, 77126, Note_on_c, 0, 72, 87
2, 77126, Note_on_c, 0, 63, 70
2, 77126, Note_on_c, 0, 65, 70
2, 77129, Note_on_c, 0, 69, 67
2, 77134, Note_on_c, 0, 60, 45
2, 77136, Note_on_c, 0, 53, 81
2, 77244, Control_c, 0, 64, 0
2, 77444, Control_c, 0, 64, 127
2, 77488, Note_on_c, 0, 65, 0
2, 77494, Note_on_c, 0, 53, 0
2, 77546, Note_on_c, 0, 69, 0
2, 77578, Note_on_c, 0, 63, 0
2, 77588, Note_on_c, 0, 72, 0
2, 77596, Note_on_c, 0, 60, 0
2, 77664, Note_on_c, 0, 68, 78
2, 77668, Note_on_c, 0, 74, 95
2, 77674, Note_on_c, 0, 65, 62
2, 77680, Note_on_c, 0, 58, 55
2, 77736, Control_c, 0, 64, 0
2, 77936, Control_c, 0, 64, 127
2, 77938, Note_on_c, 0, 65, 0
2, 78062, Note_on_c, 0, 68, 0
2, 78062, Note_on_c, 0, 58, 0
2, 78062, Note_on_c, 0, 67, 76
2, 78065, Note_on_c, 0, 74, 0
2, 78158, Note_on_c, 0, 70, 65
2, 78266, Note_on_c, 0, 75, 62
2, 78330, Note_on_c, 0, 39, 69
2, 78396, Control_c, 0, 64, 0
2, 78460, Note_on_c, 0, 79, 97
2, 78502, Note_on_c, 0, 75, 0
2, 78580, Control_c, 0, 64, 127
2, 78610, Note_on_c, 0, 39, 0
2, 78722, Note_on_c, 0, 67, 0
2, 79024, Note_on_c, 0, 63, 72
2, 79040, Note_on_c, 0, 55, 52
2, 79102, Note_on_c, 0, 70, 0
2, 79316, Note_on_c, 0, 63, 0
2, 79484, Note_on_c, 0, 55, 0
2, 79504, Note_on_c, 0, 69, 73
2, 79508, Note_on_c, 0, 58, 41
2, 79516, Note_on_c, 0, 67, 57
2, 79526, Note_on_c, 0, 63, 44
2, 79536, Note_on_c, 0, 79, 0
2, 79604, Note_on_c, 0, 63, 0
2, 79668, Note_on_c, 0, 67, 0
2, 79772, Note_on_c, 0, 70, 75
2, 79840, Note_on_c, 0, 58, 0
2, 79842, Note_on_c, 0, 69, 0
2, 79984, Note_on_c, 0, 51, 54
2, 79994, Note_on_c, 0, 71, 89
2, 80026, Control_c, 0, 64, 0
2, 80040, Note_on_c, 0, 70, 0
2, 80194, Control_c, 0, 64, 127
2, 80204, Note_on_c, 0, 51, 0
2, 80207, Note_on_c, 0, 70, 78
2, 80258, Note_on_c, 0, 71, 0
2, 80406, Note_on_c, 0, 73, 76
2, 80410, Note_on_c, 0, 62, 43
2, 80412, Note_on_c, 0, 56, 33
2, 80474, Note_on_c, 0, 70, 0
2, 80532, Control_c, 0, 64, 0
2, 80640, Control_c, 0, 64, 127
2, 80660, Note_on_c, 0, 74, 91
2, 80682, Note_on_c, 0, 62, 0
2, 80708, Note_on_c, 0, 73, 0
2, 80858, Note_on_c, 0, 58, 26
2, 80932, Note_on_c, 0, 62, 14
2, 81020, Note_on_c, 0, 68, 31
2, 81054, Control_c, 0, 64, 0
2, 81056, Note_on_c, 0, 79, 72
2, 81082, Note_on_c, 0, 74, 0
2, 81144, Note_on_c, 0, 56, 0
2, 81270, Control_c, 0, 64, 127
2, 81390, Note_on_c, 0, 62, 0
2, 81414, Note_on_c, 0, 68, 0
2, 81490, Note_on_c, 0, 58, 0
2, 81638, Note_on_c, 0, 77, 61
2, 81668, Note_on_c, 0, 79, 0
2, 81690, Note_on_c, 0, 77, 0
2, 81804, Note_on_c, 0, 77, 43
2, 81832, Note_on_c, 0, 51, 31
2, 81854, Control_c, 0, 64, 0
2, 82054, Control_c, 0, 64, 127
2, 82096, Note_on_c, 0, 51, 0
2, 82396, Note_on_c, 0, 63, 22
2, 82428, Note_on_c, 0, 55, 22
2, 82590, Note_on_c, 0, 63, 0
2, 82614, Note_on_c, 0, 55, 0
2, 82916, Note_on_c, 0, 75, 36
2, 82942, Note_on_c, 0, 67, 22
2, 82948, Note_on_c, 0, 58, 18
2, 82958, Note_on_c, 0, 63, 26
2, 83020, Note_on_c, 0, 77, 0
2, 83092, Note_on_c, 0, 67, 0
2, 83138, Note_on_c, 0, 63, 0
2, 83200, Note_on_c, 0, 58, 0
2, 83448, Note_on_c, 0, 50, 37
2, 83700, Note_on_c, 0, 50, 0
2, 83740, Note_on_c, 0, 77, 51
2, 83748, Note_on_c, 0, 75, 0
2, 83792, Note_on_c, 0, 77, 0
2, 83862, Note_on_c, 0, 75, 48
2, 83916, Note_on_c, 0, 75, 0
2, 83942, Note_on_c, 0, 77, 62
2, 83998, Note_on_c, 0, 75, 55
2, 84004, Note_on_c, 0, 63, 30
2, 84008, Note_on_c, 0, 55, 33
2, 84044, Note_on_c, 0, 77, 0
2, 84152, Note_on_c, 0, 55, 0
2, 84178, Note_on_c, 0, 63, 0
2, 84242, Note_on_c, 0, 74, 78
2, 84286, Note_on_c, 0, 75, 0
2, 84454, Note_on_c, 0, 75, 79
2, 84464, Note_on_c, 0, 67, 42
2, 84464, Note_on_c, 0, 58, 23
2, 84480, Note_on_c, 0, 63, 41
2, 84512, Note_on_c, 0, 74, 0
2, 84532, Note_on_c, 0, 67, 0
2, 84568, Note_on_c, 0, 63, 0
2, 84618, Note_on_c, 0, 58, 0
2, 84678, Note_on_c, 0, 77, 76
2, 84748, Note_on_c, 0, 75, 0
2, 84918, Note_on_c, 0, 79, 67
2, 84918, Note_on_c, 0, 48, 33
2, 84926, Control_c, 0, 64, 0
2, 84931, Note_on_c, 0, 77, 0
2, 85110, Control_c, 0, 64, 127
2, 85142, Note_on_c, 0, 48, 0
2, 85146, Note_on_c, 0, 71, 63
2, 85156, Note_on_c, 0, 79, 0
2, 85338, Note_on_c, 0, 71, 0
2, 85412, Note_on_c, 0, 72, 69
2, 85422, Note_on_c, 0, 55, 28
2, 85424, Note_on_c, 0, 64, 21
2, 85514, Note_on_c, 0, 64, 0
2, 85562, Note_on_c, 0, 72, 0
2, 85574, Note_on_c, 0, 55, 0
2, 85656, Note_on_c, 0, 73, 78
2, 85890, Note_on_c, 0, 72, 88
2, 85908, Note_on_c, 0, 67, 37
2, 85916, Note_on_c, 0, 73, 0
2, 85920, Note_on_c, 0, 64, 21
2, 85926, Note_on_c, 0, 58, 24
2, 85980, Note_on_c, 0, 64, 0
2, 85984, Note_on_c, 0, 67, 0
2, 86010, Note_on_c, 0, 72, 0
2, 86052, Note_on_c, 0, 58, 0
2, 86098, Note_on_c, 0, 77, 92
2, 86340, Note_on_c, 0, 76, 84
2, 86354, Note_on_c, 0, 77, 0
2, 86354, Control_c, 0, 64, 0
2, 86362, Note_on_c, 0, 48, 39
2, 86478, Control_c, 0, 64, 127
2, 86490, Note_on_c, 0, 76, 0
2, 86530, Note_on_c, 0, 48, 0
2, 86572, Note_on_c, 0, 80, 88
2, 86808, Note_on_c, 0, 64, 36
2, 86814, Note_on_c, 0, 55, 30
2, 86826, Note_on_c, 0, 79, 94
2, 86830, Note_on_c, 0, 80, 0
2, 86910, Control_c, 0, 64, 0
2, 86956, Note_on_c, 0, 79, 0
2, 87000, Control_c, 0, 64, 127
2, 87062, Note_on_c, 0, 55, 0
2, 87066, Note_on_c, 0, 64, 0
2, 87076, Note_on_c, 0, 85, 90
2, 87316, Note_on_c, 0, 60, 28
2, 87321, Note_on_c, 0, 70, 30
2, 87333, Note_on_c, 0, 64, 15
2, 87400, Note_on_c, 0, 84, 91
2, 87417, Note_on_c, 0, 70, 0
2, 87459, Note_on_c, 0, 64, 0
2, 87468, Note_on_c, 0, 85, 0
2, 87578, Note_on_c, 0, 60, 0
2, 87686, Note_on_c, 0, 79, 91
2, 87688, Note_on_c, 0, 84, 0
2, 88078, Note_on_c, 0, 82, 70
2, 88096, Note_on_c, 0, 41, 40
2, 88108, Control_c, 0, 64, 0
2, 88172, Note_on_c, 0, 79, 0
2, 88322, Control_c, 0, 64, 127
2, 88340, Note_on_c, 0, 41, 0
2, 88676, Note_on_c, 0, 61, 30
2, 88700, Note_on_c, 0, 53, 36
2, 88828, Note_on_c, 0, 53, 0
2, 88878, Note_on_c, 0, 61, 0
2, 89208, Note_on_c, 0, 64, 41
2, 89208, Note_on_c, 0, 61, 30
2, 89211, Note_on_c, 0, 58, 22
2, 89376, Note_on_c, 0, 64, 0
2, 89394, Note_on_c, 0, 61, 0
2, 89426, Note_on_c, 0, 58, 0
2, 89768, Note_on_c, 0, 80, 54
2, 89794, Note_on_c, 0, 41, 29
2, 89844, Control_c, 0, 64, 0
2, 89924, Note_on_c, 0, 82, 0
2, 90056, Note_on_c, 0, 41, 0
2, 90059, Control_c, 0, 64, 127
2, 90408, Note_on_c, 0, 60, 24
2, 90416, Note_on_c, 0, 53, 17
2, 90568, Note_on_c, 0, 60, 0
2, 90586, Note_on_c, 0, 53, 0
2, 91076, Note_on_c, 0, 80, 0
2, 91082, Note_on_c, 0, 79, 42
2, 91108, Note_on_c, 0, 56, 17
2, 91120, Note_on_c, 0, 60, 2
2, 91128, Note_on_c, 0, 65, 8
2, 91210, Note_on_c, 0, 60, 0
2, 91268, Note_on_c, 0, 65, 0
2, 91468, Note_on_c, 0, 56, 0
2, 91668, Note_on_c, 0, 46, 24
2, 91704, Note_on_c, 0, 77, 36
2, 91716, Note_on_c, 0, 79, 0
2, 91732, Control_c, 0, 64, 0
2, 91918, Control_c, 0, 64, 127
2, 91958, Note_on_c, 0, 77, 0
2, 91972, Note_on_c, 0, 79, 42
2, 91974, Note_on_c, 0, 46, 0
2, 92038, Note_on_c, 0, 79, 0
2, 92072, Note_on_c, 0, 77, 31
2, 92128, Note_on_c, 0, 77, 0
2, 92156, Note_on_c, 0, 79, 41
2, 92216, Note_on_c, 0, 79, 0
2, 92218, Note_on_c, 0, 77, 43
2, 92240, Note_on_c, 0, 62, 28
2, 92266, Note_on_c, 0, 53, 24
2, 92284, Note_on_c, 0, 77, 0
2, 92292, Note_on_c, 0, 79, 59
2, 92322, Note_on_c, 0, 62, 0
2, 92342, Note_on_c, 0, 53, 0
2, 92354, Note_on_c, 0, 79, 0
2, 92380, Note_on_c, 0, 77, 50
2, 92434, Note_on_c, 0, 77, 0
2, 92462, Note_on_c, 0, 79, 72
2, 92512, Note_on_c, 0, 79, 0
2, 92546, Note_on_c, 0, 77, 53
2, 92592, Note_on_c, 0, 77, 0
2, 92612, Note_on_c, 0, 79, 72
2, 92656, Note_on_c, 0, 79, 0
2, 92702, Note_on_c, 0, 68, 36
2, 92706, Note_on_c, 0, 77, 42
2, 92720, Note_on_c, 0, 62, 10
2, 92726, Note_on_c, 0, 58, 21
2, 92754, Note_on_c, 0, 77, 0
2, 92762, Note_on_c, 0, 79, 70
2, 92774, Note_on_c, 0, 68, 0
2, 92794, Note_on_c, 0, 62, 0
2, 92812, Note_on_c, 0, 79, 0
2, 92826, Note_on_c, 0, 77, 57
2, 92884, Note_on_c, 0, 77, 0
2, 92886, Note_on_c, 0, 58, 0
2, 92902, Note_on_c, 0, 79, 78
2, 92982, Note_on_c, 0, 77, 59
2, 93016, Note_on_c, 0, 79, 0
2, 93076, Note_on_c, 0, 77, 0
2, 93096, Note_on_c, 0, 76, 68
2, 93212, Note_on_c, 0, 76, 0
2, 93212, Note_on_c, 0, 77, 68
2, 93276, Note_on_c, 0, 77, 0
2, 93290, Note_on_c, 0, 47, 34
2, 93330, Control_c, 0, 64, 0
2, 93402, Note_on_c, 0, 79, 72
2, 93578, Control_c, 0, 64, 127
2, 93598, Note_on_c, 0, 47, 0
2, 93712, Note_on_c, 0, 79, 0
2, 93934, Note_on_c, 0, 79, 70
2, 93994, Note_on_c, 0, 65, 14
2, 94002, Note_on_c, 0, 55, 10
2, 94132, Note_on_c, 0, 55, 0
2, 94140, Note_on_c, 0, 65, 0
2, 94506, Note_on_c, 0, 74, 58
2, 94538, Note_on_c, 0, 67, 16
2, 94548, Note_on_c, 0, 65, 11
2, 94550, Note_on_c, 0, 62, 18
2, 94624, Note_on_c, 0, 79, 0
2, 94640, Note_on_c, 0, 65, 0
2, 94644, Note_on_c, 0, 67, 0
2, 94666, Note_on_c, 0, 62, 0
2, 95012, Note_on_c, 0, 75, 48
2, 95015, Note_on_c, 0, 74, 0
2, 95022, Control_c, 0, 64, 0
2, 95024, Note_on_c, 0, 48, 34
2, 95236, Control_c, 0, 64, 127
2, 95272, Note_on_c, 0, 48, 0
2, 95570, Note_on_c, 0, 55, 15
2, 95576, Note_on_c, 0, 63, 21
2, 95758, Note_on_c, 0, 55, 0
2, 95760, Note_on_c, 0, 63, 0
2, 96110, Note_on_c, 0, 67, 26
2, 96124, Note_on_c, 0, 63, 13
2, 96128, Note_on_c, 0, 60, 19
2, 96231, Note_on_c, 0, 67, 0
2, 96262, Note_on_c, 0, 63, 0
2, 96292, Note_on_c, 0, 60, 0
2, 96666, Note_on_c, 0, 45, 26
2, 96671, Note_on_c, 0, 72, 35
2, 96696, Control_c, 0, 64, 0
2, 96736, Note_on_c, 0, 75, 0
2, 96912, Control_c, 0, 64, 127
2, 96954, Note_on_c, 0, 45, 0
2, 97184, Note_on_c, 0, 63, 24
2, 97198, Note_on_c, 0, 54, 16
2, 97394, Note_on_c, 0, 54, 0
2, 97396, Note_on_c, 0, 63, 0
2, 97824, Note_on_c, 0, 66, 14
2, 97842, Note_on_c, 0, 63, 23
2, 97845, Note_on_c, 0, 60, 24
2, 97966, Note_on_c, 0, 66, 0
2, 98040, Note_on_c, 0, 63, 0
2, 98064, Note_on_c, 0, 60, 0
2, 98250, Note_on_c, 0, 72, 0
2, 98488, Note_on_c, 0, 70, 47
2, 98540, Note_on_c, 0, 46, 19
2, 98556, Control_c, 0, 64, 0
2, 98756, Control_c, 0, 64, 127
2, 98798, Note_on_c, 0, 46, 0
2, 98916, Note_on_c, 0, 70, 0
2, 99162, Note_on_c, 0, 86, 86
2, 99184, Note_on_c, 0, 63, 38
2, 99210, Note_on_c, 0, 53, 28
2, 99320, Note_on_c, 0, 53, 0
2, 99350, Note_on_c, 0, 63, 0
2, 99736, Note_on_c, 0, 85, 80
2, 99738, Note_on_c, 0, 68, 44
2, 99742, Note_on_c, 0, 58, 26
2, 99754, Note_on_c, 0, 63, 29
2, 99772, Note_on_c, 0, 86, 0
2, 99814, Note_on_c, 0, 68, 0
2, 99856, Note_on_c, 0, 63, 0
2, 99940, Note_on_c, 0, 58, 0
2, 100268, Note_on_c, 0, 85, 0
2, 100272, Note_on_c, 0, 84, 74
2, 100314, Note_on_c, 0, 34, 37
2, 100492, Control_c, 0, 64, 0
2, 100574, Note_on_c, 0, 83, 94
2, 100616, Note_on_c, 0, 34, 0
2, 100622, Note_on_c, 0, 84, 0
2, 100630, Control_c, 0, 64, 127
2, 100796, Note_on_c, 0, 82, 71
2, 100816, Note_on_c, 0, 83, 0
2, 100970, Note_on_c, 0, 82, 0
2, 100984, Note_on_c, 0, 81, 54
2, 100988, Note_on_c, 0, 62, 30
2, 100996, Note_on_c, 0, 53, 38
2, 101127, Note_on_c, 0, 53, 0
2, 101128, Note_on_c, 0, 80, 65
2, 101144, Note_on_c, 0, 81, 0
2, 101158, Note_on_c, 0, 62, 0
2, 101254, Note_on_c, 0, 77, 70
2, 101264, Note_on_c, 0, 80, 0
2, 101370, Note_on_c, 0, 74, 75
2, 101390, Note_on_c, 0, 77, 0
2, 101410, Note_on_c, 0, 58, 23
2, 101460, Note_on_c, 0, 74, 0
2, 101494, Note_on_c, 0, 71, 70
2, 101500, Note_on_c, 0, 62, 28
2, 101626, Note_on_c, 0, 68, 28
2, 101628, Note_on_c, 0, 70, 66
2, 101646, Note_on_c, 0, 71, 0
2, 101788, Note_on_c, 0, 74, 65
2, 101806, Note_on_c, 0, 70, 0
2, 101874, Control_c, 0, 64, 0
2, 101954, Note_on_c, 0, 74, 0
2, 101954, Note_on_c, 0, 79, 71
2, 102044, Note_on_c, 0, 68, 0
2, 102058, Control_c, 0, 64, 127
2, 102066, Note_on_c, 0, 62, 0
2, 102166, Note_on_c, 0, 77, 61
2, 102168, Note_on_c, 0, 58, 0
2, 102188, Note_on_c, 0, 79, 0
2, 102344, Note_on_c, 0, 77, 0
2, 102368, Note_on_c, 0, 75, 60
2, 102490, Note_on_c, 0, 75, 0
2, 102566, Note_on_c, 0, 39, 29
2, 102570, Note_on_c, 0, 75, 46
2, 102612, Control_c, 0, 64, 0
2, 102816, Note_on_c, 0, 39, 0
2, 102828, Control_c, 0, 64, 127
2, 103250, Note_on_c, 0, 63, 24
2, 103262, Note_on_c, 0, 55, 22
2, 103372, Note_on_c, 0, 55, 0
2, 103426, Note_on_c, 0, 63, 0
2, 103776, Note_on_c, 0, 67, 26
2, 103782, Note_on_c, 0, 63, 10
2, 103784, Note_on_c, 0, 58, 10
2, 103896, Note_on_c, 0, 63, 0
2, 103910, Note_on_c, 0, 67, 0
2, 104058, Note_on_c, 0, 58, 0
2, 104260, Note_on_c, 0, 51, 32
2, 104410, Note_on_c, 0, 51, 0
2, 104898, Note_on_c, 0, 74, 48
2, 104906, Note_on_c, 0, 63, 25
2, 104916, Note_on_c, 0, 55, 19
2, 104930, Note_on_c, 0, 75, 0
2, 105054, Note_on_c, 0, 63, 0
2, 105072, Note_on_c, 0, 55, 0
2, 105408, Note_on_c, 0, 75, 46
2, 105420, Note_on_c, 0, 58, 18
2, 105432, Note_on_c, 0, 67, 15
2, 105438, Note_on_c, 0, 63, 17
2, 105450, Note_on_c, 0, 74, 0
2, 105512, Note_on_c, 0, 67, 0
2, 105532, Note_on_c, 0, 63, 0
2, 105632, Note_on_c, 0, 58, 0
2, 106042, Note_on_c, 0, 77, 47
2, 106050, Note_on_c, 0, 46, 17
2, 106054, Control_c, 0, 64, 0
2, 106074, Note_on_c, 0, 75, 0
2, 106284, Control_c, 0, 64, 127
2, 106342, Note_on_c, 0, 46, 0
2, 106640, Note_on_c, 0, 62, 12
2, 106658, Note_on_c, 0, 53, 31
2, 106792, Note_on_c, 0, 62, 0
2, 106792, Note_on_c, 0, 53, 0
2, 107146, Note_on_c, 0, 58, 18
2, 107150, Note_on_c, 0, 65, 17
2, 107152, Note_on_c, 0, 62, 19
2, 107266, Note_on_c, 0, 65, 0
2, 107308, Note_on_c, 0, 62, 0
2, 107380, Note_on_c, 0, 58, 0
2, 107604, Note_on_c, 0, 46, 24
2, 107620, Note_on_c, 0, 79, 73
2, 107718, Note_on_c, 0, 77, 0
2, 107796, Note_on_c, 0, 46, 0
2, 108136, Note_on_c, 0, 62, 28
2, 108148, Note_on_c, 0, 53, 44
2, 108340, Note_on_c, 0, 62, 0
2, 108350, Note_on_c, 0, 53, 0
2, 108642, Note_on_c, 0, 77, 77
2, 108666, Note_on_c, 0, 58, 25
2, 108678, Note_on_c, 0, 62, 33
2, 108682, Note_on_c, 0, 65, 24
2, 108738, Note_on_c, 0, 79, 0
2, 108744, Note_on_c, 0, 65, 0
2, 108750, Note_on_c, 0, 62, 0
2, 108850, Note_on_c, 0, 58, 0
2, 109030, Note_on_c, 0, 77, 0
2, 109108, Note_on_c, 0, 77, 56
2, 109130, Note_on_c, 0, 45, 34
2, 109172, Control_c, 0, 64, 0
2, 109380, Note_on_c, 0, 45, 0
2, 109388, Control_c, 0, 64, 127
2, 109708, Note_on_c, 0, 60, 16
2, 109716, Note_on_c, 0, 53, 18
2, 109882, Note_on_c, 0, 53, 0
2, 109912, Note_on_c, 0, 60, 0
2, 110244, Note_on_c, 0, 65, 21
2, 110244, Note_on_c, 0, 60, 26
2, 110346, Note_on_c, 0, 60, 0
2, 110360, Note_on_c, 0, 65, 0
2, 110700, Note_on_c, 0, 72, 50
2, 110722, Note_on_c, 0, 45, 16
2, 110818, Note_on_c, 0, 77, 0
2, 110868, Note_on_c, 0, 45, 0
2, 111232, Note_on_c, 0, 60, 16
2, 111242, Note_on_c, 0, 53, 26
2, 111338, Note_on_c, 0, 53, 0
2, 111418, Note_on_c, 0, 60, 0
2, 111780, Note_on_c, 0, 65, 20
2, 111788, Note_on_c, 0, 60, 14
2, 111894, Note_on_c, 0, 65, 0
2, 111980, Note_on_c, 0, 60, 0
2, 112120, Note_on_c, 0, 72, 0
2, 112543, Note_on_c, 0, 75, 33
2, 112554, Control_c, 0, 64, 0
2, 112576, Note_on_c, 0, 44, 32
2, 112798, Control_c, 0, 64, 127
2, 112834, Note_on_c, 0, 44, 0
2, 112938, Note_on_c, 0, 75, 0
2, 113040, Note_on_c, 0, 75, 40
2, 113152, Note_on_c, 0, 60, 25
2, 113160, Note_on_c, 0, 51, 16
2, 113260, Note_on_c, 0, 51, 0
2, 113296, Note_on_c, 0, 75, 0
2, 113298, Note_on_c, 0, 60, 0
2, 113424, Note_on_c, 0, 75, 38
2, 113630, Note_on_c, 0, 75, 0
2, 113638, Note_on_c, 0, 56, 19
2, 113656, Note_on_c, 0, 63, 11
2, 113664, Note_on_c, 0, 60, 8
2, 113736, Note_on_c, 0, 63, 0
2, 113792, Note_on_c, 0, 60, 0
2, 113840, Note_on_c, 0, 75, 41
2, 113850, Note_on_c, 0, 56, 0
2, 114116, Note_on_c, 0, 75, 0
2, 114254, Note_on_c, 0, 32, 28
2, 114298, Note_on_c, 0, 75, 43
2, 114336, Control_c, 0, 64, 0
2, 114534, Note_on_c, 0, 32, 0
2, 114534, Control_c, 0, 64, 127
2, 114992, Note_on_c, 0, 74, 47
2, 115030, Note_on_c, 0, 59, 21
2, 115033, Note_on_c, 0, 51, 19
2, 115040, Note_on_c, 0, 75, 0
2, 115182, Note_on_c, 0, 59, 0
2, 115258, Note_on_c, 0, 75, 49
2, 115300, Note_on_c, 0, 74, 0
2, 115538, Note_on_c, 0, 56, 13
2, 115540, Note_on_c, 0, 63, 23
2, 115542, Note_on_c, 0, 59, 13
2, 115602, Note_on_c, 0, 75, 0
2, 115612, Note_on_c, 0, 77, 50
2, 115718, Note_on_c, 0, 63, 0
2, 115736, Note_on_c, 0, 59, 0
2, 115878, Note_on_c, 0, 56, 0
2, 115932, Note_on_c, 0, 51, 0
2, 116034, Note_on_c, 0, 77, 0
2, 116222, Note_on_c, 0, 75, 38
2, 116280, Note_on_c, 0, 75, 0
2, 116368, Note_on_c, 0, 39, 21
2, 116394, Note_on_c, 0, 75, 26
2, 116410, Control_c, 0, 64, 0
2, 116608, Note_on_c, 0, 39, 0
2, 116624, Control_c, 0, 64, 127
2, 116988, Note_on_c, 0, 63, 18
2, 117012, Note_on_c, 0, 55, 27
2, 117126, Note_on_c, 0, 55, 0
2, 117162, Note_on_c, 0, 63, 0
2, 117480, Note_on_c, 0, 67, 31
2, 117482, Note_on_c, 0, 58, 22
2, 117496, Note_on_c, 0, 63, 25
2, 117632, Note_on_c, 0, 67, 0
2, 117694, Note_on_c, 0, 63, 0
2, 117778, Note_on_c, 0, 58, 0
2, 117952, Note_on_c, 0, 70, 36
2, 117978, Note_on_c, 0, 51, 35
2, 118154, Note_on_c, 0, 75, 0
2, 118154, Note_on_c, 0, 51, 0
2, 118440, Note_on_c, 0, 63, 42
2, 118452, Note_on_c, 0, 55, 41
2, 118562, Note_on_c, 0, 55, 0
2, 118620, Note_on_c, 0, 63, 0
2, 118808, Note_on_c, 0, 70, 0
2, 118914, Note_on_c, 0, 67, 58
2, 118914, Note_on_c, 0, 58, 34
2, 118920, Note_on_c, 0, 63, 42
2, 118968, Note_on_c, 0, 67, 0
2, 118982, Note_on_c, 0, 63, 0
2, 119070, Note_on_c, 0, 58, 0
2, 119540, Note_on_c, 0, 82, 89
2, 119540, Note_on_c, 0, 40, 72
2, 119576, Control_c, 0, 64, 0
2, 119762, Note_on_c, 0, 40, 0
2, 119774, Control_c, 0, 64, 127
2, 120018, Note_on_c, 0, 61, 62
2, 120036, Note_on_c, 0, 52, 48
2, 120096, Note_on_c, 0, 52, 0
2, 120188, Note_on_c, 0, 61, 0
2, 120468, Note_on_c, 0, 67, 64
2, 120471, Note_on_c, 0, 58, 36
2, 120482, Note_on_c, 0, 61, 48
2, 120538, Note_on_c, 0, 67, 0
2, 120616, Note_on_c, 0, 61, 0
2, 120619, Note_on_c, 0, 58, 0
2, 120942, Note_on_c, 0, 81, 83
2, 120948, Note_on_c, 0, 40, 83
2, 121004, Control_c, 0, 64, 0
2, 121074, Note_on_c, 0, 82, 0
2, 121168, Note_on_c, 0, 40, 0
2, 121180, Control_c, 0, 64, 127
2, 121412, Note_on_c, 0, 60, 70
2, 121426, Note_on_c, 0, 52, 71
2, 121504, Note_on_c, 0, 52, 0
2, 121540, Note_on_c, 0, 60, 0
2, 121830, Note_on_c, 0, 79, 98
2, 121842, Note_on_c, 0, 67, 70
2, 121858, Note_on_c, 0, 58, 43
2, 121860, Note_on_c, 0, 60, 60
2, 121898, Note_on_c, 0, 81, 0
2, 121916, Note_on_c, 0, 67, 0
2, 121994, Note_on_c, 0, 60, 0
2, 122032, Note_on_c, 0, 58, 0
2, 122346, Note_on_c, 0, 77, 91
2, 122351, Note_on_c, 0, 69, 57
2, 122358, Note_on_c, 0, 41, 73
2, 122388, Control_c, 0, 64, 0
2, 122410, Note_on_c, 0, 79, 0
2, 122576, Note_on_c, 0, 41, 0
2, 122586, Control_c, 0, 64, 127
2, 122814, Note_on_c, 0, 63, 54
2, 122828, Note_on_c, 0, 53, 68
2, 122904, Note_on_c, 0, 53, 0
2, 123004, Note_on_c, 0, 63, 0
2, 123012, Note_on_c, 0, 69, 0
2, 123250, Note_on_c, 0, 69, 59
2, 123262, Note_on_c, 0, 63, 61
2, 123270, Note_on_c, 0, 60, 47
2, 123380, Note_on_c, 0, 69, 0
2, 123380, Note_on_c, 0, 63, 0
2, 123404, Note_on_c, 0, 60, 0
2, 123766, Note_on_c, 0, 70, 56
2, 123769, Note_on_c, 0, 74, 80
2, 123792, Note_on_c, 0, 43, 41
2, 123876, Control_c, 0, 64, 0
2, 123936, Note_on_c, 0, 77, 0
2, 124064, Note_on_c, 0, 43, 0
2, 124078, Control_c, 0, 64, 127
2, 124296, Note_on_c, 0, 55, 40
2, 124299, Note_on_c, 0, 62, 32
2, 124462, Note_on_c, 0, 62, 0
2, 124484, Note_on_c, 0, 55, 0
2, 124540, Note_on_c, 0, 70, 0
2, 124742, Note_on_c, 0, 70, 44
2, 124756, Note_on_c, 0, 58, 21
2, 124756, Note_on_c, 0, 62, 42
2, 124848, Note_on_c, 0, 62, 0
2, 124858, Note_on_c, 0, 70, 0
2, 124946, Note_on_c, 0, 58, 0
2, 125124, Note_on_c, 0, 74, 0
2, 125318, Note_on_c, 0, 75, 86
2, 125342, Note_on_c, 0, 67, 54
2, 125342, Note_on_c, 0, 36, 58
2, 125398, Control_c, 0, 64, 0
2, 125578, Note_on_c, 0, 36, 0
2, 125599, Control_c, 0, 64, 127
2, 125844, Note_on_c, 0, 63, 62
2, 125854, Note_on_c, 0, 55, 43
2, 126006, Note_on_c, 0, 55, 0
2, 126030, Note_on_c, 0, 67, 0
2, 126052, Note_on_c, 0, 63, 0
2, 126294, Note_on_c, 0, 67, 66
2, 126304, Note_on_c, 0, 63, 65
2, 126310, Note_on_c, 0, 60, 52
2, 126420, Note_on_c, 0, 67, 0
2, 126446, Note_on_c, 0, 63, 0
2, 126460, Note_on_c, 0, 60, 0
2, 126634, Note_on_c, 0, 75, 0
2, 126734, Note_on_c, 0, 74, 80
2, 126737, Note_on_c, 0, 69, 54
2, 126744, Note_on_c, 0, 41, 62
2, 126796, Control_c, 0, 64, 0
2, 126954, Note_on_c, 0, 41, 0
2, 126982, Control_c, 0, 64, 127
2, 127026, Note_on_c, 0, 69, 0
2, 127274, Note_on_c, 0, 69, 53
2, 127278, Note_on_c, 0, 72, 75
2, 127288, Note_on_c, 0, 63, 50
2, 127291, Note_on_c, 0, 53, 50
2, 127354, Note_on_c, 0, 74, 0
2, 127408, Note_on_c, 0, 63, 0
2, 127492, Note_on_c, 0, 69, 0
2, 127762, Note_on_c, 0, 74, 81
2, 127764, Note_on_c, 0, 69, 51
2, 127766, Note_on_c, 0, 65, 35
2, 127771, Note_on_c, 0, 63, 29
2, 127774, Note_on_c, 0, 60, 33
2, 127796, Control_c, 0, 64, 0
2, 127838, Note_on_c, 0, 72, 0
2, 127950, Note_on_c, 0, 65, 0
2, 127980, Control_c, 0, 64, 127
2, 127985, Note_on_c, 0, 60, 0
2, 128015, Note_on_c, 0, 63, 0
2, 128092, Note_on_c, 0, 69, 0
2, 128188, Note_on_c, 0, 58, 52
2, 128192, Note_on_c, 0, 70, 71
2, 128196, Note_on_c, 0, 65, 54
2, 128202, Note_on_c, 0, 62, 55
2, 128222, Note_on_c, 0, 53, 0
2, 128234, Note_on_c, 0, 74, 0
2, 128364, Control_c, 0, 64, 0
2, 128434, Note_on_c, 0, 62, 0
2, 128540, Note_on_c, 0, 65, 0
2, 128548, Control_c, 0, 64, 127
2, 128552, Note_on_c, 0, 70, 0
2, 128562, Note_on_c, 0, 58, 0
2, 128632, Note_on_c, 0, 71, 87
2, 128632, Note_on_c, 0, 66, 63
2, 128635, Note_on_c, 0, 63, 60
2, 128638, Note_on_c, 0, 57, 52
2, 128794, Control_c, 0, 64, 0
2, 128966, Note_on_c, 0, 71, 0
2, 128978, Control_c, 0, 64, 127
2, 129034, Note_on_c, 0, 66, 0
2, 129084, Note_on_c, 0, 71, 89
2, 129094, Note_on_c, 0, 64, 69
2, 129096, Note_on_c, 0, 56, 60
2, 129098, Note_on_c, 0, 63, 0
2, 129114, Note_on_c, 0, 57, 0
2, 129452, Note_on_c, 0, 64, 0
2, 129498, Note_on_c, 0, 71, 0
2, 129554, Note_on_c, 0, 72, 87
2, 129558, Note_on_c, 0, 70, 66
2, 129568, Note_on_c, 0, 64, 65
2, 129571, Note_on_c, 0, 55, 78
2, 129624, Note_on_c, 0, 56, 0
2, 129654, Control_c, 0, 64, 0
2, 129870, Control_c, 0, 64, 127
2, 129916, Note_on_c, 0, 72, 0
2, 129918, Note_on_c, 0, 64, 0
2, 130040, Note_on_c, 0, 72, 94
2, 130042, Note_on_c, 0, 69, 75
2, 130044, Note_on_c, 0, 65, 70
2, 130048, Note_on_c, 0, 63, 72
2, 130050, Note_on_c, 0, 55, 0
2, 130050, Note_on_c, 0, 60, 53
2, 130052, Note_on_c, 0, 53, 89
2, 130116, Note_on_c, 0, 70, 0
2, 130238, Control_c, 0, 64, 0
2, 130428, Note_on_c, 0, 65, 0
2, 130438, Control_c, 0, 64, 127
2, 130470, Note_on_c, 0, 69, 0
2, 130500, Note_on_c, 0, 63, 0
2, 130568, Note_on_c, 0, 53, 0
2, 130584, Note_on_c, 0, 74, 94
2, 130588, Note_on_c, 0, 65, 64
2, 130590, Note_on_c, 0, 68, 73
2, 130591, Note_on_c, 0, 58, 60
2, 130610, Note_on_c, 0, 60, 0
2, 130640, Note_on_c, 0, 72, 0
2, 130684, Control_c, 0, 64, 0
2, 130816, Note_on_c, 0, 65, 0
2, 130868, Control_c, 0, 64, 127
2, 130966, Note_on_c, 0, 58, 0
2, 130982, Note_on_c, 0, 67, 81
2, 130988, Note_on_c, 0, 68, 0
2, 131036, Note_on_c, 0, 74, 0
2, 131094, Note_on_c, 0, 70, 73
2, 131210, Note_on_c, 0, 75, 78
2, 131304, Note_on_c, 0, 39, 73
2, 131390, Control_c, 0, 64, 0
2, 131440, Note_on_c, 0, 79, 100
2, 131498, Note_on_c, 0, 75, 0
2, 131620, Control_c, 0, 64, 127
2, 131646, Note_on_c, 0, 39, 0
2, 131732, Note_on_c, 0, 67, 0
2, 131956, Note_on_c, 0, 70, 0
2, 132024, Note_on_c, 0, 63, 60
2, 132038, Note_on_c, 0, 55, 45
2, 132314, Note_on_c, 0, 63, 0
2, 132488, Note_on_c, 0, 69, 64
2, 132514, Note_on_c, 0, 58, 36
2, 132536, Note_on_c, 0, 67, 39
2, 132536, Note_on_c, 0, 63, 44
2, 132542, Note_on_c, 0, 55, 0
2, 132554, Note_on_c, 0, 79, 0
2, 132750, Note_on_c, 0, 67, 0
2, 132778, Note_on_c, 0, 70, 75
2, 132832, Note_on_c, 0, 63, 0
2, 132872, Note_on_c, 0, 58, 0
2, 132882, Note_on_c, 0, 69, 0
2, 133010, Note_on_c, 0, 51, 54
2, 133026, Note_on_c, 0, 71, 91
2, 133066, Note_on_c, 0, 70, 0
2, 133112, Control_c, 0, 64, 0
2, 133236, Note_on_c, 0, 70, 81
2, 133244, Note_on_c, 0, 51, 0
2, 133250, Control_c, 0, 64, 127
2, 133292, Note_on_c, 0, 71, 0
2, 133428, Note_on_c, 0, 56, 42
2, 133444, Note_on_c, 0, 73, 84
2, 133460, Note_on_c, 0, 62, 36
2, 133498, Note_on_c, 0, 70, 0
2, 133664, Note_on_c, 0, 62, 0
2, 133672, Note_on_c, 0, 74, 95
2, 133726, Note_on_c, 0, 73, 0
2, 133868, Note_on_c, 0, 58, 28
2, 133956, Note_on_c, 0, 62, 19
2, 134068, Note_on_c, 0, 79, 84
2, 134068, Note_on_c, 0, 68, 31
2, 134080, Control_c, 0, 64, 0
2, 134128, Note_on_c, 0, 74, 0
2, 134234, Note_on_c, 0, 56, 0
2, 134294, Control_c, 0, 64, 127
2, 134416, Note_on_c, 0, 68, 0
2, 134428, Note_on_c, 0, 62, 0
2, 134510, Note_on_c, 0, 58, 0
2, 134556, Note_on_c, 0, 77, 74
2, 134602, Note_on_c, 0, 79, 0
2, 134652, Note_on_c, 0, 77, 0
2, 134702, Note_on_c, 0, 51, 32
2, 134726, Note_on_c, 0, 77, 67
2, 134770, Control_c, 0, 64, 0
2, 134970, Control_c, 0, 64, 127
2, 134992, Note_on_c, 0, 51, 0
2, 135262, Note_on_c, 0, 63, 31
2, 135302, Note_on_c, 0, 55, 28
2, 135444, Note_on_c, 0, 55, 0
2, 135486, Note_on_c, 0, 63, 0
2, 135708, Note_on_c, 0, 58, 23
2, 135738, Note_on_c, 0, 67, 23
2, 135772, Note_on_c, 0, 63, 19
2, 135822, Note_on_c, 0, 67, 0
2, 135834, Note_on_c, 0, 75, 45
2, 135870, Note_on_c, 0, 63, 0
2, 135926, Note_on_c, 0, 58, 0
2, 135938, Note_on_c, 0, 77, 0
2, 136200, Note_on_c, 0, 50, 46
2, 136246, Control_c, 0, 64, 0
2, 136430, Control_c, 0, 64, 127
2, 136494, Note_on_c, 0, 50, 0
2, 136554, Note_on_c, 0, 77, 54
2, 136558, Note_on_c, 0, 75, 0
2, 136598, Note_on_c, 0, 77, 0
2, 136632, Note_on_c, 0, 75, 60
2, 136700, Note_on_c, 0, 75, 0
2, 136714, Note_on_c, 0, 77, 51
2, 136742, Note_on_c, 0, 63, 50
2, 136770, Note_on_c, 0, 55, 47
2, 136772, Note_on_c, 0, 75, 75
2, 136828, Note_on_c, 0, 77, 0
2, 136842, Note_on_c, 0, 55, 0
2, 136920, Note_on_c, 0, 63, 0
2, 137010, Note_on_c, 0, 74, 86
2, 137064, Note_on_c, 0, 75, 0
2, 137128, Note_on_c, 0, 58, 32
2, 137196, Note_on_c, 0, 63, 38
2, 137210, Note_on_c, 0, 75, 79
2, 137230, Note_on_c, 0, 67, 44
2, 137274, Note_on_c, 0, 74, 0
2, 137286, Note_on_c, 0, 63, 0
2, 137300, Note_on_c, 0, 67, 0
2, 137374, Note_on_c, 0, 58, 0
2, 137438, Note_on_c, 0, 77, 87
2, 137536, Note_on_c, 0, 75, 0
2, 137684, Note_on_c, 0, 79, 84
2, 137688, Note_on_c, 0, 48, 42
2, 137702, Note_on_c, 0, 77, 0
2, 137705, Control_c, 0, 64, 0
2, 137890, Control_c, 0, 64, 127
2, 137914, Note_on_c, 0, 79, 0
2, 137950, Note_on_c, 0, 48, 0
2, 137950, Note_on_c, 0, 71, 75
2, 138138, Note_on_c, 0, 71, 0
2, 138204, Note_on_c, 0, 72, 74
2, 138220, Note_on_c, 0, 55, 34
2, 138226, Note_on_c, 0, 64, 31
2, 138368, Note_on_c, 0, 72, 0
2, 138392, Note_on_c, 0, 64, 0
2, 138440, Note_on_c, 0, 73, 78
2, 138454, Note_on_c, 0, 55, 0
2, 138674, Note_on_c, 0, 72, 89
2, 138688, Note_on_c, 0, 73, 0
2, 138700, Note_on_c, 0, 67, 46
2, 138718, Note_on_c, 0, 64, 31
2, 138720, Note_on_c, 0, 58, 21
2, 138786, Note_on_c, 0, 64, 0
2, 138788, Note_on_c, 0, 72, 0
2, 138798, Note_on_c, 0, 67, 0
2, 138864, Note_on_c, 0, 58, 0
2, 138896, Note_on_c, 0, 77, 94
2, 139132, Note_on_c, 0, 48, 44
2, 139132, Note_on_c, 0, 76, 84
2, 139146, Note_on_c, 0, 77, 0
2, 139264, Note_on_c, 0, 76, 0
2, 139376, Note_on_c, 0, 80, 85
2, 139396, Control_c, 0, 64, 0
2, 139518, Note_on_c, 0, 48, 0
2, 139520, Control_c, 0, 64, 127
2, 139668, Note_on_c, 0, 79, 85
2, 139690, Note_on_c, 0, 64, 39
2, 139696, Note_on_c, 0, 55, 36
2, 139746, Note_on_c, 0, 80, 0
2, 139798, Note_on_c, 0, 55, 0
2, 139808, Note_on_c, 0, 79, 0
2, 139846, Note_on_c, 0, 64, 0
2, 139928, Note_on_c, 0, 85, 86
2, 140203, Note_on_c, 0, 60, 21
2, 140214, Note_on_c, 0, 64, 28
2, 140214, Note_on_c, 0, 84, 84
2, 140228, Note_on_c, 0, 70, 29
2, 140290, Note_on_c, 0, 85, 0
2, 140354, Note_on_c, 0, 70, 0
2, 140420, Note_on_c, 0, 64, 0
2, 140535, Note_on_c, 0, 60, 0
2, 140536, Note_on_c, 0, 79, 84
2, 140539, Note_on_c, 0, 84, 0
2, 140610, Note_on_c, 0, 79, 0
2, 140706, Note_on_c, 0, 79, 84
2, 140908, Note_on_c, 0, 41, 34
2, 141024, Control_c, 0, 64, 0
2, 141058, Note_on_c, 0, 82, 67
2, 141126, Note_on_c, 0, 79, 0
2, 141240, Control_c, 0, 64, 127
2, 141262, Note_on_c, 0, 41, 0
2, 141602, Note_on_c, 0, 61, 31
2, 141618, Note_on_c, 0, 53, 44
2, 141744, Note_on_c, 0, 53, 0
2, 141814, Note_on_c, 0, 61, 0
2, 142158, Note_on_c, 0, 61, 29
2, 142160, Note_on_c, 0, 64, 42
2, 142168, Note_on_c, 0, 58, 24
2, 142326, Note_on_c, 0, 64, 0
2, 142338, Note_on_c, 0, 61, 0
2, 142368, Note_on_c, 0, 58, 0
2, 142696, Note_on_c, 0, 80, 58
2, 142730, Note_on_c, 0, 41, 26
2, 142792, Control_c, 0, 64, 0
2, 142844, Note_on_c, 0, 82, 0
2, 142966, Note_on_c, 0, 41, 0
2, 142976, Control_c, 0, 64, 127
2, 143332, Note_on_c, 0, 60, 21
2, 143362, Note_on_c, 0, 53, 31
2, 143474, Note_on_c, 0, 53, 0
2, 143564, Note_on_c, 0, 60, 0
2, 143938, Note_on_c, 0, 79, 65
2, 143982, Note_on_c, 0, 65, 17
2, 143988, Note_on_c, 0, 56, 20
2, 143994, Note_on_c, 0, 60, 9
2, 144024, Note_on_c, 0, 80, 0
2, 144146, Note_on_c, 0, 65, 0
2, 144148, Note_on_c, 0, 60, 0
2, 144266, Note_on_c, 0, 56, 0
2, 144598, Note_on_c, 0, 46, 16
2, 144652, Note_on_c, 0, 79, 0
2, 144655, Note_on_c, 0, 77, 39
2, 144712, Control_c, 0, 64, 0
2, 144880, Control_c, 0, 64, 127
2, 144898, Note_on_c, 0, 77, 0
2, 144910, Note_on_c, 0, 46, 0
2, 144918, Note_on_c, 0, 79, 36
2, 144986, Note_on_c, 0, 79, 0
2, 144986, Note_on_c, 0, 77, 45
2, 145048, Note_on_c, 0, 77, 0
2, 145076, Note_on_c, 0, 79, 49
2, 145136, Note_on_c, 0, 62, 30
2, 145138, Note_on_c, 0, 79, 0
2, 145154, Note_on_c, 0, 53, 32
2, 145158, Note_on_c, 0, 77, 41
2, 145214, Note_on_c, 0, 77, 0
2, 145224, Note_on_c, 0, 53, 0
2, 145232, Note_on_c, 0, 62, 0
2, 145234, Note_on_c, 0, 79, 59
2, 145288, Note_on_c, 0, 79, 0
2, 145308, Note_on_c, 0, 77, 54
2, 145374, Note_on_c, 0, 77, 0
2, 145402, Note_on_c, 0, 79, 69
2, 145448, Note_on_c, 0, 79, 0
2, 145472, Note_on_c, 0, 77, 61
2, 145522, Note_on_c, 0, 77, 0
2, 145550, Note_on_c, 0, 79, 68
2, 145600, Note_on_c, 0, 79, 0
2, 145612, Note_on_c, 0, 68, 32
2, 145636, Note_on_c, 0, 58, 22
2, 145652, Note_on_c, 0, 62, 24
2, 145660, Note_on_c, 0, 77, 44
2, 145698, Note_on_c, 0, 79, 73
2, 145706, Note_on_c, 0, 77, 0
2, 145734, Note_on_c, 0, 62, 0
2, 145736, Note_on_c, 0, 68, 0
2, 145744, Note_on_c, 0, 79, 0
2, 145786, Note_on_c, 0, 77, 51
2, 145832, Note_on_c, 0, 58, 0
2, 145832, Note_on_c, 0, 77, 0
2, 145846, Note_on_c, 0, 79, 73
2, 145908, Note_on_c, 0, 77, 52
2, 145966, Note_on_c, 0, 79, 0
2, 146032, Note_on_c, 0, 76, 63
2, 146042, Note_on_c, 0, 77, 0
2, 146142, Note_on_c, 0, 77, 59
2, 146164, Note_on_c, 0, 76, 0
2, 146234, Control_c, 0, 64, 0
2, 146242, Note_on_c, 0, 47, 34
2, 146354, Note_on_c, 0, 77, 0
2, 146358, Note_on_c, 0, 79, 67
2, 146488, Note_on_c, 0, 47, 0
2, 146494, Control_c, 0, 64, 127
2, 146646, Note_on_c, 0, 79, 0
2, 146882, Note_on_c, 0, 65, 19
2, 146884, Note_on_c, 0, 79, 79
2, 146896, Note_on_c, 0, 55, 20
2, 147038, Note_on_c, 0, 55, 0
2, 147056, Note_on_c, 0, 65, 0
2, 147428, Note_on_c, 0, 67, 19
2, 147428, Note_on_c, 0, 74, 69
2, 147438, Note_on_c, 0, 65, 24
2, 147448, Note_on_c, 0, 62, 16
2, 147524, Note_on_c, 0, 65, 0
2, 147546, Note_on_c, 0, 67, 0
2, 147552, Note_on_c, 0, 79, 0
2, 147556, Note_on_c, 0, 62, 0
2, 147950, Note_on_c, 0, 75, 54
2, 147954, Control_c, 0, 64, 0
2, 147958, Note_on_c, 0, 48, 31
2, 148002, Note_on_c, 0, 74, 0
2, 148184, Control_c, 0, 64, 127
2, 148192, Note_on_c, 0, 48, 0
2, 148514, Note_on_c, 0, 63, 30
2, 148536, Note_on_c, 0, 55, 25
2, 148600, Note_on_c, 0, 63, 0
2, 148630, Note_on_c, 0, 55, 0
2, 149008, Note_on_c, 0, 67, 30
2, 149024, Note_on_c, 0, 63, 22
2, 149030, Note_on_c, 0, 60, 19
2, 149134, Note_on_c, 0, 67, 0
2, 149172, Note_on_c, 0, 63, 0
2, 149222, Note_on_c, 0, 60, 0
2, 149540, Note_on_c, 0, 45, 36
2, 149546, Note_on_c, 0, 72, 36
2, 149628, Control_c, 0, 64, 0
2, 149672, Note_on_c, 0, 75, 0
2, 149858, Control_c, 0, 64, 127
2, 149886, Note_on_c, 0, 45, 0
2, 150096, Note_on_c, 0, 54, 25
2, 150096, Note_on_c, 0, 63, 34
2, 150266, Note_on_c, 0, 63, 0
2, 150271, Note_on_c, 0, 54, 0
2, 150726, Note_on_c, 0, 66, 20
2, 150742, Note_on_c, 0, 60, 16
2, 150744, Note_on_c, 0, 63, 5
2, 150880, Note_on_c, 0, 63, 0
2, 150996, Note_on_c, 0, 66, 0
2, 151076, Note_on_c, 0, 60, 0
2, 151448, Note_on_c, 0, 72, 0
2, 151482, Note_on_c, 0, 70, 42
2, 151500, Note_on_c, 0, 46, 28
2, 151519, Control_c, 0, 64, 0
2, 151702, Control_c, 0, 64, 127
2, 151742, Note_on_c, 0, 70, 0
2, 151750, Note_on_c, 0, 46, 0
2, 151944, Note_on_c, 0, 86, 72
2, 152416, Note_on_c, 0, 63, 37
2, 152438, Note_on_c, 0, 53, 42
2, 152598, Note_on_c, 0, 53, 0
2, 152748, Note_on_c, 0, 86, 0
2, 152778, Note_on_c, 0, 63, 0
2, 152778, Note_on_c, 0, 85, 78
2, 152994, Note_on_c, 0, 85, 0
2, 153100, Note_on_c, 0, 68, 31
2, 153104, Note_on_c, 0, 84, 78
2, 153114, Note_on_c, 0, 58, 18
2, 153117, Note_on_c, 0, 63, 22
2, 153194, Note_on_c, 0, 68, 0
2, 153198, Note_on_c, 0, 63, 0
2, 153278, Note_on_c, 0, 58, 0
2, 153298, Note_on_c, 0, 84, 0
2, 153386, Note_on_c, 0, 83, 99
2, 153528, Note_on_c, 0, 83, 0
2, 153688, Note_on_c, 0, 34, 26
2, 153698, Note_on_c, 0, 82, 65
2, 153732, Control_c, 0, 64, 0
2, 153900, Control_c, 0, 64, 127
2, 153903, Note_on_c, 0, 34, 0
2, 153961, Note_on_c, 0, 82, 0
2, 154158, Note_on_c, 0, 81, 20
2, 154298, Note_on_c, 0, 81, 0
2, 154512, Note_on_c, 0, 80, 27
2, 154542, Note_on_c, 0, 62, 9
2, 154548, Note_on_c, 0, 53, 30
2, 154670, Note_on_c, 0, 80, 0
2, 154700, Note_on_c, 0, 53, 0
2, 154752, Note_on_c, 0, 62, 0
2, 154792, Note_on_c, 0, 69, 38
2, 154874, Note_on_c, 0, 69, 0
2, 154968, Note_on_c, 0, 70, 39
2, 155046, Note_on_c, 0, 70, 0
2, 155092, Note_on_c, 0, 71, 55
2, 155114, Note_on_c, 0, 58, 15
2, 155166, Note_on_c, 0, 71, 0
2, 155200, Note_on_c, 0, 62, 19
2, 155222, Note_on_c, 0, 72, 45
2, 155330, Note_on_c, 0, 68, 20
2, 155338, Note_on_c, 0, 72, 0
2, 155338, Note_on_c, 0, 73, 48
2, 155458, Note_on_c, 0, 73, 0
2, 155484, Note_on_c, 0, 74, 55
2, 155574, Control_c, 0, 64, 0
2, 155638, Note_on_c, 0, 74, 0
2, 155674, Note_on_c, 0, 79, 53
2, 155714, Control_c, 0, 64, 127
2, 155772, Note_on_c, 0, 62, 0
2, 155775, Note_on_c, 0, 68, 0
2, 155900, Note_on_c, 0, 79, 0
2, 155903, Note_on_c, 0, 58, 0
2, 155932, Note_on_c, 0, 77, 42
2, 156000, Note_on_c, 0, 77, 0
2, 156150, Note_on_c, 0, 75, 39
2, 156322, Note_on_c, 0, 75, 0
2, 156424, Note_on_c, 0, 75, 31
2, 156450, Control_c, 0, 64, 0
2, 156466, Note_on_c, 0, 39, 23
2, 156666, Note_on_c, 0, 39, 0
2, 156666, Control_c, 0, 64, 127
2, 157116, Note_on_c, 0, 63, 16
2, 157138, Note_on_c, 0, 55, 19
2, 157220, Note_on_c, 0, 55, 0
2, 157272, Note_on_c, 0, 63, 0
2, 157616, Note_on_c, 0, 67, 13
2, 157622, Note_on_c, 0, 58, 12
2, 157660, Note_on_c, 0, 63, 14
2, 157740, Note_on_c, 0, 63, 0
2, 157748, Note_on_c, 0, 67, 0
2, 157802, Note_on_c, 0, 58, 0
2, 158122, Note_on_c, 0, 51, 29
2, 158230, Note_on_c, 0, 51, 0
2, 158622, Note_on_c, 0, 63, 33
2, 158626, Note_on_c, 0, 55, 21
2, 158836, Note_on_c, 0, 63, 0
2, 158860, Note_on_c, 0, 55, 0
2, 159180, Note_on_c, 0, 58, 17
2, 159180, Note_on_c, 0, 63, 11
2, 159183, Note_on_c, 0, 67, 24
2, 159274, Note_on_c, 0, 63, 0
2, 159276, Note_on_c, 0, 67, 0
2, 159454, Note_on_c, 0, 58, 0
2, 159508, Note_on_c, 0, 75, 0
2, 160022, Note_on_c, 0, 75, 44
2, 160030, Control_c, 0, 64, 0
2, 160040, Note_on_c, 0, 39, 20
2, 160230, Control_c, 0, 64, 127
2, 160250, Note_on_c, 0, 39, 0
2, 160692, Note_on_c, 0, 56, 19
2, 160702, Note_on_c, 0, 63, 27
2, 160710, Note_on_c, 0, 59, 6
2, 160786, Note_on_c, 0, 59, 0
2, 160796, Note_on_c, 0, 63, 0
2, 160814, Note_on_c, 0, 56, 0
2, 161294, Note_on_c, 0, 68, 23
2, 161318, Note_on_c, 0, 63, 15
2, 161328, Note_on_c, 0, 59, 11
2, 161404, Note_on_c, 0, 63, 0
2, 161422, Note_on_c, 0, 59, 0
2, 161444, Note_on_c, 0, 68, 0
2, 161778, Note_on_c, 0, 77, 63
2, 161802, Note_on_c, 0, 51, 27
2, 161890, Note_on_c, 0, 75, 0
2, 161916, Note_on_c, 0, 51, 0
2, 162326, Note_on_c, 0, 75, 57
2, 162344, Note_on_c, 0, 63, 28
2, 162362, Note_on_c, 0, 56, 19
2, 162448, Note_on_c, 0, 77, 0
2, 162468, Note_on_c, 0, 56, 0
2, 162516, Note_on_c, 0, 63, 0
2, 162864, Note_on_c, 0, 77, 58
2, 162894, Note_on_c, 0, 68, 15
2, 162902, Note_on_c, 0, 59, 25
2, 162968, Note_on_c, 0, 75, 0
2, 162978, Note_on_c, 0, 68, 0
2, 163062, Note_on_c, 0, 59, 0
2, 163520, Note_on_c, 0, 39, 29
2, 163532, Note_on_c, 0, 79, 52
2, 163532, Control_c, 0, 64, 0
2, 163535, Note_on_c, 0, 77, 0
2, 163738, Note_on_c, 0, 39, 0
2, 163750, Control_c, 0, 64, 127
2, 164120, Note_on_c, 0, 63, 25
2, 164138, Note_on_c, 0, 55, 30
2, 164244, Note_on_c, 0, 55, 0
2, 164326, Note_on_c, 0, 63, 0
2, 164618, Note_on_c, 0, 58, 20
2, 164620, Note_on_c, 0, 67, 20
2, 164644, Note_on_c, 0, 63, 19
2, 164740, Note_on_c, 0, 63, 0
2, 164762, Note_on_c, 0, 67, 0
2, 164900, Note_on_c, 0, 58, 0
2, 165140, Note_on_c, 0, 51, 30
2, 165268, Note_on_c, 0, 51, 0
2, 165644, Note_on_c, 0, 63, 18
2, 165664, Note_on_c, 0, 55, 13
2, 165780, Note_on_c, 0, 55, 0
2, 165842, Note_on_c, 0, 63, 0
2, 166186, Note_on_c, 0, 58, 11
2, 166191, Note_on_c, 0, 67, 14
2, 166194, Note_on_c, 0, 63, 16
2, 166294, Note_on_c, 0, 63, 0
2, 166338, Note_on_c, 0, 67, 0
2, 166458, Note_on_c, 0, 58, 0
2, 166762, Note_on_c, 0, 79, 0
2, 166970, Note_on_c, 0, 75, 36
2, 166990, Control_c, 0, 64, 0
2, 167002, Note_on_c, 0, 39, 19
2, 167190, Note_on_c, 0, 39, 0
2, 167190, Control_c, 0, 64, 127
2, 167606, Note_on_c, 0, 63, 22
2, 167622, Note_on_c, 0, 56, 17
2, 167630, Note_on_c, 0, 59, 2
2, 167694, Note_on_c, 0, 59, 0
2, 167752, Note_on_c, 0, 56, 0
2, 167760, Note_on_c, 0, 63, 0
2, 168124, Note_on_c, 0, 68, 24
2, 168146, Note_on_c, 0, 63, 16
2, 168154, Note_on_c, 0, 59, 20
2, 168258, Note_on_c, 0, 63, 0
2, 168296, Note_on_c, 0, 59, 0
2, 168306, Note_on_c, 0, 68, 0
2, 168682, Note_on_c, 0, 51, 23
2, 168766, Note_on_c, 0, 51, 0
2, 169016, Note_on_c, 0, 77, 41
2, 169066, Note_on_c, 0, 75, 0
2, 169322, Note_on_c, 0, 63, 20
2, 169354, Note_on_c, 0, 56, 15
2, 169364, Note_on_c, 0, 59, 8
2, 169400, Note_on_c, 0, 75, 46
2, 169408, Note_on_c, 0, 77, 0
2, 169444, Note_on_c, 0, 56, 0
2, 169454, Note_on_c, 0, 59, 0
2, 169500, Note_on_c, 0, 63, 0
2, 169680, Note_on_c, 0, 77, 48
2, 169704, Note_on_c, 0, 75, 0
2, 169854, Note_on_c, 0, 68, 21
2, 169868, Note_on_c, 0, 59, 13
2, 169868, Note_on_c, 0, 63, 12
2, 169894, Note_on_c, 0, 77, 0
2, 169928, Note_on_c, 0, 75, 38
2, 169931, Note_on_c, 0, 68, 0
2, 169950, Note_on_c, 0, 63, 0
2, 169954, Note_on_c, 0, 59, 0
2, 170212, Note_on_c, 0, 75, 0
2, 170238, Note_on_c, 0, 77, 34
2, 170330, Note_on_c, 0, 77, 0
2, 170630, Note_on_c, 0, 39, 19
2, 170632, Control_c, 0, 64, 0
2, 170634, Note_on_c, 0, 79, 41
2, 170864, Note_on_c, 0, 39, 0
2, 170864, Control_c, 0, 64, 127
2, 171296, Note_on_c, 0, 63, 32
2, 171316, Note_on_c, 0, 55, 11
2, 171428, Note_on_c, 0, 55, 0
2, 171496, Note_on_c, 0, 63, 0
2, 171746, Note_on_c, 0, 75, 54
2, 171804, Note_on_c, 0, 58, 23
2, 171812, Note_on_c, 0, 67, 27
2, 171830, Note_on_c, 0, 63, 15
2, 171838, Note_on_c, 0, 79, 0
2, 171910, Note_on_c, 0, 77, 66
2, 171913, Note_on_c, 0, 75, 0
2, 171932, Note_on_c, 0, 67, 0
2, 171932, Note_on_c, 0, 63, 0
2, 171996, Note_on_c, 0, 75, 60
2, 172022, Note_on_c, 0, 58, 0
2, 172025, Note_on_c, 0, 77, 0
2, 172122, Note_on_c, 0, 75, 0
2, 172122, Note_on_c, 0, 74, 74
2, 172164, Note_on_c, 0, 74, 0
2, 172206, Note_on_c, 0, 75, 65
2, 172354, Note_on_c, 0, 51, 34
2, 172372, Note_on_c, 0, 87, 83
2, 172400, Control_c, 0, 64, 0
2, 172406, Note_on_c, 0, 75, 0
2, 172584, Control_c, 0, 64, 127
2, 172666, Note_on_c, 0, 51, 0
2, 172938, Note_on_c, 0, 87, 0
2, 172940, Note_on_c, 0, 86, 79
2, 172954, Note_on_c, 0, 63, 36
2, 172968, Note_on_c, 0, 55, 20
2, 173126, Note_on_c, 0, 63, 0
2, 173132, Note_on_c, 0, 55, 0
2, 173454, Note_on_c, 0, 84, 94
2, 173470, Note_on_c, 0, 58, 27
2, 173476, Note_on_c, 0, 67, 34
2, 173490, Note_on_c, 0, 63, 27
2, 173632, Note_on_c, 0, 67, 0
2, 173694, Note_on_c, 0, 86, 0
2, 173698, Note_on_c, 0, 63, 0
2, 173734, Note_on_c, 0, 58, 0
2, 173952, Note_on_c, 0, 82, 69
2, 174018, Note_on_c, 0, 51, 26
2, 174134, Note_on_c, 0, 84, 0
2, 174152, Control_c, 0, 64, 0
2, 174350, Control_c, 0, 64, 127
2, 174468, Note_on_c, 0, 51, 0
2, 174598, Note_on_c, 0, 62, 31
2, 174608, Note_on_c, 0, 53, 29
2, 174696, Note_on_c, 0, 53, 0
2, 174742, Note_on_c, 0, 62, 0
2, 175106, Note_on_c, 0, 81, 75
2, 175140, Note_on_c, 0, 68, 28
2, 175140, Note_on_c, 0, 58, 24
2, 175188, Note_on_c, 0, 82, 0
2, 175284, Note_on_c, 0, 68, 0
2, 175386, Note_on_c, 0, 58, 0
2, 175610, Note_on_c, 0, 80, 75
2, 175628, Note_on_c, 0, 51, 26
2, 175684, Note_on_c, 0, 81, 0
2, 175888, Control_c, 0, 64, 0
2, 176026, Control_c, 0, 64, 127
2, 176072, Note_on_c, 0, 72, 66
2, 176094, Note_on_c, 0, 53, 51
2, 176096, Note_on_c, 0, 51, 0
2, 176106, Note_on_c, 0, 62, 22
2, 176190, Note_on_c, 0, 53, 0
2, 176208, Note_on_c, 0, 62, 0
2, 176272, Note_on_c, 0, 80, 0
2, 176566, Note_on_c, 0, 74, 81
2, 176578, Note_on_c, 0, 68, 28
2, 176594, Note_on_c, 0, 58, 29
2, 176636, Note_on_c, 0, 72, 0
2, 176708, Note_on_c, 0, 68, 0
2, 176810, Note_on_c, 0, 58, 0
2, 177022, Note_on_c, 0, 51, 35
2, 177028, Note_on_c, 0, 75, 70
2, 177070, Control_c, 0, 64, 0
2, 177086, Note_on_c, 0, 74, 0
2, 177286, Control_c, 0, 64, 127
2, 177290, Note_on_c, 0, 51, 0
2, 177610, Note_on_c, 0, 77, 71
2, 177622, Note_on_c, 0, 63, 32
2, 177630, Note_on_c, 0, 75, 0
2, 177646, Note_on_c, 0, 55, 27
2, 177818, Note_on_c, 0, 63, 0
2, 177826, Note_on_c, 0, 77, 0
2, 177868, Note_on_c, 0, 75, 62
2, 177914, Note_on_c, 0, 75, 0
2, 177918, Note_on_c, 0, 77, 63
2, 177986, Note_on_c, 0, 75, 52
2, 178058, Note_on_c, 0, 77, 0
2, 178070, Note_on_c, 0, 58, 26
2, 178096, Note_on_c, 0, 63, 32
2, 178106, Note_on_c, 0, 67, 29
2, 178172, Note_on_c, 0, 74, 80
2, 178188, Note_on_c, 0, 75, 0
2, 178200, Note_on_c, 0, 67, 0
2, 178250, Note_on_c, 0, 63, 0
2, 178278, Note_on_c, 0, 58, 0
2, 178282, Note_on_c, 0, 55, 0
2, 178354, Note_on_c, 0, 74, 0
2, 178420, Note_on_c, 0, 75, 69
2, 178460, Note_on_c, 0, 75, 0
2, 178544, Note_on_c, 0, 75, 50
2, 178622, Note_on_c, 0, 45, 39
2, 178638, Control_c, 0, 64, 0
2, 178822, Control_c, 0, 64, 127
2, 178836, Note_on_c, 0, 75, 0
2, 178972, Note_on_c, 0, 91, 72
2, 179168, Note_on_c, 0, 45, 0
2, 179600, Note_on_c, 0, 63, 36
2, 179630, Note_on_c, 0, 53, 34
2, 179724, Note_on_c, 0, 89, 73
2, 179786, Note_on_c, 0, 91, 0
2, 179884, Note_on_c, 0, 53, 0
2, 179930, Note_on_c, 0, 63, 0
2, 179935, Note_on_c, 0, 89, 0
2, 180084, Note_on_c, 0, 87, 85
2, 180244, Note_on_c, 0, 87, 0
2, 180336, Note_on_c, 0, 65, 33
2, 180342, Note_on_c, 0, 86, 89
2, 180346, Note_on_c, 0, 63, 23
2, 180356, Note_on_c, 0, 60, 20
2, 180520, Note_on_c, 0, 65, 0
2, 180550, Note_on_c, 0, 86, 0
2, 180552, Note_on_c, 0, 63, 0
2, 180568, Note_on_c, 0, 60, 0
2, 180602, Note_on_c, 0, 84, 89
2, 180756, Note_on_c, 0, 84, 0
2, 180872, Note_on_c, 0, 83, 99
2, 180880, Note_on_c, 0, 46, 24
2, 180928, Control_c, 0, 64, 0
2, 181142, Control_c, 0, 64, 127
2, 181178, Note_on_c, 0, 46, 0
2, 181484, Note_on_c, 0, 82, 73
2, 181498, Note_on_c, 0, 63, 36
2, 181538, Note_on_c, 0, 53, 34
2, 181572, Note_on_c, 0, 83, 0
2, 181640, Note_on_c, 0, 53, 0
2, 181696, Note_on_c, 0, 63, 0
2, 182032, Note_on_c, 0, 68, 22
2, 182058, Note_on_c, 0, 81, 70
2, 182062, Note_on_c, 0, 58, 21
2, 182066, Note_on_c, 0, 63, 24
2, 182130, Note_on_c, 0, 68, 0
2, 182133, Note_on_c, 0, 82, 0
2, 182146, Note_on_c, 0, 63, 0
2, 182226, Note_on_c, 0, 58, 0
2, 182410, Note_on_c, 0, 81, 0
2, 182566, Note_on_c, 0, 81, 66
2, 182572, Note_on_c, 0, 34, 27
2, 182586, Control_c, 0, 64, 0
2, 182784, Note_on_c, 0, 34, 0
2, 182798, Control_c, 0, 64, 127
2, 183010, Note_on_c, 0, 80, 59
2, 183042, Note_on_c, 0, 81, 0
2, 183162, Note_on_c, 0, 80, 0
2, 183302, Note_on_c, 0, 80, 50
2, 183345, Note_on_c, 0, 62, 19
2, 183362, Note_on_c, 0, 53, 22
2, 183486, Note_on_c, 0, 53, 0
2, 183498, Note_on_c, 0, 62, 0
2, 183598, Note_on_c, 0, 80, 0
2, 183618, Note_on_c, 0, 79, 51
2, 183822, Note_on_c, 0, 79, 0
2, 184032, Note_on_c, 0, 79, 45
2, 184038, Note_on_c, 0, 68, 14
2, 184078, Note_on_c, 0, 58, 4
2, 184092, Note_on_c, 0, 62, 8
2, 184302, Note_on_c, 0, 62, 0
2, 184412, Note_on_c, 0, 68, 0
2, 184588, Note_on_c, 0, 58, 0
2, 184830, Note_on_c, 0, 79, 0
2, 184836, Note_on_c, 0, 77, 30
2, 185060, Note_on_c, 0, 77, 0
2, 185164, Note_on_c, 0, 75, 37
2, 185167, Control_c, 0, 64, 0
2, 185174, Note_on_c, 0, 39, 21
2, 185384, Note_on_c, 0, 39, 0
2, 185384, Control_c, 0, 64, 127
2, 185852, Note_on_c, 0, 63, 18
2, 185884, Note_on_c, 0, 55, 7
2, 185978, Note_on_c, 0, 63, 0
2, 185990, Note_on_c, 0, 55, 0
2, 186396, Note_on_c, 0, 67, 13
2, 186399, Note_on_c, 0, 58, 9
2, 186406, Note_on_c, 0, 63, 12
2, 186510, Note_on_c, 0, 63, 0
2, 186550, Note_on_c, 0, 67, 0
2, 186630, Note_on_c, 0, 58, 0
2, 186882, Note_on_c, 0, 51, 24
2, 187022, Note_on_c, 0, 51, 0
2, 187400, Note_on_c, 0, 63, 29
2, 187416, Note_on_c, 0, 55, 23
2, 187530, Note_on_c, 0, 55, 0
2, 187578, Note_on_c, 0, 63, 0
2, 187930, Note_on_c, 0, 58, 17
2, 187930, Note_on_c, 0, 67, 26
2, 187936, Note_on_c, 0, 63, 19
2, 188008, Note_on_c, 0, 63, 0
2, 188024, Note_on_c, 0, 67, 0
2, 188124, Note_on_c, 0, 75, 0
2, 188144, Note_on_c, 0, 58, 0
2, 188714, Note_on_c, 0, 32, 27
2, 188716, Control_c, 0, 64, 0
2, 188738, Note_on_c, 0, 75, 44
2, 188946, Note_on_c, 0, 32, 0
2, 188948, Control_c, 0, 64, 127
2, 189452, Note_on_c, 0, 51, 20
2, 189466, Note_on_c, 0, 59, 24
2, 189472, Note_on_c, 0, 56, 4
2, 189568, Note_on_c, 0, 56, 0
2, 189580, Note_on_c, 0, 59, 0
2, 189648, Note_on_c, 0, 51, 0
2, 189958, Note_on_c, 0, 63, 33
2, 189972, Note_on_c, 0, 56, 33
2, 190074, Note_on_c, 0, 63, 0
2, 190074, Note_on_c, 0, 56, 0
2, 190474, Note_on_c, 0, 68, 23
2, 190496, Note_on_c, 0, 59, 27
2, 190568, Note_on_c, 0, 68, 0
2, 190736, Note_on_c, 0, 59, 0
2, 190842, Note_on_c, 0, 77, 56
2, 190884, Note_on_c, 0, 75, 0
2, 191110, Note_on_c, 0, 75, 52
2, 191122, Note_on_c, 0, 63, 35
2, 191132, Note_on_c, 0, 56, 23
2, 191142, Note_on_c, 0, 59, 17
2, 191145, Note_on_c, 0, 77, 0
2, 191222, Note_on_c, 0, 59, 0
2, 191298, Note_on_c, 0, 63, 0
2, 191334, Note_on_c, 0, 56, 0
2, 191336, Note_on_c, 0, 77, 63
2, 191344, Note_on_c, 0, 75, 0
2, 191494, Note_on_c, 0, 77, 0
2, 191498, Note_on_c, 0, 75, 61
2, 191654, Note_on_c, 0, 51, 33
2, 191660, Note_on_c, 0, 56, 23
2, 191674, Note_on_c, 0, 59, 20
2, 191728, Note_on_c, 0, 75, 0
2, 191740, Note_on_c, 0, 77, 55
2, 191758, Note_on_c, 0, 59, 0
2, 191870, Note_on_c, 0, 56, 0
2, 191900, Note_on_c, 0, 77, 0
2, 191908, Note_on_c, 0, 51, 0
2, 191922, Note_on_c, 0, 75, 50
2, 192124, Note_on_c, 0, 75, 0
2, 192134, Note_on_c, 0, 77, 51
2, 192348, Note_on_c, 0, 39, 24
2, 192390, Note_on_c, 0, 77, 0
2, 192420, Control_c, 0, 64, 0
2, 192440, Note_on_c, 0, 79, 66
2, 192630, Note_on_c, 0, 39, 0
2, 192636, Control_c, 0, 64, 127
2, 193030, Note_on_c, 0, 63, 21
2, 193044, Note_on_c, 0, 55, 17
2, 193128, Note_on_c, 0, 55, 0
2, 193186, Note_on_c, 0, 63, 0
2, 193568, Note_on_c, 0, 58, 15
2, 193571, Note_on_c, 0, 67, 18
2, 193580, Note_on_c, 0, 63, 13
2, 193674, Note_on_c, 0, 67, 0
2, 193676, Note_on_c, 0, 63, 0
2, 193752, Note_on_c, 0, 58, 0
2, 194116, Note_on_c, 0, 51, 4
2, 194216, Note_on_c, 0, 51, 0
2, 194576, Note_on_c, 0, 63, 29
2, 194598, Note_on_c, 0, 55, 17
2, 194684, Note_on_c, 0, 55, 0
2, 194762, Note_on_c, 0, 63, 0
2, 195066, Note_on_c, 0, 79, 0
2, 195086, Note_on_c, 0, 58, 22
2, 195086, Note_on_c, 0, 67, 35
2, 195102, Note_on_c, 0, 63, 20
2, 195192, Note_on_c, 0, 63, 0
2, 195212, Note_on_c, 0, 67, 0
2, 195288, Note_on_c, 0, 58, 0
2, 195706, Note_on_c, 0, 75, 58
2, 195714, Note_on_c, 0, 32, 48
2, 195832, Control_c, 0, 64, 0
2, 195974, Note_on_c, 0, 32, 0
2, 196004, Control_c, 0, 64, 127
2, 196388, Note_on_c, 0, 68, 56
2, 196393, Note_on_c, 0, 75, 0
2, 196426, Note_on_c, 0, 51, 28
2, 196450, Note_on_c, 0, 59, 31
2, 196462, Note_on_c, 0, 56, 3
2, 196534, Note_on_c, 0, 56, 0
2, 196618, Note_on_c, 0, 59, 0
2, 196674, Note_on_c, 0, 70, 56
2, 196692, Note_on_c, 0, 68, 0
2, 196736, Note_on_c, 0, 70, 0
2, 196792, Note_on_c, 0, 68, 42
2, 196848, Note_on_c, 0, 68, 0
2, 196868, Note_on_c, 0, 70, 55
2, 196910, Note_on_c, 0, 63, 48
2, 196924, Note_on_c, 0, 59, 13
2, 196928, Note_on_c, 0, 68, 54
2, 196928, Note_on_c, 0, 56, 18
2, 196996, Note_on_c, 0, 70, 0
2, 197014, Note_on_c, 0, 59, 0
2, 197118, Note_on_c, 0, 56, 0
2, 197158, Note_on_c, 0, 67, 84
2, 197161, Note_on_c, 0, 68, 0
2, 197168, Note_on_c, 0, 63, 0
2, 197250, Note_on_c, 0, 51, 0
2, 197366, Note_on_c, 0, 68, 83
2, 197378, Note_on_c, 0, 67, 0
2, 197384, Note_on_c, 0, 51, 29
2, 197384, Note_on_c, 0, 56, 43
2, 197394, Note_on_c, 0, 59, 46
2, 197564, Note_on_c, 0, 56, 0
2, 197576, Note_on_c, 0, 68, 0
2, 197584, Note_on_c, 0, 59, 0
2, 197592, Note_on_c, 0, 71, 94
2, 197646, Note_on_c, 0, 71, 0
2, 197770, Note_on_c, 0, 75, 92
2, 197786, Note_on_c, 0, 63, 79
2, 197808, Note_on_c, 0, 56, 48
2, 197814, Note_on_c, 0, 59, 40
2, 197934, Note_on_c, 0, 75, 0
2, 197934, Note_on_c, 0, 59, 0
2, 197962, Note_on_c, 0, 80, 94
2, 198032, Note_on_c, 0, 56, 0
2, 198106, Note_on_c, 0, 63, 0
2, 198112, Note_on_c, 0, 51, 0
2, 198168, Note_on_c, 0, 80, 0
2, 198210, Note_on_c, 0, 87, 95
2, 198216, Note_on_c, 0, 51, 63
2, 198218, Note_on_c, 0, 56, 76
2, 198218, Note_on_c, 0, 59, 89
2, 198304, Note_on_c, 0, 87, 0
2, 198400, Note_on_c, 0, 59, 0
2, 198456, Note_on_c, 0, 56, 0
2, 198502, Note_on_c, 0, 51, 0
2, 198638, Note_on_c, 0, 89, 106
2, 198760, Note_on_c, 0, 89, 0
2, 198856, Note_on_c, 0, 91, 106
2, 198866, Note_on_c, 0, 39, 90
2, 198890, Control_c, 0, 64, 0
2, 199088, Control_c, 0, 64, 127
2, 199106, Note_on_c, 0, 39, 0
2, 199358, Note_on_c, 0, 87, 94
2, 199376, Note_on_c, 0, 91, 0
2, 199376, Note_on_c, 0, 63, 87
2, 199384, Note_on_c, 0, 55, 73
2, 199562, Note_on_c, 0, 63, 0
2, 199657, Note_on_c, 0, 87, 0
2, 199748, Note_on_c, 0, 55, 0
2, 199890, Note_on_c, 0, 87, 97
2, 199896, Note_on_c, 0, 99, 103
2, 199912, Note_on_c, 0, 58, 57
2, 199914, Note_on_c, 0, 67, 72
2, 199918, Note_on_c, 0, 63, 67
2, 200036, Note_on_c, 0, 67, 0
2, 200054, Note_on_c, 0, 63, 0
2, 200094, Note_on_c, 0, 58, 0
2, 200314, Note_on_c, 0, 45, 91
2, 200318, Control_c, 0, 64, 0
2, 200492, Note_on_c, 0, 45, 0
2, 200518, Control_c, 0, 64, 127
2, 200664, Note_on_c, 0, 87, 0
2, 200688, Note_on_c, 0, 99, 0
2, 200766, Note_on_c, 0, 98, 114
2, 200768, Note_on_c, 0, 63, 75
2, 200772, Note_on_c, 0, 86, 105
2, 200772, Note_on_c, 0, 53, 75
2, 200778, Note_on_c, 0, 60, 50
2, 200870, Note_on_c, 0, 60, 0
2, 200904, Note_on_c, 0, 53, 0
2, 201020, Note_on_c, 0, 63, 0
2, 201046, Note_on_c, 0, 98, 0
2, 201070, Note_on_c, 0, 86, 0
2, 201182, Note_on_c, 0, 84, 106
2, 201186, Note_on_c, 0, 96, 108
2, 201200, Note_on_c, 0, 65, 74
2, 201208, Note_on_c, 0, 63, 61
2, 201214, Note_on_c, 0, 60, 63
2, 201322, Note_on_c, 0, 65, 0
2, 201368, Note_on_c, 0, 63, 0
2, 201376, Note_on_c, 0, 60, 0
2, 201434, Note_on_c, 0, 96, 0
2, 201458, Note_on_c, 0, 84, 0
2, 201572, Note_on_c, 0, 95, 108
2, 201574, Note_on_c, 0, 83, 121
2, 201578, Note_on_c, 0, 46, 91
2, 201638, Control_c, 0, 64, 0
2, 201804, Note_on_c, 0, 46, 0
2, 201808, Control_c, 0, 64, 127
2, 201882, Note_on_c, 0, 83, 0
2, 201886, Note_on_c, 0, 95, 0
2, 201990, Note_on_c, 0, 94, 96
2, 201990, Note_on_c, 0, 82, 99
2, 202008, Note_on_c, 0, 63, 75
2, 202022, Note_on_c, 0, 53, 91
2, 202146, Note_on_c, 0, 53, 0
2, 202202, Note_on_c, 0, 63, 0
2, 202230, Note_on_c, 0, 82, 0
2, 202246, Note_on_c, 0, 94, 0
2, 202338, Note_on_c, 0, 93, 106
2, 202342, Note_on_c, 0, 81, 102
2, 202348, Note_on_c, 0, 68, 82
2, 202350, Note_on_c, 0, 58, 50
2, 202352, Note_on_c, 0, 63, 38
2, 202400, Note_on_c, 0, 68, 0
2, 202402, Note_on_c, 0, 58, 0
2, 202404, Note_on_c, 0, 63, 0
2, 202578, Note_on_c, 0, 93, 0
2, 202586, Note_on_c, 0, 81, 0
2, 202676, Note_on_c, 0, 92, 98
2, 202676, Note_on_c, 0, 80, 105
2, 202692, Note_on_c, 0, 47, 95
2, 202700, Control_c, 0, 64, 0
2, 202852, Note_on_c, 0, 47, 0
2, 202868, Control_c, 0, 64, 127
2, 202938, Note_on_c, 0, 80, 0
2, 202956, Note_on_c, 0, 92, 0
2, 203022, Note_on_c, 0, 91, 106
2, 203030, Note_on_c, 0, 79, 105
2, 203040, Note_on_c, 0, 65, 55
2, 203046, Note_on_c, 0, 55, 69
2, 203090, Note_on_c, 0, 55, 0
2, 203098, Note_on_c, 0, 65, 0
2, 203101, Note_on_c, 0, 91, 0
2, 203160, Note_on_c, 0, 79, 0
2, 203354, Note_on_c, 0, 86, 107
2, 203358, Note_on_c, 0, 74, 105
2, 203368, Note_on_c, 0, 67, 83
2, 203372, Note_on_c, 0, 65, 65
2, 203375, Note_on_c, 0, 62, 72
2, 203418, Note_on_c, 0, 67, 0
2, 203428, Note_on_c, 0, 65, 0
2, 203442, Note_on_c, 0, 62, 0
2, 203586, Note_on_c, 0, 74, 0
2, 203620, Note_on_c, 0, 86, 0
2, 203746, Note_on_c, 0, 87, 101
2, 203751, Note_on_c, 0, 48, 88
2, 203751, Note_on_c, 0, 75, 103
2, 203760, Control_c, 0, 64, 0
2, 203928, Control_c, 0, 64, 127
2, 203933, Note_on_c, 0, 48, 0
2, 203933, Note_on_c, 0, 75, 0
2, 203990, Note_on_c, 0, 87, 0
2, 204276, Note_on_c, 0, 99, 106
2, 204278, Note_on_c, 0, 87, 100
2, 204294, Note_on_c, 0, 63, 78
2, 204297, Note_on_c, 0, 55, 73
2, 204452, Note_on_c, 0, 55, 0
2, 204492, Note_on_c, 0, 63, 0
2, 204692, Note_on_c, 0, 67, 80
2, 204700, Note_on_c, 0, 60, 70
2, 204700, Note_on_c, 0, 63, 72
2, 204762, Note_on_c, 0, 67, 0
2, 204784, Note_on_c, 0, 63, 0
2, 204804, Note_on_c, 0, 60, 0
2, 205108, Note_on_c, 0, 45, 98
2, 205110, Control_c, 0, 64, 0
2, 205232, Note_on_c, 0, 99, 0
2, 205266, Control_c, 0, 64, 127
2, 205272, Note_on_c, 0, 87, 0
2, 205320, Note_on_c, 0, 45, 0
2, 205494, Note_on_c, 0, 89, 107
2, 205496, Note_on_c, 0, 77, 101
2, 205504, Note_on_c, 0, 63, 85
2, 205506, Note_on_c, 0, 60, 59
2, 205506, Note_on_c, 0, 53, 73
2, 205598, Note_on_c, 0, 60, 0
2, 205676, Note_on_c, 0, 53, 0
2, 205720, Note_on_c, 0, 77, 0
2, 205792, Note_on_c, 0, 89, 0
2, 205810, Note_on_c, 0, 63, 0
2, 206086, Note_on_c, 0, 96, 111
2, 206088, Note_on_c, 0, 84, 106
2, 206096, Note_on_c, 0, 65, 87
2, 206104, Note_on_c, 0, 60, 85
2, 206108, Note_on_c, 0, 63, 79
2, 206142, Note_on_c, 0, 65, 0
2, 206150, Note_on_c, 0, 63, 0
2, 206164, Note_on_c, 0, 60, 0
2, 206510, Note_on_c, 0, 96, 0
2, 206558, Note_on_c, 0, 84, 0
2, 206768, Note_on_c, 0, 95, 106
2, 206770, Note_on_c, 0, 83, 114
2, 206784, Note_on_c, 0, 34, 97
2, 207018, Control_c, 0, 64, 0
2, 207154, Note_on_c, 0, 46, 89
2, 207174, Note_on_c, 0, 34, 0
2, 207186, Control_c, 0, 64, 127
2, 207244, Note_on_c, 0, 46, 0
2, 207486, Note_on_c, 0, 53, 103
2, 207756, Note_on_c, 0, 56, 84
2, 207794, Note_on_c, 0, 53, 0
2, 208048, Note_on_c, 0, 56, 0
2, 208048, Note_on_c, 0, 62, 89
2, 208376, Note_on_c, 0, 58, 78
2, 208396, Note_on_c, 0, 62, 0
2, 208772, Note_on_c, 0, 65, 79
2, 208792, Note_on_c, 0, 58, 0
2, 209196, Note_on_c, 0, 68, 83
2, 209232, Note_on_c, 0, 65, 0
2, 209308, Note_on_c, 0, 83, 0
2, 209958, Note_on_c, 0, 82, 86
2, 209964, Note_on_c, 0, 74, 87
2, 209966, Note_on_c, 0, 94, 86
2, 210058, Note_on_c, 0, 95, 0
2, 211232, Note_on_c, 0, 82, 0
2, 211800, Note_on_c, 0, 94, 0
2, 211848, Note_on_c, 0, 95, 73
2, 212098, Note_on_c, 0, 94, 61
2, 212152, Note_on_c, 0, 95, 0
2, 212282, Note_on_c, 0, 96, 71
2, 212350, Note_on_c, 0, 94, 0
2, 212428, Note_on_c, 0, 93, 65
2, 212470, Note_on_c, 0, 96, 0
2, 212576, Note_on_c, 0, 95, 63
2, 212620, Note_on_c, 0, 93, 0
2, 212713, Note_on_c, 0, 94, 43
2, 212722, Note_on_c, 0, 95, 0
2, 212836, Note_on_c, 0, 96, 55
2, 212848, Note_on_c, 0, 94, 0
2, 212922, Note_on_c, 0, 93, 54
2, 212950, Note_on_c, 0, 96, 0
2, 213026, Note_on_c, 0, 93, 0
2, 213026, Note_on_c, 0, 95, 56
2, 213094, Note_on_c, 0, 95, 0
2, 213110, Note_on_c, 0, 94, 55
2, 213190, Note_on_c, 0, 96, 68
2, 213212, Note_on_c, 0, 94, 0
2, 213252, Note_on_c, 0, 93, 61
2, 213270, Note_on_c, 0, 96, 0
2, 213322, Note_on_c, 0, 93, 0
2, 213330, Note_on_c, 0, 95, 72
2, 213402, Note_on_c, 0, 95, 0
2, 213402, Note_on_c, 0, 94, 66
2, 213474, Note_on_c, 0, 96, 88
2, 213482, Note_on_c, 0, 74, 0
2, 213500, Note_on_c, 0, 94, 0
2, 213544, Note_on_c, 0, 93, 81
2, 213596, Note_on_c, 0, 96, 0
2, 213599, Note_on_c, 0, 68, 0
2, 213614, Note_on_c, 0, 95, 90
2, 213664, Note_on_c, 0, 93, 0
2, 213698, Note_on_c, 0, 94, 72
2, 213722, Note_on_c, 0, 95, 0
2, 213768, Note_on_c, 0, 96, 86
2, 213814, Note_on_c, 0, 94, 0
2, 213826, Note_on_c, 0, 93, 73
2, 213884, Note_on_c, 0, 96, 0
2, 213887, Note_on_c, 0, 95, 84
2, 213942, Note_on_c, 0, 93, 0
2, 213956, Note_on_c, 0, 94, 74
2, 213984, Note_on_c, 0, 95, 0
2, 214030, Note_on_c, 0, 96, 85
2, 214070, Note_on_c, 0, 94, 0
2, 214072, Note_on_c, 0, 93, 81
2, 214132, Note_on_c, 0, 96, 0
2, 214144, Note_on_c, 0, 95, 88
2, 214194, Note_on_c, 0, 93, 0
2, 214212, Note_on_c, 0, 94, 68
2, 214252, Note_on_c, 0, 95, 0
2, 214274, Note_on_c, 0, 96, 85
2, 214318, Note_on_c, 0, 94, 0
2, 214336, Note_on_c, 0, 93, 73
2, 214380, Note_on_c, 0, 96, 0
2, 214396, Note_on_c, 0, 95, 84
2, 214420, Note_on_c, 0, 93, 0
2, 214466, Note_on_c, 0, 94, 66
2, 214510, Note_on_c, 0, 95, 0
2, 214530, Note_on_c, 0, 96, 76
2, 214572, Note_on_c, 0, 94, 0
2, 214580, Note_on_c, 0, 93, 65
2, 214634, Note_on_c, 0, 96, 0
2, 214652, Note_on_c, 0, 95, 74
2, 214660, Note_on_c, 0, 93, 0
2, 214720, Note_on_c, 0, 94, 53
2, 214734, Note_on_c, 0, 95, 0
2, 214792, Note_on_c, 0, 96, 65
2, 214802, Note_on_c, 0, 94, 0
2, 214842, Note_on_c, 0, 93, 58
2, 214862, Note_on_c, 0, 96, 0
2, 214904, Note_on_c, 0, 93, 0
2, 214912, Note_on_c, 0, 95, 55
2, 214978, Note_on_c, 0, 95, 0
2, 214988, Note_on_c, 0, 94, 47
2, 215060, Note_on_c, 0, 94, 0
2, 215060, Note_on_c, 0, 96, 61
2, 215142, Note_on_c, 0, 93, 39
2, 215146, Note_on_c, 0, 96, 0
2, 215208, Note_on_c, 0, 95, 48
2, 215214, Note_on_c, 0, 93, 0
2, 215298, Note_on_c, 0, 95, 0
2, 215304, Note_on_c, 0, 94, 39
2, 215406, Note_on_c, 0, 94, 0
2, 215406, Note_on_c, 0, 96, 45
2, 215482, Note_on_c, 0, 96, 0
2, 215492, Note_on_c, 0, 93, 47
2, 215586, Note_on_c, 0, 93, 0
2, 215618, Note_on_c, 0, 95, 36
2, 215708, Note_on_c, 0, 95, 0
2, 215714, Note_on_c, 0, 94, 52
2, 215906, Note_on_c, 0, 98, 63
2, 215952, Note_on_c, 0, 94, 0
2, 216128, Note_on_c, 0, 96, 59
2, 216162, Note_on_c, 0, 98, 0
2, 216334, Note_on_c, 0, 94, 44
2, 216362, Note_on_c, 0, 96, 0
2, 216516, Note_on_c, 0, 93, 52
2, 216526, Note_on_c, 0, 94, 0
2, 216708, Note_on_c, 0, 92, 51
2, 216744, Note_on_c, 0, 93, 0
2, 216914, Note_on_c, 0, 91, 57
2, 216956, Note_on_c, 0, 92, 0
2, 217130, Note_on_c, 0, 91, 0
2, 217146, Note_on_c, 0, 89, 47
2, 217400, Note_on_c, 0, 86, 48
2, 217450, Note_on_c, 0, 89, 0
2, 217664, Note_on_c, 0, 87, 39
2, 217718, Note_on_c, 0, 86, 0
2, 217930, Note_on_c, 0, 84, 53
2, 217936, Note_on_c, 0, 87, 0
2, 218242, Note_on_c, 0, 82, 42
2, 218286, Note_on_c, 0, 84, 0
2, 218402, Control_c, 0, 64, 0
2, 218542, Control_c, 0, 64, 127
2, 218570, Note_on_c, 0, 80, 44
2, 218684, Note_on_c, 0, 82, 0
2, 218998, Note_on_c, 0, 72, 36
2, 219132, Note_on_c, 0, 80, 0
2, 219588, Note_on_c, 0, 74, 44
2, 219698, Note_on_c, 0, 72, 0
2, 220256, Note_on_c, 0, 75, 47
2, 220282, Note_on_c, 0, 39, 24
2, 220284, Note_on_c, 0, 67, 24
2, 220354, Note_on_c, 0, 74, 0
2, 220400, Control_c, 0, 64, 0
2, 220662, Control_c, 0, 64, 127
2, 220800, Note_on_c, 0, 39, 0
2, 221100, Note_on_c, 0, 70, 25
2, 221118, Note_on_c, 0, 58, 18
2, 221250, Note_on_c, 0, 67, 0
2, 221274, Note_on_c, 0, 58, 0
2, 221284, Note_on_c, 0, 75, 0
2, 221650, Note_on_c, 0, 70, 0
2, 221666, Note_on_c, 0, 79, 46
2, 221690, Note_on_c, 0, 46, 23
2, 221820, Note_on_c, 0, 46, 0
2, 221972, Note_on_c, 0, 79, 0
2, 222132, Note_on_c, 0, 75, 34
2, 222170, Note_on_c, 0, 67, 13
2, 222192, Note_on_c, 0, 51, 15
2, 222404, Note_on_c, 0, 51, 0
2, 222510, Note_on_c, 0, 67, 0
2, 222518, Note_on_c, 0, 75, 0
2, 222592, Note_on_c, 0, 70, 22
2, 222622, Note_on_c, 0, 58, 15
2, 222862, Note_on_c, 0, 58, 0
2, 223010, Note_on_c, 0, 70, 0
2, 223080, Note_on_c, 0, 46, 20
2, 223082, Note_on_c, 0, 79, 36
2, 223358, Note_on_c, 0, 79, 0
2, 223434, Note_on_c, 0, 46, 0
2, 223532, Note_on_c, 0, 39, 26
2, 223536, Note_on_c, 0, 75, 23
2, 223546, Note_on_c, 0, 67, 19
2, 223734, Note_on_c, 0, 39, 0
2, 223950, Note_on_c, 0, 75, 0
2, 223962, Note_on_c, 0, 67, 0
2, 223978, Note_on_c, 0, 58, 19
2, 223982, Note_on_c, 0, 70, 25
2, 224328, Note_on_c, 0, 58, 0
2, 224404, Note_on_c, 0, 70, 0
2, 224444, Note_on_c, 0, 46, 18
2, 224454, Note_on_c, 0, 79, 45
2, 224538, Note_on_c, 0, 46, 0
2, 224672, Note_on_c, 0, 79, 0
2, 224902, Note_on_c, 0, 75, 29
2, 224916, Note_on_c, 0, 67, 11
2, 224920, Note_on_c, 0, 51, 17
2, 225140, Note_on_c, 0, 51, 0
2, 225170, Note_on_c, 0, 67, 0
2, 225356, Note_on_c, 0, 75, 0
2, 225398, Note_on_c, 0, 70, 24
2, 225448, Note_on_c, 0, 58, 13
2, 225638, Note_on_c, 0, 58, 0
2, 225814, Note_on_c, 0, 70, 0
2, 225982, Note_on_c, 0, 79, 39
2, 225984, Note_on_c, 0, 46, 23
2, 226278, Note_on_c, 0, 79, 0
2, 226406, Note_on_c, 0, 46, 0
2, 226636, Note_on_c, 0, 75, 31
2, 226642, Note_on_c, 0, 67, 15
2, 226645, Note_on_c, 0, 51, 17
2, 226646, Note_on_c, 0, 58, 12
2, 226960, Note_on_c, 0, 58, 0
2, 227000, Note_on_c, 0, 51, 0
2, 227188, Note_on_c, 0, 67, 0
2, 227944, Note_on_c, 0, 75, 0
2, 228678, Note_on_c, 0, 87, 39
2, 228679, Note_on_c, 0, 70, 20
2, 228679, Note_on_c, 0, 63, 26
2, 228683, Note_on_c, 0, 79, 42
2, 229047, Note_on_c, 0, 79, 0
2, 229389, Note_on_c, 0, 70, 0
2, 229479, Note_on_c, 0, 63, 0
2, 229680, Note_on_c, 0, 87, 0
2, 231242, Note_on_c, 0, 63, 34
2, 231246, Note_on_c, 0, 55, 24
2, 231246, Note_on_c, 0, 46, 15
2, 231247, Note_on_c, 0, 39, 17
2, 235947, Note_on_c, 0, 39, 0
2, 235952, Note_on_c, 0, 55, 0
2, 235962, Note_on_c, 0, 46, 0
2, 235972, Note_on_c, 0, 63, 0
2, 236160, Control_c, 0, 64, 0
2, 236160, End_track
0, 0, End_of_file
