0, 0, Header, 0, 1, 480
1, 0, Start_track
1, 0, SMPTE_offset, 96, 0, 0, 0, 0
1, 0, Time_signature, 4, 2, 24, 8
1, 0, Key_signature, 0, "major"
1, 0, Tempo, 500000
1, 0, Control_c, 0, 64, 0
1, 0, Control_c, 0, 64, 127
1, 0, Control_c, 0, 64, 0
1, 0, Control_c, 0, 64, 127
1, 0, Note_on_c, 0, 75, 72
1, 40, Note_on_c, 0, 35, 35
1, 126, Note_off_c, 0, 35, 64
1, 654, Note_on_c, 0, 66, 21
1, 926, Note_off_c, 0, 66, 64
1, 1026, Note_on_c, 0, 76, 81
1, 1064, Note_on_c, 0, 54, 35
1, 1120, Note_off_c, 0, 75, 64
1, 1244, Control_c, 0, 64, 0
1, 1402, Note_on_c, 0, 66, 30
1, 1428, Control_c, 0, 64, 127
1, 1556, Note_on_c, 0, 75, 79
1, 1570, Note_off_c, 0, 54, 64
1, 1652, Note_off_c, 0, 66, 64
1, 1670, Note_off_c, 0, 76, 64
1, 1732, Note_on_c, 0, 58, 29
1, 1744, Note_on_c, 0, 64, 37
1, 1796, Note_on_c, 0, 73, 79
1, 1886, Note_off_c, 0, 75, 64
1, 1950, Control_c, 0, 64, 0
1, 2172, Note_on_c, 0, 66, 36
1, 2180, Control_c, 0, 64, 127
1, 2196, Note_off_c, 0, 64, 64
1, 2476, Note_off_c, 0, 66, 64
1, 2488, Note_on_c, 0, 75, 78
1, 2520, Note_on_c, 0, 54, 38
1, 2651, Note_off_c, 0, 58, 64
1, 2651, Note_off_c, 0, 73, 64
1, 2734, Control_c, 0, 64, 0
1, 2890, Note_on_c, 0, 66, 33
1, 2934, Control_c, 0, 64, 127
1, 3246, Note_off_c, 0, 66, 64
1, 3308, Note_on_c, 0, 71, 79
1, 3340, Note_on_c, 0, 63, 24
1, 3382, Note_on_c, 0, 59, 23
1, 3456, Control_c, 0, 64, 0
1, 3512, Note_off_c, 0, 54, 64
1, 3558, Note_off_c, 0, 75, 64
1, 3776, Note_on_c, 0, 66, 29
1, 3824, Control_c, 0, 64, 127
1, 4148, Note_off_c, 0, 66, 64
1, 4180, Note_on_c, 0, 54, 47
1, 4278, Note_off_c, 0, 63, 64
1, 4420, Note_off_c, 0, 59, 64
1, 4424, Note_on_c, 0, 75, 76
1, 4542, Note_off_c, 0, 71, 64
1, 4718, Note_on_c, 0, 83, 101
1, 4754, Note_off_c, 0, 75, 64
1, 4756, Note_on_c, 0, 66, 31
1, 4946, Note_on_c, 0, 80, 80
1, 5016, Note_off_c, 0, 83, 64
1, 5182, Note_off_c, 0, 66, 64
1, 5185, Note_on_c, 0, 78, 71
1, 5190, Note_on_c, 0, 61, 28
1, 5196, Note_on_c, 0, 58, 18
1, 5208, Control_c, 0, 64, 0
1, 5268, Note_off_c, 0, 80, 64
1, 5442, Note_off_c, 0, 54, 64
1, 5562, Control_c, 0, 64, 127
1, 5632, Note_on_c, 0, 66, 20
1, 5902, Note_off_c, 0, 66, 64
1, 6038, Note_off_c, 0, 61, 64
1, 6068, Note_on_c, 0, 54, 23
1, 6086, Note_off_c, 0, 58, 64
1, 6286, Note_off_c, 0, 54, 64
1, 6614, Note_on_c, 0, 76, 38
1, 6638, Note_on_c, 0, 66, 17
1, 6758, Note_off_c, 0, 66, 64
1, 6781, Note_off_c, 0, 78, 64
1, 7230, Note_on_c, 0, 75, 44
1, 7236, Control_c, 0, 64, 0
1, 7274, Note_on_c, 0, 47, 26
1, 7330, Note_off_c, 0, 76, 64
1, 7466, Control_c, 0, 64, 127
1, 7494, Note_off_c, 0, 47, 64
1, 7576, Note_off_c, 0, 75, 64
1, 7678, Note_on_c, 0, 75, 45
1, 7698, Note_on_c, 0, 66, 32
1, 7828, Note_off_c, 0, 66, 64
1, 7846, Note_on_c, 0, 76, 63
1, 7888, Note_off_c, 0, 75, 64
1, 7972, Note_on_c, 0, 78, 71
1, 8008, Note_off_c, 0, 76, 64
1, 8098, Note_on_c, 0, 54, 33
1, 8132, Note_on_c, 0, 76, 69
1, 8202, Note_off_c, 0, 78, 64
1, 8536, Note_on_c, 0, 66, 38
1, 8588, Note_off_c, 0, 54, 64
1, 8722, Note_on_c, 0, 75, 77
1, 8848, Note_off_c, 0, 76, 64
1, 8874, Note_off_c, 0, 66, 64
1, 8954, Note_on_c, 0, 58, 22
1, 8958, Note_on_c, 0, 64, 33
1, 8966, Note_on_c, 0, 73, 72
1, 9060, Note_off_c, 0, 75, 64
1, 9126, Control_c, 0, 64, 0
1, 9356, Control_c, 0, 64, 127
1, 9368, Note_on_c, 0, 66, 37
1, 9448, Note_off_c, 0, 64, 64
1, 9662, Note_off_c, 0, 66, 64
1, 9744, Note_on_c, 0, 75, 62
1, 9788, Note_on_c, 0, 54, 32
1, 9826, Note_off_c, 0, 73, 64
1, 9954, Control_c, 0, 64, 0
1, 10124, Control_c, 0, 64, 127
1, 10142, Note_on_c, 0, 66, 33
1, 10160, Note_off_c, 0, 58, 64
1, 10282, Note_on_c, 0, 70, 71
1, 10332, Note_off_c, 0, 75, 64
1, 10380, Note_off_c, 0, 66, 64
1, 10496, Note_on_c, 0, 63, 42
1, 10508, Note_on_c, 0, 59, 25
1, 10516, Note_on_c, 0, 71, 80
1, 10531, Note_off_c, 0, 70, 64
1, 10616, Control_c, 0, 64, 0
1, 10688, Note_off_c, 0, 54, 64
1, 10766, Note_on_c, 0, 73, 70
1, 10784, Note_off_c, 0, 71, 64
1, 10784, Control_c, 0, 64, 127
1, 10844, Note_off_c, 0, 73, 64
1, 10852, Note_on_c, 0, 71, 84
1, 10904, Note_off_c, 0, 71, 64
1, 10920, Note_on_c, 0, 73, 66
1, 10980, Note_on_c, 0, 71, 88
1, 11018, Note_on_c, 0, 66, 38
1, 11068, Note_off_c, 0, 73, 64
1, 11068, Control_c, 0, 64, 0
1, 11182, Note_on_c, 0, 70, 82
1, 11216, Note_off_c, 0, 71, 64
1, 11246, Control_c, 0, 64, 127
1, 11360, Note_on_c, 0, 71, 92
1, 11374, Note_off_c, 0, 70, 64
1, 11384, Note_on_c, 0, 54, 48
1, 11394, Note_off_c, 0, 66, 64
1, 11400, Control_c, 0, 64, 0
1, 11564, Note_on_c, 0, 75, 83
1, 11616, Note_off_c, 0, 71, 64
1, 11646, Control_c, 0, 64, 127
1, 11754, Control_c, 0, 64, 0
1, 11810, Note_on_c, 0, 83, 100
1, 11844, Note_off_c, 0, 75, 64
1, 11844, Note_on_c, 0, 66, 30
1, 11974, Note_off_c, 0, 59, 64
1, 12002, Note_off_c, 0, 63, 64
1, 12030, Control_c, 0, 64, 127
1, 12060, Note_on_c, 0, 80, 79
1, 12114, Note_off_c, 0, 83, 64
1, 12352, Control_c, 0, 64, 0
1, 12356, Note_on_c, 0, 78, 67
1, 12366, Note_on_c, 0, 58, 23
1, 12368, Note_on_c, 0, 61, 38
1, 12391, Note_off_c, 0, 66, 64
1, 12478, Note_off_c, 0, 80, 64
1, 12630, Note_off_c, 0, 54, 64
1, 12782, Control_c, 0, 64, 127
1, 12856, Note_on_c, 0, 66, 22
1, 13124, Note_off_c, 0, 66, 64
1, 13242, Note_off_c, 0, 61, 64
1, 13290, Note_off_c, 0, 58, 64
1, 13292, Note_on_c, 0, 54, 28
1, 13540, Note_off_c, 0, 54, 64
1, 13856, Note_on_c, 0, 76, 42
1, 13880, Note_on_c, 0, 66, 18
1, 14020, Note_off_c, 0, 78, 64
1, 14056, Note_off_c, 0, 66, 64
1, 14424, Note_on_c, 0, 75, 61
1, 14442, Note_on_c, 0, 47, 37
1, 14472, Control_c, 0, 64, 0
1, 14600, Note_off_c, 0, 76, 64
1, 14836, Note_on_c, 0, 54, 48
1, 14994, Note_off_c, 0, 47, 64
1, 14996, Control_c, 0, 64, 127
1, 15292, Note_off_c, 0, 54, 64
1, 15320, Note_on_c, 0, 74, 88
1, 15330, Note_on_c, 0, 57, 42
1, 15420, Note_off_c, 0, 75, 64
1, 15562, Note_off_c, 0, 57, 64
1, 15698, Note_on_c, 0, 63, 68
1, 15802, Note_off_c, 0, 63, 64
1, 15868, Note_on_c, 0, 75, 82
1, 15972, Note_off_c, 0, 74, 64
1, 16044, Note_on_c, 0, 46, 58
1, 16052, Note_on_c, 0, 77, 90
1, 16100, Control_c, 0, 64, 0
1, 16126, Note_off_c, 0, 75, 64
1, 16302, Control_c, 0, 64, 127
1, 16312, Note_off_c, 0, 46, 64
1, 16380, Note_on_c, 0, 56, 58
1, 16396, Note_off_c, 0, 77, 64
1, 16560, Note_on_c, 0, 77, 75
1, 16624, Note_on_c, 0, 80, 79
1, 16680, Note_off_c, 0, 77, 64
1, 16712, Note_on_c, 0, 58, 40
1, 16734, Note_on_c, 0, 78, 89
1, 16804, Note_off_c, 0, 56, 64
1, 16816, Note_off_c, 0, 80, 64
1, 17010, Note_off_c, 0, 58, 64
1, 17124, Note_on_c, 0, 62, 68
1, 17234, Note_off_c, 0, 62, 64
1, 17420, Note_on_c, 0, 77, 87
1, 17454, Note_off_c, 0, 78, 64
1, 17636, Note_on_c, 0, 75, 82
1, 17644, Note_on_c, 0, 39, 75
1, 17742, Note_off_c, 0, 77, 64
1, 17776, Control_c, 0, 64, 0
1, 17992, Control_c, 0, 64, 127
1, 18032, Note_on_c, 0, 54, 80
1, 18034, Note_off_c, 0, 39, 64
1, 18240, Note_off_c, 0, 54, 64
1, 18362, Note_on_c, 0, 70, 81
1, 18365, Note_on_c, 0, 58, 63
1, 18460, Note_off_c, 0, 75, 64
1, 18566, Note_off_c, 0, 58, 64
1, 18696, Note_on_c, 0, 63, 81
1, 18796, Note_off_c, 0, 63, 64
1, 18994, Note_on_c, 0, 40, 100
1, 18996, Note_on_c, 0, 73, 84
1, 19142, Note_off_c, 0, 70, 64
1, 19236, Control_c, 0, 64, 0
1, 19318, Note_on_c, 0, 52, 98
1, 19458, Note_off_c, 0, 40, 64
1, 19466, Control_c, 0, 64, 127
1, 19608, Note_off_c, 0, 52, 64
1, 19708, Note_on_c, 0, 68, 80
1, 19712, Note_on_c, 0, 56, 75
1, 19924, Note_off_c, 0, 73, 64
1, 20194, Note_on_c, 0, 61, 82
1, 20212, Note_off_c, 0, 56, 64
1, 20280, Note_off_c, 0, 61, 64
1, 20738, Note_off_c, 0, 68, 64
1, 21202, Control_c, 0, 64, 0
1, 21774, Note_on_c, 0, 43, 42
1, 22078, Control_c, 0, 64, 127
1, 22118, Note_off_c, 0, 43, 64
1, 22436, Note_on_c, 0, 52, 41
1, 22634, Note_on_c, 0, 71, 69
1, 22796, Note_off_c, 0, 71, 64
1, 22876, Note_on_c, 0, 71, 63
1, 22926, Note_on_c, 0, 59, 33
1, 23049, Note_off_c, 0, 52, 64
1, 23068, Note_on_c, 0, 73, 65
1, 23088, Note_off_c, 0, 71, 64
1, 23176, Note_on_c, 0, 71, 64
1, 23192, Note_off_c, 0, 59, 64
1, 23258, Note_off_c, 0, 73, 64
1, 23320, Note_on_c, 0, 70, 75
1, 23330, Note_on_c, 0, 64, 39
1, 23362, Note_off_c, 0, 71, 64
1, 23440, Note_off_c, 0, 64, 64
1, 23532, Note_on_c, 0, 71, 89
1, 23586, Note_off_c, 0, 70, 64
1, 23814, Control_c, 0, 64, 0
1, 23842, Note_on_c, 0, 75, 71
1, 23863, Note_on_c, 0, 42, 43
1, 23900, Note_off_c, 0, 71, 64
1, 24148, Note_off_c, 0, 42, 64
1, 24152, Control_c, 0, 64, 127
1, 24266, Note_off_c, 0, 75, 64
1, 24492, Note_on_c, 0, 75, 61
1, 24514, Note_on_c, 0, 54, 28
1, 24914, Note_off_c, 0, 54, 64
1, 24950, Note_on_c, 0, 58, 28
1, 25256, Note_off_c, 0, 58, 64
1, 25352, Note_on_c, 0, 73, 51
1, 25424, Note_on_c, 0, 64, 22
1, 25498, Note_off_c, 0, 64, 64
1, 25522, Note_off_c, 0, 75, 64
1, 25764, Note_on_c, 0, 71, 59
1, 25786, Note_on_c, 0, 47, 29
1, 25796, Control_c, 0, 64, 0
1, 25876, Note_off_c, 0, 73, 64
1, 26104, Note_on_c, 0, 54, 46
1, 26158, Note_off_c, 0, 47, 64
1, 26166, Control_c, 0, 64, 127
1, 26246, Note_off_c, 0, 54, 64
1, 26462, Note_on_c, 0, 80, 86
1, 26482, Note_on_c, 0, 65, 40
1, 26816, Note_on_c, 0, 54, 40
1, 26858, Control_c, 0, 64, 0
1, 27006, Note_off_c, 0, 65, 64
1, 27040, Control_c, 0, 64, 127
1, 27124, Note_on_c, 0, 73, 71
1, 27132, Note_on_c, 0, 64, 55
1, 27142, Note_on_c, 0, 70, 41
1, 27194, Note_off_c, 0, 54, 64
1, 27272, Note_off_c, 0, 71, 64
1, 27380, Control_c, 0, 64, 0
1, 27408, Note_off_c, 0, 80, 64
1, 27412, Note_on_c, 0, 54, 54
1, 27548, Control_c, 0, 64, 127
1, 27602, Note_off_c, 0, 64, 64
1, 27676, Note_on_c, 0, 75, 78
1, 27679, Note_on_c, 0, 69, 59
1, 27700, Note_on_c, 0, 60, 54
1, 27716, Note_off_c, 0, 54, 64
1, 27756, Note_off_c, 0, 70, 64
1, 27806, Note_off_c, 0, 73, 64
1, 27916, Control_c, 0, 64, 0
1, 27990, Note_on_c, 0, 54, 58
1, 28070, Control_c, 0, 64, 127
1, 28114, Note_on_c, 0, 78, 68
1, 28148, Note_off_c, 0, 75, 64
1, 28240, Note_on_c, 0, 76, 74
1, 28250, Note_on_c, 0, 70, 45
1, 28256, Note_off_c, 0, 60, 64
1, 28256, Note_on_c, 0, 61, 67
1, 28314, Note_off_c, 0, 78, 64
1, 28330, Note_off_c, 0, 69, 64
1, 28400, Note_off_c, 0, 54, 64
1, 28410, Control_c, 0, 64, 0
1, 28560, Note_on_c, 0, 54, 64
1, 28594, Control_c, 0, 64, 127
1, 28644, Note_off_c, 0, 61, 64
1, 28876, Note_on_c, 0, 75, 78
1, 28892, Note_on_c, 0, 66, 48
1, 28952, Note_off_c, 0, 76, 64
1, 29084, Note_off_c, 0, 66, 64
1, 29150, Note_on_c, 0, 73, 78
1, 29174, Note_on_c, 0, 64, 60
1, 29212, Note_off_c, 0, 75, 64
1, 29222, Note_off_c, 0, 70, 64
1, 29426, Note_on_c, 0, 66, 52
1, 29428, Note_on_c, 0, 71, 89
1, 29431, Note_off_c, 0, 64, 64
1, 29433, Note_on_c, 0, 63, 62
1, 29468, Control_c, 0, 64, 0
1, 29486, Note_off_c, 0, 73, 64
1, 29574, Note_off_c, 0, 54, 64
1, 29670, Control_c, 0, 64, 127
1, 29740, Note_on_c, 0, 54, 57
1, 29788, Note_off_c, 0, 66, 64
1, 29877, Note_off_c, 0, 63, 64
1, 29998, Note_on_c, 0, 68, 46
1, 30001, Note_on_c, 0, 73, 70
1, 30002, Note_on_c, 0, 65, 48
1, 30008, Control_c, 0, 64, 0
1, 30062, Note_off_c, 0, 71, 64
1, 30130, Note_off_c, 0, 54, 64
1, 30192, Control_c, 0, 64, 127
1, 30282, Note_off_c, 0, 65, 64
1, 30306, Note_on_c, 0, 54, 45
1, 30536, Note_off_c, 0, 68, 64
1, 30592, Note_on_c, 0, 70, 56
1, 30596, Note_on_c, 0, 66, 33
1, 30606, Control_c, 0, 64, 0
1, 30668, Note_off_c, 0, 73, 64
1, 30718, Note_off_c, 0, 54, 64
1, 30836, Control_c, 0, 64, 127
1, 30922, Note_off_c, 0, 70, 64
1, 30938, Note_off_c, 0, 66, 64
1, 30948, Note_on_c, 0, 54, 38
1, 31310, Note_on_c, 0, 80, 78
1, 31342, Note_on_c, 0, 71, 41
1, 31360, Control_c, 0, 64, 0
1, 31366, Note_on_c, 0, 65, 25
1, 31420, Note_off_c, 0, 54, 64
1, 31558, Control_c, 0, 64, 127
1, 31602, Note_off_c, 0, 65, 64
1, 31670, Note_on_c, 0, 54, 38
1, 31762, Note_off_c, 0, 54, 64
1, 31868, Note_on_c, 0, 73, 67
1, 31890, Note_on_c, 0, 70, 46
1, 31898, Note_off_c, 0, 71, 64
1, 31908, Note_on_c, 0, 64, 44
1, 31990, Note_off_c, 0, 80, 64
1, 32142, Control_c, 0, 64, 0
1, 32150, Note_on_c, 0, 54, 47
1, 32326, Control_c, 0, 64, 127
1, 32360, Note_off_c, 0, 54, 64
1, 32372, Note_off_c, 0, 64, 64
1, 32375, Note_on_c, 0, 75, 73
1, 32386, Note_on_c, 0, 69, 44
1, 32416, Note_off_c, 0, 70, 64
1, 32416, Note_on_c, 0, 60, 33
1, 32460, Note_off_c, 0, 73, 64
1, 32480, Control_c, 0, 64, 0
1, 32650, Control_c, 0, 64, 127
1, 32664, Note_on_c, 0, 54, 35
1, 32680, Note_off_c, 0, 69, 64
1, 32764, Note_on_c, 0, 78, 56
1, 32786, Note_off_c, 0, 60, 64
1, 32910, Note_on_c, 0, 76, 65
1, 32913, Note_on_c, 0, 70, 35
1, 32924, Note_off_c, 0, 75, 64
1, 32927, Note_on_c, 0, 61, 37
1, 32940, Note_off_c, 0, 78, 64
1, 33004, Control_c, 0, 64, 0
1, 33026, Note_off_c, 0, 54, 64
1, 33218, Control_c, 0, 64, 127
1, 33240, Note_on_c, 0, 54, 40
1, 33316, Note_off_c, 0, 61, 64
1, 33610, Note_on_c, 0, 75, 52
1, 33624, Note_on_c, 0, 66, 28
1, 33632, Control_c, 0, 64, 0
1, 33672, Note_off_c, 0, 76, 64
1, 33818, Control_c, 0, 64, 127
1, 33830, Note_off_c, 0, 54, 64
1, 33834, Note_off_c, 0, 66, 64
1, 33978, Note_on_c, 0, 73, 54
1, 33986, Control_c, 0, 64, 0
1, 34016, Note_on_c, 0, 64, 37
1, 34021, Note_on_c, 0, 55, 28
1, 34068, Note_off_c, 0, 75, 64
1, 34140, Control_c, 0, 64, 127
1, 34158, Note_off_c, 0, 64, 64
1, 34184, Note_off_c, 0, 70, 64
1, 34286, Note_off_c, 0, 55, 64
1, 34304, Note_on_c, 0, 63, 40
1, 34304, Note_on_c, 0, 71, 76
1, 34312, Note_on_c, 0, 68, 27
1, 34320, Note_on_c, 0, 56, 25
1, 34340, Control_c, 0, 64, 0
1, 34352, Note_off_c, 0, 73, 64
1, 34524, Control_c, 0, 64, 127
1, 34606, Note_off_c, 0, 71, 64
1, 34616, Note_off_c, 0, 63, 64
1, 34642, Note_on_c, 0, 59, 33
1, 34668, Note_off_c, 0, 68, 64
1, 34854, Note_off_c, 0, 59, 64
1, 34880, Note_off_c, 0, 56, 64
1, 34920, Note_on_c, 0, 73, 69
1, 34920, Note_on_c, 0, 61, 48
1, 34944, Note_on_c, 0, 68, 41
1, 34944, Note_on_c, 0, 52, 40
1, 35102, Note_off_c, 0, 52, 64
1, 35134, Note_off_c, 0, 61, 64
1, 35234, Note_off_c, 0, 73, 64
1, 35246, Note_on_c, 0, 59, 52
1, 35302, Note_off_c, 0, 59, 64
1, 35366, Note_on_c, 0, 61, 63
1, 35462, Note_on_c, 0, 66, 51
1, 35504, Note_off_c, 0, 68, 64
1, 35528, Note_on_c, 0, 42, 51
1, 35584, Note_on_c, 0, 73, 75
1, 35614, Control_c, 0, 64, 0
1, 35820, Note_off_c, 0, 42, 64
1, 35846, Control_c, 0, 64, 127
1, 35858, Note_off_c, 0, 61, 64
1, 35920, Note_on_c, 0, 58, 64
1, 36268, Note_off_c, 0, 58, 64
1, 36324, Note_on_c, 0, 75, 70
1, 36338, Note_on_c, 0, 64, 55
1, 36370, Note_on_c, 0, 59, 36
1, 36396, Note_off_c, 0, 73, 64
1, 36406, Note_off_c, 0, 66, 64
1, 36614, Control_c, 0, 64, 0
1, 36772, Note_on_c, 0, 54, 40
1, 36828, Control_c, 0, 64, 127
1, 36944, Note_on_c, 0, 68, 66
1, 37062, Note_off_c, 0, 75, 64
1, 37246, Note_off_c, 0, 59, 64
1, 37246, Note_on_c, 0, 73, 62
1, 37254, Note_on_c, 0, 58, 22
1, 37260, Note_on_c, 0, 66, 38
1, 37290, Control_c, 0, 64, 0
1, 37392, Note_off_c, 0, 68, 64
1, 37492, Note_off_c, 0, 54, 64
1, 37582, Control_c, 0, 64, 127
1, 37822, Note_on_c, 0, 54, 34
1, 37980, Note_off_c, 0, 64, 64
1, 38394, Note_off_c, 0, 54, 64
1, 38414, Note_off_c, 0, 73, 64
1, 38563, Note_on_c, 0, 74, 49
1, 38594, Note_on_c, 0, 70, 20
1, 38600, Note_on_c, 0, 64, 26
1, 38718, Note_off_c, 0, 66, 64
1, 38948, Note_off_c, 0, 74, 64
1, 38982, Note_off_c, 0, 70, 64
1, 39052, Note_on_c, 0, 54, 27
1, 39150, Note_off_c, 0, 64, 64
1, 39178, Note_off_c, 0, 58, 64
1, 39216, Note_on_c, 0, 63, 46
1, 39276, Note_off_c, 0, 63, 64
1, 39324, Note_on_c, 0, 63, 47
1, 39392, Note_off_c, 0, 54, 64
1, 39486, Note_on_c, 0, 66, 42
1, 39622, Note_on_c, 0, 71, 55
1, 39778, Note_on_c, 0, 47, 31
1, 39856, Control_c, 0, 64, 0
1, 39908, Note_on_c, 0, 75, 74
1, 40294, Note_off_c, 0, 63, 64
1, 40316, Control_c, 0, 64, 127
1, 40384, Note_off_c, 0, 71, 64
1, 40386, Note_off_c, 0, 66, 64
1, 40398, Note_off_c, 0, 47, 64
1, 40578, Note_on_c, 0, 54, 35
1, 40784, Note_off_c, 0, 54, 64
1, 40800, Note_off_c, 0, 75, 64
1, 40944, Note_on_c, 0, 54, 3
1, 40994, Note_on_c, 0, 76, 65
1, 41028, Note_on_c, 0, 66, 25
1, 41048, Note_off_c, 0, 54, 64
1, 41346, Control_c, 0, 64, 0
1, 41438, Control_c, 0, 64, 127
1, 41516, Note_on_c, 0, 54, 34
1, 41786, Note_on_c, 0, 75, 57
1, 41838, Note_off_c, 0, 54, 64
1, 41878, Note_off_c, 0, 76, 64
1, 41930, Note_off_c, 0, 66, 64
1, 41994, Note_on_c, 0, 58, 10
1, 41994, Note_on_c, 0, 64, 20
1, 42000, Note_on_c, 0, 73, 54
1, 42046, Note_off_c, 0, 75, 64
1, 42310, Note_off_c, 0, 64, 64
1, 42406, Control_c, 0, 64, 0
1, 42410, Note_on_c, 0, 54, 34
1, 42516, Note_on_c, 0, 64, 2
1, 42590, Control_c, 0, 64, 127
1, 42696, Note_off_c, 0, 54, 64
1, 42786, Note_on_c, 0, 75, 56
1, 42806, Note_on_c, 0, 66, 16
1, 42828, Note_off_c, 0, 64, 64
1, 42906, Note_off_c, 0, 73, 64
1, 43038, Note_off_c, 0, 66, 64
1, 43144, Note_off_c, 0, 58, 64
1, 43176, Note_on_c, 0, 54, 30
1, 43452, Note_off_c, 0, 54, 64
1, 43540, Note_on_c, 0, 71, 63
1, 43574, Note_on_c, 0, 59, 13
1, 43577, Note_on_c, 0, 63, 9
1, 43674, Note_off_c, 0, 75, 64
1, 43934, Note_on_c, 0, 54, 33
1, 43944, Control_c, 0, 64, 0
1, 44112, Control_c, 0, 64, 127
1, 44238, Note_off_c, 0, 54, 64
1, 44396, Note_on_c, 0, 66, 15
1, 44664, Note_on_c, 0, 75, 48
1, 44696, Note_off_c, 0, 71, 64
1, 45012, Note_off_c, 0, 75, 64
1, 45015, Note_off_c, 0, 59, 64
1, 45015, Note_on_c, 0, 83, 61
1, 45040, Note_on_c, 0, 54, 27
1, 45062, Note_off_c, 0, 63, 64
1, 45256, Note_off_c, 0, 83, 64
1, 45256, Note_on_c, 0, 80, 52
1, 45430, Note_off_c, 0, 66, 64
1, 45474, Note_on_c, 0, 78, 54
1, 45504, Note_off_c, 0, 80, 64
1, 45507, Note_on_c, 0, 61, 17
1, 45514, Note_on_c, 0, 58, 11
1, 45572, Control_c, 0, 64, 0
1, 45640, Note_off_c, 0, 54, 64
1, 45772, Control_c, 0, 64, 127
1, 45888, Note_on_c, 0, 54, 34
1, 46076, Note_off_c, 0, 54, 64
1, 46300, Note_on_c, 0, 66, 21
1, 46572, Note_off_c, 0, 61, 64
1, 46594, Note_off_c, 0, 66, 64
1, 46664, Note_off_c, 0, 58, 64
1, 46826, Note_on_c, 0, 76, 43
1, 46882, Note_off_c, 0, 78, 64
1, 46882, Note_on_c, 0, 54, 26
1, 47004, Note_off_c, 0, 54, 64
1, 47346, Note_off_c, 0, 76, 64
1, 47370, Control_c, 0, 64, 0
1, 47370, Note_on_c, 0, 75, 42
1, 47394, Note_on_c, 0, 47, 32
1, 47600, Control_c, 0, 64, 127
1, 47602, Note_off_c, 0, 47, 64
1, 47674, Note_off_c, 0, 75, 64
1, 47814, Note_on_c, 0, 75, 51
1, 47880, Note_on_c, 0, 66, 24
1, 47980, Note_on_c, 0, 76, 59
1, 48010, Note_off_c, 0, 75, 64
1, 48138, Note_on_c, 0, 78, 67
1, 48168, Note_off_c, 0, 76, 64
1, 48238, Note_off_c, 0, 66, 64
1, 48302, Note_on_c, 0, 54, 30
1, 48330, Note_on_c, 0, 76, 54
1, 48434, Note_off_c, 0, 78, 64
1, 48752, Note_on_c, 0, 66, 35
1, 48755, Note_off_c, 0, 54, 64
1, 48922, Note_on_c, 0, 75, 56
1, 48992, Note_off_c, 0, 76, 64
1, 49004, Note_off_c, 0, 66, 64
1, 49136, Note_on_c, 0, 58, 14
1, 49158, Note_on_c, 0, 64, 19
1, 49161, Note_on_c, 0, 73, 59
1, 49202, Note_off_c, 0, 75, 64
1, 49382, Control_c, 0, 64, 0
1, 49572, Note_on_c, 0, 66, 26
1, 49582, Control_c, 0, 64, 127
1, 49630, Note_off_c, 0, 64, 64
1, 49822, Note_off_c, 0, 66, 64
1, 49930, Note_off_c, 0, 58, 64
1, 49935, Note_on_c, 0, 75, 54
1, 49986, Note_on_c, 0, 54, 15
1, 50010, Note_off_c, 0, 73, 64
1, 50374, Note_on_c, 0, 66, 17
1, 50566, Note_off_c, 0, 75, 64
1, 50568, Note_off_c, 0, 66, 64
1, 50568, Note_on_c, 0, 70, 50
1, 50844, Note_on_c, 0, 63, 20
1, 50870, Note_on_c, 0, 59, 22
1, 50894, Note_off_c, 0, 70, 64
1, 50914, Note_on_c, 0, 71, 57
1, 50930, Note_off_c, 0, 54, 64
1, 51042, Control_c, 0, 64, 0
1, 51114, Note_off_c, 0, 71, 64
1, 51124, Note_on_c, 0, 73, 60
1, 51242, Control_c, 0, 64, 127
1, 51272, Note_on_c, 0, 71, 70
1, 51320, Note_off_c, 0, 73, 64
1, 51398, Note_on_c, 0, 70, 64
1, 51404, Note_off_c, 0, 71, 64
1, 51522, Note_off_c, 0, 70, 64
1, 51566, Note_on_c, 0, 71, 74
1, 51642, Note_on_c, 0, 66, 14
1, 51720, Note_on_c, 0, 75, 68
1, 51776, Note_off_c, 0, 71, 64
1, 51842, Note_on_c, 0, 83, 101
1, 51862, Note_off_c, 0, 75, 64
1, 51956, Note_on_c, 0, 80, 78
1, 51990, Note_off_c, 0, 83, 64
1, 52010, Control_c, 0, 64, 0
1, 52058, Note_on_c, 0, 54, 40
1, 52116, Note_on_c, 0, 78, 79
1, 52174, Note_off_c, 0, 78, 64
1, 52180, Note_off_c, 0, 80, 64
1, 52182, Note_off_c, 0, 66, 64
1, 52194, Control_c, 0, 64, 127
1, 52334, Note_on_c, 0, 83, 52
1, 52394, Note_off_c, 0, 83, 64
1, 52396, Note_on_c, 0, 85, 69
1, 52466, Note_on_c, 0, 83, 96
1, 52534, Note_off_c, 0, 85, 64
1, 52546, Note_on_c, 0, 82, 68
1, 52558, Note_off_c, 0, 83, 64
1, 52568, Note_off_c, 0, 59, 64
1, 52594, Note_off_c, 0, 82, 64
1, 52640, Note_on_c, 0, 83, 84
1, 52686, Control_c, 0, 64, 0
1, 52714, Note_on_c, 0, 66, 26
1, 52794, Note_on_c, 0, 87, 44
1, 52808, Note_off_c, 0, 83, 64
1, 52870, Note_off_c, 0, 87, 64
1, 52886, Note_off_c, 0, 63, 64
1, 52902, Control_c, 0, 64, 127
1, 52936, Note_on_c, 0, 95, 41
1, 53028, Note_off_c, 0, 95, 64
1, 53050, Note_on_c, 0, 92, 61
1, 53114, Note_off_c, 0, 66, 64
1, 53174, Note_on_c, 0, 58, 23
1, 53178, Control_c, 0, 64, 0
1, 53182, Note_on_c, 0, 61, 29
1, 53218, Note_off_c, 0, 92, 64
1, 53224, Note_on_c, 0, 90, 54
1, 53406, Note_off_c, 0, 54, 64
1, 53454, Control_c, 0, 64, 127
1, 53522, Note_off_c, 0, 90, 64
1, 53636, Note_on_c, 0, 66, 17
1, 53818, Note_off_c, 0, 66, 64
1, 54092, Note_off_c, 0, 61, 64
1, 54105, Note_on_c, 0, 54, 33
1, 54248, Note_off_c, 0, 54, 64
1, 54350, Note_off_c, 0, 58, 64
1, 54562, Note_on_c, 0, 76, 67
1, 54612, Note_on_c, 0, 66, 24
1, 54744, Note_off_c, 0, 66, 64
1, 55112, Note_on_c, 0, 75, 69
1, 55146, Note_on_c, 0, 47, 35
1, 55282, Note_off_c, 0, 76, 64
1, 55282, Control_c, 0, 64, 0
1, 55558, Control_c, 0, 64, 127
1, 55590, Note_on_c, 0, 54, 43
1, 55694, Note_off_c, 0, 47, 64
1, 55904, Note_off_c, 0, 54, 64
1, 55942, Note_on_c, 0, 74, 87
1, 55942, Note_on_c, 0, 57, 39
1, 56034, Note_off_c, 0, 75, 64
1, 56148, Note_off_c, 0, 57, 64
1, 56308, Note_on_c, 0, 63, 53
1, 56396, Note_off_c, 0, 63, 64
1, 56462, Note_on_c, 0, 75, 74
1, 56564, Note_off_c, 0, 74, 64
1, 56682, Note_on_c, 0, 77, 88
1, 56688, Note_on_c, 0, 46, 50
1, 56712, Control_c, 0, 64, 0
1, 56750, Note_off_c, 0, 75, 64
1, 56910, Control_c, 0, 64, 127
1, 56932, Note_off_c, 0, 46, 64
1, 56988, Note_off_c, 0, 77, 64
1, 57010, Note_on_c, 0, 56, 54
1, 57162, Note_on_c, 0, 77, 75
1, 57232, Note_on_c, 0, 80, 83
1, 57260, Note_off_c, 0, 77, 64
1, 57320, Note_off_c, 0, 56, 64
1, 57324, Note_on_c, 0, 58, 42
1, 57324, Note_on_c, 0, 78, 89
1, 57416, Note_off_c, 0, 80, 64
1, 57534, Note_off_c, 0, 58, 64
1, 57722, Note_on_c, 0, 62, 61
1, 57840, Note_off_c, 0, 62, 64
1, 57964, Note_on_c, 0, 77, 82
1, 57974, Note_off_c, 0, 78, 64
1, 58162, Note_on_c, 0, 75, 84
1, 58170, Note_on_c, 0, 39, 74
1, 58242, Note_off_c, 0, 77, 64
1, 58310, Control_c, 0, 64, 0
1, 58518, Note_on_c, 0, 54, 81
1, 58524, Control_c, 0, 64, 127
1, 58530, Note_off_c, 0, 39, 64
1, 58726, Note_off_c, 0, 54, 64
1, 58840, Note_on_c, 0, 70, 82
1, 58842, Note_on_c, 0, 58, 61
1, 58938, Note_off_c, 0, 75, 64
1, 59072, Note_off_c, 0, 58, 64
1, 59172, Note_on_c, 0, 63, 77
1, 59278, Note_off_c, 0, 63, 64
1, 59508, Note_on_c, 0, 40, 99
1, 59508, Note_on_c, 0, 73, 81
1, 59554, Control_c, 0, 64, 0
1, 59600, Note_off_c, 0, 70, 64
1, 59756, Note_off_c, 0, 40, 64
1, 59768, Control_c, 0, 64, 127
1, 59896, Note_on_c, 0, 52, 94
1, 60292, Note_on_c, 0, 68, 86
1, 60304, Note_off_c, 0, 52, 64
1, 60307, Note_on_c, 0, 56, 69
1, 60328, Note_off_c, 0, 73, 64
1, 60374, Note_off_c, 0, 68, 64
1, 60724, Note_off_c, 0, 56, 64
1, 60738, Note_on_c, 0, 61, 73
1, 60826, Note_off_c, 0, 61, 64
1, 61950, Control_c, 0, 64, 0
1, 62578, Note_on_c, 0, 31, 33
1, 62780, Control_c, 0, 64, 127
1, 62838, Note_off_c, 0, 31, 64
1, 63316, Note_on_c, 0, 52, 39
1, 63486, Note_off_c, 0, 52, 64
1, 63536, Note_on_c, 0, 71, 59
1, 63728, Note_off_c, 0, 71, 64
1, 63832, Note_on_c, 0, 71, 49
1, 63850, Note_on_c, 0, 59, 32
1, 63934, Note_off_c, 0, 59, 64
1, 63976, Note_off_c, 0, 71, 64
1, 63984, Note_on_c, 0, 73, 60
1, 64090, Note_on_c, 0, 71, 68
1, 64162, Note_off_c, 0, 73, 64
1, 64228, Note_on_c, 0, 70, 72
1, 64246, Note_on_c, 0, 64, 43
1, 64272, Note_off_c, 0, 71, 64
1, 64302, Note_off_c, 0, 64, 64
1, 64444, Note_on_c, 0, 71, 89
1, 64490, Note_off_c, 0, 70, 64
1, 64798, Note_on_c, 0, 30, 57
1, 64820, Note_on_c, 0, 75, 69
1, 64823, Control_c, 0, 64, 0
1, 64878, Note_off_c, 0, 71, 64
1, 65064, Note_off_c, 0, 30, 64
1, 65102, Control_c, 0, 64, 127
1, 65358, Note_off_c, 0, 75, 64
1, 65482, Note_on_c, 0, 54, 42
1, 65510, Note_on_c, 0, 75, 75
1, 65876, Note_off_c, 0, 54, 64
1, 65948, Note_on_c, 0, 58, 29
1, 66274, Note_off_c, 0, 58, 64
1, 66558, Note_on_c, 0, 64, 24
1, 66694, Note_off_c, 0, 64, 64
1, 66816, Note_on_c, 0, 73, 37
1, 66946, Note_off_c, 0, 75, 64
1, 67074, Note_on_c, 0, 71, 47
1, 67128, Note_off_c, 0, 73, 64
1, 67266, Note_off_c, 0, 71, 64
1, 67294, Note_on_c, 0, 35, 31
1, 67344, Control_c, 0, 64, 0
1, 67380, Note_on_c, 0, 71, 52
1, 67574, Note_off_c, 0, 35, 64
1, 67606, Control_c, 0, 64, 127
1, 67914, Note_on_c, 0, 54, 41
1, 67996, Note_off_c, 0, 54, 64
1, 68054, Note_off_c, 0, 71, 64
1, 68332, Note_on_c, 0, 78, 81
1, 68358, Note_on_c, 0, 66, 29
1, 68370, Note_on_c, 0, 63, 23
1, 68682, Note_off_c, 0, 66, 64
1, 68724, Note_off_c, 0, 63, 64
1, 68752, Note_on_c, 0, 54, 37
1, 68862, Note_off_c, 0, 54, 64
1, 69074, Note_on_c, 0, 76, 81
1, 69094, Note_on_c, 0, 64, 43
1, 69100, Note_on_c, 0, 61, 31
1, 69258, Note_off_c, 0, 78, 64
1, 69310, Control_c, 0, 64, 0
1, 69408, Note_on_c, 0, 54, 41
1, 69464, Note_off_c, 0, 64, 64
1, 69510, Control_c, 0, 64, 127
1, 69552, Note_off_c, 0, 61, 64
1, 69718, Note_off_c, 0, 54, 64
1, 69728, Note_on_c, 0, 75, 84
1, 69744, Note_on_c, 0, 63, 44
1, 69752, Note_on_c, 0, 59, 39
1, 69858, Note_off_c, 0, 76, 64
1, 69864, Control_c, 0, 64, 0
1, 70048, Control_c, 0, 64, 127
1, 70074, Note_off_c, 0, 63, 64
1, 70086, Note_on_c, 0, 54, 48
1, 70134, Note_off_c, 0, 59, 64
1, 70226, Note_off_c, 0, 54, 64
1, 70432, Note_on_c, 0, 73, 73
1, 70480, Note_on_c, 0, 42, 31
1, 70556, Control_c, 0, 64, 0
1, 70582, Note_off_c, 0, 75, 64
1, 70770, Note_on_c, 0, 49, 39
1, 70798, Note_off_c, 0, 42, 64
1, 70802, Control_c, 0, 64, 127
1, 71136, Note_off_c, 0, 73, 64
1, 71144, Note_on_c, 0, 54, 42
1, 71144, Note_on_c, 0, 58, 29
1, 71152, Note_off_c, 0, 49, 64
1, 71484, Note_on_c, 0, 73, 71
1, 71524, Note_on_c, 0, 49, 38
1, 71566, Note_off_c, 0, 54, 64
1, 71612, Note_off_c, 0, 58, 64
1, 71932, Note_on_c, 0, 75, 63
1, 71950, Note_off_c, 0, 49, 64
1, 71956, Note_on_c, 0, 46, 29
1, 72022, Note_off_c, 0, 73, 64
1, 72030, Control_c, 0, 64, 0
1, 72230, Control_c, 0, 64, 127
1, 72284, Note_on_c, 0, 73, 70
1, 72326, Note_on_c, 0, 49, 34
1, 72352, Note_off_c, 0, 46, 64
1, 72412, Note_off_c, 0, 75, 64
1, 72572, Note_off_c, 0, 49, 64
1, 72610, Note_on_c, 0, 71, 88
1, 72620, Note_on_c, 0, 61, 31
1, 72634, Note_off_c, 0, 73, 64
1, 72652, Note_on_c, 0, 54, 34
1, 72736, Note_off_c, 0, 61, 64
1, 72916, Note_on_c, 0, 70, 79
1, 72940, Note_off_c, 0, 54, 64
1, 72946, Note_on_c, 0, 49, 40
1, 72978, Note_off_c, 0, 71, 64
1, 73068, Note_off_c, 0, 49, 64
1, 73232, Note_on_c, 0, 66, 62
1, 73240, Note_on_c, 0, 71, 87
1, 73274, Control_c, 0, 64, 0
1, 73278, Note_on_c, 0, 37, 44
1, 73326, Note_off_c, 0, 70, 64
1, 73453, Note_off_c, 0, 37, 64
1, 73504, Control_c, 0, 64, 127
1, 73564, Note_on_c, 0, 49, 46
1, 73569, Note_on_c, 0, 65, 76
1, 73594, Note_off_c, 0, 66, 64
1, 73670, Note_off_c, 0, 71, 64
1, 73804, Note_on_c, 0, 53, 64
1, 73908, Note_on_c, 0, 71, 78
1, 73912, Note_on_c, 0, 63, 73
1, 73940, Note_on_c, 0, 59, 35
1, 73950, Control_c, 0, 64, 0
1, 73952, Note_off_c, 0, 65, 64
1, 74118, Note_off_c, 0, 49, 64
1, 74134, Control_c, 0, 64, 127
1, 74154, Note_off_c, 0, 59, 64
1, 74244, Note_off_c, 0, 53, 64
1, 74248, Note_on_c, 0, 61, 82
1, 74250, Note_off_c, 0, 71, 64
1, 74280, Note_on_c, 0, 49, 35
1, 74290, Note_off_c, 0, 63, 64
1, 74566, Note_off_c, 0, 49, 64
1, 74602, Note_on_c, 0, 42, 29
1, 74604, Note_on_c, 0, 68, 52
1, 74608, Note_on_c, 0, 71, 72
1, 74642, Control_c, 0, 64, 0
1, 74656, Note_off_c, 0, 61, 64
1, 74948, Control_c, 0, 64, 127
1, 75046, Note_off_c, 0, 42, 64
1, 75048, Note_on_c, 0, 49, 30
1, 75450, Note_on_c, 0, 70, 41
1, 75456, Note_on_c, 0, 66, 31
1, 75480, Note_on_c, 0, 58, 16
1, 75488, Control_c, 0, 64, 0
1, 75496, Note_off_c, 0, 68, 64
1, 75498, Note_off_c, 0, 71, 64
1, 75498, Note_on_c, 0, 54, 19
1, 75648, Note_off_c, 0, 49, 64
1, 75702, Control_c, 0, 64, 127
1, 75760, Note_off_c, 0, 58, 64
1, 75838, Note_off_c, 0, 54, 64
1, 75840, Note_on_c, 0, 49, 32
1, 75870, Note_off_c, 0, 66, 64
1, 75895, Note_off_c, 0, 70, 64
1, 76102, Note_off_c, 0, 49, 64
1, 76164, Note_on_c, 0, 42, 47
1, 76428, Note_off_c, 0, 42, 64
1, 76500, Note_on_c, 0, 73, 55
1, 76506, Note_on_c, 0, 70, 44
1, 76514, Note_on_c, 0, 49, 32
1, 76550, Note_off_c, 0, 73, 64
1, 76570, Note_on_c, 0, 75, 53
1, 76628, Note_on_c, 0, 73, 44
1, 76706, Note_off_c, 0, 70, 64
1, 76709, Note_off_c, 0, 75, 64
1, 76744, Note_on_c, 0, 58, 30
1, 76747, Note_on_c, 0, 72, 79
1, 76750, Note_on_c, 0, 69, 62
1, 76772, Note_on_c, 0, 54, 44
1, 76790, Note_off_c, 0, 49, 64
1, 76798, Note_off_c, 0, 73, 64
1, 76902, Note_off_c, 0, 69, 64
1, 77060, Note_on_c, 0, 73, 82
1, 77066, Note_on_c, 0, 70, 55
1, 77086, Note_off_c, 0, 58, 64
1, 77108, Note_off_c, 0, 72, 64
1, 77111, Note_on_c, 0, 49, 39
1, 77132, Note_off_c, 0, 54, 64
1, 77226, Note_off_c, 0, 70, 64
1, 77430, Note_off_c, 0, 49, 64
1, 77480, Note_on_c, 0, 42, 29
1, 77498, Note_off_c, 0, 73, 64
1, 77532, Note_on_c, 0, 78, 62
1, 77546, Note_on_c, 0, 70, 29
1, 77608, Control_c, 0, 64, 0
1, 77832, Control_c, 0, 64, 127
1, 77892, Note_off_c, 0, 78, 64
1, 77902, Note_off_c, 0, 70, 64
1, 77908, Note_off_c, 0, 42, 64
1, 77952, Note_on_c, 0, 49, 26
1, 78168, Note_on_c, 0, 73, 65
1, 78184, Note_on_c, 0, 70, 46
1, 78234, Note_off_c, 0, 70, 64
1, 78244, Note_off_c, 0, 73, 64
1, 78328, Note_on_c, 0, 73, 61
1, 78340, Note_on_c, 0, 70, 35
1, 78360, Note_off_c, 0, 49, 64
1, 78366, Note_on_c, 0, 61, 37
1, 78600, Note_off_c, 0, 70, 64
1, 78632, Note_off_c, 0, 61, 64
1, 78638, Note_on_c, 0, 71, 80
1, 78648, Note_on_c, 0, 68, 53
1, 78672, Note_off_c, 0, 73, 64
1, 78804, Note_on_c, 0, 49, 41
1, 78838, Note_off_c, 0, 68, 64
1, 78916, Note_on_c, 0, 70, 69
1, 78919, Note_on_c, 0, 66, 58
1, 78924, Note_off_c, 0, 71, 64
1, 78966, Note_off_c, 0, 49, 64
1, 79050, Note_off_c, 0, 66, 64
1, 79068, Note_off_c, 0, 70, 64
1, 79194, Note_on_c, 0, 71, 74
1, 79196, Note_on_c, 0, 66, 53
1, 79202, Note_on_c, 0, 37, 48
1, 79222, Control_c, 0, 64, 0
1, 79398, Note_off_c, 0, 37, 64
1, 79434, Note_off_c, 0, 71, 64
1, 79434, Control_c, 0, 64, 127
1, 79496, Note_off_c, 0, 66, 64
1, 79540, Note_on_c, 0, 49, 53
1, 79744, Note_on_c, 0, 71, 87
1, 79746, Note_on_c, 0, 65, 80
1, 79788, Note_off_c, 0, 65, 64
1, 79810, Note_off_c, 0, 71, 64
1, 79896, Note_on_c, 0, 53, 58
1, 79902, Note_on_c, 0, 71, 68
1, 79920, Note_on_c, 0, 65, 51
1, 79942, Note_on_c, 0, 59, 45
1, 79974, Control_c, 0, 64, 0
1, 80100, Note_off_c, 0, 71, 64
1, 80116, Note_off_c, 0, 49, 64
1, 80158, Control_c, 0, 64, 127
1, 80210, Note_on_c, 0, 71, 70
1, 80216, Note_on_c, 0, 63, 69
1, 80244, Note_off_c, 0, 65, 64
1, 80270, Note_off_c, 0, 63, 64
1, 80310, Note_off_c, 0, 71, 64
1, 80340, Note_off_c, 0, 59, 64
1, 80374, Note_on_c, 0, 49, 43
1, 80392, Note_off_c, 0, 53, 64
1, 80510, Note_on_c, 0, 71, 78
1, 80510, Note_on_c, 0, 61, 68
1, 80600, Note_off_c, 0, 61, 64
1, 80642, Note_off_c, 0, 71, 64
1, 80656, Note_off_c, 0, 49, 64
1, 80860, Note_on_c, 0, 68, 46
1, 80862, Note_on_c, 0, 71, 64
1, 80862, Note_on_c, 0, 42, 34
1, 80896, Control_c, 0, 64, 0
1, 81234, Control_c, 0, 64, 127
1, 81284, Note_on_c, 0, 49, 45
1, 81328, Note_off_c, 0, 42, 64
1, 81698, Note_on_c, 0, 58, 16
1, 81700, Note_on_c, 0, 54, 37
1, 81702, Note_on_c, 0, 70, 40
1, 81716, Note_on_c, 0, 66, 25
1, 81728, Note_off_c, 0, 68, 64
1, 81772, Note_off_c, 0, 71, 64
1, 82002, Control_c, 0, 64, 0
1, 82172, Note_on_c, 0, 50, 55
1, 82234, Note_off_c, 0, 49, 64
1, 82423, Note_off_c, 0, 58, 64
1, 82456, Note_off_c, 0, 54, 64
1, 82464, Control_c, 0, 64, 127
1, 82522, Note_off_c, 0, 50, 64
1, 82700, Note_on_c, 0, 39, 58
1, 82738, Control_c, 0, 64, 0
1, 82954, Control_c, 0, 64, 127
1, 82970, Note_off_c, 0, 39, 64
1, 83080, Note_on_c, 0, 46, 61
1, 83296, Note_off_c, 0, 70, 64
1, 83306, Note_off_c, 0, 66, 64
1, 83430, Note_on_c, 0, 58, 45
1, 83440, Note_on_c, 0, 51, 56
1, 83450, Note_on_c, 0, 54, 55
1, 83480, Note_off_c, 0, 46, 64
1, 83732, Note_off_c, 0, 58, 64
1, 83774, Note_on_c, 0, 70, 76
1, 83776, Note_on_c, 0, 66, 70
1, 83790, Note_off_c, 0, 54, 64
1, 83793, Note_on_c, 0, 46, 50
1, 83860, Note_off_c, 0, 51, 64
1, 84064, Note_off_c, 0, 46, 64
1, 84200, Note_on_c, 0, 68, 69
1, 84200, Note_on_c, 0, 71, 87
1, 84203, Note_on_c, 0, 39, 61
1, 84244, Note_off_c, 0, 66, 64
1, 84280, Note_off_c, 0, 70, 64
1, 84522, Control_c, 0, 64, 0
1, 84568, Note_on_c, 0, 70, 74
1, 84572, Note_on_c, 0, 66, 71
1, 84578, Note_on_c, 0, 46, 50
1, 84606, Note_off_c, 0, 68, 64
1, 84668, Note_off_c, 0, 71, 64
1, 84696, Note_off_c, 0, 39, 64
1, 84722, Control_c, 0, 64, 127
1, 84838, Note_off_c, 0, 46, 64
1, 84908, Note_on_c, 0, 68, 75
1, 84911, Note_on_c, 0, 58, 55
1, 84911, Note_on_c, 0, 65, 75
1, 84970, Note_off_c, 0, 66, 64
1, 84986, Note_off_c, 0, 70, 64
1, 85020, Note_off_c, 0, 68, 64
1, 85080, Note_off_c, 0, 58, 64
1, 85220, Note_on_c, 0, 63, 81
1, 85220, Note_on_c, 0, 66, 76
1, 85230, Note_on_c, 0, 46, 54
1, 85288, Note_off_c, 0, 65, 64
1, 85360, Note_off_c, 0, 46, 64
1, 85400, Note_off_c, 0, 66, 64
1, 85442, Note_off_c, 0, 63, 64
1, 85542, Note_on_c, 0, 68, 73
1, 85542, Note_on_c, 0, 63, 59
1, 85544, Note_on_c, 0, 34, 67
1, 85550, Note_on_c, 0, 65, 62
1, 85658, Control_c, 0, 64, 0
1, 85858, Note_on_c, 0, 62, 84
1, 85864, Note_off_c, 0, 34, 64
1, 85868, Note_on_c, 0, 46, 52
1, 85874, Control_c, 0, 64, 127
1, 85884, Note_off_c, 0, 63, 64
1, 85924, Note_off_c, 0, 68, 64
1, 85948, Note_off_c, 0, 46, 64
1, 86154, Note_on_c, 0, 53, 81
1, 86180, Note_off_c, 0, 62, 64
1, 86182, Note_on_c, 0, 68, 69
1, 86198, Note_on_c, 0, 59, 60
1, 86200, Note_on_c, 0, 63, 60
1, 86228, Control_c, 0, 64, 0
1, 86238, Note_off_c, 0, 65, 64
1, 86274, Note_on_c, 0, 46, 2
1, 86412, Control_c, 0, 64, 127
1, 86434, Note_off_c, 0, 59, 64
1, 86498, Note_off_c, 0, 53, 64
1, 86524, Note_on_c, 0, 58, 62
1, 86528, Note_on_c, 0, 62, 68
1, 86528, Note_on_c, 0, 56, 56
1, 86534, Note_off_c, 0, 63, 64
1, 86630, Note_off_c, 0, 68, 64
1, 86664, Note_off_c, 0, 56, 64
1, 86720, Note_off_c, 0, 58, 64
1, 86750, Note_off_c, 0, 46, 64
1, 86928, Note_on_c, 0, 68, 66
1, 86936, Note_on_c, 0, 58, 58
1, 86936, Note_on_c, 0, 65, 54
1, 86948, Note_on_c, 0, 39, 34
1, 87022, Note_off_c, 0, 62, 64
1, 87056, Control_c, 0, 64, 0
1, 87328, Note_on_c, 0, 46, 42
1, 87410, Control_c, 0, 64, 127
1, 87486, Note_off_c, 0, 39, 64
1, 87656, Note_off_c, 0, 65, 64
1, 87670, Note_on_c, 0, 54, 55
1, 87768, Note_on_c, 0, 63, 38
1, 87769, Note_on_c, 0, 66, 37
1, 87872, Control_c, 0, 64, 0
1, 87884, Note_off_c, 0, 68, 64
1, 88046, Note_on_c, 0, 51, 49
1, 88070, Control_c, 0, 64, 127
1, 88121, Note_off_c, 0, 54, 64
1, 88294, Note_off_c, 0, 58, 64
1, 88457, Note_off_c, 0, 66, 64
1, 88465, Note_off_c, 0, 63, 64
1, 88478, Note_off_c, 0, 46, 64
1, 88502, Note_on_c, 0, 45, 53
1, 88520, Note_off_c, 0, 51, 64
1, 88748, Control_c, 0, 64, 0
1, 88898, Note_on_c, 0, 64, 71
1, 88935, Note_on_c, 0, 51, 43
1, 88978, Control_c, 0, 64, 127
1, 89106, Note_off_c, 0, 45, 64
1, 89134, Note_off_c, 0, 64, 64
1, 89152, Note_on_c, 0, 65, 76
1, 89330, Note_on_c, 0, 68, 66
1, 89364, Note_off_c, 0, 65, 64
1, 89392, Note_on_c, 0, 66, 74
1, 89402, Note_on_c, 0, 60, 37
1, 89492, Note_off_c, 0, 68, 64
1, 89572, Note_on_c, 0, 65, 79
1, 89600, Note_off_c, 0, 66, 64
1, 89736, Note_on_c, 0, 70, 72
1, 89776, Note_on_c, 0, 53, 65
1, 89834, Note_off_c, 0, 65, 64
1, 89876, Note_off_c, 0, 60, 64
1, 89908, Note_on_c, 0, 72, 85
1, 89962, Note_off_c, 0, 51, 64
1, 89980, Note_off_c, 0, 70, 64
1, 89996, Note_off_c, 0, 53, 64
1, 90090, Note_on_c, 0, 46, 47
1, 90106, Note_on_c, 0, 73, 79
1, 90186, Note_off_c, 0, 72, 64
1, 90194, Control_c, 0, 64, 0
1, 90478, Note_on_c, 0, 53, 62
1, 90481, Control_c, 0, 64, 127
1, 90594, Note_off_c, 0, 46, 64
1, 90788, Note_off_c, 0, 53, 64
1, 90814, Note_on_c, 0, 61, 54
1, 91114, Note_on_c, 0, 58, 38
1, 91168, Note_off_c, 0, 61, 64
1, 91250, Note_on_c, 0, 51, 44
1, 91400, Note_off_c, 0, 58, 64
1, 91406, Note_off_c, 0, 73, 64
1, 91456, Note_on_c, 0, 66, 51
1, 91512, Control_c, 0, 64, 0
1, 91690, Note_on_c, 0, 72, 73
1, 91742, Control_c, 0, 64, 127
1, 91850, Note_off_c, 0, 72, 64
1, 91934, Note_on_c, 0, 72, 56
1, 91986, Note_on_c, 0, 58, 33
1, 92016, Note_off_c, 0, 51, 64
1, 92084, Note_on_c, 0, 73, 67
1, 92092, Note_off_c, 0, 72, 64
1, 92184, Note_off_c, 0, 66, 64
1, 92204, Note_on_c, 0, 72, 52
1, 92254, Note_off_c, 0, 73, 64
1, 92334, Note_on_c, 0, 71, 73
1, 92356, Note_on_c, 0, 53, 48
1, 92362, Note_off_c, 0, 72, 64
1, 92418, Note_off_c, 0, 58, 64
1, 92452, Note_on_c, 0, 57, 18
1, 92480, Note_on_c, 0, 72, 50
1, 92524, Note_off_c, 0, 71, 64
1, 92588, Control_c, 0, 64, 0
1, 92674, Note_on_c, 0, 65, 31
1, 92766, Note_on_c, 0, 75, 53
1, 92806, Note_off_c, 0, 72, 64
1, 92980, Note_off_c, 0, 65, 64
1, 92988, Control_c, 0, 64, 127
1, 93042, Note_off_c, 0, 75, 64
1, 93292, Note_on_c, 0, 63, 36
1, 93380, Note_off_c, 0, 53, 64
1, 93386, Note_off_c, 0, 57, 64
1, 93470, Note_off_c, 0, 63, 64
1, 93522, Note_on_c, 0, 73, 42
1, 93796, Note_on_c, 0, 70, 41
1, 93818, Note_on_c, 0, 46, 24
1, 93910, Control_c, 0, 64, 0
1, 93980, Note_off_c, 0, 73, 64
1, 94204, Note_on_c, 0, 53, 57
1, 94310, Control_c, 0, 64, 127
1, 94392, Note_off_c, 0, 46, 64
1, 94560, Note_off_c, 0, 53, 64
1, 94574, Note_on_c, 0, 61, 38
1, 94874, Note_off_c, 0, 61, 64
1, 95080, Note_on_c, 0, 52, 46
1, 95100, Note_on_c, 0, 56, 22
1, 95154, Control_c, 0, 64, 0
1, 95338, Control_c, 0, 64, 127
1, 95350, Note_off_c, 0, 56, 64
1, 95386, Note_off_c, 0, 52, 64
1, 95550, Note_off_c, 0, 70, 64
1, 95586, Note_on_c, 0, 39, 52
1, 95708, Control_c, 0, 64, 0
1, 95872, Note_off_c, 0, 39, 64
1, 95875, Control_c, 0, 64, 127
1, 95970, Note_on_c, 0, 62, 63
1, 96026, Note_on_c, 0, 51, 41
1, 96232, Note_on_c, 0, 63, 83
1, 96284, Note_off_c, 0, 62, 64
1, 96416, Note_on_c, 0, 55, 38
1, 96460, Note_on_c, 0, 66, 56
1, 96480, Note_off_c, 0, 63, 64
1, 96530, Note_on_c, 0, 61, 36
1, 96546, Note_on_c, 0, 64, 86
1, 96552, Control_c, 0, 64, 0
1, 96624, Note_off_c, 0, 66, 64
1, 96738, Control_c, 0, 64, 127
1, 96790, Note_on_c, 0, 63, 91
1, 96794, Note_off_c, 0, 51, 64
1, 96816, Note_off_c, 0, 64, 64
1, 96984, Note_on_c, 0, 68, 75
1, 96987, Note_off_c, 0, 55, 64
1, 97010, Note_on_c, 0, 51, 45
1, 97032, Note_off_c, 0, 63, 64
1, 97038, Note_off_c, 0, 61, 64
1, 97180, Note_on_c, 0, 70, 72
1, 97256, Note_off_c, 0, 68, 64
1, 97270, Note_off_c, 0, 51, 64
1, 97428, Note_on_c, 0, 71, 88
1, 97438, Note_on_c, 0, 44, 47
1, 97458, Control_c, 0, 64, 0
1, 97518, Note_off_c, 0, 70, 64
1, 97782, Control_c, 0, 64, 127
1, 97848, Note_off_c, 0, 44, 64
1, 97858, Note_on_c, 0, 51, 48
1, 98180, Note_off_c, 0, 51, 64
1, 98232, Note_on_c, 0, 59, 59
1, 98238, Note_on_c, 0, 56, 46
1, 98602, Note_off_c, 0, 59, 64
1, 98602, Note_off_c, 0, 56, 64
1, 98614, Note_on_c, 0, 51, 41
1, 98880, Note_off_c, 0, 51, 64
1, 99022, Note_on_c, 0, 49, 28
1, 99072, Control_c, 0, 64, 0
1, 99184, Note_on_c, 0, 64, 49
1, 99306, Note_off_c, 0, 71, 64
1, 99488, Note_on_c, 0, 70, 54
1, 99549, Control_c, 0, 64, 127
1, 99586, Note_off_c, 0, 70, 64
1, 99666, Note_on_c, 0, 70, 53
1, 99734, Note_on_c, 0, 56, 29
1, 99820, Note_on_c, 0, 71, 73
1, 99823, Note_off_c, 0, 49, 64
1, 99838, Note_off_c, 0, 70, 64
1, 99900, Note_on_c, 0, 70, 54
1, 99954, Note_off_c, 0, 71, 64
1, 100012, Note_on_c, 0, 69, 59
1, 100020, Note_off_c, 0, 56, 64
1, 100040, Note_off_c, 0, 70, 64
1, 100142, Note_on_c, 0, 70, 52
1, 100152, Note_on_c, 0, 51, 24
1, 100160, Note_on_c, 0, 55, 26
1, 100190, Note_off_c, 0, 69, 64
1, 100308, Note_on_c, 0, 63, 32
1, 100316, Control_c, 0, 64, 0
1, 100388, Note_off_c, 0, 64, 64
1, 100424, Note_on_c, 0, 73, 34
1, 100460, Note_off_c, 0, 70, 64
1, 100686, Control_c, 0, 64, 127
1, 100720, Note_off_c, 0, 63, 64
1, 100966, Note_on_c, 0, 61, 17
1, 101118, Note_off_c, 0, 61, 64
1, 101136, Note_off_c, 0, 55, 64
1, 101258, Note_off_c, 0, 51, 64
1, 101278, Note_on_c, 0, 71, 43
1, 101498, Note_off_c, 0, 73, 64
1, 101604, Note_on_c, 0, 68, 34
1, 101607, Control_c, 0, 64, 0
1, 101638, Note_on_c, 0, 44, 32
1, 101646, Note_off_c, 0, 71, 64
1, 101884, Control_c, 0, 64, 127
1, 101948, Note_off_c, 0, 68, 64
1, 101980, Note_off_c, 0, 44, 64
1, 102044, Note_on_c, 0, 51, 26
1, 102256, Note_off_c, 0, 51, 64
1, 102442, Note_on_c, 0, 75, 72
1, 102458, Note_on_c, 0, 56, 12
1, 102484, Note_on_c, 0, 59, 15
1, 102602, Note_off_c, 0, 59, 64
1, 102652, Note_off_c, 0, 56, 64
1, 102834, Note_on_c, 0, 51, 27
1, 102964, Note_off_c, 0, 51, 64
1, 103292, Note_on_c, 0, 67, 36
1, 103298, Control_c, 0, 64, 0
1, 103304, Note_on_c, 0, 39, 29
1, 103534, Note_off_c, 0, 39, 64
1, 103544, Control_c, 0, 64, 127
1, 103750, Note_on_c, 0, 51, 26
1, 103976, Note_off_c, 0, 51, 64
1, 103986, Note_off_c, 0, 75, 64
1, 104132, Note_on_c, 0, 76, 76
1, 104140, Note_on_c, 0, 68, 40
1, 104148, Note_on_c, 0, 62, 34
1, 104238, Note_off_c, 0, 67, 64
1, 104342, Control_c, 0, 64, 0
1, 104542, Control_c, 0, 64, 127
1, 104552, Note_off_c, 0, 62, 64
1, 104558, Note_on_c, 0, 51, 26
1, 104824, Note_off_c, 0, 51, 64
1, 104872, Note_on_c, 0, 61, 52
1, 104880, Note_on_c, 0, 70, 48
1, 104912, Note_on_c, 0, 67, 27
1, 104948, Note_off_c, 0, 68, 64
1, 105080, Control_c, 0, 64, 0
1, 105258, Note_on_c, 0, 51, 36
1, 105264, Control_c, 0, 64, 127
1, 105350, Note_off_c, 0, 61, 64
1, 105372, Note_off_c, 0, 70, 64
1, 105462, Note_off_c, 0, 51, 64
1, 105522, Note_on_c, 0, 71, 73
1, 105528, Note_on_c, 0, 68, 43
1, 105530, Note_on_c, 0, 59, 43
1, 105552, Note_off_c, 0, 67, 64
1, 105618, Control_c, 0, 64, 0
1, 105802, Control_c, 0, 64, 127
1, 105824, Note_on_c, 0, 51, 35
1, 105868, Note_off_c, 0, 76, 64
1, 105948, Note_off_c, 0, 51, 64
1, 105980, Note_off_c, 0, 59, 64
1, 106124, Note_on_c, 0, 75, 75
1, 106150, Note_on_c, 0, 67, 50
1, 106168, Note_off_c, 0, 71, 64
1, 106171, Note_on_c, 0, 58, 32
1, 106180, Note_off_c, 0, 68, 64
1, 106276, Note_off_c, 0, 67, 64
1, 106372, Note_on_c, 0, 73, 71
1, 106374, Note_on_c, 0, 67, 2
1, 106416, Control_c, 0, 64, 0
1, 106446, Note_off_c, 0, 75, 64
1, 106558, Note_on_c, 0, 51, 50
1, 106632, Control_c, 0, 64, 127
1, 106652, Note_off_c, 0, 58, 64
1, 106888, Note_on_c, 0, 71, 85
1, 106892, Note_on_c, 0, 63, 47
1, 106990, Note_off_c, 0, 51, 64
1, 107036, Note_off_c, 0, 73, 64
1, 107128, Note_off_c, 0, 63, 64
1, 107186, Note_on_c, 0, 70, 75
1, 107198, Note_off_c, 0, 67, 64
1, 107210, Note_on_c, 0, 61, 55
1, 107254, Note_off_c, 0, 71, 64
1, 107350, Note_off_c, 0, 61, 64
1, 107504, Note_on_c, 0, 59, 42
1, 107508, Note_on_c, 0, 68, 67
1, 107514, Note_on_c, 0, 63, 46
1, 107582, Note_off_c, 0, 70, 64
1, 107646, Control_c, 0, 64, 0
1, 107838, Note_on_c, 0, 51, 33
1, 107846, Control_c, 0, 64, 127
1, 107890, Note_off_c, 0, 63, 64
1, 108050, Note_off_c, 0, 59, 64
1, 108114, Note_on_c, 0, 70, 45
1, 108140, Note_on_c, 0, 65, 25
1, 108148, Note_on_c, 0, 62, 30
1, 108154, Control_c, 0, 64, 0
1, 108198, Note_off_c, 0, 68, 64
1, 108270, Note_off_c, 0, 51, 64
1, 108352, Control_c, 0, 64, 127
1, 108462, Note_off_c, 0, 62, 64
1, 108478, Note_on_c, 0, 51, 19
1, 108778, Note_off_c, 0, 65, 64
1, 108780, Note_on_c, 0, 63, 29
1, 108788, Note_on_c, 0, 67, 40
1, 108828, Control_c, 0, 64, 0
1, 108880, Note_off_c, 0, 70, 64
1, 108930, Note_off_c, 0, 51, 64
1, 109030, Control_c, 0, 64, 127
1, 109102, Note_off_c, 0, 67, 64
1, 109156, Note_off_c, 0, 63, 64
1, 109174, Note_on_c, 0, 51, 17
1, 109562, Note_on_c, 0, 76, 74
1, 109580, Note_on_c, 0, 68, 43
1, 109594, Note_on_c, 0, 62, 28
1, 109658, Control_c, 0, 64, 0
1, 109734, Note_off_c, 0, 51, 64
1, 109844, Control_c, 0, 64, 127
1, 109916, Note_off_c, 0, 62, 64
1, 109942, Note_on_c, 0, 51, 24
1, 110152, Note_off_c, 0, 68, 64
1, 110202, Note_on_c, 0, 70, 52
1, 110212, Note_on_c, 0, 67, 41
1, 110214, Note_on_c, 0, 61, 48
1, 110228, Control_c, 0, 64, 0
1, 110326, Note_off_c, 0, 51, 64
1, 110428, Control_c, 0, 64, 127
1, 110520, Note_on_c, 0, 51, 30
1, 110558, Note_off_c, 0, 67, 64
1, 110558, Note_off_c, 0, 61, 64
1, 110628, Note_off_c, 0, 70, 64
1, 110776, Note_off_c, 0, 51, 64
1, 110786, Note_on_c, 0, 71, 70
1, 110796, Note_on_c, 0, 59, 46
1, 110796, Note_on_c, 0, 68, 48
1, 110842, Control_c, 0, 64, 0
1, 111042, Control_c, 0, 64, 127
1, 111076, Note_on_c, 0, 51, 43
1, 111106, Note_off_c, 0, 68, 64
1, 111109, Note_off_c, 0, 71, 64
1, 111150, Note_off_c, 0, 59, 64
1, 111314, Note_on_c, 0, 75, 69
1, 111448, Note_on_c, 0, 58, 29
1, 111452, Note_off_c, 0, 76, 64
1, 111502, Note_off_c, 0, 51, 64
1, 111506, Note_on_c, 0, 67, 48
1, 111510, Note_on_c, 0, 73, 61
1, 111600, Note_off_c, 0, 75, 64
1, 111610, Control_c, 0, 64, 0
1, 111826, Control_c, 0, 64, 127
1, 111828, Note_on_c, 0, 51, 41
1, 111844, Note_off_c, 0, 58, 64
1, 112094, Note_on_c, 0, 63, 41
1, 112112, Note_on_c, 0, 71, 69
1, 112290, Note_off_c, 0, 63, 64
1, 112330, Note_off_c, 0, 73, 64
1, 112370, Note_off_c, 0, 67, 64
1, 112390, Note_on_c, 0, 70, 66
1, 112408, Note_on_c, 0, 61, 59
1, 112448, Note_off_c, 0, 51, 64
1, 112472, Note_off_c, 0, 71, 64
1, 112484, Note_off_c, 0, 61, 64
1, 112694, Note_on_c, 0, 68, 64
1, 112704, Note_on_c, 0, 59, 43
1, 112712, Note_on_c, 0, 63, 41
1, 112746, Note_off_c, 0, 70, 64
1, 112870, Control_c, 0, 64, 0
1, 113040, Note_on_c, 0, 51, 41
1, 113070, Control_c, 0, 64, 127
1, 113112, Note_off_c, 0, 63, 64
1, 113140, Note_off_c, 0, 59, 64
1, 113342, Note_on_c, 0, 70, 59
1, 113350, Note_on_c, 0, 65, 34
1, 113358, Note_on_c, 0, 62, 35
1, 113376, Control_c, 0, 64, 0
1, 113464, Note_off_c, 0, 68, 64
1, 113556, Note_off_c, 0, 51, 64
1, 113562, Control_c, 0, 64, 127
1, 113630, Note_off_c, 0, 62, 64
1, 113692, Note_on_c, 0, 51, 55
1, 113916, Note_off_c, 0, 51, 64
1, 114094, Note_on_c, 0, 39, 45
1, 114096, Note_on_c, 0, 67, 65
1, 114130, Note_off_c, 0, 65, 64
1, 114146, Control_c, 0, 64, 0
1, 114184, Note_off_c, 0, 70, 64
1, 114306, Note_off_c, 0, 39, 64
1, 114330, Control_c, 0, 64, 127
1, 114488, Note_on_c, 0, 55, 71
1, 114744, Note_off_c, 0, 55, 64
1, 114878, Note_on_c, 0, 58, 44
1, 114886, Note_on_c, 0, 75, 84
1, 114952, Note_off_c, 0, 67, 64
1, 115032, Note_off_c, 0, 58, 64
1, 115212, Note_on_c, 0, 63, 67
1, 115288, Note_off_c, 0, 63, 64
1, 115564, Note_on_c, 0, 73, 81
1, 115578, Note_on_c, 0, 40, 69
1, 115590, Control_c, 0, 64, 0
1, 115690, Note_off_c, 0, 75, 64
1, 115792, Note_off_c, 0, 40, 64
1, 115820, Control_c, 0, 64, 127
1, 115958, Note_on_c, 0, 52, 78
1, 116160, Note_off_c, 0, 52, 64
1, 116344, Note_on_c, 0, 68, 81
1, 116360, Note_on_c, 0, 56, 56
1, 116378, Note_off_c, 0, 73, 64
1, 116434, Note_off_c, 0, 68, 64
1, 116550, Note_off_c, 0, 56, 64
1, 116864, Note_on_c, 0, 61, 57
1, 116918, Note_off_c, 0, 61, 64
1, 117894, Control_c, 0, 64, 0
1, 118298, Note_on_c, 0, 31, 34
1, 118494, Control_c, 0, 64, 127
1, 118538, Note_off_c, 0, 31, 64
1, 118988, Note_on_c, 0, 52, 37
1, 119104, Note_off_c, 0, 52, 64
1, 119222, Note_on_c, 0, 71, 60
1, 119444, Note_off_c, 0, 71, 64
1, 119530, Note_on_c, 0, 71, 56
1, 119580, Note_on_c, 0, 59, 26
1, 119708, Note_off_c, 0, 59, 64
1, 119736, Note_on_c, 0, 73, 58
1, 119740, Note_off_c, 0, 71, 64
1, 119880, Note_on_c, 0, 71, 86
1, 119958, Note_off_c, 0, 73, 64
1, 120032, Note_on_c, 0, 64, 41
1, 120034, Note_on_c, 0, 70, 72
1, 120086, Note_off_c, 0, 64, 64
1, 120094, Note_off_c, 0, 71, 64
1, 120272, Note_on_c, 0, 71, 95
1, 120342, Note_off_c, 0, 70, 64
1, 120522, Control_c, 0, 64, 0
1, 120524, Note_on_c, 0, 30, 61
1, 120546, Note_on_c, 0, 75, 70
1, 120630, Note_off_c, 0, 71, 64
1, 120774, Note_off_c, 0, 30, 64
1, 120784, Control_c, 0, 64, 127
1, 120906, Note_off_c, 0, 75, 64
1, 120972, Note_on_c, 0, 54, 69
1, 120980, Note_on_c, 0, 75, 84
1, 121352, Note_on_c, 0, 58, 57
1, 121442, Note_off_c, 0, 54, 64
1, 121630, Note_off_c, 0, 58, 64
1, 121714, Note_on_c, 0, 73, 86
1, 121738, Note_on_c, 0, 64, 69
1, 121776, Note_off_c, 0, 64, 64
1, 121790, Note_off_c, 0, 75, 64
1, 122230, Note_on_c, 0, 78, 96
1, 122244, Note_on_c, 0, 36, 84
1, 122334, Note_off_c, 0, 73, 64
1, 122460, Control_c, 0, 64, 0
1, 122618, Note_on_c, 0, 48, 71
1, 122648, Note_off_c, 0, 36, 64
1, 122672, Control_c, 0, 64, 127
1, 122738, Note_off_c, 0, 48, 64
1, 122934, Note_on_c, 0, 56, 67
1, 123130, Note_off_c, 0, 56, 64
1, 123236, Note_on_c, 0, 63, 70
1, 123348, Note_off_c, 0, 63, 64
1, 123540, Note_on_c, 0, 37, 78
1, 123548, Note_on_c, 0, 77, 92
1, 123682, Note_off_c, 0, 78, 64
1, 123734, Control_c, 0, 64, 0
1, 123836, Note_on_c, 0, 49, 81
1, 123884, Note_off_c, 0, 37, 64
1, 123926, Note_off_c, 0, 49, 64
1, 123932, Control_c, 0, 64, 127
1, 124140, Note_on_c, 0, 68, 76
1, 124160, Note_on_c, 0, 59, 55
1, 124252, Note_off_c, 0, 59, 64
1, 124426, Note_on_c, 0, 65, 69
1, 124492, Note_off_c, 0, 65, 64
1, 124694, Note_on_c, 0, 42, 55
1, 124699, Note_on_c, 0, 70, 75
1, 124768, Note_off_c, 0, 68, 64
1, 124856, Control_c, 0, 64, 0
1, 124972, Note_on_c, 0, 54, 62
1, 125070, Control_c, 0, 64, 127
1, 125078, Note_off_c, 0, 42, 64
1, 125140, Note_off_c, 0, 54, 64
1, 125166, Note_off_c, 0, 77, 64
1, 125248, Note_on_c, 0, 58, 56
1, 125350, Note_on_c, 0, 76, 91
1, 125424, Note_off_c, 0, 58, 64
1, 125624, Note_on_c, 0, 64, 69
1, 125698, Note_off_c, 0, 64, 64
1, 125888, Note_on_c, 0, 75, 86
1, 125908, Note_on_c, 0, 47, 73
1, 125990, Note_off_c, 0, 76, 64
1, 126104, Note_off_c, 0, 70, 64
1, 126164, Note_on_c, 0, 54, 79
1, 126222, Control_c, 0, 64, 0
1, 126428, Note_on_c, 0, 71, 98
1, 126438, Control_c, 0, 64, 127
1, 126444, Note_on_c, 0, 59, 72
1, 126458, Note_off_c, 0, 47, 64
1, 126494, Note_off_c, 0, 54, 64
1, 126526, Note_off_c, 0, 75, 64
1, 126582, Note_off_c, 0, 59, 64
1, 126730, Note_on_c, 0, 63, 83
1, 126804, Note_off_c, 0, 63, 64
1, 127136, Note_on_c, 0, 40, 95
1, 127142, Note_on_c, 0, 68, 86
1, 127230, Note_off_c, 0, 71, 64
1, 127314, Control_c, 0, 64, 0
1, 127448, Note_on_c, 0, 52, 92
1, 127462, Note_off_c, 0, 40, 64
1, 127482, Control_c, 0, 64, 127
1, 127552, Note_off_c, 0, 68, 64
1, 127564, Note_off_c, 0, 52, 64
1, 127700, Note_on_c, 0, 56, 76
1, 128124, Note_on_c, 0, 83, 113
1, 128150, Note_on_c, 0, 63, 72
1, 128598, Note_on_c, 0, 61, 77
1, 128618, Note_off_c, 0, 63, 64
1, 129350, Note_on_c, 0, 68, 66
1, 130320, Note_on_c, 0, 82, 62
1, 130416, Note_off_c, 0, 83, 64
1, 130766, Note_on_c, 0, 80, 66
1, 130854, Note_off_c, 0, 82, 64
1, 131076, Note_on_c, 0, 76, 53
1, 131082, Note_off_c, 0, 80, 64
1, 131168, Note_off_c, 0, 68, 64
1, 131256, Note_off_c, 0, 61, 64
1, 131322, Note_off_c, 0, 56, 64
1, 131336, Note_on_c, 0, 75, 60
1, 131424, Note_off_c, 0, 76, 64
1, 131546, Note_on_c, 0, 73, 58
1, 131594, Note_off_c, 0, 75, 64
1, 131716, Note_on_c, 0, 71, 74
1, 131740, Note_off_c, 0, 73, 64
1, 131924, Note_on_c, 0, 68, 59
1, 131928, Note_on_c, 0, 30, 48
1, 131942, Note_off_c, 0, 71, 64
1, 132076, Control_c, 0, 64, 0
1, 132116, Note_on_c, 0, 70, 50
1, 132292, Note_on_c, 0, 71, 64
1, 132304, Note_off_c, 0, 70, 64
1, 132307, Control_c, 0, 64, 127
1, 132436, Note_off_c, 0, 30, 64
1, 132450, Note_on_c, 0, 70, 64
1, 132456, Note_off_c, 0, 71, 64
1, 132554, Note_on_c, 0, 71, 57
1, 132584, Note_off_c, 0, 70, 64
1, 132666, Note_on_c, 0, 70, 52
1, 132696, Note_off_c, 0, 71, 64
1, 132760, Note_on_c, 0, 71, 77
1, 132796, Note_off_c, 0, 70, 64
1, 132846, Note_off_c, 0, 71, 64
1, 132852, Note_on_c, 0, 70, 69
1, 132914, Note_on_c, 0, 54, 66
1, 132930, Note_on_c, 0, 71, 72
1, 132934, Note_off_c, 0, 70, 64
1, 133008, Note_off_c, 0, 71, 64
1, 133008, Note_on_c, 0, 70, 61
1, 133090, Note_on_c, 0, 71, 77
1, 133128, Note_off_c, 0, 70, 64
1, 133182, Note_off_c, 0, 71, 64
1, 133188, Note_on_c, 0, 70, 68
1, 133246, Note_off_c, 0, 70, 64
1, 133252, Note_on_c, 0, 71, 80
1, 133270, Note_off_c, 0, 68, 64
1, 133332, Note_off_c, 0, 71, 64
1, 133350, Note_on_c, 0, 70, 57
1, 133418, Note_off_c, 0, 70, 64
1, 133428, Note_on_c, 0, 71, 65
1, 133486, Note_off_c, 0, 71, 64
1, 133504, Note_on_c, 0, 70, 48
1, 133570, Note_on_c, 0, 71, 63
1, 133572, Note_off_c, 0, 70, 64
1, 133606, Note_on_c, 0, 66, 56
1, 133628, Note_on_c, 0, 63, 44
1, 133642, Note_off_c, 0, 71, 64
1, 133644, Control_c, 0, 64, 0
1, 133652, Note_on_c, 0, 70, 46
1, 133734, Note_on_c, 0, 71, 57
1, 133748, Note_off_c, 0, 70, 64
1, 133796, Note_off_c, 0, 71, 64
1, 133812, Note_on_c, 0, 70, 59
1, 133860, Control_c, 0, 64, 127
1, 133886, Note_off_c, 0, 70, 64
1, 133886, Note_on_c, 0, 71, 55
1, 133960, Note_off_c, 0, 71, 64
1, 133963, Note_on_c, 0, 70, 39
1, 134036, Note_on_c, 0, 71, 64
1, 134042, Note_off_c, 0, 70, 64
1, 134050, Note_off_c, 0, 63, 64
1, 134094, Note_off_c, 0, 66, 64
1, 134108, Note_off_c, 0, 71, 64
1, 134120, Note_on_c, 0, 70, 37
1, 134198, Note_off_c, 0, 70, 64
1, 134201, Note_on_c, 0, 71, 48
1, 134260, Note_off_c, 0, 71, 64
1, 134268, Note_on_c, 0, 70, 47
1, 134340, Note_off_c, 0, 70, 64
1, 134344, Note_on_c, 0, 71, 52
1, 134412, Note_off_c, 0, 71, 64
1, 134417, Note_on_c, 0, 70, 35
1, 134458, Control_c, 0, 64, 0
1, 134472, Note_on_c, 0, 64, 38
1, 134484, Note_on_c, 0, 61, 23
1, 134492, Note_off_c, 0, 70, 64
1, 134500, Note_on_c, 0, 71, 59
1, 134572, Note_off_c, 0, 71, 64
1, 134575, Note_on_c, 0, 70, 26
1, 134700, Note_off_c, 0, 70, 64
1, 134712, Note_on_c, 0, 68, 48
1, 134870, Note_on_c, 0, 70, 55
1, 134902, Note_off_c, 0, 68, 64
1, 135088, Note_on_c, 0, 75, 40
1, 135092, Note_off_c, 0, 70, 64
1, 135166, Control_c, 0, 64, 127
1, 135220, Note_off_c, 0, 64, 64
1, 135300, Note_off_c, 0, 61, 64
1, 135380, Note_off_c, 0, 54, 64
1, 135404, Note_off_c, 0, 75, 64
1, 135426, Note_on_c, 0, 73, 25
1, 135686, Note_off_c, 0, 73, 64
1, 135696, Note_on_c, 0, 71, 43
1, 135888, Note_off_c, 0, 71, 64
1, 135970, Note_on_c, 0, 71, 46
1, 136010, Control_c, 0, 64, 0
1, 136028, Note_on_c, 0, 35, 31
1, 136186, Note_off_c, 0, 35, 64
1, 136210, Control_c, 0, 64, 127
1, 136310, Note_off_c, 0, 71, 64
1, 136450, Note_on_c, 0, 54, 26
1, 136942, Note_on_c, 0, 78, 60
1, 136962, Note_off_c, 0, 54, 64
1, 136968, Note_on_c, 0, 66, 19
1, 137018, Note_on_c, 0, 63, 13
1, 137258, Note_off_c, 0, 66, 64
1, 137270, Note_off_c, 0, 63, 64
1, 137380, Note_on_c, 0, 54, 14
1, 137466, Note_off_c, 0, 54, 64
1, 137704, Note_on_c, 0, 76, 59
1, 137714, Note_on_c, 0, 64, 34
1, 137736, Note_on_c, 0, 61, 19
1, 137924, Note_off_c, 0, 78, 64
1, 137932, Control_c, 0, 64, 0
1, 138066, Note_on_c, 0, 54, 22
1, 138084, Control_c, 0, 64, 127
1, 138116, Note_off_c, 0, 64, 64
1, 138158, Note_off_c, 0, 61, 64
1, 138228, Note_off_c, 0, 54, 64
1, 138456, Note_on_c, 0, 75, 52
1, 138494, Note_on_c, 0, 63, 28
1, 138538, Note_on_c, 0, 59, 22
1, 138584, Note_off_c, 0, 76, 64
1, 138622, Control_c, 0, 64, 0
1, 138764, Note_off_c, 0, 63, 64
1, 138776, Control_c, 0, 64, 127
1, 138840, Note_off_c, 0, 59, 64
1, 138884, Note_on_c, 0, 54, 18
1, 138966, Note_off_c, 0, 54, 64
1, 139354, Note_on_c, 0, 73, 48
1, 139368, Note_on_c, 0, 42, 29
1, 139390, Control_c, 0, 64, 0
1, 139610, Note_off_c, 0, 75, 64
1, 139806, Note_on_c, 0, 49, 31
1, 139844, Note_off_c, 0, 42, 64
1, 139898, Control_c, 0, 64, 127
1, 140144, Note_off_c, 0, 49, 64
1, 140152, Note_off_c, 0, 73, 64
1, 140154, Note_on_c, 0, 54, 35
1, 140157, Note_on_c, 0, 58, 23
1, 140246, Note_off_c, 0, 54, 64
1, 140468, Note_on_c, 0, 73, 60
1, 140500, Note_on_c, 0, 49, 29
1, 140534, Note_off_c, 0, 58, 64
1, 140830, Note_off_c, 0, 49, 64
1, 140884, Note_on_c, 0, 75, 48
1, 140892, Note_on_c, 0, 46, 17
1, 140954, Note_off_c, 0, 73, 64
1, 141004, Control_c, 0, 64, 0
1, 141172, Control_c, 0, 64, 127
1, 141294, Note_on_c, 0, 73, 45
1, 141336, Note_on_c, 0, 49, 23
1, 141366, Note_off_c, 0, 46, 64
1, 141460, Note_off_c, 0, 75, 64
1, 141464, Note_off_c, 0, 49, 64
1, 141652, Note_on_c, 0, 71, 61
1, 141670, Note_off_c, 0, 73, 64
1, 141700, Note_on_c, 0, 61, 6
1, 141710, Note_on_c, 0, 54, 26
1, 141788, Note_off_c, 0, 61, 64
1, 141946, Note_off_c, 0, 54, 64
1, 141970, Note_on_c, 0, 70, 56
1, 142012, Note_on_c, 0, 49, 29
1, 142052, Note_off_c, 0, 71, 64
1, 142090, Note_off_c, 0, 49, 64
1, 142316, Note_on_c, 0, 66, 58
1, 142334, Note_on_c, 0, 71, 69
1, 142346, Note_on_c, 0, 37, 23
1, 142420, Note_off_c, 0, 70, 64
1, 142510, Control_c, 0, 64, 0
1, 142666, Control_c, 0, 64, 127
1, 142668, Note_off_c, 0, 37, 64
1, 142676, Note_on_c, 0, 49, 45
1, 142684, Note_on_c, 0, 65, 67
1, 142686, Note_off_c, 0, 66, 64
1, 142730, Note_off_c, 0, 49, 64
1, 142803, Note_off_c, 0, 65, 64
1, 142856, Note_off_c, 0, 71, 64
1, 142896, Note_on_c, 0, 53, 50
1, 142918, Note_on_c, 0, 65, 47
1, 142986, Note_off_c, 0, 53, 64
1, 143028, Note_on_c, 0, 63, 72
1, 143031, Note_on_c, 0, 71, 65
1, 143037, Note_on_c, 0, 59, 32
1, 143048, Note_off_c, 0, 65, 64
1, 143140, Control_c, 0, 64, 0
1, 143152, Note_on_c, 0, 53, 2
1, 143294, Control_c, 0, 64, 127
1, 143342, Note_off_c, 0, 59, 64
1, 143402, Note_off_c, 0, 53, 64
1, 143430, Note_on_c, 0, 61, 69
1, 143460, Note_on_c, 0, 49, 26
1, 143488, Note_off_c, 0, 63, 64
1, 143617, Note_off_c, 0, 49, 64
1, 143652, Note_off_c, 0, 71, 64
1, 143748, Note_off_c, 0, 61, 64
1, 143864, Note_on_c, 0, 68, 55
1, 143886, Note_on_c, 0, 71, 51
1, 143888, Note_on_c, 0, 42, 20
1, 144016, Control_c, 0, 64, 0
1, 144262, Control_c, 0, 64, 127
1, 144276, Note_off_c, 0, 42, 64
1, 144284, Note_on_c, 0, 49, 21
1, 144610, Note_off_c, 0, 68, 64
1, 144620, Note_on_c, 0, 58, 16
1, 144660, Note_on_c, 0, 54, 25
1, 144690, Note_on_c, 0, 66, 43
1, 144706, Control_c, 0, 64, 0
1, 144708, Note_on_c, 0, 70, 27
1, 144722, Note_off_c, 0, 71, 64
1, 144880, Note_off_c, 0, 49, 64
1, 144938, Control_c, 0, 64, 127
1, 144941, Note_off_c, 0, 58, 64
1, 144994, Note_off_c, 0, 54, 64
1, 144996, Note_off_c, 0, 70, 64
1, 145012, Note_off_c, 0, 66, 64
1, 145084, Note_on_c, 0, 49, 21
1, 145274, Note_off_c, 0, 49, 64
1, 145376, Note_on_c, 0, 42, 29
1, 145604, Note_off_c, 0, 42, 64
1, 145702, Note_on_c, 0, 49, 23
1, 145718, Note_on_c, 0, 70, 49
1, 145728, Note_on_c, 0, 73, 48
1, 145776, Note_off_c, 0, 73, 64
1, 145790, Note_off_c, 0, 70, 64
1, 145792, Note_on_c, 0, 75, 55
1, 145838, Note_on_c, 0, 73, 55
1, 145908, Note_off_c, 0, 75, 64
1, 145954, Note_on_c, 0, 72, 85
1, 145957, Note_on_c, 0, 69, 61
1, 145962, Note_on_c, 0, 58, 30
1, 145986, Note_on_c, 0, 54, 40
1, 146016, Note_off_c, 0, 73, 64
1, 146028, Control_c, 0, 64, 0
1, 146068, Note_off_c, 0, 49, 64
1, 146130, Note_off_c, 0, 69, 64
1, 146166, Control_c, 0, 64, 127
1, 146266, Note_off_c, 0, 58, 64
1, 146269, Note_on_c, 0, 73, 86
1, 146280, Note_on_c, 0, 70, 48
1, 146300, Note_off_c, 0, 54, 64
1, 146314, Note_off_c, 0, 72, 64
1, 146320, Note_on_c, 0, 49, 28
1, 146418, Note_off_c, 0, 70, 64
1, 146582, Note_off_c, 0, 49, 64
1, 146590, Note_on_c, 0, 42, 31
1, 146662, Note_off_c, 0, 73, 64
1, 146692, Note_on_c, 0, 78, 70
1, 146698, Note_on_c, 0, 70, 42
1, 146720, Control_c, 0, 64, 0
1, 146920, Control_c, 0, 64, 127
1, 146944, Note_off_c, 0, 70, 64
1, 146947, Note_off_c, 0, 78, 64
1, 146992, Note_off_c, 0, 42, 64
1, 147102, Note_on_c, 0, 49, 34
1, 147228, Note_off_c, 0, 49, 64
1, 147348, Note_on_c, 0, 73, 63
1, 147360, Note_on_c, 0, 70, 48
1, 147394, Note_off_c, 0, 73, 64
1, 147406, Note_off_c, 0, 70, 64
1, 147476, Note_on_c, 0, 73, 55
1, 147480, Note_on_c, 0, 70, 35
1, 147514, Note_on_c, 0, 61, 32
1, 147708, Note_off_c, 0, 61, 64
1, 147720, Note_off_c, 0, 70, 64
1, 147774, Note_on_c, 0, 71, 79
1, 147786, Note_on_c, 0, 68, 53
1, 147796, Note_off_c, 0, 73, 64
1, 147880, Note_on_c, 0, 49, 43
1, 147936, Note_off_c, 0, 68, 64
1, 147992, Note_off_c, 0, 49, 64
1, 148002, Note_on_c, 0, 70, 69
1, 148002, Note_on_c, 0, 66, 57
1, 148018, Note_off_c, 0, 71, 64
1, 148088, Note_off_c, 0, 66, 64
1, 148118, Note_off_c, 0, 70, 64
1, 148204, Note_on_c, 0, 37, 38
1, 148210, Control_c, 0, 64, 0
1, 148212, Note_on_c, 0, 71, 74
1, 148222, Note_on_c, 0, 66, 55
1, 148378, Note_off_c, 0, 37, 64
1, 148384, Note_off_c, 0, 71, 64
1, 148410, Control_c, 0, 64, 127
1, 148426, Note_off_c, 0, 66, 64
1, 148508, Note_on_c, 0, 49, 39
1, 148572, Note_on_c, 0, 71, 79
1, 148575, Note_on_c, 0, 65, 59
1, 148618, Note_off_c, 0, 71, 64
1, 148618, Note_off_c, 0, 65, 64
1, 148672, Note_on_c, 0, 71, 88
1, 148688, Note_on_c, 0, 64, 78
1, 148782, Note_off_c, 0, 64, 64
1, 148812, Note_off_c, 0, 71, 64
1, 148840, Note_on_c, 0, 53, 43
1, 148922, Note_on_c, 0, 71, 67
1, 148924, Note_on_c, 0, 63, 73
1, 148978, Control_c, 0, 64, 0
1, 149008, Note_on_c, 0, 59, 31
1, 149088, Note_off_c, 0, 71, 64
1, 149098, Note_off_c, 0, 49, 64
1, 149116, Control_c, 0, 64, 127
1, 149150, Note_off_c, 0, 63, 64
1, 149214, Note_off_c, 0, 59, 64
1, 149222, Note_on_c, 0, 62, 60
1, 149224, Note_on_c, 0, 71, 73
1, 149282, Note_off_c, 0, 62, 64
1, 149282, Note_off_c, 0, 71, 64
1, 149286, Note_off_c, 0, 53, 64
1, 149364, Note_on_c, 0, 49, 40
1, 149472, Note_on_c, 0, 61, 70
1, 149480, Note_on_c, 0, 71, 73
1, 149514, Note_off_c, 0, 49, 64
1, 149536, Note_off_c, 0, 61, 64
1, 149540, Note_off_c, 0, 71, 64
1, 149712, Note_on_c, 0, 42, 35
1, 149716, Note_on_c, 0, 71, 52
1, 149722, Note_on_c, 0, 68, 51
1, 149792, Control_c, 0, 64, 0
1, 150038, Control_c, 0, 64, 127
1, 150082, Note_on_c, 0, 49, 39
1, 150120, Note_off_c, 0, 42, 64
1, 150506, Note_on_c, 0, 58, 23
1, 150524, Note_on_c, 0, 54, 32
1, 150576, Note_on_c, 0, 70, 31
1, 150586, Note_on_c, 0, 66, 25
1, 150615, Note_off_c, 0, 71, 64
1, 150632, Note_off_c, 0, 68, 64
1, 150714, Control_c, 0, 64, 0
1, 150898, Control_c, 0, 64, 127
1, 150914, Note_off_c, 0, 49, 64
1, 150920, Note_on_c, 0, 50, 43
1, 151024, Note_off_c, 0, 54, 64
1, 151032, Note_off_c, 0, 58, 64
1, 151122, Note_off_c, 0, 50, 64
1, 151346, Note_on_c, 0, 39, 61
1, 151376, Control_c, 0, 64, 0
1, 151590, Control_c, 0, 64, 127
1, 151594, Note_off_c, 0, 39, 64
1, 151604, Note_off_c, 0, 66, 64
1, 151640, Note_off_c, 0, 70, 64
1, 151728, Note_on_c, 0, 46, 58
1, 152072, Note_on_c, 0, 58, 43
1, 152080, Note_on_c, 0, 51, 55
1, 152092, Note_on_c, 0, 54, 59
1, 152100, Note_off_c, 0, 46, 64
1, 152334, Note_off_c, 0, 58, 64
1, 152400, Note_off_c, 0, 54, 64
1, 152404, Note_on_c, 0, 70, 72
1, 152404, Note_on_c, 0, 66, 65
1, 152418, Note_on_c, 0, 46, 52
1, 152448, Note_off_c, 0, 51, 64
1, 152676, Note_off_c, 0, 46, 64
1, 152802, Note_on_c, 0, 71, 89
1, 152804, Note_on_c, 0, 68, 68
1, 152828, Note_on_c, 0, 39, 58
1, 152880, Note_off_c, 0, 66, 64
1, 152890, Note_off_c, 0, 70, 64
1, 153146, Note_on_c, 0, 70, 76
1, 153156, Note_on_c, 0, 46, 51
1, 153159, Note_on_c, 0, 66, 73
1, 153198, Note_off_c, 0, 39, 64
1, 153206, Note_off_c, 0, 68, 64
1, 153216, Note_off_c, 0, 71, 64
1, 153458, Note_on_c, 0, 68, 81
1, 153460, Note_on_c, 0, 58, 54
1, 153462, Note_on_c, 0, 65, 76
1, 153512, Note_off_c, 0, 66, 64
1, 153524, Note_off_c, 0, 70, 64
1, 153582, Note_off_c, 0, 68, 64
1, 153618, Note_off_c, 0, 46, 64
1, 153758, Note_off_c, 0, 58, 64
1, 153790, Note_on_c, 0, 66, 76
1, 153792, Note_on_c, 0, 63, 76
1, 153812, Note_on_c, 0, 46, 52
1, 153864, Note_off_c, 0, 65, 64
1, 154000, Note_off_c, 0, 66, 64
1, 154044, Note_off_c, 0, 46, 64
1, 154046, Note_off_c, 0, 63, 64
1, 154170, Note_on_c, 0, 63, 73
1, 154172, Note_on_c, 0, 68, 68
1, 154178, Note_on_c, 0, 65, 70
1, 154204, Note_on_c, 0, 34, 59
1, 154372, Control_c, 0, 64, 0
1, 154500, Note_on_c, 0, 62, 92
1, 154504, Note_on_c, 0, 46, 48
1, 154528, Note_off_c, 0, 34, 64
1, 154540, Control_c, 0, 64, 127
1, 154552, Note_off_c, 0, 63, 64
1, 154604, Note_off_c, 0, 46, 64
1, 154610, Note_off_c, 0, 68, 64
1, 154774, Note_on_c, 0, 53, 65
1, 154832, Note_on_c, 0, 68, 72
1, 154838, Note_on_c, 0, 59, 82
1, 154852, Note_off_c, 0, 65, 64
1, 154856, Note_on_c, 0, 63, 58
1, 154860, Note_on_c, 0, 46, 2
1, 154862, Note_off_c, 0, 62, 64
1, 155064, Note_off_c, 0, 59, 64
1, 155154, Note_off_c, 0, 53, 64
1, 155154, Note_on_c, 0, 56, 59
1, 155188, Note_on_c, 0, 62, 84
1, 155196, Note_on_c, 0, 58, 61
1, 155200, Note_off_c, 0, 63, 64
1, 155236, Note_off_c, 0, 68, 64
1, 155238, Note_off_c, 0, 56, 64
1, 155292, Note_off_c, 0, 58, 64
1, 155376, Note_off_c, 0, 46, 64
1, 155602, Note_on_c, 0, 58, 55
1, 155604, Note_on_c, 0, 68, 68
1, 155616, Note_on_c, 0, 65, 46
1, 155632, Note_on_c, 0, 39, 40
1, 155696, Note_off_c, 0, 62, 64
1, 155738, Control_c, 0, 64, 0
1, 155992, Note_on_c, 0, 46, 51
1, 156060, Control_c, 0, 64, 127
1, 156096, Note_off_c, 0, 39, 64
1, 156348, Note_on_c, 0, 54, 41
1, 156426, Note_on_c, 0, 66, 47
1, 156436, Note_on_c, 0, 63, 42
1, 156450, Note_off_c, 0, 65, 64
1, 156538, Control_c, 0, 64, 0
1, 156544, Note_off_c, 0, 68, 64
1, 156736, Control_c, 0, 64, 127
1, 156772, Note_on_c, 0, 51, 43
1, 156886, Note_off_c, 0, 54, 64
1, 156948, Note_off_c, 0, 58, 64
1, 157062, Note_off_c, 0, 63, 64
1, 157084, Note_off_c, 0, 66, 64
1, 157114, Note_off_c, 0, 46, 64
1, 157210, Note_off_c, 0, 51, 64
1, 157222, Note_on_c, 0, 45, 51
1, 157414, Control_c, 0, 64, 0
1, 157550, Note_on_c, 0, 64, 76
1, 157574, Note_on_c, 0, 51, 52
1, 157628, Control_c, 0, 64, 127
1, 157772, Note_off_c, 0, 45, 64
1, 157782, Note_on_c, 0, 65, 83
1, 157834, Note_off_c, 0, 64, 64
1, 157966, Note_on_c, 0, 68, 65
1, 158002, Note_off_c, 0, 65, 64
1, 158020, Note_on_c, 0, 66, 75
1, 158050, Note_on_c, 0, 60, 28
1, 158134, Note_off_c, 0, 68, 64
1, 158198, Note_on_c, 0, 65, 76
1, 158230, Note_off_c, 0, 66, 64
1, 158366, Note_on_c, 0, 70, 73
1, 158402, Note_on_c, 0, 53, 67
1, 158510, Note_off_c, 0, 60, 64
1, 158516, Note_off_c, 0, 65, 64
1, 158530, Note_on_c, 0, 72, 83
1, 158610, Note_off_c, 0, 53, 64
1, 158616, Note_off_c, 0, 70, 64
1, 158620, Note_off_c, 0, 51, 64
1, 158690, Note_on_c, 0, 46, 52
1, 158724, Note_on_c, 0, 73, 78
1, 158810, Note_off_c, 0, 72, 64
1, 158810, Control_c, 0, 64, 0
1, 159072, Note_on_c, 0, 53, 79
1, 159088, Control_c, 0, 64, 127
1, 159206, Note_off_c, 0, 46, 64
1, 159414, Note_off_c, 0, 53, 64
1, 159418, Note_on_c, 0, 61, 65
1, 159712, Note_on_c, 0, 58, 62
1, 159812, Note_off_c, 0, 61, 64
1, 159880, Note_on_c, 0, 51, 36
1, 160044, Note_off_c, 0, 73, 64
1, 160116, Control_c, 0, 64, 0
1, 160166, Note_on_c, 0, 66, 70
1, 160246, Note_off_c, 0, 58, 64
1, 160404, Note_on_c, 0, 72, 80
1, 160470, Control_c, 0, 64, 127
1, 160522, Note_off_c, 0, 72, 64
1, 160582, Note_on_c, 0, 72, 78
1, 160620, Note_off_c, 0, 51, 64
1, 160638, Note_on_c, 0, 58, 30
1, 160726, Note_on_c, 0, 73, 76
1, 160746, Note_off_c, 0, 72, 64
1, 160776, Note_off_c, 0, 66, 64
1, 160826, Note_on_c, 0, 72, 67
1, 160892, Note_off_c, 0, 73, 64
1, 160956, Note_on_c, 0, 71, 87
1, 160972, Note_on_c, 0, 53, 39
1, 160992, Note_off_c, 0, 72, 64
1, 160998, Note_off_c, 0, 58, 64
1, 161008, Note_on_c, 0, 57, 27
1, 161078, Note_on_c, 0, 72, 61
1, 161136, Note_off_c, 0, 71, 64
1, 161208, Control_c, 0, 64, 0
1, 161246, Note_on_c, 0, 65, 30
1, 161370, Note_on_c, 0, 75, 61
1, 161398, Note_off_c, 0, 72, 64
1, 161578, Note_off_c, 0, 65, 64
1, 161578, Control_c, 0, 64, 127
1, 161640, Note_off_c, 0, 75, 64
1, 161868, Note_on_c, 0, 63, 33
1, 161922, Note_off_c, 0, 53, 64
1, 161938, Note_off_c, 0, 57, 64
1, 162014, Note_off_c, 0, 63, 64
1, 162124, Note_on_c, 0, 73, 38
1, 162366, Note_on_c, 0, 70, 43
1, 162384, Note_on_c, 0, 46, 25
1, 162394, Note_off_c, 0, 73, 64
1, 162452, Control_c, 0, 64, 0
1, 162772, Note_on_c, 0, 53, 42
1, 162776, Control_c, 0, 64, 127
1, 162852, Note_off_c, 0, 46, 64
1, 163158, Note_off_c, 0, 53, 64
1, 163162, Note_on_c, 0, 61, 24
1, 163696, Note_on_c, 0, 52, 44
1, 163708, Note_on_c, 0, 56, 15
1, 163712, Control_c, 0, 64, 0
1, 163882, Note_off_c, 0, 61, 64
1, 163912, Control_c, 0, 64, 127
1, 163948, Note_off_c, 0, 56, 64
1, 163974, Note_off_c, 0, 52, 64
1, 164090, Note_off_c, 0, 70, 64
1, 164120, Note_on_c, 0, 39, 62
1, 164236, Control_c, 0, 64, 0
1, 164392, Note_off_c, 0, 39, 64
1, 164404, Control_c, 0, 64, 127
1, 164488, Note_on_c, 0, 62, 75
1, 164502, Note_on_c, 0, 51, 33
1, 164778, Note_on_c, 0, 63, 73
1, 164856, Note_off_c, 0, 62, 64
1, 164900, Note_on_c, 0, 55, 39
1, 164994, Note_on_c, 0, 66, 47
1, 165014, Note_off_c, 0, 63, 64
1, 165017, Note_on_c, 0, 61, 32
1, 165034, Control_c, 0, 64, 0
1, 165078, Note_on_c, 0, 64, 71
1, 165136, Note_off_c, 0, 66, 64
1, 165250, Control_c, 0, 64, 127
1, 165266, Note_off_c, 0, 51, 64
1, 165304, Note_on_c, 0, 63, 69
1, 165310, Note_off_c, 0, 64, 64
1, 165378, Note_off_c, 0, 55, 64
1, 165412, Note_off_c, 0, 61, 64
1, 165486, Note_on_c, 0, 68, 59
1, 165518, Note_off_c, 0, 63, 64
1, 165518, Note_on_c, 0, 51, 30
1, 165678, Note_on_c, 0, 70, 56
1, 165716, Note_off_c, 0, 68, 64
1, 165730, Note_off_c, 0, 51, 64
1, 165934, Note_on_c, 0, 71, 74
1, 165936, Note_on_c, 0, 44, 38
1, 165972, Control_c, 0, 64, 0
1, 165986, Note_off_c, 0, 70, 64
1, 166310, Control_c, 0, 64, 127
1, 166364, Note_on_c, 0, 51, 30
1, 166376, Note_off_c, 0, 44, 64
1, 166734, Note_off_c, 0, 51, 64
1, 166762, Note_on_c, 0, 56, 29
1, 166770, Note_on_c, 0, 59, 29
1, 167130, Note_off_c, 0, 59, 64
1, 167140, Note_off_c, 0, 71, 64
1, 167152, Note_on_c, 0, 51, 35
1, 167154, Note_off_c, 0, 56, 64
1, 167418, Note_off_c, 0, 51, 64
1, 167602, Note_on_c, 0, 49, 27
1, 167708, Control_c, 0, 64, 0
1, 167710, Note_on_c, 0, 64, 50
1, 168016, Note_on_c, 0, 70, 55
1, 168046, Control_c, 0, 64, 127
1, 168120, Note_off_c, 0, 70, 64
1, 168240, Note_on_c, 0, 70, 50
1, 168264, Note_off_c, 0, 64, 64
1, 168280, Note_on_c, 0, 56, 24
1, 168342, Note_off_c, 0, 49, 64
1, 168388, Note_off_c, 0, 70, 64
1, 168388, Note_on_c, 0, 71, 70
1, 168498, Note_on_c, 0, 70, 53
1, 168522, Note_off_c, 0, 71, 64
1, 168610, Note_on_c, 0, 69, 57
1, 168614, Note_off_c, 0, 56, 64
1, 168622, Note_off_c, 0, 70, 64
1, 168690, Note_on_c, 0, 51, 23
1, 168722, Note_on_c, 0, 55, 23
1, 168750, Note_on_c, 0, 70, 53
1, 168792, Note_off_c, 0, 69, 64
1, 168850, Note_on_c, 0, 63, 35
1, 168876, Control_c, 0, 64, 0
1, 168988, Note_on_c, 0, 73, 45
1, 168996, Note_off_c, 0, 70, 64
1, 169178, Note_off_c, 0, 63, 64
1, 169184, Control_c, 0, 64, 127
1, 169314, Note_off_c, 0, 73, 64
1, 169414, Note_on_c, 0, 61, 27
1, 169514, Note_off_c, 0, 55, 64
1, 169526, Note_off_c, 0, 61, 64
1, 169666, Note_off_c, 0, 51, 64
1, 169722, Note_on_c, 0, 71, 33
1, 169998, Note_off_c, 0, 71, 64
1, 170020, Note_on_c, 0, 68, 33
1, 170028, Control_c, 0, 64, 0
1, 170036, Note_on_c, 0, 44, 22
1, 170392, Note_on_c, 0, 51, 34
1, 170412, Control_c, 0, 64, 127
1, 170414, Note_off_c, 0, 44, 64
1, 170468, Note_off_c, 0, 68, 64
1, 170672, Note_off_c, 0, 51, 64
1, 170768, Note_on_c, 0, 75, 68
1, 170792, Note_on_c, 0, 56, 16
1, 170800, Note_on_c, 0, 59, 27
1, 170910, Note_off_c, 0, 59, 64
1, 170956, Note_off_c, 0, 56, 64
1, 171154, Note_on_c, 0, 51, 30
1, 171254, Note_off_c, 0, 51, 64
1, 171472, Control_c, 0, 64, 0
1, 171484, Note_on_c, 0, 39, 34
1, 171490, Note_on_c, 0, 67, 38
1, 171688, Note_off_c, 0, 39, 64
1, 171688, Control_c, 0, 64, 127
1, 171906, Note_on_c, 0, 51, 29
1, 172100, Note_off_c, 0, 51, 64
1, 172114, Note_off_c, 0, 75, 64
1, 172286, Note_on_c, 0, 76, 79
1, 172292, Note_on_c, 0, 62, 40
1, 172300, Note_on_c, 0, 68, 48
1, 172406, Note_off_c, 0, 67, 64
1, 172472, Control_c, 0, 64, 0
1, 172656, Control_c, 0, 64, 127
1, 172662, Note_on_c, 0, 51, 32
1, 172672, Note_off_c, 0, 62, 64
1, 172922, Note_off_c, 0, 51, 64
1, 172932, Note_on_c, 0, 70, 46
1, 172950, Note_on_c, 0, 67, 45
1, 172953, Note_on_c, 0, 61, 40
1, 173000, Note_off_c, 0, 68, 64
1, 173070, Control_c, 0, 64, 0
1, 173254, Control_c, 0, 64, 127
1, 173266, Note_on_c, 0, 51, 38
1, 173390, Note_off_c, 0, 61, 64
1, 173432, Note_off_c, 0, 70, 64
1, 173540, Note_off_c, 0, 51, 64
1, 173596, Note_on_c, 0, 71, 57
1, 173596, Note_on_c, 0, 68, 33
1, 173604, Note_on_c, 0, 59, 39
1, 173666, Note_off_c, 0, 67, 64
1, 173762, Control_c, 0, 64, 0
1, 173914, Control_c, 0, 64, 127
1, 173928, Note_on_c, 0, 51, 26
1, 173984, Note_off_c, 0, 76, 64
1, 174126, Note_off_c, 0, 51, 64
1, 174148, Note_off_c, 0, 68, 64
1, 174236, Note_on_c, 0, 75, 53
1, 174244, Note_off_c, 0, 59, 64
1, 174252, Note_off_c, 0, 71, 64
1, 174262, Note_on_c, 0, 58, 29
1, 174278, Note_on_c, 0, 67, 25
1, 174486, Note_on_c, 0, 73, 43
1, 174542, Note_off_c, 0, 75, 64
1, 174638, Control_c, 0, 64, 0
1, 174694, Note_on_c, 0, 51, 38
1, 174756, Note_off_c, 0, 58, 64
1, 174822, Control_c, 0, 64, 127
1, 174992, Note_on_c, 0, 71, 62
1, 175012, Note_on_c, 0, 63, 27
1, 175172, Note_off_c, 0, 63, 64
1, 175200, Note_off_c, 0, 73, 64
1, 175228, Note_off_c, 0, 67, 64
1, 175306, Note_on_c, 0, 70, 59
1, 175330, Note_on_c, 0, 61, 46
1, 175386, Note_off_c, 0, 71, 64
1, 175442, Note_off_c, 0, 61, 64
1, 175512, Note_off_c, 0, 51, 64
1, 175638, Note_on_c, 0, 68, 66
1, 175650, Note_on_c, 0, 63, 50
1, 175682, Note_on_c, 0, 59, 24
1, 175700, Note_off_c, 0, 70, 64
1, 175836, Control_c, 0, 64, 0
1, 175976, Note_on_c, 0, 51, 35
1, 176036, Control_c, 0, 64, 127
1, 176060, Note_off_c, 0, 63, 64
1, 176238, Note_on_c, 0, 70, 64
1, 176272, Note_on_c, 0, 65, 24
1, 176276, Note_off_c, 0, 59, 64
1, 176284, Note_on_c, 0, 62, 38
1, 176328, Control_c, 0, 64, 0
1, 176368, Note_off_c, 0, 68, 64
1, 176394, Note_off_c, 0, 51, 64
1, 176496, Control_c, 0, 64, 127
1, 176532, Note_off_c, 0, 62, 64
1, 176576, Note_on_c, 0, 51, 42
1, 176924, Note_on_c, 0, 63, 31
1, 176924, Note_on_c, 0, 67, 48
1, 176927, Note_off_c, 0, 65, 64
1, 176927, Control_c, 0, 64, 0
1, 176986, Note_off_c, 0, 70, 64
1, 177016, Note_off_c, 0, 51, 64
1, 177126, Control_c, 0, 64, 127
1, 177152, Note_off_c, 0, 67, 64
1, 177224, Note_off_c, 0, 63, 64
1, 177224, Note_on_c, 0, 51, 35
1, 177340, Note_off_c, 0, 51, 64
1, 177624, Note_on_c, 0, 76, 80
1, 177632, Note_on_c, 0, 68, 56
1, 177662, Note_on_c, 0, 62, 35
1, 177834, Control_c, 0, 64, 0
1, 177984, Note_on_c, 0, 51, 32
1, 178018, Control_c, 0, 64, 127
1, 178098, Note_off_c, 0, 62, 64
1, 178234, Note_on_c, 0, 61, 72
1, 178237, Note_off_c, 0, 68, 64
1, 178242, Note_on_c, 0, 70, 52
1, 178256, Note_on_c, 0, 67, 42
1, 178356, Control_c, 0, 64, 0
1, 178386, Note_off_c, 0, 51, 64
1, 178526, Control_c, 0, 64, 127
1, 178578, Note_on_c, 0, 51, 39
1, 178644, Note_off_c, 0, 67, 64
1, 178662, Note_off_c, 0, 61, 64
1, 178706, Note_off_c, 0, 70, 64
1, 178802, Note_on_c, 0, 71, 75
1, 178808, Note_off_c, 0, 51, 64
1, 178808, Note_on_c, 0, 68, 46
1, 178816, Note_on_c, 0, 59, 52
1, 178956, Control_c, 0, 64, 0
1, 179100, Note_on_c, 0, 51, 43
1, 179124, Control_c, 0, 64, 127
1, 179198, Note_off_c, 0, 71, 64
1, 179246, Note_off_c, 0, 68, 64
1, 179344, Note_on_c, 0, 75, 71
1, 179348, Note_on_c, 0, 58, 39
1, 179366, Note_on_c, 0, 67, 37
1, 179392, Note_off_c, 0, 59, 64
1, 179412, Note_off_c, 0, 76, 64
1, 179414, Note_off_c, 0, 51, 64
1, 179554, Note_on_c, 0, 73, 70
1, 179616, Note_off_c, 0, 75, 64
1, 179692, Control_c, 0, 64, 0
1, 179768, Note_on_c, 0, 51, 40
1, 179892, Control_c, 0, 64, 127
1, 179934, Note_off_c, 0, 58, 64
1, 180146, Note_on_c, 0, 71, 64
1, 180168, Note_on_c, 0, 63, 40
1, 180346, Note_off_c, 0, 63, 64
1, 180444, Note_on_c, 0, 70, 65
1, 180450, Note_off_c, 0, 67, 64
1, 180453, Note_on_c, 0, 61, 47
1, 180546, Note_off_c, 0, 71, 64
1, 180576, Note_off_c, 0, 61, 64
1, 180578, Note_off_c, 0, 73, 64
1, 180754, Note_on_c, 0, 68, 57
1, 180766, Note_on_c, 0, 63, 36
1, 180778, Note_on_c, 0, 59, 42
1, 180828, Note_off_c, 0, 51, 64
1, 180852, Note_off_c, 0, 70, 64
1, 180952, Control_c, 0, 64, 0
1, 181070, Note_on_c, 0, 51, 39
1, 181152, Control_c, 0, 64, 127
1, 181364, Note_off_c, 0, 59, 64
1, 181370, Note_on_c, 0, 65, 39
1, 181374, Note_on_c, 0, 70, 57
1, 181406, Note_on_c, 0, 62, 32
1, 181444, Control_c, 0, 64, 0
1, 181458, Note_off_c, 0, 68, 64
1, 181556, Note_off_c, 0, 63, 64
1, 181588, Note_off_c, 0, 51, 64
1, 181612, Control_c, 0, 64, 127
1, 181674, Note_off_c, 0, 62, 64
1, 181684, Note_on_c, 0, 51, 42
1, 181860, Note_off_c, 0, 65, 64
1, 181860, Note_off_c, 0, 51, 64
1, 182066, Note_on_c, 0, 67, 51
1, 182070, Note_on_c, 0, 39, 29
1, 182090, Control_c, 0, 64, 0
1, 182144, Note_off_c, 0, 70, 64
1, 182258, Note_off_c, 0, 39, 64
1, 182274, Control_c, 0, 64, 127
1, 182450, Note_on_c, 0, 55, 66
1, 182498, Note_off_c, 0, 67, 64
1, 182788, Note_off_c, 0, 55, 64
1, 182800, Note_on_c, 0, 75, 86
1, 182812, Note_on_c, 0, 58, 41
1, 182988, Note_off_c, 0, 58, 64
1, 183114, Note_on_c, 0, 63, 67
1, 183210, Note_off_c, 0, 63, 64
1, 183466, Note_on_c, 0, 40, 80
1, 183466, Note_on_c, 0, 73, 83
1, 183518, Control_c, 0, 64, 0
1, 183574, Note_off_c, 0, 75, 64
1, 183708, Note_off_c, 0, 40, 64
1, 183718, Control_c, 0, 64, 127
1, 183882, Note_on_c, 0, 52, 91
1, 184214, Note_off_c, 0, 52, 64
1, 184250, Note_on_c, 0, 68, 84
1, 184270, Note_on_c, 0, 56, 69
1, 184342, Note_off_c, 0, 73, 64
1, 184624, Note_off_c, 0, 56, 64
1, 184632, Note_on_c, 0, 61, 79
1, 184698, Note_off_c, 0, 61, 64
1, 184984, Note_off_c, 0, 68, 64
1, 185332, Control_c, 0, 64, 0
1, 186012, Note_on_c, 0, 31, 31
1, 186238, Control_c, 0, 64, 127
1, 186284, Note_off_c, 0, 31, 64
1, 186766, Note_on_c, 0, 52, 10
1, 186880, Note_off_c, 0, 52, 64
1, 187138, Note_on_c, 0, 71, 37
1, 187270, Note_off_c, 0, 71, 64
1, 187394, Note_on_c, 0, 59, 12
1, 187468, Note_on_c, 0, 71, 33
1, 187480, Note_off_c, 0, 59, 64
1, 187650, Note_off_c, 0, 71, 64
1, 187656, Note_on_c, 0, 73, 36
1, 187808, Note_on_c, 0, 71, 76
1, 187834, Note_off_c, 0, 73, 64
1, 187912, Note_on_c, 0, 64, 26
1, 187986, Note_off_c, 0, 64, 64
1, 188016, Note_on_c, 0, 70, 67
1, 188060, Note_off_c, 0, 71, 64
1, 188262, Note_on_c, 0, 71, 89
1, 188332, Note_off_c, 0, 70, 64
1, 188470, Note_on_c, 0, 30, 70
1, 188542, Control_c, 0, 64, 0
1, 188610, Note_on_c, 0, 75, 83
1, 188654, Note_off_c, 0, 71, 64
1, 188774, Note_off_c, 0, 30, 64
1, 188804, Control_c, 0, 64, 127
1, 188960, Note_off_c, 0, 75, 64
1, 189004, Note_on_c, 0, 54, 69
1, 189088, Note_on_c, 0, 75, 88
1, 189416, Note_on_c, 0, 58, 64
1, 189424, Note_off_c, 0, 54, 64
1, 189666, Note_off_c, 0, 58, 64
1, 189780, Note_on_c, 0, 64, 64
1, 189786, Note_on_c, 0, 73, 89
1, 189822, Note_off_c, 0, 64, 64
1, 189838, Note_off_c, 0, 75, 64
1, 190060, Note_off_c, 0, 73, 64
1, 190382, Note_on_c, 0, 78, 95
1, 190388, Note_on_c, 0, 36, 87
1, 190616, Control_c, 0, 64, 0
1, 190780, Note_on_c, 0, 48, 70
1, 190812, Note_off_c, 0, 36, 64
1, 190832, Control_c, 0, 64, 127
1, 190904, Note_off_c, 0, 48, 64
1, 191172, Note_on_c, 0, 56, 76
1, 191422, Note_off_c, 0, 56, 64
1, 191520, Note_on_c, 0, 63, 78
1, 191606, Note_off_c, 0, 63, 64
1, 191862, Note_on_c, 0, 77, 97
1, 191870, Note_on_c, 0, 37, 77
1, 191966, Note_off_c, 0, 78, 64
1, 192016, Control_c, 0, 64, 0
1, 192210, Note_on_c, 0, 49, 76
1, 192230, Control_c, 0, 64, 127
1, 192240, Note_off_c, 0, 37, 64
1, 192302, Note_off_c, 0, 49, 64
1, 192520, Note_on_c, 0, 68, 76
1, 192546, Note_on_c, 0, 59, 73
1, 192712, Note_off_c, 0, 59, 64
1, 192876, Note_on_c, 0, 65, 69
1, 192972, Note_off_c, 0, 65, 64
1, 193166, Note_on_c, 0, 70, 79
1, 193169, Note_on_c, 0, 42, 69
1, 193260, Note_off_c, 0, 68, 64
1, 193336, Control_c, 0, 64, 0
1, 193456, Note_on_c, 0, 54, 73
1, 193494, Note_off_c, 0, 42, 64
1, 193536, Control_c, 0, 64, 127
1, 193582, Note_off_c, 0, 77, 64
1, 193600, Note_off_c, 0, 54, 64
1, 193718, Note_on_c, 0, 58, 46
1, 193754, Note_on_c, 0, 76, 94
1, 193888, Note_off_c, 0, 58, 64
1, 194066, Note_on_c, 0, 64, 79
1, 194158, Note_off_c, 0, 64, 64
1, 194356, Note_on_c, 0, 75, 91
1, 194364, Note_on_c, 0, 47, 72
1, 194442, Note_off_c, 0, 76, 64
1, 194612, Control_c, 0, 64, 0
1, 194628, Note_on_c, 0, 54, 83
1, 194812, Control_c, 0, 64, 127
1, 194830, Note_off_c, 0, 70, 64
1, 194872, Note_off_c, 0, 47, 64
1, 194894, Note_on_c, 0, 71, 103
1, 194904, Note_on_c, 0, 59, 73
1, 194914, Note_off_c, 0, 54, 64
1, 195004, Note_off_c, 0, 75, 64
1, 195096, Note_off_c, 0, 59, 64
1, 195206, Note_on_c, 0, 63, 84
1, 195294, Note_off_c, 0, 63, 64
1, 195614, Note_on_c, 0, 68, 86
1, 195622, Note_on_c, 0, 40, 102
1, 195720, Note_off_c, 0, 71, 64
1, 195796, Control_c, 0, 64, 0
1, 195928, Note_on_c, 0, 52, 94
1, 195944, Note_off_c, 0, 40, 64
1, 195964, Control_c, 0, 64, 127
1, 196010, Note_off_c, 0, 68, 64
1, 196140, Note_off_c, 0, 52, 64
1, 196204, Note_on_c, 0, 56, 88
1, 196768, Note_on_c, 0, 95, 105
1, 196790, Note_on_c, 0, 63, 69
1, 197266, Note_on_c, 0, 61, 73
1, 197286, Note_off_c, 0, 63, 64
1, 198056, Note_on_c, 0, 68, 55
1, 198812, Note_on_c, 0, 94, 58
1, 198966, Note_off_c, 0, 95, 64
1, 199174, Note_on_c, 0, 92, 70
1, 199250, Note_off_c, 0, 94, 64
1, 199416, Note_on_c, 0, 88, 74
1, 199424, Note_off_c, 0, 92, 64
1, 199596, Note_on_c, 0, 87, 64
1, 199644, Note_off_c, 0, 88, 64
1, 199770, Note_on_c, 0, 85, 64
1, 199796, Note_off_c, 0, 87, 64
1, 199914, Note_off_c, 0, 85, 64
1, 199954, Note_on_c, 0, 83, 41
1, 200030, Note_off_c, 0, 83, 64
1, 200033, Note_on_c, 0, 82, 48
1, 200098, Note_off_c, 0, 61, 64
1, 200126, Note_off_c, 0, 68, 64
1, 200164, Note_on_c, 0, 80, 53
1, 200184, Note_off_c, 0, 82, 64
1, 200252, Note_off_c, 0, 56, 64
1, 200270, Note_off_c, 0, 80, 64
1, 200284, Note_on_c, 0, 76, 46
1, 200390, Note_off_c, 0, 76, 64
1, 200406, Note_on_c, 0, 75, 51
1, 200533, Note_on_c, 0, 73, 47
1, 200537, Note_off_c, 0, 75, 64
1, 200658, Note_on_c, 0, 71, 62
1, 200666, Note_off_c, 0, 73, 64
1, 200784, Note_off_c, 0, 71, 64
1, 200804, Note_on_c, 0, 68, 61
1, 200860, Note_on_c, 0, 30, 34
1, 200942, Control_c, 0, 64, 0
1, 200964, Note_on_c, 0, 70, 52
1, 201116, Note_off_c, 0, 70, 64
1, 201118, Note_on_c, 0, 71, 66
1, 201158, Control_c, 0, 64, 127
1, 201188, Note_off_c, 0, 30, 64
1, 201204, Note_off_c, 0, 71, 64
1, 201228, Note_on_c, 0, 70, 46
1, 201322, Note_off_c, 0, 70, 64
1, 201336, Note_on_c, 0, 71, 61
1, 201394, Note_off_c, 0, 71, 64
1, 201404, Note_on_c, 0, 70, 48
1, 201478, Note_off_c, 0, 70, 64
1, 201494, Note_on_c, 0, 71, 59
1, 201510, Note_off_c, 0, 68, 64
1, 201552, Note_off_c, 0, 71, 64
1, 201560, Note_on_c, 0, 70, 45
1, 201636, Note_off_c, 0, 70, 64
1, 201652, Note_on_c, 0, 71, 63
1, 201710, Note_off_c, 0, 71, 64
1, 201718, Note_on_c, 0, 70, 45
1, 201748, Note_on_c, 0, 54, 57
1, 201798, Note_off_c, 0, 70, 64
1, 201798, Note_on_c, 0, 71, 67
1, 201856, Note_off_c, 0, 71, 64
1, 201886, Note_on_c, 0, 70, 48
1, 201952, Note_off_c, 0, 70, 64
1, 201968, Note_on_c, 0, 71, 59
1, 202024, Note_off_c, 0, 71, 64
1, 202044, Note_on_c, 0, 70, 50
1, 202114, Note_off_c, 0, 70, 64
1, 202117, Note_on_c, 0, 71, 60
1, 202180, Note_off_c, 0, 71, 64
1, 202194, Note_on_c, 0, 70, 50
1, 202278, Note_on_c, 0, 71, 65
1, 202280, Note_off_c, 0, 70, 64
1, 202334, Note_off_c, 0, 71, 64
1, 202352, Note_on_c, 0, 70, 46
1, 202384, Note_on_c, 0, 66, 42
1, 202410, Note_on_c, 0, 63, 35
1, 202438, Note_off_c, 0, 70, 64
1, 202441, Note_on_c, 0, 71, 58
1, 202502, Note_off_c, 0, 71, 64
1, 202518, Note_on_c, 0, 70, 42
1, 202598, Note_on_c, 0, 71, 55
1, 202600, Note_off_c, 0, 70, 64
1, 202664, Note_off_c, 0, 71, 64
1, 202684, Note_on_c, 0, 70, 39
1, 202762, Note_on_c, 0, 71, 59
1, 202770, Note_off_c, 0, 70, 64
1, 202828, Note_off_c, 0, 71, 64
1, 202840, Note_on_c, 0, 70, 48
1, 202932, Note_off_c, 0, 70, 64
1, 202932, Note_on_c, 0, 71, 55
1, 202940, Control_c, 0, 64, 0
1, 202998, Note_off_c, 0, 71, 64
1, 203010, Note_on_c, 0, 70, 47
1, 203104, Note_on_c, 0, 71, 51
1, 203108, Note_off_c, 0, 70, 64
1, 203124, Control_c, 0, 64, 127
1, 203172, Note_off_c, 0, 71, 64
1, 203194, Note_off_c, 0, 63, 64
1, 203198, Note_on_c, 0, 70, 35
1, 203254, Note_off_c, 0, 66, 64
1, 203272, Note_off_c, 0, 70, 64
1, 203290, Note_on_c, 0, 71, 35
1, 203358, Note_on_c, 0, 70, 27
1, 203361, Note_off_c, 0, 71, 64
1, 203432, Note_off_c, 0, 70, 64
1, 203440, Note_on_c, 0, 71, 55
1, 203490, Note_on_c, 0, 64, 36
1, 203500, Note_on_c, 0, 61, 22
1, 203508, Note_off_c, 0, 71, 64
1, 203516, Note_on_c, 0, 70, 29
1, 203604, Note_off_c, 0, 70, 64
1, 203608, Note_on_c, 0, 71, 48
1, 203678, Control_c, 0, 64, 0
1, 203698, Note_off_c, 0, 71, 64
1, 203698, Note_on_c, 0, 70, 33
1, 203842, Note_on_c, 0, 68, 42
1, 203844, Note_off_c, 0, 70, 64
1, 203878, Control_c, 0, 64, 127
1, 204038, Note_on_c, 0, 70, 42
1, 204074, Note_off_c, 0, 68, 64
1, 204316, Note_off_c, 0, 70, 64
1, 204334, Note_on_c, 0, 75, 28
1, 204337, Control_c, 0, 64, 0
1, 204552, Control_c, 0, 64, 127
1, 204632, Note_off_c, 0, 64, 64
1, 204702, Note_off_c, 0, 61, 64
1, 204740, Note_on_c, 0, 73, 17
1, 204743, Note_off_c, 0, 75, 64
1, 204798, Note_off_c, 0, 54, 64
1, 204848, Note_off_c, 0, 73, 64
1, 205182, Note_on_c, 0, 71, 24
1, 205272, Note_off_c, 0, 71, 64
1, 205770, Note_on_c, 0, 29, 21
1, 205780, Note_on_c, 0, 41, 26
1, 205846, Note_on_c, 0, 59, 35
1, 206020, Note_on_c, 0, 62, 40
1, 206152, Note_off_c, 0, 41, 64
1, 206174, Note_on_c, 0, 67, 40
1, 206358, Note_on_c, 0, 71, 55
1, 206448, Note_on_c, 0, 41, 47
1, 206474, Control_c, 0, 64, 0
1, 206728, Note_off_c, 0, 41, 64
1, 206736, Control_c, 0, 64, 127
1, 207066, Note_on_c, 0, 41, 45
1, 207224, Note_off_c, 0, 41, 64
1, 207410, Note_on_c, 0, 41, 38
1, 207502, Note_off_c, 0, 41, 64
1, 207690, Note_on_c, 0, 41, 37
1, 207772, Note_off_c, 0, 41, 64
1, 207964, Control_c, 0, 64, 0
1, 208008, Note_on_c, 0, 41, 33
1, 208134, Control_c, 0, 64, 127
1, 208212, Note_off_c, 0, 41, 64
1, 208538, Note_on_c, 0, 41, 28
1, 208658, Note_off_c, 0, 41, 64
1, 209222, Note_on_c, 0, 41, 22
1, 209372, Note_off_c, 0, 41, 64
1, 209636, Note_on_c, 0, 41, 27
1, 209750, Note_off_c, 0, 41, 64
1, 209986, Note_on_c, 0, 41, 23
1, 210102, Note_off_c, 0, 41, 64
1, 210508, Note_on_c, 0, 41, 20
1, 211324, Note_off_c, 0, 41, 64
1, 212452, Note_off_c, 0, 29, 64
1, 213012, Note_off_c, 0, 71, 64
1, 213020, Note_off_c, 0, 67, 64
1, 213040, Note_off_c, 0, 59, 64
1, 213040, Note_off_c, 0, 62, 64
1, 213112, Control_c, 0, 64, 0
1, 213514, Note_on_c, 0, 59, 66
1, 213676, Note_on_c, 0, 61, 80
1, 213776, Note_off_c, 0, 59, 64
1, 213804, Note_on_c, 0, 64, 95
1, 213856, Note_off_c, 0, 61, 64
1, 213902, Note_on_c, 0, 62, 91
1, 214008, Note_on_c, 0, 61, 95
1, 214032, Note_off_c, 0, 64, 64
1, 214050, Control_c, 0, 64, 127
1, 214124, Note_on_c, 0, 59, 97
1, 214132, Note_off_c, 0, 62, 64
1, 214298, Note_off_c, 0, 61, 64
1, 214302, Note_on_c, 0, 67, 104
1, 214444, Note_off_c, 0, 59, 64
1, 214510, Control_c, 0, 64, 0
1, 215204, Note_on_c, 0, 59, 95
1, 215206, Note_on_c, 0, 41, 97
1, 215206, Note_on_c, 0, 55, 100
1, 215208, Note_on_c, 0, 53, 110
1, 215208, Note_on_c, 0, 62, 91
1, 215214, Note_on_c, 0, 50, 84
1, 215217, Control_c, 0, 64, 127
1, 215220, Note_on_c, 0, 47, 79
1, 215284, Note_off_c, 0, 53, 64
1, 215287, Note_off_c, 0, 41, 64
1, 215310, Note_off_c, 0, 47, 64
1, 215314, Note_off_c, 0, 50, 64
1, 215350, Note_off_c, 0, 55, 64
1, 215432, Note_off_c, 0, 59, 64
1, 215476, Note_off_c, 0, 62, 64
1, 215614, Note_off_c, 0, 67, 64
1, 216170, Control_c, 0, 64, 0
1, 216548, Note_on_c, 0, 59, 97
1, 216732, Note_on_c, 0, 61, 95
1, 216804, Note_off_c, 0, 59, 64
1, 216886, Note_on_c, 0, 64, 99
1, 216926, Note_off_c, 0, 61, 64
1, 216984, Note_on_c, 0, 62, 94
1, 217076, Note_off_c, 0, 64, 64
1, 217086, Note_on_c, 0, 61, 94
1, 217146, Note_off_c, 0, 62, 64
1, 217168, Control_c, 0, 64, 127
1, 217202, Note_on_c, 0, 59, 99
1, 217252, Note_off_c, 0, 61, 64
1, 217316, Note_off_c, 0, 59, 64
1, 217374, Note_on_c, 0, 71, 113
1, 217506, Control_c, 0, 64, 0
1, 218390, Note_on_c, 0, 55, 90
1, 218390, Note_on_c, 0, 41, 89
1, 218393, Note_on_c, 0, 62, 98
1, 218393, Note_on_c, 0, 59, 100
1, 218396, Note_on_c, 0, 53, 106
1, 218396, Note_on_c, 0, 67, 93
1, 218400, Note_on_c, 0, 50, 79
1, 218406, Note_on_c, 0, 47, 75
1, 218458, Control_c, 0, 64, 127
1, 218534, Note_off_c, 0, 41, 64
1, 218538, Note_off_c, 0, 59, 64
1, 218550, Note_off_c, 0, 53, 64
1, 218550, Note_off_c, 0, 47, 64
1, 218556, Note_off_c, 0, 55, 64
1, 218586, Note_off_c, 0, 50, 64
1, 218610, Note_off_c, 0, 62, 64
1, 218640, Note_off_c, 0, 71, 64
1, 218656, Note_off_c, 0, 67, 64
1, 219472, Control_c, 0, 64, 0
1, 220534, Note_on_c, 0, 71, 84
1, 220566, Note_on_c, 0, 59, 47
1, 221102, Control_c, 0, 64, 127
1, 221105, Note_on_c, 0, 73, 82
1, 221114, Note_on_c, 0, 61, 70
1, 221230, Note_off_c, 0, 71, 64
1, 221244, Note_off_c, 0, 59, 64
1, 221254, Control_c, 0, 64, 0
1, 221512, Note_on_c, 0, 64, 61
1, 221512, Note_on_c, 0, 76, 84
1, 221515, Control_c, 0, 64, 127
1, 221558, Note_off_c, 0, 61, 64
1, 221590, Note_off_c, 0, 73, 64
1, 221608, Control_c, 0, 64, 0
1, 221854, Control_c, 0, 64, 127
1, 221978, Note_on_c, 0, 74, 85
1, 221996, Note_on_c, 0, 62, 63
1, 222026, Note_off_c, 0, 64, 64
1, 222116, Control_c, 0, 64, 0
1, 222188, Note_off_c, 0, 76, 64
1, 222330, Control_c, 0, 64, 127
1, 222332, Note_on_c, 0, 73, 83
1, 222340, Note_on_c, 0, 61, 67
1, 222372, Note_off_c, 0, 62, 64
1, 222416, Note_off_c, 0, 74, 64
1, 222422, Control_c, 0, 64, 0
1, 222610, Note_on_c, 0, 71, 92
1, 222622, Control_c, 0, 64, 127
1, 222627, Note_on_c, 0, 59, 74
1, 222654, Note_off_c, 0, 73, 64
1, 222654, Note_off_c, 0, 61, 64
1, 222714, Control_c, 0, 64, 0
1, 222852, Note_on_c, 0, 70, 76
1, 222862, Note_on_c, 0, 58, 57
1, 222882, Note_off_c, 0, 59, 64
1, 222920, Note_off_c, 0, 71, 64
1, 223068, Note_on_c, 0, 71, 92
1, 223082, Note_on_c, 0, 59, 62
1, 223094, Note_off_c, 0, 58, 64
1, 223108, Note_off_c, 0, 70, 64
1, 223240, Note_on_c, 0, 58, 54
1, 223242, Note_on_c, 0, 70, 76
1, 223276, Note_off_c, 0, 59, 64
1, 223310, Note_off_c, 0, 71, 64
1, 223374, Note_on_c, 0, 57, 67
1, 223386, Note_on_c, 0, 69, 71
1, 223414, Note_off_c, 0, 58, 64
1, 223440, Note_off_c, 0, 70, 64
1, 223550, Note_on_c, 0, 70, 65
1, 223560, Note_on_c, 0, 58, 51
1, 223602, Note_off_c, 0, 57, 64
1, 223614, Note_off_c, 0, 69, 64
1, 223808, Note_on_c, 0, 73, 48
1, 223838, Note_on_c, 0, 61, 36
1, 223848, Note_off_c, 0, 58, 64
1, 223876, Note_off_c, 0, 70, 64
1, 224186, Note_on_c, 0, 71, 45
1, 224208, Note_on_c, 0, 59, 30
1, 224228, Note_off_c, 0, 61, 64
1, 224270, Note_off_c, 0, 73, 64
1, 224482, Control_c, 0, 64, 127
1, 224510, Note_off_c, 0, 71, 64
1, 224948, Note_off_c, 0, 59, 64
1, 225017, Note_on_c, 0, 67, 50
1, 225066, Note_on_c, 0, 55, 24
1, 225134, Note_off_c, 0, 67, 64
1, 225156, Note_off_c, 0, 55, 64
1, 225264, Note_on_c, 0, 67, 71
1, 225294, Note_on_c, 0, 55, 45
1, 225358, Control_c, 0, 64, 0
1, 226168, Note_on_c, 0, 54, 42
1, 226184, Note_on_c, 0, 42, 38
1, 226510, Note_on_c, 0, 59, 69
1, 226524, Note_on_c, 0, 47, 53
1, 226526, Control_c, 0, 64, 127
1, 226664, Note_off_c, 0, 55, 64
1, 226690, Note_off_c, 0, 54, 64
1, 226792, Note_on_c, 0, 62, 78
1, 226800, Note_on_c, 0, 50, 67
1, 226860, Note_off_c, 0, 59, 64
1, 227038, Note_off_c, 0, 62, 64
1, 227052, Note_off_c, 0, 42, 64
1, 227055, Note_off_c, 0, 47, 64
1, 227066, Note_on_c, 0, 66, 76
1, 227072, Note_off_c, 0, 50, 64
1, 227075, Note_on_c, 0, 54, 83
1, 227140, Note_off_c, 0, 67, 64
1, 227354, Note_off_c, 0, 54, 64
1, 227374, Note_on_c, 0, 57, 70
1, 227377, Note_on_c, 0, 69, 78
1, 227390, Note_off_c, 0, 66, 64
1, 227490, Note_on_c, 0, 67, 99
1, 227498, Note_on_c, 0, 55, 89
1, 227504, Note_off_c, 0, 57, 64
1, 227576, Note_off_c, 0, 69, 64
1, 227718, Note_off_c, 0, 67, 64
1, 227721, Note_off_c, 0, 55, 64
1, 227970, Control_c, 0, 64, 0
1, 228120, Note_on_c, 0, 66, 99
1, 228128, Note_on_c, 0, 54, 93
1, 228218, Note_off_c, 0, 54, 64
1, 228242, Note_off_c, 0, 66, 64
1, 228294, Note_on_c, 0, 66, 90
1, 228304, Note_on_c, 0, 54, 93
1, 228660, Control_c, 0, 64, 127
1, 228708, Note_on_c, 0, 42, 90
1, 228710, Note_on_c, 0, 63, 98
1, 228713, Note_on_c, 0, 59, 95
1, 228720, Note_on_c, 0, 51, 90
1, 228798, Note_off_c, 0, 42, 64
1, 228840, Note_off_c, 0, 59, 64
1, 228874, Note_off_c, 0, 51, 64
1, 228922, Note_off_c, 0, 63, 64
1, 229014, Control_c, 0, 64, 0
1, 229272, Note_on_c, 0, 62, 95
1, 229276, Note_on_c, 0, 59, 88
1, 229278, Note_on_c, 0, 42, 90
1, 229282, Note_on_c, 0, 50, 83
1, 229352, Control_c, 0, 64, 127
1, 229416, Note_off_c, 0, 42, 64
1, 229426, Note_off_c, 0, 59, 64
1, 229524, Note_off_c, 0, 50, 64
1, 229572, Note_off_c, 0, 62, 64
1, 229706, Control_c, 0, 64, 0
1, 230138, Note_off_c, 0, 54, 64
1, 230214, Note_off_c, 0, 66, 64
1, 231382, Note_on_c, 0, 61, 85
1, 231390, Note_on_c, 0, 49, 67
1, 232466, Note_on_c, 0, 59, 52
1, 232467, Note_on_c, 0, 56, 40
1, 232470, Note_on_c, 0, 42, 42
1, 232471, Note_on_c, 0, 54, 60
1, 232656, Control_c, 0, 64, 127
1, 232771, Note_off_c, 0, 42, 64
1, 232787, Note_off_c, 0, 56, 64
1, 232836, Note_off_c, 0, 59, 64
1, 232857, Note_off_c, 0, 54, 64
1, 233793, Note_on_c, 0, 59, 31
1, 233794, Note_on_c, 0, 53, 61
1, 233794, Note_on_c, 0, 42, 29
1, 233796, Note_on_c, 0, 56, 28
1, 233808, Control_c, 0, 64, 0
1, 234086, Control_c, 0, 64, 127
1, 234112, Note_off_c, 0, 49, 64
1, 234176, Note_off_c, 0, 61, 64
1, 234434, Note_off_c, 0, 42, 64
1, 234436, Note_on_c, 0, 61, 68
1, 234443, Note_on_c, 0, 49, 41
1, 234482, Note_off_c, 0, 53, 64
1, 234552, Note_off_c, 0, 56, 64
1, 234555, Note_off_c, 0, 59, 64
1, 234601, Note_off_c, 0, 49, 64
1, 234726, Note_off_c, 0, 61, 64
1, 234862, Note_on_c, 0, 61, 81
1, 234870, Note_on_c, 0, 49, 53
1, 235054, Note_off_c, 0, 49, 64
1, 235110, Note_off_c, 0, 61, 64
1, 235180, Note_on_c, 0, 61, 76
1, 235182, Note_on_c, 0, 49, 65
1, 235312, Note_off_c, 0, 49, 64
1, 235368, Note_off_c, 0, 61, 64
1, 235430, Note_on_c, 0, 61, 81
1, 235430, Note_on_c, 0, 49, 73
1, 235548, Note_off_c, 0, 49, 64
1, 235592, Note_off_c, 0, 61, 64
1, 235666, Note_on_c, 0, 61, 80
1, 235670, Note_on_c, 0, 49, 76
1, 235790, Note_off_c, 0, 49, 64
1, 235848, Note_off_c, 0, 61, 64
1, 235952, Note_on_c, 0, 61, 88
1, 235952, Note_on_c, 0, 49, 97
1, 236404, Control_c, 0, 64, 0
1, 236742, Control_c, 0, 64, 127
1, 236814, Note_on_c, 0, 62, 90
1, 236818, Note_on_c, 0, 50, 93
1, 236854, Note_off_c, 0, 61, 64
1, 236860, Note_off_c, 0, 49, 64
1, 237174, Control_c, 0, 64, 0
1, 237434, Control_c, 0, 64, 127
1, 237949, Note_on_c, 0, 52, 79
1, 237949, Note_on_c, 0, 55, 70
1, 237950, Note_on_c, 0, 58, 62
1, 237950, Note_on_c, 0, 42, 60
1, 238494, Note_off_c, 0, 42, 64
1, 238527, Note_off_c, 0, 55, 64
1, 238580, Note_off_c, 0, 58, 64
1, 238803, Note_off_c, 0, 52, 64
1, 239058, Note_on_c, 0, 58, 52
1, 239059, Note_on_c, 0, 52, 72
1, 239061, Note_on_c, 0, 42, 68
1, 239061, Note_on_c, 0, 55, 63
1, 239460, Note_off_c, 0, 62, 64
1, 239496, Note_off_c, 0, 50, 64
1, 239558, Note_off_c, 0, 58, 64
1, 239784, Control_c, 0, 64, 0
1, 240062, Control_c, 0, 64, 127
1, 240490, Note_on_c, 0, 58, 86
1, 240493, Note_on_c, 0, 46, 81
1, 240537, Note_off_c, 0, 52, 64
1, 240589, Note_off_c, 0, 55, 64
1, 240603, Note_off_c, 0, 42, 64
1, 241266, Note_off_c, 0, 58, 64
1, 241271, Note_off_c, 0, 46, 64
1, 241352, Note_on_c, 0, 58, 90
1, 241353, Note_on_c, 0, 46, 86
1, 242120, Control_c, 0, 64, 0
1, 242674, Control_c, 0, 64, 127
1, 242846, Note_on_c, 0, 59, 83
1, 242848, Note_on_c, 0, 47, 83
1, 242991, Note_off_c, 0, 46, 64
1, 243006, Note_off_c, 0, 58, 64
1, 245094, Note_on_c, 0, 55, 67
1, 245094, Note_on_c, 0, 40, 87
1, 245096, Note_on_c, 0, 52, 74
1, 245316, Control_c, 0, 64, 0
1, 245472, Note_off_c, 0, 52, 64
1, 245494, Note_off_c, 0, 40, 64
1, 245774, Note_off_c, 0, 55, 64
1, 245992, Control_c, 0, 64, 127
1, 246917, Note_on_c, 0, 54, 65
1, 246920, Note_on_c, 0, 50, 57
1, 246922, Note_on_c, 0, 35, 66
1, 247730, Note_off_c, 0, 35, 64
1, 247735, Note_off_c, 0, 54, 64
1, 247738, Note_off_c, 0, 50, 64
1, 248788, Control_c, 0, 64, 0
1, 250572, Note_off_c, 0, 47, 64
1, 250651, Note_off_c, 0, 59, 64
1, 251520, Control_c, 0, 64, 0
1, 251520, End_track
0, 0, End_of_file
