0, 0, Header, 0, 1, 480
1, 0, Start_track
1, 0, SMPTE_offset, 96, 0, 0, 0, 0
1, 0, Time_signature, 4, 2, 24, 8
1, 0, Key_signature, 0, "major"
1, 0, Tempo, 500000
1, 0, Note_on_c, 0, 74, 59
1, 1148, Note_on_c, 0, 43, 36
1, 1912, Note_on_c, 0, 72, 51
1, 1930, Note_on_c, 0, 62, 37
1, 1952, Note_on_c, 0, 50, 14
1, 1974, Note_off_c, 0, 43, 64
1, 2036, Note_off_c, 0, 74, 64
1, 2210, Note_on_c, 0, 70, 67
1, 2266, Note_off_c, 0, 72, 64
1, 2406, Note_off_c, 0, 70, 64
1, 2426, Note_on_c, 0, 69, 56
1, 2498, Note_off_c, 0, 69, 64
1, 2498, Note_on_c, 0, 70, 40
1, 2551, Note_off_c, 0, 62, 64
1, 2565, Note_on_c, 0, 72, 60
1, 2572, Note_off_c, 0, 70, 64
1, 2572, Note_on_c, 0, 63, 35
1, 2573, Note_off_c, 0, 50, 64
1, 2582, Note_on_c, 0, 60, 31
1, 2588, Note_on_c, 0, 54, 31
1, 2662, Note_on_c, 0, 70, 59
1, 2678, Control_c, 0, 64, 0
1, 2698, Note_off_c, 0, 72, 64
1, 2986, Control_c, 0, 64, 127
1, 3028, Note_off_c, 0, 60, 64
1, 3158, Note_on_c, 0, 69, 37
1, 3188, Note_off_c, 0, 63, 64
1, 3226, Note_off_c, 0, 70, 64
1, 3456, Note_on_c, 0, 62, 31
1, 3482, Note_on_c, 0, 50, 23
1, 3554, Control_c, 0, 64, 0
1, 3630, Note_off_c, 0, 69, 64
1, 3754, Control_c, 0, 64, 127
1, 3794, Note_off_c, 0, 54, 64
1, 3902, Note_off_c, 0, 62, 64
1, 3934, Note_off_c, 0, 50, 64
1, 4138, Note_on_c, 0, 63, 46
1, 4170, Note_on_c, 0, 55, 35
1, 4174, Note_on_c, 0, 58, 29
1, 4368, Control_c, 0, 64, 0
1, 4470, Note_on_c, 0, 70, 82
1, 4584, Control_c, 0, 64, 127
1, 4722, Note_off_c, 0, 63, 64
1, 4804, Note_off_c, 0, 70, 64
1, 4892, Note_on_c, 0, 70, 52
1, 4930, Note_on_c, 0, 62, 28
1, 4956, Note_on_c, 0, 50, 30
1, 5090, Control_c, 0, 64, 0
1, 5152, Note_off_c, 0, 58, 64
1, 5186, Note_off_c, 0, 55, 64
1, 5218, Note_on_c, 0, 69, 53
1, 5306, Control_c, 0, 64, 127
1, 5312, Note_off_c, 0, 70, 64
1, 5370, Note_off_c, 0, 50, 64
1, 5442, Note_off_c, 0, 62, 64
1, 5468, Note_on_c, 0, 67, 61
1, 5486, Note_off_c, 0, 69, 64
1, 5732, Note_on_c, 0, 66, 43
1, 5742, Note_on_c, 0, 63, 36
1, 5768, Note_off_c, 0, 67, 64
1, 5796, Note_on_c, 0, 57, 18
1, 5796, Control_c, 0, 64, 0
1, 5799, Note_on_c, 0, 60, 20
1, 6090, Control_c, 0, 64, 127
1, 6200, Note_off_c, 0, 60, 64
1, 6212, Note_off_c, 0, 57, 64
1, 6272, Note_off_c, 0, 63, 64
1, 6546, Note_on_c, 0, 62, 22
1, 6578, Note_on_c, 0, 50, 14
1, 6658, Control_c, 0, 64, 0
1, 6858, Control_c, 0, 64, 127
1, 6962, Note_off_c, 0, 62, 64
1, 7022, Note_off_c, 0, 50, 64
1, 7086, Note_off_c, 0, 66, 64
1, 7474, Note_on_c, 0, 43, 17
1, 7490, Note_on_c, 0, 67, 18
1, 7612, Control_c, 0, 64, 0
1, 7826, Control_c, 0, 64, 127
1, 7862, Note_off_c, 0, 43, 64
1, 8206, Note_on_c, 0, 69, 37
1, 8226, Note_on_c, 0, 58, 4
1, 8250, Note_on_c, 0, 62, 19
1, 8258, Note_on_c, 0, 55, 16
1, 8316, Note_off_c, 0, 67, 64
1, 8400, Note_off_c, 0, 62, 64
1, 8448, Note_off_c, 0, 58, 64
1, 8460, Note_off_c, 0, 55, 64
1, 8550, Note_on_c, 0, 70, 67
1, 8696, Note_off_c, 0, 69, 64
1, 8920, Note_on_c, 0, 72, 73
1, 8930, Note_on_c, 0, 36, 57
1, 8998, Note_off_c, 0, 70, 64
1, 9024, Control_c, 0, 64, 0
1, 9224, Control_c, 0, 64, 127
1, 9236, Note_off_c, 0, 36, 64
1, 9610, Note_on_c, 0, 74, 85
1, 9610, Note_on_c, 0, 67, 32
1, 9612, Note_on_c, 0, 63, 34
1, 9613, Note_on_c, 0, 60, 22
1, 9615, Note_on_c, 0, 55, 28
1, 9680, Note_off_c, 0, 72, 64
1, 9742, Note_off_c, 0, 67, 64
1, 9820, Note_off_c, 0, 63, 64
1, 9828, Note_off_c, 0, 55, 64
1, 9833, Note_off_c, 0, 60, 64
1, 9950, Note_on_c, 0, 75, 84
1, 10004, Note_off_c, 0, 74, 64
1, 10305, Note_on_c, 0, 41, 63
1, 10340, Note_on_c, 0, 69, 76
1, 10360, Control_c, 0, 64, 0
1, 10404, Note_off_c, 0, 75, 64
1, 10638, Control_c, 0, 64, 127
1, 10671, Note_off_c, 0, 41, 64
1, 10980, Note_on_c, 0, 67, 64
1, 10984, Note_on_c, 0, 63, 50
1, 11536, Note_off_c, 0, 67, 64
1, 11686, Note_off_c, 0, 63, 64
1, 11694, Note_on_c, 0, 65, 52
1, 11714, Note_on_c, 0, 62, 24
1, 11912, Control_c, 0, 64, 0
1, 12098, Control_c, 0, 64, 127
1, 12206, Note_off_c, 0, 69, 64
1, 12214, Note_on_c, 0, 79, 89
1, 12324, Note_off_c, 0, 79, 64
1, 12408, Note_on_c, 0, 79, 78
1, 12422, Note_off_c, 0, 62, 64
1, 12484, Note_on_c, 0, 63, 29
1, 12498, Note_off_c, 0, 65, 64
1, 12504, Note_on_c, 0, 60, 19
1, 12650, Control_c, 0, 64, 0
1, 12774, Note_on_c, 0, 77, 74
1, 12804, Control_c, 0, 64, 127
1, 12870, Note_off_c, 0, 60, 64
1, 12872, Note_off_c, 0, 63, 64
1, 12888, Note_off_c, 0, 79, 64
1, 13078, Note_on_c, 0, 75, 75
1, 13112, Note_off_c, 0, 77, 64
1, 13224, Note_off_c, 0, 75, 64
1, 13352, Note_on_c, 0, 74, 87
1, 13378, Note_on_c, 0, 34, 33
1, 13381, Note_on_c, 0, 46, 27
1, 13464, Control_c, 0, 64, 0
1, 13634, Control_c, 0, 64, 127
1, 13700, Note_off_c, 0, 34, 64
1, 13762, Note_on_c, 0, 62, 55
1, 13786, Note_off_c, 0, 74, 64
1, 13802, Note_off_c, 0, 46, 64
1, 13816, Note_off_c, 0, 62, 64
1, 13902, Note_on_c, 0, 62, 56
1, 14012, Note_on_c, 0, 65, 63
1, 14070, Note_on_c, 0, 70, 62
1, 14092, Note_off_c, 0, 62, 64
1, 14170, Note_off_c, 0, 65, 64
1, 14184, Note_on_c, 0, 74, 95
1, 14204, Note_on_c, 0, 53, 83
1, 14290, Note_off_c, 0, 70, 64
1, 14466, Note_off_c, 0, 53, 64
1, 14558, Note_on_c, 0, 72, 89
1, 14636, Note_off_c, 0, 74, 64
1, 14756, Note_off_c, 0, 72, 64
1, 14780, Note_on_c, 0, 70, 83
1, 14830, Note_off_c, 0, 70, 64
1, 14960, Note_on_c, 0, 60, 67
1, 15014, Note_on_c, 0, 62, 49
1, 15072, Note_on_c, 0, 38, 39
1, 15112, Note_on_c, 0, 66, 50
1, 15222, Note_on_c, 0, 70, 65
1, 15340, Control_c, 0, 64, 0
1, 15554, Control_c, 0, 64, 127
1, 15644, Note_off_c, 0, 70, 64
1, 15658, Note_on_c, 0, 69, 57
1, 15846, Control_c, 0, 64, 0
1, 15944, Note_on_c, 0, 50, 67
1, 16050, Note_off_c, 0, 38, 64
1, 16139, Control_c, 0, 64, 127
1, 16168, Note_off_c, 0, 69, 64
1, 16190, Note_off_c, 0, 62, 64
1, 16198, Note_off_c, 0, 60, 64
1, 16320, Note_off_c, 0, 66, 64
1, 16446, Note_on_c, 0, 58, 52
1, 16550, Note_on_c, 0, 62, 64
1, 16626, Note_on_c, 0, 67, 67
1, 16676, Control_c, 0, 64, 0
1, 16692, Note_on_c, 0, 43, 44
1, 16730, Note_on_c, 0, 70, 79
1, 16854, Note_off_c, 0, 58, 64
1, 16890, Control_c, 0, 64, 127
1, 16906, Note_off_c, 0, 62, 64
1, 16962, Note_off_c, 0, 43, 64
1, 16974, Note_off_c, 0, 67, 64
1, 16998, Note_off_c, 0, 50, 64
1, 17022, Note_off_c, 0, 70, 64
1, 17204, Note_on_c, 0, 70, 68
1, 17250, Note_off_c, 0, 70, 64
1, 17342, Note_on_c, 0, 70, 61
1, 17422, Note_on_c, 0, 72, 76
1, 17432, Note_off_c, 0, 70, 64
1, 17454, Note_on_c, 0, 62, 35
1, 17476, Note_on_c, 0, 50, 25
1, 17486, Note_on_c, 0, 70, 86
1, 17552, Note_off_c, 0, 72, 64
1, 17776, Note_off_c, 0, 50, 64
1, 17790, Note_on_c, 0, 69, 76
1, 17872, Note_off_c, 0, 70, 64
1, 17906, Note_off_c, 0, 62, 64
1, 17992, Note_off_c, 0, 69, 64
1, 18012, Note_on_c, 0, 67, 79
1, 18282, Note_on_c, 0, 66, 55
1, 18283, Note_on_c, 0, 63, 41
1, 18284, Note_on_c, 0, 60, 26
1, 18292, Note_on_c, 0, 57, 19
1, 18322, Note_off_c, 0, 67, 64
1, 18336, Control_c, 0, 64, 0
1, 18581, Control_c, 0, 64, 127
1, 18728, Note_off_c, 0, 60, 64
1, 18728, Note_off_c, 0, 57, 64
1, 18851, Note_off_c, 0, 63, 64
1, 19062, Note_on_c, 0, 62, 32
1, 19072, Note_on_c, 0, 50, 26
1, 19334, Control_c, 0, 64, 0
1, 19492, Note_off_c, 0, 66, 64
1, 19504, Control_c, 0, 64, 127
1, 19520, Note_off_c, 0, 62, 64
1, 19682, Note_off_c, 0, 50, 64
1, 19804, Note_on_c, 0, 67, 66
1, 19814, Note_on_c, 0, 63, 43
1, 19824, Note_on_c, 0, 58, 26
1, 19864, Note_on_c, 0, 51, 28
1, 20102, Control_c, 0, 64, 0
1, 20288, Control_c, 0, 64, 127
1, 20346, Note_off_c, 0, 58, 64
1, 20482, Note_off_c, 0, 63, 64
1, 20514, Note_on_c, 0, 69, 65
1, 20528, Note_on_c, 0, 62, 41
1, 20538, Note_on_c, 0, 55, 43
1, 20546, Note_on_c, 0, 46, 29
1, 20596, Note_off_c, 0, 51, 64
1, 20762, Note_off_c, 0, 67, 64
1, 21080, Note_on_c, 0, 70, 64
1, 21098, Note_off_c, 0, 55, 64
1, 21140, Note_off_c, 0, 62, 64
1, 21168, Note_off_c, 0, 69, 64
1, 21288, Note_on_c, 0, 72, 71
1, 21304, Note_on_c, 0, 60, 34
1, 21316, Note_on_c, 0, 67, 43
1, 21328, Note_on_c, 0, 57, 14
1, 21331, Note_on_c, 0, 45, 18
1, 21336, Note_on_c, 0, 51, 22
1, 21352, Note_off_c, 0, 46, 64
1, 21364, Note_off_c, 0, 70, 64
1, 21470, Control_c, 0, 64, 0
1, 21730, Control_c, 0, 64, 127
1, 21746, Note_off_c, 0, 67, 64
1, 22042, Note_on_c, 0, 74, 63
1, 22052, Note_on_c, 0, 66, 27
1, 22062, Note_on_c, 0, 50, 30
1, 22080, Note_off_c, 0, 51, 64
1, 22084, Control_c, 0, 64, 0
1, 22150, Note_off_c, 0, 45, 64
1, 22194, Note_off_c, 0, 72, 64
1, 22392, Control_c, 0, 64, 127
1, 22446, Note_off_c, 0, 74, 64
1, 22606, Note_off_c, 0, 57, 64
1, 22636, Note_off_c, 0, 66, 64
1, 22868, Note_on_c, 0, 67, 60
1, 22896, Note_on_c, 0, 43, 22
1, 22899, Control_c, 0, 64, 0
1, 23192, Control_c, 0, 64, 127
1, 23294, Note_off_c, 0, 43, 64
1, 23300, Note_off_c, 0, 50, 64
1, 23598, Note_off_c, 0, 60, 64
1, 23784, Note_on_c, 0, 58, 22
1, 23788, Note_on_c, 0, 62, 14
1, 23792, Note_on_c, 0, 55, 17
1, 23944, Control_c, 0, 64, 0
1, 24082, Control_c, 0, 64, 127
1, 24126, Note_off_c, 0, 67, 64
1, 24138, Note_off_c, 0, 62, 64
1, 24170, Note_off_c, 0, 55, 64
1, 24362, Note_on_c, 0, 67, 26
1, 24424, Note_off_c, 0, 58, 64
1, 24532, Note_off_c, 0, 67, 64
1, 24752, Note_on_c, 0, 41, 28
1, 24768, Note_on_c, 0, 67, 36
1, 24820, Control_c, 0, 64, 0
1, 24908, Note_off_c, 0, 67, 64
1, 24942, Note_on_c, 0, 69, 30
1, 24988, Control_c, 0, 64, 127
1, 25032, Note_off_c, 0, 69, 64
1, 25048, Note_on_c, 0, 70, 38
1, 25109, Note_off_c, 0, 41, 64
1, 25150, Note_off_c, 0, 70, 64
1, 25166, Note_on_c, 0, 69, 32
1, 25234, Note_on_c, 0, 70, 44
1, 25236, Note_off_c, 0, 69, 64
1, 25304, Note_off_c, 0, 70, 64
1, 25306, Note_on_c, 0, 69, 40
1, 25382, Note_off_c, 0, 69, 64
1, 25394, Note_on_c, 0, 70, 45
1, 25452, Note_off_c, 0, 70, 64
1, 25452, Note_on_c, 0, 69, 48
1, 25534, Note_off_c, 0, 69, 64
1, 25554, Note_on_c, 0, 70, 44
1, 25602, Note_on_c, 0, 65, 24
1, 25624, Note_on_c, 0, 60, 24
1, 25638, Note_off_c, 0, 70, 64
1, 25638, Note_on_c, 0, 69, 33
1, 25638, Note_on_c, 0, 53, 27
1, 25654, Note_on_c, 0, 63, 47
1, 25696, Control_c, 0, 64, 0
1, 25720, Note_off_c, 0, 69, 64
1, 25726, Note_on_c, 0, 70, 43
1, 25796, Note_on_c, 0, 69, 42
1, 25816, Note_off_c, 0, 70, 64
1, 25834, Control_c, 0, 64, 127
1, 25882, Note_on_c, 0, 70, 59
1, 25884, Note_off_c, 0, 69, 64
1, 25956, Note_on_c, 0, 69, 55
1, 25962, Note_off_c, 0, 70, 64
1, 26018, Note_off_c, 0, 63, 64
1, 26034, Note_off_c, 0, 69, 64
1, 26046, Note_on_c, 0, 70, 57
1, 26134, Note_on_c, 0, 69, 54
1, 26186, Note_off_c, 0, 70, 64
1, 26238, Note_on_c, 0, 67, 72
1, 26258, Note_off_c, 0, 69, 64
1, 26332, Note_on_c, 0, 69, 57
1, 26376, Note_off_c, 0, 67, 64
1, 26458, Note_off_c, 0, 60, 64
1, 26474, Note_off_c, 0, 65, 64
1, 26500, Note_on_c, 0, 62, 29
1, 26510, Note_on_c, 0, 58, 23
1, 26538, Note_on_c, 0, 70, 64
1, 26560, Note_off_c, 0, 69, 64
1, 26678, Control_c, 0, 64, 0
1, 26842, Note_off_c, 0, 53, 64
1, 26910, Control_c, 0, 64, 127
1, 27298, Note_on_c, 0, 71, 67
1, 27310, Note_on_c, 0, 65, 32
1, 27334, Note_on_c, 0, 53, 36
1, 27430, Note_off_c, 0, 70, 64
1, 27538, Control_c, 0, 64, 0
1, 27556, Note_off_c, 0, 62, 64
1, 27692, Control_c, 0, 64, 127
1, 27758, Note_off_c, 0, 58, 64
1, 27780, Note_off_c, 0, 71, 64
1, 28008, Note_on_c, 0, 63, 51
1, 28016, Note_on_c, 0, 57, 27
1, 28030, Note_off_c, 0, 65, 64
1, 28324, Note_off_c, 0, 53, 64
1, 28348, Note_on_c, 0, 72, 80
1, 28694, Note_on_c, 0, 65, 43
1, 28700, Note_on_c, 0, 53, 60
1, 28752, Control_c, 0, 64, 0
1, 28968, Control_c, 0, 64, 127
1, 28992, Note_on_c, 0, 73, 78
1, 29022, Note_off_c, 0, 57, 64
1, 29062, Note_off_c, 0, 72, 64
1, 29148, Note_off_c, 0, 63, 64
1, 29392, Note_on_c, 0, 74, 79
1, 29394, Note_off_c, 0, 73, 64
1, 29406, Note_on_c, 0, 58, 22
1, 29424, Note_on_c, 0, 62, 41
1, 29428, Control_c, 0, 64, 0
1, 29572, Note_off_c, 0, 74, 64
1, 29598, Control_c, 0, 64, 127
1, 29628, Note_on_c, 0, 74, 92
1, 29704, Note_off_c, 0, 65, 64
1, 29752, Note_off_c, 0, 53, 64
1, 29755, Note_on_c, 0, 75, 76
1, 29758, Note_off_c, 0, 74, 64
1, 29864, Note_on_c, 0, 74, 71
1, 29904, Note_off_c, 0, 75, 64
1, 29970, Note_on_c, 0, 73, 76
1, 29973, Note_off_c, 0, 74, 64
1, 30066, Note_off_c, 0, 73, 64
1, 30074, Note_on_c, 0, 74, 70
1, 30120, Note_off_c, 0, 74, 64
1, 30204, Note_on_c, 0, 74, 75
1, 30362, Note_on_c, 0, 65, 24
1, 30372, Note_on_c, 0, 53, 38
1, 30428, Control_c, 0, 64, 0
1, 30534, Note_on_c, 0, 79, 67
1, 30562, Note_off_c, 0, 74, 64
1, 30796, Control_c, 0, 64, 127
1, 30914, Note_off_c, 0, 62, 64
1, 31118, Note_off_c, 0, 58, 64
1, 31144, Note_on_c, 0, 77, 55
1, 31198, Note_off_c, 0, 79, 64
1, 31264, Note_off_c, 0, 77, 64
1, 31348, Note_on_c, 0, 77, 47
1, 31352, Note_off_c, 0, 65, 64
1, 31372, Note_on_c, 0, 57, 17
1, 31372, Note_on_c, 0, 63, 27
1, 31488, Control_c, 0, 64, 0
1, 31718, Control_c, 0, 64, 127
1, 31822, Note_on_c, 0, 72, 48
1, 31840, Note_off_c, 0, 77, 64
1, 31872, Note_off_c, 0, 53, 64
1, 32012, Note_off_c, 0, 57, 64
1, 32190, Note_on_c, 0, 65, 25
1, 32218, Note_on_c, 0, 53, 45
1, 32520, Note_on_c, 0, 73, 70
1, 32598, Note_off_c, 0, 72, 64
1, 32652, Note_off_c, 0, 63, 64
1, 32898, Note_on_c, 0, 74, 79
1, 32914, Note_on_c, 0, 58, 25
1, 32942, Note_on_c, 0, 62, 37
1, 32988, Note_off_c, 0, 53, 64
1, 32991, Note_off_c, 0, 73, 64
1, 33116, Control_c, 0, 64, 0
1, 33302, Control_c, 0, 64, 127
1, 33410, Note_off_c, 0, 65, 64
1, 33572, Note_on_c, 0, 75, 69
1, 33598, Note_on_c, 0, 67, 37
1, 33688, Note_off_c, 0, 74, 64
1, 33824, Control_c, 0, 64, 0
1, 34008, Control_c, 0, 64, 127
1, 34152, Note_off_c, 0, 62, 64
1, 34164, Note_off_c, 0, 58, 64
1, 34250, Note_off_c, 0, 75, 64
1, 34272, Note_on_c, 0, 61, 46
1, 34284, Note_on_c, 0, 57, 44
1, 34580, Note_off_c, 0, 67, 64
1, 34924, Note_on_c, 0, 76, 76
1, 34956, Note_on_c, 0, 67, 55
1, 35176, Control_c, 0, 64, 0
1, 35370, Note_off_c, 0, 61, 64
1, 35376, Control_c, 0, 64, 127
1, 35478, Note_off_c, 0, 67, 64
1, 35570, Note_on_c, 0, 77, 70
1, 35582, Note_off_c, 0, 76, 64
1, 35590, Note_on_c, 0, 65, 32
1, 35606, Control_c, 0, 64, 0
1, 35610, Note_on_c, 0, 62, 29
1, 35726, Note_off_c, 0, 77, 64
1, 35760, Control_c, 0, 64, 127
1, 35780, Note_on_c, 0, 77, 98
1, 35896, Note_off_c, 0, 77, 64
1, 35898, Note_on_c, 0, 79, 95
1, 35924, Note_off_c, 0, 57, 64
1, 36006, Note_on_c, 0, 77, 80
1, 36040, Note_off_c, 0, 79, 64
1, 36106, Note_off_c, 0, 77, 64
1, 36114, Note_on_c, 0, 76, 76
1, 36206, Note_off_c, 0, 76, 64
1, 36206, Note_on_c, 0, 77, 79
1, 36242, Note_off_c, 0, 77, 64
1, 36306, Note_on_c, 0, 77, 74
1, 36438, Note_on_c, 0, 69, 29
1, 36458, Note_on_c, 0, 57, 21
1, 36604, Note_on_c, 0, 82, 76
1, 36650, Control_c, 0, 64, 0
1, 36674, Note_off_c, 0, 77, 64
1, 36866, Control_c, 0, 64, 127
1, 37036, Note_off_c, 0, 65, 64
1, 37058, Note_off_c, 0, 62, 64
1, 37102, Note_off_c, 0, 69, 64
1, 37190, Note_on_c, 0, 81, 80
1, 37276, Note_off_c, 0, 82, 64
1, 37304, Note_off_c, 0, 81, 64
1, 37414, Note_on_c, 0, 81, 54
1, 37444, Note_on_c, 0, 61, 29
1, 37456, Note_on_c, 0, 67, 25
1, 37634, Control_c, 0, 64, 0
1, 37804, Control_c, 0, 64, 127
1, 37964, Note_on_c, 0, 75, 62
1, 38040, Note_off_c, 0, 81, 64
1, 38042, Note_off_c, 0, 67, 64
1, 38072, Note_off_c, 0, 57, 64
1, 38356, Note_on_c, 0, 69, 38
1, 38392, Note_on_c, 0, 57, 34
1, 38684, Note_off_c, 0, 69, 64
1, 38710, Note_on_c, 0, 76, 85
1, 38722, Note_off_c, 0, 57, 64
1, 38792, Note_off_c, 0, 61, 64
1, 38792, Note_off_c, 0, 75, 64
1, 39130, Note_on_c, 0, 77, 86
1, 39170, Note_on_c, 0, 50, 44
1, 39236, Note_off_c, 0, 76, 64
1, 39248, Control_c, 0, 64, 0
1, 39448, Control_c, 0, 64, 127
1, 39538, Note_off_c, 0, 50, 64
1, 39832, Note_on_c, 0, 79, 84
1, 39852, Note_on_c, 0, 65, 31
1, 39860, Note_on_c, 0, 62, 31
1, 39864, Note_on_c, 0, 57, 33
1, 39926, Note_off_c, 0, 77, 64
1, 40048, Note_off_c, 0, 65, 64
1, 40164, Note_off_c, 0, 62, 64
1, 40184, Note_off_c, 0, 57, 64
1, 40344, Note_on_c, 0, 77, 73
1, 40426, Note_off_c, 0, 79, 64
1, 40512, Note_on_c, 0, 75, 70
1, 40518, Note_on_c, 0, 51, 61
1, 40570, Note_off_c, 0, 77, 64
1, 40584, Control_c, 0, 64, 0
1, 40800, Control_c, 0, 64, 127
1, 40896, Note_off_c, 0, 51, 64
1, 41194, Note_on_c, 0, 70, 68
1, 41218, Note_on_c, 0, 58, 23
1, 41224, Note_on_c, 0, 67, 34
1, 41232, Note_on_c, 0, 55, 40
1, 41358, Note_off_c, 0, 75, 64
1, 41368, Note_off_c, 0, 67, 64
1, 41452, Note_off_c, 0, 55, 64
1, 41570, Note_off_c, 0, 58, 64
1, 41744, Note_on_c, 0, 72, 71
1, 41824, Note_off_c, 0, 70, 64
1, 41954, Note_on_c, 0, 74, 79
1, 41957, Note_on_c, 0, 46, 57
1, 41980, Note_off_c, 0, 72, 64
1, 41983, Control_c, 0, 64, 0
1, 42182, Control_c, 0, 64, 127
1, 42251, Note_off_c, 0, 74, 64
1, 42302, Note_off_c, 0, 46, 64
1, 42388, Note_on_c, 0, 74, 57
1, 42432, Note_off_c, 0, 74, 64
1, 42522, Note_on_c, 0, 74, 43
1, 42594, Note_off_c, 0, 74, 64
1, 42616, Note_on_c, 0, 77, 62
1, 42636, Note_on_c, 0, 58, 18
1, 42648, Note_on_c, 0, 62, 33
1, 42684, Note_on_c, 0, 53, 35
1, 42722, Note_on_c, 0, 75, 73
1, 42728, Note_off_c, 0, 77, 64
1, 42898, Note_off_c, 0, 75, 64
1, 43048, Note_off_c, 0, 62, 64
1, 43094, Note_off_c, 0, 53, 64
1, 43150, Note_off_c, 0, 58, 64
1, 43320, Note_on_c, 0, 74, 69
1, 43508, Note_off_c, 0, 74, 64
1, 43518, Note_on_c, 0, 72, 59
1, 43538, Note_on_c, 0, 48, 29
1, 43566, Control_c, 0, 64, 0
1, 43796, Control_c, 0, 64, 127
1, 43966, Note_off_c, 0, 48, 64
1, 44296, Note_on_c, 0, 67, 56
1, 44316, Note_on_c, 0, 63, 30
1, 44336, Note_on_c, 0, 51, 30
1, 44358, Note_on_c, 0, 55, 19
1, 44454, Note_off_c, 0, 72, 64
1, 44532, Note_off_c, 0, 63, 64
1, 44610, Note_off_c, 0, 55, 64
1, 44712, Note_off_c, 0, 51, 64
1, 44848, Note_on_c, 0, 69, 53
1, 44928, Note_off_c, 0, 67, 64
1, 45030, Note_on_c, 0, 70, 64
1, 45046, Note_on_c, 0, 43, 48
1, 45086, Control_c, 0, 64, 0
1, 45094, Note_off_c, 0, 69, 64
1, 45302, Control_c, 0, 64, 127
1, 45390, Note_off_c, 0, 43, 64
1, 45718, Note_on_c, 0, 69, 76
1, 45734, Note_on_c, 0, 62, 59
1, 45742, Note_on_c, 0, 58, 33
1, 45750, Note_on_c, 0, 55, 42
1, 45882, Note_off_c, 0, 70, 64
1, 45934, Note_off_c, 0, 62, 64
1, 46014, Note_off_c, 0, 55, 64
1, 46028, Note_off_c, 0, 58, 64
1, 46280, Note_on_c, 0, 70, 69
1, 46374, Note_off_c, 0, 69, 64
1, 46428, Note_on_c, 0, 72, 80
1, 46434, Note_on_c, 0, 39, 72
1, 46454, Control_c, 0, 64, 0
1, 46474, Note_off_c, 0, 70, 64
1, 46638, Control_c, 0, 64, 127
1, 46702, Note_off_c, 0, 39, 64
1, 46820, Note_off_c, 0, 72, 64
1, 46942, Note_on_c, 0, 72, 37
1, 47006, Note_on_c, 0, 74, 75
1, 47016, Note_off_c, 0, 72, 64
1, 47084, Note_on_c, 0, 72, 74
1, 47142, Note_off_c, 0, 74, 64
1, 47178, Note_on_c, 0, 67, 50
1, 47178, Note_on_c, 0, 60, 37
1, 47192, Note_on_c, 0, 55, 35
1, 47230, Note_on_c, 0, 71, 97
1, 47236, Note_off_c, 0, 72, 64
1, 47368, Note_off_c, 0, 67, 64
1, 47468, Note_off_c, 0, 55, 64
1, 47470, Note_off_c, 0, 60, 64
1, 47474, Note_on_c, 0, 72, 89
1, 47522, Note_off_c, 0, 71, 64
1, 47678, Note_on_c, 0, 74, 93
1, 47720, Note_off_c, 0, 72, 64
1, 47844, Note_on_c, 0, 77, 75
1, 47854, Note_off_c, 0, 74, 64
1, 47894, Note_on_c, 0, 75, 84
1, 47946, Note_off_c, 0, 77, 64
1, 48016, Note_off_c, 0, 75, 64
1, 48046, Note_on_c, 0, 38, 64
1, 48076, Note_on_c, 0, 74, 84
1, 48098, Control_c, 0, 64, 0
1, 48312, Control_c, 0, 64, 127
1, 48378, Note_off_c, 0, 38, 64
1, 48490, Note_on_c, 0, 62, 87
1, 48878, Note_on_c, 0, 66, 62
1, 48884, Note_on_c, 0, 57, 58
1, 49016, Note_off_c, 0, 74, 64
1, 49258, Note_on_c, 0, 74, 92
1, 49586, Note_off_c, 0, 66, 64
1, 49640, Note_on_c, 0, 67, 76
1, 49644, Note_on_c, 0, 58, 58
1, 49678, Note_off_c, 0, 57, 64
1, 49968, Note_off_c, 0, 74, 64
1, 50058, Note_on_c, 0, 74, 78
1, 50328, Note_off_c, 0, 67, 64
1, 50398, Note_off_c, 0, 74, 64
1, 50486, Note_on_c, 0, 59, 55
1, 50520, Note_off_c, 0, 58, 64
1, 50532, Note_on_c, 0, 68, 66
1, 50548, Note_on_c, 0, 74, 90
1, 50664, Control_c, 0, 64, 0
1, 50832, Control_c, 0, 64, 127
1, 50908, Note_off_c, 0, 74, 64
1, 51010, Note_on_c, 0, 74, 66
1, 51024, Note_off_c, 0, 68, 64
1, 51062, Note_off_c, 0, 59, 64
1, 51156, Note_on_c, 0, 69, 65
1, 51160, Note_off_c, 0, 74, 64
1, 51168, Note_on_c, 0, 60, 55
1, 51272, Note_off_c, 0, 69, 64
1, 51350, Note_off_c, 0, 60, 64
1, 51360, Note_on_c, 0, 74, 89
1, 51588, Note_off_c, 0, 74, 64
1, 51946, Note_on_c, 0, 74, 74
1, 51968, Note_on_c, 0, 31, 46
1, 51998, Note_off_c, 0, 62, 64
1, 52064, Control_c, 0, 64, 0
1, 52322, Control_c, 0, 64, 127
1, 52370, Note_off_c, 0, 31, 64
1, 53028, Note_on_c, 0, 72, 57
1, 53056, Note_on_c, 0, 62, 32
1, 53070, Note_on_c, 0, 50, 25
1, 53092, Note_off_c, 0, 74, 64
1, 53358, Note_off_c, 0, 50, 64
1, 53384, Note_on_c, 0, 70, 49
1, 53402, Note_off_c, 0, 72, 64
1, 53428, Note_off_c, 0, 62, 64
1, 53484, Note_off_c, 0, 70, 64
1, 53516, Note_on_c, 0, 69, 47
1, 53620, Note_on_c, 0, 70, 53
1, 53624, Note_off_c, 0, 69, 64
1, 53684, Note_off_c, 0, 70, 64
1, 53704, Note_on_c, 0, 72, 67
1, 53778, Note_on_c, 0, 70, 50
1, 53790, Note_on_c, 0, 63, 37
1, 53812, Note_off_c, 0, 72, 64
1, 53815, Note_on_c, 0, 54, 32
1, 53840, Note_on_c, 0, 60, 27
1, 53860, Control_c, 0, 64, 0
1, 54074, Control_c, 0, 64, 127
1, 54262, Note_on_c, 0, 69, 38
1, 54294, Note_off_c, 0, 70, 64
1, 54356, Note_off_c, 0, 63, 64
1, 54374, Note_off_c, 0, 60, 64
1, 54630, Note_on_c, 0, 62, 38
1, 54674, Note_on_c, 0, 50, 15
1, 54720, Control_c, 0, 64, 0
1, 54762, Note_off_c, 0, 69, 64
1, 54888, Control_c, 0, 64, 127
1, 55010, Note_off_c, 0, 54, 64
1, 55012, Note_off_c, 0, 50, 64
1, 55028, Note_off_c, 0, 62, 64
1, 55320, Note_on_c, 0, 63, 48
1, 55360, Note_on_c, 0, 58, 22
1, 55370, Note_on_c, 0, 55, 24
1, 55610, Control_c, 0, 64, 0
1, 55654, Note_on_c, 0, 70, 71
1, 55780, Control_c, 0, 64, 127
1, 55836, Note_off_c, 0, 70, 64
1, 55910, Note_off_c, 0, 63, 64
1, 55970, Note_on_c, 0, 70, 61
1, 56016, Note_off_c, 0, 70, 64
1, 56030, Note_on_c, 0, 72, 59
1, 56074, Note_on_c, 0, 70, 61
1, 56114, Note_on_c, 0, 62, 35
1, 56150, Note_on_c, 0, 50, 24
1, 56164, Note_off_c, 0, 72, 64
1, 56164, Control_c, 0, 64, 0
1, 56348, Control_c, 0, 64, 127
1, 56396, Note_on_c, 0, 69, 61
1, 56432, Note_off_c, 0, 55, 64
1, 56478, Note_off_c, 0, 70, 64
1, 56478, Note_off_c, 0, 50, 64
1, 56516, Note_off_c, 0, 58, 64
1, 56568, Note_off_c, 0, 62, 64
1, 56632, Note_off_c, 0, 69, 64
1, 56638, Note_on_c, 0, 67, 74
1, 56898, Note_on_c, 0, 63, 33
1, 56908, Note_on_c, 0, 66, 59
1, 56920, Note_on_c, 0, 60, 25
1, 56932, Control_c, 0, 64, 0
1, 56944, Note_on_c, 0, 57, 12
1, 56966, Note_off_c, 0, 67, 64
1, 57178, Control_c, 0, 64, 127
1, 57328, Note_off_c, 0, 57, 64
1, 57330, Note_off_c, 0, 60, 64
1, 57404, Note_off_c, 0, 63, 64
1, 57708, Note_on_c, 0, 62, 30
1, 57732, Note_off_c, 0, 66, 64
1, 57732, Note_on_c, 0, 50, 13
1, 58024, Control_c, 0, 64, 0
1, 58130, Control_c, 0, 64, 127
1, 58174, Note_off_c, 0, 62, 64
1, 58208, Note_off_c, 0, 50, 64
1, 58516, Note_on_c, 0, 67, 54
1, 58550, Note_on_c, 0, 43, 23
1, 58764, Note_off_c, 0, 43, 64
1, 59202, Note_on_c, 0, 69, 63
1, 59230, Note_on_c, 0, 62, 34
1, 59233, Note_on_c, 0, 58, 20
1, 59252, Note_on_c, 0, 55, 24
1, 59316, Note_off_c, 0, 67, 64
1, 59342, Note_off_c, 0, 62, 64
1, 59412, Note_off_c, 0, 58, 64
1, 59422, Note_off_c, 0, 55, 64
1, 59608, Note_on_c, 0, 70, 70
1, 59706, Note_off_c, 0, 69, 64
1, 59928, Control_c, 0, 64, 0
1, 59933, Note_on_c, 0, 36, 55
1, 59956, Note_on_c, 0, 72, 66
1, 59966, Note_off_c, 0, 70, 64
1, 60112, Control_c, 0, 64, 127
1, 60126, Note_off_c, 0, 72, 64
1, 60130, Note_off_c, 0, 36, 64
1, 60184, Note_on_c, 0, 72, 77
1, 60236, Note_off_c, 0, 72, 64
1, 60300, Note_on_c, 0, 72, 73
1, 60374, Note_off_c, 0, 72, 64
1, 60390, Note_on_c, 0, 74, 78
1, 60468, Note_on_c, 0, 72, 78
1, 60494, Note_off_c, 0, 74, 64
1, 60574, Note_off_c, 0, 72, 64
1, 60582, Note_on_c, 0, 71, 93
1, 60698, Note_on_c, 0, 72, 91
1, 60734, Note_off_c, 0, 71, 64
1, 60766, Note_on_c, 0, 63, 38
1, 60769, Note_on_c, 0, 67, 34
1, 60778, Note_on_c, 0, 55, 30
1, 60800, Note_on_c, 0, 60, 25
1, 60846, Note_off_c, 0, 72, 64
1, 60870, Note_on_c, 0, 74, 92
1, 60988, Control_c, 0, 64, 0
1, 61188, Control_c, 0, 64, 127
1, 61194, Note_off_c, 0, 67, 64
1, 61258, Note_off_c, 0, 63, 64
1, 61274, Note_off_c, 0, 60, 64
1, 61304, Note_off_c, 0, 55, 64
1, 61424, Note_on_c, 0, 75, 80
1, 61482, Note_off_c, 0, 74, 64
1, 61636, Note_on_c, 0, 41, 35
1, 61654, Note_on_c, 0, 69, 74
1, 61682, Note_off_c, 0, 75, 64
1, 61696, Control_c, 0, 64, 0
1, 61888, Note_off_c, 0, 41, 64
1, 61894, Control_c, 0, 64, 127
1, 62424, Note_off_c, 0, 69, 64
1, 62478, Note_on_c, 0, 81, 87
1, 62502, Note_on_c, 0, 63, 30
1, 62508, Note_on_c, 0, 67, 41
1, 63110, Note_off_c, 0, 67, 64
1, 63278, Note_off_c, 0, 63, 64
1, 63296, Note_on_c, 0, 65, 56
1, 63298, Note_on_c, 0, 62, 51
1, 63678, Note_on_c, 0, 79, 89
1, 63800, Note_off_c, 0, 81, 64
1, 64068, Note_off_c, 0, 79, 64
1, 64220, Note_off_c, 0, 62, 64
1, 64254, Note_on_c, 0, 79, 83
1, 64268, Note_on_c, 0, 63, 35
1, 64284, Note_on_c, 0, 60, 22
1, 64318, Note_off_c, 0, 65, 64
1, 64384, Control_c, 0, 64, 0
1, 64554, Control_c, 0, 64, 127
1, 64640, Note_off_c, 0, 63, 64
1, 64646, Note_off_c, 0, 60, 64
1, 64646, Note_on_c, 0, 77, 80
1, 64710, Note_off_c, 0, 79, 64
1, 64900, Note_off_c, 0, 77, 64
1, 64924, Note_on_c, 0, 75, 82
1, 65016, Note_off_c, 0, 75, 64
1, 65172, Note_on_c, 0, 74, 91
1, 65175, Note_on_c, 0, 46, 35
1, 65180, Note_on_c, 0, 34, 25
1, 65274, Control_c, 0, 64, 0
1, 65444, Control_c, 0, 64, 127
1, 65494, Note_off_c, 0, 34, 64
1, 65570, Note_off_c, 0, 74, 64
1, 65578, Note_on_c, 0, 62, 66
1, 65586, Note_off_c, 0, 46, 64
1, 65624, Note_off_c, 0, 62, 64
1, 65716, Note_on_c, 0, 62, 49
1, 65820, Note_on_c, 0, 65, 60
1, 65890, Note_on_c, 0, 70, 62
1, 65916, Note_off_c, 0, 62, 64
1, 65940, Note_off_c, 0, 65, 64
1, 65988, Note_on_c, 0, 74, 94
1, 66004, Note_on_c, 0, 53, 78
1, 66082, Note_off_c, 0, 70, 64
1, 66246, Note_off_c, 0, 53, 64
1, 66378, Note_on_c, 0, 72, 83
1, 66428, Note_off_c, 0, 74, 64
1, 66560, Note_off_c, 0, 72, 64
1, 66616, Note_on_c, 0, 70, 81
1, 66666, Note_off_c, 0, 70, 64
1, 66804, Note_on_c, 0, 60, 57
1, 66874, Note_on_c, 0, 62, 61
1, 66976, Note_on_c, 0, 66, 46
1, 67082, Note_on_c, 0, 70, 60
1, 67084, Note_on_c, 0, 38, 26
1, 67196, Control_c, 0, 64, 0
1, 67426, Control_c, 0, 64, 127
1, 67576, Note_off_c, 0, 70, 64
1, 67604, Note_on_c, 0, 69, 50
1, 67872, Control_c, 0, 64, 0
1, 68018, Note_off_c, 0, 62, 64
1, 68022, Note_on_c, 0, 50, 56
1, 68056, Control_c, 0, 64, 127
1, 68094, Note_off_c, 0, 38, 64
1, 68112, Note_off_c, 0, 60, 64
1, 68124, Note_off_c, 0, 69, 64
1, 68238, Note_off_c, 0, 66, 64
1, 68506, Note_on_c, 0, 58, 59
1, 68606, Note_on_c, 0, 62, 70
1, 68686, Note_on_c, 0, 67, 72
1, 68718, Control_c, 0, 64, 0
1, 68730, Note_on_c, 0, 43, 47
1, 68812, Note_on_c, 0, 70, 75
1, 68916, Control_c, 0, 64, 127
1, 68920, Note_off_c, 0, 58, 64
1, 68922, Note_off_c, 0, 62, 64
1, 68982, Note_off_c, 0, 67, 64
1, 68994, Note_off_c, 0, 43, 64
1, 69034, Note_off_c, 0, 50, 64
1, 69066, Note_off_c, 0, 70, 64
1, 69326, Note_on_c, 0, 70, 72
1, 69432, Note_off_c, 0, 70, 64
1, 69548, Note_on_c, 0, 70, 56
1, 69612, Note_off_c, 0, 70, 64
1, 69620, Note_on_c, 0, 72, 67
1, 69622, Note_on_c, 0, 62, 32
1, 69640, Note_on_c, 0, 50, 26
1, 69664, Note_on_c, 0, 70, 74
1, 69746, Note_off_c, 0, 72, 64
1, 69862, Note_off_c, 0, 50, 64
1, 69936, Note_on_c, 0, 69, 74
1, 70008, Note_off_c, 0, 70, 64
1, 70014, Note_off_c, 0, 62, 64
1, 70160, Note_on_c, 0, 67, 78
1, 70166, Note_off_c, 0, 69, 64
1, 70411, Note_on_c, 0, 57, 21
1, 70411, Note_on_c, 0, 60, 30
1, 70416, Note_on_c, 0, 63, 43
1, 70419, Note_on_c, 0, 66, 66
1, 70422, Control_c, 0, 64, 0
1, 70460, Note_off_c, 0, 67, 64
1, 70622, Control_c, 0, 64, 127
1, 70648, Note_off_c, 0, 66, 64
1, 70841, Note_off_c, 0, 57, 64
1, 70853, Note_off_c, 0, 60, 64
1, 70874, Note_off_c, 0, 63, 64
1, 71294, Note_on_c, 0, 62, 34
1, 71320, Note_on_c, 0, 50, 27
1, 71504, Note_off_c, 0, 62, 64
1, 71586, Note_off_c, 0, 50, 64
1, 72040, Note_on_c, 0, 67, 65
1, 72052, Note_on_c, 0, 63, 38
1, 72066, Note_on_c, 0, 58, 21
1, 72086, Note_on_c, 0, 51, 24
1, 72174, Control_c, 0, 64, 0
1, 72420, Control_c, 0, 64, 127
1, 72614, Note_off_c, 0, 58, 64
1, 72730, Note_off_c, 0, 63, 64
1, 72804, Note_on_c, 0, 69, 68
1, 72816, Note_on_c, 0, 62, 56
1, 72828, Note_on_c, 0, 55, 42
1, 72831, Note_on_c, 0, 46, 36
1, 72898, Note_off_c, 0, 51, 64
1, 73348, Note_on_c, 0, 70, 69
1, 73362, Note_off_c, 0, 55, 64
1, 73366, Note_off_c, 0, 67, 64
1, 73400, Note_off_c, 0, 62, 64
1, 73450, Note_off_c, 0, 69, 64
1, 73556, Note_on_c, 0, 72, 78
1, 73574, Note_on_c, 0, 60, 34
1, 73582, Note_on_c, 0, 45, 15
1, 73585, Note_on_c, 0, 51, 27
1, 73585, Note_on_c, 0, 57, 18
1, 73592, Note_off_c, 0, 46, 64
1, 73592, Note_on_c, 0, 67, 36
1, 73624, Note_off_c, 0, 70, 64
1, 73696, Control_c, 0, 64, 0
1, 73942, Control_c, 0, 64, 127
1, 74134, Note_off_c, 0, 67, 64
1, 74376, Note_on_c, 0, 74, 55
1, 74376, Note_on_c, 0, 50, 27
1, 74382, Note_on_c, 0, 66, 26
1, 74404, Note_off_c, 0, 51, 64
1, 74448, Control_c, 0, 64, 0
1, 74508, Note_off_c, 0, 72, 64
1, 74514, Note_off_c, 0, 45, 64
1, 74726, Control_c, 0, 64, 127
1, 74768, Note_off_c, 0, 74, 64
1, 74914, Note_off_c, 0, 66, 64
1, 75082, Note_off_c, 0, 57, 64
1, 75216, Control_c, 0, 64, 0
1, 75244, Note_on_c, 0, 43, 34
1, 75252, Note_on_c, 0, 67, 42
1, 75382, Note_off_c, 0, 43, 64
1, 75398, Note_off_c, 0, 50, 64
1, 75416, Control_c, 0, 64, 127
1, 75452, Note_off_c, 0, 60, 64
1, 76252, Note_on_c, 0, 58, 14
1, 76266, Note_on_c, 0, 55, 20
1, 76272, Note_on_c, 0, 50, 15
1, 76484, Note_off_c, 0, 58, 64
1, 76600, Note_off_c, 0, 50, 64
1, 76662, Note_off_c, 0, 55, 64
1, 76790, Note_on_c, 0, 67, 21
1, 76868, Note_off_c, 0, 67, 64
1, 76948, Note_on_c, 0, 67, 39
1, 77078, Note_off_c, 0, 67, 64
1, 77124, Note_on_c, 0, 69, 36
1, 77158, Note_on_c, 0, 41, 30
1, 77250, Note_off_c, 0, 69, 64
1, 77266, Control_c, 0, 64, 0
1, 77269, Note_on_c, 0, 70, 40
1, 77384, Note_off_c, 0, 70, 64
1, 77392, Note_on_c, 0, 69, 33
1, 77458, Note_off_c, 0, 69, 64
1, 77458, Note_on_c, 0, 70, 45
1, 77466, Control_c, 0, 64, 127
1, 77498, Note_off_c, 0, 41, 64
1, 77526, Note_off_c, 0, 70, 64
1, 77578, Note_on_c, 0, 69, 30
1, 77656, Note_off_c, 0, 69, 64
1, 77692, Note_on_c, 0, 70, 34
1, 77742, Note_on_c, 0, 69, 36
1, 77750, Note_off_c, 0, 70, 64
1, 77818, Note_off_c, 0, 69, 64
1, 77826, Note_on_c, 0, 70, 43
1, 77912, Note_off_c, 0, 70, 64
1, 77920, Note_on_c, 0, 69, 21
1, 78034, Control_c, 0, 64, 0
1, 78034, Note_on_c, 0, 70, 35
1, 78036, Note_off_c, 0, 67, 64
1, 78036, Note_on_c, 0, 65, 14
1, 78038, Note_on_c, 0, 53, 31
1, 78044, Note_off_c, 0, 69, 64
1, 78052, Note_on_c, 0, 60, 24
1, 78054, Note_on_c, 0, 63, 45
1, 78102, Note_off_c, 0, 70, 64
1, 78120, Note_on_c, 0, 69, 41
1, 78190, Note_on_c, 0, 70, 39
1, 78196, Note_off_c, 0, 69, 64
1, 78264, Control_c, 0, 64, 127
1, 78278, Note_on_c, 0, 69, 34
1, 78306, Note_off_c, 0, 70, 64
1, 78350, Note_off_c, 0, 69, 64
1, 78372, Note_off_c, 0, 63, 64
1, 78382, Note_on_c, 0, 70, 50
1, 78472, Note_off_c, 0, 70, 64
1, 78472, Note_on_c, 0, 69, 23
1, 78560, Note_off_c, 0, 69, 64
1, 78614, Note_on_c, 0, 67, 51
1, 78714, Note_off_c, 0, 67, 64
1, 78810, Note_on_c, 0, 69, 51
1, 78904, Note_off_c, 0, 60, 64
1, 79124, Note_off_c, 0, 65, 64
1, 79140, Note_on_c, 0, 70, 44
1, 79182, Note_off_c, 0, 69, 64
1, 79194, Note_on_c, 0, 58, 20
1, 79216, Note_on_c, 0, 62, 22
1, 79278, Control_c, 0, 64, 0
1, 79456, Note_off_c, 0, 53, 64
1, 79540, Control_c, 0, 64, 127
1, 80010, Note_on_c, 0, 71, 54
1, 80038, Note_on_c, 0, 65, 10
1, 80066, Note_on_c, 0, 53, 43
1, 80152, Note_off_c, 0, 70, 64
1, 80228, Note_off_c, 0, 62, 64
1, 80494, Note_off_c, 0, 58, 64
1, 80578, Note_off_c, 0, 71, 64
1, 80710, Note_on_c, 0, 63, 35
1, 80720, Note_on_c, 0, 57, 37
1, 80726, Note_off_c, 0, 65, 64
1, 80912, Note_off_c, 0, 53, 64
1, 81080, Note_on_c, 0, 72, 72
1, 81416, Note_on_c, 0, 65, 40
1, 81440, Note_on_c, 0, 53, 62
1, 81460, Control_c, 0, 64, 0
1, 81660, Control_c, 0, 64, 127
1, 81682, Note_off_c, 0, 57, 64
1, 81710, Note_on_c, 0, 73, 73
1, 81780, Note_off_c, 0, 72, 64
1, 81826, Note_off_c, 0, 63, 64
1, 82060, Control_c, 0, 64, 0
1, 82080, Note_on_c, 0, 58, 24
1, 82080, Note_on_c, 0, 74, 83
1, 82086, Note_off_c, 0, 73, 64
1, 82120, Note_on_c, 0, 62, 39
1, 82230, Note_off_c, 0, 74, 64
1, 82244, Control_c, 0, 64, 127
1, 82288, Note_on_c, 0, 74, 89
1, 82372, Note_off_c, 0, 65, 64
1, 82380, Note_on_c, 0, 75, 78
1, 82384, Note_off_c, 0, 53, 64
1, 82392, Note_off_c, 0, 74, 64
1, 82468, Note_on_c, 0, 74, 80
1, 82508, Note_off_c, 0, 75, 64
1, 82574, Note_on_c, 0, 73, 75
1, 82584, Note_off_c, 0, 74, 64
1, 82674, Note_on_c, 0, 74, 75
1, 82678, Note_off_c, 0, 73, 64
1, 82724, Note_off_c, 0, 74, 64
1, 82798, Note_on_c, 0, 74, 85
1, 82874, Control_c, 0, 64, 0
1, 82932, Note_on_c, 0, 65, 31
1, 82946, Note_on_c, 0, 53, 49
1, 83102, Note_on_c, 0, 79, 79
1, 83144, Note_off_c, 0, 74, 64
1, 83382, Control_c, 0, 64, 127
1, 83480, Note_off_c, 0, 62, 64
1, 83518, Note_off_c, 0, 58, 64
1, 83666, Note_on_c, 0, 77, 68
1, 83710, Note_off_c, 0, 79, 64
1, 83720, Note_off_c, 0, 77, 64
1, 83808, Note_off_c, 0, 65, 64
1, 83826, Note_on_c, 0, 77, 43
1, 83829, Note_on_c, 0, 63, 36
1, 83846, Note_on_c, 0, 57, 20
1, 84012, Control_c, 0, 64, 0
1, 84212, Control_c, 0, 64, 127
1, 84350, Note_off_c, 0, 53, 64
1, 84378, Note_on_c, 0, 72, 45
1, 84392, Note_off_c, 0, 77, 64
1, 84712, Note_on_c, 0, 65, 31
1, 84744, Note_off_c, 0, 57, 64
1, 84792, Note_on_c, 0, 53, 30
1, 85032, Note_on_c, 0, 73, 62
1, 85108, Note_off_c, 0, 63, 64
1, 85114, Note_off_c, 0, 72, 64
1, 85336, Note_off_c, 0, 53, 64
1, 85392, Note_on_c, 0, 58, 13
1, 85414, Note_on_c, 0, 74, 81
1, 85430, Note_on_c, 0, 62, 30
1, 85526, Note_off_c, 0, 73, 64
1, 85610, Control_c, 0, 64, 0
1, 85808, Control_c, 0, 64, 127
1, 85870, Note_off_c, 0, 65, 64
1, 86096, Note_on_c, 0, 75, 62
1, 86120, Note_on_c, 0, 67, 39
1, 86166, Note_off_c, 0, 74, 64
1, 86316, Control_c, 0, 64, 0
1, 86500, Control_c, 0, 64, 127
1, 86580, Note_off_c, 0, 62, 64
1, 86622, Note_off_c, 0, 58, 64
1, 86794, Note_off_c, 0, 75, 64
1, 86797, Note_on_c, 0, 61, 38
1, 86828, Note_on_c, 0, 57, 32
1, 87074, Note_off_c, 0, 67, 64
1, 87506, Note_on_c, 0, 76, 57
1, 87532, Note_on_c, 0, 67, 32
1, 87744, Control_c, 0, 64, 0
1, 87890, Note_off_c, 0, 61, 64
1, 87930, Control_c, 0, 64, 127
1, 88014, Note_off_c, 0, 67, 64
1, 88152, Note_on_c, 0, 77, 52
1, 88156, Note_off_c, 0, 76, 64
1, 88180, Note_on_c, 0, 65, 19
1, 88190, Control_c, 0, 64, 0
1, 88200, Note_on_c, 0, 62, 25
1, 88332, Note_off_c, 0, 77, 64
1, 88360, Control_c, 0, 64, 127
1, 88392, Note_on_c, 0, 77, 86
1, 88516, Note_off_c, 0, 77, 64
1, 88520, Note_on_c, 0, 79, 85
1, 88534, Note_off_c, 0, 57, 64
1, 88636, Note_on_c, 0, 77, 65
1, 88648, Note_off_c, 0, 79, 64
1, 88738, Note_off_c, 0, 77, 64
1, 88750, Note_on_c, 0, 76, 63
1, 88840, Note_off_c, 0, 76, 64
1, 88846, Note_on_c, 0, 77, 76
1, 88882, Note_off_c, 0, 77, 64
1, 88966, Note_on_c, 0, 77, 62
1, 89122, Note_on_c, 0, 69, 16
1, 89138, Note_on_c, 0, 57, 16
1, 89296, Control_c, 0, 64, 0
1, 89310, Note_on_c, 0, 82, 53
1, 89348, Note_off_c, 0, 77, 64
1, 89558, Control_c, 0, 64, 127
1, 89710, Note_off_c, 0, 65, 64
1, 89720, Note_off_c, 0, 62, 64
1, 89720, Note_off_c, 0, 69, 64
1, 89934, Note_on_c, 0, 81, 64
1, 89972, Note_off_c, 0, 82, 64
1, 90060, Note_off_c, 0, 81, 64
1, 90122, Note_on_c, 0, 81, 63
1, 90164, Note_on_c, 0, 61, 15
1, 90168, Note_on_c, 0, 67, 19
1, 90342, Control_c, 0, 64, 0
1, 90510, Control_c, 0, 64, 127
1, 90518, Note_on_c, 0, 75, 47
1, 90554, Note_off_c, 0, 81, 64
1, 90674, Note_off_c, 0, 57, 64
1, 90678, Note_off_c, 0, 67, 64
1, 90936, Note_on_c, 0, 69, 27
1, 90970, Note_on_c, 0, 57, 27
1, 90986, Control_c, 0, 64, 0
1, 91218, Control_c, 0, 64, 127
1, 91306, Note_off_c, 0, 69, 64
1, 91362, Note_off_c, 0, 57, 64
1, 91414, Note_on_c, 0, 76, 62
1, 91492, Note_off_c, 0, 61, 64
1, 91520, Note_off_c, 0, 75, 64
1, 91864, Note_on_c, 0, 77, 74
1, 91884, Note_on_c, 0, 50, 33
1, 91896, Note_off_c, 0, 76, 64
1, 91908, Control_c, 0, 64, 0
1, 92124, Control_c, 0, 64, 127
1, 92218, Note_off_c, 0, 50, 64
1, 92568, Note_on_c, 0, 79, 84
1, 92578, Note_on_c, 0, 65, 31
1, 92590, Note_on_c, 0, 57, 34
1, 92604, Note_on_c, 0, 62, 25
1, 92654, Note_off_c, 0, 77, 64
1, 92804, Note_off_c, 0, 65, 64
1, 92910, Note_off_c, 0, 62, 64
1, 92948, Note_off_c, 0, 57, 64
1, 93112, Note_on_c, 0, 77, 79
1, 93222, Note_off_c, 0, 79, 64
1, 93292, Note_on_c, 0, 75, 72
1, 93314, Note_on_c, 0, 51, 25
1, 93362, Note_off_c, 0, 77, 64
1, 93368, Control_c, 0, 64, 0
1, 93584, Control_c, 0, 64, 127
1, 93668, Note_off_c, 0, 51, 64
1, 93974, Note_on_c, 0, 70, 60
1, 93986, Note_on_c, 0, 58, 22
1, 94014, Note_on_c, 0, 55, 29
1, 94014, Note_on_c, 0, 67, 7
1, 94058, Note_off_c, 0, 75, 64
1, 94160, Note_off_c, 0, 67, 64
1, 94214, Note_off_c, 0, 55, 64
1, 94328, Note_off_c, 0, 58, 64
1, 94552, Note_on_c, 0, 72, 58
1, 94626, Note_off_c, 0, 70, 64
1, 94758, Note_on_c, 0, 46, 37
1, 94784, Note_on_c, 0, 74, 65
1, 94794, Note_off_c, 0, 72, 64
1, 94814, Control_c, 0, 64, 0
1, 94998, Control_c, 0, 64, 127
1, 95082, Note_off_c, 0, 46, 64
1, 95104, Note_off_c, 0, 74, 64
1, 95272, Note_on_c, 0, 74, 68
1, 95316, Note_off_c, 0, 74, 64
1, 95432, Note_on_c, 0, 74, 47
1, 95486, Note_on_c, 0, 58, 17
1, 95502, Note_on_c, 0, 62, 20
1, 95505, Note_off_c, 0, 74, 64
1, 95516, Note_on_c, 0, 53, 37
1, 95528, Note_on_c, 0, 77, 66
1, 95682, Note_on_c, 0, 75, 63
1, 95710, Note_off_c, 0, 77, 64
1, 95960, Note_off_c, 0, 75, 64
1, 96039, Note_off_c, 0, 53, 64
1, 96142, Note_off_c, 0, 58, 64
1, 96148, Note_off_c, 0, 62, 64
1, 96238, Note_on_c, 0, 74, 66
1, 96458, Note_on_c, 0, 72, 62
1, 96476, Note_on_c, 0, 48, 32
1, 96504, Note_off_c, 0, 74, 64
1, 96504, Control_c, 0, 64, 0
1, 96734, Control_c, 0, 64, 127
1, 97090, Note_off_c, 0, 48, 64
1, 97256, Note_on_c, 0, 67, 66
1, 97264, Note_on_c, 0, 63, 42
1, 97288, Note_on_c, 0, 51, 36
1, 97306, Note_on_c, 0, 55, 33
1, 97470, Note_off_c, 0, 72, 64
1, 97552, Note_off_c, 0, 63, 64
1, 97608, Note_off_c, 0, 55, 64
1, 97732, Note_off_c, 0, 51, 64
1, 97826, Note_on_c, 0, 69, 63
1, 97894, Note_off_c, 0, 67, 64
1, 97994, Note_on_c, 0, 70, 73
1, 98036, Note_on_c, 0, 43, 48
1, 98068, Note_off_c, 0, 69, 64
1, 98086, Control_c, 0, 64, 0
1, 98300, Control_c, 0, 64, 127
1, 98378, Note_off_c, 0, 43, 64
1, 98744, Note_on_c, 0, 69, 73
1, 98760, Note_on_c, 0, 62, 58
1, 98768, Note_on_c, 0, 58, 34
1, 98778, Note_on_c, 0, 55, 39
1, 98822, Note_off_c, 0, 70, 64
1, 98902, Note_off_c, 0, 62, 64
1, 98978, Note_off_c, 0, 58, 64
1, 99000, Note_off_c, 0, 55, 64
1, 99324, Note_on_c, 0, 70, 64
1, 99460, Note_off_c, 0, 69, 64
1, 99496, Note_on_c, 0, 72, 76
1, 99506, Note_on_c, 0, 39, 61
1, 99530, Control_c, 0, 64, 0
1, 99546, Note_off_c, 0, 70, 64
1, 99730, Control_c, 0, 64, 127
1, 99784, Note_off_c, 0, 39, 64
1, 99864, Note_off_c, 0, 72, 64
1, 99958, Note_on_c, 0, 72, 59
1, 100008, Note_off_c, 0, 72, 64
1, 100074, Note_on_c, 0, 72, 66
1, 100158, Note_on_c, 0, 74, 84
1, 100176, Note_off_c, 0, 72, 64
1, 100240, Note_on_c, 0, 72, 84
1, 100300, Note_off_c, 0, 74, 64
1, 100348, Note_on_c, 0, 67, 43
1, 100354, Note_on_c, 0, 71, 89
1, 100368, Note_off_c, 0, 72, 64
1, 100368, Note_on_c, 0, 60, 28
1, 100384, Note_on_c, 0, 55, 31
1, 100522, Note_off_c, 0, 67, 64
1, 100552, Note_on_c, 0, 72, 86
1, 100600, Note_off_c, 0, 55, 64
1, 100602, Note_off_c, 0, 71, 64
1, 100654, Note_off_c, 0, 60, 64
1, 100696, Note_on_c, 0, 73, 77
1, 100738, Note_off_c, 0, 72, 64
1, 100856, Note_on_c, 0, 74, 83
1, 100870, Note_off_c, 0, 73, 64
1, 100982, Note_off_c, 0, 74, 64
1, 100990, Note_on_c, 0, 77, 75
1, 101098, Note_on_c, 0, 75, 78
1, 101116, Note_off_c, 0, 77, 64
1, 101144, Note_off_c, 0, 75, 64
1, 101230, Note_on_c, 0, 74, 84
1, 101238, Note_on_c, 0, 38, 53
1, 101282, Control_c, 0, 64, 0
1, 101496, Control_c, 0, 64, 127
1, 101544, Note_off_c, 0, 38, 64
1, 101654, Note_on_c, 0, 62, 81
1, 102002, Note_on_c, 0, 66, 62
1, 102016, Note_on_c, 0, 57, 56
1, 102156, Note_off_c, 0, 74, 64
1, 102378, Note_on_c, 0, 74, 92
1, 102708, Note_off_c, 0, 66, 64
1, 102882, Note_on_c, 0, 67, 55
1, 102884, Note_on_c, 0, 58, 45
1, 102940, Note_off_c, 0, 57, 64
1, 103048, Control_c, 0, 64, 0
1, 103218, Control_c, 0, 64, 127
1, 103250, Note_off_c, 0, 74, 64
1, 103334, Note_on_c, 0, 74, 57
1, 103460, Note_off_c, 0, 67, 64
1, 103604, Note_off_c, 0, 74, 64
1, 103684, Note_on_c, 0, 59, 27
1, 103750, Note_off_c, 0, 58, 64
1, 103876, Note_on_c, 0, 74, 57
1, 103878, Note_on_c, 0, 68, 28
1, 103940, Control_c, 0, 64, 0
1, 104124, Control_c, 0, 64, 127
1, 104144, Note_off_c, 0, 74, 64
1, 104264, Note_off_c, 0, 68, 64
1, 104286, Note_on_c, 0, 74, 40
1, 104296, Note_off_c, 0, 59, 64
1, 104452, Note_on_c, 0, 69, 32
1, 104480, Note_on_c, 0, 60, 21
1, 104548, Note_off_c, 0, 74, 64
1, 104718, Note_off_c, 0, 69, 64
1, 104724, Note_on_c, 0, 74, 55
1, 104800, Note_off_c, 0, 60, 64
1, 104950, Note_off_c, 0, 74, 64
1, 105356, Note_on_c, 0, 74, 36
1, 105402, Note_on_c, 0, 31, 20
1, 105462, Control_c, 0, 64, 0
1, 105498, Note_off_c, 0, 62, 64
1, 105676, Control_c, 0, 64, 127
1, 105726, Note_off_c, 0, 31, 64
1, 106284, Note_on_c, 0, 72, 40
1, 106338, Note_on_c, 0, 62, 22
1, 106344, Note_on_c, 0, 50, 6
1, 106478, Note_off_c, 0, 74, 64
1, 106630, Note_off_c, 0, 50, 64
1, 106698, Note_on_c, 0, 70, 40
1, 106700, Note_off_c, 0, 62, 64
1, 106734, Note_off_c, 0, 72, 64
1, 106852, Note_off_c, 0, 70, 64
1, 106862, Note_on_c, 0, 69, 34
1, 106950, Note_off_c, 0, 69, 64
1, 106958, Note_on_c, 0, 70, 35
1, 107040, Note_off_c, 0, 70, 64
1, 107074, Note_on_c, 0, 72, 42
1, 107096, Note_on_c, 0, 63, 21
1, 107099, Note_on_c, 0, 54, 20
1, 107144, Note_on_c, 0, 60, 27
1, 107162, Note_off_c, 0, 72, 64
1, 107188, Note_on_c, 0, 70, 44
1, 107304, Control_c, 0, 64, 0
1, 107504, Control_c, 0, 64, 127
1, 107546, Note_off_c, 0, 70, 64
1, 107596, Note_off_c, 0, 63, 64
1, 107634, Note_off_c, 0, 60, 64
1, 107712, Note_on_c, 0, 69, 17
1, 107956, Note_on_c, 0, 62, 31
1, 107980, Control_c, 0, 64, 0
1, 107988, Note_on_c, 0, 50, 22
1, 108150, Control_c, 0, 64, 127
1, 108226, Note_off_c, 0, 50, 64
1, 108281, Note_off_c, 0, 62, 64
1, 108290, Note_off_c, 0, 54, 64
1, 108366, Note_off_c, 0, 69, 64
1, 108682, Note_on_c, 0, 63, 36
1, 108706, Note_on_c, 0, 58, 22
1, 108738, Note_on_c, 0, 55, 22
1, 109034, Note_on_c, 0, 70, 44
1, 109148, Control_c, 0, 64, 0
1, 109286, Control_c, 0, 64, 127
1, 109336, Note_off_c, 0, 70, 64
1, 109380, Note_off_c, 0, 63, 64
1, 109434, Note_on_c, 0, 70, 34
1, 109508, Note_off_c, 0, 70, 64
1, 109520, Note_on_c, 0, 72, 42
1, 109574, Note_on_c, 0, 70, 57
1, 109576, Note_off_c, 0, 72, 64
1, 109578, Note_on_c, 0, 62, 20
1, 109638, Note_on_c, 0, 50, 14
1, 109656, Control_c, 0, 64, 0
1, 109840, Control_c, 0, 64, 127
1, 109882, Note_on_c, 0, 69, 43
1, 109892, Note_off_c, 0, 55, 64
1, 109916, Note_off_c, 0, 50, 64
1, 109926, Note_off_c, 0, 70, 64
1, 109972, Note_off_c, 0, 58, 64
1, 109996, Note_off_c, 0, 62, 64
1, 110076, Note_off_c, 0, 69, 64
1, 110108, Note_on_c, 0, 67, 49
1, 110326, Note_on_c, 0, 63, 31
1, 110368, Note_on_c, 0, 60, 18
1, 110392, Note_on_c, 0, 57, 6
1, 110402, Note_on_c, 0, 66, 38
1, 110440, Note_off_c, 0, 67, 64
1, 110440, Control_c, 0, 64, 0
1, 110700, Control_c, 0, 64, 127
1, 110794, Note_off_c, 0, 57, 64
1, 110806, Note_off_c, 0, 60, 64
1, 110810, Note_off_c, 0, 63, 64
1, 111206, Note_on_c, 0, 62, 25
1, 111228, Note_on_c, 0, 50, 18
1, 111336, Note_off_c, 0, 66, 64
1, 111524, Note_off_c, 0, 62, 64
1, 111580, Note_off_c, 0, 50, 64
1, 112004, Note_on_c, 0, 67, 58
1, 112030, Note_on_c, 0, 43, 24
1, 112084, Control_c, 0, 64, 0
1, 112268, Control_c, 0, 64, 127
1, 112308, Note_off_c, 0, 43, 64
1, 112720, Note_on_c, 0, 69, 59
1, 112734, Note_on_c, 0, 58, 17
1, 112737, Note_on_c, 0, 62, 26
1, 112754, Note_on_c, 0, 55, 29
1, 112820, Note_off_c, 0, 67, 64
1, 112862, Note_off_c, 0, 62, 64
1, 112970, Note_off_c, 0, 58, 64
1, 112982, Note_off_c, 0, 55, 64
1, 113290, Note_on_c, 0, 70, 69
1, 113412, Note_off_c, 0, 69, 64
1, 113488, Note_on_c, 0, 72, 75
1, 113524, Note_on_c, 0, 36, 48
1, 113558, Note_off_c, 0, 70, 64
1, 113558, Control_c, 0, 64, 0
1, 113758, Control_c, 0, 64, 127
1, 113772, Note_off_c, 0, 36, 64
1, 114204, Note_on_c, 0, 74, 82
1, 114230, Note_on_c, 0, 67, 25
1, 114236, Note_on_c, 0, 63, 30
1, 114258, Note_on_c, 0, 55, 16
1, 114270, Note_on_c, 0, 60, 20
1, 114288, Note_off_c, 0, 72, 64
1, 114502, Note_off_c, 0, 67, 64
1, 114572, Note_off_c, 0, 55, 64
1, 114620, Note_off_c, 0, 63, 64
1, 114644, Note_off_c, 0, 60, 64
1, 114908, Note_on_c, 0, 75, 62
1, 114948, Note_off_c, 0, 74, 64
1, 115012, Note_off_c, 0, 75, 64
1, 115086, Note_on_c, 0, 75, 54
1, 115156, Note_on_c, 0, 41, 35
1, 115280, Control_c, 0, 64, 0
1, 115498, Note_on_c, 0, 69, 43
1, 115524, Note_off_c, 0, 75, 64
1, 115556, Note_off_c, 0, 41, 64
1, 115570, Control_c, 0, 64, 127
1, 115860, Note_off_c, 0, 69, 64
1, 115918, Note_on_c, 0, 67, 48
1, 115918, Note_on_c, 0, 63, 45
1, 116510, Note_on_c, 0, 81, 63
1, 116670, Note_off_c, 0, 67, 64
1, 116762, Note_off_c, 0, 63, 64
1, 116932, Note_on_c, 0, 65, 37
1, 116944, Note_on_c, 0, 62, 25
1, 117060, Note_on_c, 0, 80, 54
1, 117100, Note_off_c, 0, 81, 64
1, 117196, Note_on_c, 0, 79, 66
1, 117202, Note_off_c, 0, 80, 64
1, 117296, Note_off_c, 0, 79, 64
1, 117316, Note_on_c, 0, 78, 64
1, 117400, Note_off_c, 0, 78, 64
1, 117418, Note_on_c, 0, 77, 65
1, 117464, Note_off_c, 0, 77, 64
1, 117496, Note_on_c, 0, 76, 71
1, 117560, Note_off_c, 0, 65, 64
1, 117602, Note_on_c, 0, 75, 72
1, 117630, Note_off_c, 0, 76, 64
1, 117652, Note_off_c, 0, 62, 64
1, 117702, Note_on_c, 0, 60, 21
1, 117710, Note_on_c, 0, 72, 53
1, 117720, Note_off_c, 0, 75, 64
1, 117744, Note_on_c, 0, 63, 37
1, 117764, Note_off_c, 0, 72, 64
1, 117804, Note_on_c, 0, 69, 50
1, 117884, Note_off_c, 0, 69, 64
1, 117892, Note_off_c, 0, 63, 64
1, 117908, Note_on_c, 0, 66, 55
1, 117942, Note_off_c, 0, 60, 64
1, 118018, Note_on_c, 0, 64, 69
1, 118042, Note_off_c, 0, 66, 64
1, 118104, Note_off_c, 0, 64, 64
1, 118124, Note_on_c, 0, 65, 61
1, 118182, Note_off_c, 0, 65, 64
1, 118232, Note_on_c, 0, 67, 64
1, 118322, Note_on_c, 0, 69, 50
1, 118350, Note_off_c, 0, 67, 64
1, 118416, Note_on_c, 0, 70, 62
1, 118460, Note_off_c, 0, 69, 64
1, 118526, Note_off_c, 0, 70, 64
1, 118526, Note_on_c, 0, 72, 65
1, 118628, Control_c, 0, 64, 0
1, 118633, Note_on_c, 0, 34, 23
1, 118640, Note_on_c, 0, 46, 22
1, 118640, Note_on_c, 0, 74, 76
1, 118650, Note_off_c, 0, 72, 64
1, 118874, Control_c, 0, 64, 127
1, 118916, Note_off_c, 0, 74, 64
1, 118996, Note_off_c, 0, 34, 64
1, 119096, Note_on_c, 0, 61, 54
1, 119112, Note_off_c, 0, 46, 64
1, 119208, Note_off_c, 0, 61, 64
1, 119224, Note_on_c, 0, 62, 53
1, 119326, Note_on_c, 0, 65, 53
1, 119412, Note_on_c, 0, 70, 49
1, 119548, Note_on_c, 0, 74, 72
1, 119582, Note_on_c, 0, 53, 45
1, 119596, Note_off_c, 0, 70, 64
1, 119612, Control_c, 0, 64, 0
1, 119728, Note_off_c, 0, 65, 64
1, 119766, Control_c, 0, 64, 127
1, 119814, Note_off_c, 0, 62, 64
1, 119914, Note_on_c, 0, 72, 66
1, 119942, Note_off_c, 0, 53, 64
1, 119982, Note_off_c, 0, 74, 64
1, 120124, Note_off_c, 0, 72, 64
1, 120142, Note_on_c, 0, 70, 66
1, 120184, Note_off_c, 0, 70, 64
1, 120318, Note_on_c, 0, 60, 55
1, 120394, Note_on_c, 0, 62, 38
1, 120442, Note_on_c, 0, 38, 23
1, 120472, Note_on_c, 0, 66, 24
1, 120606, Note_on_c, 0, 70, 41
1, 120642, Control_c, 0, 64, 0
1, 120878, Note_off_c, 0, 62, 64
1, 120886, Control_c, 0, 64, 127
1, 121054, Note_on_c, 0, 62, 12
1, 121100, Note_off_c, 0, 70, 64
1, 121118, Note_on_c, 0, 69, 34
1, 121226, Control_c, 0, 64, 0
1, 121410, Control_c, 0, 64, 127
1, 121420, Note_off_c, 0, 60, 64
1, 121438, Note_off_c, 0, 69, 64
1, 121448, Note_off_c, 0, 62, 64
1, 121456, Note_on_c, 0, 50, 49
1, 121476, Note_off_c, 0, 38, 64
1, 121568, Note_off_c, 0, 66, 64
1, 121926, Note_on_c, 0, 58, 41
1, 122052, Note_on_c, 0, 62, 52
1, 122156, Note_on_c, 0, 67, 34
1, 122208, Note_on_c, 0, 43, 35
1, 122224, Control_c, 0, 64, 0
1, 122322, Note_on_c, 0, 70, 60
1, 122380, Note_off_c, 0, 58, 64
1, 122430, Note_off_c, 0, 62, 64
1, 122454, Control_c, 0, 64, 127
1, 122538, Note_off_c, 0, 67, 64
1, 122588, Note_off_c, 0, 43, 64
1, 122618, Note_off_c, 0, 50, 64
1, 123126, Note_on_c, 0, 62, 32
1, 123138, Note_on_c, 0, 50, 22
1, 123377, Note_on_c, 0, 69, 43
1, 123392, Control_c, 0, 64, 0
1, 123401, Note_off_c, 0, 70, 64
1, 123514, Control_c, 0, 64, 127
1, 123636, Note_off_c, 0, 50, 64
1, 123661, Note_on_c, 0, 67, 35
1, 123734, Note_off_c, 0, 62, 64
1, 123940, Note_on_c, 0, 66, 39
1, 123948, Note_on_c, 0, 63, 47
1, 123954, Note_on_c, 0, 57, 8
1, 123962, Note_on_c, 0, 60, 13
1, 124002, Note_off_c, 0, 67, 64
1, 124052, Control_c, 0, 64, 0
1, 124083, Note_off_c, 0, 69, 64
1, 124298, Control_c, 0, 64, 127
1, 124430, Note_off_c, 0, 57, 64
1, 124446, Note_off_c, 0, 60, 64
1, 124560, Note_off_c, 0, 63, 64
1, 124856, Note_on_c, 0, 62, 28
1, 124898, Note_on_c, 0, 50, 10
1, 125114, Control_c, 0, 64, 0
1, 125278, Note_off_c, 0, 62, 64
1, 125282, Control_c, 0, 64, 127
1, 125392, Note_off_c, 0, 50, 64
1, 125464, Note_off_c, 0, 66, 64
1, 125624, Note_on_c, 0, 67, 60
1, 125636, Note_on_c, 0, 58, 19
1, 125640, Note_on_c, 0, 63, 29
1, 125650, Note_on_c, 0, 51, 21
1, 125912, Control_c, 0, 64, 0
1, 126112, Control_c, 0, 64, 127
1, 126234, Note_off_c, 0, 58, 64
1, 126352, Note_off_c, 0, 63, 64
1, 126424, Note_on_c, 0, 69, 60
1, 126440, Note_on_c, 0, 62, 35
1, 126452, Note_on_c, 0, 46, 27
1, 126453, Note_on_c, 0, 55, 33
1, 126478, Note_off_c, 0, 51, 64
1, 126824, Note_off_c, 0, 67, 64
1, 126939, Note_off_c, 0, 55, 64
1, 126971, Note_on_c, 0, 70, 67
1, 126977, Note_off_c, 0, 69, 64
1, 126978, Note_off_c, 0, 62, 64
1, 127162, Note_on_c, 0, 72, 69
1, 127170, Note_on_c, 0, 60, 53
1, 127174, Note_on_c, 0, 67, 19
1, 127180, Note_on_c, 0, 57, 4
1, 127188, Note_on_c, 0, 51, 21
1, 127197, Note_off_c, 0, 70, 64
1, 127200, Note_on_c, 0, 45, 28
1, 127232, Note_off_c, 0, 46, 64
1, 127510, Control_c, 0, 64, 0
1, 127664, Note_off_c, 0, 67, 64
1, 127724, Control_c, 0, 64, 127
1, 127968, Note_on_c, 0, 74, 57
1, 127980, Note_off_c, 0, 51, 64
1, 127982, Note_on_c, 0, 66, 25
1, 127986, Control_c, 0, 64, 0
1, 128000, Note_on_c, 0, 50, 25
1, 128122, Note_off_c, 0, 72, 64
1, 128202, Note_off_c, 0, 45, 64
1, 128324, Control_c, 0, 64, 127
1, 128466, Note_off_c, 0, 74, 64
1, 128630, Note_off_c, 0, 57, 64
1, 128754, Note_off_c, 0, 66, 64
1, 128966, Note_on_c, 0, 67, 42
1, 129000, Note_on_c, 0, 43, 24
1, 129400, Control_c, 0, 64, 0
1, 129524, Note_off_c, 0, 50, 64
1, 129568, Control_c, 0, 64, 127
1, 129744, Note_on_c, 0, 58, 21
1, 129772, Note_on_c, 0, 50, 32
1, 129812, Note_off_c, 0, 60, 64
1, 130228, Note_off_c, 0, 50, 64
1, 130244, Note_off_c, 0, 58, 64
1, 130474, Note_on_c, 0, 58, 39
1, 130490, Note_on_c, 0, 50, 43
1, 130674, Control_c, 0, 64, 0
1, 130814, Control_c, 0, 64, 127
1, 130820, Note_off_c, 0, 50, 64
1, 130876, Note_off_c, 0, 67, 64
1, 131074, Note_off_c, 0, 58, 64
1, 131306, Note_on_c, 0, 56, 44
1, 131330, Note_off_c, 0, 43, 64
1, 131330, Note_on_c, 0, 58, 13
1, 131333, Note_on_c, 0, 41, 56
1, 131340, Note_on_c, 0, 50, 30
1, 131396, Control_c, 0, 64, 0
1, 131530, Note_off_c, 0, 50, 64
1, 131644, Control_c, 0, 64, 127
1, 131750, Note_off_c, 0, 58, 64
1, 131944, Note_off_c, 0, 56, 64
1, 132070, Note_off_c, 0, 41, 64
1, 132404, Note_on_c, 0, 58, 38
1, 132414, Note_on_c, 0, 51, 23
1, 132414, Note_on_c, 0, 39, 26
1, 132417, Note_on_c, 0, 55, 31
1, 132596, Control_c, 0, 64, 0
1, 132826, Control_c, 0, 64, 127
1, 132862, Note_off_c, 0, 55, 64
1, 132902, Note_off_c, 0, 51, 64
1, 133184, Note_on_c, 0, 60, 45
1, 133194, Note_on_c, 0, 56, 22
1, 133196, Note_on_c, 0, 51, 31
1, 133204, Note_on_c, 0, 44, 36
1, 133218, Note_off_c, 0, 39, 64
1, 133266, Note_off_c, 0, 58, 64
1, 133348, Control_c, 0, 64, 0
1, 133518, Control_c, 0, 64, 127
1, 133586, Note_off_c, 0, 51, 64
1, 133612, Note_off_c, 0, 56, 64
1, 133614, Note_off_c, 0, 60, 64
1, 133634, Note_off_c, 0, 44, 64
1, 133854, Note_on_c, 0, 60, 59
1, 133854, Note_on_c, 0, 56, 33
1, 133858, Note_on_c, 0, 44, 39
1, 133858, Note_on_c, 0, 51, 40
1, 134208, Note_off_c, 0, 51, 64
1, 134230, Note_off_c, 0, 56, 64
1, 134476, Note_off_c, 0, 44, 64
1, 134490, Note_on_c, 0, 58, 44
1, 134500, Note_on_c, 0, 55, 44
1, 134502, Note_on_c, 0, 39, 36
1, 134510, Note_on_c, 0, 51, 25
1, 134550, Note_off_c, 0, 60, 64
1, 134594, Control_c, 0, 64, 0
1, 134808, Control_c, 0, 64, 127
1, 134850, Note_off_c, 0, 55, 64
1, 134872, Note_off_c, 0, 51, 64
1, 134940, Note_off_c, 0, 58, 64
1, 135086, Note_off_c, 0, 39, 64
1, 135166, Note_on_c, 0, 60, 64
1, 135177, Note_on_c, 0, 51, 41
1, 135178, Note_on_c, 0, 44, 46
1, 135181, Note_on_c, 0, 56, 30
1, 135284, Control_c, 0, 64, 0
1, 135484, Control_c, 0, 64, 127
1, 135519, Note_off_c, 0, 51, 64
1, 135704, Note_off_c, 0, 56, 64
1, 135788, Note_off_c, 0, 44, 64
1, 135796, Note_on_c, 0, 63, 62
1, 135804, Note_on_c, 0, 39, 32
1, 135810, Note_on_c, 0, 55, 40
1, 135810, Note_on_c, 0, 58, 23
1, 135856, Note_off_c, 0, 60, 64
1, 135884, Control_c, 0, 64, 0
1, 136100, Control_c, 0, 64, 127
1, 136180, Note_off_c, 0, 58, 64
1, 136198, Note_off_c, 0, 55, 64
1, 136384, Note_off_c, 0, 39, 64
1, 136452, Note_on_c, 0, 62, 53
1, 136454, Note_on_c, 0, 58, 19
1, 136456, Note_on_c, 0, 53, 44
1, 136460, Note_on_c, 0, 46, 19
1, 136500, Note_off_c, 0, 63, 64
1, 136530, Control_c, 0, 64, 0
1, 136774, Control_c, 0, 64, 127
1, 136834, Note_off_c, 0, 53, 64
1, 136850, Note_off_c, 0, 58, 64
1, 137134, Note_on_c, 0, 63, 33
1, 137136, Note_on_c, 0, 39, 23
1, 137140, Note_on_c, 0, 58, 14
1, 137144, Note_off_c, 0, 46, 64
1, 137144, Note_on_c, 0, 55, 19
1, 137174, Control_c, 0, 64, 0
1, 137192, Note_off_c, 0, 62, 64
1, 137404, Control_c, 0, 64, 127
1, 137440, Note_off_c, 0, 55, 64
1, 137460, Note_off_c, 0, 58, 64
1, 137478, Note_off_c, 0, 39, 64
1, 137554, Note_off_c, 0, 63, 64
1, 137884, Note_on_c, 0, 65, 52
1, 137884, Note_on_c, 0, 58, 32
1, 137884, Note_on_c, 0, 62, 30
1, 137906, Note_on_c, 0, 46, 18
1, 138066, Control_c, 0, 64, 0
1, 138250, Control_c, 0, 64, 127
1, 138361, Note_off_c, 0, 62, 64
1, 138368, Note_off_c, 0, 58, 64
1, 138521, Note_on_c, 0, 63, 23
1, 138522, Note_on_c, 0, 67, 66
1, 138524, Note_on_c, 0, 58, 30
1, 138526, Note_off_c, 0, 46, 64
1, 138538, Note_on_c, 0, 51, 37
1, 138586, Note_off_c, 0, 65, 64
1, 138772, Control_c, 0, 64, 0
1, 138958, Control_c, 0, 64, 127
1, 138996, Note_off_c, 0, 63, 64
1, 139006, Note_off_c, 0, 58, 64
1, 139142, Note_on_c, 0, 68, 54
1, 139154, Note_on_c, 0, 63, 28
1, 139154, Note_on_c, 0, 60, 22
1, 139168, Note_off_c, 0, 51, 64
1, 139171, Note_on_c, 0, 44, 36
1, 139208, Note_off_c, 0, 67, 64
1, 139232, Control_c, 0, 64, 0
1, 139448, Control_c, 0, 64, 127
1, 139462, Note_off_c, 0, 60, 64
1, 139476, Note_off_c, 0, 63, 64
1, 139772, Note_off_c, 0, 44, 64
1, 139806, Note_off_c, 0, 68, 64
1, 139808, Note_on_c, 0, 67, 39
1, 139808, Note_on_c, 0, 58, 11
1, 139809, Note_on_c, 0, 51, 26
1, 139812, Note_on_c, 0, 63, 28
1, 139940, Control_c, 0, 64, 0
1, 140124, Control_c, 0, 64, 127
1, 140182, Note_off_c, 0, 63, 64
1, 140214, Note_off_c, 0, 58, 64
1, 140430, Note_off_c, 0, 51, 64
1, 140464, Note_on_c, 0, 65, 47
1, 140469, Note_on_c, 0, 58, 22
1, 140470, Note_on_c, 0, 62, 19
1, 140473, Note_on_c, 0, 46, 27
1, 140512, Note_off_c, 0, 67, 64
1, 140708, Note_off_c, 0, 62, 64
1, 140874, Note_off_c, 0, 58, 64
1, 141086, Note_off_c, 0, 65, 64
1, 141094, Note_on_c, 0, 63, 47
1, 141112, Note_on_c, 0, 60, 26
1, 141114, Note_on_c, 0, 48, 21
1, 141117, Note_on_c, 0, 55, 22
1, 141156, Note_off_c, 0, 46, 64
1, 141170, Control_c, 0, 64, 0
1, 141324, Control_c, 0, 64, 127
1, 141328, Note_off_c, 0, 55, 64
1, 141352, Note_off_c, 0, 60, 64
1, 141524, Note_on_c, 0, 56, 38
1, 141642, Note_off_c, 0, 63, 64
1, 141660, Note_on_c, 0, 62, 37
1, 141756, Note_on_c, 0, 67, 41
1, 141758, Note_off_c, 0, 48, 64
1, 141770, Note_on_c, 0, 46, 26
1, 141892, Control_c, 0, 64, 0
1, 141898, Note_on_c, 0, 65, 40
1, 141906, Note_off_c, 0, 67, 64
1, 142092, Note_off_c, 0, 62, 64
1, 142154, Control_c, 0, 64, 127
1, 142422, Note_off_c, 0, 56, 64
1, 142580, Note_on_c, 0, 63, 40
1, 142600, Note_on_c, 0, 55, 20
1, 142608, Note_on_c, 0, 39, 14
1, 142644, Control_c, 0, 64, 0
1, 142674, Note_off_c, 0, 65, 64
1, 142906, Control_c, 0, 64, 127
1, 142920, Note_off_c, 0, 46, 64
1, 142994, Note_off_c, 0, 55, 64
1, 143454, Note_on_c, 0, 58, 36
1, 143460, Note_on_c, 0, 51, 29
1, 143461, Note_on_c, 0, 55, 11
1, 143498, Note_off_c, 0, 63, 64
1, 143769, Note_off_c, 0, 55, 64
1, 143786, Note_off_c, 0, 51, 64
1, 144144, Note_on_c, 0, 44, 35
1, 144150, Note_on_c, 0, 51, 29
1, 144152, Note_on_c, 0, 60, 44
1, 144156, Note_on_c, 0, 56, 26
1, 144226, Note_off_c, 0, 58, 64
1, 144242, Control_c, 0, 64, 0
1, 144276, Note_off_c, 0, 39, 64
1, 144458, Control_c, 0, 64, 127
1, 144491, Note_off_c, 0, 56, 64
1, 144508, Note_off_c, 0, 51, 64
1, 144528, Note_off_c, 0, 60, 64
1, 144576, Note_off_c, 0, 44, 64
1, 144774, Note_on_c, 0, 60, 53
1, 144777, Note_on_c, 0, 51, 37
1, 144778, Note_on_c, 0, 56, 30
1, 144781, Note_on_c, 0, 44, 29
1, 145024, Note_off_c, 0, 51, 64
1, 145090, Note_off_c, 0, 56, 64
1, 145400, Note_off_c, 0, 44, 64
1, 145400, Note_on_c, 0, 58, 38
1, 145404, Note_on_c, 0, 55, 36
1, 145406, Note_on_c, 0, 51, 19
1, 145416, Note_on_c, 0, 39, 37
1, 145438, Note_off_c, 0, 60, 64
1, 145470, Control_c, 0, 64, 0
1, 145686, Control_c, 0, 64, 127
1, 145740, Note_off_c, 0, 55, 64
1, 145754, Note_off_c, 0, 51, 64
1, 145984, Note_off_c, 0, 39, 64
1, 146032, Note_on_c, 0, 60, 66
1, 146032, Note_on_c, 0, 56, 37
1, 146038, Note_on_c, 0, 51, 47
1, 146038, Note_on_c, 0, 44, 50
1, 146086, Note_off_c, 0, 58, 64
1, 146162, Control_c, 0, 64, 0
1, 146378, Control_c, 0, 64, 127
1, 146392, Note_off_c, 0, 51, 64
1, 146522, Note_off_c, 0, 56, 64
1, 146680, Note_on_c, 0, 63, 64
1, 146698, Note_on_c, 0, 39, 46
1, 146698, Note_on_c, 0, 55, 43
1, 146704, Note_off_c, 0, 44, 64
1, 146708, Note_on_c, 0, 58, 26
1, 146744, Note_off_c, 0, 60, 64
1, 146792, Control_c, 0, 64, 0
1, 146992, Control_c, 0, 64, 127
1, 147002, Note_off_c, 0, 58, 64
1, 147062, Note_off_c, 0, 55, 64
1, 147264, Note_off_c, 0, 39, 64
1, 147332, Note_on_c, 0, 62, 56
1, 147336, Note_on_c, 0, 46, 34
1, 147342, Note_on_c, 0, 58, 29
1, 147348, Note_on_c, 0, 53, 52
1, 147372, Note_off_c, 0, 63, 64
1, 147422, Control_c, 0, 64, 0
1, 147668, Control_c, 0, 64, 127
1, 147746, Note_off_c, 0, 58, 64
1, 147796, Note_off_c, 0, 53, 64
1, 148016, Note_on_c, 0, 63, 48
1, 148030, Note_on_c, 0, 55, 22
1, 148032, Note_on_c, 0, 58, 16
1, 148045, Note_on_c, 0, 39, 23
1, 148048, Note_off_c, 0, 46, 64
1, 148084, Control_c, 0, 64, 0
1, 148098, Note_off_c, 0, 62, 64
1, 148298, Control_c, 0, 64, 127
1, 148312, Note_off_c, 0, 55, 64
1, 148332, Note_off_c, 0, 58, 64
1, 148470, Note_off_c, 0, 63, 64
1, 148510, Note_off_c, 0, 39, 64
1, 148736, Note_on_c, 0, 58, 33
1, 148739, Note_on_c, 0, 65, 56
1, 148740, Note_on_c, 0, 62, 39
1, 148756, Note_on_c, 0, 46, 31
1, 148898, Control_c, 0, 64, 0
1, 149098, Control_c, 0, 64, 127
1, 149108, Note_off_c, 0, 62, 64
1, 149204, Note_off_c, 0, 58, 64
1, 149386, Note_on_c, 0, 67, 69
1, 149398, Note_on_c, 0, 58, 37
1, 149398, Note_on_c, 0, 63, 35
1, 149404, Note_on_c, 0, 51, 43
1, 149426, Note_off_c, 0, 46, 64
1, 149436, Note_off_c, 0, 65, 64
1, 149542, Control_c, 0, 64, 0
1, 149708, Note_off_c, 0, 63, 64
1, 149712, Control_c, 0, 64, 127
1, 149884, Note_off_c, 0, 58, 64
1, 150006, Note_on_c, 0, 68, 57
1, 150024, Note_on_c, 0, 44, 35
1, 150032, Note_on_c, 0, 63, 27
1, 150034, Note_on_c, 0, 60, 21
1, 150058, Note_off_c, 0, 67, 64
1, 150060, Note_off_c, 0, 51, 64
1, 150128, Control_c, 0, 64, 0
1, 150326, Control_c, 0, 64, 127
1, 150328, Note_off_c, 0, 60, 64
1, 150334, Note_off_c, 0, 63, 64
1, 150686, Note_off_c, 0, 44, 64
1, 150692, Note_on_c, 0, 58, 2
1, 150694, Note_on_c, 0, 67, 36
1, 150696, Note_on_c, 0, 51, 24
1, 150696, Note_on_c, 0, 63, 26
1, 150706, Note_off_c, 0, 68, 64
1, 150802, Control_c, 0, 64, 0
1, 151048, Control_c, 0, 64, 127
1, 151090, Note_off_c, 0, 63, 64
1, 151144, Note_off_c, 0, 58, 64
1, 151312, Note_off_c, 0, 51, 64
1, 151364, Note_on_c, 0, 65, 34
1, 151368, Note_on_c, 0, 58, 16
1, 151374, Note_on_c, 0, 62, 19
1, 151382, Note_on_c, 0, 46, 18
1, 151418, Note_off_c, 0, 67, 64
1, 151616, Control_c, 0, 64, 0
1, 151742, Note_off_c, 0, 62, 64
1, 151772, Control_c, 0, 64, 127
1, 151844, Note_off_c, 0, 58, 64
1, 151988, Note_off_c, 0, 65, 64
1, 152022, Note_on_c, 0, 63, 33
1, 152030, Note_off_c, 0, 46, 64
1, 152038, Note_on_c, 0, 60, 14
1, 152044, Note_on_c, 0, 55, 10
1, 152048, Note_on_c, 0, 48, 7
1, 152124, Control_c, 0, 64, 0
1, 152278, Note_off_c, 0, 55, 64
1, 152290, Note_off_c, 0, 60, 64
1, 152294, Control_c, 0, 64, 127
1, 152458, Note_off_c, 0, 63, 64
1, 152512, Note_on_c, 0, 56, 19
1, 152514, Note_off_c, 0, 48, 64
1, 152646, Note_on_c, 0, 62, 29
1, 152752, Note_on_c, 0, 67, 24
1, 152754, Note_off_c, 0, 62, 64
1, 152776, Note_on_c, 0, 46, 14
1, 152864, Note_off_c, 0, 67, 64
1, 152916, Note_on_c, 0, 65, 23
1, 152955, Control_c, 0, 64, 0
1, 153200, Control_c, 0, 64, 127
1, 153396, Note_off_c, 0, 56, 64
1, 153650, Note_on_c, 0, 63, 26
1, 153676, Note_on_c, 0, 39, 13
1, 153684, Note_off_c, 0, 65, 64
1, 153690, Note_on_c, 0, 55, 11
1, 153738, Control_c, 0, 64, 0
1, 153994, Note_off_c, 0, 46, 64
1, 153998, Control_c, 0, 64, 127
1, 154002, Note_off_c, 0, 55, 64
1, 154154, Note_off_c, 0, 63, 64
1, 154654, Note_on_c, 0, 67, 32
1, 154656, Note_on_c, 0, 63, 19
1, 154662, Note_on_c, 0, 58, 15
1, 154662, Note_on_c, 0, 51, 18
1, 154888, Note_off_c, 0, 51, 64
1, 154894, Note_off_c, 0, 63, 64
1, 155064, Note_off_c, 0, 58, 64
1, 155124, Note_off_c, 0, 67, 64
1, 155214, Note_off_c, 0, 39, 64
1, 155428, Note_on_c, 0, 67, 48
1, 155434, Note_on_c, 0, 55, 27
1, 155436, Note_on_c, 0, 46, 25
1, 155436, Note_on_c, 0, 62, 36
1, 155439, Note_on_c, 0, 34, 24
1, 155628, Control_c, 0, 64, 0
1, 155814, Note_off_c, 0, 46, 64
1, 155828, Control_c, 0, 64, 127
1, 155841, Note_off_c, 0, 34, 64
1, 155848, Note_off_c, 0, 55, 64
1, 155866, Note_off_c, 0, 62, 64
1, 155868, Note_off_c, 0, 67, 64
1, 156098, Note_on_c, 0, 67, 66
1, 156112, Note_on_c, 0, 36, 37
1, 156112, Note_on_c, 0, 48, 29
1, 156118, Note_on_c, 0, 63, 41
1, 156118, Note_on_c, 0, 60, 37
1, 156288, Control_c, 0, 64, 0
1, 156476, Note_off_c, 0, 60, 64
1, 156479, Note_off_c, 0, 36, 64
1, 156488, Control_c, 0, 64, 127
1, 156506, Note_off_c, 0, 63, 64
1, 156508, Note_off_c, 0, 48, 64
1, 156752, Note_on_c, 0, 66, 59
1, 156764, Note_on_c, 0, 57, 33
1, 156774, Note_on_c, 0, 50, 39
1, 156776, Note_on_c, 0, 62, 44
1, 156780, Note_on_c, 0, 38, 33
1, 156856, Note_off_c, 0, 67, 64
1, 156888, Control_c, 0, 64, 0
1, 157090, Note_off_c, 0, 57, 64
1, 157090, Note_off_c, 0, 50, 64
1, 157102, Control_c, 0, 64, 127
1, 157152, Note_off_c, 0, 62, 64
1, 157180, Note_off_c, 0, 38, 64
1, 157236, Note_off_c, 0, 66, 64
1, 157384, Note_on_c, 0, 65, 64
1, 157390, Note_on_c, 0, 60, 55
1, 157404, Note_on_c, 0, 45, 37
1, 157406, Note_on_c, 0, 33, 42
1, 157532, Control_c, 0, 64, 0
1, 157748, Control_c, 0, 64, 127
1, 157822, Note_off_c, 0, 45, 64
1, 157836, Note_off_c, 0, 65, 64
1, 157974, Note_off_c, 0, 33, 64
1, 158034, Note_on_c, 0, 46, 54
1, 158034, Note_on_c, 0, 62, 58
1, 158034, Note_on_c, 0, 65, 70
1, 158037, Note_on_c, 0, 34, 59
1, 158094, Note_off_c, 0, 60, 64
1, 158238, Control_c, 0, 64, 0
1, 158424, Control_c, 0, 64, 127
1, 158427, Note_off_c, 0, 62, 64
1, 158462, Note_off_c, 0, 46, 64
1, 158674, Note_off_c, 0, 34, 64
1, 158706, Note_on_c, 0, 70, 62
1, 158722, Note_on_c, 0, 58, 36
1, 158726, Note_on_c, 0, 62, 44
1, 158732, Note_on_c, 0, 43, 44
1, 158738, Note_on_c, 0, 31, 41
1, 158760, Note_off_c, 0, 65, 64
1, 158838, Control_c, 0, 64, 0
1, 159076, Note_off_c, 0, 62, 64
1, 159080, Note_off_c, 0, 31, 64
1, 159084, Control_c, 0, 64, 127
1, 159158, Note_off_c, 0, 43, 64
1, 159168, Note_off_c, 0, 58, 64
1, 159436, Note_on_c, 0, 67, 49
1, 159441, Note_on_c, 0, 64, 35
1, 159450, Note_on_c, 0, 60, 24
1, 159458, Note_on_c, 0, 48, 27
1, 159460, Note_on_c, 0, 36, 25
1, 159546, Control_c, 0, 64, 0
1, 159572, Note_off_c, 0, 70, 64
1, 159776, Control_c, 0, 64, 127
1, 159794, Note_off_c, 0, 48, 64
1, 159796, Note_off_c, 0, 64, 64
1, 159832, Note_off_c, 0, 67, 64
1, 159840, Note_off_c, 0, 36, 64
1, 159866, Note_off_c, 0, 60, 64
1, 160096, Note_on_c, 0, 68, 68
1, 160116, Note_on_c, 0, 60, 48
1, 160120, Note_on_c, 0, 65, 38
1, 160128, Note_on_c, 0, 41, 50
1, 160140, Note_on_c, 0, 29, 29
1, 160236, Control_c, 0, 64, 0
1, 160406, Note_off_c, 0, 65, 64
1, 160436, Control_c, 0, 64, 127
1, 160464, Note_off_c, 0, 29, 64
1, 160494, Note_off_c, 0, 60, 64
1, 160510, Note_off_c, 0, 41, 64
1, 160642, Note_off_c, 0, 68, 64
1, 160758, Note_on_c, 0, 70, 61
1, 160764, Note_on_c, 0, 61, 54
1, 160774, Note_on_c, 0, 65, 43
1, 160776, Note_on_c, 0, 46, 48
1, 160792, Note_on_c, 0, 34, 49
1, 160958, Control_c, 0, 64, 0
1, 161160, Control_c, 0, 64, 127
1, 161222, Note_off_c, 0, 34, 64
1, 161227, Note_off_c, 0, 61, 64
1, 161270, Note_off_c, 0, 46, 64
1, 161294, Note_off_c, 0, 65, 64
1, 161398, Note_on_c, 0, 58, 35
1, 161402, Note_on_c, 0, 48, 36
1, 161406, Note_on_c, 0, 67, 65
1, 161412, Note_on_c, 0, 64, 42
1, 161416, Note_on_c, 0, 36, 35
1, 161478, Note_off_c, 0, 70, 64
1, 161574, Control_c, 0, 64, 0
1, 161748, Note_off_c, 0, 36, 64
1, 161774, Control_c, 0, 64, 127
1, 161878, Note_off_c, 0, 48, 64
1, 161932, Note_off_c, 0, 58, 64
1, 161942, Note_off_c, 0, 64, 64
1, 162098, Note_on_c, 0, 65, 48
1, 162098, Note_on_c, 0, 53, 43
1, 162103, Note_on_c, 0, 56, 37
1, 162106, Note_on_c, 0, 41, 30
1, 162122, Note_off_c, 0, 67, 64
1, 162172, Control_c, 0, 64, 0
1, 162306, Note_off_c, 0, 53, 64
1, 162358, Control_c, 0, 64, 127
1, 162398, Note_off_c, 0, 41, 64
1, 162441, Note_off_c, 0, 56, 64
1, 162488, Note_off_c, 0, 65, 64
1, 162856, Note_on_c, 0, 68, 40
1, 162866, Note_on_c, 0, 60, 26
1, 162866, Note_on_c, 0, 65, 6
1, 162868, Note_on_c, 0, 41, 21
1, 162870, Note_on_c, 0, 29, 22
1, 162926, Control_c, 0, 64, 0
1, 163024, Note_off_c, 0, 65, 64
1, 163126, Control_c, 0, 64, 127
1, 163130, Note_off_c, 0, 29, 64
1, 163174, Note_off_c, 0, 41, 64
1, 163184, Note_off_c, 0, 60, 64
1, 163478, Note_on_c, 0, 61, 30
1, 163526, Note_on_c, 0, 46, 17
1, 163532, Note_on_c, 0, 34, 17
1, 163626, Note_on_c, 0, 65, 22
1, 163688, Note_off_c, 0, 68, 64
1, 163698, Note_on_c, 0, 72, 25
1, 163740, Control_c, 0, 64, 0
1, 163838, Note_on_c, 0, 70, 40
1, 163852, Note_off_c, 0, 72, 64
1, 164018, Control_c, 0, 64, 127
1, 164086, Note_off_c, 0, 65, 64
1, 164100, Note_off_c, 0, 34, 64
1, 164130, Note_off_c, 0, 46, 64
1, 164182, Note_off_c, 0, 61, 64
1, 164516, Note_on_c, 0, 67, 29
1, 164518, Note_on_c, 0, 64, 19
1, 164522, Note_on_c, 0, 58, 16
1, 164526, Note_on_c, 0, 36, 19
1, 164526, Note_on_c, 0, 48, 10
1, 164596, Note_off_c, 0, 70, 64
1, 164646, Control_c, 0, 64, 0
1, 164892, Control_c, 0, 64, 127
1, 164928, Note_off_c, 0, 36, 64
1, 164970, Note_off_c, 0, 64, 64
1, 165026, Note_off_c, 0, 58, 64
1, 165344, Note_on_c, 0, 56, 18
1, 165347, Note_off_c, 0, 67, 64
1, 165354, Note_on_c, 0, 65, 20
1, 165354, Note_on_c, 0, 41, 18
1, 165400, Control_c, 0, 64, 0
1, 165650, Note_off_c, 0, 48, 64
1, 165662, Control_c, 0, 64, 127
1, 165830, Note_off_c, 0, 41, 64
1, 166124, Note_on_c, 0, 63, 48
1, 166136, Note_on_c, 0, 32, 19
1, 166136, Note_on_c, 0, 44, 25
1, 166142, Note_on_c, 0, 60, 15
1, 166230, Control_c, 0, 64, 0
1, 166252, Note_off_c, 0, 65, 64
1, 166430, Control_c, 0, 64, 127
1, 166432, Note_off_c, 0, 60, 64
1, 166438, Note_off_c, 0, 44, 64
1, 166494, Note_off_c, 0, 63, 64
1, 166550, Note_off_c, 0, 32, 64
1, 166578, Note_off_c, 0, 56, 64
1, 166846, Note_on_c, 0, 63, 43
1, 166868, Note_on_c, 0, 60, 32
1, 166874, Note_on_c, 0, 27, 39
1, 166874, Note_on_c, 0, 55, 25
1, 166877, Note_on_c, 0, 39, 26
1, 167206, Note_off_c, 0, 63, 64
1, 167212, Note_off_c, 0, 27, 64
1, 167224, Note_off_c, 0, 39, 64
1, 167284, Note_off_c, 0, 55, 64
1, 167566, Note_on_c, 0, 63, 53
1, 167584, Note_on_c, 0, 58, 20
1, 167592, Note_on_c, 0, 55, 39
1, 167594, Note_on_c, 0, 43, 38
1, 167606, Note_on_c, 0, 31, 29
1, 167674, Note_off_c, 0, 60, 64
1, 167720, Control_c, 0, 64, 0
1, 167910, Note_off_c, 0, 58, 64
1, 167920, Control_c, 0, 64, 127
1, 167982, Note_off_c, 0, 31, 64
1, 167994, Note_off_c, 0, 55, 64
1, 168012, Note_off_c, 0, 43, 64
1, 168251, Note_on_c, 0, 46, 41
1, 168252, Note_on_c, 0, 58, 32
1, 168252, Note_on_c, 0, 62, 52
1, 168252, Note_on_c, 0, 53, 54
1, 168254, Note_on_c, 0, 34, 37
1, 168328, Note_off_c, 0, 63, 64
1, 168380, Control_c, 0, 64, 0
1, 168574, Note_off_c, 0, 53, 64
1, 168580, Control_c, 0, 64, 127
1, 168593, Note_off_c, 0, 46, 64
1, 168618, Note_off_c, 0, 34, 64
1, 168620, Note_off_c, 0, 62, 64
1, 168908, Note_on_c, 0, 57, 57
1, 168911, Note_on_c, 0, 62, 71
1, 168920, Note_on_c, 0, 41, 49
1, 168928, Note_on_c, 0, 29, 32
1, 168972, Note_off_c, 0, 58, 64
1, 169072, Control_c, 0, 64, 0
1, 169272, Control_c, 0, 64, 127
1, 169368, Note_off_c, 0, 29, 64
1, 169386, Note_off_c, 0, 41, 64
1, 169432, Note_off_c, 0, 62, 64
1, 169628, Note_on_c, 0, 58, 52
1, 169638, Note_on_c, 0, 62, 74
1, 169644, Note_on_c, 0, 31, 66
1, 169648, Note_on_c, 0, 43, 51
1, 169708, Note_off_c, 0, 57, 64
1, 169732, Control_c, 0, 64, 0
1, 169876, Note_off_c, 0, 43, 64
1, 169948, Control_c, 0, 64, 127
1, 170004, Note_off_c, 0, 62, 64
1, 170064, Note_off_c, 0, 31, 64
1, 170081, Note_off_c, 0, 58, 64
1, 170354, Note_on_c, 0, 67, 71
1, 170357, Note_on_c, 0, 55, 55
1, 170364, Note_on_c, 0, 62, 50
1, 170370, Note_on_c, 0, 58, 32
1, 170380, Note_on_c, 0, 40, 59
1, 170384, Note_on_c, 0, 28, 32
1, 170424, Control_c, 0, 64, 0
1, 170664, Note_off_c, 0, 62, 64
1, 170670, Control_c, 0, 64, 127
1, 170772, Note_off_c, 0, 67, 64
1, 170790, Note_off_c, 0, 28, 64
1, 170836, Note_off_c, 0, 58, 64
1, 170850, Note_off_c, 0, 55, 64
1, 170856, Note_off_c, 0, 40, 64
1, 171150, Note_on_c, 0, 61, 65
1, 171162, Note_on_c, 0, 52, 49
1, 171172, Note_on_c, 0, 45, 38
1, 171174, Note_on_c, 0, 57, 34
1, 171180, Note_on_c, 0, 33, 38
1, 171268, Control_c, 0, 64, 0
1, 171484, Control_c, 0, 64, 127
1, 171540, Note_off_c, 0, 57, 64
1, 171545, Note_off_c, 0, 52, 64
1, 171554, Note_off_c, 0, 45, 64
1, 171622, Note_off_c, 0, 33, 64
1, 171686, Note_off_c, 0, 61, 64
1, 171903, Note_on_c, 0, 57, 40
1, 171904, Note_on_c, 0, 62, 72
1, 171906, Note_on_c, 0, 54, 60
1, 171920, Note_on_c, 0, 26, 35
1, 171923, Note_on_c, 0, 38, 45
1, 172068, Control_c, 0, 64, 0
1, 172284, Control_c, 0, 64, 127
1, 172348, Note_off_c, 0, 57, 64
1, 172418, Note_off_c, 0, 38, 64
1, 172424, Note_off_c, 0, 26, 64
1, 172462, Note_off_c, 0, 54, 64
1, 172574, Note_on_c, 0, 63, 73
1, 172580, Note_on_c, 0, 36, 42
1, 172584, Note_on_c, 0, 55, 42
1, 172586, Note_on_c, 0, 24, 43
1, 172588, Note_on_c, 0, 60, 41
1, 172642, Note_off_c, 0, 62, 64
1, 172698, Control_c, 0, 64, 0
1, 172944, Control_c, 0, 64, 127
1, 172948, Note_off_c, 0, 36, 64
1, 172958, Note_off_c, 0, 24, 64
1, 172972, Note_off_c, 0, 55, 64
1, 173014, Note_off_c, 0, 60, 64
1, 173028, Note_off_c, 0, 63, 64
1, 173258, Note_on_c, 0, 63, 60
1, 173270, Note_on_c, 0, 60, 32
1, 173280, Note_on_c, 0, 36, 32
1, 173282, Note_on_c, 0, 55, 42
1, 173288, Note_on_c, 0, 24, 35
1, 173342, Control_c, 0, 64, 0
1, 173574, Control_c, 0, 64, 127
1, 173604, Note_off_c, 0, 36, 64
1, 173618, Note_off_c, 0, 24, 64
1, 173636, Note_off_c, 0, 55, 64
1, 173988, Note_off_c, 0, 60, 64
1, 174002, Note_on_c, 0, 26, 20
1, 174008, Note_on_c, 0, 38, 26
1, 174010, Note_on_c, 0, 54, 32
1, 174010, Note_on_c, 0, 62, 41
1, 174010, Note_on_c, 0, 57, 27
1, 174022, Note_off_c, 0, 63, 64
1, 174066, Control_c, 0, 64, 0
1, 174306, Note_off_c, 0, 38, 64
1, 174312, Control_c, 0, 64, 127
1, 174336, Note_off_c, 0, 26, 64
1, 174340, Note_off_c, 0, 57, 64
1, 174388, Note_off_c, 0, 54, 64
1, 174410, Note_off_c, 0, 62, 64
1, 174716, Note_on_c, 0, 62, 50
1, 174720, Note_on_c, 0, 38, 22
1, 174722, Note_on_c, 0, 57, 20
1, 174726, Note_on_c, 0, 26, 19
1, 174728, Note_on_c, 0, 54, 31
1, 174788, Control_c, 0, 64, 0
1, 175018, Control_c, 0, 64, 127
1, 175036, Note_off_c, 0, 38, 64
1, 175134, Note_off_c, 0, 57, 64
1, 175154, Note_off_c, 0, 26, 64
1, 175240, Note_off_c, 0, 54, 64
1, 175444, Note_on_c, 0, 63, 43
1, 175444, Note_on_c, 0, 36, 20
1, 175446, Note_on_c, 0, 55, 31
1, 175448, Note_on_c, 0, 24, 25
1, 175448, Note_on_c, 0, 60, 13
1, 175462, Note_off_c, 0, 62, 64
1, 175510, Control_c, 0, 64, 0
1, 175692, Note_off_c, 0, 60, 64
1, 175706, Note_off_c, 0, 24, 64
1, 175756, Control_c, 0, 64, 127
1, 175810, Note_off_c, 0, 36, 64
1, 175868, Note_off_c, 0, 55, 64
1, 176266, Note_on_c, 0, 60, 28
1, 176266, Note_on_c, 0, 56, 19
1, 176266, Note_on_c, 0, 53, 39
1, 176268, Note_on_c, 0, 29, 12
1, 176272, Note_on_c, 0, 41, 20
1, 176310, Control_c, 0, 64, 0
1, 176364, Note_off_c, 0, 63, 64
1, 176578, Note_off_c, 0, 29, 64
1, 176584, Control_c, 0, 64, 127
1, 176736, Note_off_c, 0, 53, 64
1, 176802, Note_off_c, 0, 41, 64
1, 176818, Note_off_c, 0, 56, 64
1, 177214, Note_on_c, 0, 58, 21
1, 177216, Note_on_c, 0, 46, 14
1, 177218, Note_on_c, 0, 50, 14
1, 177218, Note_on_c, 0, 34, 16
1, 177292, Control_c, 0, 64, 0
1, 177428, Note_off_c, 0, 60, 64
1, 177614, Control_c, 0, 64, 127
1, 177692, Note_off_c, 0, 50, 64
1, 177694, Note_off_c, 0, 46, 64
1, 177852, Note_off_c, 0, 34, 64
1, 177902, Note_off_c, 0, 58, 64
1, 178504, Note_on_c, 0, 58, 24
1, 178506, Note_on_c, 0, 51, 11
1, 178509, Note_on_c, 0, 55, 13
1, 178522, Note_on_c, 0, 27, 15
1, 178524, Note_on_c, 0, 39, 8
1, 178770, Note_off_c, 0, 27, 64
1, 178824, Note_off_c, 0, 51, 64
1, 178836, Note_off_c, 0, 55, 64
1, 178868, Note_off_c, 0, 39, 64
1, 179258, Note_on_c, 0, 44, 21
1, 179258, Note_on_c, 0, 32, 19
1, 179260, Note_on_c, 0, 56, 9
1, 179266, Note_on_c, 0, 60, 27
1, 179266, Note_on_c, 0, 51, 14
1, 179298, Note_off_c, 0, 58, 64
1, 179396, Control_c, 0, 64, 0
1, 179560, Note_off_c, 0, 44, 64
1, 179566, Control_c, 0, 64, 127
1, 179578, Note_off_c, 0, 32, 64
1, 179600, Note_off_c, 0, 51, 64
1, 179618, Note_off_c, 0, 60, 64
1, 179642, Note_off_c, 0, 56, 64
1, 179906, Note_on_c, 0, 60, 37
1, 179912, Note_on_c, 0, 44, 12
1, 179916, Note_on_c, 0, 56, 20
1, 179920, Note_on_c, 0, 32, 8
1, 179922, Note_on_c, 0, 51, 11
1, 180156, Note_off_c, 0, 44, 64
1, 180164, Note_off_c, 0, 51, 64
1, 180250, Note_off_c, 0, 56, 64
1, 180260, Note_off_c, 0, 32, 64
1, 180568, Note_on_c, 0, 58, 19
1, 180571, Note_on_c, 0, 51, 13
1, 180572, Note_on_c, 0, 55, 22
1, 180582, Note_on_c, 0, 39, 18
1, 180588, Note_off_c, 0, 60, 64
1, 180656, Control_c, 0, 64, 0
1, 180836, Note_off_c, 0, 55, 64
1, 180842, Control_c, 0, 64, 127
1, 180854, Note_off_c, 0, 51, 64
1, 180866, Note_off_c, 0, 39, 64
1, 180926, Note_off_c, 0, 58, 64
1, 181244, Note_on_c, 0, 60, 33
1, 181254, Note_on_c, 0, 44, 32
1, 181262, Note_on_c, 0, 51, 25
1, 181262, Note_on_c, 0, 56, 22
1, 181318, Control_c, 0, 64, 0
1, 181502, Control_c, 0, 64, 127
1, 181534, Note_off_c, 0, 51, 64
1, 181664, Note_off_c, 0, 44, 64
1, 181678, Note_off_c, 0, 56, 64
1, 181892, Note_on_c, 0, 63, 43
1, 181900, Note_on_c, 0, 51, 26
1, 181902, Note_on_c, 0, 58, 7
1, 181904, Note_on_c, 0, 55, 24
1, 181912, Note_on_c, 0, 39, 22
1, 181923, Note_off_c, 0, 60, 64
1, 181964, Control_c, 0, 64, 0
1, 182124, Note_off_c, 0, 58, 64
1, 182134, Note_off_c, 0, 51, 64
1, 182148, Control_c, 0, 64, 127
1, 182224, Note_off_c, 0, 55, 64
1, 182340, Note_off_c, 0, 39, 64
1, 182562, Note_on_c, 0, 62, 40
1, 182578, Note_on_c, 0, 58, 15
1, 182581, Note_on_c, 0, 53, 40
1, 182586, Note_off_c, 0, 63, 64
1, 182586, Note_on_c, 0, 46, 15
1, 182589, Note_on_c, 0, 34, 11
1, 182654, Control_c, 0, 64, 0
1, 182882, Note_off_c, 0, 58, 64
1, 182900, Control_c, 0, 64, 127
1, 182930, Note_off_c, 0, 46, 64
1, 183014, Note_off_c, 0, 53, 64
1, 183232, Note_on_c, 0, 63, 44
1, 183244, Note_off_c, 0, 34, 64
1, 183246, Note_on_c, 0, 55, 13
1, 183246, Note_on_c, 0, 58, 9
1, 183262, Note_on_c, 0, 39, 19
1, 183274, Note_off_c, 0, 62, 64
1, 183316, Control_c, 0, 64, 0
1, 183456, Note_off_c, 0, 55, 64
1, 183506, Note_off_c, 0, 58, 64
1, 183514, Control_c, 0, 64, 127
1, 183540, Note_off_c, 0, 39, 64
1, 183612, Note_off_c, 0, 63, 64
1, 183926, Note_on_c, 0, 65, 52
1, 183932, Note_on_c, 0, 62, 10
1, 183938, Note_on_c, 0, 58, 12
1, 183938, Note_on_c, 0, 46, 22
1, 184114, Control_c, 0, 64, 0
1, 184282, Control_c, 0, 64, 127
1, 184350, Note_off_c, 0, 58, 64
1, 184382, Note_off_c, 0, 62, 64
1, 184542, Note_off_c, 0, 46, 64
1, 184584, Note_on_c, 0, 67, 55
1, 184591, Note_on_c, 0, 63, 27
1, 184594, Note_on_c, 0, 58, 21
1, 184611, Note_on_c, 0, 51, 13
1, 184641, Note_off_c, 0, 65, 64
1, 184790, Control_c, 0, 64, 0
1, 184960, Control_c, 0, 64, 127
1, 185013, Note_off_c, 0, 63, 64
1, 185076, Note_off_c, 0, 58, 64
1, 185178, Note_off_c, 0, 51, 64
1, 185224, Note_on_c, 0, 68, 40
1, 185232, Note_on_c, 0, 60, 5
1, 185234, Note_on_c, 0, 63, 16
1, 185239, Note_on_c, 0, 44, 24
1, 185248, Note_off_c, 0, 67, 64
1, 185480, Control_c, 0, 64, 0
1, 185576, Note_off_c, 0, 60, 64
1, 185626, Note_off_c, 0, 63, 64
1, 185652, Control_c, 0, 64, 127
1, 185875, Note_off_c, 0, 44, 64
1, 185916, Note_on_c, 0, 58, 15
1, 185922, Note_on_c, 0, 67, 38
1, 185925, Note_off_c, 0, 68, 64
1, 185927, Note_on_c, 0, 51, 18
1, 185928, Note_on_c, 0, 63, 19
1, 186142, Control_c, 0, 64, 0
1, 186296, Control_c, 0, 64, 127
1, 186336, Note_off_c, 0, 63, 64
1, 186370, Note_off_c, 0, 58, 64
1, 186511, Note_off_c, 0, 51, 64
1, 186578, Note_on_c, 0, 62, 21
1, 186584, Note_on_c, 0, 46, 17
1, 186584, Note_on_c, 0, 65, 36
1, 186592, Note_on_c, 0, 58, 21
1, 186602, Note_off_c, 0, 67, 64
1, 186772, Control_c, 0, 64, 0
1, 186870, Note_off_c, 0, 62, 64
1, 186910, Control_c, 0, 64, 127
1, 187080, Note_off_c, 0, 58, 64
1, 187188, Note_off_c, 0, 65, 64
1, 187230, Note_off_c, 0, 46, 64
1, 187242, Note_on_c, 0, 63, 35
1, 187250, Note_on_c, 0, 48, 7
1, 187252, Note_on_c, 0, 55, 7
1, 187255, Note_on_c, 0, 60, 16
1, 187342, Control_c, 0, 64, 0
1, 187480, Control_c, 0, 64, 127
1, 187486, Note_off_c, 0, 55, 64
1, 187510, Note_off_c, 0, 60, 64
1, 187720, Note_off_c, 0, 63, 64
1, 187724, Note_on_c, 0, 56, 20
1, 187750, Note_off_c, 0, 48, 64
1, 187884, Note_on_c, 0, 62, 9
1, 187932, Note_on_c, 0, 46, 17
1, 187954, Note_on_c, 0, 67, 28
1, 188076, Note_off_c, 0, 67, 64
1, 188140, Note_on_c, 0, 65, 33
1, 188170, Control_c, 0, 64, 0
1, 188432, Control_c, 0, 64, 127
1, 188522, Note_off_c, 0, 62, 64
1, 188608, Note_off_c, 0, 56, 64
1, 188832, Note_on_c, 0, 63, 34
1, 188838, Note_on_c, 0, 39, 15
1, 188840, Note_off_c, 0, 65, 64
1, 188862, Note_on_c, 0, 55, 19
1, 188864, Control_c, 0, 64, 0
1, 189070, Note_off_c, 0, 46, 64
1, 189138, Control_c, 0, 64, 127
1, 189166, Note_off_c, 0, 55, 64
1, 189388, Note_off_c, 0, 63, 64
1, 189740, Note_on_c, 0, 58, 29
1, 189754, Note_on_c, 0, 55, 27
1, 189764, Note_on_c, 0, 51, 18
1, 189856, Note_off_c, 0, 51, 64
1, 189884, Note_off_c, 0, 55, 64
1, 190390, Note_off_c, 0, 39, 64
1, 190474, Note_on_c, 0, 44, 21
1, 190474, Note_on_c, 0, 51, 19
1, 190478, Note_on_c, 0, 60, 30
1, 190480, Note_on_c, 0, 56, 21
1, 190488, Note_on_c, 0, 32, 20
1, 190522, Note_off_c, 0, 58, 64
1, 190568, Control_c, 0, 64, 0
1, 190768, Control_c, 0, 64, 127
1, 190778, Note_off_c, 0, 44, 64
1, 190800, Note_off_c, 0, 32, 64
1, 190808, Note_off_c, 0, 51, 64
1, 190810, Note_off_c, 0, 56, 64
1, 190821, Note_off_c, 0, 60, 64
1, 191142, Note_on_c, 0, 60, 42
1, 191162, Note_on_c, 0, 51, 17
1, 191166, Note_on_c, 0, 56, 18
1, 191168, Note_on_c, 0, 44, 12
1, 191172, Note_on_c, 0, 32, 9
1, 191364, Note_off_c, 0, 51, 64
1, 191380, Note_off_c, 0, 44, 64
1, 191466, Note_off_c, 0, 56, 64
1, 191482, Note_off_c, 0, 32, 64
1, 191792, Note_on_c, 0, 58, 26
1, 191808, Note_on_c, 0, 39, 18
1, 191808, Note_on_c, 0, 51, 10
1, 191814, Note_off_c, 0, 60, 64
1, 191814, Note_on_c, 0, 55, 27
1, 191890, Control_c, 0, 64, 0
1, 192068, Note_off_c, 0, 55, 64
1, 192072, Note_off_c, 0, 51, 64
1, 192072, Control_c, 0, 64, 127
1, 192138, Note_off_c, 0, 39, 64
1, 192186, Note_off_c, 0, 58, 64
1, 192482, Note_on_c, 0, 44, 26
1, 192485, Note_on_c, 0, 60, 34
1, 192486, Note_on_c, 0, 51, 7
1, 192488, Note_on_c, 0, 56, 11
1, 192596, Control_c, 0, 64, 0
1, 192762, Note_off_c, 0, 51, 64
1, 192780, Control_c, 0, 64, 127
1, 192858, Note_off_c, 0, 56, 64
1, 193140, Note_off_c, 0, 44, 64
1, 193145, Note_off_c, 0, 60, 64
1, 193184, Note_on_c, 0, 63, 36
1, 193204, Note_on_c, 0, 55, 20
1, 193204, Note_on_c, 0, 39, 20
1, 193210, Note_on_c, 0, 58, 4
1, 193226, Control_c, 0, 64, 0
1, 193456, Control_c, 0, 64, 127
1, 193480, Note_off_c, 0, 58, 64
1, 193550, Note_off_c, 0, 55, 64
1, 193880, Note_off_c, 0, 39, 64
1, 193946, Note_on_c, 0, 58, 12
1, 193950, Note_on_c, 0, 62, 25
1, 193952, Note_on_c, 0, 46, 15
1, 193954, Note_on_c, 0, 53, 25
1, 194010, Control_c, 0, 64, 0
1, 194013, Note_off_c, 0, 63, 64
1, 194332, Control_c, 0, 64, 127
1, 194434, Note_off_c, 0, 53, 64
1, 194454, Note_off_c, 0, 58, 64
1, 194490, Note_off_c, 0, 46, 64
1, 194508, Note_off_c, 0, 62, 64
1, 194952, Note_on_c, 0, 63, 27
1, 194970, Note_on_c, 0, 55, 15
1, 194972, Note_on_c, 0, 58, 9
1, 194976, Note_on_c, 0, 46, 10
1, 194986, Note_on_c, 0, 39, 7
1, 195284, Control_c, 0, 64, 0
1, 195546, Control_c, 0, 64, 127
1, 195760, Note_off_c, 0, 55, 64
1, 195932, Note_off_c, 0, 58, 64
1, 195934, Note_off_c, 0, 46, 64
1, 196398, Note_off_c, 0, 63, 64
1, 196920, Note_on_c, 0, 65, 47
1, 196934, Note_on_c, 0, 58, 14
1, 196938, Note_on_c, 0, 62, 35
1, 196950, Note_on_c, 0, 46, 19
1, 197014, Note_off_c, 0, 39, 64
1, 197190, Control_c, 0, 64, 0
1, 197344, Control_c, 0, 64, 127
1, 197372, Note_off_c, 0, 58, 64
1, 197414, Note_off_c, 0, 62, 64
1, 197786, Note_off_c, 0, 46, 64
1, 197794, Note_on_c, 0, 61, 36
1, 197794, Note_on_c, 0, 67, 55
1, 197804, Note_on_c, 0, 63, 17
1, 197806, Note_off_c, 0, 65, 64
1, 197810, Note_on_c, 0, 58, 20
1, 197826, Note_on_c, 0, 51, 22
1, 197894, Note_off_c, 0, 63, 64
1, 197958, Control_c, 0, 64, 0
1, 198082, Note_off_c, 0, 58, 64
1, 198082, Control_c, 0, 64, 127
1, 198200, Note_off_c, 0, 61, 64
1, 198252, Note_on_c, 0, 60, 41
1, 198288, Note_off_c, 0, 67, 64
1, 198362, Note_on_c, 0, 63, 62
1, 198504, Note_on_c, 0, 70, 60
1, 198508, Note_on_c, 0, 44, 36
1, 198560, Note_off_c, 0, 51, 64
1, 198688, Note_on_c, 0, 68, 60
1, 198718, Note_off_c, 0, 70, 64
1, 198788, Control_c, 0, 64, 0
1, 199018, Control_c, 0, 64, 127
1, 199084, Note_off_c, 0, 63, 64
1, 199168, Note_off_c, 0, 60, 64
1, 199824, Note_off_c, 0, 44, 64
1, 199876, Note_on_c, 0, 67, 30
1, 199888, Note_on_c, 0, 48, 12
1, 199890, Note_on_c, 0, 58, 19
1, 199890, Note_on_c, 0, 64, 19
1, 200060, Note_off_c, 0, 68, 64
1, 200110, Control_c, 0, 64, 0
1, 200402, Control_c, 0, 64, 127
1, 200924, Note_off_c, 0, 64, 64
1, 201166, Note_off_c, 0, 48, 64
1, 201282, Note_off_c, 0, 58, 64
1, 201692, Note_on_c, 0, 48, 14
1, 201696, Note_on_c, 0, 65, 33
1, 201702, Note_on_c, 0, 60, 13
1, 201704, Note_on_c, 0, 56, 17
1, 201714, Note_on_c, 0, 41, 17
1, 201772, Note_off_c, 0, 67, 64
1, 201860, Control_c, 0, 64, 0
1, 202076, Note_off_c, 0, 60, 64
1, 202116, Note_off_c, 0, 48, 64
1, 202122, Control_c, 0, 64, 127
1, 202284, Note_off_c, 0, 41, 64
1, 202306, Note_off_c, 0, 56, 64
1, 202470, Note_off_c, 0, 65, 64
1, 202470, Note_on_c, 0, 63, 36
1, 202488, Note_on_c, 0, 48, 21
1, 202490, Note_on_c, 0, 60, 19
1, 202494, Note_on_c, 0, 55, 20
1, 202494, Note_on_c, 0, 36, 20
1, 202582, Control_c, 0, 64, 0
1, 202798, Control_c, 0, 64, 127
1, 202820, Note_off_c, 0, 60, 64
1, 202882, Note_off_c, 0, 55, 64
1, 202912, Note_off_c, 0, 48, 64
1, 203176, Note_on_c, 0, 56, 34
1, 203294, Note_on_c, 0, 41, 23
1, 203312, Note_on_c, 0, 48, 13
1, 203350, Note_off_c, 0, 36, 64
1, 203368, Note_on_c, 0, 60, 28
1, 203382, Note_off_c, 0, 63, 64
1, 203510, Note_on_c, 0, 67, 37
1, 203535, Control_c, 0, 64, 0
1, 203692, Note_off_c, 0, 67, 64
1, 203710, Note_on_c, 0, 65, 35
1, 204056, Note_off_c, 0, 60, 64
1, 204059, Control_c, 0, 64, 127
1, 204204, Note_off_c, 0, 48, 64
1, 204346, Note_off_c, 0, 56, 64
1, 204792, Note_off_c, 0, 41, 64
1, 205116, Note_on_c, 0, 63, 22
1, 205163, Note_on_c, 0, 55, 6
1, 205184, Note_on_c, 0, 48, 5
1, 205188, Note_on_c, 0, 60, 14
1, 205208, Note_on_c, 0, 36, 12
1, 205314, Note_off_c, 0, 65, 64
1, 205410, Control_c, 0, 64, 0
1, 205840, Control_c, 0, 64, 127
1, 206066, Note_off_c, 0, 48, 64
1, 206068, Note_off_c, 0, 55, 64
1, 206492, Note_off_c, 0, 60, 64
1, 206604, Note_off_c, 0, 36, 64
1, 207828, Note_on_c, 0, 30, 26
1, 207984, Note_off_c, 0, 63, 64
1, 208168, Note_on_c, 0, 42, 37
1, 208508, Note_on_c, 0, 50, 41
1, 208824, Note_on_c, 0, 57, 37
1, 209496, Note_on_c, 0, 62, 46
1, 209836, Control_c, 0, 64, 0
1, 210190, Control_c, 0, 64, 127
1, 211118, Note_off_c, 0, 50, 64
1, 211314, Note_off_c, 0, 57, 64
1, 211582, Note_off_c, 0, 62, 64
1, 212392, Note_on_c, 0, 74, 41
1, 212980, Note_off_c, 0, 74, 64
1, 213154, Note_on_c, 0, 74, 65
1, 213940, Note_off_c, 0, 74, 64
1, 214006, Note_on_c, 0, 74, 84
1, 214386, Note_off_c, 0, 74, 64
1, 214434, Note_off_c, 0, 30, 64
1, 214450, Note_on_c, 0, 74, 88
1, 214574, Note_off_c, 0, 42, 64
1, 214814, Note_off_c, 0, 74, 64
1, 214998, Note_on_c, 0, 74, 77
1, 215046, Note_on_c, 0, 43, 32
1, 215050, Note_on_c, 0, 31, 22
1, 215090, Control_c, 0, 64, 0
1, 215320, Control_c, 0, 64, 127
1, 215330, Note_off_c, 0, 31, 64
1, 215420, Note_off_c, 0, 43, 64
1, 215788, Note_on_c, 0, 72, 74
1, 215830, Note_on_c, 0, 62, 39
1, 215852, Note_on_c, 0, 50, 24
1, 215962, Note_off_c, 0, 74, 64
1, 216164, Note_on_c, 0, 70, 61
1, 216206, Note_off_c, 0, 50, 64
1, 216224, Note_off_c, 0, 72, 64
1, 216262, Note_off_c, 0, 62, 64
1, 216318, Note_on_c, 0, 69, 58
1, 216320, Note_off_c, 0, 70, 64
1, 216390, Note_on_c, 0, 70, 54
1, 216392, Note_off_c, 0, 69, 64
1, 216492, Note_off_c, 0, 70, 64
1, 216492, Note_on_c, 0, 72, 60
1, 216526, Note_on_c, 0, 63, 31
1, 216548, Note_on_c, 0, 54, 25
1, 216553, Note_on_c, 0, 70, 65
1, 216576, Note_on_c, 0, 60, 32
1, 216614, Note_off_c, 0, 72, 64
1, 216628, Control_c, 0, 64, 0
1, 216858, Control_c, 0, 64, 127
1, 217010, Note_on_c, 0, 69, 42
1, 217076, Note_off_c, 0, 70, 64
1, 217130, Note_off_c, 0, 63, 64
1, 217358, Note_on_c, 0, 62, 34
1, 217366, Note_on_c, 0, 50, 23
1, 217534, Control_c, 0, 64, 0
1, 217702, Note_off_c, 0, 60, 64
1, 217702, Control_c, 0, 64, 127
1, 217784, Note_off_c, 0, 54, 64
1, 217790, Note_off_c, 0, 62, 64
1, 217820, Note_off_c, 0, 50, 64
1, 217850, Note_off_c, 0, 69, 64
1, 218038, Note_on_c, 0, 63, 59
1, 218070, Note_on_c, 0, 58, 30
1, 218094, Note_on_c, 0, 55, 33
1, 218374, Note_on_c, 0, 70, 74
1, 218394, Control_c, 0, 64, 0
1, 218562, Control_c, 0, 64, 127
1, 218642, Note_off_c, 0, 63, 64
1, 218702, Note_off_c, 0, 70, 64
1, 218816, Note_on_c, 0, 70, 36
1, 218862, Note_on_c, 0, 62, 42
1, 218890, Note_on_c, 0, 50, 26
1, 218992, Control_c, 0, 64, 0
1, 219156, Note_on_c, 0, 69, 44
1, 219162, Control_c, 0, 64, 127
1, 219186, Note_off_c, 0, 55, 64
1, 219230, Note_off_c, 0, 70, 64
1, 219242, Note_off_c, 0, 50, 64
1, 219288, Note_off_c, 0, 58, 64
1, 219334, Note_off_c, 0, 69, 64
1, 219348, Note_off_c, 0, 62, 64
1, 219380, Note_on_c, 0, 67, 60
1, 219580, Note_on_c, 0, 63, 47
1, 219598, Note_on_c, 0, 60, 27
1, 219600, Note_on_c, 0, 57, 16
1, 219654, Note_on_c, 0, 66, 47
1, 219684, Control_c, 0, 64, 0
1, 219726, Note_off_c, 0, 67, 64
1, 219946, Control_c, 0, 64, 127
1, 220018, Note_off_c, 0, 57, 64
1, 220040, Note_off_c, 0, 60, 64
1, 220096, Note_off_c, 0, 63, 64
1, 220410, Note_on_c, 0, 62, 29
1, 220436, Note_on_c, 0, 50, 22
1, 220652, Control_c, 0, 64, 0
1, 220816, Note_off_c, 0, 62, 64
1, 220852, Control_c, 0, 64, 127
1, 220872, Note_off_c, 0, 50, 64
1, 221142, Note_off_c, 0, 66, 64
1, 221232, Note_on_c, 0, 67, 58
1, 221282, Note_on_c, 0, 43, 21
1, 221328, Control_c, 0, 64, 0
1, 221498, Control_c, 0, 64, 127
1, 221566, Note_off_c, 0, 43, 64
1, 221944, Note_on_c, 0, 69, 56
1, 221956, Note_on_c, 0, 62, 23
1, 221966, Note_on_c, 0, 55, 20
1, 221970, Note_on_c, 0, 58, 15
1, 222056, Note_off_c, 0, 67, 64
1, 222094, Note_off_c, 0, 62, 64
1, 222128, Note_off_c, 0, 55, 64
1, 222161, Note_off_c, 0, 58, 64
1, 222284, Note_on_c, 0, 70, 75
1, 222420, Note_off_c, 0, 69, 64
1, 222632, Note_on_c, 0, 72, 79
1, 222644, Note_on_c, 0, 36, 42
1, 222680, Control_c, 0, 64, 0
1, 222686, Note_off_c, 0, 70, 64
1, 222912, Control_c, 0, 64, 127
1, 222978, Note_off_c, 0, 36, 64
1, 223344, Note_on_c, 0, 74, 79
1, 223362, Note_on_c, 0, 67, 30
1, 223365, Note_on_c, 0, 63, 31
1, 223378, Note_on_c, 0, 60, 25
1, 223378, Note_on_c, 0, 55, 16
1, 223496, Note_off_c, 0, 72, 64
1, 223548, Note_off_c, 0, 67, 64
1, 223644, Note_off_c, 0, 63, 64
1, 223656, Note_off_c, 0, 55, 64
1, 223658, Note_off_c, 0, 60, 64
1, 223690, Note_on_c, 0, 75, 78
1, 223768, Note_off_c, 0, 74, 64
1, 224044, Note_on_c, 0, 41, 46
1, 224082, Note_on_c, 0, 69, 57
1, 224126, Control_c, 0, 64, 0
1, 224156, Note_off_c, 0, 75, 64
1, 224356, Control_c, 0, 64, 127
1, 224406, Note_off_c, 0, 41, 64
1, 224756, Note_on_c, 0, 67, 67
1, 224770, Note_on_c, 0, 63, 41
1, 225340, Note_off_c, 0, 67, 64
1, 225454, Note_on_c, 0, 65, 60
1, 225472, Note_on_c, 0, 62, 41
1, 225486, Note_off_c, 0, 63, 64
1, 225734, Control_c, 0, 64, 0
1, 225876, Control_c, 0, 64, 127
1, 225964, Note_on_c, 0, 79, 80
1, 226000, Note_off_c, 0, 69, 64
1, 226106, Note_off_c, 0, 79, 64
1, 226206, Note_off_c, 0, 62, 64
1, 226206, Note_on_c, 0, 79, 62
1, 226232, Note_off_c, 0, 65, 64
1, 226264, Note_on_c, 0, 63, 31
1, 226290, Note_on_c, 0, 60, 16
1, 226368, Control_c, 0, 64, 0
1, 226506, Control_c, 0, 64, 127
1, 226586, Note_on_c, 0, 77, 68
1, 226634, Note_off_c, 0, 63, 64
1, 226644, Note_off_c, 0, 60, 64
1, 226654, Note_off_c, 0, 79, 64
1, 226870, Note_on_c, 0, 75, 78
1, 226896, Note_off_c, 0, 77, 64
1, 226974, Note_off_c, 0, 75, 64
1, 227104, Note_on_c, 0, 46, 25
1, 227104, Note_on_c, 0, 34, 25
1, 227132, Note_on_c, 0, 74, 71
1, 227198, Control_c, 0, 64, 0
1, 227366, Control_c, 0, 64, 127
1, 227396, Note_off_c, 0, 34, 64
1, 227466, Note_off_c, 0, 46, 64
1, 227538, Note_on_c, 0, 62, 65
1, 227548, Note_off_c, 0, 74, 64
1, 227588, Note_off_c, 0, 62, 64
1, 227686, Note_on_c, 0, 62, 50
1, 227784, Note_on_c, 0, 65, 58
1, 227826, Note_off_c, 0, 62, 64
1, 227840, Note_on_c, 0, 70, 52
1, 227876, Note_off_c, 0, 65, 64
1, 227942, Note_on_c, 0, 74, 84
1, 227952, Note_on_c, 0, 53, 81
1, 228042, Note_off_c, 0, 70, 64
1, 228322, Note_on_c, 0, 72, 80
1, 228388, Note_off_c, 0, 74, 64
1, 228398, Note_off_c, 0, 53, 64
1, 228514, Note_off_c, 0, 72, 64
1, 228552, Note_on_c, 0, 70, 73
1, 228592, Note_off_c, 0, 70, 64
1, 228728, Note_on_c, 0, 60, 72
1, 228806, Note_on_c, 0, 62, 64
1, 228886, Note_on_c, 0, 66, 53
1, 228962, Note_on_c, 0, 38, 41
1, 229046, Note_on_c, 0, 70, 69
1, 229088, Control_c, 0, 64, 0
1, 229348, Control_c, 0, 64, 127
1, 229510, Note_off_c, 0, 70, 64
1, 229556, Note_on_c, 0, 69, 51
1, 229856, Control_c, 0, 64, 0
1, 229944, Note_on_c, 0, 50, 58
1, 230030, Note_off_c, 0, 62, 64
1, 230030, Note_off_c, 0, 38, 64
1, 230102, Control_c, 0, 64, 127
1, 230150, Note_off_c, 0, 60, 64
1, 230260, Note_off_c, 0, 69, 64
1, 230304, Note_off_c, 0, 66, 64
1, 230390, Note_on_c, 0, 58, 46
1, 230496, Note_on_c, 0, 62, 59
1, 230562, Control_c, 0, 64, 0
1, 230564, Note_on_c, 0, 67, 66
1, 230606, Note_on_c, 0, 43, 50
1, 230678, Note_on_c, 0, 70, 77
1, 230742, Note_off_c, 0, 58, 64
1, 230778, Control_c, 0, 64, 127
1, 230798, Note_off_c, 0, 62, 64
1, 230880, Note_off_c, 0, 67, 64
1, 230892, Note_off_c, 0, 43, 64
1, 230916, Note_off_c, 0, 50, 64
1, 230940, Note_off_c, 0, 70, 64
1, 231130, Note_on_c, 0, 70, 69
1, 231204, Note_off_c, 0, 70, 64
1, 231302, Note_on_c, 0, 70, 60
1, 231372, Note_on_c, 0, 72, 66
1, 231388, Note_off_c, 0, 70, 64
1, 231428, Note_on_c, 0, 62, 42
1, 231428, Note_on_c, 0, 70, 59
1, 231446, Note_on_c, 0, 50, 28
1, 231494, Note_off_c, 0, 72, 64
1, 231676, Note_off_c, 0, 50, 64
1, 231724, Note_on_c, 0, 69, 72
1, 231806, Note_off_c, 0, 70, 64
1, 231842, Note_off_c, 0, 62, 64
1, 231956, Note_on_c, 0, 67, 74
1, 231972, Note_off_c, 0, 69, 64
1, 232219, Note_on_c, 0, 63, 49
1, 232220, Note_on_c, 0, 66, 60
1, 232223, Note_on_c, 0, 57, 27
1, 232226, Note_on_c, 0, 60, 32
1, 232252, Control_c, 0, 64, 0
1, 232264, Note_off_c, 0, 67, 64
1, 232514, Control_c, 0, 64, 127
1, 232703, Note_off_c, 0, 57, 64
1, 232733, Note_off_c, 0, 60, 64
1, 232811, Note_off_c, 0, 63, 64
1, 233006, Note_on_c, 0, 62, 36
1, 233020, Note_on_c, 0, 50, 30
1, 233030, Note_off_c, 0, 66, 64
1, 233164, Note_off_c, 0, 50, 64
1, 233250, Note_off_c, 0, 62, 64
1, 233758, Note_on_c, 0, 67, 56
1, 233770, Note_on_c, 0, 63, 33
1, 233772, Note_on_c, 0, 58, 17
1, 233786, Note_on_c, 0, 51, 21
1, 233958, Control_c, 0, 64, 0
1, 234142, Control_c, 0, 64, 127
1, 234266, Note_off_c, 0, 58, 64
1, 234432, Note_off_c, 0, 63, 64
1, 234528, Note_on_c, 0, 46, 24
1, 234531, Note_on_c, 0, 69, 55
1, 234534, Note_off_c, 0, 51, 64
1, 234536, Note_on_c, 0, 62, 39
1, 234546, Note_on_c, 0, 55, 27
1, 234634, Note_off_c, 0, 67, 64
1, 234772, Control_c, 0, 64, 0
1, 234926, Control_c, 0, 64, 127
1, 235018, Note_on_c, 0, 70, 48
1, 235026, Note_off_c, 0, 55, 64
1, 235066, Note_off_c, 0, 62, 64
1, 235086, Note_off_c, 0, 69, 64
1, 235194, Note_off_c, 0, 46, 64
1, 235216, Note_on_c, 0, 72, 57
1, 235236, Note_on_c, 0, 60, 20
1, 235239, Note_on_c, 0, 67, 31
1, 235242, Note_on_c, 0, 45, 13
1, 235248, Note_on_c, 0, 57, 9
1, 235264, Note_off_c, 0, 70, 64
1, 235270, Note_on_c, 0, 51, 13
1, 235332, Note_off_c, 0, 67, 64
1, 235434, Control_c, 0, 64, 0
1, 235496, Note_on_c, 0, 67, 13
1, 235648, Control_c, 0, 64, 127
1, 235708, Note_off_c, 0, 67, 64
1, 235954, Note_on_c, 0, 74, 48
1, 235972, Note_off_c, 0, 51, 64
1, 235972, Note_on_c, 0, 50, 23
1, 235975, Note_on_c, 0, 66, 18
1, 236094, Note_off_c, 0, 72, 64
1, 236110, Control_c, 0, 64, 0
1, 236286, Note_off_c, 0, 45, 64
1, 236340, Control_c, 0, 64, 127
1, 236398, Note_off_c, 0, 74, 64
1, 236542, Note_off_c, 0, 57, 64
1, 236616, Note_off_c, 0, 66, 64
1, 236794, Note_on_c, 0, 67, 42
1, 236822, Note_on_c, 0, 43, 20
1, 236894, Control_c, 0, 64, 0
1, 237138, Control_c, 0, 64, 127
1, 237212, Note_off_c, 0, 50, 64
1, 237214, Note_off_c, 0, 43, 64
1, 237266, Note_off_c, 0, 60, 64
1, 237638, Note_on_c, 0, 62, 16
1, 237640, Note_on_c, 0, 58, 16
1, 237646, Note_on_c, 0, 55, 12
1, 237838, Note_off_c, 0, 67, 64
1, 237866, Note_off_c, 0, 62, 64
1, 237924, Note_off_c, 0, 55, 64
1, 238046, Note_off_c, 0, 58, 64
1, 238050, Note_on_c, 0, 67, 38
1, 238194, Note_off_c, 0, 67, 64
1, 238516, Note_on_c, 0, 67, 24
1, 238520, Note_on_c, 0, 41, 22
1, 238654, Note_off_c, 0, 67, 64
1, 238660, Control_c, 0, 64, 0
1, 238714, Note_on_c, 0, 69, 19
1, 238844, Control_c, 0, 64, 127
1, 238846, Note_on_c, 0, 70, 33
1, 238860, Note_off_c, 0, 69, 64
1, 238922, Note_off_c, 0, 41, 64
1, 238984, Note_off_c, 0, 70, 64
1, 238986, Note_on_c, 0, 69, 16
1, 239086, Note_on_c, 0, 70, 41
1, 239102, Note_off_c, 0, 69, 64
1, 239168, Note_off_c, 0, 70, 64
1, 239176, Note_on_c, 0, 69, 41
1, 239260, Note_off_c, 0, 69, 64
1, 239272, Note_on_c, 0, 70, 39
1, 239330, Note_on_c, 0, 69, 50
1, 239332, Note_off_c, 0, 70, 64
1, 239414, Note_off_c, 0, 69, 64
1, 239436, Note_on_c, 0, 70, 34
1, 239500, Note_on_c, 0, 69, 34
1, 239506, Note_off_c, 0, 70, 64
1, 239532, Note_on_c, 0, 65, 14
1, 239548, Note_on_c, 0, 63, 53
1, 239554, Note_on_c, 0, 60, 25
1, 239566, Note_on_c, 0, 53, 24
1, 239616, Note_off_c, 0, 69, 64
1, 239626, Note_on_c, 0, 70, 36
1, 239660, Control_c, 0, 64, 0
1, 239708, Note_off_c, 0, 70, 64
1, 239708, Note_on_c, 0, 69, 36
1, 239784, Note_off_c, 0, 69, 64
1, 239786, Note_on_c, 0, 70, 40
1, 239842, Control_c, 0, 64, 127
1, 239862, Note_off_c, 0, 70, 64
1, 239864, Note_on_c, 0, 69, 39
1, 239934, Control_c, 0, 64, 0
1, 239936, Note_off_c, 0, 69, 64
1, 239942, Note_on_c, 0, 70, 41
1, 240018, Note_on_c, 0, 69, 31
1, 240028, Note_off_c, 0, 70, 64
1, 240094, Note_off_c, 0, 69, 64
1, 240104, Control_c, 0, 64, 127
1, 240106, Note_on_c, 0, 70, 44
1, 240194, Note_off_c, 0, 63, 64
1, 240204, Note_on_c, 0, 69, 22
1, 240236, Note_off_c, 0, 70, 64
1, 240306, Note_off_c, 0, 69, 64
1, 240346, Note_on_c, 0, 67, 45
1, 240434, Note_off_c, 0, 67, 64
1, 240532, Note_on_c, 0, 69, 48
1, 240742, Note_off_c, 0, 60, 64
1, 240788, Note_off_c, 0, 65, 64
1, 240842, Note_on_c, 0, 58, 23
1, 240846, Note_on_c, 0, 70, 37
1, 240848, Note_on_c, 0, 62, 25
1, 240874, Note_off_c, 0, 69, 64
1, 240950, Control_c, 0, 64, 0
1, 241128, Note_off_c, 0, 53, 64
1, 241240, Control_c, 0, 64, 127
1, 241732, Note_on_c, 0, 65, 16
1, 241738, Note_on_c, 0, 71, 48
1, 241760, Note_on_c, 0, 53, 36
1, 241822, Note_off_c, 0, 70, 64
1, 241918, Control_c, 0, 64, 0
1, 241994, Note_off_c, 0, 62, 64
1, 242070, Control_c, 0, 64, 127
1, 242168, Note_off_c, 0, 58, 64
1, 242290, Note_off_c, 0, 71, 64
1, 242434, Note_on_c, 0, 63, 48
1, 242458, Note_on_c, 0, 57, 24
1, 242461, Note_off_c, 0, 65, 64
1, 242724, Note_off_c, 0, 53, 64
1, 242772, Note_on_c, 0, 72, 69
1, 243086, Control_c, 0, 64, 0
1, 243102, Note_on_c, 0, 65, 43
1, 243120, Note_on_c, 0, 53, 54
1, 243284, Control_c, 0, 64, 127
1, 243344, Note_off_c, 0, 57, 64
1, 243390, Note_on_c, 0, 73, 75
1, 243448, Note_off_c, 0, 72, 64
1, 243450, Note_off_c, 0, 63, 64
1, 243744, Note_on_c, 0, 58, 19
1, 243774, Note_off_c, 0, 73, 64
1, 243774, Note_on_c, 0, 74, 69
1, 243786, Note_on_c, 0, 62, 29
1, 243792, Control_c, 0, 64, 0
1, 243942, Note_off_c, 0, 65, 64
1, 243944, Control_c, 0, 64, 127
1, 243947, Note_off_c, 0, 74, 64
1, 244004, Note_on_c, 0, 74, 91
1, 244032, Note_off_c, 0, 53, 64
1, 244108, Note_off_c, 0, 74, 64
1, 244120, Note_on_c, 0, 75, 69
1, 244210, Note_on_c, 0, 74, 66
1, 244258, Note_off_c, 0, 75, 64
1, 244314, Note_off_c, 0, 74, 64
1, 244317, Note_on_c, 0, 73, 68
1, 244388, Note_off_c, 0, 73, 64
1, 244416, Note_on_c, 0, 74, 65
1, 244460, Note_off_c, 0, 74, 64
1, 244544, Note_on_c, 0, 74, 66
1, 244698, Note_on_c, 0, 65, 21
1, 244720, Note_on_c, 0, 53, 42
1, 244806, Control_c, 0, 64, 0
1, 244834, Note_on_c, 0, 79, 82
1, 244878, Note_off_c, 0, 74, 64
1, 245052, Control_c, 0, 64, 127
1, 245148, Note_off_c, 0, 62, 64
1, 245232, Note_off_c, 0, 58, 64
1, 245526, Note_on_c, 0, 77, 61
1, 245558, Note_off_c, 0, 65, 64
1, 245576, Note_off_c, 0, 79, 64
1, 245620, Note_off_c, 0, 77, 64
1, 245704, Note_on_c, 0, 77, 50
1, 245722, Note_on_c, 0, 63, 34
1, 245758, Note_on_c, 0, 57, 24
1, 245896, Control_c, 0, 64, 0
1, 246096, Control_c, 0, 64, 127
1, 246142, Note_on_c, 0, 72, 58
1, 246156, Note_off_c, 0, 53, 64
1, 246162, Note_off_c, 0, 77, 64
1, 246178, Note_off_c, 0, 57, 64
1, 246490, Note_on_c, 0, 65, 46
1, 246544, Note_on_c, 0, 53, 31
1, 246812, Note_on_c, 0, 73, 75
1, 246856, Note_off_c, 0, 63, 64
1, 246922, Note_off_c, 0, 72, 64
1, 247162, Note_on_c, 0, 74, 85
1, 247168, Note_on_c, 0, 58, 21
1, 247190, Note_on_c, 0, 62, 30
1, 247220, Note_off_c, 0, 53, 64
1, 247266, Note_off_c, 0, 73, 64
1, 247686, Note_off_c, 0, 65, 64
1, 247800, Note_on_c, 0, 75, 73
1, 247818, Note_on_c, 0, 67, 63
1, 247998, Note_off_c, 0, 74, 64
1, 248064, Control_c, 0, 64, 0
1, 248218, Control_c, 0, 64, 127
1, 248456, Note_off_c, 0, 58, 64
1, 248490, Note_off_c, 0, 62, 64
1, 248493, Note_on_c, 0, 61, 40
1, 248506, Note_off_c, 0, 75, 64
1, 248514, Note_on_c, 0, 57, 42
1, 248800, Note_off_c, 0, 67, 64
1, 249136, Note_on_c, 0, 76, 73
1, 249186, Note_on_c, 0, 67, 35
1, 249324, Control_c, 0, 64, 0
1, 249492, Control_c, 0, 64, 127
1, 249542, Note_off_c, 0, 61, 64
1, 249634, Note_off_c, 0, 67, 64
1, 249798, Note_on_c, 0, 65, 20
1, 249808, Note_on_c, 0, 62, 23
1, 249876, Control_c, 0, 64, 0
1, 249890, Note_on_c, 0, 77, 49
1, 249914, Note_off_c, 0, 76, 64
1, 250030, Control_c, 0, 64, 127
1, 250042, Note_off_c, 0, 77, 64
1, 250100, Note_on_c, 0, 77, 81
1, 250146, Note_off_c, 0, 57, 64
1, 250210, Note_on_c, 0, 79, 86
1, 250218, Note_off_c, 0, 77, 64
1, 250312, Note_on_c, 0, 77, 63
1, 250338, Note_off_c, 0, 79, 64
1, 250418, Note_on_c, 0, 76, 66
1, 250424, Note_off_c, 0, 77, 64
1, 250480, Note_off_c, 0, 76, 64
1, 250510, Note_on_c, 0, 77, 56
1, 250550, Note_off_c, 0, 77, 64
1, 250602, Note_on_c, 0, 77, 87
1, 250752, Note_on_c, 0, 69, 25
1, 250790, Note_on_c, 0, 57, 15
1, 250926, Note_on_c, 0, 82, 64
1, 250936, Control_c, 0, 64, 0
1, 250956, Note_off_c, 0, 77, 64
1, 251228, Control_c, 0, 64, 127
1, 251316, Note_off_c, 0, 62, 64
1, 251328, Note_off_c, 0, 65, 64
1, 251402, Note_off_c, 0, 69, 64
1, 251564, Note_on_c, 0, 81, 66
1, 251650, Note_off_c, 0, 82, 64
1, 251694, Note_off_c, 0, 81, 64
1, 251750, Note_on_c, 0, 61, 19
1, 251774, Note_on_c, 0, 81, 38
1, 251774, Note_on_c, 0, 67, 20
1, 251890, Control_c, 0, 64, 0
1, 252088, Control_c, 0, 64, 127
1, 252180, Note_off_c, 0, 81, 64
1, 252188, Note_on_c, 0, 75, 55
1, 252226, Note_off_c, 0, 57, 64
1, 252252, Note_off_c, 0, 67, 64
1, 252548, Note_on_c, 0, 69, 26
1, 252594, Note_on_c, 0, 57, 18
1, 252626, Control_c, 0, 64, 0
1, 252796, Control_c, 0, 64, 127
1, 253002, Note_off_c, 0, 69, 64
1, 253042, Note_on_c, 0, 76, 51
1, 253088, Note_off_c, 0, 57, 64
1, 253128, Note_off_c, 0, 61, 64
1, 253160, Note_off_c, 0, 75, 64
1, 253430, Note_off_c, 0, 76, 64
1, 253574, Note_on_c, 0, 77, 68
1, 253596, Note_on_c, 0, 50, 26
1, 253718, Control_c, 0, 64, 0
1, 253902, Control_c, 0, 64, 127
1, 253952, Note_off_c, 0, 50, 64
1, 254298, Note_on_c, 0, 79, 84
1, 254304, Note_on_c, 0, 65, 31
1, 254318, Note_on_c, 0, 62, 11
1, 254326, Note_on_c, 0, 57, 11
1, 254436, Note_off_c, 0, 77, 64
1, 254618, Note_off_c, 0, 62, 64
1, 254684, Note_off_c, 0, 65, 64
1, 254694, Note_off_c, 0, 57, 64
1, 254836, Note_on_c, 0, 77, 70
1, 254914, Note_off_c, 0, 79, 64
1, 255024, Note_on_c, 0, 75, 75
1, 255044, Note_on_c, 0, 51, 38
1, 255052, Note_off_c, 0, 77, 64
1, 255070, Control_c, 0, 64, 0
1, 255286, Control_c, 0, 64, 127
1, 255414, Note_off_c, 0, 51, 64
1, 255804, Note_on_c, 0, 70, 53
1, 255806, Note_on_c, 0, 58, 30
1, 255818, Note_on_c, 0, 55, 22
1, 255822, Note_on_c, 0, 67, 30
1, 255906, Note_off_c, 0, 75, 64
1, 256110, Note_off_c, 0, 67, 64
1, 256282, Note_off_c, 0, 55, 64
1, 256384, Note_off_c, 0, 58, 64
1, 256392, Note_on_c, 0, 72, 57
1, 256486, Note_off_c, 0, 70, 64
1, 256642, Note_on_c, 0, 74, 56
1, 256645, Note_on_c, 0, 46, 23
1, 256652, Control_c, 0, 64, 0
1, 256658, Note_off_c, 0, 72, 64
1, 256852, Control_c, 0, 64, 127
1, 256934, Note_off_c, 0, 74, 64
1, 256984, Note_off_c, 0, 46, 64
1, 257086, Note_on_c, 0, 74, 52
1, 257132, Note_off_c, 0, 74, 64
1, 257212, Note_on_c, 0, 74, 44
1, 257316, Note_off_c, 0, 74, 64
1, 257322, Note_on_c, 0, 58, 13
1, 257324, Note_on_c, 0, 62, 23
1, 257325, Note_on_c, 0, 77, 45
1, 257332, Note_on_c, 0, 53, 29
1, 257406, Note_off_c, 0, 77, 64
1, 257470, Note_on_c, 0, 75, 50
1, 257674, Note_off_c, 0, 75, 64
1, 257943, Note_off_c, 0, 53, 64
1, 257954, Note_off_c, 0, 62, 64
1, 257972, Note_off_c, 0, 58, 64
1, 258132, Note_on_c, 0, 74, 50
1, 258336, Note_off_c, 0, 74, 64
1, 258354, Note_on_c, 0, 72, 48
1, 258366, Note_on_c, 0, 48, 25
1, 258450, Control_c, 0, 64, 0
1, 258666, Control_c, 0, 64, 127
1, 258768, Note_off_c, 0, 48, 64
1, 259174, Note_on_c, 0, 67, 53
1, 259186, Note_on_c, 0, 55, 23
1, 259188, Note_on_c, 0, 63, 26
1, 259190, Note_on_c, 0, 51, 19
1, 259274, Note_off_c, 0, 72, 64
1, 259406, Note_off_c, 0, 63, 64
1, 259418, Note_off_c, 0, 55, 64
1, 259564, Note_off_c, 0, 51, 64
1, 259742, Note_on_c, 0, 69, 51
1, 259796, Note_off_c, 0, 67, 64
1, 259924, Note_on_c, 0, 70, 59
1, 259968, Note_on_c, 0, 43, 34
1, 259970, Control_c, 0, 64, 0
1, 259996, Note_off_c, 0, 69, 64
1, 260202, Control_c, 0, 64, 127
1, 260292, Note_off_c, 0, 43, 64
1, 260688, Note_on_c, 0, 69, 65
1, 260704, Note_on_c, 0, 58, 26
1, 260712, Note_on_c, 0, 55, 2
1, 260714, Note_on_c, 0, 62, 35
1, 260768, Note_off_c, 0, 70, 64
1, 260910, Note_off_c, 0, 62, 64
1, 260922, Note_off_c, 0, 55, 64
1, 260992, Note_off_c, 0, 58, 64
1, 261260, Note_on_c, 0, 70, 60
1, 261422, Note_off_c, 0, 69, 64
1, 261506, Note_on_c, 0, 39, 35
1, 261568, Control_c, 0, 64, 0
1, 261576, Note_on_c, 0, 72, 48
1, 261588, Note_off_c, 0, 70, 64
1, 261770, Control_c, 0, 64, 127
1, 261814, Note_off_c, 0, 39, 64
1, 261862, Note_off_c, 0, 72, 64
1, 262022, Note_on_c, 0, 72, 48
1, 262076, Note_off_c, 0, 72, 64
1, 262090, Note_on_c, 0, 74, 62
1, 262160, Note_on_c, 0, 72, 51
1, 262218, Note_off_c, 0, 74, 64
1, 262294, Note_on_c, 0, 67, 38
1, 262296, Note_off_c, 0, 72, 64
1, 262302, Note_on_c, 0, 71, 89
1, 262308, Note_on_c, 0, 60, 27
1, 262308, Note_on_c, 0, 55, 32
1, 262498, Note_off_c, 0, 67, 64
1, 262574, Note_on_c, 0, 72, 80
1, 262592, Note_off_c, 0, 55, 64
1, 262620, Note_off_c, 0, 71, 64
1, 262620, Note_off_c, 0, 60, 64
1, 262810, Note_on_c, 0, 74, 83
1, 262846, Note_off_c, 0, 72, 64
1, 262964, Note_off_c, 0, 74, 64
1, 263004, Note_on_c, 0, 77, 61
1, 263070, Note_on_c, 0, 75, 77
1, 263120, Note_off_c, 0, 77, 64
1, 263182, Note_off_c, 0, 75, 64
1, 263212, Note_on_c, 0, 38, 48
1, 263242, Note_on_c, 0, 74, 75
1, 263260, Control_c, 0, 64, 0
1, 263460, Control_c, 0, 64, 127
1, 263534, Note_off_c, 0, 38, 64
1, 263662, Note_on_c, 0, 62, 74
1, 264058, Note_on_c, 0, 66, 57
1, 264068, Note_on_c, 0, 57, 54
1, 264218, Note_off_c, 0, 74, 64
1, 264448, Note_on_c, 0, 74, 81
1, 264762, Note_off_c, 0, 66, 64
1, 264838, Note_on_c, 0, 67, 65
1, 264846, Note_on_c, 0, 58, 39
1, 264880, Note_off_c, 0, 57, 64
1, 265222, Note_off_c, 0, 74, 64
1, 265296, Note_on_c, 0, 74, 68
1, 265456, Control_c, 0, 64, 0
1, 265542, Note_off_c, 0, 67, 64
1, 265564, Control_c, 0, 64, 127
1, 265646, Note_off_c, 0, 74, 64
1, 265662, Note_on_c, 0, 59, 25
1, 265744, Note_off_c, 0, 58, 64
1, 265834, Note_on_c, 0, 68, 31
1, 265836, Note_on_c, 0, 74, 51
1, 265932, Control_c, 0, 64, 0
1, 266086, Control_c, 0, 64, 127
1, 266104, Note_off_c, 0, 59, 64
1, 266130, Note_off_c, 0, 74, 64
1, 266280, Note_on_c, 0, 74, 39
1, 266286, Note_off_c, 0, 68, 64
1, 266406, Note_on_c, 0, 69, 30
1, 266428, Note_on_c, 0, 60, 30
1, 266440, Control_c, 0, 64, 0
1, 266576, Note_off_c, 0, 74, 64
1, 266576, Control_c, 0, 64, 127
1, 266636, Note_off_c, 0, 69, 64
1, 266702, Note_on_c, 0, 74, 24
1, 266736, Note_off_c, 0, 60, 64
1, 266904, Note_off_c, 0, 74, 64
1, 267328, Note_on_c, 0, 74, 44
1, 267376, Note_on_c, 0, 31, 22
1, 267424, Control_c, 0, 64, 0
1, 267500, Note_off_c, 0, 62, 64
1, 267638, Control_c, 0, 64, 127
1, 267694, Note_off_c, 0, 31, 64
1, 268310, Note_on_c, 0, 72, 41
1, 268352, Note_on_c, 0, 62, 20
1, 268364, Note_on_c, 0, 50, 15
1, 268472, Note_off_c, 0, 74, 64
1, 268730, Note_on_c, 0, 70, 35
1, 268738, Note_off_c, 0, 50, 64
1, 268776, Note_off_c, 0, 72, 64
1, 268782, Note_off_c, 0, 62, 64
1, 268874, Note_off_c, 0, 70, 64
1, 268877, Note_on_c, 0, 69, 37
1, 268968, Note_off_c, 0, 69, 64
1, 268984, Note_on_c, 0, 70, 35
1, 269060, Note_off_c, 0, 70, 64
1, 269086, Note_on_c, 0, 72, 48
1, 269194, Note_on_c, 0, 54, 24
1, 269206, Note_on_c, 0, 63, 21
1, 269212, Note_on_c, 0, 70, 40
1, 269212, Note_on_c, 0, 60, 22
1, 269236, Note_off_c, 0, 72, 64
1, 269328, Control_c, 0, 64, 0
1, 269528, Control_c, 0, 64, 127
1, 269598, Note_off_c, 0, 60, 64
1, 269662, Note_off_c, 0, 70, 64
1, 269714, Note_off_c, 0, 63, 64
1, 269724, Note_on_c, 0, 69, 20
1, 270008, Note_on_c, 0, 62, 28
1, 270024, Note_on_c, 0, 50, 21
1, 270066, Control_c, 0, 64, 0
1, 270234, Control_c, 0, 64, 127
1, 270296, Note_off_c, 0, 50, 64
1, 270326, Note_off_c, 0, 54, 64
1, 270344, Note_off_c, 0, 62, 64
1, 270374, Note_off_c, 0, 69, 64
1, 270748, Note_on_c, 0, 63, 35
1, 270762, Note_on_c, 0, 58, 17
1, 270788, Note_on_c, 0, 55, 23
1, 271044, Note_on_c, 0, 70, 50
1, 271047, Control_c, 0, 64, 0
1, 271218, Control_c, 0, 64, 127
1, 271274, Note_off_c, 0, 70, 64
1, 271279, Note_off_c, 0, 63, 64
1, 271420, Note_on_c, 0, 70, 50
1, 271474, Note_off_c, 0, 70, 64
1, 271494, Note_on_c, 0, 72, 48
1, 271540, Note_on_c, 0, 70, 45
1, 271574, Note_off_c, 0, 72, 64
1, 271594, Note_on_c, 0, 62, 19
1, 271606, Note_on_c, 0, 50, 15
1, 271618, Control_c, 0, 64, 0
1, 271802, Control_c, 0, 64, 127
1, 271822, Note_off_c, 0, 55, 64
1, 271842, Note_off_c, 0, 50, 64
1, 271868, Note_on_c, 0, 69, 44
1, 271894, Note_off_c, 0, 70, 64
1, 271922, Note_off_c, 0, 58, 64
1, 271972, Note_off_c, 0, 62, 64
1, 272032, Note_off_c, 0, 69, 64
1, 272128, Note_on_c, 0, 67, 45
1, 272344, Note_on_c, 0, 63, 26
1, 272372, Note_on_c, 0, 60, 22
1, 272388, Note_on_c, 0, 57, 15
1, 272440, Note_on_c, 0, 66, 37
1, 272454, Note_off_c, 0, 67, 64
1, 272524, Control_c, 0, 64, 0
1, 272740, Control_c, 0, 64, 127
1, 272804, Note_off_c, 0, 60, 64
1, 272814, Note_off_c, 0, 57, 64
1, 272874, Note_off_c, 0, 63, 64
1, 273268, Note_on_c, 0, 62, 18
1, 273282, Note_on_c, 0, 50, 14
1, 273416, Control_c, 0, 64, 0
1, 273554, Control_c, 0, 64, 127
1, 273582, Note_off_c, 0, 62, 64
1, 273656, Note_off_c, 0, 66, 64
1, 273662, Note_off_c, 0, 50, 64
1, 274114, Note_on_c, 0, 67, 38
1, 274144, Note_on_c, 0, 43, 20
1, 274260, Control_c, 0, 64, 0
1, 274414, Control_c, 0, 64, 127
1, 274440, Note_off_c, 0, 43, 64
1, 274882, Note_on_c, 0, 69, 36
1, 274890, Note_on_c, 0, 58, 18
1, 274892, Note_on_c, 0, 62, 25
1, 274893, Note_on_c, 0, 55, 20
1, 274966, Note_off_c, 0, 67, 64
1, 274999, Note_off_c, 0, 55, 64
1, 275074, Note_off_c, 0, 62, 64
1, 275135, Note_off_c, 0, 58, 64
1, 275250, Note_on_c, 0, 70, 54
1, 275380, Note_off_c, 0, 69, 64
1, 275614, Control_c, 0, 64, 0
1, 275632, Note_on_c, 0, 72, 52
1, 275640, Note_off_c, 0, 70, 64
1, 275644, Note_on_c, 0, 36, 39
1, 275782, Control_c, 0, 64, 127
1, 275854, Note_off_c, 0, 36, 64
1, 275868, Note_off_c, 0, 72, 64
1, 275934, Note_on_c, 0, 72, 61
1, 275998, Note_off_c, 0, 72, 64
1, 276082, Note_on_c, 0, 72, 57
1, 276196, Note_off_c, 0, 72, 64
1, 276200, Note_on_c, 0, 74, 70
1, 276296, Note_on_c, 0, 72, 54
1, 276328, Note_off_c, 0, 74, 64
1, 276422, Note_on_c, 0, 71, 76
1, 276426, Note_off_c, 0, 72, 64
1, 276558, Note_off_c, 0, 71, 64
1, 276572, Note_on_c, 0, 72, 77
1, 276628, Note_on_c, 0, 63, 28
1, 276635, Note_on_c, 0, 55, 16
1, 276638, Note_on_c, 0, 60, 20
1, 276640, Note_on_c, 0, 67, 19
1, 276782, Control_c, 0, 64, 0
1, 276802, Note_off_c, 0, 72, 64
1, 276812, Note_on_c, 0, 74, 74
1, 276966, Control_c, 0, 64, 127
1, 277026, Note_off_c, 0, 67, 64
1, 277041, Note_off_c, 0, 55, 64
1, 277080, Note_off_c, 0, 74, 64
1, 277093, Note_off_c, 0, 60, 64
1, 277112, Note_off_c, 0, 63, 64
1, 277388, Note_on_c, 0, 75, 65
1, 277516, Note_off_c, 0, 75, 64
1, 277596, Note_on_c, 0, 75, 52
1, 277666, Note_on_c, 0, 41, 34
1, 277872, Control_c, 0, 64, 0
1, 278034, Note_on_c, 0, 69, 43
1, 278084, Note_off_c, 0, 75, 64
1, 278132, Control_c, 0, 64, 127
1, 278134, Note_off_c, 0, 41, 64
1, 278370, Note_off_c, 0, 69, 64
1, 278484, Note_on_c, 0, 67, 30
1, 278492, Note_on_c, 0, 63, 36
1, 279134, Note_on_c, 0, 81, 48
1, 279294, Note_off_c, 0, 63, 64
1, 279344, Note_off_c, 0, 67, 64
1, 279582, Note_on_c, 0, 65, 32
1, 279590, Note_on_c, 0, 62, 29
1, 279746, Control_c, 0, 64, 0
1, 279764, Note_on_c, 0, 80, 52
1, 279820, Note_off_c, 0, 81, 64
1, 279924, Note_on_c, 0, 79, 61
1, 279929, Control_c, 0, 64, 127
1, 279950, Note_off_c, 0, 80, 64
1, 280012, Note_off_c, 0, 79, 64
1, 280040, Note_on_c, 0, 78, 58
1, 280122, Note_off_c, 0, 78, 64
1, 280158, Note_on_c, 0, 77, 55
1, 280208, Note_off_c, 0, 77, 64
1, 280210, Note_off_c, 0, 65, 64
1, 280230, Note_on_c, 0, 76, 62
1, 280254, Note_off_c, 0, 62, 64
1, 280346, Note_on_c, 0, 75, 56
1, 280358, Note_off_c, 0, 76, 64
1, 280394, Note_on_c, 0, 60, 22
1, 280394, Note_on_c, 0, 63, 37
1, 280466, Note_on_c, 0, 72, 52
1, 280482, Note_off_c, 0, 75, 64
1, 280522, Note_off_c, 0, 72, 64
1, 280570, Note_on_c, 0, 69, 47
1, 280636, Note_off_c, 0, 69, 64
1, 280638, Note_off_c, 0, 63, 64
1, 280674, Note_on_c, 0, 66, 51
1, 280710, Note_off_c, 0, 60, 64
1, 280790, Note_on_c, 0, 64, 51
1, 280802, Note_off_c, 0, 66, 64
1, 280862, Note_off_c, 0, 64, 64
1, 280900, Note_on_c, 0, 65, 53
1, 280968, Note_off_c, 0, 65, 64
1, 281026, Note_on_c, 0, 67, 51
1, 281126, Note_off_c, 0, 67, 64
1, 281145, Note_on_c, 0, 69, 51
1, 281270, Note_on_c, 0, 70, 29
1, 281272, Note_off_c, 0, 69, 64
1, 281408, Note_on_c, 0, 72, 46
1, 281420, Note_off_c, 0, 70, 64
1, 281568, Note_on_c, 0, 34, 22
1, 281572, Note_on_c, 0, 46, 19
1, 281728, Control_c, 0, 64, 0
1, 281774, Note_off_c, 0, 72, 64
1, 281806, Note_on_c, 0, 74, 25
1, 282066, Control_c, 0, 64, 127
1, 282116, Note_off_c, 0, 74, 64
1, 282148, Note_off_c, 0, 34, 64
1, 282240, Note_off_c, 0, 46, 64
1, 282360, Note_on_c, 0, 61, 31
1, 282488, Note_off_c, 0, 61, 64
1, 282550, Note_on_c, 0, 62, 28
1, 282662, Note_on_c, 0, 65, 27
1, 282748, Note_on_c, 0, 70, 50
1, 282888, Note_off_c, 0, 62, 64
1, 282924, Note_off_c, 0, 65, 64
1, 282940, Note_on_c, 0, 53, 46
1, 283018, Note_on_c, 0, 74, 63
1, 283124, Note_off_c, 0, 70, 64
1, 283434, Note_on_c, 0, 72, 57
1, 283502, Note_off_c, 0, 74, 64
1, 283538, Note_off_c, 0, 53, 64
1, 283604, Note_off_c, 0, 72, 64
1, 283700, Note_on_c, 0, 70, 58
1, 283746, Note_off_c, 0, 70, 64
1, 283914, Note_on_c, 0, 60, 51
1, 283974, Note_on_c, 0, 62, 43
1, 284002, Note_off_c, 0, 60, 64
1, 284076, Note_on_c, 0, 66, 44
1, 284126, Note_on_c, 0, 60, 2
1, 284158, Note_on_c, 0, 38, 26
1, 284290, Note_on_c, 0, 70, 51
1, 284508, Control_c, 0, 64, 0
1, 284724, Control_c, 0, 64, 127
1, 284854, Note_off_c, 0, 70, 64
1, 284870, Note_on_c, 0, 69, 29
1, 284940, Control_c, 0, 64, 0
1, 285170, Control_c, 0, 64, 127
1, 285320, Note_off_c, 0, 62, 64
1, 285408, Note_on_c, 0, 50, 50
1, 285412, Note_off_c, 0, 60, 64
1, 285550, Note_off_c, 0, 38, 64
1, 285616, Note_off_c, 0, 66, 64
1, 285902, Note_off_c, 0, 69, 64
1, 285962, Note_on_c, 0, 58, 36
1, 286076, Note_on_c, 0, 62, 57
1, 286184, Note_on_c, 0, 67, 47
1, 286310, Note_on_c, 0, 70, 69
1, 286322, Control_c, 0, 64, 0
1, 286340, Note_on_c, 0, 43, 27
1, 286568, Control_c, 0, 64, 127
1, 286654, Note_off_c, 0, 58, 64
1, 286657, Note_off_c, 0, 62, 64
1, 286657, Note_off_c, 0, 43, 64
1, 286672, Note_off_c, 0, 50, 64
1, 286710, Note_off_c, 0, 67, 64
1, 287080, Note_on_c, 0, 69, 57
1, 287118, Note_on_c, 0, 50, 29
1, 287122, Note_on_c, 0, 62, 30
1, 287314, Note_off_c, 0, 70, 64
1, 287398, Control_c, 0, 64, 0
1, 287506, Control_c, 0, 64, 127
1, 287572, Note_off_c, 0, 50, 64
1, 287690, Note_off_c, 0, 62, 64
1, 287760, Note_on_c, 0, 67, 44
1, 287908, Note_off_c, 0, 69, 64
1, 287948, Note_on_c, 0, 66, 40
1, 287956, Note_on_c, 0, 57, 16
1, 287960, Note_on_c, 0, 63, 32
1, 287960, Note_on_c, 0, 60, 19
1, 288028, Control_c, 0, 64, 0
1, 288044, Note_off_c, 0, 67, 64
1, 288274, Control_c, 0, 64, 127
1, 288406, Note_off_c, 0, 60, 64
1, 288416, Note_off_c, 0, 57, 64
1, 288502, Note_off_c, 0, 63, 64
1, 288842, Note_on_c, 0, 62, 19
1, 288864, Note_on_c, 0, 50, 18
1, 289028, Control_c, 0, 64, 0
1, 289212, Control_c, 0, 64, 127
1, 289298, Note_off_c, 0, 62, 64
1, 289538, Note_off_c, 0, 50, 64
1, 289568, Note_off_c, 0, 66, 64
1, 289720, Note_on_c, 0, 67, 53
1, 289728, Note_on_c, 0, 63, 34
1, 289728, Note_on_c, 0, 58, 20
1, 289734, Note_on_c, 0, 51, 27
1, 289948, Control_c, 0, 64, 0
1, 290164, Control_c, 0, 64, 127
1, 290274, Note_off_c, 0, 58, 64
1, 290564, Note_off_c, 0, 63, 64
1, 290668, Note_on_c, 0, 69, 41
1, 290692, Note_on_c, 0, 62, 27
1, 290704, Note_on_c, 0, 46, 21
1, 290704, Note_on_c, 0, 55, 30
1, 290756, Note_off_c, 0, 51, 64
1, 290840, Control_c, 0, 64, 0
1, 290992, Control_c, 0, 64, 127
1, 291157, Note_off_c, 0, 67, 64
1, 291176, Note_off_c, 0, 55, 64
1, 291218, Note_on_c, 0, 70, 54
1, 291247, Note_off_c, 0, 69, 64
1, 291268, Note_off_c, 0, 62, 64
1, 291470, Note_on_c, 0, 72, 51
1, 291496, Note_on_c, 0, 67, 25
1, 291502, Note_on_c, 0, 60, 25
1, 291504, Note_on_c, 0, 45, 17
1, 291510, Note_on_c, 0, 57, 6
1, 291521, Note_off_c, 0, 70, 64
1, 291526, Note_off_c, 0, 46, 64
1, 291529, Note_on_c, 0, 51, 14
1, 291608, Control_c, 0, 64, 0
1, 291870, Control_c, 0, 64, 127
1, 291962, Note_off_c, 0, 67, 64
1, 292472, Note_on_c, 0, 74, 45
1, 292474, Note_off_c, 0, 51, 64
1, 292498, Note_on_c, 0, 66, 20
1, 292512, Note_on_c, 0, 50, 19
1, 292546, Control_c, 0, 64, 0
1, 292618, Note_off_c, 0, 72, 64
1, 292834, Note_off_c, 0, 45, 64
1, 292868, Control_c, 0, 64, 127
1, 292988, Note_off_c, 0, 74, 64
1, 293024, Note_off_c, 0, 60, 64
1, 293180, Note_off_c, 0, 66, 64
1, 293220, Note_off_c, 0, 57, 64
1, 293732, Note_off_c, 0, 50, 64
1, 293740, Note_on_c, 0, 67, 44
1, 293746, Note_on_c, 0, 43, 20
1, 294704, Note_on_c, 0, 65, 30
1, 294708, Note_on_c, 0, 55, 17
1, 294710, Note_on_c, 0, 59, 17
1, 294834, Control_c, 0, 64, 0
1, 295126, Control_c, 0, 64, 127
1, 295450, Note_off_c, 0, 59, 64
1, 295830, Note_on_c, 0, 64, 21
1, 295842, Note_on_c, 0, 60, 22
1, 295854, Note_on_c, 0, 48, 14
1, 295968, Note_off_c, 0, 65, 64
1, 295972, Control_c, 0, 64, 0
1, 296052, Note_off_c, 0, 43, 64
1, 296278, Control_c, 0, 64, 127
1, 296390, Note_off_c, 0, 60, 64
1, 296418, Note_off_c, 0, 55, 64
1, 296476, Note_off_c, 0, 67, 64
1, 296486, Note_off_c, 0, 64, 64
1, 297263, Note_on_c, 0, 63, 17
1, 297264, Note_on_c, 0, 72, 20
1, 297264, Note_on_c, 0, 67, 4
1, 297264, Note_on_c, 0, 55, 17
1, 297492, Control_c, 0, 64, 0
1, 297738, Control_c, 0, 64, 127
1, 297950, Note_off_c, 0, 55, 64
1, 298300, Note_off_c, 0, 48, 64
1, 299292, Note_on_c, 0, 71, 23
1, 299374, Note_off_c, 0, 67, 64
1, 299404, Note_off_c, 0, 72, 64
1, 299599, Note_off_c, 0, 63, 64
1, 299624, Note_on_c, 0, 31, 30
1, 299674, Note_off_c, 0, 71, 64
1, 300384, Note_on_c, 0, 71, 25
1, 300389, Note_on_c, 0, 67, 12
1, 300396, Note_on_c, 0, 62, 5
1, 300412, Note_on_c, 0, 43, 20
1, 300596, Control_c, 0, 64, 0
1, 300740, Note_off_c, 0, 31, 64
1, 300750, Control_c, 0, 64, 127
1, 301300, Note_on_c, 0, 50, 21
1, 301492, Note_off_c, 0, 43, 64
1, 301884, Note_on_c, 0, 55, 31
1, 301922, Note_off_c, 0, 50, 64
1, 302330, Note_off_c, 0, 55, 64
1, 302341, Note_off_c, 0, 67, 64
1, 302350, Note_off_c, 0, 62, 64
1, 302382, Note_on_c, 0, 59, 23
1, 302876, Note_on_c, 0, 62, 22
1, 303030, Note_off_c, 0, 71, 64
1, 303278, Note_off_c, 0, 62, 64
1, 303432, Note_on_c, 0, 71, 23
1, 303708, Note_off_c, 0, 71, 64
1, 304100, Note_on_c, 0, 71, 34
1, 304552, Note_off_c, 0, 71, 64
1, 304602, Note_on_c, 0, 74, 23
1, 305062, Note_off_c, 0, 74, 64
1, 305264, Note_on_c, 0, 83, 43
1, 305434, Note_off_c, 0, 83, 64
1, 307070, Note_on_c, 0, 83, 36
1, 310676, Note_off_c, 0, 59, 64
1, 311158, Note_off_c, 0, 83, 64
1, 312960, Control_c, 0, 64, 0
1, 312960, End_track
0, 0, End_of_file
