0, 0, Header, 1, 3, 48
1, 0, Start_track
1, 0, Time_signature, 4, 2, 24, 8
1, 0, Key_signature, -3, "major"
1, 0, Tempo, 500000
1, 0, Marker_t, "Chopin  Nocturne in Cmin Op.48. No.1."
1, 192, Tempo, 1395349
1, 240, Tempo, 1333333
1, 336, Tempo, 1395349
1, 378, Tempo, 1818182
1, 384, Tempo, 1714286
1, 408, Tempo, 1153846
1, 432, Tempo, 1538462
1, 456, Tempo, 1071429
1, 480, Tempo, 1621622
1, 492, Tempo, 1538462
1, 504, Tempo, 1071429
1, 516, Tempo, 1000000
1, 540, Tempo, 983607
1, 552, Tempo, 1000000
1, 564, Tempo, 1714286
1, 576, Tempo, 1200000
1, 624, Tempo, 1304348
1, 660, Tempo, 895522
1, 672, Tempo, 1200000
1, 720, Tempo, 1395349
1, 756, Tempo, 1071429
1, 768, Tempo, 1153846
1, 816, Tempo, 1333333
1, 825, Tempo, 1000000
1, 828, Tempo, 923077
1, 840, Tempo, 1071429
1, 864, Tempo, 1200000
1, 888, Tempo, 1333333
1, 912, Tempo, 1463415
1, 960, Tempo, 1304348
1, 1056, Tempo, 1250000
1, 1104, Tempo, 1333333
1, 1152, Tempo, 1395349
1, 1176, Tempo, 1200000
1, 1200, Tempo, 1333333
1, 1224, Tempo, 1250000
1, 1236, Tempo, 1333333
1, 1248, Tempo, 1621622
1, 1260, Tempo, 1395349
1, 1272, Tempo, 1153846
1, 1308, Tempo, 1034483
1, 1332, Tempo, 1395349
1, 1344, Tempo, 1304348
1, 1368, Tempo, 1250000
1, 1392, Tempo, 1071429
1, 1404, Tempo, 1200000
1, 1416, Tempo, 1111111
1, 1428, Tempo, 1538462
1, 1440, Tempo, 1304348
1, 1488, Tempo, 1538462
1, 1524, Tempo, 1034483
1, 1536, Tempo, 1304348
1, 1614, Tempo, 1538462
1, 1620, Tempo, 1395349
1, 1626, Tempo, 1463415
1, 1632, Tempo, 1304348
1, 1680, Tempo, 1463415
1, 1728, Tempo, 1250000
1, 1824, Tempo, 1200000
1, 1848, Tempo, 1111111
1, 1872, Tempo, 1153846
1, 1896, Tempo, 1333333
1, 1920, Tempo, 1250000
1, 1968, Tempo, 1071429
1, 1977, Tempo, 3750000
1, 1980, Tempo, 2000000
1, 1983, Tempo, 4000000
1, 1986, Tempo, 1818182
1, 1992, Tempo, 1111111
1, 1998, Tempo, 1250000
1, 2004, Tempo, 1395349
1, 2008, Tempo, 1153846
1, 2012, Tempo, 1200000
1, 2100, Tempo, 1250000
1, 2160, Tempo, 1153846
1, 2208, Tempo, 1818182
1, 2220, Tempo, 1111111
1, 2232, Tempo, 1034483
1, 2244, Tempo, 983607
1, 2256, Tempo, 1000000
1, 2268, Tempo, 1071429
1, 2280, Tempo, 1200000
1, 2292, Tempo, 1304348
1, 2304, Tempo, 1250000
1, 2352, Tempo, 1538462
1, 2360, Tempo, 1621622
1, 2368, Tempo, 1304348
1, 2376, Tempo, 1111111
1, 2384, Tempo, 952381
1, 2392, Tempo, 1111111
1, 2400, Tempo, 1200000
1, 2484, Tempo, 1034483
1, 2496, Tempo, 1111111
1, 2544, Tempo, 1200000
1, 2592, Tempo, 1111111
1, 2616, Tempo, 1071429
1, 2640, Tempo, 1153846
1, 2664, Tempo, 1250000
1, 2688, Tempo, 1153846
1, 2736, Tempo, 1200000
1, 2808, Tempo, 1111111
1, 2832, Tempo, 1200000
1, 2856, Tempo, 1250000
1, 2868, Tempo, 2142857
1, 2880, Tempo, 1463415
1, 2904, Tempo, 1153846
1, 2928, Tempo, 1463415
1, 2952, Tempo, 1071429
1, 2976, Tempo, 983607
1, 3000, Tempo, 1200000
1, 3009, Tempo, 3000000
1, 3012, Tempo, 2000000
1, 3015, Tempo, 1714286
1, 3021, Tempo, 2500000
1, 3024, Tempo, 1395349
1, 3048, Tempo, 1200000
1, 3120, Tempo, 1250000
1, 3144, Tempo, 1153846
1, 3156, Tempo, 1250000
1, 3168, Tempo, 1200000
1, 3216, Tempo, 1304348
1, 3252, Tempo, 1463415
1, 3264, Tempo, 1304348
1, 3312, Tempo, 1200000
1, 3408, Tempo, 1304348
1, 3456, Tempo, 1463415
1, 3480, Tempo, 1071429
1, 3504, Tempo, 1463415
1, 3528, Tempo, 1071429
1, 3552, Tempo, 1621622
1, 3564, Tempo, 1200000
1, 3576, Tempo, 1111111
1, 3582, Tempo, 1333333
1, 3585, Tempo, 1200000
1, 3588, Tempo, 1111111
1, 3600, Tempo, 1200000
1, 3612, Tempo, 1000000
1, 3624, Tempo, 983607
1, 3636, Tempo, 2000000
1, 3643, Tempo, 1714286
1, 3648, Tempo, 1153846
1, 3696, Tempo, 1200000
1, 3744, Tempo, 1153846
1, 3792, Tempo, 1200000
1, 3840, Tempo, 1111111
1, 3888, Tempo, 1304348
1, 3912, Tempo, 1153846
1, 3936, Tempo, 1621622
1, 3948, Tempo, 1250000
1, 3960, Tempo, 1111111
1, 3972, Tempo, 1034483
1, 3984, Tempo, 1111111
1, 3996, Tempo, 1000000
1, 4008, Tempo, 983607
1, 4020, Tempo, 1395349
1, 4032, Tempo, 1304348
1, 4080, Tempo, 1250000
1, 4128, Tempo, 1714286
1, 4140, Tempo, 1395349
1, 4152, Tempo, 1034483
1, 4164, Tempo, 1000000
1, 4200, Tempo, 1034483
1, 4212, Tempo, 1153846
1, 4224, Tempo, 1071429
1, 4236, Tempo, 1250000
1, 4245, Tempo, 952381
1, 4248, Tempo, 983607
1, 4260, Tempo, 1000000
1, 4296, Tempo, 1071429
1, 4308, Tempo, 1111111
1, 4332, Tempo, 1000000
1, 4344, Tempo, 983607
1, 4356, Tempo, 1071429
1, 4368, Tempo, 1250000
1, 4380, Tempo, 1034483
1, 4392, Tempo, 1111111
1, 4404, Tempo, 1395349
1, 4416, Tempo, 1200000
1, 4464, Tempo, 1714286
1, 4488, Tempo, 1034483
1, 4496, Tempo, 952381
1, 4512, Tempo, 1304348
1, 4560, Tempo, 1538462
1, 4584, Tempo, 1304348
1, 4592, Tempo, 1200000
1, 4600, Tempo, 1395349
1, 4608, Tempo, 1304348
1, 4704, Tempo, 1463415
1, 4752, Tempo, 2000000
1, 4800, Key_signature, 0, "major"
1, 4800, Tempo, 1463415
1, 4896, Tempo, 1250000
1, 4980, Tempo, 1333333
1, 4992, Tempo, 1304348
1, 5040, Tempo, 1153846
1, 5088, Tempo, 1200000
1, 5136, Tempo, 1463415
1, 5184, Tempo, 1395349
1, 5280, Tempo, 1250000
1, 5328, Tempo, 1304348
1, 5364, Tempo, 1463415
1, 5376, Tempo, 1538462
1, 5472, Tempo, 1395349
1, 5520, Tempo, 1818182
1, 5556, Tempo, 2000000
1, 5560, Tempo, 1621622
1, 5564, Tempo, 3333333
1, 5568, Tempo, 1395349
1, 5664, Tempo, 1200000
1, 5736, Tempo, 1463415
1, 5746, Tempo, 2000000
1, 5748, Tempo, 1621622
1, 5750, Tempo, 1463415
1, 5756, Tempo, 1621622
1, 5758, Tempo, 2000000
1, 5760, Tempo, 1111111
1, 5808, Tempo, 1153846
1, 5856, Tempo, 1111111
1, 5895, Tempo, 1818182
1, 5898, Tempo, 1333333
1, 5901, Tempo, 1818182
1, 5904, Tempo, 1463415
1, 5932, Tempo, 5454545
1, 5934, Tempo, 3333333
1, 5936, Tempo, 2307692
1, 5938, Tempo, 2142857
1, 5940, Tempo, 2000000
1, 5942, Tempo, 2142857
1, 5944, Tempo, 2307692
1, 5946, Tempo, 2500000
1, 5948, Tempo, 4000000
1, 5950, Tempo, 6000000
1, 5952, Tempo, 1333333
1, 6048, Tempo, 1200000
1, 6096, Tempo, 1304348
1, 6120, Tempo, 1463415
1, 6132, Tempo, 2000000
1, 6136, Tempo, 3333333
1, 6138, Tempo, 1818182
1, 6140, Tempo, 1935484
1, 6142, Tempo, 3333333
1, 6144, Tempo, 1153846
1, 6192, Tempo, 1463415
1, 6228, Tempo, 5454545
1, 6230, Tempo, 3333333
1, 6232, Tempo, 2727273
1, 6236, Tempo, 3000000
1, 6238, Tempo, 6000000
1, 6240, Tempo, 1463415
1, 6336, Tempo, 1200000
1, 6432, Tempo, 1071429
1, 6480, Tempo, 1153846
1, 6528, Tempo, 1071429
1, 6576, Tempo, 1000000
1, 6612, Tempo, 1071429
1, 6624, Tempo, 1034483
1, 6672, Tempo, 1250000
1, 6714, Tempo, 2000000
1, 6717, Tempo, 3333333
1, 6720, Tempo, 1200000
1, 6816, Tempo, 1071429
1, 6864, Tempo, 1333333
1, 6906, Tempo, 4000000
1, 6908, Tempo, 2727273
1, 6910, Tempo, 6000000
1, 7008, Tempo, 1395349
1, 7056, Tempo, 1621622
1, 7072, Tempo, 3333333
1, 7088, Tempo, 5454545
1, 7092, Tempo, 2727273
1, 7096, Tempo, 1621622
1, 7100, Tempo, 4000000
1, 7104, Tempo, 1111111
1, 7194, Tempo, 2727273
1, 7197, Tempo, 3333333
1, 7200, Tempo, 983607
1, 7242, Tempo, 2142857
1, 7245, Tempo, 2500000
1, 7248, Tempo, 923077
1, 7266, Tempo, 1621622
1, 7269, Tempo, 1818182
1, 7272, Tempo, 1250000
1, 7296, Tempo, 1200000
1, 7344, Tempo, 1071429
1, 7392, Tempo, 1111111
1, 7440, Tempo, 1395349
1, 7488, Tempo, 1818182
1, 7520, Tempo, 1333333
1, 7528, Tempo, 1034483
1, 7536, Tempo, 923077
1, 7544, Tempo, 821918
1, 7552, Tempo, 800000
1, 7568, Tempo, 845070
1, 7576, Tempo, 2500000
1, 7584, Tempo, 2000000
1, 7586, Tempo, 1621622
1, 7588, Tempo, 2307692
1, 7590, Tempo, 1304348
1, 7632, Tempo, 1200000
1, 7656, Tempo, 1395349
1, 7680, Tempo, 1333333
1, 7704, Tempo, 1463415
1, 7712, Tempo, 923077
1, 7720, Tempo, 895522
1, 7728, Tempo, 923077
1, 7736, Tempo, 845070
1, 7744, Tempo, 821918
1, 7752, Tempo, 845070
1, 7760, Tempo, 895522
1, 7768, Tempo, 1463415
1, 7776, Tempo, 1200000
1, 7872, Tempo, 1333333
1, 7904, Tempo, 983607
1, 7912, Tempo, 895522
1, 7920, Tempo, 845070
1, 7952, Tempo, 923077
1, 7960, Tempo, 1463415
1, 7968, Tempo, 1153846
1, 8000, Tempo, 952381
1, 8008, Tempo, 869565
1, 8016, Tempo, 845070
1, 8040, Tempo, 895522
1, 8048, Tempo, 1071429
1, 8056, Tempo, 1621622
1, 8064, Tempo, 1153846
1, 8088, Tempo, 1304348
1, 8096, Tempo, 1071429
1, 8104, Tempo, 1034483
1, 8112, Tempo, 1000000
1, 8120, Tempo, 923077
1, 8128, Tempo, 895522
1, 8136, Tempo, 869565
1, 8152, Tempo, 895522
1, 8160, Tempo, 869565
1, 8168, Tempo, 845070
1, 8176, Tempo, 821918
1, 8208, Tempo, 845070
1, 8224, Tempo, 869565
1, 8232, Tempo, 923077
1, 8240, Tempo, 1000000
1, 8248, Tempo, 1463415
1, 8256, Tempo, 1153846
1, 8280, Tempo, 1333333
1, 8288, Tempo, 983607
1, 8296, Tempo, 895522
1, 8304, Tempo, 845070
1, 8336, Tempo, 869565
1, 8344, Tempo, 1463415
1, 8352, Tempo, 1153846
1, 8376, Tempo, 1250000
1, 8384, Tempo, 983607
1, 8392, Tempo, 869565
1, 8400, Tempo, 845070
1, 8424, Tempo, 895522
1, 8432, Tempo, 983607
1, 8440, Tempo, 1621622
1, 8448, Tempo, 1153846
1, 8472, Tempo, 1250000
1, 8480, Tempo, 1000000
1, 8488, Tempo, 983607
1, 8504, Tempo, 895522
1, 8512, Tempo, 869565
1, 8528, Tempo, 895522
1, 8536, Tempo, 983607
1, 8544, Tempo, 952381
1, 8552, Tempo, 923077
1, 8576, Tempo, 952381
1, 8584, Tempo, 983607
1, 8592, Tempo, 1000000
1, 8600, Tempo, 1071429
1, 8608, Tempo, 1153846
1, 8616, Tempo, 1250000
1, 8624, Tempo, 1395349
1, 8632, Tempo, 2000000
1, 8640, Tempo, 1071429
1, 8664, Tempo, 3333333
1, 8667, Tempo, 2000000
1, 8673, Tempo, 1395349
1, 8676, Tempo, 1153846
1, 8679, Tempo, 1071429
1, 8721, Tempo, 1111111
1, 8724, Tempo, 1200000
1, 8727, Tempo, 2727273
1, 8730, Tempo, 3333333
1, 8733, Tempo, 6000000
1, 8736, Tempo, 1153846
1, 8754, Tempo, 1250000
1, 8756, Tempo, 1071429
1, 8778, Tempo, 895522
1, 8781, Tempo, 952381
1, 8790, Tempo, 1153846
1, 8802, Tempo, 1000000
1, 8804, Tempo, 952381
1, 8806, Tempo, 1071429
1, 8814, Tempo, 2000000
1, 8826, Tempo, 2727273
1, 8828, Tempo, 2000000
1, 8830, Tempo, 5454545
1, 8832, Tempo, 4615385
1, 8840, Tempo, 2727273
1, 8848, Tempo, 1621622
1, 8856, Tempo, 1395349
1, 8864, Tempo, 1250000
1, 8872, Tempo, 1200000
1, 8880, Tempo, 1153846
1, 8888, Tempo, 1111111
1, 8896, Tempo, 1071429
1, 8904, Tempo, 1034483
1, 8912, Tempo, 1000000
1, 8920, Tempo, 983607
1, 8928, Tempo, 1000000
1, 8944, Tempo, 923077
1, 8952, Tempo, 952381
1, 8960, Tempo, 1000000
1, 8968, Tempo, 983607
1, 8976, Tempo, 1071429
1, 8992, Tempo, 1111111
1, 9000, Tempo, 1200000
1, 9008, Tempo, 1304348
1, 9016, Tempo, 1818182
1, 9024, Tempo, 2727273
1, 9032, Tempo, 2000000
1, 9040, Tempo, 1333333
1, 9048, Tempo, 1153846
1, 9056, Tempo, 1034483
1, 9064, Tempo, 1000000
1, 9072, Tempo, 952381
1, 9080, Tempo, 923077
1, 9088, Tempo, 895522
1, 9112, Tempo, 1034483
1, 9120, Tempo, 983607
1, 9168, Tempo, 1000000
1, 9176, Tempo, 1071429
1, 9184, Tempo, 1200000
1, 9192, Tempo, 1304348
1, 9200, Tempo, 1395349
1, 9208, Tempo, 1621622
1, 9216, Tempo, 2000000
1, 9218, Tempo, 1621622
1, 9220, Tempo, 2000000
1, 9240, Tempo, 3000000
1, 9248, Tempo, 1818182
1, 9256, Tempo, 1395349
1, 9264, Tempo, 1250000
1, 9272, Tempo, 1153846
1, 9280, Tempo, 1111111
1, 9288, Tempo, 1200000
1, 9296, Tempo, 1333333
1, 9304, Tempo, 2000000
1, 9312, Tempo, 2727273
1, 9320, Tempo, 1395349
1, 9328, Tempo, 1071429
1, 9344, Tempo, 1000000
1, 9352, Tempo, 1071429
1, 9360, Tempo, 1200000
1, 9368, Tempo, 1111111
1, 9376, Tempo, 1153846
1, 9384, Tempo, 1463415
1, 9392, Tempo, 1935484
1, 9400, Tempo, 2307692
1, 9408, Key_signature, -3, "major"
1, 9408, Tempo, 1333333
1, 9424, Tempo, 952381
1, 9440, Tempo, 845070
1, 9456, Tempo, 731707
1, 9472, Tempo, 571429
1, 9488, Tempo, 666667
1, 9504, Tempo, 731707
1, 9520, Tempo, 555556
1, 9536, Tempo, 594059
1, 9552, Tempo, 555556
1, 9568, Tempo, 517241
1, 9584, Tempo, 800000
1, 9600, Tempo, 731707
1, 9616, Tempo, 500000
1, 9632, Tempo, 645161
1, 9648, Tempo, 594059
1, 9664, Tempo, 535714
1, 9680, Tempo, 731707
1, 9696, Tempo, 952381
1, 9708, Tempo, 800000
1, 9720, Tempo, 666667
1, 9732, Tempo, 618557
1, 9744, Tempo, 606061
1, 9756, Tempo, 594059
1, 9768, Tempo, 618557
1, 9780, Tempo, 800000
1, 9792, Tempo, 697674
1, 9808, Tempo, 618557
1, 9824, Tempo, 571429
1, 9856, Tempo, 582524
1, 9872, Tempo, 952381
1, 9880, Tempo, 1071429
1, 9888, Tempo, 731707
1, 9904, Tempo, 571429
1, 9920, Tempo, 594059
1, 9936, Tempo, 666667
1, 9952, Tempo, 645161
1, 9968, Tempo, 800000
1, 9976, Tempo, 1250000
1, 9984, Tempo, 731707
1, 10000, Tempo, 555556
1, 10016, Tempo, 645161
1, 10032, Tempo, 1153846
1, 10040, Tempo, 697674
1, 10044, Tempo, 535714
1, 10048, Tempo, 1250000
1, 10056, Tempo, 845070
1, 10068, Tempo, 1071429
1, 10080, Tempo, 1621622
1, 10096, Tempo, 731707
1, 10112, Tempo, 666667
1, 10128, Tempo, 645161
1, 10144, Tempo, 697674
1, 10160, Tempo, 1250000
1, 10176, Tempo, 1071429
1, 10192, Tempo, 845070
1, 10208, Tempo, 800000
1, 10224, Tempo, 731707
1, 10240, Tempo, 618557
1, 10256, Tempo, 800000
1, 10272, Tempo, 731707
1, 10288, Tempo, 535714
1, 10304, Tempo, 618557
1, 10320, Tempo, 594059
1, 10336, Tempo, 555556
1, 10352, Tempo, 645161
1, 10368, Tempo, 631579
1, 10384, Tempo, 645161
1, 10400, Tempo, 714286
1, 10416, Tempo, 659341
1, 10432, Tempo, 769231
1, 10448, Tempo, 952381
1, 10464, Tempo, 1071429
1, 10476, Tempo, 923077
1, 10488, Tempo, 714286
1, 10500, Tempo, 681818
1, 10512, Tempo, 666667
1, 10524, Tempo, 645161
1, 10536, Tempo, 681818
1, 10548, Tempo, 952381
1, 10560, Tempo, 895522
1, 10576, Tempo, 731707
1, 10592, Tempo, 769231
1, 10608, Tempo, 895522
1, 10620, Tempo, 769231
1, 10632, Tempo, 731707
1, 10644, Tempo, 1071429
1, 10656, Tempo, 800000
1, 10672, Tempo, 697674
1, 10688, Tempo, 714286
1, 10704, Tempo, 750000
1, 10720, Tempo, 845070
1, 10736, Tempo, 1153846
1, 10752, Tempo, 895522
1, 10768, Tempo, 769231
1, 10784, Tempo, 800000
1, 10800, Tempo, 697674
1, 10816, Tempo, 659341
1, 10832, Tempo, 714286
1, 10848, Tempo, 845070
1, 10864, Tempo, 681818
1, 10880, Tempo, 769231
1, 10896, Tempo, 895522
1, 10912, Tempo, 821918
1, 10928, Tempo, 1333333
1, 10944, Tempo, 1071429
1, 10960, Tempo, 800000
1, 10976, Tempo, 769231
1, 10992, Tempo, 731707
1, 11008, Tempo, 645161
1, 11024, Tempo, 666667
1, 11040, Tempo, 731707
1, 11056, Tempo, 681818
1, 11072, Tempo, 731707
1, 11088, Tempo, 789474
1, 11104, Tempo, 845070
1, 11120, Tempo, 1000000
1, 11136, Tempo, 800000
1, 11152, Tempo, 666667
1, 11184, Tempo, 714286
1, 11200, Tempo, 769231
1, 11216, Tempo, 952381
1, 11224, Tempo, 800000
1, 11248, Tempo, 697674
1, 11264, Tempo, 666667
1, 11280, Tempo, 659341
1, 11296, Tempo, 714286
1, 11312, Tempo, 952381
1, 11344, Tempo, 666667
1, 11360, Tempo, 697674
1, 11376, Tempo, 769231
1, 11392, Tempo, 666667
1, 11408, Tempo, 845070
1, 11424, Tempo, 1000000
1, 11436, Tempo, 697674
1, 11448, Tempo, 666667
1, 11460, Tempo, 631579
1, 11472, Tempo, 666667
1, 11484, Tempo, 845070
1, 11496, Tempo, 895522
1, 11508, Tempo, 952381
1, 11520, Tempo, 895522
1, 11536, Tempo, 666667
1, 11552, Tempo, 714286
1, 11568, Tempo, 1250000
1, 11576, Tempo, 1153846
1, 11584, Tempo, 1071429
1, 11600, Tempo, 845070
1, 11608, Tempo, 1153846
1, 11616, Tempo, 952381
1, 11632, Tempo, 750000
1, 11648, Tempo, 681818
1, 11664, Tempo, 697674
1, 11680, Tempo, 821918
1, 11696, Tempo, 1071429
1, 11712, Tempo, 1000000
1, 11728, Tempo, 731707
1, 11744, Tempo, 666667
1, 11776, Tempo, 697674
1, 11792, Tempo, 789474
1, 11808, Tempo, 1000000
1, 11824, Tempo, 769231
1, 11840, Tempo, 714286
1, 11856, Tempo, 697674
1, 11872, Tempo, 714286
1, 11888, Tempo, 895522
1, 11920, Tempo, 731707
1, 11936, Tempo, 645161
1, 11952, Tempo, 618557
1, 11968, Tempo, 645161
1, 11984, Tempo, 731707
1, 12000, Tempo, 845070
1, 12016, Tempo, 769231
1, 12032, Tempo, 731707
1, 12048, Tempo, 789474
1, 12064, Tempo, 845070
1, 12080, Tempo, 1250000
1, 12096, Tempo, 895522
1, 12112, Tempo, 697674
1, 12128, Tempo, 769231
1, 12144, Tempo, 895522
1, 12160, Tempo, 731707
1, 12176, Tempo, 952381
1, 12192, Tempo, 1000000
1, 12208, Tempo, 731707
1, 12224, Tempo, 800000
1, 12240, Tempo, 1621622
1, 12246, Tempo, 1000000
1, 12253, Tempo, 952381
1, 12260, Tempo, 800000
1, 12267, Tempo, 1333333
1, 12274, Tempo, 1463415
1, 12281, Tempo, 1818182
1, 12288, Tempo, 952381
1, 12304, Tempo, 731707
1, 12320, Tempo, 697674
1, 12336, Tempo, 666667
1, 12352, Tempo, 645161
1, 12368, Tempo, 731707
1, 12384, Tempo, 845070
1, 12400, Tempo, 731707
1, 12416, Tempo, 714286
1, 12432, Tempo, 845070
1, 12448, Tempo, 923077
1, 12464, Tempo, 1071429
1, 12480, Tempo, 1000000
1, 12496, Tempo, 750000
1, 12512, Tempo, 800000
1, 12528, Tempo, 731707
1, 12544, Tempo, 618557
1, 12560, Tempo, 731707
1, 12576, Tempo, 800000
1, 12592, Tempo, 571429
1, 12608, Tempo, 645161
1, 12624, Tempo, 697674
1, 12640, Tempo, 571429
1, 12656, Tempo, 845070
1, 12672, Tempo, 697674
1, 12688, Tempo, 618557
1, 12704, Tempo, 731707
1, 12720, Tempo, 645161
1, 12736, Tempo, 697674
1, 12752, Tempo, 845070
1, 12768, Tempo, 1071429
1, 12780, Tempo, 923077
1, 12792, Tempo, 714286
1, 12804, Tempo, 681818
1, 12816, Tempo, 666667
1, 12828, Tempo, 645161
1, 12840, Tempo, 681818
1, 12852, Tempo, 1333333
1, 12860, Tempo, 2000000
1, 12864, Tempo, 845070
1, 12880, Tempo, 618557
1, 12896, Tempo, 697674
1, 12912, Tempo, 666667
1, 12928, Tempo, 594059
1, 12944, Tempo, 731707
1, 12960, Tempo, 769231
1, 12976, Tempo, 594059
1, 12992, Tempo, 666667
1, 13008, Tempo, 731707
1, 13024, Tempo, 645161
1, 13040, Tempo, 845070
1, 13056, Tempo, 895522
1, 13072, Tempo, 645161
1, 13088, Tempo, 631579
1, 13104, Tempo, 645161
1, 13120, Tempo, 666667
1, 13136, Tempo, 895522
1, 13152, Tempo, 1153846
1, 13164, Tempo, 1034483
1, 13176, Tempo, 750000
1, 13188, Tempo, 789474
1, 13200, Tempo, 769231
1, 13212, Tempo, 697674
1, 13224, Tempo, 789474
1, 13236, Tempo, 1071429
1, 13248, Tempo, 952381
1, 13264, Tempo, 731707
1, 13280, Tempo, 1071429
1, 13296, Tempo, 1000000
1, 13312, Tempo, 952381
1, 13328, Tempo, 1153846
1, 13344, Tempo, 1333333
1, 13356, Tempo, 983607
1, 13368, Tempo, 821918
1, 13380, Tempo, 769231
1, 13404, Tempo, 731707
1, 13416, Tempo, 769231
1, 13428, Tempo, 895522
1, 13440, Tempo, 952381
1, 13452, Tempo, 769231
1, 13464, Tempo, 697674
1, 13476, Tempo, 731707
1, 13488, Tempo, 750000
1, 13512, Tempo, 789474
1, 13524, Tempo, 895522
1, 13536, Tempo, 952381
1, 13548, Tempo, 800000
1, 13560, Tempo, 750000
1, 13572, Tempo, 800000
1, 13584, Tempo, 1071429
1, 13596, Tempo, 1000000
1, 13608, Tempo, 895522
1, 13620, Tempo, 1153846
1, 13632, Tempo, 895522
1, 13648, Tempo, 800000
1, 13664, Tempo, 731707
1, 13680, Tempo, 750000
1, 13696, Tempo, 895522
1, 13712, Tempo, 1333333
1, 13718, Tempo, 1463415
1, 13723, Tempo, 1818182
1, 13728, Tempo, 869565
1, 13744, Tempo, 769231
1, 13760, Tempo, 750000
1, 13776, Tempo, 800000
1, 13792, Tempo, 1000000
1, 13808, Tempo, 1714286
1, 13814, Tempo, 2142857
1, 13819, Tempo, 2727273
1, 13824, Tempo, 1818182
1, 13840, Tempo, 1000000
1, 13856, Tempo, 895522
1, 13872, Tempo, 869565
1, 13888, Tempo, 923077
1, 13904, Tempo, 1621622
1, 13920, Tempo, 1935484
1, 13932, Tempo, 1304348
1, 13944, Tempo, 1250000
1, 13956, Tempo, 1304348
1, 13968, Tempo, 1395349
1, 13980, Tempo, 1333333
1, 13992, Tempo, 1621622
1, 14004, Tempo, 2307692
1, 14016, Tempo, 1463415
1, 14032, Tempo, 1071429
1, 14048, Tempo, 1153846
1, 14064, Tempo, 1304348
1, 14080, Tempo, 1200000
1, 14096, Tempo, 1714286
1, 14112, Tempo, 1818182
1, 14124, Tempo, 1463415
1, 14136, Tempo, 1333333
1, 14148, Tempo, 1395349
1, 14160, Tempo, 1714286
1, 14172, Tempo, 1935484
1, 14184, Tempo, 1818182
1, 14196, Tempo, 3333333
1, 14208, Tempo, 1818182
1, 14224, Tempo, 1153846
1, 14240, Tempo, 1200000
1, 14256, Tempo, 1071429
1, 14272, Tempo, 1200000
1, 14288, Tempo, 1250000
1, 14304, Tempo, 1000000
1, 14320, Tempo, 983607
1, 14336, Tempo, 1153846
1, 14352, Tempo, 1200000
1, 14368, Tempo, 1463415
1, 14384, Tempo, 3333333
1, 14412, Tempo, 2000000
1, 14424, Tempo, 1538462
1, 14436, Tempo, 1304348
1, 14448, Tempo, 1200000
1, 14472, Tempo, 1304348
1, 14484, Tempo, 1395349
1, 14496, Tempo, 1463415
1, 14508, Tempo, 1538462
1, 14520, Tempo, 1621622
1, 14532, Tempo, 1818182
1, 14544, Tempo, 2000000
1, 14556, Tempo, 3333333
1, 14564, Tempo, 1621622
1, 14568, Tempo, 3750000
1, 14580, Tempo, 5454545
1, 14592, Tempo, 2307692
1, 14736, Tempo, 3750000
1, 14784, Tempo, 2727273
1, 14784, End_track
2, 0, Start_track
2, 0, MIDI_port, 0
2, 0, Title_t, "Piano R"
2, 0, Control_c, 0, 0, 0
2, 0, Control_c, 0, 32, 0
2, 0, Program_c, 0, 0
2, 0, Control_c, 0, 7, 127
2, 0, Control_c, 0, 10, 48
2, 36, Control_c, 0, 91, 40
2, 36, Control_c, 0, 91, 40
2, 38, Control_c, 0, 93, 0
2, 38, Control_c, 0, 93, 0
2, 192, Control_c, 0, 64, 127
2, 240, Note_on_c, 0, 79, 58
2, 286, Note_on_c, 0, 79, 0
2, 290, Control_c, 0, 64, 0
2, 296, Control_c, 0, 64, 127
2, 336, Note_on_c, 0, 80, 69
2, 382, Note_on_c, 0, 80, 0
2, 384, Control_c, 0, 64, 127
2, 386, Control_c, 0, 64, 0
2, 392, Control_c, 0, 64, 127
2, 408, Note_on_c, 0, 79, 60
2, 456, Note_on_c, 0, 79, 0
2, 456, Note_on_c, 0, 74, 53
2, 482, Control_c, 0, 64, 0
2, 488, Control_c, 0, 64, 127
2, 492, Note_on_c, 0, 74, 0
2, 492, Note_on_c, 0, 75, 59
2, 504, Note_on_c, 0, 75, 0
2, 504, Note_on_c, 0, 77, 60
2, 516, Note_on_c, 0, 77, 0
2, 516, Note_on_c, 0, 75, 59
2, 528, Note_on_c, 0, 75, 0
2, 528, Note_on_c, 0, 74, 62
2, 540, Note_on_c, 0, 74, 0
2, 540, Note_on_c, 0, 75, 65
2, 552, Note_on_c, 0, 75, 0
2, 552, Note_on_c, 0, 77, 66
2, 564, Note_on_c, 0, 77, 0
2, 564, Note_on_c, 0, 79, 67
2, 576, Note_on_c, 0, 79, 0
2, 576, Note_on_c, 0, 72, 60
2, 576, Control_c, 0, 64, 127
2, 578, Control_c, 0, 64, 0
2, 584, Control_c, 0, 64, 127
2, 612, Note_on_c, 0, 72, 0
2, 624, Note_on_c, 0, 72, 55
2, 648, Note_on_c, 0, 72, 0
2, 660, Note_on_c, 0, 72, 62
2, 668, Note_on_c, 0, 72, 0
2, 672, Note_on_c, 0, 74, 59
2, 674, Control_c, 0, 64, 0
2, 680, Control_c, 0, 64, 127
2, 720, Note_on_c, 0, 74, 0
2, 720, Note_on_c, 0, 72, 57
2, 756, Note_on_c, 0, 72, 0
2, 756, Note_on_c, 0, 68, 54
2, 768, Note_on_c, 0, 68, 0
2, 768, Note_on_c, 0, 67, 45
2, 768, Control_c, 0, 64, 127
2, 770, Control_c, 0, 64, 0
2, 776, Control_c, 0, 64, 127
2, 825, Note_on_c, 0, 70, 42
2, 828, Note_on_c, 0, 70, 0
2, 828, Note_on_c, 0, 67, 0
2, 828, Note_on_c, 0, 68, 49
2, 840, Note_on_c, 0, 68, 0
2, 840, Note_on_c, 0, 67, 55
2, 852, Note_on_c, 0, 67, 0
2, 852, Note_on_c, 0, 62, 60
2, 864, Note_on_c, 0, 62, 0
2, 864, Note_on_c, 0, 63, 55
2, 866, Control_c, 0, 64, 0
2, 876, Note_on_c, 0, 63, 0
2, 876, Note_on_c, 0, 60, 38
2, 876, Control_c, 0, 64, 127
2, 888, Note_on_c, 0, 60, 0
2, 956, Control_c, 0, 64, 0
2, 960, Control_c, 0, 64, 127
2, 1008, Note_on_c, 0, 79, 65
2, 1054, Note_on_c, 0, 79, 0
2, 1058, Control_c, 0, 64, 0
2, 1064, Control_c, 0, 64, 127
2, 1104, Note_on_c, 0, 80, 75
2, 1152, Control_c, 0, 64, 127
2, 1154, Control_c, 0, 64, 0
2, 1160, Control_c, 0, 64, 127
2, 1176, Note_on_c, 0, 80, 0
2, 1176, Note_on_c, 0, 79, 65
2, 1224, Note_on_c, 0, 79, 0
2, 1224, Note_on_c, 0, 77, 60
2, 1250, Control_c, 0, 64, 0
2, 1256, Control_c, 0, 64, 127
2, 1260, Note_on_c, 0, 77, 0
2, 1260, Note_on_c, 0, 75, 60
2, 1272, Note_on_c, 0, 75, 0
2, 1272, Note_on_c, 0, 77, 57
2, 1278, Note_on_c, 0, 77, 0
2, 1278, Note_on_c, 0, 75, 60
2, 1281, Note_on_c, 0, 75, 0
2, 1281, Note_on_c, 0, 77, 62
2, 1284, Note_on_c, 0, 77, 0
2, 1284, Note_on_c, 0, 75, 65
2, 1296, Note_on_c, 0, 75, 0
2, 1296, Note_on_c, 0, 74, 62
2, 1308, Note_on_c, 0, 74, 0
2, 1308, Note_on_c, 0, 75, 65
2, 1320, Note_on_c, 0, 75, 0
2, 1320, Note_on_c, 0, 77, 68
2, 1332, Note_on_c, 0, 77, 0
2, 1332, Note_on_c, 0, 79, 71
2, 1344, Note_on_c, 0, 79, 0
2, 1344, Note_on_c, 0, 74, 61
2, 1344, Control_c, 0, 64, 127
2, 1346, Control_c, 0, 64, 0
2, 1352, Control_c, 0, 64, 127
2, 1368, Note_on_c, 0, 74, 0
2, 1368, Note_on_c, 0, 62, 61
2, 1404, Note_on_c, 0, 62, 0
2, 1404, Note_on_c, 0, 67, 62
2, 1416, Note_on_c, 0, 67, 0
2, 1416, Note_on_c, 0, 72, 64
2, 1428, Note_on_c, 0, 72, 0
2, 1428, Note_on_c, 0, 74, 66
2, 1440, Note_on_c, 0, 74, 0
2, 1440, Note_on_c, 0, 75, 68
2, 1442, Control_c, 0, 64, 0
2, 1448, Control_c, 0, 64, 127
2, 1524, Note_on_c, 0, 75, 0
2, 1524, Note_on_c, 0, 66, 45
2, 1532, Note_on_c, 0, 66, 0
2, 1536, Note_on_c, 0, 66, 45
2, 1536, Control_c, 0, 64, 127
2, 1538, Control_c, 0, 64, 0
2, 1544, Control_c, 0, 64, 127
2, 1614, Note_on_c, 0, 66, 0
2, 1614, Note_on_c, 0, 67, 33
2, 1620, Note_on_c, 0, 67, 0
2, 1620, Note_on_c, 0, 70, 35
2, 1626, Note_on_c, 0, 70, 0
2, 1626, Note_on_c, 0, 69, 32
2, 1632, Note_on_c, 0, 69, 0
2, 1632, Note_on_c, 0, 67, 30
2, 1634, Control_c, 0, 64, 0
2, 1640, Control_c, 0, 64, 127
2, 1678, Note_on_c, 0, 67, 0
2, 1724, Control_c, 0, 64, 0
2, 1728, Control_c, 0, 64, 127
2, 1776, Note_on_c, 0, 68, 64
2, 1826, Control_c, 0, 64, 0
2, 1832, Control_c, 0, 64, 127
2, 1848, Note_on_c, 0, 68, 0
2, 1848, Note_on_c, 0, 73, 62
2, 1872, Note_on_c, 0, 73, 0
2, 1872, Note_on_c, 0, 77, 64
2, 1896, Note_on_c, 0, 77, 0
2, 1896, Note_on_c, 0, 82, 68
2, 1920, Note_on_c, 0, 82, 0
2, 1920, Note_on_c, 0, 80, 65
2, 1920, Control_c, 0, 64, 127
2, 1922, Control_c, 0, 64, 0
2, 1928, Control_c, 0, 64, 127
2, 1977, Note_on_c, 0, 80, 0
2, 1977, Note_on_c, 0, 66, 40
2, 1980, Note_on_c, 0, 66, 0
2, 1980, Note_on_c, 0, 68, 43
2, 1983, Note_on_c, 0, 68, 0
2, 1983, Note_on_c, 0, 75, 45
2, 1986, Note_on_c, 0, 75, 0
2, 1986, Note_on_c, 0, 80, 50
2, 1992, Note_on_c, 0, 80, 0
2, 1992, Note_on_c, 0, 78, 48
2, 1998, Note_on_c, 0, 78, 0
2, 1998, Note_on_c, 0, 77, 45
2, 2004, Note_on_c, 0, 77, 0
2, 2004, Note_on_c, 0, 65, 35
2, 2007, Note_on_c, 0, 65, 0
2, 2008, Note_on_c, 0, 68, 38
2, 2011, Note_on_c, 0, 68, 0
2, 2012, Note_on_c, 0, 73, 40
2, 2015, Note_on_c, 0, 73, 0
2, 2016, Note_on_c, 0, 77, 43
2, 2018, Control_c, 0, 64, 0
2, 2024, Control_c, 0, 64, 127
2, 2062, Note_on_c, 0, 77, 0
2, 2112, Control_c, 0, 64, 127
2, 2114, Control_c, 0, 64, 0
2, 2120, Control_c, 0, 64, 127
2, 2160, Note_on_c, 0, 67, 65
2, 2200, Note_on_c, 0, 68, 53
2, 2204, Note_on_c, 0, 68, 0
2, 2204, Note_on_c, 0, 70, 55
2, 2208, Note_on_c, 0, 70, 0
2, 2208, Note_on_c, 0, 67, 0
2, 2208, Note_on_c, 0, 68, 63
2, 2210, Control_c, 0, 64, 0
2, 2216, Control_c, 0, 64, 127
2, 2220, Note_on_c, 0, 68, 0
2, 2220, Note_on_c, 0, 67, 60
2, 2232, Note_on_c, 0, 67, 0
2, 2232, Note_on_c, 0, 71, 65
2, 2244, Note_on_c, 0, 71, 0
2, 2244, Note_on_c, 0, 72, 67
2, 2256, Note_on_c, 0, 72, 0
2, 2256, Note_on_c, 0, 74, 69
2, 2268, Note_on_c, 0, 74, 0
2, 2268, Note_on_c, 0, 75, 71
2, 2280, Note_on_c, 0, 75, 0
2, 2280, Note_on_c, 0, 84, 76
2, 2292, Note_on_c, 0, 84, 0
2, 2292, Note_on_c, 0, 80, 75
2, 2304, Note_on_c, 0, 80, 0
2, 2304, Note_on_c, 0, 79, 70
2, 2304, Control_c, 0, 64, 127
2, 2306, Control_c, 0, 64, 0
2, 2312, Control_c, 0, 64, 127
2, 2360, Note_on_c, 0, 79, 0
2, 2360, Note_on_c, 0, 73, 50
2, 2368, Note_on_c, 0, 73, 0
2, 2368, Note_on_c, 0, 74, 50
2, 2376, Note_on_c, 0, 74, 0
2, 2376, Note_on_c, 0, 79, 48
2, 2384, Note_on_c, 0, 79, 0
2, 2384, Note_on_c, 0, 77, 46
2, 2392, Note_on_c, 0, 77, 0
2, 2392, Note_on_c, 0, 75, 43
2, 2398, Note_on_c, 0, 75, 0
2, 2400, Note_on_c, 0, 75, 43
2, 2402, Control_c, 0, 64, 0
2, 2408, Control_c, 0, 64, 127
2, 2446, Note_on_c, 0, 75, 0
2, 2496, Control_c, 0, 64, 127
2, 2498, Control_c, 0, 64, 0
2, 2504, Control_c, 0, 64, 127
2, 2544, Note_on_c, 0, 71, 50
2, 2594, Control_c, 0, 64, 0
2, 2600, Control_c, 0, 64, 127
2, 2616, Note_on_c, 0, 71, 0
2, 2616, Note_on_c, 0, 72, 56
2, 2640, Note_on_c, 0, 72, 0
2, 2640, Note_on_c, 0, 74, 58
2, 2664, Note_on_c, 0, 74, 0
2, 2664, Note_on_c, 0, 75, 60
2, 2688, Note_on_c, 0, 75, 0
2, 2688, Control_c, 0, 64, 127
2, 2690, Control_c, 0, 64, 0
2, 2696, Control_c, 0, 64, 127
2, 2736, Note_on_c, 0, 74, 68
2, 2786, Control_c, 0, 64, 0
2, 2792, Control_c, 0, 64, 127
2, 2808, Note_on_c, 0, 74, 0
2, 2808, Note_on_c, 0, 75, 72
2, 2832, Note_on_c, 0, 75, 0
2, 2832, Note_on_c, 0, 77, 74
2, 2856, Note_on_c, 0, 77, 0
2, 2856, Note_on_c, 0, 79, 70
2, 2872, Note_on_c, 0, 79, 0
2, 2878, Control_c, 0, 64, 0
2, 2880, Note_on_c, 0, 79, 45
2, 2880, Control_c, 0, 64, 127
2, 2904, Note_on_c, 0, 79, 0
2, 2904, Note_on_c, 0, 77, 43
2, 2928, Note_on_c, 0, 77, 0
2, 2928, Note_on_c, 0, 80, 48
2, 2952, Note_on_c, 0, 80, 0
2, 2952, Note_on_c, 0, 72, 40
2, 2976, Note_on_c, 0, 72, 0
2, 2976, Note_on_c, 0, 74, 41
2, 2978, Control_c, 0, 64, 0
2, 2984, Control_c, 0, 64, 127
2, 3000, Note_on_c, 0, 74, 0
2, 3000, Note_on_c, 0, 75, 42
2, 3006, Note_on_c, 0, 75, 0
2, 3009, Note_on_c, 0, 75, 42
2, 3012, Note_on_c, 0, 75, 0
2, 3012, Note_on_c, 0, 77, 43
2, 3015, Note_on_c, 0, 77, 0
2, 3015, Note_on_c, 0, 75, 41
2, 3018, Note_on_c, 0, 75, 0
2, 3018, Note_on_c, 0, 74, 39
2, 3021, Note_on_c, 0, 74, 0
2, 3021, Note_on_c, 0, 75, 41
2, 3024, Note_on_c, 0, 75, 0
2, 3024, Note_on_c, 0, 79, 50
2, 3048, Note_on_c, 0, 79, 0
2, 3048, Note_on_c, 0, 77, 48
2, 3072, Note_on_c, 0, 77, 0
2, 3072, Note_on_c, 0, 74, 43
2, 3072, Control_c, 0, 64, 127
2, 3074, Control_c, 0, 64, 0
2, 3080, Control_c, 0, 64, 127
2, 3166, Note_on_c, 0, 74, 0
2, 3170, Control_c, 0, 64, 0
2, 3176, Control_c, 0, 64, 127
2, 3264, Control_c, 0, 64, 127
2, 3266, Control_c, 0, 64, 0
2, 3272, Control_c, 0, 64, 127
2, 3312, Note_on_c, 0, 79, 70
2, 3358, Note_on_c, 0, 79, 0
2, 3362, Control_c, 0, 64, 0
2, 3368, Control_c, 0, 64, 127
2, 3408, Note_on_c, 0, 80, 81
2, 3456, Control_c, 0, 64, 127
2, 3458, Control_c, 0, 64, 0
2, 3464, Control_c, 0, 64, 127
2, 3480, Note_on_c, 0, 80, 0
2, 3480, Note_on_c, 0, 79, 70
2, 3528, Note_on_c, 0, 79, 0
2, 3528, Note_on_c, 0, 77, 60
2, 3554, Control_c, 0, 64, 0
2, 3560, Control_c, 0, 64, 127
2, 3564, Note_on_c, 0, 77, 0
2, 3564, Note_on_c, 0, 75, 62
2, 3576, Note_on_c, 0, 75, 0
2, 3576, Note_on_c, 0, 77, 65
2, 3582, Note_on_c, 0, 77, 0
2, 3582, Note_on_c, 0, 75, 60
2, 3585, Note_on_c, 0, 75, 0
2, 3585, Note_on_c, 0, 77, 60
2, 3588, Note_on_c, 0, 77, 0
2, 3588, Note_on_c, 0, 75, 63
2, 3600, Note_on_c, 0, 75, 0
2, 3600, Note_on_c, 0, 74, 62
2, 3612, Note_on_c, 0, 74, 0
2, 3612, Note_on_c, 0, 75, 66
2, 3624, Note_on_c, 0, 75, 0
2, 3624, Note_on_c, 0, 77, 69
2, 3636, Note_on_c, 0, 77, 0
2, 3636, Note_on_c, 0, 79, 73
2, 3641, Note_on_c, 0, 79, 0
2, 3643, Note_on_c, 0, 79, 77
2, 3648, Note_on_c, 0, 79, 0
2, 3648, Note_on_c, 0, 72, 65
2, 3648, Control_c, 0, 64, 127
2, 3650, Control_c, 0, 64, 0
2, 3656, Control_c, 0, 64, 127
2, 3672, Note_on_c, 0, 72, 0
2, 3746, Control_c, 0, 64, 0
2, 3752, Control_c, 0, 64, 127
2, 3792, Note_on_c, 0, 77, 75
2, 3834, Note_on_c, 0, 71, 50
2, 3840, Note_on_c, 0, 71, 0
2, 3840, Note_on_c, 0, 77, 0
2, 3840, Note_on_c, 0, 75, 75
2, 3840, Control_c, 0, 64, 127
2, 3842, Control_c, 0, 64, 0
2, 3848, Control_c, 0, 64, 127
2, 3888, Note_on_c, 0, 75, 0
2, 3912, Note_on_c, 0, 74, 70
2, 3938, Control_c, 0, 64, 0
2, 3944, Control_c, 0, 64, 127
2, 3948, Note_on_c, 0, 74, 0
2, 3948, Note_on_c, 0, 72, 67
2, 3960, Note_on_c, 0, 72, 0
2, 3960, Note_on_c, 0, 74, 70
2, 3966, Note_on_c, 0, 74, 0
2, 3966, Note_on_c, 0, 72, 65
2, 3969, Note_on_c, 0, 72, 0
2, 3969, Note_on_c, 0, 74, 65
2, 3972, Note_on_c, 0, 74, 0
2, 3972, Note_on_c, 0, 72, 68
2, 3984, Note_on_c, 0, 72, 0
2, 3984, Note_on_c, 0, 71, 67
2, 3996, Note_on_c, 0, 71, 0
2, 3996, Note_on_c, 0, 72, 70
2, 4008, Note_on_c, 0, 72, 0
2, 4008, Note_on_c, 0, 74, 73
2, 4020, Note_on_c, 0, 74, 0
2, 4020, Note_on_c, 0, 75, 76
2, 4032, Note_on_c, 0, 75, 0
2, 4032, Note_on_c, 0, 67, 81
2, 4032, Control_c, 0, 64, 127
2, 4034, Control_c, 0, 64, 0
2, 4040, Control_c, 0, 64, 127
2, 4056, Note_on_c, 0, 67, 0
2, 4080, Note_on_c, 0, 84, 88
2, 4126, Control_c, 0, 64, 0
2, 4132, Control_c, 0, 64, 127
2, 4140, Note_on_c, 0, 84, 0
2, 4140, Note_on_c, 0, 83, 60
2, 4152, Note_on_c, 0, 83, 0
2, 4152, Note_on_c, 0, 82, 64
2, 4164, Note_on_c, 0, 82, 0
2, 4164, Note_on_c, 0, 81, 68
2, 4176, Note_on_c, 0, 81, 0
2, 4176, Note_on_c, 0, 80, 73
2, 4188, Note_on_c, 0, 80, 0
2, 4188, Note_on_c, 0, 77, 72
2, 4200, Note_on_c, 0, 77, 0
2, 4200, Note_on_c, 0, 68, 65
2, 4212, Note_on_c, 0, 68, 0
2, 4212, Note_on_c, 0, 73, 70
2, 4224, Note_on_c, 0, 64, 66
2, 4224, Control_c, 0, 64, 127
2, 4226, Control_c, 0, 64, 0
2, 4232, Control_c, 0, 64, 127
2, 4236, Note_on_c, 0, 64, 0
2, 4236, Note_on_c, 0, 73, 0
2, 4236, Note_on_c, 0, 72, 75
2, 4245, Note_on_c, 0, 75, 67
2, 4248, Note_on_c, 0, 75, 0
2, 4248, Note_on_c, 0, 72, 0
2, 4248, Note_on_c, 0, 73, 72
2, 4260, Note_on_c, 0, 73, 0
2, 4260, Note_on_c, 0, 72, 76
2, 4272, Note_on_c, 0, 72, 0
2, 4272, Note_on_c, 0, 75, 81
2, 4284, Note_on_c, 0, 75, 0
2, 4284, Note_on_c, 0, 76, 84
2, 4296, Note_on_c, 0, 76, 0
2, 4296, Note_on_c, 0, 80, 87
2, 4308, Note_on_c, 0, 80, 0
2, 4308, Note_on_c, 0, 79, 86
2, 4320, Note_on_c, 0, 79, 0
2, 4320, Note_on_c, 0, 65, 67
2, 4322, Control_c, 0, 64, 0
2, 4328, Control_c, 0, 64, 127
2, 4332, Note_on_c, 0, 65, 0
2, 4332, Note_on_c, 0, 72, 83
2, 4344, Note_on_c, 0, 72, 0
2, 4344, Note_on_c, 0, 77, 88
2, 4356, Note_on_c, 0, 77, 0
2, 4356, Note_on_c, 0, 79, 90
2, 4368, Note_on_c, 0, 79, 0
2, 4368, Note_on_c, 0, 82, 94
2, 4380, Note_on_c, 0, 82, 0
2, 4380, Note_on_c, 0, 80, 93
2, 4392, Note_on_c, 0, 80, 0
2, 4392, Note_on_c, 0, 72, 85
2, 4404, Note_on_c, 0, 72, 0
2, 4404, Note_on_c, 0, 74, 86
2, 4416, Note_on_c, 0, 74, 0
2, 4416, Note_on_c, 0, 75, 87
2, 4416, Control_c, 0, 64, 127
2, 4418, Control_c, 0, 64, 0
2, 4424, Control_c, 0, 64, 127
2, 4462, Note_on_c, 0, 75, 0
2, 4488, Note_on_c, 0, 72, 82
2, 4496, Note_on_c, 0, 72, 0
2, 4496, Note_on_c, 0, 74, 84
2, 4504, Note_on_c, 0, 74, 0
2, 4504, Note_on_c, 0, 72, 82
2, 4512, Note_on_c, 0, 72, 0
2, 4512, Note_on_c, 0, 67, 79
2, 4514, Control_c, 0, 64, 0
2, 4520, Control_c, 0, 64, 127
2, 4558, Note_on_c, 0, 67, 0
2, 4584, Note_on_c, 0, 67, 90
2, 4592, Note_on_c, 0, 67, 0
2, 4592, Note_on_c, 0, 68, 92
2, 4600, Note_on_c, 0, 68, 0
2, 4600, Note_on_c, 0, 67, 96
2, 4608, Note_on_c, 0, 67, 0
2, 4608, Note_on_c, 0, 60, 90
2, 4608, Control_c, 0, 64, 127
2, 4610, Control_c, 0, 64, 0
2, 4616, Control_c, 0, 64, 127
2, 4658, Control_c, 0, 64, 0
2, 4664, Control_c, 0, 64, 127
2, 4706, Control_c, 0, 64, 0
2, 4712, Control_c, 0, 64, 127
2, 4754, Control_c, 0, 64, 0
2, 4760, Control_c, 0, 64, 127
2, 4796, Control_c, 0, 64, 0
2, 4800, Note_on_c, 0, 52, 33
2, 4800, Note_on_c, 0, 55, 37
2, 4800, Note_on_c, 0, 64, 45
2, 4800, Control_c, 0, 64, 127
2, 4872, Note_on_c, 0, 64, 0
2, 4872, Note_on_c, 0, 60, 0
2, 4872, Note_on_c, 0, 52, 0
2, 4872, Note_on_c, 0, 55, 0
2, 4896, Note_on_c, 0, 53, 28
2, 4896, Note_on_c, 0, 55, 31
2, 4896, Note_on_c, 0, 59, 34
2, 4896, Note_on_c, 0, 62, 49
2, 4898, Control_c, 0, 64, 0
2, 4904, Control_c, 0, 64, 127
2, 4932, Note_on_c, 0, 62, 0
2, 4932, Note_on_c, 0, 53, 0
2, 4932, Note_on_c, 0, 55, 0
2, 4932, Note_on_c, 0, 59, 0
2, 4944, Note_on_c, 0, 53, 28
2, 4944, Note_on_c, 0, 55, 31
2, 4944, Note_on_c, 0, 59, 34
2, 4944, Note_on_c, 0, 64, 51
2, 4968, Note_on_c, 0, 64, 0
2, 4968, Note_on_c, 0, 53, 0
2, 4968, Note_on_c, 0, 55, 0
2, 4968, Note_on_c, 0, 59, 0
2, 4980, Note_on_c, 0, 53, 28
2, 4980, Note_on_c, 0, 55, 31
2, 4980, Note_on_c, 0, 59, 34
2, 4980, Note_on_c, 0, 65, 53
2, 4982, Control_c, 0, 64, 0
2, 4986, Control_c, 0, 64, 127
2, 4988, Note_on_c, 0, 65, 0
2, 4988, Note_on_c, 0, 53, 0
2, 4988, Note_on_c, 0, 55, 0
2, 4988, Note_on_c, 0, 59, 0
2, 4992, Note_on_c, 0, 52, 35
2, 4992, Note_on_c, 0, 60, 41
2, 4992, Note_on_c, 0, 64, 51
2, 4992, Control_c, 0, 64, 127
2, 4994, Control_c, 0, 64, 0
2, 5000, Control_c, 0, 64, 127
2, 5028, Note_on_c, 0, 64, 0
2, 5028, Note_on_c, 0, 60, 0
2, 5028, Note_on_c, 0, 52, 0
2, 5040, Note_on_c, 0, 52, 45
2, 5040, Note_on_c, 0, 55, 50
2, 5076, Note_on_c, 0, 55, 0
2, 5076, Note_on_c, 0, 52, 0
2, 5088, Note_on_c, 0, 52, 46
2, 5088, Note_on_c, 0, 60, 51
2, 5124, Note_on_c, 0, 60, 0
2, 5124, Note_on_c, 0, 52, 0
2, 5136, Note_on_c, 0, 55, 40
2, 5136, Note_on_c, 0, 60, 45
2, 5136, Note_on_c, 0, 64, 53
2, 5172, Note_on_c, 0, 64, 0
2, 5172, Note_on_c, 0, 60, 0
2, 5172, Note_on_c, 0, 55, 0
2, 5184, Note_on_c, 0, 55, 40
2, 5184, Note_on_c, 0, 60, 45
2, 5184, Note_on_c, 0, 67, 55
2, 5184, Control_c, 0, 64, 127
2, 5256, Note_on_c, 0, 67, 0
2, 5256, Note_on_c, 0, 60, 0
2, 5256, Note_on_c, 0, 55, 0
2, 5280, Note_on_c, 0, 57, 40
2, 5280, Note_on_c, 0, 60, 43
2, 5280, Note_on_c, 0, 64, 53
2, 5282, Control_c, 0, 64, 0
2, 5288, Control_c, 0, 64, 127
2, 5316, Note_on_c, 0, 64, 0
2, 5316, Note_on_c, 0, 60, 0
2, 5316, Note_on_c, 0, 57, 0
2, 5322, Note_on_c, 0, 64, 52
2, 5328, Note_on_c, 0, 64, 0
2, 5328, Note_on_c, 0, 52, 40
2, 5328, Note_on_c, 0, 57, 43
2, 5328, Note_on_c, 0, 62, 52
2, 5352, Note_on_c, 0, 62, 0
2, 5352, Note_on_c, 0, 57, 0
2, 5352, Note_on_c, 0, 52, 0
2, 5364, Note_on_c, 0, 52, 40
2, 5364, Note_on_c, 0, 57, 43
2, 5364, Note_on_c, 0, 60, 55
2, 5366, Control_c, 0, 64, 0
2, 5370, Control_c, 0, 64, 127
2, 5372, Note_on_c, 0, 52, 0
2, 5376, Note_on_c, 0, 54, 40
2, 5376, Note_on_c, 0, 62, 57
2, 5376, Control_c, 0, 64, 127
2, 5378, Control_c, 0, 64, 0
2, 5384, Control_c, 0, 64, 127
2, 5448, Note_on_c, 0, 62, 0
2, 5448, Note_on_c, 0, 57, 0
2, 5448, Note_on_c, 0, 60, 0
2, 5448, Note_on_c, 0, 54, 0
2, 5472, Note_on_c, 0, 50, 34
2, 5472, Note_on_c, 0, 55, 37
2, 5472, Note_on_c, 0, 59, 40
2, 5472, Note_on_c, 0, 62, 48
2, 5474, Control_c, 0, 64, 0
2, 5480, Control_c, 0, 64, 127
2, 5508, Note_on_c, 0, 62, 0
2, 5508, Note_on_c, 0, 50, 0
2, 5508, Note_on_c, 0, 55, 0
2, 5508, Note_on_c, 0, 59, 0
2, 5520, Note_on_c, 0, 55, 40
2, 5520, Note_on_c, 0, 63, 40
2, 5520, Note_on_c, 0, 65, 40
2, 5520, Note_on_c, 0, 67, 55
2, 5522, Control_c, 0, 64, 0
2, 5528, Control_c, 0, 64, 127
2, 5550, Control_c, 0, 64, 0
2, 5556, Note_on_c, 0, 67, 0
2, 5556, Note_on_c, 0, 55, 0
2, 5556, Note_on_c, 0, 63, 0
2, 5556, Note_on_c, 0, 65, 0
2, 5556, Note_on_c, 0, 36, 42
2, 5556, Control_c, 0, 64, 127
2, 5560, Note_on_c, 0, 43, 44
2, 5564, Note_on_c, 0, 48, 46
2, 5568, Note_on_c, 0, 55, 43
2, 5568, Note_on_c, 0, 64, 45
2, 5568, Note_on_c, 0, 67, 47
2, 5568, Note_on_c, 0, 76, 60
2, 5568, Control_c, 0, 64, 127
2, 5640, Note_on_c, 0, 76, 0
2, 5640, Note_on_c, 0, 64, 0
2, 5640, Note_on_c, 0, 43, 0
2, 5640, Note_on_c, 0, 48, 0
2, 5640, Note_on_c, 0, 36, 0
2, 5640, Note_on_c, 0, 67, 0
2, 5640, Note_on_c, 0, 55, 0
2, 5664, Note_on_c, 0, 62, 40
2, 5664, Note_on_c, 0, 67, 45
2, 5664, Note_on_c, 0, 74, 53
2, 5666, Control_c, 0, 64, 0
2, 5672, Control_c, 0, 64, 127
2, 5700, Note_on_c, 0, 74, 0
2, 5700, Note_on_c, 0, 67, 0
2, 5700, Note_on_c, 0, 62, 0
2, 5712, Note_on_c, 0, 64, 40
2, 5712, Note_on_c, 0, 67, 45
2, 5712, Note_on_c, 0, 76, 55
2, 5714, Control_c, 0, 64, 0
2, 5720, Control_c, 0, 64, 127
2, 5728, Note_on_c, 0, 76, 0
2, 5728, Note_on_c, 0, 67, 0
2, 5728, Note_on_c, 0, 64, 0
2, 5736, Note_on_c, 0, 65, 40
2, 5736, Note_on_c, 0, 67, 45
2, 5736, Note_on_c, 0, 71, 50
2, 5736, Note_on_c, 0, 77, 57
2, 5746, Note_on_c, 0, 36, 40
2, 5748, Note_on_c, 0, 43, 42
2, 5750, Note_on_c, 0, 48, 45
2, 5750, Control_c, 0, 64, 0
2, 5752, Note_on_c, 0, 77, 0
2, 5752, Note_on_c, 0, 71, 0
2, 5752, Note_on_c, 0, 65, 0
2, 5752, Note_on_c, 0, 67, 0
2, 5752, Note_on_c, 0, 55, 48
2, 5754, Note_on_c, 0, 64, 51
2, 5754, Control_c, 0, 64, 127
2, 5756, Note_on_c, 0, 67, 54
2, 5758, Note_on_c, 0, 72, 57
2, 5760, Note_on_c, 0, 76, 60
2, 5760, Control_c, 0, 64, 127
2, 5762, Control_c, 0, 64, 0
2, 5768, Control_c, 0, 64, 127
2, 5796, Note_on_c, 0, 76, 0
2, 5796, Note_on_c, 0, 43, 0
2, 5796, Note_on_c, 0, 64, 0
2, 5796, Note_on_c, 0, 36, 0
2, 5796, Note_on_c, 0, 48, 0
2, 5796, Note_on_c, 0, 55, 0
2, 5796, Note_on_c, 0, 67, 0
2, 5796, Note_on_c, 0, 72, 0
2, 5808, Note_on_c, 0, 55, 46
2, 5808, Note_on_c, 0, 60, 50
2, 5808, Note_on_c, 0, 64, 54
2, 5808, Note_on_c, 0, 67, 58
2, 5844, Note_on_c, 0, 67, 0
2, 5844, Note_on_c, 0, 55, 0
2, 5844, Note_on_c, 0, 60, 0
2, 5844, Note_on_c, 0, 64, 0
2, 5856, Note_on_c, 0, 60, 50
2, 5856, Note_on_c, 0, 64, 54
2, 5856, Note_on_c, 0, 69, 58
2, 5856, Note_on_c, 0, 72, 62
2, 5858, Control_c, 0, 64, 0
2, 5864, Control_c, 0, 64, 127
2, 5892, Note_on_c, 0, 72, 0
2, 5892, Note_on_c, 0, 60, 0
2, 5892, Note_on_c, 0, 64, 0
2, 5892, Note_on_c, 0, 69, 0
2, 5895, Note_on_c, 0, 64, 50
2, 5898, Note_on_c, 0, 64, 0
2, 5898, Note_on_c, 0, 67, 54
2, 5901, Note_on_c, 0, 67, 0
2, 5901, Note_on_c, 0, 71, 58
2, 5904, Note_on_c, 0, 71, 0
2, 5904, Note_on_c, 0, 76, 66
2, 5906, Control_c, 0, 64, 0
2, 5912, Control_c, 0, 64, 127
2, 5926, Control_c, 0, 64, 0
2, 5932, Note_on_c, 0, 36, 64
2, 5932, Control_c, 0, 64, 127
2, 5934, Note_on_c, 0, 43, 62
2, 5936, Note_on_c, 0, 48, 60
2, 5938, Note_on_c, 0, 52, 58
2, 5940, Note_on_c, 0, 55, 59
2, 5942, Note_on_c, 0, 60, 60
2, 5944, Note_on_c, 0, 64, 61
2, 5946, Note_on_c, 0, 67, 62
2, 5948, Note_on_c, 0, 72, 63
2, 5950, Note_on_c, 0, 76, 0
2, 5950, Note_on_c, 0, 76, 64
2, 5952, Note_on_c, 0, 79, 74
2, 5952, Control_c, 0, 64, 127
2, 5954, Control_c, 0, 64, 0
2, 5960, Control_c, 0, 64, 127
2, 6024, Note_on_c, 0, 79, 0
2, 6024, Note_on_c, 0, 72, 0
2, 6024, Note_on_c, 0, 67, 0
2, 6024, Note_on_c, 0, 52, 0
2, 6024, Note_on_c, 0, 36, 0
2, 6024, Note_on_c, 0, 55, 0
2, 6024, Note_on_c, 0, 43, 0
2, 6024, Note_on_c, 0, 48, 0
2, 6024, Note_on_c, 0, 64, 0
2, 6024, Note_on_c, 0, 60, 0
2, 6024, Note_on_c, 0, 76, 0
2, 6048, Note_on_c, 0, 64, 50
2, 6048, Note_on_c, 0, 68, 54
2, 6048, Note_on_c, 0, 71, 58
2, 6048, Note_on_c, 0, 76, 62
2, 6050, Control_c, 0, 64, 0
2, 6056, Control_c, 0, 64, 127
2, 6084, Note_on_c, 0, 76, 0
2, 6084, Note_on_c, 0, 64, 0
2, 6084, Note_on_c, 0, 68, 0
2, 6084, Note_on_c, 0, 71, 0
2, 6096, Note_on_c, 0, 60, 46
2, 6096, Note_on_c, 0, 62, 50
2, 6096, Note_on_c, 0, 69, 52
2, 6096, Note_on_c, 0, 74, 58
2, 6098, Control_c, 0, 64, 0
2, 6104, Control_c, 0, 64, 127
2, 6118, Control_c, 0, 64, 0
2, 6120, Note_on_c, 0, 74, 0
2, 6120, Note_on_c, 0, 60, 0
2, 6120, Note_on_c, 0, 62, 0
2, 6120, Note_on_c, 0, 69, 0
2, 6132, Note_on_c, 0, 59, 43
2, 6132, Note_on_c, 0, 65, 47
2, 6132, Note_on_c, 0, 67, 53
2, 6132, Control_c, 0, 64, 127
2, 6134, Note_on_c, 0, 67, 0
2, 6134, Note_on_c, 0, 65, 0
2, 6134, Note_on_c, 0, 59, 0
2, 6136, Note_on_c, 0, 59, 49
2, 6137, Note_on_c, 0, 59, 0
2, 6138, Note_on_c, 0, 59, 43
2, 6140, Note_on_c, 0, 65, 47
2, 6142, Note_on_c, 0, 67, 53
2, 6144, Note_on_c, 0, 74, 55
2, 6144, Control_c, 0, 64, 127
2, 6216, Note_on_c, 0, 74, 0
2, 6216, Note_on_c, 0, 59, 0
2, 6216, Note_on_c, 0, 65, 0
2, 6216, Note_on_c, 0, 67, 0
2, 6222, Control_c, 0, 64, 0
2, 6228, Note_on_c, 0, 36, 35
2, 6228, Control_c, 0, 64, 127
2, 6230, Note_on_c, 0, 43, 36
2, 6232, Note_on_c, 0, 48, 37
2, 6234, Note_on_c, 0, 55, 38
2, 6236, Note_on_c, 0, 60, 40
2, 6238, Note_on_c, 0, 64, 42
2, 6240, Note_on_c, 0, 72, 48
2, 6312, Note_on_c, 0, 72, 0
2, 6312, Note_on_c, 0, 60, 0
2, 6312, Note_on_c, 0, 43, 0
2, 6312, Note_on_c, 0, 48, 0
2, 6312, Note_on_c, 0, 36, 0
2, 6312, Note_on_c, 0, 64, 0
2, 6312, Note_on_c, 0, 55, 0
2, 6332, Control_c, 0, 64, 0
2, 6336, Note_on_c, 0, 69, 50
2, 6336, Note_on_c, 0, 72, 55
2, 6336, Note_on_c, 0, 81, 60
2, 6336, Control_c, 0, 64, 127
2, 6408, Note_on_c, 0, 81, 0
2, 6408, Note_on_c, 0, 72, 0
2, 6408, Note_on_c, 0, 69, 0
2, 6432, Note_on_c, 0, 67, 45
2, 6432, Note_on_c, 0, 72, 50
2, 6432, Note_on_c, 0, 79, 56
2, 6434, Control_c, 0, 64, 0
2, 6440, Control_c, 0, 64, 127
2, 6468, Note_on_c, 0, 79, 0
2, 6468, Note_on_c, 0, 72, 0
2, 6468, Note_on_c, 0, 67, 0
2, 6480, Note_on_c, 0, 67, 42
2, 6480, Note_on_c, 0, 69, 47
2, 6480, Note_on_c, 0, 72, 52
2, 6480, Note_on_c, 0, 81, 60
2, 6482, Control_c, 0, 64, 0
2, 6488, Control_c, 0, 64, 127
2, 6516, Note_on_c, 0, 81, 0
2, 6516, Note_on_c, 0, 67, 0
2, 6516, Note_on_c, 0, 69, 0
2, 6516, Note_on_c, 0, 72, 0
2, 6528, Note_on_c, 0, 66, 40
2, 6528, Note_on_c, 0, 69, 45
2, 6528, Note_on_c, 0, 74, 50
2, 6528, Note_on_c, 0, 78, 55
2, 6528, Control_c, 0, 64, 127
2, 6530, Control_c, 0, 64, 0
2, 6536, Control_c, 0, 64, 127
2, 6564, Note_on_c, 0, 78, 0
2, 6564, Note_on_c, 0, 66, 0
2, 6564, Note_on_c, 0, 69, 0
2, 6564, Note_on_c, 0, 74, 0
2, 6576, Note_on_c, 0, 60, 40
2, 6576, Note_on_c, 0, 62, 45
2, 6576, Note_on_c, 0, 69, 50
2, 6576, Note_on_c, 0, 74, 55
2, 6600, Note_on_c, 0, 74, 0
2, 6600, Note_on_c, 0, 60, 0
2, 6600, Note_on_c, 0, 62, 0
2, 6600, Note_on_c, 0, 69, 0
2, 6612, Note_on_c, 0, 62, 43
2, 6612, Note_on_c, 0, 70, 48
2, 6612, Note_on_c, 0, 74, 53
2, 6612, Control_c, 0, 64, 0
2, 6620, Note_on_c, 0, 74, 0
2, 6620, Note_on_c, 0, 70, 0
2, 6620, Note_on_c, 0, 62, 0
2, 6624, Note_on_c, 0, 62, 45
2, 6624, Note_on_c, 0, 71, 50
2, 6624, Note_on_c, 0, 74, 55
2, 6628, Control_c, 0, 64, 127
2, 6660, Note_on_c, 0, 74, 0
2, 6660, Note_on_c, 0, 71, 0
2, 6660, Note_on_c, 0, 62, 0
2, 6668, Control_c, 0, 64, 0
2, 6672, Note_on_c, 0, 62, 40
2, 6672, Note_on_c, 0, 66, 45
2, 6672, Note_on_c, 0, 74, 50
2, 6674, Control_c, 0, 64, 127
2, 6708, Note_on_c, 0, 74, 0
2, 6708, Note_on_c, 0, 66, 0
2, 6708, Note_on_c, 0, 62, 0
2, 6708, Control_c, 0, 64, 0
2, 6714, Note_on_c, 0, 71, 45
2, 6714, Control_c, 0, 64, 127
2, 6717, Note_on_c, 0, 74, 47
2, 6720, Note_on_c, 0, 83, 60
2, 6720, Control_c, 0, 64, 127
2, 6722, Control_c, 0, 64, 0
2, 6728, Control_c, 0, 64, 127
2, 6792, Note_on_c, 0, 83, 0
2, 6792, Note_on_c, 0, 74, 0
2, 6792, Note_on_c, 0, 71, 0
2, 6816, Note_on_c, 0, 69, 45
2, 6816, Note_on_c, 0, 74, 50
2, 6816, Note_on_c, 0, 81, 55
2, 6818, Control_c, 0, 64, 0
2, 6824, Control_c, 0, 64, 127
2, 6852, Note_on_c, 0, 81, 0
2, 6852, Note_on_c, 0, 74, 0
2, 6852, Note_on_c, 0, 69, 0
2, 6864, Note_on_c, 0, 69, 48
2, 6864, Note_on_c, 0, 71, 53
2, 6864, Note_on_c, 0, 75, 58
2, 6864, Note_on_c, 0, 83, 62
2, 6866, Control_c, 0, 64, 0
2, 6872, Control_c, 0, 64, 127
2, 6900, Note_on_c, 0, 83, 0
2, 6900, Note_on_c, 0, 69, 0
2, 6900, Note_on_c, 0, 71, 0
2, 6900, Note_on_c, 0, 75, 0
2, 6900, Control_c, 0, 64, 0
2, 6906, Control_c, 0, 64, 127
2, 6912, Note_on_c, 0, 68, 30
2, 6912, Note_on_c, 0, 71, 35
2, 6912, Note_on_c, 0, 76, 40
2, 6912, Note_on_c, 0, 80, 50
2, 6912, Control_c, 0, 64, 127
2, 6914, Control_c, 0, 64, 0
2, 6920, Control_c, 0, 64, 127
2, 6984, Note_on_c, 0, 80, 0
2, 6984, Note_on_c, 0, 68, 0
2, 6984, Note_on_c, 0, 71, 0
2, 6984, Note_on_c, 0, 76, 0
2, 7008, Note_on_c, 0, 67, 28
2, 7008, Note_on_c, 0, 71, 31
2, 7008, Note_on_c, 0, 76, 34
2, 7008, Note_on_c, 0, 79, 45
2, 7016, Control_c, 0, 64, 0
2, 7022, Control_c, 0, 64, 127
2, 7044, Note_on_c, 0, 79, 0
2, 7044, Note_on_c, 0, 67, 0
2, 7044, Note_on_c, 0, 71, 0
2, 7044, Note_on_c, 0, 76, 0
2, 7056, Note_on_c, 0, 65, 28
2, 7056, Note_on_c, 0, 67, 31
2, 7056, Note_on_c, 0, 74, 34
2, 7056, Note_on_c, 0, 79, 45
2, 7064, Control_c, 0, 64, 0
2, 7070, Control_c, 0, 64, 127
2, 7072, Note_on_c, 0, 74, 0
2, 7072, Note_on_c, 0, 77, 42
2, 7086, Control_c, 0, 64, 0
2, 7088, Note_on_c, 0, 77, 0
2, 7088, Note_on_c, 0, 76, 38
2, 7092, Note_on_c, 0, 79, 0
2, 7092, Note_on_c, 0, 65, 0
2, 7092, Note_on_c, 0, 67, 0
2, 7092, Note_on_c, 0, 64, 26
2, 7092, Control_c, 0, 64, 127
2, 7096, Note_on_c, 0, 76, 0
2, 7096, Note_on_c, 0, 72, 29
2, 7100, Note_on_c, 0, 76, 32
2, 7104, Note_on_c, 0, 79, 40
2, 7104, Control_c, 0, 64, 127
2, 7106, Control_c, 0, 64, 0
2, 7112, Control_c, 0, 64, 127
2, 7176, Note_on_c, 0, 79, 0
2, 7176, Note_on_c, 0, 64, 0
2, 7176, Note_on_c, 0, 72, 0
2, 7176, Note_on_c, 0, 76, 0
2, 7194, Control_c, 0, 64, 0
2, 7200, Note_on_c, 0, 65, 24
2, 7200, Note_on_c, 0, 67, 26
2, 7200, Note_on_c, 0, 71, 28
2, 7200, Note_on_c, 0, 74, 45
2, 7200, Note_on_c, 0, 79, 35
2, 7200, Control_c, 0, 64, 127
2, 7236, Note_on_c, 0, 79, 0
2, 7236, Note_on_c, 0, 71, 0
2, 7236, Note_on_c, 0, 65, 0
2, 7236, Note_on_c, 0, 67, 0
2, 7236, Note_on_c, 0, 74, 0
2, 7242, Control_c, 0, 64, 0
2, 7248, Note_on_c, 0, 65, 26
2, 7248, Note_on_c, 0, 67, 28
2, 7248, Note_on_c, 0, 71, 30
2, 7248, Note_on_c, 0, 76, 49
2, 7248, Note_on_c, 0, 79, 37
2, 7248, Control_c, 0, 64, 127
2, 7264, Note_on_c, 0, 79, 0
2, 7264, Note_on_c, 0, 71, 0
2, 7264, Note_on_c, 0, 65, 0
2, 7264, Note_on_c, 0, 67, 0
2, 7264, Note_on_c, 0, 76, 0
2, 7272, Note_on_c, 0, 65, 26
2, 7272, Note_on_c, 0, 67, 28
2, 7272, Note_on_c, 0, 71, 31
2, 7272, Note_on_c, 0, 77, 53
2, 7272, Note_on_c, 0, 79, 39
2, 7288, Note_on_c, 0, 79, 0
2, 7288, Note_on_c, 0, 71, 0
2, 7288, Note_on_c, 0, 65, 0
2, 7288, Note_on_c, 0, 67, 0
2, 7288, Note_on_c, 0, 77, 0
2, 7296, Note_on_c, 0, 64, 25
2, 7296, Note_on_c, 0, 72, 27
2, 7296, Note_on_c, 0, 76, 52
2, 7296, Note_on_c, 0, 79, 38
2, 7296, Control_c, 0, 64, 127
2, 7298, Control_c, 0, 64, 0
2, 7304, Control_c, 0, 64, 127
2, 7332, Note_on_c, 0, 79, 0
2, 7332, Note_on_c, 0, 64, 0
2, 7332, Note_on_c, 0, 72, 0
2, 7332, Note_on_c, 0, 76, 0
2, 7344, Note_on_c, 0, 55, 40
2, 7344, Note_on_c, 0, 60, 43
2, 7344, Note_on_c, 0, 64, 46
2, 7344, Note_on_c, 0, 67, 55
2, 7380, Note_on_c, 0, 67, 0
2, 7380, Note_on_c, 0, 55, 0
2, 7380, Note_on_c, 0, 60, 0
2, 7380, Note_on_c, 0, 64, 0
2, 7392, Note_on_c, 0, 60, 50
2, 7392, Note_on_c, 0, 64, 55
2, 7392, Note_on_c, 0, 69, 60
2, 7392, Note_on_c, 0, 72, 68
2, 7394, Control_c, 0, 64, 0
2, 7400, Control_c, 0, 64, 127
2, 7428, Note_on_c, 0, 72, 0
2, 7428, Note_on_c, 0, 60, 0
2, 7428, Note_on_c, 0, 64, 0
2, 7428, Note_on_c, 0, 69, 0
2, 7440, Note_on_c, 0, 64, 55
2, 7440, Note_on_c, 0, 67, 60
2, 7440, Note_on_c, 0, 72, 65
2, 7440, Note_on_c, 0, 76, 73
2, 7442, Control_c, 0, 64, 0
2, 7448, Control_c, 0, 64, 127
2, 7476, Note_on_c, 0, 76, 0
2, 7476, Note_on_c, 0, 64, 0
2, 7476, Note_on_c, 0, 67, 0
2, 7476, Note_on_c, 0, 72, 0
2, 7488, Note_on_c, 0, 67, 55
2, 7488, Note_on_c, 0, 72, 60
2, 7488, Note_on_c, 0, 76, 65
2, 7488, Note_on_c, 0, 79, 75
2, 7488, Control_c, 0, 64, 127
2, 7490, Control_c, 0, 64, 0
2, 7496, Control_c, 0, 64, 127
2, 7504, Note_on_c, 0, 79, 0
2, 7504, Note_on_c, 0, 67, 0
2, 7504, Note_on_c, 0, 72, 0
2, 7504, Note_on_c, 0, 76, 0
2, 7512, Note_on_c, 0, 54, 53
2, 7512, Note_on_c, 0, 66, 53
2, 7512, Control_c, 0, 64, 0
2, 7520, Note_on_c, 0, 66, 0
2, 7520, Note_on_c, 0, 54, 0
2, 7520, Note_on_c, 0, 55, 54
2, 7520, Note_on_c, 0, 67, 54
2, 7528, Note_on_c, 0, 67, 0
2, 7528, Note_on_c, 0, 55, 0
2, 7528, Note_on_c, 0, 55, 55
2, 7528, Note_on_c, 0, 67, 55
2, 7536, Note_on_c, 0, 67, 0
2, 7536, Note_on_c, 0, 55, 0
2, 7536, Note_on_c, 0, 55, 56
2, 7536, Note_on_c, 0, 67, 56
2, 7544, Note_on_c, 0, 67, 0
2, 7544, Note_on_c, 0, 55, 0
2, 7544, Note_on_c, 0, 56, 58
2, 7544, Note_on_c, 0, 68, 58
2, 7552, Note_on_c, 0, 68, 0
2, 7552, Note_on_c, 0, 56, 0
2, 7552, Note_on_c, 0, 56, 60
2, 7552, Note_on_c, 0, 68, 60
2, 7560, Note_on_c, 0, 68, 0
2, 7560, Note_on_c, 0, 56, 0
2, 7560, Note_on_c, 0, 56, 64
2, 7560, Note_on_c, 0, 68, 64
2, 7562, Control_c, 0, 64, 127
2, 7568, Note_on_c, 0, 68, 0
2, 7568, Note_on_c, 0, 56, 0
2, 7568, Note_on_c, 0, 55, 68
2, 7568, Note_on_c, 0, 67, 68
2, 7576, Note_on_c, 0, 67, 0
2, 7576, Note_on_c, 0, 55, 0
2, 7576, Note_on_c, 0, 55, 75
2, 7576, Note_on_c, 0, 67, 75
2, 7582, Note_on_c, 0, 67, 0
2, 7582, Note_on_c, 0, 55, 0
2, 7586, Control_c, 0, 64, 0
2, 7590, Note_on_c, 0, 64, 70
2, 7590, Note_on_c, 0, 67, 75
2, 7590, Note_on_c, 0, 76, 80
2, 7592, Control_c, 0, 64, 127
2, 7628, Control_c, 0, 64, 0
2, 7632, Note_on_c, 0, 76, 0
2, 7632, Note_on_c, 0, 67, 0
2, 7632, Note_on_c, 0, 64, 0
2, 7632, Note_on_c, 0, 62, 65
2, 7632, Note_on_c, 0, 67, 70
2, 7632, Note_on_c, 0, 74, 75
2, 7634, Control_c, 0, 64, 0
2, 7650, Control_c, 0, 64, 0
2, 7656, Note_on_c, 0, 74, 0
2, 7656, Note_on_c, 0, 67, 0
2, 7656, Note_on_c, 0, 62, 0
2, 7656, Note_on_c, 0, 55, 60
2, 7656, Note_on_c, 0, 59, 65
2, 7656, Note_on_c, 0, 65, 70
2, 7656, Note_on_c, 0, 67, 75
2, 7656, Control_c, 0, 64, 127
2, 7680, Note_on_c, 0, 67, 0
2, 7680, Note_on_c, 0, 55, 0
2, 7680, Note_on_c, 0, 59, 0
2, 7680, Note_on_c, 0, 65, 0
2, 7680, Note_on_c, 0, 62, 65
2, 7680, Note_on_c, 0, 65, 70
2, 7680, Note_on_c, 0, 67, 75
2, 7680, Note_on_c, 0, 74, 85
2, 7680, Control_c, 0, 64, 127
2, 7682, Control_c, 0, 64, 0
2, 7688, Control_c, 0, 64, 127
2, 7698, Control_c, 0, 64, 0
2, 7702, Note_on_c, 0, 74, 0
2, 7702, Note_on_c, 0, 62, 0
2, 7702, Note_on_c, 0, 65, 0
2, 7702, Note_on_c, 0, 67, 0
2, 7704, Note_on_c, 0, 54, 55
2, 7704, Note_on_c, 0, 66, 55
2, 7712, Note_on_c, 0, 66, 0
2, 7712, Note_on_c, 0, 54, 0
2, 7712, Note_on_c, 0, 55, 56
2, 7712, Note_on_c, 0, 67, 56
2, 7720, Note_on_c, 0, 67, 0
2, 7720, Note_on_c, 0, 55, 0
2, 7720, Note_on_c, 0, 55, 57
2, 7720, Note_on_c, 0, 67, 57
2, 7728, Note_on_c, 0, 67, 0
2, 7728, Note_on_c, 0, 55, 0
2, 7728, Note_on_c, 0, 56, 58
2, 7728, Note_on_c, 0, 68, 58
2, 7736, Note_on_c, 0, 68, 0
2, 7736, Note_on_c, 0, 56, 0
2, 7736, Note_on_c, 0, 57, 60
2, 7736, Note_on_c, 0, 69, 60
2, 7744, Note_on_c, 0, 69, 0
2, 7744, Note_on_c, 0, 57, 0
2, 7744, Note_on_c, 0, 57, 62
2, 7744, Note_on_c, 0, 69, 62
2, 7752, Note_on_c, 0, 69, 0
2, 7752, Note_on_c, 0, 57, 0
2, 7752, Note_on_c, 0, 58, 64
2, 7752, Note_on_c, 0, 70, 64
2, 7760, Note_on_c, 0, 70, 0
2, 7760, Note_on_c, 0, 58, 0
2, 7760, Note_on_c, 0, 59, 67
2, 7760, Note_on_c, 0, 71, 67
2, 7768, Note_on_c, 0, 71, 0
2, 7768, Note_on_c, 0, 59, 0
2, 7768, Note_on_c, 0, 59, 70
2, 7768, Note_on_c, 0, 71, 70
2, 7776, Note_on_c, 0, 71, 0
2, 7776, Note_on_c, 0, 59, 0
2, 7776, Note_on_c, 0, 60, 70
2, 7776, Note_on_c, 0, 64, 70
2, 7776, Note_on_c, 0, 72, 75
2, 7782, Control_c, 0, 64, 127
2, 7872, Note_on_c, 0, 72, 0
2, 7872, Note_on_c, 0, 64, 0
2, 7872, Note_on_c, 0, 60, 0
2, 7872, Note_on_c, 0, 69, 80
2, 7872, Note_on_c, 0, 72, 75
2, 7872, Note_on_c, 0, 81, 85
2, 7872, Control_c, 0, 64, 127
2, 7890, Control_c, 0, 64, 0
2, 7894, Note_on_c, 0, 81, 0
2, 7894, Note_on_c, 0, 72, 0
2, 7894, Note_on_c, 0, 69, 0
2, 7896, Note_on_c, 0, 59, 58
2, 7896, Note_on_c, 0, 71, 58
2, 7904, Note_on_c, 0, 71, 0
2, 7904, Note_on_c, 0, 59, 0
2, 7904, Note_on_c, 0, 60, 59
2, 7904, Note_on_c, 0, 72, 59
2, 7912, Note_on_c, 0, 72, 0
2, 7912, Note_on_c, 0, 60, 0
2, 7912, Note_on_c, 0, 60, 60
2, 7912, Note_on_c, 0, 72, 60
2, 7920, Note_on_c, 0, 72, 0
2, 7920, Note_on_c, 0, 60, 0
2, 7920, Note_on_c, 0, 60, 61
2, 7920, Note_on_c, 0, 72, 61
2, 7928, Note_on_c, 0, 72, 0
2, 7928, Note_on_c, 0, 60, 0
2, 7928, Note_on_c, 0, 61, 62
2, 7928, Note_on_c, 0, 73, 62
2, 7936, Note_on_c, 0, 73, 0
2, 7936, Note_on_c, 0, 61, 0
2, 7936, Note_on_c, 0, 61, 64
2, 7936, Note_on_c, 0, 73, 64
2, 7944, Note_on_c, 0, 73, 0
2, 7944, Note_on_c, 0, 61, 0
2, 7944, Note_on_c, 0, 61, 66
2, 7944, Note_on_c, 0, 73, 66
2, 7952, Note_on_c, 0, 73, 0
2, 7952, Note_on_c, 0, 61, 0
2, 7952, Note_on_c, 0, 62, 69
2, 7952, Note_on_c, 0, 74, 69
2, 7960, Note_on_c, 0, 74, 0
2, 7960, Note_on_c, 0, 62, 0
2, 7960, Note_on_c, 0, 63, 72
2, 7960, Note_on_c, 0, 75, 72
2, 7968, Note_on_c, 0, 75, 0
2, 7968, Note_on_c, 0, 63, 0
2, 7968, Note_on_c, 0, 67, 78
2, 7968, Note_on_c, 0, 72, 73
2, 7968, Note_on_c, 0, 75, 71
2, 7968, Note_on_c, 0, 79, 86
2, 7974, Control_c, 0, 64, 127
2, 7986, Control_c, 0, 64, 0
2, 7990, Note_on_c, 0, 79, 0
2, 7990, Note_on_c, 0, 67, 0
2, 7990, Note_on_c, 0, 72, 0
2, 7990, Note_on_c, 0, 75, 0
2, 7992, Note_on_c, 0, 60, 58
2, 7992, Note_on_c, 0, 72, 58
2, 8000, Note_on_c, 0, 72, 0
2, 8000, Note_on_c, 0, 60, 0
2, 8000, Note_on_c, 0, 61, 59
2, 8000, Note_on_c, 0, 73, 59
2, 8008, Note_on_c, 0, 73, 0
2, 8008, Note_on_c, 0, 61, 0
2, 8008, Note_on_c, 0, 61, 60
2, 8008, Note_on_c, 0, 73, 60
2, 8016, Note_on_c, 0, 73, 0
2, 8016, Note_on_c, 0, 61, 0
2, 8016, Note_on_c, 0, 61, 61
2, 8016, Note_on_c, 0, 73, 61
2, 8024, Note_on_c, 0, 73, 0
2, 8024, Note_on_c, 0, 61, 0
2, 8024, Note_on_c, 0, 62, 62
2, 8024, Note_on_c, 0, 74, 62
2, 8032, Note_on_c, 0, 74, 0
2, 8032, Note_on_c, 0, 62, 0
2, 8032, Note_on_c, 0, 62, 64
2, 8032, Note_on_c, 0, 74, 64
2, 8040, Note_on_c, 0, 74, 0
2, 8040, Note_on_c, 0, 62, 0
2, 8040, Note_on_c, 0, 62, 66
2, 8040, Note_on_c, 0, 74, 66
2, 8048, Note_on_c, 0, 74, 0
2, 8048, Note_on_c, 0, 62, 0
2, 8048, Note_on_c, 0, 63, 69
2, 8048, Note_on_c, 0, 75, 69
2, 8056, Note_on_c, 0, 75, 0
2, 8056, Note_on_c, 0, 63, 0
2, 8056, Note_on_c, 0, 67, 76
2, 8056, Note_on_c, 0, 69, 78
2, 8056, Note_on_c, 0, 72, 85
2, 8056, Note_on_c, 0, 81, 90
2, 8064, Note_on_c, 0, 81, 0
2, 8064, Note_on_c, 0, 67, 0
2, 8064, Note_on_c, 0, 69, 0
2, 8064, Note_on_c, 0, 72, 0
2, 8064, Note_on_c, 0, 66, 78
2, 8064, Note_on_c, 0, 69, 80
2, 8064, Note_on_c, 0, 74, 82
2, 8064, Note_on_c, 0, 78, 90
2, 8064, Control_c, 0, 64, 0
2, 8066, Control_c, 0, 64, 127
2, 8082, Control_c, 0, 64, 0
2, 8086, Note_on_c, 0, 78, 0
2, 8086, Note_on_c, 0, 66, 0
2, 8086, Note_on_c, 0, 69, 0
2, 8086, Note_on_c, 0, 74, 0
2, 8088, Note_on_c, 0, 61, 60
2, 8088, Note_on_c, 0, 73, 60
2, 8096, Note_on_c, 0, 73, 0
2, 8096, Note_on_c, 0, 61, 0
2, 8096, Note_on_c, 0, 62, 61
2, 8096, Note_on_c, 0, 74, 61
2, 8104, Note_on_c, 0, 74, 0
2, 8104, Note_on_c, 0, 62, 0
2, 8104, Note_on_c, 0, 62, 62
2, 8104, Note_on_c, 0, 74, 62
2, 8112, Note_on_c, 0, 74, 0
2, 8112, Note_on_c, 0, 62, 0
2, 8112, Note_on_c, 0, 62, 70
2, 8112, Note_on_c, 0, 74, 70
2, 8120, Note_on_c, 0, 74, 0
2, 8120, Note_on_c, 0, 62, 0
2, 8120, Note_on_c, 0, 63, 65
2, 8120, Note_on_c, 0, 75, 65
2, 8128, Note_on_c, 0, 75, 0
2, 8128, Note_on_c, 0, 63, 0
2, 8128, Note_on_c, 0, 63, 66
2, 8128, Note_on_c, 0, 75, 66
2, 8136, Note_on_c, 0, 75, 0
2, 8136, Note_on_c, 0, 63, 0
2, 8136, Note_on_c, 0, 63, 67
2, 8136, Note_on_c, 0, 75, 67
2, 8144, Note_on_c, 0, 75, 0
2, 8144, Note_on_c, 0, 63, 0
2, 8144, Note_on_c, 0, 64, 75
2, 8144, Note_on_c, 0, 76, 75
2, 8152, Note_on_c, 0, 76, 0
2, 8152, Note_on_c, 0, 64, 0
2, 8152, Note_on_c, 0, 64, 70
2, 8152, Note_on_c, 0, 76, 70
2, 8160, Note_on_c, 0, 76, 0
2, 8160, Note_on_c, 0, 64, 0
2, 8160, Note_on_c, 0, 64, 71
2, 8160, Note_on_c, 0, 76, 71
2, 8168, Note_on_c, 0, 76, 0
2, 8168, Note_on_c, 0, 64, 0
2, 8168, Note_on_c, 0, 65, 72
2, 8168, Note_on_c, 0, 77, 72
2, 8176, Note_on_c, 0, 77, 0
2, 8176, Note_on_c, 0, 65, 0
2, 8176, Note_on_c, 0, 65, 74
2, 8176, Note_on_c, 0, 77, 74
2, 8184, Note_on_c, 0, 77, 0
2, 8184, Note_on_c, 0, 65, 0
2, 8184, Note_on_c, 0, 65, 83
2, 8184, Note_on_c, 0, 77, 83
2, 8192, Note_on_c, 0, 77, 0
2, 8192, Note_on_c, 0, 65, 0
2, 8192, Note_on_c, 0, 66, 77
2, 8192, Note_on_c, 0, 78, 77
2, 8200, Note_on_c, 0, 78, 0
2, 8200, Note_on_c, 0, 66, 0
2, 8200, Note_on_c, 0, 66, 78
2, 8200, Note_on_c, 0, 78, 78
2, 8208, Note_on_c, 0, 78, 0
2, 8208, Note_on_c, 0, 66, 0
2, 8208, Note_on_c, 0, 66, 79
2, 8208, Note_on_c, 0, 78, 79
2, 8216, Note_on_c, 0, 78, 0
2, 8216, Note_on_c, 0, 66, 0
2, 8216, Note_on_c, 0, 67, 85
2, 8216, Note_on_c, 0, 79, 85
2, 8224, Note_on_c, 0, 79, 0
2, 8224, Note_on_c, 0, 67, 0
2, 8224, Note_on_c, 0, 68, 81
2, 8224, Note_on_c, 0, 80, 81
2, 8232, Note_on_c, 0, 80, 0
2, 8232, Note_on_c, 0, 68, 0
2, 8232, Note_on_c, 0, 68, 82
2, 8232, Note_on_c, 0, 80, 82
2, 8240, Note_on_c, 0, 80, 0
2, 8240, Note_on_c, 0, 68, 0
2, 8240, Note_on_c, 0, 69, 83
2, 8240, Note_on_c, 0, 81, 83
2, 8248, Note_on_c, 0, 81, 0
2, 8248, Note_on_c, 0, 69, 0
2, 8248, Note_on_c, 0, 70, 84
2, 8248, Note_on_c, 0, 82, 84
2, 8256, Note_on_c, 0, 82, 0
2, 8256, Note_on_c, 0, 70, 0
2, 8256, Note_on_c, 0, 71, 85
2, 8256, Note_on_c, 0, 74, 85
2, 8256, Note_on_c, 0, 83, 95
2, 8256, Control_c, 0, 64, 0
2, 8258, Control_c, 0, 64, 127
2, 8274, Control_c, 0, 64, 0
2, 8278, Note_on_c, 0, 83, 0
2, 8278, Note_on_c, 0, 74, 0
2, 8278, Note_on_c, 0, 71, 0
2, 8280, Note_on_c, 0, 61, 68
2, 8280, Note_on_c, 0, 73, 68
2, 8288, Note_on_c, 0, 73, 0
2, 8288, Note_on_c, 0, 61, 0
2, 8288, Note_on_c, 0, 62, 69
2, 8288, Note_on_c, 0, 74, 69
2, 8296, Note_on_c, 0, 74, 0
2, 8296, Note_on_c, 0, 62, 0
2, 8296, Note_on_c, 0, 62, 70
2, 8296, Note_on_c, 0, 74, 70
2, 8304, Note_on_c, 0, 74, 0
2, 8304, Note_on_c, 0, 62, 0
2, 8304, Note_on_c, 0, 62, 71
2, 8304, Note_on_c, 0, 74, 71
2, 8312, Note_on_c, 0, 74, 0
2, 8312, Note_on_c, 0, 62, 0
2, 8312, Note_on_c, 0, 63, 72
2, 8312, Note_on_c, 0, 75, 72
2, 8320, Note_on_c, 0, 75, 0
2, 8320, Note_on_c, 0, 63, 0
2, 8320, Note_on_c, 0, 63, 74
2, 8320, Note_on_c, 0, 75, 74
2, 8328, Note_on_c, 0, 75, 0
2, 8328, Note_on_c, 0, 63, 0
2, 8328, Note_on_c, 0, 63, 76
2, 8328, Note_on_c, 0, 75, 76
2, 8336, Note_on_c, 0, 75, 0
2, 8336, Note_on_c, 0, 63, 0
2, 8336, Note_on_c, 0, 64, 79
2, 8336, Note_on_c, 0, 76, 79
2, 8344, Note_on_c, 0, 76, 0
2, 8344, Note_on_c, 0, 64, 0
2, 8344, Note_on_c, 0, 65, 82
2, 8344, Note_on_c, 0, 77, 82
2, 8352, Note_on_c, 0, 77, 0
2, 8352, Note_on_c, 0, 65, 0
2, 8352, Note_on_c, 0, 69, 88
2, 8352, Note_on_c, 0, 71, 85
2, 8352, Note_on_c, 0, 74, 85
2, 8352, Note_on_c, 0, 81, 98
2, 8358, Control_c, 0, 64, 127
2, 8370, Control_c, 0, 64, 0
2, 8374, Note_on_c, 0, 81, 0
2, 8374, Note_on_c, 0, 69, 0
2, 8374, Note_on_c, 0, 71, 0
2, 8374, Note_on_c, 0, 74, 0
2, 8376, Note_on_c, 0, 62, 68
2, 8376, Note_on_c, 0, 74, 68
2, 8384, Note_on_c, 0, 74, 0
2, 8384, Note_on_c, 0, 62, 0
2, 8384, Note_on_c, 0, 63, 69
2, 8384, Note_on_c, 0, 75, 69
2, 8392, Note_on_c, 0, 75, 0
2, 8392, Note_on_c, 0, 63, 0
2, 8392, Note_on_c, 0, 63, 70
2, 8392, Note_on_c, 0, 75, 70
2, 8400, Note_on_c, 0, 75, 0
2, 8400, Note_on_c, 0, 63, 0
2, 8400, Note_on_c, 0, 63, 71
2, 8400, Note_on_c, 0, 75, 71
2, 8408, Note_on_c, 0, 75, 0
2, 8408, Note_on_c, 0, 63, 0
2, 8408, Note_on_c, 0, 64, 72
2, 8408, Note_on_c, 0, 76, 72
2, 8416, Note_on_c, 0, 76, 0
2, 8416, Note_on_c, 0, 64, 0
2, 8416, Note_on_c, 0, 64, 74
2, 8416, Note_on_c, 0, 76, 74
2, 8424, Note_on_c, 0, 76, 0
2, 8424, Note_on_c, 0, 64, 0
2, 8424, Note_on_c, 0, 64, 76
2, 8424, Note_on_c, 0, 76, 76
2, 8432, Note_on_c, 0, 76, 0
2, 8432, Note_on_c, 0, 64, 0
2, 8432, Note_on_c, 0, 65, 79
2, 8432, Note_on_c, 0, 77, 79
2, 8440, Note_on_c, 0, 77, 0
2, 8440, Note_on_c, 0, 65, 0
2, 8440, Note_on_c, 0, 69, 85
2, 8440, Note_on_c, 0, 71, 88
2, 8440, Note_on_c, 0, 75, 91
2, 8440, Note_on_c, 0, 83, 100
2, 8440, Control_c, 0, 64, 127
2, 8446, Control_c, 0, 64, 0
2, 8448, Note_on_c, 0, 83, 0
2, 8448, Note_on_c, 0, 69, 0
2, 8448, Note_on_c, 0, 71, 0
2, 8448, Note_on_c, 0, 75, 0
2, 8448, Note_on_c, 0, 68, 83
2, 8448, Note_on_c, 0, 71, 86
2, 8448, Note_on_c, 0, 76, 89
2, 8448, Note_on_c, 0, 80, 100
2, 8448, Control_c, 0, 64, 0
2, 8450, Control_c, 0, 64, 127
2, 8466, Control_c, 0, 64, 0
2, 8470, Note_on_c, 0, 80, 0
2, 8470, Note_on_c, 0, 68, 0
2, 8470, Note_on_c, 0, 71, 0
2, 8470, Note_on_c, 0, 76, 0
2, 8472, Note_on_c, 0, 63, 70
2, 8472, Note_on_c, 0, 75, 70
2, 8480, Note_on_c, 0, 75, 0
2, 8480, Note_on_c, 0, 63, 0
2, 8480, Note_on_c, 0, 64, 67
2, 8480, Note_on_c, 0, 76, 67
2, 8488, Note_on_c, 0, 76, 0
2, 8488, Note_on_c, 0, 64, 0
2, 8488, Note_on_c, 0, 64, 69
2, 8488, Note_on_c, 0, 76, 69
2, 8496, Note_on_c, 0, 76, 0
2, 8496, Note_on_c, 0, 64, 0
2, 8496, Note_on_c, 0, 64, 70
2, 8496, Note_on_c, 0, 76, 70
2, 8504, Note_on_c, 0, 76, 0
2, 8504, Note_on_c, 0, 64, 0
2, 8504, Note_on_c, 0, 65, 71
2, 8504, Note_on_c, 0, 77, 71
2, 8512, Note_on_c, 0, 77, 0
2, 8512, Note_on_c, 0, 65, 0
2, 8512, Note_on_c, 0, 65, 77
2, 8512, Note_on_c, 0, 77, 77
2, 8520, Note_on_c, 0, 77, 0
2, 8520, Note_on_c, 0, 65, 0
2, 8520, Note_on_c, 0, 65, 73
2, 8520, Note_on_c, 0, 77, 73
2, 8528, Note_on_c, 0, 77, 0
2, 8528, Note_on_c, 0, 65, 0
2, 8528, Note_on_c, 0, 66, 80
2, 8528, Note_on_c, 0, 78, 80
2, 8536, Note_on_c, 0, 78, 0
2, 8536, Note_on_c, 0, 66, 0
2, 8536, Note_on_c, 0, 66, 81
2, 8536, Note_on_c, 0, 78, 81
2, 8544, Note_on_c, 0, 78, 0
2, 8544, Note_on_c, 0, 66, 0
2, 8544, Note_on_c, 0, 66, 82
2, 8544, Note_on_c, 0, 78, 82
2, 8552, Note_on_c, 0, 78, 0
2, 8552, Note_on_c, 0, 66, 0
2, 8552, Note_on_c, 0, 67, 82
2, 8552, Note_on_c, 0, 79, 82
2, 8560, Note_on_c, 0, 79, 0
2, 8560, Note_on_c, 0, 67, 0
2, 8560, Note_on_c, 0, 67, 84
2, 8560, Note_on_c, 0, 79, 84
2, 8568, Note_on_c, 0, 79, 0
2, 8568, Note_on_c, 0, 67, 0
2, 8568, Note_on_c, 0, 67, 86
2, 8568, Note_on_c, 0, 79, 86
2, 8576, Note_on_c, 0, 79, 0
2, 8576, Note_on_c, 0, 67, 0
2, 8576, Note_on_c, 0, 67, 88
2, 8576, Note_on_c, 0, 77, 86
2, 8576, Note_on_c, 0, 79, 88
2, 8584, Note_on_c, 0, 79, 0
2, 8584, Note_on_c, 0, 77, 0
2, 8584, Note_on_c, 0, 67, 0
2, 8584, Note_on_c, 0, 67, 90
2, 8584, Note_on_c, 0, 77, 88
2, 8584, Note_on_c, 0, 79, 90
2, 8592, Note_on_c, 0, 79, 0
2, 8592, Note_on_c, 0, 77, 0
2, 8592, Note_on_c, 0, 67, 0
2, 8592, Note_on_c, 0, 67, 92
2, 8592, Note_on_c, 0, 77, 90
2, 8592, Note_on_c, 0, 79, 92
2, 8600, Note_on_c, 0, 79, 0
2, 8600, Note_on_c, 0, 77, 0
2, 8600, Note_on_c, 0, 67, 0
2, 8600, Note_on_c, 0, 67, 94
2, 8600, Note_on_c, 0, 77, 92
2, 8600, Note_on_c, 0, 79, 94
2, 8608, Note_on_c, 0, 79, 0
2, 8608, Note_on_c, 0, 77, 0
2, 8608, Note_on_c, 0, 67, 0
2, 8608, Note_on_c, 0, 67, 96
2, 8608, Note_on_c, 0, 77, 94
2, 8608, Note_on_c, 0, 79, 96
2, 8616, Note_on_c, 0, 79, 0
2, 8616, Note_on_c, 0, 77, 0
2, 8616, Note_on_c, 0, 67, 0
2, 8616, Note_on_c, 0, 67, 98
2, 8616, Note_on_c, 0, 71, 88
2, 8616, Note_on_c, 0, 77, 96
2, 8616, Note_on_c, 0, 79, 98
2, 8624, Note_on_c, 0, 79, 0
2, 8624, Note_on_c, 0, 67, 0
2, 8624, Note_on_c, 0, 71, 0
2, 8624, Note_on_c, 0, 77, 0
2, 8624, Note_on_c, 0, 67, 100
2, 8624, Note_on_c, 0, 71, 90
2, 8624, Note_on_c, 0, 77, 98
2, 8624, Note_on_c, 0, 79, 100
2, 8632, Note_on_c, 0, 79, 0
2, 8632, Note_on_c, 0, 67, 0
2, 8632, Note_on_c, 0, 71, 0
2, 8632, Note_on_c, 0, 77, 0
2, 8632, Note_on_c, 0, 67, 100
2, 8632, Note_on_c, 0, 71, 90
2, 8632, Note_on_c, 0, 77, 98
2, 8632, Note_on_c, 0, 79, 100
2, 8640, Note_on_c, 0, 79, 0
2, 8640, Note_on_c, 0, 67, 0
2, 8640, Note_on_c, 0, 71, 0
2, 8640, Note_on_c, 0, 77, 0
2, 8640, Note_on_c, 0, 76, 110
2, 8640, Note_on_c, 0, 79, 106
2, 8640, Note_on_c, 0, 88, 110
2, 8640, Control_c, 0, 64, 0
2, 8642, Control_c, 0, 64, 127
2, 8662, Note_on_c, 0, 88, 0
2, 8662, Note_on_c, 0, 79, 0
2, 8662, Note_on_c, 0, 76, 0
2, 8664, Note_on_c, 0, 54, 85
2, 8667, Note_on_c, 0, 54, 0
2, 8667, Note_on_c, 0, 55, 81
2, 8670, Note_on_c, 0, 55, 0
2, 8670, Note_on_c, 0, 57, 79
2, 8673, Note_on_c, 0, 57, 0
2, 8673, Note_on_c, 0, 55, 75
2, 8676, Note_on_c, 0, 55, 0
2, 8676, Note_on_c, 0, 57, 71
2, 8679, Note_on_c, 0, 57, 0
2, 8679, Note_on_c, 0, 55, 70
2, 8682, Note_on_c, 0, 55, 0
2, 8682, Note_on_c, 0, 57, 69
2, 8685, Note_on_c, 0, 57, 0
2, 8685, Note_on_c, 0, 55, 67
2, 8688, Note_on_c, 0, 55, 0
2, 8688, Note_on_c, 0, 57, 69
2, 8691, Note_on_c, 0, 57, 0
2, 8691, Note_on_c, 0, 55, 67
2, 8694, Note_on_c, 0, 55, 0
2, 8694, Note_on_c, 0, 57, 69
2, 8697, Note_on_c, 0, 57, 0
2, 8697, Note_on_c, 0, 55, 67
2, 8700, Note_on_c, 0, 55, 0
2, 8700, Note_on_c, 0, 57, 69
2, 8703, Note_on_c, 0, 57, 0
2, 8703, Note_on_c, 0, 55, 67
2, 8706, Note_on_c, 0, 55, 0
2, 8706, Note_on_c, 0, 57, 69
2, 8709, Note_on_c, 0, 57, 0
2, 8709, Note_on_c, 0, 55, 67
2, 8712, Note_on_c, 0, 55, 0
2, 8712, Note_on_c, 0, 57, 69
2, 8715, Note_on_c, 0, 57, 0
2, 8715, Note_on_c, 0, 55, 68
2, 8718, Note_on_c, 0, 55, 0
2, 8718, Note_on_c, 0, 57, 71
2, 8721, Note_on_c, 0, 57, 0
2, 8721, Note_on_c, 0, 55, 70
2, 8724, Note_on_c, 0, 55, 0
2, 8724, Note_on_c, 0, 57, 70
2, 8727, Note_on_c, 0, 57, 0
2, 8727, Note_on_c, 0, 55, 71
2, 8730, Note_on_c, 0, 55, 0
2, 8730, Note_on_c, 0, 54, 79
2, 8733, Note_on_c, 0, 54, 0
2, 8733, Note_on_c, 0, 55, 85
2, 8736, Note_on_c, 0, 55, 0
2, 8736, Note_on_c, 0, 76, 108
2, 8736, Note_on_c, 0, 79, 104
2, 8736, Note_on_c, 0, 88, 108
2, 8738, Control_c, 0, 64, 0
2, 8744, Control_c, 0, 64, 127
2, 8760, Note_on_c, 0, 88, 0
2, 8760, Note_on_c, 0, 79, 0
2, 8760, Note_on_c, 0, 76, 0
2, 8766, Note_on_c, 0, 74, 104
2, 8766, Note_on_c, 0, 79, 100
2, 8766, Note_on_c, 0, 86, 104
2, 8780, Control_c, 0, 64, 0
2, 8786, Control_c, 0, 64, 127
2, 8790, Note_on_c, 0, 86, 0
2, 8790, Note_on_c, 0, 79, 0
2, 8790, Note_on_c, 0, 74, 0
2, 8790, Note_on_c, 0, 76, 110
2, 8790, Note_on_c, 0, 79, 106
2, 8790, Note_on_c, 0, 88, 110
2, 8810, Control_c, 0, 64, 0
2, 8814, Note_on_c, 0, 88, 0
2, 8814, Note_on_c, 0, 79, 0
2, 8814, Note_on_c, 0, 76, 0
2, 8814, Note_on_c, 0, 77, 115
2, 8814, Note_on_c, 0, 79, 110
2, 8814, Note_on_c, 0, 83, 110
2, 8814, Note_on_c, 0, 89, 115
2, 8830, Note_on_c, 0, 89, 0
2, 8830, Note_on_c, 0, 77, 0
2, 8830, Note_on_c, 0, 79, 0
2, 8830, Note_on_c, 0, 83, 0
2, 8832, Note_on_c, 0, 76, 113
2, 8832, Note_on_c, 0, 79, 108
2, 8832, Note_on_c, 0, 84, 108
2, 8832, Note_on_c, 0, 88, 113
2, 8832, Control_c, 0, 64, 127
2, 8840, Note_on_c, 0, 88, 0
2, 8840, Note_on_c, 0, 76, 0
2, 8840, Note_on_c, 0, 79, 0
2, 8840, Note_on_c, 0, 84, 0
2, 8840, Note_on_c, 0, 84, 99
2, 8840, Note_on_c, 0, 96, 99
2, 8842, Control_c, 0, 64, 0
2, 8848, Note_on_c, 0, 96, 0
2, 8848, Note_on_c, 0, 84, 0
2, 8848, Note_on_c, 0, 86, 101
2, 8848, Note_on_c, 0, 98, 101
2, 8856, Note_on_c, 0, 98, 0
2, 8856, Note_on_c, 0, 86, 0
2, 8856, Note_on_c, 0, 84, 99
2, 8856, Note_on_c, 0, 96, 99
2, 8864, Note_on_c, 0, 96, 0
2, 8864, Note_on_c, 0, 84, 0
2, 8864, Note_on_c, 0, 79, 97
2, 8864, Note_on_c, 0, 91, 97
2, 8872, Note_on_c, 0, 91, 0
2, 8872, Note_on_c, 0, 79, 0
2, 8872, Note_on_c, 0, 81, 99
2, 8872, Note_on_c, 0, 93, 99
2, 8880, Note_on_c, 0, 93, 0
2, 8880, Note_on_c, 0, 81, 0
2, 8880, Note_on_c, 0, 79, 97
2, 8880, Note_on_c, 0, 91, 97
2, 8888, Note_on_c, 0, 91, 0
2, 8888, Note_on_c, 0, 79, 0
2, 8888, Note_on_c, 0, 76, 95
2, 8888, Note_on_c, 0, 88, 95
2, 8896, Note_on_c, 0, 88, 0
2, 8896, Note_on_c, 0, 76, 0
2, 8896, Note_on_c, 0, 77, 97
2, 8896, Note_on_c, 0, 89, 97
2, 8904, Note_on_c, 0, 89, 0
2, 8904, Note_on_c, 0, 77, 0
2, 8904, Note_on_c, 0, 76, 95
2, 8904, Note_on_c, 0, 88, 95
2, 8912, Note_on_c, 0, 88, 0
2, 8912, Note_on_c, 0, 76, 0
2, 8912, Note_on_c, 0, 72, 93
2, 8912, Note_on_c, 0, 84, 93
2, 8920, Note_on_c, 0, 84, 0
2, 8920, Note_on_c, 0, 72, 0
2, 8920, Note_on_c, 0, 74, 95
2, 8920, Note_on_c, 0, 86, 95
2, 8928, Note_on_c, 0, 86, 0
2, 8928, Note_on_c, 0, 74, 0
2, 8928, Note_on_c, 0, 72, 93
2, 8928, Note_on_c, 0, 84, 93
2, 8936, Note_on_c, 0, 84, 0
2, 8936, Note_on_c, 0, 72, 0
2, 8936, Note_on_c, 0, 67, 91
2, 8936, Note_on_c, 0, 79, 91
2, 8944, Note_on_c, 0, 79, 0
2, 8944, Note_on_c, 0, 67, 0
2, 8944, Note_on_c, 0, 69, 93
2, 8944, Note_on_c, 0, 81, 93
2, 8952, Note_on_c, 0, 81, 0
2, 8952, Note_on_c, 0, 69, 0
2, 8952, Note_on_c, 0, 67, 92
2, 8952, Note_on_c, 0, 79, 92
2, 8960, Note_on_c, 0, 79, 0
2, 8960, Note_on_c, 0, 67, 0
2, 8960, Note_on_c, 0, 64, 91
2, 8960, Note_on_c, 0, 76, 91
2, 8968, Note_on_c, 0, 76, 0
2, 8968, Note_on_c, 0, 64, 0
2, 8968, Note_on_c, 0, 65, 94
2, 8968, Note_on_c, 0, 77, 94
2, 8976, Note_on_c, 0, 77, 0
2, 8976, Note_on_c, 0, 65, 0
2, 8976, Note_on_c, 0, 64, 93
2, 8976, Note_on_c, 0, 76, 93
2, 8984, Note_on_c, 0, 76, 0
2, 8984, Note_on_c, 0, 64, 0
2, 8984, Note_on_c, 0, 60, 92
2, 8984, Note_on_c, 0, 72, 92
2, 8992, Note_on_c, 0, 72, 0
2, 8992, Note_on_c, 0, 60, 0
2, 8992, Note_on_c, 0, 62, 95
2, 8992, Note_on_c, 0, 74, 95
2, 9000, Note_on_c, 0, 74, 0
2, 9000, Note_on_c, 0, 62, 0
2, 9000, Note_on_c, 0, 60, 94
2, 9000, Note_on_c, 0, 72, 94
2, 9008, Note_on_c, 0, 72, 0
2, 9008, Note_on_c, 0, 60, 0
2, 9008, Note_on_c, 0, 57, 93
2, 9008, Note_on_c, 0, 69, 93
2, 9016, Note_on_c, 0, 69, 0
2, 9016, Note_on_c, 0, 57, 0
2, 9016, Note_on_c, 0, 52, 92
2, 9016, Note_on_c, 0, 64, 92
2, 9024, Note_on_c, 0, 64, 0
2, 9024, Note_on_c, 0, 52, 0
2, 9024, Note_on_c, 0, 55, 107
2, 9024, Note_on_c, 0, 60, 103
2, 9024, Note_on_c, 0, 64, 103
2, 9024, Note_on_c, 0, 67, 107
2, 9024, Control_c, 0, 64, 127
2, 9032, Note_on_c, 0, 67, 0
2, 9032, Note_on_c, 0, 55, 0
2, 9032, Note_on_c, 0, 60, 0
2, 9032, Note_on_c, 0, 64, 0
2, 9032, Note_on_c, 0, 75, 101
2, 9032, Note_on_c, 0, 87, 101
2, 9040, Note_on_c, 0, 87, 0
2, 9040, Note_on_c, 0, 75, 0
2, 9040, Note_on_c, 0, 74, 100
2, 9040, Note_on_c, 0, 86, 100
2, 9042, Control_c, 0, 64, 0
2, 9048, Note_on_c, 0, 86, 0
2, 9048, Note_on_c, 0, 74, 0
2, 9048, Note_on_c, 0, 73, 99
2, 9048, Note_on_c, 0, 85, 99
2, 9056, Note_on_c, 0, 85, 0
2, 9056, Note_on_c, 0, 73, 0
2, 9056, Note_on_c, 0, 72, 98
2, 9056, Note_on_c, 0, 84, 98
2, 9064, Note_on_c, 0, 84, 0
2, 9064, Note_on_c, 0, 72, 0
2, 9064, Note_on_c, 0, 71, 97
2, 9064, Note_on_c, 0, 83, 97
2, 9072, Note_on_c, 0, 83, 0
2, 9072, Note_on_c, 0, 71, 0
2, 9072, Note_on_c, 0, 70, 96
2, 9072, Note_on_c, 0, 82, 96
2, 9080, Note_on_c, 0, 82, 0
2, 9080, Note_on_c, 0, 70, 0
2, 9080, Note_on_c, 0, 69, 95
2, 9080, Note_on_c, 0, 81, 95
2, 9088, Note_on_c, 0, 81, 0
2, 9088, Note_on_c, 0, 69, 0
2, 9088, Note_on_c, 0, 68, 94
2, 9088, Note_on_c, 0, 80, 94
2, 9096, Note_on_c, 0, 80, 0
2, 9096, Note_on_c, 0, 68, 0
2, 9096, Note_on_c, 0, 67, 93
2, 9096, Note_on_c, 0, 79, 93
2, 9104, Note_on_c, 0, 79, 0
2, 9104, Note_on_c, 0, 67, 0
2, 9104, Note_on_c, 0, 66, 92
2, 9104, Note_on_c, 0, 78, 92
2, 9112, Note_on_c, 0, 78, 0
2, 9112, Note_on_c, 0, 66, 0
2, 9112, Note_on_c, 0, 65, 91
2, 9112, Note_on_c, 0, 77, 91
2, 9120, Note_on_c, 0, 77, 0
2, 9120, Note_on_c, 0, 65, 0
2, 9120, Note_on_c, 0, 76, 115
2, 9120, Note_on_c, 0, 80, 115
2, 9120, Note_on_c, 0, 88, 120
2, 9120, Control_c, 0, 64, 127
2, 9166, Control_c, 0, 64, 0
2, 9168, Note_on_c, 0, 88, 0
2, 9168, Note_on_c, 0, 80, 0
2, 9168, Note_on_c, 0, 76, 0
2, 9168, Note_on_c, 0, 74, 108
2, 9168, Note_on_c, 0, 77, 102
2, 9168, Note_on_c, 0, 86, 108
2, 9168, Control_c, 0, 64, 127
2, 9190, Control_c, 0, 64, 0
2, 9192, Note_on_c, 0, 86, 0
2, 9192, Note_on_c, 0, 77, 0
2, 9192, Note_on_c, 0, 74, 0
2, 9192, Note_on_c, 0, 65, 102
2, 9192, Note_on_c, 0, 67, 98
2, 9192, Note_on_c, 0, 74, 98
2, 9192, Note_on_c, 0, 79, 102
2, 9192, Control_c, 0, 64, 127
2, 9214, Note_on_c, 0, 79, 0
2, 9214, Note_on_c, 0, 65, 0
2, 9214, Note_on_c, 0, 67, 0
2, 9214, Note_on_c, 0, 74, 0
2, 9214, Control_c, 0, 64, 0
2, 9216, Control_c, 0, 64, 127
2, 9222, Note_on_c, 0, 74, 115
2, 9222, Note_on_c, 0, 77, 107
2, 9222, Note_on_c, 0, 79, 107
2, 9222, Note_on_c, 0, 83, 107
2, 9222, Note_on_c, 0, 86, 115
2, 9238, Note_on_c, 0, 86, 0
2, 9238, Note_on_c, 0, 79, 0
2, 9238, Note_on_c, 0, 74, 0
2, 9238, Note_on_c, 0, 77, 0
2, 9238, Note_on_c, 0, 83, 0
2, 9240, Note_on_c, 0, 88, 106
2, 9240, Note_on_c, 0, 100, 106
2, 9248, Note_on_c, 0, 100, 0
2, 9248, Note_on_c, 0, 88, 0
2, 9248, Note_on_c, 0, 86, 105
2, 9248, Note_on_c, 0, 98, 105
2, 9256, Note_on_c, 0, 98, 0
2, 9256, Note_on_c, 0, 86, 0
2, 9256, Note_on_c, 0, 81, 104
2, 9256, Note_on_c, 0, 93, 104
2, 9258, Control_c, 0, 64, 0
2, 9264, Note_on_c, 0, 93, 0
2, 9264, Note_on_c, 0, 81, 0
2, 9264, Note_on_c, 0, 79, 103
2, 9264, Note_on_c, 0, 91, 103
2, 9264, Control_c, 0, 64, 127
2, 9272, Note_on_c, 0, 91, 0
2, 9272, Note_on_c, 0, 79, 0
2, 9272, Note_on_c, 0, 76, 102
2, 9272, Note_on_c, 0, 88, 102
2, 9280, Note_on_c, 0, 88, 0
2, 9280, Note_on_c, 0, 76, 0
2, 9280, Note_on_c, 0, 74, 101
2, 9280, Note_on_c, 0, 86, 101
2, 9288, Note_on_c, 0, 86, 0
2, 9288, Note_on_c, 0, 74, 0
2, 9288, Note_on_c, 0, 69, 100
2, 9288, Note_on_c, 0, 81, 100
2, 9296, Note_on_c, 0, 81, 0
2, 9296, Note_on_c, 0, 69, 0
2, 9296, Note_on_c, 0, 67, 99
2, 9296, Note_on_c, 0, 79, 99
2, 9304, Note_on_c, 0, 79, 0
2, 9304, Note_on_c, 0, 67, 0
2, 9304, Note_on_c, 0, 55, 94
2, 9304, Note_on_c, 0, 59, 88
2, 9304, Note_on_c, 0, 65, 88
2, 9304, Note_on_c, 0, 67, 94
2, 9308, Control_c, 0, 64, 0
2, 9312, Note_on_c, 0, 67, 0
2, 9312, Note_on_c, 0, 55, 0
2, 9312, Note_on_c, 0, 59, 0
2, 9312, Note_on_c, 0, 65, 0
2, 9312, Note_on_c, 0, 60, 96
2, 9312, Note_on_c, 0, 64, 92
2, 9312, Note_on_c, 0, 72, 96
2, 9314, Control_c, 0, 64, 127
2, 9358, Note_on_c, 0, 72, 0
2, 9358, Note_on_c, 0, 64, 0
2, 9358, Note_on_c, 0, 60, 0
2, 9402, Control_c, 0, 64, 0
2, 9408, Control_c, 0, 64, 127
2, 9424, Note_on_c, 0, 67, 38
2, 9424, Note_on_c, 0, 72, 40
2, 9424, Note_on_c, 0, 75, 42
2, 9440, Note_on_c, 0, 75, 0
2, 9440, Note_on_c, 0, 72, 0
2, 9440, Note_on_c, 0, 67, 0
2, 9440, Note_on_c, 0, 67, 42
2, 9440, Note_on_c, 0, 72, 44
2, 9440, Note_on_c, 0, 75, 46
2, 9456, Note_on_c, 0, 75, 0
2, 9456, Note_on_c, 0, 72, 0
2, 9456, Note_on_c, 0, 67, 0
2, 9456, Note_on_c, 0, 67, 46
2, 9456, Note_on_c, 0, 72, 48
2, 9456, Note_on_c, 0, 75, 50
2, 9456, Note_on_c, 0, 79, 76
2, 9472, Note_on_c, 0, 75, 0
2, 9472, Note_on_c, 0, 67, 0
2, 9472, Note_on_c, 0, 72, 0
2, 9472, Note_on_c, 0, 67, 44
2, 9472, Note_on_c, 0, 72, 46
2, 9472, Note_on_c, 0, 75, 48
2, 9488, Note_on_c, 0, 75, 0
2, 9488, Note_on_c, 0, 72, 0
2, 9488, Note_on_c, 0, 67, 0
2, 9488, Note_on_c, 0, 67, 42
2, 9488, Note_on_c, 0, 72, 44
2, 9488, Note_on_c, 0, 75, 46
2, 9504, Note_on_c, 0, 75, 0
2, 9504, Note_on_c, 0, 79, 0
2, 9504, Note_on_c, 0, 67, 0
2, 9504, Note_on_c, 0, 72, 0
2, 9504, Note_on_c, 0, 68, 42
2, 9504, Note_on_c, 0, 72, 44
2, 9504, Note_on_c, 0, 75, 46
2, 9506, Control_c, 0, 64, 0
2, 9512, Control_c, 0, 64, 127
2, 9520, Note_on_c, 0, 75, 0
2, 9520, Note_on_c, 0, 72, 0
2, 9520, Note_on_c, 0, 68, 0
2, 9520, Note_on_c, 0, 68, 46
2, 9520, Note_on_c, 0, 72, 48
2, 9520, Note_on_c, 0, 75, 50
2, 9536, Note_on_c, 0, 75, 0
2, 9536, Note_on_c, 0, 72, 0
2, 9536, Note_on_c, 0, 68, 0
2, 9536, Note_on_c, 0, 68, 50
2, 9536, Note_on_c, 0, 72, 52
2, 9536, Note_on_c, 0, 75, 54
2, 9552, Note_on_c, 0, 75, 0
2, 9552, Note_on_c, 0, 72, 0
2, 9552, Note_on_c, 0, 68, 0
2, 9552, Note_on_c, 0, 68, 54
2, 9552, Note_on_c, 0, 72, 56
2, 9552, Note_on_c, 0, 75, 58
2, 9552, Note_on_c, 0, 80, 88
2, 9568, Note_on_c, 0, 75, 0
2, 9568, Note_on_c, 0, 68, 0
2, 9568, Note_on_c, 0, 72, 0
2, 9568, Note_on_c, 0, 68, 48
2, 9568, Note_on_c, 0, 72, 50
2, 9568, Note_on_c, 0, 75, 52
2, 9584, Note_on_c, 0, 75, 0
2, 9584, Note_on_c, 0, 72, 0
2, 9584, Note_on_c, 0, 68, 0
2, 9584, Note_on_c, 0, 68, 42
2, 9584, Note_on_c, 0, 72, 44
2, 9584, Note_on_c, 0, 75, 46
2, 9600, Note_on_c, 0, 75, 0
2, 9600, Note_on_c, 0, 80, 0
2, 9600, Note_on_c, 0, 68, 0
2, 9600, Note_on_c, 0, 72, 0
2, 9600, Note_on_c, 0, 65, 40
2, 9600, Note_on_c, 0, 67, 42
2, 9600, Note_on_c, 0, 74, 44
2, 9600, Control_c, 0, 64, 127
2, 9602, Control_c, 0, 64, 0
2, 9608, Control_c, 0, 64, 127
2, 9616, Note_on_c, 0, 74, 0
2, 9616, Note_on_c, 0, 67, 0
2, 9616, Note_on_c, 0, 65, 0
2, 9616, Note_on_c, 0, 65, 44
2, 9616, Note_on_c, 0, 67, 46
2, 9616, Note_on_c, 0, 74, 48
2, 9632, Note_on_c, 0, 74, 0
2, 9632, Note_on_c, 0, 67, 0
2, 9632, Note_on_c, 0, 65, 0
2, 9632, Note_on_c, 0, 65, 48
2, 9632, Note_on_c, 0, 67, 50
2, 9632, Note_on_c, 0, 74, 52
2, 9632, Note_on_c, 0, 79, 80
2, 9648, Note_on_c, 0, 79, 0
2, 9648, Note_on_c, 0, 65, 0
2, 9648, Note_on_c, 0, 67, 0
2, 9648, Note_on_c, 0, 74, 0
2, 9648, Note_on_c, 0, 65, 48
2, 9648, Note_on_c, 0, 67, 50
2, 9648, Note_on_c, 0, 74, 52
2, 9664, Note_on_c, 0, 74, 0
2, 9664, Note_on_c, 0, 67, 0
2, 9664, Note_on_c, 0, 65, 0
2, 9664, Note_on_c, 0, 65, 46
2, 9664, Note_on_c, 0, 67, 48
2, 9664, Note_on_c, 0, 74, 50
2, 9680, Note_on_c, 0, 74, 0
2, 9680, Note_on_c, 0, 67, 0
2, 9680, Note_on_c, 0, 65, 0
2, 9680, Note_on_c, 0, 65, 46
2, 9680, Note_on_c, 0, 67, 48
2, 9680, Note_on_c, 0, 74, 74
2, 9696, Note_on_c, 0, 67, 0
2, 9696, Note_on_c, 0, 65, 0
2, 9696, Note_on_c, 0, 63, 44
2, 9696, Note_on_c, 0, 67, 46
2, 9698, Control_c, 0, 64, 0
2, 9702, Note_on_c, 0, 67, 0
2, 9702, Note_on_c, 0, 63, 0
2, 9702, Note_on_c, 0, 74, 0
2, 9704, Control_c, 0, 64, 127
2, 9708, Note_on_c, 0, 67, 50
2, 9708, Note_on_c, 0, 72, 52
2, 9708, Note_on_c, 0, 75, 73
2, 9714, Note_on_c, 0, 75, 0
2, 9714, Note_on_c, 0, 72, 0
2, 9714, Note_on_c, 0, 67, 0
2, 9720, Note_on_c, 0, 67, 53
2, 9720, Note_on_c, 0, 72, 55
2, 9720, Note_on_c, 0, 77, 76
2, 9726, Note_on_c, 0, 77, 0
2, 9726, Note_on_c, 0, 72, 0
2, 9726, Note_on_c, 0, 67, 0
2, 9732, Note_on_c, 0, 67, 50
2, 9732, Note_on_c, 0, 72, 52
2, 9732, Note_on_c, 0, 75, 73
2, 9738, Note_on_c, 0, 75, 0
2, 9738, Note_on_c, 0, 72, 0
2, 9738, Note_on_c, 0, 67, 0
2, 9744, Note_on_c, 0, 67, 47
2, 9744, Note_on_c, 0, 72, 50
2, 9744, Note_on_c, 0, 74, 76
2, 9750, Note_on_c, 0, 74, 0
2, 9750, Note_on_c, 0, 72, 0
2, 9750, Note_on_c, 0, 67, 0
2, 9756, Note_on_c, 0, 67, 50
2, 9756, Note_on_c, 0, 72, 53
2, 9756, Note_on_c, 0, 75, 79
2, 9762, Note_on_c, 0, 75, 0
2, 9762, Note_on_c, 0, 72, 0
2, 9762, Note_on_c, 0, 67, 0
2, 9768, Note_on_c, 0, 67, 53
2, 9768, Note_on_c, 0, 72, 56
2, 9768, Note_on_c, 0, 77, 82
2, 9774, Note_on_c, 0, 77, 0
2, 9774, Note_on_c, 0, 72, 0
2, 9774, Note_on_c, 0, 67, 0
2, 9780, Note_on_c, 0, 67, 56
2, 9780, Note_on_c, 0, 72, 59
2, 9780, Note_on_c, 0, 79, 80
2, 9786, Note_on_c, 0, 79, 0
2, 9786, Note_on_c, 0, 72, 0
2, 9786, Note_on_c, 0, 67, 0
2, 9792, Note_on_c, 0, 68, 46
2, 9792, Note_on_c, 0, 72, 80
2, 9792, Control_c, 0, 64, 127
2, 9794, Control_c, 0, 64, 0
2, 9800, Control_c, 0, 64, 127
2, 9808, Note_on_c, 0, 68, 0
2, 9808, Note_on_c, 0, 63, 46
2, 9808, Note_on_c, 0, 68, 48
2, 9824, Note_on_c, 0, 68, 0
2, 9824, Note_on_c, 0, 63, 0
2, 9824, Note_on_c, 0, 63, 48
2, 9824, Note_on_c, 0, 68, 50
2, 9840, Note_on_c, 0, 68, 0
2, 9840, Note_on_c, 0, 63, 0
2, 9840, Note_on_c, 0, 72, 0
2, 9840, Note_on_c, 0, 63, 50
2, 9840, Note_on_c, 0, 68, 52
2, 9840, Note_on_c, 0, 72, 78
2, 9856, Note_on_c, 0, 68, 0
2, 9856, Note_on_c, 0, 63, 0
2, 9856, Note_on_c, 0, 63, 52
2, 9856, Note_on_c, 0, 68, 54
2, 9872, Note_on_c, 0, 68, 0
2, 9872, Note_on_c, 0, 63, 0
2, 9872, Note_on_c, 0, 63, 54
2, 9872, Note_on_c, 0, 68, 56
2, 9876, Note_on_c, 0, 72, 0
2, 9880, Note_on_c, 0, 68, 0
2, 9880, Note_on_c, 0, 63, 0
2, 9880, Note_on_c, 0, 63, 54
2, 9880, Note_on_c, 0, 68, 56
2, 9880, Note_on_c, 0, 72, 82
2, 9888, Note_on_c, 0, 72, 0
2, 9888, Note_on_c, 0, 68, 0
2, 9888, Note_on_c, 0, 63, 0
2, 9888, Note_on_c, 0, 62, 56
2, 9888, Note_on_c, 0, 68, 58
2, 9888, Note_on_c, 0, 74, 80
2, 9890, Control_c, 0, 64, 0
2, 9896, Control_c, 0, 64, 127
2, 9904, Note_on_c, 0, 68, 0
2, 9904, Note_on_c, 0, 62, 0
2, 9904, Note_on_c, 0, 62, 55
2, 9904, Note_on_c, 0, 68, 57
2, 9920, Note_on_c, 0, 68, 0
2, 9920, Note_on_c, 0, 62, 0
2, 9920, Note_on_c, 0, 62, 54
2, 9920, Note_on_c, 0, 68, 56
2, 9936, Note_on_c, 0, 68, 0
2, 9936, Note_on_c, 0, 62, 0
2, 9936, Note_on_c, 0, 74, 0
2, 9936, Note_on_c, 0, 62, 52
2, 9936, Note_on_c, 0, 68, 54
2, 9936, Note_on_c, 0, 72, 76
2, 9952, Note_on_c, 0, 72, 0
2, 9952, Note_on_c, 0, 68, 0
2, 9952, Note_on_c, 0, 62, 0
2, 9952, Note_on_c, 0, 62, 48
2, 9952, Note_on_c, 0, 68, 50
2, 9968, Note_on_c, 0, 68, 0
2, 9968, Note_on_c, 0, 62, 0
2, 9968, Note_on_c, 0, 62, 40
2, 9968, Note_on_c, 0, 68, 42
2, 9976, Note_on_c, 0, 68, 0
2, 9976, Note_on_c, 0, 62, 0
2, 9976, Note_on_c, 0, 60, 40
2, 9976, Note_on_c, 0, 62, 42
2, 9976, Note_on_c, 0, 68, 72
2, 9984, Note_on_c, 0, 68, 0
2, 9984, Note_on_c, 0, 62, 0
2, 9984, Note_on_c, 0, 60, 0
2, 9984, Note_on_c, 0, 60, 36
2, 9984, Note_on_c, 0, 62, 38
2, 9984, Note_on_c, 0, 65, 40
2, 9984, Note_on_c, 0, 67, 64
2, 9984, Control_c, 0, 64, 127
2, 9986, Control_c, 0, 64, 0
2, 9992, Control_c, 0, 64, 127
2, 10000, Note_on_c, 0, 65, 0
2, 10000, Note_on_c, 0, 60, 0
2, 10000, Note_on_c, 0, 62, 0
2, 10000, Note_on_c, 0, 60, 38
2, 10000, Note_on_c, 0, 62, 40
2, 10000, Note_on_c, 0, 65, 42
2, 10016, Note_on_c, 0, 65, 0
2, 10016, Note_on_c, 0, 62, 0
2, 10016, Note_on_c, 0, 60, 0
2, 10016, Note_on_c, 0, 60, 40
2, 10016, Note_on_c, 0, 62, 42
2, 10016, Note_on_c, 0, 65, 44
2, 10032, Note_on_c, 0, 65, 0
2, 10032, Note_on_c, 0, 67, 0
2, 10032, Note_on_c, 0, 60, 0
2, 10032, Note_on_c, 0, 62, 0
2, 10032, Note_on_c, 0, 59, 36
2, 10032, Note_on_c, 0, 62, 38
2, 10032, Note_on_c, 0, 65, 40
2, 10032, Note_on_c, 0, 67, 58
2, 10040, Note_on_c, 0, 67, 0
2, 10040, Note_on_c, 0, 59, 0
2, 10040, Note_on_c, 0, 62, 0
2, 10040, Note_on_c, 0, 65, 0
2, 10040, Note_on_c, 0, 70, 60
2, 10044, Note_on_c, 0, 70, 0
2, 10044, Note_on_c, 0, 59, 36
2, 10044, Note_on_c, 0, 62, 38
2, 10044, Note_on_c, 0, 65, 40
2, 10044, Note_on_c, 0, 68, 70
2, 10056, Note_on_c, 0, 68, 0
2, 10056, Note_on_c, 0, 59, 0
2, 10056, Note_on_c, 0, 62, 0
2, 10056, Note_on_c, 0, 65, 0
2, 10056, Note_on_c, 0, 59, 35
2, 10056, Note_on_c, 0, 62, 37
2, 10056, Note_on_c, 0, 65, 39
2, 10056, Note_on_c, 0, 67, 70
2, 10068, Note_on_c, 0, 67, 0
2, 10068, Note_on_c, 0, 59, 0
2, 10068, Note_on_c, 0, 62, 0
2, 10068, Note_on_c, 0, 65, 0
2, 10068, Note_on_c, 0, 53, 34
2, 10068, Note_on_c, 0, 55, 36
2, 10068, Note_on_c, 0, 59, 38
2, 10068, Note_on_c, 0, 62, 72
2, 10080, Note_on_c, 0, 62, 0
2, 10080, Note_on_c, 0, 53, 0
2, 10080, Note_on_c, 0, 55, 0
2, 10080, Note_on_c, 0, 59, 0
2, 10080, Note_on_c, 0, 51, 38
2, 10080, Note_on_c, 0, 55, 40
2, 10080, Note_on_c, 0, 63, 66
2, 10082, Control_c, 0, 64, 0
2, 10088, Note_on_c, 0, 63, 0
2, 10088, Note_on_c, 0, 55, 0
2, 10088, Note_on_c, 0, 51, 0
2, 10088, Note_on_c, 0, 51, 34
2, 10088, Note_on_c, 0, 55, 36
2, 10088, Note_on_c, 0, 60, 60
2, 10088, Control_c, 0, 64, 127
2, 10094, Note_on_c, 0, 60, 0
2, 10094, Note_on_c, 0, 55, 0
2, 10094, Note_on_c, 0, 51, 0
2, 10096, Note_on_c, 0, 51, 38
2, 10110, Note_on_c, 0, 51, 0
2, 10112, Note_on_c, 0, 51, 40
2, 10126, Note_on_c, 0, 51, 0
2, 10128, Note_on_c, 0, 51, 42
2, 10142, Note_on_c, 0, 51, 0
2, 10144, Note_on_c, 0, 51, 40
2, 10158, Note_on_c, 0, 51, 0
2, 10160, Note_on_c, 0, 51, 38
2, 10174, Note_on_c, 0, 51, 0
2, 10174, Control_c, 0, 64, 0
2, 10176, Note_on_c, 0, 51, 38
2, 10176, Note_on_c, 0, 55, 40
2, 10176, Note_on_c, 0, 58, 42
2, 10176, Control_c, 0, 64, 127
2, 10190, Note_on_c, 0, 58, 0
2, 10190, Note_on_c, 0, 55, 0
2, 10190, Note_on_c, 0, 51, 0
2, 10192, Note_on_c, 0, 67, 38
2, 10192, Note_on_c, 0, 70, 40
2, 10192, Note_on_c, 0, 75, 42
2, 10208, Note_on_c, 0, 75, 0
2, 10208, Note_on_c, 0, 70, 0
2, 10208, Note_on_c, 0, 67, 0
2, 10208, Note_on_c, 0, 67, 42
2, 10208, Note_on_c, 0, 70, 44
2, 10208, Note_on_c, 0, 75, 46
2, 10224, Note_on_c, 0, 75, 0
2, 10224, Note_on_c, 0, 70, 0
2, 10224, Note_on_c, 0, 67, 0
2, 10224, Note_on_c, 0, 67, 46
2, 10224, Note_on_c, 0, 70, 48
2, 10224, Note_on_c, 0, 75, 50
2, 10224, Note_on_c, 0, 79, 82
2, 10240, Note_on_c, 0, 75, 0
2, 10240, Note_on_c, 0, 67, 0
2, 10240, Note_on_c, 0, 70, 0
2, 10240, Note_on_c, 0, 67, 42
2, 10240, Note_on_c, 0, 70, 44
2, 10240, Note_on_c, 0, 75, 46
2, 10256, Note_on_c, 0, 75, 0
2, 10256, Note_on_c, 0, 70, 0
2, 10256, Note_on_c, 0, 67, 0
2, 10256, Note_on_c, 0, 67, 38
2, 10256, Note_on_c, 0, 70, 40
2, 10256, Note_on_c, 0, 75, 42
2, 10272, Note_on_c, 0, 75, 0
2, 10272, Note_on_c, 0, 79, 0
2, 10272, Note_on_c, 0, 67, 0
2, 10272, Note_on_c, 0, 70, 0
2, 10272, Note_on_c, 0, 68, 42
2, 10272, Note_on_c, 0, 72, 44
2, 10272, Note_on_c, 0, 75, 46
2, 10274, Control_c, 0, 64, 0
2, 10280, Control_c, 0, 64, 127
2, 10288, Note_on_c, 0, 75, 0
2, 10288, Note_on_c, 0, 72, 0
2, 10288, Note_on_c, 0, 68, 0
2, 10288, Note_on_c, 0, 68, 46
2, 10288, Note_on_c, 0, 72, 48
2, 10288, Note_on_c, 0, 75, 50
2, 10304, Note_on_c, 0, 75, 0
2, 10304, Note_on_c, 0, 72, 0
2, 10304, Note_on_c, 0, 68, 0
2, 10304, Note_on_c, 0, 68, 50
2, 10304, Note_on_c, 0, 72, 52
2, 10304, Note_on_c, 0, 75, 54
2, 10320, Note_on_c, 0, 75, 0
2, 10320, Note_on_c, 0, 72, 0
2, 10320, Note_on_c, 0, 68, 0
2, 10320, Note_on_c, 0, 68, 54
2, 10320, Note_on_c, 0, 72, 56
2, 10320, Note_on_c, 0, 75, 58
2, 10320, Note_on_c, 0, 80, 92
2, 10336, Note_on_c, 0, 75, 0
2, 10336, Note_on_c, 0, 68, 0
2, 10336, Note_on_c, 0, 72, 0
2, 10336, Note_on_c, 0, 68, 48
2, 10336, Note_on_c, 0, 72, 50
2, 10336, Note_on_c, 0, 75, 52
2, 10352, Note_on_c, 0, 75, 0
2, 10352, Note_on_c, 0, 72, 0
2, 10352, Note_on_c, 0, 68, 0
2, 10352, Note_on_c, 0, 68, 42
2, 10352, Note_on_c, 0, 72, 44
2, 10352, Note_on_c, 0, 75, 46
2, 10368, Note_on_c, 0, 75, 0
2, 10368, Note_on_c, 0, 72, 0
2, 10368, Note_on_c, 0, 68, 0
2, 10368, Note_on_c, 0, 68, 40
2, 10368, Note_on_c, 0, 70, 42
2, 10368, Note_on_c, 0, 74, 44
2, 10368, Control_c, 0, 64, 127
2, 10370, Control_c, 0, 64, 0
2, 10376, Control_c, 0, 64, 127
2, 10384, Note_on_c, 0, 74, 0
2, 10384, Note_on_c, 0, 70, 0
2, 10384, Note_on_c, 0, 68, 0
2, 10384, Note_on_c, 0, 68, 44
2, 10384, Note_on_c, 0, 70, 46
2, 10384, Note_on_c, 0, 74, 48
2, 10400, Note_on_c, 0, 74, 0
2, 10400, Note_on_c, 0, 80, 0
2, 10400, Note_on_c, 0, 68, 0
2, 10400, Note_on_c, 0, 70, 0
2, 10400, Note_on_c, 0, 68, 48
2, 10400, Note_on_c, 0, 70, 50
2, 10400, Note_on_c, 0, 74, 52
2, 10400, Note_on_c, 0, 79, 86
2, 10416, Note_on_c, 0, 74, 0
2, 10416, Note_on_c, 0, 68, 0
2, 10416, Note_on_c, 0, 70, 0
2, 10416, Note_on_c, 0, 68, 50
2, 10416, Note_on_c, 0, 74, 52
2, 10432, Note_on_c, 0, 74, 0
2, 10432, Note_on_c, 0, 68, 0
2, 10432, Note_on_c, 0, 68, 48
2, 10432, Note_on_c, 0, 74, 50
2, 10448, Note_on_c, 0, 74, 0
2, 10448, Note_on_c, 0, 68, 0
2, 10448, Note_on_c, 0, 79, 0
2, 10448, Note_on_c, 0, 68, 46
2, 10448, Note_on_c, 0, 74, 48
2, 10448, Note_on_c, 0, 77, 80
2, 10464, Note_on_c, 0, 74, 0
2, 10464, Note_on_c, 0, 68, 0
2, 10464, Note_on_c, 0, 67, 44
2, 10464, Note_on_c, 0, 72, 46
2, 10466, Control_c, 0, 64, 0
2, 10470, Note_on_c, 0, 72, 0
2, 10470, Note_on_c, 0, 67, 0
2, 10470, Note_on_c, 0, 77, 0
2, 10472, Control_c, 0, 64, 127
2, 10476, Note_on_c, 0, 67, 44
2, 10476, Note_on_c, 0, 72, 46
2, 10476, Note_on_c, 0, 75, 78
2, 10482, Note_on_c, 0, 75, 0
2, 10482, Note_on_c, 0, 72, 0
2, 10482, Note_on_c, 0, 67, 0
2, 10488, Note_on_c, 0, 67, 46
2, 10488, Note_on_c, 0, 72, 48
2, 10488, Note_on_c, 0, 77, 80
2, 10494, Note_on_c, 0, 77, 0
2, 10494, Note_on_c, 0, 72, 0
2, 10494, Note_on_c, 0, 67, 0
2, 10500, Note_on_c, 0, 67, 47
2, 10500, Note_on_c, 0, 72, 49
2, 10500, Note_on_c, 0, 75, 79
2, 10506, Note_on_c, 0, 75, 0
2, 10506, Note_on_c, 0, 72, 0
2, 10506, Note_on_c, 0, 67, 0
2, 10512, Note_on_c, 0, 67, 46
2, 10512, Note_on_c, 0, 72, 48
2, 10512, Note_on_c, 0, 74, 78
2, 10518, Note_on_c, 0, 74, 0
2, 10518, Note_on_c, 0, 72, 0
2, 10518, Note_on_c, 0, 67, 0
2, 10524, Note_on_c, 0, 67, 50
2, 10524, Note_on_c, 0, 72, 52
2, 10524, Note_on_c, 0, 75, 82
2, 10530, Note_on_c, 0, 75, 0
2, 10530, Note_on_c, 0, 72, 0
2, 10530, Note_on_c, 0, 67, 0
2, 10536, Note_on_c, 0, 67, 50
2, 10536, Note_on_c, 0, 69, 52
2, 10536, Note_on_c, 0, 72, 54
2, 10536, Note_on_c, 0, 77, 84
2, 10542, Note_on_c, 0, 77, 0
2, 10542, Note_on_c, 0, 67, 0
2, 10542, Note_on_c, 0, 69, 0
2, 10542, Note_on_c, 0, 72, 0
2, 10548, Note_on_c, 0, 67, 46
2, 10548, Note_on_c, 0, 69, 48
2, 10548, Note_on_c, 0, 72, 50
2, 10548, Note_on_c, 0, 79, 80
2, 10554, Note_on_c, 0, 79, 0
2, 10554, Note_on_c, 0, 67, 0
2, 10554, Note_on_c, 0, 69, 0
2, 10554, Note_on_c, 0, 72, 0
2, 10560, Note_on_c, 0, 62, 44
2, 10560, Note_on_c, 0, 67, 46
2, 10560, Note_on_c, 0, 70, 48
2, 10560, Note_on_c, 0, 74, 80
2, 10560, Control_c, 0, 64, 127
2, 10562, Control_c, 0, 64, 0
2, 10568, Control_c, 0, 64, 127
2, 10576, Note_on_c, 0, 70, 0
2, 10576, Note_on_c, 0, 62, 0
2, 10576, Note_on_c, 0, 67, 0
2, 10576, Note_on_c, 0, 62, 44
2, 10576, Note_on_c, 0, 67, 46
2, 10592, Note_on_c, 0, 67, 0
2, 10592, Note_on_c, 0, 62, 0
2, 10592, Note_on_c, 0, 74, 0
2, 10592, Note_on_c, 0, 62, 74
2, 10608, Note_on_c, 0, 62, 0
2, 10608, Note_on_c, 0, 62, 46
2, 10620, Note_on_c, 0, 62, 0
2, 10620, Note_on_c, 0, 62, 50
2, 10620, Note_on_c, 0, 67, 78
2, 10632, Note_on_c, 0, 67, 0
2, 10632, Note_on_c, 0, 62, 0
2, 10632, Note_on_c, 0, 62, 52
2, 10632, Note_on_c, 0, 67, 54
2, 10632, Note_on_c, 0, 72, 82
2, 10644, Note_on_c, 0, 72, 0
2, 10644, Note_on_c, 0, 67, 0
2, 10644, Note_on_c, 0, 62, 0
2, 10644, Note_on_c, 0, 62, 56
2, 10644, Note_on_c, 0, 67, 58
2, 10644, Note_on_c, 0, 74, 86
2, 10656, Note_on_c, 0, 74, 0
2, 10656, Note_on_c, 0, 67, 0
2, 10656, Note_on_c, 0, 62, 0
2, 10656, Note_on_c, 0, 63, 56
2, 10656, Note_on_c, 0, 67, 58
2, 10656, Note_on_c, 0, 75, 82
2, 10658, Control_c, 0, 64, 0
2, 10664, Control_c, 0, 64, 127
2, 10672, Note_on_c, 0, 67, 0
2, 10672, Note_on_c, 0, 63, 0
2, 10672, Note_on_c, 0, 63, 56
2, 10672, Note_on_c, 0, 67, 58
2, 10688, Note_on_c, 0, 67, 0
2, 10688, Note_on_c, 0, 63, 0
2, 10688, Note_on_c, 0, 63, 54
2, 10688, Note_on_c, 0, 67, 56
2, 10704, Note_on_c, 0, 67, 0
2, 10704, Note_on_c, 0, 63, 0
2, 10704, Note_on_c, 0, 63, 52
2, 10704, Note_on_c, 0, 66, 54
2, 10720, Note_on_c, 0, 66, 0
2, 10720, Note_on_c, 0, 63, 0
2, 10720, Note_on_c, 0, 63, 50
2, 10720, Note_on_c, 0, 66, 52
2, 10736, Note_on_c, 0, 66, 0
2, 10736, Note_on_c, 0, 63, 0
2, 10736, Note_on_c, 0, 75, 0
2, 10736, Note_on_c, 0, 60, 44
2, 10736, Note_on_c, 0, 63, 46
2, 10736, Note_on_c, 0, 66, 74
2, 10752, Note_on_c, 0, 66, 0
2, 10752, Note_on_c, 0, 63, 0
2, 10752, Note_on_c, 0, 60, 0
2, 10752, Note_on_c, 0, 58, 44
2, 10752, Note_on_c, 0, 62, 46
2, 10752, Note_on_c, 0, 66, 68
2, 10752, Control_c, 0, 64, 127
2, 10754, Control_c, 0, 64, 0
2, 10760, Control_c, 0, 64, 127
2, 10768, Note_on_c, 0, 62, 0
2, 10768, Note_on_c, 0, 58, 0
2, 10768, Note_on_c, 0, 58, 42
2, 10768, Note_on_c, 0, 62, 44
2, 10784, Note_on_c, 0, 62, 0
2, 10784, Note_on_c, 0, 58, 0
2, 10784, Note_on_c, 0, 66, 0
2, 10784, Note_on_c, 0, 58, 40
2, 10784, Note_on_c, 0, 62, 42
2, 10784, Note_on_c, 0, 67, 70
2, 10800, Note_on_c, 0, 62, 0
2, 10800, Note_on_c, 0, 58, 0
2, 10800, Note_on_c, 0, 58, 40
2, 10800, Note_on_c, 0, 62, 42
2, 10816, Note_on_c, 0, 62, 0
2, 10816, Note_on_c, 0, 58, 0
2, 10816, Note_on_c, 0, 58, 39
2, 10816, Note_on_c, 0, 62, 41
2, 10832, Note_on_c, 0, 62, 0
2, 10832, Note_on_c, 0, 58, 0
2, 10832, Note_on_c, 0, 58, 38
2, 10832, Note_on_c, 0, 62, 40
2, 10848, Note_on_c, 0, 62, 0
2, 10848, Note_on_c, 0, 58, 0
2, 10848, Note_on_c, 0, 58, 36
2, 10848, Note_on_c, 0, 62, 38
2, 10850, Control_c, 0, 64, 0
2, 10856, Control_c, 0, 64, 127
2, 10864, Note_on_c, 0, 62, 0
2, 10864, Note_on_c, 0, 58, 0
2, 10864, Note_on_c, 0, 59, 39
2, 10864, Note_on_c, 0, 62, 41
2, 10880, Note_on_c, 0, 62, 0
2, 10880, Note_on_c, 0, 59, 0
2, 10880, Note_on_c, 0, 59, 42
2, 10880, Note_on_c, 0, 62, 44
2, 10894, Note_on_c, 0, 67, 0
2, 10896, Note_on_c, 0, 62, 0
2, 10896, Note_on_c, 0, 59, 0
2, 10896, Note_on_c, 0, 59, 45
2, 10896, Note_on_c, 0, 62, 47
2, 10896, Note_on_c, 0, 67, 72
2, 10912, Note_on_c, 0, 62, 0
2, 10912, Note_on_c, 0, 59, 0
2, 10912, Note_on_c, 0, 59, 48
2, 10912, Note_on_c, 0, 62, 50
2, 10928, Note_on_c, 0, 62, 0
2, 10928, Note_on_c, 0, 59, 0
2, 10928, Note_on_c, 0, 59, 42
2, 10928, Note_on_c, 0, 62, 44
2, 10942, Control_c, 0, 64, 0
2, 10944, Note_on_c, 0, 62, 0
2, 10944, Note_on_c, 0, 59, 0
2, 10944, Note_on_c, 0, 59, 44
2, 10944, Note_on_c, 0, 62, 46
2, 10944, Control_c, 0, 64, 127
2, 10960, Note_on_c, 0, 62, 0
2, 10960, Note_on_c, 0, 59, 0
2, 10960, Note_on_c, 0, 60, 46
2, 10960, Note_on_c, 0, 63, 48
2, 10976, Note_on_c, 0, 63, 0
2, 10976, Note_on_c, 0, 60, 0
2, 10976, Note_on_c, 0, 60, 48
2, 10976, Note_on_c, 0, 63, 50
2, 10992, Note_on_c, 0, 63, 0
2, 10992, Note_on_c, 0, 60, 0
2, 10992, Note_on_c, 0, 67, 0
2, 10992, Note_on_c, 0, 60, 48
2, 10992, Note_on_c, 0, 63, 50
2, 10992, Note_on_c, 0, 68, 82
2, 10994, Control_c, 0, 64, 0
2, 11000, Control_c, 0, 64, 127
2, 11008, Note_on_c, 0, 63, 0
2, 11008, Note_on_c, 0, 60, 0
2, 11008, Note_on_c, 0, 60, 46
2, 11008, Note_on_c, 0, 63, 48
2, 11024, Note_on_c, 0, 63, 0
2, 11024, Note_on_c, 0, 60, 0
2, 11024, Note_on_c, 0, 60, 48
2, 11024, Note_on_c, 0, 63, 50
2, 11040, Note_on_c, 0, 63, 0
2, 11040, Note_on_c, 0, 60, 0
2, 11040, Note_on_c, 0, 56, 50
2, 11040, Note_on_c, 0, 61, 52
2, 11042, Control_c, 0, 64, 0
2, 11048, Control_c, 0, 64, 127
2, 11056, Note_on_c, 0, 61, 0
2, 11056, Note_on_c, 0, 56, 0
2, 11056, Note_on_c, 0, 56, 52
2, 11056, Note_on_c, 0, 61, 54
2, 11072, Note_on_c, 0, 61, 0
2, 11072, Note_on_c, 0, 56, 0
2, 11072, Note_on_c, 0, 68, 0
2, 11072, Note_on_c, 0, 61, 56
2, 11072, Note_on_c, 0, 68, 58
2, 11072, Note_on_c, 0, 73, 88
2, 11088, Note_on_c, 0, 73, 0
2, 11088, Note_on_c, 0, 68, 0
2, 11088, Note_on_c, 0, 61, 0
2, 11088, Note_on_c, 0, 65, 56
2, 11088, Note_on_c, 0, 68, 58
2, 11088, Note_on_c, 0, 73, 60
2, 11088, Note_on_c, 0, 77, 94
2, 11104, Note_on_c, 0, 73, 0
2, 11104, Note_on_c, 0, 65, 0
2, 11104, Note_on_c, 0, 68, 0
2, 11104, Note_on_c, 0, 65, 62
2, 11104, Note_on_c, 0, 68, 64
2, 11104, Note_on_c, 0, 73, 64
2, 11120, Note_on_c, 0, 73, 0
2, 11120, Note_on_c, 0, 77, 0
2, 11120, Note_on_c, 0, 65, 0
2, 11120, Note_on_c, 0, 68, 0
2, 11120, Note_on_c, 0, 70, 68
2, 11120, Note_on_c, 0, 61, 70
2, 11120, Note_on_c, 0, 82, 100
2, 11134, Control_c, 0, 64, 0
2, 11136, Note_on_c, 0, 82, 0
2, 11136, Note_on_c, 0, 61, 0
2, 11136, Note_on_c, 0, 70, 0
2, 11136, Note_on_c, 0, 66, 62
2, 11136, Note_on_c, 0, 68, 64
2, 11136, Note_on_c, 0, 75, 66
2, 11136, Note_on_c, 0, 80, 94
2, 11136, Control_c, 0, 64, 127
2, 11152, Note_on_c, 0, 75, 0
2, 11152, Note_on_c, 0, 66, 0
2, 11152, Note_on_c, 0, 68, 0
2, 11152, Note_on_c, 0, 66, 58
2, 11152, Note_on_c, 0, 68, 60
2, 11152, Note_on_c, 0, 75, 62
2, 11168, Note_on_c, 0, 75, 0
2, 11168, Note_on_c, 0, 68, 0
2, 11168, Note_on_c, 0, 66, 0
2, 11168, Note_on_c, 0, 66, 54
2, 11168, Note_on_c, 0, 68, 56
2, 11168, Note_on_c, 0, 75, 58
2, 11184, Note_on_c, 0, 75, 0
2, 11184, Note_on_c, 0, 68, 0
2, 11184, Note_on_c, 0, 66, 0
2, 11184, Note_on_c, 0, 66, 50
2, 11184, Note_on_c, 0, 68, 52
2, 11184, Note_on_c, 0, 75, 54
2, 11200, Note_on_c, 0, 75, 0
2, 11200, Note_on_c, 0, 68, 0
2, 11200, Note_on_c, 0, 66, 0
2, 11200, Note_on_c, 0, 66, 46
2, 11200, Note_on_c, 0, 68, 48
2, 11200, Note_on_c, 0, 75, 50
2, 11216, Note_on_c, 0, 75, 0
2, 11216, Note_on_c, 0, 80, 0
2, 11216, Note_on_c, 0, 66, 0
2, 11216, Note_on_c, 0, 68, 0
2, 11216, Note_on_c, 0, 66, 44
2, 11216, Note_on_c, 0, 68, 46
2, 11216, Note_on_c, 0, 75, 48
2, 11216, Note_on_c, 0, 78, 78
2, 11224, Note_on_c, 0, 78, 0
2, 11224, Note_on_c, 0, 66, 0
2, 11224, Note_on_c, 0, 68, 0
2, 11224, Note_on_c, 0, 75, 0
2, 11224, Note_on_c, 0, 66, 44
2, 11224, Note_on_c, 0, 68, 46
2, 11224, Note_on_c, 0, 77, 74
2, 11226, Control_c, 0, 64, 0
2, 11232, Note_on_c, 0, 77, 0
2, 11232, Note_on_c, 0, 68, 0
2, 11232, Note_on_c, 0, 66, 0
2, 11232, Note_on_c, 0, 65, 42
2, 11232, Note_on_c, 0, 68, 44
2, 11232, Note_on_c, 0, 73, 46
2, 11232, Note_on_c, 0, 77, 68
2, 11232, Control_c, 0, 64, 127
2, 11248, Note_on_c, 0, 73, 0
2, 11248, Note_on_c, 0, 65, 0
2, 11248, Note_on_c, 0, 68, 0
2, 11248, Note_on_c, 0, 65, 44
2, 11248, Note_on_c, 0, 68, 46
2, 11248, Note_on_c, 0, 73, 48
2, 11264, Note_on_c, 0, 73, 0
2, 11264, Note_on_c, 0, 68, 0
2, 11264, Note_on_c, 0, 65, 0
2, 11264, Note_on_c, 0, 65, 46
2, 11264, Note_on_c, 0, 68, 48
2, 11264, Note_on_c, 0, 73, 50
2, 11280, Note_on_c, 0, 73, 0
2, 11280, Note_on_c, 0, 68, 0
2, 11280, Note_on_c, 0, 65, 0
2, 11280, Note_on_c, 0, 65, 48
2, 11280, Note_on_c, 0, 68, 50
2, 11280, Note_on_c, 0, 73, 52
2, 11296, Note_on_c, 0, 73, 0
2, 11296, Note_on_c, 0, 68, 0
2, 11296, Note_on_c, 0, 65, 0
2, 11296, Note_on_c, 0, 65, 46
2, 11296, Note_on_c, 0, 68, 48
2, 11296, Note_on_c, 0, 73, 50
2, 11312, Note_on_c, 0, 73, 0
2, 11312, Note_on_c, 0, 68, 0
2, 11312, Note_on_c, 0, 65, 0
2, 11312, Note_on_c, 0, 65, 42
2, 11312, Note_on_c, 0, 68, 44
2, 11312, Note_on_c, 0, 73, 46
2, 11322, Control_c, 0, 64, 0
2, 11328, Note_on_c, 0, 73, 0
2, 11328, Note_on_c, 0, 68, 0
2, 11328, Note_on_c, 0, 65, 0
2, 11328, Note_on_c, 0, 65, 42
2, 11328, Note_on_c, 0, 67, 44
2, 11328, Note_on_c, 0, 74, 46
2, 11328, Control_c, 0, 64, 127
2, 11344, Note_on_c, 0, 74, 0
2, 11344, Note_on_c, 0, 67, 0
2, 11344, Note_on_c, 0, 65, 0
2, 11344, Note_on_c, 0, 65, 42
2, 11344, Note_on_c, 0, 67, 44
2, 11344, Note_on_c, 0, 74, 46
2, 11360, Note_on_c, 0, 74, 0
2, 11360, Note_on_c, 0, 67, 0
2, 11360, Note_on_c, 0, 65, 0
2, 11360, Note_on_c, 0, 65, 42
2, 11360, Note_on_c, 0, 67, 44
2, 11360, Note_on_c, 0, 74, 46
2, 11374, Note_on_c, 0, 77, 0
2, 11376, Note_on_c, 0, 65, 0
2, 11376, Note_on_c, 0, 67, 0
2, 11376, Note_on_c, 0, 74, 0
2, 11376, Note_on_c, 0, 62, 42
2, 11376, Note_on_c, 0, 65, 44
2, 11376, Note_on_c, 0, 67, 80
2, 11392, Note_on_c, 0, 65, 0
2, 11392, Note_on_c, 0, 62, 0
2, 11392, Note_on_c, 0, 62, 42
2, 11392, Note_on_c, 0, 65, 44
2, 11408, Note_on_c, 0, 65, 0
2, 11408, Note_on_c, 0, 62, 0
2, 11408, Note_on_c, 0, 62, 42
2, 11408, Note_on_c, 0, 65, 44
2, 11418, Control_c, 0, 64, 0
2, 11422, Note_on_c, 0, 67, 0
2, 11424, Note_on_c, 0, 65, 0
2, 11424, Note_on_c, 0, 62, 0
2, 11424, Note_on_c, 0, 63, 54
2, 11424, Note_on_c, 0, 68, 78
2, 11424, Control_c, 0, 64, 127
2, 11430, Note_on_c, 0, 68, 0
2, 11430, Note_on_c, 0, 63, 0
2, 11436, Note_on_c, 0, 63, 55
2, 11436, Note_on_c, 0, 67, 77
2, 11442, Note_on_c, 0, 67, 0
2, 11442, Note_on_c, 0, 63, 0
2, 11448, Note_on_c, 0, 63, 58
2, 11448, Note_on_c, 0, 67, 60
2, 11448, Note_on_c, 0, 71, 81
2, 11454, Note_on_c, 0, 71, 0
2, 11454, Note_on_c, 0, 67, 0
2, 11454, Note_on_c, 0, 63, 0
2, 11460, Note_on_c, 0, 63, 61
2, 11460, Note_on_c, 0, 67, 63
2, 11460, Note_on_c, 0, 72, 85
2, 11466, Note_on_c, 0, 72, 0
2, 11466, Note_on_c, 0, 67, 0
2, 11466, Note_on_c, 0, 63, 0
2, 11472, Note_on_c, 0, 63, 62
2, 11472, Note_on_c, 0, 67, 64
2, 11472, Note_on_c, 0, 72, 66
2, 11472, Note_on_c, 0, 74, 89
2, 11478, Note_on_c, 0, 74, 0
2, 11478, Note_on_c, 0, 63, 0
2, 11478, Note_on_c, 0, 67, 0
2, 11478, Note_on_c, 0, 72, 0
2, 11484, Note_on_c, 0, 67, 67
2, 11484, Note_on_c, 0, 72, 69
2, 11484, Note_on_c, 0, 75, 93
2, 11490, Note_on_c, 0, 75, 0
2, 11490, Note_on_c, 0, 72, 0
2, 11490, Note_on_c, 0, 67, 0
2, 11496, Note_on_c, 0, 72, 76
2, 11496, Note_on_c, 0, 75, 78
2, 11496, Note_on_c, 0, 84, 106
2, 11502, Note_on_c, 0, 84, 0
2, 11502, Note_on_c, 0, 75, 0
2, 11502, Note_on_c, 0, 72, 0
2, 11508, Note_on_c, 0, 72, 72
2, 11508, Note_on_c, 0, 75, 74
2, 11508, Note_on_c, 0, 80, 102
2, 11514, Note_on_c, 0, 80, 0
2, 11514, Note_on_c, 0, 75, 0
2, 11514, Note_on_c, 0, 72, 0
2, 11520, Note_on_c, 0, 65, 62
2, 11520, Note_on_c, 0, 67, 64
2, 11520, Note_on_c, 0, 71, 66
2, 11520, Note_on_c, 0, 79, 94
2, 11520, Control_c, 0, 64, 127
2, 11522, Control_c, 0, 64, 0
2, 11528, Control_c, 0, 64, 127
2, 11536, Note_on_c, 0, 71, 0
2, 11536, Note_on_c, 0, 65, 0
2, 11536, Note_on_c, 0, 67, 0
2, 11536, Note_on_c, 0, 65, 58
2, 11536, Note_on_c, 0, 67, 60
2, 11536, Note_on_c, 0, 71, 62
2, 11552, Note_on_c, 0, 71, 0
2, 11552, Note_on_c, 0, 67, 0
2, 11552, Note_on_c, 0, 65, 0
2, 11552, Note_on_c, 0, 65, 54
2, 11552, Note_on_c, 0, 67, 56
2, 11552, Note_on_c, 0, 71, 58
2, 11568, Note_on_c, 0, 71, 0
2, 11568, Note_on_c, 0, 67, 0
2, 11568, Note_on_c, 0, 65, 0
2, 11568, Note_on_c, 0, 65, 45
2, 11568, Note_on_c, 0, 67, 47
2, 11568, Note_on_c, 0, 71, 49
2, 11570, Control_c, 0, 64, 0
2, 11574, Note_on_c, 0, 71, 0
2, 11574, Note_on_c, 0, 79, 0
2, 11574, Note_on_c, 0, 65, 0
2, 11574, Note_on_c, 0, 67, 0
2, 11576, Note_on_c, 0, 65, 44
2, 11576, Note_on_c, 0, 67, 46
2, 11576, Note_on_c, 0, 71, 48
2, 11576, Note_on_c, 0, 73, 72
2, 11576, Control_c, 0, 64, 127
2, 11580, Note_on_c, 0, 73, 0
2, 11580, Note_on_c, 0, 65, 0
2, 11580, Note_on_c, 0, 67, 0
2, 11580, Note_on_c, 0, 71, 0
2, 11584, Note_on_c, 0, 65, 43
2, 11584, Note_on_c, 0, 67, 45
2, 11584, Note_on_c, 0, 71, 47
2, 11584, Note_on_c, 0, 74, 73
2, 11588, Note_on_c, 0, 74, 0
2, 11588, Note_on_c, 0, 65, 0
2, 11588, Note_on_c, 0, 67, 0
2, 11588, Note_on_c, 0, 71, 0
2, 11592, Note_on_c, 0, 65, 42
2, 11592, Note_on_c, 0, 67, 44
2, 11592, Note_on_c, 0, 71, 46
2, 11592, Note_on_c, 0, 79, 76
2, 11596, Note_on_c, 0, 79, 0
2, 11596, Note_on_c, 0, 65, 0
2, 11596, Note_on_c, 0, 67, 0
2, 11596, Note_on_c, 0, 71, 0
2, 11600, Note_on_c, 0, 65, 41
2, 11600, Note_on_c, 0, 67, 43
2, 11600, Note_on_c, 0, 71, 45
2, 11600, Note_on_c, 0, 77, 73
2, 11604, Note_on_c, 0, 77, 0
2, 11604, Note_on_c, 0, 65, 0
2, 11604, Note_on_c, 0, 67, 0
2, 11604, Note_on_c, 0, 71, 0
2, 11608, Note_on_c, 0, 67, 42
2, 11608, Note_on_c, 0, 71, 44
2, 11608, Note_on_c, 0, 75, 70
2, 11612, Note_on_c, 0, 75, 0
2, 11612, Note_on_c, 0, 71, 0
2, 11612, Note_on_c, 0, 67, 0
2, 11616, Note_on_c, 0, 67, 42
2, 11616, Note_on_c, 0, 72, 44
2, 11616, Note_on_c, 0, 75, 66
2, 11618, Control_c, 0, 64, 0
2, 11624, Control_c, 0, 64, 127
2, 11632, Note_on_c, 0, 72, 0
2, 11632, Note_on_c, 0, 67, 0
2, 11632, Note_on_c, 0, 67, 42
2, 11632, Note_on_c, 0, 72, 44
2, 11648, Note_on_c, 0, 72, 0
2, 11648, Note_on_c, 0, 67, 0
2, 11648, Note_on_c, 0, 67, 41
2, 11648, Note_on_c, 0, 72, 43
2, 11662, Note_on_c, 0, 75, 0
2, 11664, Note_on_c, 0, 72, 0
2, 11664, Note_on_c, 0, 67, 0
2, 11664, Note_on_c, 0, 67, 40
2, 11664, Note_on_c, 0, 72, 42
2, 11680, Note_on_c, 0, 72, 0
2, 11680, Note_on_c, 0, 67, 0
2, 11680, Note_on_c, 0, 67, 39
2, 11680, Note_on_c, 0, 72, 41
2, 11696, Note_on_c, 0, 72, 0
2, 11696, Note_on_c, 0, 67, 0
2, 11696, Note_on_c, 0, 67, 38
2, 11696, Note_on_c, 0, 72, 40
2, 11710, Control_c, 0, 64, 0
2, 11712, Note_on_c, 0, 72, 0
2, 11712, Note_on_c, 0, 67, 0
2, 11712, Note_on_c, 0, 62, 38
2, 11712, Note_on_c, 0, 68, 40
2, 11712, Control_c, 0, 64, 127
2, 11728, Note_on_c, 0, 68, 0
2, 11728, Note_on_c, 0, 62, 0
2, 11728, Note_on_c, 0, 62, 42
2, 11728, Note_on_c, 0, 68, 44
2, 11744, Note_on_c, 0, 68, 0
2, 11744, Note_on_c, 0, 62, 0
2, 11744, Note_on_c, 0, 62, 46
2, 11744, Note_on_c, 0, 68, 48
2, 11760, Note_on_c, 0, 68, 0
2, 11760, Note_on_c, 0, 62, 0
2, 11760, Note_on_c, 0, 62, 50
2, 11760, Note_on_c, 0, 68, 52
2, 11760, Note_on_c, 0, 71, 74
2, 11776, Note_on_c, 0, 68, 0
2, 11776, Note_on_c, 0, 62, 0
2, 11776, Note_on_c, 0, 62, 46
2, 11776, Note_on_c, 0, 68, 48
2, 11792, Note_on_c, 0, 68, 0
2, 11792, Note_on_c, 0, 62, 0
2, 11792, Note_on_c, 0, 62, 42
2, 11792, Note_on_c, 0, 68, 44
2, 11808, Note_on_c, 0, 68, 0
2, 11808, Note_on_c, 0, 62, 0
2, 11808, Note_on_c, 0, 63, 39
2, 11808, Note_on_c, 0, 67, 43
2, 11810, Control_c, 0, 64, 0
2, 11816, Control_c, 0, 64, 127
2, 11824, Note_on_c, 0, 67, 0
2, 11824, Note_on_c, 0, 63, 0
2, 11824, Note_on_c, 0, 63, 44
2, 11824, Note_on_c, 0, 67, 48
2, 11840, Note_on_c, 0, 67, 0
2, 11840, Note_on_c, 0, 63, 0
2, 11840, Note_on_c, 0, 71, 0
2, 11840, Note_on_c, 0, 63, 52
2, 11840, Note_on_c, 0, 67, 56
2, 11840, Note_on_c, 0, 72, 82
2, 11856, Note_on_c, 0, 72, 0
2, 11856, Note_on_c, 0, 67, 0
2, 11856, Note_on_c, 0, 63, 0
2, 11856, Note_on_c, 0, 63, 60
2, 11856, Note_on_c, 0, 67, 64
2, 11856, Note_on_c, 0, 74, 88
2, 11872, Note_on_c, 0, 67, 0
2, 11872, Note_on_c, 0, 63, 0
2, 11872, Note_on_c, 0, 63, 63
2, 11872, Note_on_c, 0, 67, 67
2, 11888, Note_on_c, 0, 67, 0
2, 11888, Note_on_c, 0, 63, 0
2, 11888, Note_on_c, 0, 74, 0
2, 11888, Note_on_c, 0, 63, 58
2, 11888, Note_on_c, 0, 67, 62
2, 11888, Note_on_c, 0, 75, 86
2, 11904, Note_on_c, 0, 75, 0
2, 11904, Note_on_c, 0, 67, 0
2, 11904, Note_on_c, 0, 63, 0
2, 11904, Note_on_c, 0, 65, 52
2, 11904, Note_on_c, 0, 67, 56
2, 11904, Control_c, 0, 64, 127
2, 11906, Control_c, 0, 64, 0
2, 11912, Control_c, 0, 64, 127
2, 11920, Note_on_c, 0, 67, 0
2, 11920, Note_on_c, 0, 65, 0
2, 11920, Note_on_c, 0, 65, 58
2, 11920, Note_on_c, 0, 67, 62
2, 11936, Note_on_c, 0, 67, 0
2, 11936, Note_on_c, 0, 65, 0
2, 11936, Note_on_c, 0, 65, 64
2, 11936, Note_on_c, 0, 67, 68
2, 11952, Note_on_c, 0, 67, 0
2, 11952, Note_on_c, 0, 65, 0
2, 11952, Note_on_c, 0, 65, 64
2, 11952, Note_on_c, 0, 67, 68
2, 11952, Note_on_c, 0, 74, 94
2, 11968, Note_on_c, 0, 67, 0
2, 11968, Note_on_c, 0, 65, 0
2, 11968, Note_on_c, 0, 65, 62
2, 11968, Note_on_c, 0, 67, 66
2, 11984, Note_on_c, 0, 67, 0
2, 11984, Note_on_c, 0, 65, 0
2, 11984, Note_on_c, 0, 65, 60
2, 11984, Note_on_c, 0, 67, 64
2, 12000, Note_on_c, 0, 67, 0
2, 12000, Note_on_c, 0, 65, 0
2, 12000, Note_on_c, 0, 63, 58
2, 12000, Note_on_c, 0, 67, 62
2, 12002, Control_c, 0, 64, 0
2, 12008, Control_c, 0, 64, 127
2, 12016, Note_on_c, 0, 67, 0
2, 12016, Note_on_c, 0, 63, 0
2, 12016, Note_on_c, 0, 63, 62
2, 12016, Note_on_c, 0, 67, 66
2, 12032, Note_on_c, 0, 67, 0
2, 12032, Note_on_c, 0, 63, 0
2, 12032, Note_on_c, 0, 74, 0
2, 12032, Note_on_c, 0, 63, 66
2, 12032, Note_on_c, 0, 67, 70
2, 12032, Note_on_c, 0, 75, 102
2, 12048, Note_on_c, 0, 75, 0
2, 12048, Note_on_c, 0, 67, 0
2, 12048, Note_on_c, 0, 63, 0
2, 12048, Note_on_c, 0, 67, 70
2, 12048, Note_on_c, 0, 72, 72
2, 12048, Note_on_c, 0, 75, 74
2, 12048, Note_on_c, 0, 77, 106
2, 12064, Note_on_c, 0, 75, 0
2, 12064, Note_on_c, 0, 67, 0
2, 12064, Note_on_c, 0, 72, 0
2, 12064, Note_on_c, 0, 67, 76
2, 12064, Note_on_c, 0, 72, 78
2, 12064, Note_on_c, 0, 75, 80
2, 12080, Note_on_c, 0, 75, 0
2, 12080, Note_on_c, 0, 77, 0
2, 12080, Note_on_c, 0, 67, 0
2, 12080, Note_on_c, 0, 72, 0
2, 12080, Note_on_c, 0, 67, 74
2, 12080, Note_on_c, 0, 72, 76
2, 12080, Note_on_c, 0, 75, 78
2, 12080, Note_on_c, 0, 79, 106
2, 12090, Control_c, 0, 64, 0
2, 12096, Note_on_c, 0, 79, 0
2, 12096, Note_on_c, 0, 67, 0
2, 12096, Note_on_c, 0, 72, 0
2, 12096, Note_on_c, 0, 75, 0
2, 12096, Note_on_c, 0, 68, 36
2, 12096, Note_on_c, 0, 72, 38
2, 12096, Note_on_c, 0, 75, 40
2, 12096, Note_on_c, 0, 79, 80
2, 12096, Control_c, 0, 64, 127
2, 12112, Note_on_c, 0, 75, 0
2, 12112, Note_on_c, 0, 68, 0
2, 12112, Note_on_c, 0, 72, 0
2, 12112, Note_on_c, 0, 68, 38
2, 12112, Note_on_c, 0, 72, 40
2, 12112, Note_on_c, 0, 75, 48
2, 12128, Note_on_c, 0, 75, 0
2, 12128, Note_on_c, 0, 79, 0
2, 12128, Note_on_c, 0, 68, 0
2, 12128, Note_on_c, 0, 72, 0
2, 12128, Note_on_c, 0, 68, 40
2, 12128, Note_on_c, 0, 72, 42
2, 12128, Note_on_c, 0, 75, 44
2, 12128, Note_on_c, 0, 77, 78
2, 12144, Note_on_c, 0, 77, 0
2, 12144, Note_on_c, 0, 68, 0
2, 12144, Note_on_c, 0, 72, 0
2, 12144, Note_on_c, 0, 75, 0
2, 12144, Note_on_c, 0, 68, 42
2, 12144, Note_on_c, 0, 72, 44
2, 12144, Note_on_c, 0, 75, 46
2, 12144, Note_on_c, 0, 80, 86
2, 12160, Note_on_c, 0, 75, 0
2, 12160, Note_on_c, 0, 68, 0
2, 12160, Note_on_c, 0, 72, 0
2, 12160, Note_on_c, 0, 68, 38
2, 12160, Note_on_c, 0, 72, 40
2, 12160, Note_on_c, 0, 75, 42
2, 12176, Note_on_c, 0, 75, 0
2, 12176, Note_on_c, 0, 80, 0
2, 12176, Note_on_c, 0, 68, 0
2, 12176, Note_on_c, 0, 72, 0
2, 12176, Note_on_c, 0, 65, 36
2, 12176, Note_on_c, 0, 68, 38
2, 12176, Note_on_c, 0, 72, 72
2, 12192, Note_on_c, 0, 72, 0
2, 12192, Note_on_c, 0, 68, 0
2, 12192, Note_on_c, 0, 65, 0
2, 12192, Note_on_c, 0, 65, 44
2, 12192, Note_on_c, 0, 68, 46
2, 12192, Note_on_c, 0, 72, 48
2, 12192, Note_on_c, 0, 74, 76
2, 12194, Control_c, 0, 64, 0
2, 12200, Control_c, 0, 64, 127
2, 12208, Note_on_c, 0, 72, 0
2, 12208, Note_on_c, 0, 65, 0
2, 12208, Note_on_c, 0, 68, 0
2, 12208, Note_on_c, 0, 65, 44
2, 12208, Note_on_c, 0, 68, 46
2, 12208, Note_on_c, 0, 72, 48
2, 12224, Note_on_c, 0, 72, 0
2, 12224, Note_on_c, 0, 74, 0
2, 12224, Note_on_c, 0, 65, 0
2, 12224, Note_on_c, 0, 68, 0
2, 12224, Note_on_c, 0, 65, 42
2, 12224, Note_on_c, 0, 68, 44
2, 12224, Note_on_c, 0, 72, 46
2, 12224, Note_on_c, 0, 75, 78
2, 12240, Note_on_c, 0, 75, 0
2, 12240, Note_on_c, 0, 65, 0
2, 12240, Note_on_c, 0, 68, 0
2, 12240, Note_on_c, 0, 72, 0
2, 12240, Note_on_c, 0, 68, 46
2, 12240, Note_on_c, 0, 72, 48
2, 12240, Note_on_c, 0, 75, 78
2, 12244, Note_on_c, 0, 75, 0
2, 12244, Note_on_c, 0, 72, 0
2, 12244, Note_on_c, 0, 68, 0
2, 12246, Note_on_c, 0, 68, 49
2, 12246, Note_on_c, 0, 72, 51
2, 12246, Note_on_c, 0, 77, 81
2, 12250, Note_on_c, 0, 77, 0
2, 12250, Note_on_c, 0, 72, 0
2, 12250, Note_on_c, 0, 68, 0
2, 12253, Note_on_c, 0, 68, 48
2, 12253, Note_on_c, 0, 72, 50
2, 12253, Note_on_c, 0, 75, 80
2, 12257, Note_on_c, 0, 75, 0
2, 12257, Note_on_c, 0, 72, 0
2, 12257, Note_on_c, 0, 68, 0
2, 12260, Note_on_c, 0, 68, 47
2, 12260, Note_on_c, 0, 72, 49
2, 12260, Note_on_c, 0, 74, 79
2, 12264, Note_on_c, 0, 74, 0
2, 12264, Note_on_c, 0, 72, 0
2, 12264, Note_on_c, 0, 68, 0
2, 12267, Note_on_c, 0, 68, 49
2, 12267, Note_on_c, 0, 72, 51
2, 12267, Note_on_c, 0, 75, 81
2, 12271, Note_on_c, 0, 75, 0
2, 12271, Note_on_c, 0, 72, 0
2, 12271, Note_on_c, 0, 68, 0
2, 12274, Note_on_c, 0, 68, 36
2, 12274, Note_on_c, 0, 72, 38
2, 12274, Note_on_c, 0, 75, 40
2, 12274, Note_on_c, 0, 79, 75
2, 12278, Note_on_c, 0, 79, 0
2, 12278, Note_on_c, 0, 68, 0
2, 12278, Note_on_c, 0, 72, 0
2, 12278, Note_on_c, 0, 75, 0
2, 12281, Note_on_c, 0, 68, 32
2, 12281, Note_on_c, 0, 72, 34
2, 12281, Note_on_c, 0, 75, 36
2, 12281, Note_on_c, 0, 77, 70
2, 12285, Note_on_c, 0, 77, 0
2, 12285, Note_on_c, 0, 68, 0
2, 12285, Note_on_c, 0, 72, 0
2, 12285, Note_on_c, 0, 75, 0
2, 12288, Note_on_c, 0, 65, 32
2, 12288, Note_on_c, 0, 68, 34
2, 12288, Note_on_c, 0, 70, 36
2, 12288, Note_on_c, 0, 74, 70
2, 12288, Control_c, 0, 64, 127
2, 12290, Control_c, 0, 64, 0
2, 12296, Control_c, 0, 64, 127
2, 12304, Note_on_c, 0, 70, 0
2, 12304, Note_on_c, 0, 65, 0
2, 12304, Note_on_c, 0, 68, 0
2, 12304, Note_on_c, 0, 65, 36
2, 12304, Note_on_c, 0, 68, 38
2, 12304, Note_on_c, 0, 70, 40
2, 12320, Note_on_c, 0, 70, 0
2, 12320, Note_on_c, 0, 68, 0
2, 12320, Note_on_c, 0, 65, 0
2, 12320, Note_on_c, 0, 65, 40
2, 12320, Note_on_c, 0, 68, 42
2, 12320, Note_on_c, 0, 70, 44
2, 12336, Note_on_c, 0, 70, 0
2, 12336, Note_on_c, 0, 68, 0
2, 12336, Note_on_c, 0, 65, 0
2, 12336, Note_on_c, 0, 65, 44
2, 12336, Note_on_c, 0, 68, 46
2, 12336, Note_on_c, 0, 70, 48
2, 12352, Note_on_c, 0, 70, 0
2, 12352, Note_on_c, 0, 68, 0
2, 12352, Note_on_c, 0, 65, 0
2, 12352, Note_on_c, 0, 65, 44
2, 12352, Note_on_c, 0, 70, 46
2, 12368, Note_on_c, 0, 70, 0
2, 12368, Note_on_c, 0, 65, 0
2, 12368, Note_on_c, 0, 65, 46
2, 12368, Note_on_c, 0, 68, 44
2, 12384, Note_on_c, 0, 68, 0
2, 12384, Note_on_c, 0, 65, 0
2, 12384, Note_on_c, 0, 65, 40
2, 12384, Note_on_c, 0, 67, 42
2, 12386, Control_c, 0, 64, 0
2, 12392, Control_c, 0, 64, 127
2, 12400, Note_on_c, 0, 67, 0
2, 12400, Note_on_c, 0, 65, 0
2, 12400, Note_on_c, 0, 65, 44
2, 12400, Note_on_c, 0, 67, 46
2, 12416, Note_on_c, 0, 67, 0
2, 12416, Note_on_c, 0, 65, 0
2, 12416, Note_on_c, 0, 65, 48
2, 12416, Note_on_c, 0, 67, 50
2, 12432, Note_on_c, 0, 67, 0
2, 12432, Note_on_c, 0, 65, 0
2, 12432, Note_on_c, 0, 65, 50
2, 12432, Note_on_c, 0, 67, 54
2, 12448, Note_on_c, 0, 67, 0
2, 12448, Note_on_c, 0, 65, 0
2, 12448, Note_on_c, 0, 65, 60
2, 12448, Note_on_c, 0, 68, 64
2, 12464, Note_on_c, 0, 68, 0
2, 12464, Note_on_c, 0, 65, 0
2, 12464, Note_on_c, 0, 65, 52
2, 12464, Note_on_c, 0, 67, 56
2, 12474, Control_c, 0, 64, 0
2, 12478, Note_on_c, 0, 67, 0
2, 12478, Note_on_c, 0, 65, 0
2, 12478, Note_on_c, 0, 74, 0
2, 12480, Note_on_c, 0, 64, 42
2, 12480, Note_on_c, 0, 67, 44
2, 12480, Note_on_c, 0, 70, 46
2, 12480, Note_on_c, 0, 72, 48
2, 12480, Note_on_c, 0, 76, 56
2, 12480, Control_c, 0, 64, 127
2, 12496, Note_on_c, 0, 76, 0
2, 12496, Note_on_c, 0, 70, 0
2, 12496, Note_on_c, 0, 64, 0
2, 12496, Note_on_c, 0, 67, 0
2, 12496, Note_on_c, 0, 72, 0
2, 12496, Note_on_c, 0, 67, 44
2, 12496, Note_on_c, 0, 70, 46
2, 12496, Note_on_c, 0, 72, 48
2, 12496, Note_on_c, 0, 76, 56
2, 12512, Note_on_c, 0, 76, 0
2, 12512, Note_on_c, 0, 67, 0
2, 12512, Note_on_c, 0, 70, 0
2, 12512, Note_on_c, 0, 72, 0
2, 12512, Note_on_c, 0, 67, 48
2, 12512, Note_on_c, 0, 70, 50
2, 12512, Note_on_c, 0, 72, 52
2, 12512, Note_on_c, 0, 76, 56
2, 12528, Note_on_c, 0, 76, 0
2, 12528, Note_on_c, 0, 67, 0
2, 12528, Note_on_c, 0, 70, 0
2, 12528, Note_on_c, 0, 72, 0
2, 12528, Note_on_c, 0, 70, 52
2, 12528, Note_on_c, 0, 72, 54
2, 12528, Note_on_c, 0, 76, 56
2, 12528, Note_on_c, 0, 79, 86
2, 12544, Note_on_c, 0, 76, 0
2, 12544, Note_on_c, 0, 70, 0
2, 12544, Note_on_c, 0, 72, 0
2, 12544, Note_on_c, 0, 70, 48
2, 12544, Note_on_c, 0, 72, 50
2, 12544, Note_on_c, 0, 76, 52
2, 12560, Note_on_c, 0, 76, 0
2, 12560, Note_on_c, 0, 72, 0
2, 12560, Note_on_c, 0, 70, 0
2, 12560, Note_on_c, 0, 70, 44
2, 12560, Note_on_c, 0, 72, 46
2, 12560, Note_on_c, 0, 76, 48
2, 12576, Note_on_c, 0, 76, 0
2, 12576, Note_on_c, 0, 79, 0
2, 12576, Note_on_c, 0, 70, 0
2, 12576, Note_on_c, 0, 72, 0
2, 12576, Note_on_c, 0, 68, 44
2, 12576, Note_on_c, 0, 72, 46
2, 12576, Note_on_c, 0, 76, 48
2, 12578, Control_c, 0, 64, 0
2, 12584, Control_c, 0, 64, 127
2, 12592, Note_on_c, 0, 76, 0
2, 12592, Note_on_c, 0, 72, 0
2, 12592, Note_on_c, 0, 68, 0
2, 12592, Note_on_c, 0, 68, 48
2, 12592, Note_on_c, 0, 72, 50
2, 12592, Note_on_c, 0, 76, 52
2, 12608, Note_on_c, 0, 76, 0
2, 12608, Note_on_c, 0, 72, 0
2, 12608, Note_on_c, 0, 68, 0
2, 12608, Note_on_c, 0, 68, 52
2, 12608, Note_on_c, 0, 72, 54
2, 12608, Note_on_c, 0, 76, 56
2, 12624, Note_on_c, 0, 76, 0
2, 12624, Note_on_c, 0, 72, 0
2, 12624, Note_on_c, 0, 68, 0
2, 12624, Note_on_c, 0, 68, 56
2, 12624, Note_on_c, 0, 72, 58
2, 12624, Note_on_c, 0, 77, 60
2, 12624, Note_on_c, 0, 80, 96
2, 12640, Note_on_c, 0, 77, 0
2, 12640, Note_on_c, 0, 68, 0
2, 12640, Note_on_c, 0, 72, 0
2, 12640, Note_on_c, 0, 68, 50
2, 12640, Note_on_c, 0, 72, 52
2, 12640, Note_on_c, 0, 77, 54
2, 12656, Note_on_c, 0, 77, 0
2, 12656, Note_on_c, 0, 72, 0
2, 12656, Note_on_c, 0, 68, 0
2, 12656, Note_on_c, 0, 68, 44
2, 12656, Note_on_c, 0, 72, 46
2, 12656, Note_on_c, 0, 77, 48
2, 12672, Note_on_c, 0, 77, 0
2, 12672, Note_on_c, 0, 80, 0
2, 12672, Note_on_c, 0, 68, 0
2, 12672, Note_on_c, 0, 72, 0
2, 12672, Note_on_c, 0, 68, 46
2, 12672, Note_on_c, 0, 72, 48
2, 12672, Note_on_c, 0, 75, 50
2, 12672, Control_c, 0, 64, 127
2, 12674, Control_c, 0, 64, 0
2, 12680, Control_c, 0, 64, 127
2, 12688, Note_on_c, 0, 75, 0
2, 12688, Note_on_c, 0, 72, 0
2, 12688, Note_on_c, 0, 68, 0
2, 12688, Note_on_c, 0, 68, 50
2, 12688, Note_on_c, 0, 72, 52
2, 12688, Note_on_c, 0, 75, 54
2, 12704, Note_on_c, 0, 75, 0
2, 12704, Note_on_c, 0, 72, 0
2, 12704, Note_on_c, 0, 68, 0
2, 12704, Note_on_c, 0, 68, 54
2, 12704, Note_on_c, 0, 72, 56
2, 12704, Note_on_c, 0, 75, 58
2, 12704, Note_on_c, 0, 79, 86
2, 12720, Note_on_c, 0, 79, 0
2, 12720, Note_on_c, 0, 68, 0
2, 12720, Note_on_c, 0, 72, 0
2, 12720, Note_on_c, 0, 75, 0
2, 12720, Note_on_c, 0, 68, 54
2, 12720, Note_on_c, 0, 72, 56
2, 12720, Note_on_c, 0, 75, 58
2, 12736, Note_on_c, 0, 75, 0
2, 12736, Note_on_c, 0, 72, 0
2, 12736, Note_on_c, 0, 68, 0
2, 12736, Note_on_c, 0, 68, 52
2, 12736, Note_on_c, 0, 70, 54
2, 12736, Note_on_c, 0, 74, 56
2, 12752, Note_on_c, 0, 74, 0
2, 12752, Note_on_c, 0, 70, 0
2, 12752, Note_on_c, 0, 68, 0
2, 12752, Note_on_c, 0, 68, 50
2, 12752, Note_on_c, 0, 70, 52
2, 12752, Note_on_c, 0, 74, 54
2, 12752, Note_on_c, 0, 77, 80
2, 12768, Note_on_c, 0, 74, 0
2, 12768, Note_on_c, 0, 68, 0
2, 12768, Note_on_c, 0, 70, 0
2, 12768, Note_on_c, 0, 67, 48
2, 12768, Note_on_c, 0, 70, 50
2, 12768, Note_on_c, 0, 74, 52
2, 12770, Control_c, 0, 64, 0
2, 12774, Note_on_c, 0, 74, 0
2, 12774, Note_on_c, 0, 77, 0
2, 12774, Note_on_c, 0, 67, 0
2, 12774, Note_on_c, 0, 70, 0
2, 12776, Control_c, 0, 64, 127
2, 12780, Note_on_c, 0, 67, 56
2, 12780, Note_on_c, 0, 70, 58
2, 12780, Note_on_c, 0, 75, 79
2, 12786, Note_on_c, 0, 75, 0
2, 12786, Note_on_c, 0, 70, 0
2, 12786, Note_on_c, 0, 67, 0
2, 12792, Note_on_c, 0, 67, 59
2, 12792, Note_on_c, 0, 70, 61
2, 12792, Note_on_c, 0, 77, 82
2, 12798, Note_on_c, 0, 77, 0
2, 12798, Note_on_c, 0, 70, 0
2, 12798, Note_on_c, 0, 67, 0
2, 12804, Note_on_c, 0, 67, 56
2, 12804, Note_on_c, 0, 70, 58
2, 12804, Note_on_c, 0, 75, 79
2, 12810, Note_on_c, 0, 75, 0
2, 12810, Note_on_c, 0, 70, 0
2, 12810, Note_on_c, 0, 67, 0
2, 12816, Note_on_c, 0, 67, 53
2, 12816, Note_on_c, 0, 70, 56
2, 12816, Note_on_c, 0, 74, 82
2, 12822, Note_on_c, 0, 74, 0
2, 12822, Note_on_c, 0, 70, 0
2, 12822, Note_on_c, 0, 67, 0
2, 12828, Note_on_c, 0, 67, 56
2, 12828, Note_on_c, 0, 70, 59
2, 12828, Note_on_c, 0, 75, 85
2, 12834, Note_on_c, 0, 75, 0
2, 12834, Note_on_c, 0, 70, 0
2, 12834, Note_on_c, 0, 67, 0
2, 12840, Note_on_c, 0, 67, 59
2, 12840, Note_on_c, 0, 70, 62
2, 12840, Note_on_c, 0, 77, 88
2, 12846, Note_on_c, 0, 77, 0
2, 12846, Note_on_c, 0, 70, 0
2, 12846, Note_on_c, 0, 67, 0
2, 12852, Note_on_c, 0, 67, 62
2, 12852, Note_on_c, 0, 70, 65
2, 12852, Note_on_c, 0, 79, 86
2, 12858, Note_on_c, 0, 79, 0
2, 12858, Note_on_c, 0, 70, 0
2, 12858, Note_on_c, 0, 67, 0
2, 12860, Note_on_c, 0, 67, 59
2, 12860, Note_on_c, 0, 72, 62
2, 12860, Note_on_c, 0, 79, 90
2, 12864, Note_on_c, 0, 79, 0
2, 12864, Note_on_c, 0, 72, 0
2, 12864, Note_on_c, 0, 67, 0
2, 12864, Note_on_c, 0, 67, 50
2, 12864, Note_on_c, 0, 68, 52
2, 12864, Note_on_c, 0, 72, 78
2, 12864, Control_c, 0, 64, 127
2, 12866, Control_c, 0, 64, 0
2, 12872, Control_c, 0, 64, 127
2, 12880, Note_on_c, 0, 68, 0
2, 12880, Note_on_c, 0, 67, 0
2, 12880, Note_on_c, 0, 67, 52
2, 12880, Note_on_c, 0, 68, 54
2, 12896, Note_on_c, 0, 68, 0
2, 12896, Note_on_c, 0, 67, 0
2, 12896, Note_on_c, 0, 67, 54
2, 12896, Note_on_c, 0, 68, 56
2, 12912, Note_on_c, 0, 68, 0
2, 12912, Note_on_c, 0, 67, 0
2, 12912, Note_on_c, 0, 72, 0
2, 12912, Note_on_c, 0, 67, 56
2, 12912, Note_on_c, 0, 68, 58
2, 12912, Note_on_c, 0, 72, 82
2, 12928, Note_on_c, 0, 68, 0
2, 12928, Note_on_c, 0, 67, 0
2, 12928, Note_on_c, 0, 67, 58
2, 12928, Note_on_c, 0, 68, 60
2, 12944, Note_on_c, 0, 68, 0
2, 12944, Note_on_c, 0, 67, 0
2, 12944, Note_on_c, 0, 72, 0
2, 12944, Note_on_c, 0, 67, 54
2, 12944, Note_on_c, 0, 68, 56
2, 12944, Note_on_c, 0, 72, 86
2, 12960, Note_on_c, 0, 72, 0
2, 12960, Note_on_c, 0, 68, 0
2, 12960, Note_on_c, 0, 67, 0
2, 12960, Note_on_c, 0, 65, 54
2, 12960, Note_on_c, 0, 68, 56
2, 12960, Note_on_c, 0, 72, 86
2, 12962, Control_c, 0, 64, 0
2, 12968, Control_c, 0, 64, 127
2, 12976, Note_on_c, 0, 68, 0
2, 12976, Note_on_c, 0, 65, 0
2, 12976, Note_on_c, 0, 65, 56
2, 12976, Note_on_c, 0, 68, 58
2, 12992, Note_on_c, 0, 68, 0
2, 12992, Note_on_c, 0, 65, 0
2, 12992, Note_on_c, 0, 65, 58
2, 12992, Note_on_c, 0, 68, 60
2, 13008, Note_on_c, 0, 68, 0
2, 13008, Note_on_c, 0, 65, 0
2, 13008, Note_on_c, 0, 72, 0
2, 13008, Note_on_c, 0, 65, 58
2, 13008, Note_on_c, 0, 68, 60
2, 13008, Note_on_c, 0, 72, 62
2, 13008, Note_on_c, 0, 77, 96
2, 13024, Note_on_c, 0, 72, 0
2, 13024, Note_on_c, 0, 65, 0
2, 13024, Note_on_c, 0, 68, 0
2, 13024, Note_on_c, 0, 65, 60
2, 13024, Note_on_c, 0, 68, 62
2, 13024, Note_on_c, 0, 72, 64
2, 13040, Note_on_c, 0, 72, 0
2, 13040, Note_on_c, 0, 77, 0
2, 13040, Note_on_c, 0, 65, 0
2, 13040, Note_on_c, 0, 68, 0
2, 13040, Note_on_c, 0, 65, 52
2, 13040, Note_on_c, 0, 68, 54
2, 13040, Note_on_c, 0, 72, 56
2, 13040, Note_on_c, 0, 75, 92
2, 13056, Note_on_c, 0, 75, 0
2, 13056, Note_on_c, 0, 65, 0
2, 13056, Note_on_c, 0, 68, 0
2, 13056, Note_on_c, 0, 72, 0
2, 13056, Note_on_c, 0, 65, 54
2, 13056, Note_on_c, 0, 68, 56
2, 13056, Note_on_c, 0, 72, 58
2, 13056, Note_on_c, 0, 75, 86
2, 13056, Control_c, 0, 64, 127
2, 13058, Control_c, 0, 64, 0
2, 13064, Control_c, 0, 64, 127
2, 13072, Note_on_c, 0, 72, 0
2, 13072, Note_on_c, 0, 65, 0
2, 13072, Note_on_c, 0, 68, 0
2, 13072, Note_on_c, 0, 65, 58
2, 13072, Note_on_c, 0, 68, 60
2, 13072, Note_on_c, 0, 72, 62
2, 13088, Note_on_c, 0, 72, 0
2, 13088, Note_on_c, 0, 68, 0
2, 13088, Note_on_c, 0, 65, 0
2, 13088, Note_on_c, 0, 65, 61
2, 13088, Note_on_c, 0, 68, 63
2, 13088, Note_on_c, 0, 72, 65
2, 13104, Note_on_c, 0, 72, 0
2, 13104, Note_on_c, 0, 68, 0
2, 13104, Note_on_c, 0, 65, 0
2, 13104, Note_on_c, 0, 65, 59
2, 13104, Note_on_c, 0, 67, 61
2, 13104, Note_on_c, 0, 71, 63
2, 13120, Note_on_c, 0, 71, 0
2, 13120, Note_on_c, 0, 67, 0
2, 13120, Note_on_c, 0, 65, 0
2, 13120, Note_on_c, 0, 65, 54
2, 13120, Note_on_c, 0, 67, 56
2, 13120, Note_on_c, 0, 71, 58
2, 13136, Note_on_c, 0, 71, 0
2, 13136, Note_on_c, 0, 75, 0
2, 13136, Note_on_c, 0, 65, 0
2, 13136, Note_on_c, 0, 67, 0
2, 13136, Note_on_c, 0, 65, 50
2, 13136, Note_on_c, 0, 67, 52
2, 13136, Note_on_c, 0, 71, 54
2, 13136, Note_on_c, 0, 74, 78
2, 13152, Note_on_c, 0, 71, 0
2, 13152, Note_on_c, 0, 65, 0
2, 13152, Note_on_c, 0, 67, 0
2, 13152, Note_on_c, 0, 63, 50
2, 13152, Note_on_c, 0, 68, 52
2, 13154, Control_c, 0, 64, 0
2, 13160, Control_c, 0, 64, 127
2, 13162, Note_on_c, 0, 68, 0
2, 13162, Note_on_c, 0, 63, 0
2, 13162, Note_on_c, 0, 74, 0
2, 13164, Note_on_c, 0, 63, 52
2, 13164, Note_on_c, 0, 68, 54
2, 13164, Note_on_c, 0, 72, 78
2, 13170, Note_on_c, 0, 72, 0
2, 13170, Note_on_c, 0, 68, 0
2, 13170, Note_on_c, 0, 63, 0
2, 13176, Note_on_c, 0, 63, 58
2, 13176, Note_on_c, 0, 68, 60
2, 13176, Note_on_c, 0, 74, 84
2, 13182, Note_on_c, 0, 74, 0
2, 13182, Note_on_c, 0, 68, 0
2, 13182, Note_on_c, 0, 63, 0
2, 13188, Note_on_c, 0, 63, 59
2, 13188, Note_on_c, 0, 68, 61
2, 13188, Note_on_c, 0, 72, 83
2, 13194, Note_on_c, 0, 72, 0
2, 13194, Note_on_c, 0, 68, 0
2, 13194, Note_on_c, 0, 63, 0
2, 13200, Note_on_c, 0, 63, 62
2, 13200, Note_on_c, 0, 68, 64
2, 13200, Note_on_c, 0, 71, 90
2, 13206, Note_on_c, 0, 71, 0
2, 13206, Note_on_c, 0, 68, 0
2, 13206, Note_on_c, 0, 63, 0
2, 13212, Note_on_c, 0, 63, 69
2, 13212, Note_on_c, 0, 68, 71
2, 13212, Note_on_c, 0, 72, 95
2, 13218, Note_on_c, 0, 72, 0
2, 13218, Note_on_c, 0, 68, 0
2, 13218, Note_on_c, 0, 63, 0
2, 13224, Note_on_c, 0, 63, 68
2, 13224, Note_on_c, 0, 68, 70
2, 13224, Note_on_c, 0, 74, 96
2, 13230, Note_on_c, 0, 74, 0
2, 13230, Note_on_c, 0, 68, 0
2, 13230, Note_on_c, 0, 63, 0
2, 13236, Note_on_c, 0, 63, 68
2, 13236, Note_on_c, 0, 68, 70
2, 13236, Note_on_c, 0, 75, 93
2, 13242, Note_on_c, 0, 75, 0
2, 13242, Note_on_c, 0, 68, 0
2, 13242, Note_on_c, 0, 63, 0
2, 13246, Control_c, 0, 64, 0
2, 13248, Note_on_c, 0, 55, 78
2, 13248, Note_on_c, 0, 60, 80
2, 13248, Note_on_c, 0, 67, 100
2, 13248, Control_c, 0, 64, 127
2, 13264, Note_on_c, 0, 60, 0
2, 13264, Note_on_c, 0, 55, 0
2, 13264, Note_on_c, 0, 55, 81
2, 13264, Note_on_c, 0, 60, 83
2, 13280, Note_on_c, 0, 60, 0
2, 13280, Note_on_c, 0, 55, 0
2, 13280, Note_on_c, 0, 60, 86
2, 13294, Note_on_c, 0, 60, 0
2, 13294, Note_on_c, 0, 67, 0
2, 13296, Note_on_c, 0, 72, 80
2, 13296, Note_on_c, 0, 79, 82
2, 13296, Note_on_c, 0, 84, 105
2, 13312, Note_on_c, 0, 79, 0
2, 13312, Note_on_c, 0, 72, 0
2, 13312, Note_on_c, 0, 72, 76
2, 13312, Note_on_c, 0, 79, 78
2, 13328, Note_on_c, 0, 79, 0
2, 13328, Note_on_c, 0, 72, 0
2, 13328, Note_on_c, 0, 72, 72
2, 13328, Note_on_c, 0, 79, 74
2, 13342, Note_on_c, 0, 84, 0
2, 13344, Note_on_c, 0, 79, 0
2, 13344, Note_on_c, 0, 72, 0
2, 13344, Note_on_c, 0, 72, 57
2, 13344, Note_on_c, 0, 74, 59
2, 13344, Note_on_c, 0, 84, 73
2, 13346, Control_c, 0, 64, 0
2, 13352, Control_c, 0, 64, 127
2, 13356, Note_on_c, 0, 84, 0
2, 13356, Note_on_c, 0, 74, 0
2, 13356, Note_on_c, 0, 72, 0
2, 13356, Note_on_c, 0, 72, 60
2, 13356, Note_on_c, 0, 74, 62
2, 13356, Note_on_c, 0, 83, 76
2, 13368, Note_on_c, 0, 83, 0
2, 13368, Note_on_c, 0, 74, 0
2, 13368, Note_on_c, 0, 72, 0
2, 13368, Note_on_c, 0, 72, 63
2, 13368, Note_on_c, 0, 74, 65
2, 13368, Note_on_c, 0, 82, 79
2, 13380, Note_on_c, 0, 82, 0
2, 13380, Note_on_c, 0, 74, 0
2, 13380, Note_on_c, 0, 72, 0
2, 13380, Note_on_c, 0, 72, 66
2, 13380, Note_on_c, 0, 74, 68
2, 13380, Note_on_c, 0, 81, 82
2, 13392, Note_on_c, 0, 81, 0
2, 13392, Note_on_c, 0, 74, 0
2, 13392, Note_on_c, 0, 72, 0
2, 13392, Note_on_c, 0, 72, 69
2, 13392, Note_on_c, 0, 74, 71
2, 13392, Note_on_c, 0, 80, 85
2, 13404, Note_on_c, 0, 80, 0
2, 13404, Note_on_c, 0, 74, 0
2, 13404, Note_on_c, 0, 72, 0
2, 13404, Note_on_c, 0, 68, 70
2, 13404, Note_on_c, 0, 72, 72
2, 13404, Note_on_c, 0, 77, 88
2, 13416, Note_on_c, 0, 77, 0
2, 13416, Note_on_c, 0, 72, 0
2, 13416, Note_on_c, 0, 68, 0
2, 13416, Note_on_c, 0, 65, 76
2, 13416, Note_on_c, 0, 72, 94
2, 13428, Note_on_c, 0, 72, 0
2, 13428, Note_on_c, 0, 65, 0
2, 13428, Note_on_c, 0, 65, 69
2, 13428, Note_on_c, 0, 68, 71
2, 13428, Note_on_c, 0, 72, 73
2, 13428, Note_on_c, 0, 74, 91
2, 13440, Note_on_c, 0, 74, 0
2, 13440, Note_on_c, 0, 65, 0
2, 13440, Note_on_c, 0, 68, 0
2, 13440, Note_on_c, 0, 72, 0
2, 13440, Note_on_c, 0, 64, 71
2, 13440, Note_on_c, 0, 70, 73
2, 13440, Note_on_c, 0, 72, 75
2, 13440, Note_on_c, 0, 76, 95
2, 13440, Control_c, 0, 64, 127
2, 13442, Control_c, 0, 64, 0
2, 13448, Control_c, 0, 64, 127
2, 13452, Note_on_c, 0, 76, 0
2, 13452, Note_on_c, 0, 64, 0
2, 13452, Note_on_c, 0, 70, 0
2, 13452, Note_on_c, 0, 72, 0
2, 13452, Note_on_c, 0, 65, 73
2, 13452, Note_on_c, 0, 70, 75
2, 13452, Note_on_c, 0, 72, 77
2, 13452, Note_on_c, 0, 77, 97
2, 13464, Note_on_c, 0, 77, 0
2, 13464, Note_on_c, 0, 65, 0
2, 13464, Note_on_c, 0, 70, 0
2, 13464, Note_on_c, 0, 72, 0
2, 13464, Note_on_c, 0, 64, 71
2, 13464, Note_on_c, 0, 70, 74
2, 13464, Note_on_c, 0, 72, 76
2, 13464, Note_on_c, 0, 76, 96
2, 13476, Note_on_c, 0, 76, 0
2, 13476, Note_on_c, 0, 64, 0
2, 13476, Note_on_c, 0, 70, 0
2, 13476, Note_on_c, 0, 72, 0
2, 13476, Note_on_c, 0, 62, 70
2, 13476, Note_on_c, 0, 70, 72
2, 13476, Note_on_c, 0, 72, 74
2, 13476, Note_on_c, 0, 74, 94
2, 13488, Note_on_c, 0, 74, 0
2, 13488, Note_on_c, 0, 62, 0
2, 13488, Note_on_c, 0, 70, 0
2, 13488, Note_on_c, 0, 72, 0
2, 13488, Note_on_c, 0, 64, 72
2, 13488, Note_on_c, 0, 70, 74
2, 13488, Note_on_c, 0, 72, 76
2, 13488, Note_on_c, 0, 76, 96
2, 13500, Note_on_c, 0, 76, 0
2, 13500, Note_on_c, 0, 64, 0
2, 13500, Note_on_c, 0, 70, 0
2, 13500, Note_on_c, 0, 72, 0
2, 13500, Note_on_c, 0, 70, 78
2, 13500, Note_on_c, 0, 72, 80
2, 13500, Note_on_c, 0, 77, 98
2, 13512, Note_on_c, 0, 77, 0
2, 13512, Note_on_c, 0, 72, 0
2, 13512, Note_on_c, 0, 70, 0
2, 13512, Note_on_c, 0, 70, 82
2, 13512, Note_on_c, 0, 72, 84
2, 13512, Note_on_c, 0, 76, 86
2, 13512, Note_on_c, 0, 80, 104
2, 13524, Note_on_c, 0, 80, 0
2, 13524, Note_on_c, 0, 70, 0
2, 13524, Note_on_c, 0, 72, 0
2, 13524, Note_on_c, 0, 76, 0
2, 13524, Note_on_c, 0, 70, 80
2, 13524, Note_on_c, 0, 72, 82
2, 13524, Note_on_c, 0, 76, 84
2, 13524, Note_on_c, 0, 79, 102
2, 13536, Note_on_c, 0, 79, 0
2, 13536, Note_on_c, 0, 70, 0
2, 13536, Note_on_c, 0, 72, 0
2, 13536, Note_on_c, 0, 76, 0
2, 13536, Note_on_c, 0, 65, 76
2, 13536, Note_on_c, 0, 72, 86
2, 13538, Control_c, 0, 64, 0
2, 13544, Control_c, 0, 64, 127
2, 13548, Note_on_c, 0, 72, 0
2, 13548, Note_on_c, 0, 65, 0
2, 13548, Note_on_c, 0, 65, 82
2, 13548, Note_on_c, 0, 72, 84
2, 13548, Note_on_c, 0, 76, 104
2, 13560, Note_on_c, 0, 76, 0
2, 13560, Note_on_c, 0, 72, 0
2, 13560, Note_on_c, 0, 65, 0
2, 13560, Note_on_c, 0, 65, 84
2, 13560, Note_on_c, 0, 72, 86
2, 13560, Note_on_c, 0, 77, 106
2, 13572, Note_on_c, 0, 77, 0
2, 13572, Note_on_c, 0, 72, 0
2, 13572, Note_on_c, 0, 65, 0
2, 13572, Note_on_c, 0, 77, 91
2, 13572, Note_on_c, 0, 79, 107
2, 13584, Note_on_c, 0, 79, 0
2, 13584, Note_on_c, 0, 77, 0
2, 13584, Note_on_c, 0, 72, 90
2, 13584, Note_on_c, 0, 74, 92
2, 13584, Note_on_c, 0, 82, 110
2, 13596, Note_on_c, 0, 82, 0
2, 13596, Note_on_c, 0, 74, 0
2, 13596, Note_on_c, 0, 72, 0
2, 13596, Note_on_c, 0, 72, 87
2, 13596, Note_on_c, 0, 74, 89
2, 13596, Note_on_c, 0, 80, 107
2, 13608, Note_on_c, 0, 80, 0
2, 13608, Note_on_c, 0, 74, 0
2, 13608, Note_on_c, 0, 72, 0
2, 13608, Note_on_c, 0, 65, 80
2, 13608, Note_on_c, 0, 72, 106
2, 13620, Note_on_c, 0, 72, 0
2, 13620, Note_on_c, 0, 65, 0
2, 13620, Note_on_c, 0, 65, 78
2, 13620, Note_on_c, 0, 72, 80
2, 13620, Note_on_c, 0, 74, 106
2, 13632, Note_on_c, 0, 74, 0
2, 13632, Note_on_c, 0, 72, 0
2, 13632, Note_on_c, 0, 65, 0
2, 13632, Note_on_c, 0, 63, 77
2, 13632, Note_on_c, 0, 67, 79
2, 13632, Note_on_c, 0, 72, 81
2, 13632, Note_on_c, 0, 75, 106
2, 13632, Control_c, 0, 64, 127
2, 13634, Control_c, 0, 64, 0
2, 13640, Control_c, 0, 64, 127
2, 13648, Note_on_c, 0, 72, 0
2, 13648, Note_on_c, 0, 63, 0
2, 13648, Note_on_c, 0, 67, 0
2, 13648, Note_on_c, 0, 63, 75
2, 13648, Note_on_c, 0, 67, 77
2, 13648, Note_on_c, 0, 72, 79
2, 13664, Note_on_c, 0, 72, 0
2, 13664, Note_on_c, 0, 67, 0
2, 13664, Note_on_c, 0, 63, 0
2, 13664, Note_on_c, 0, 63, 73
2, 13664, Note_on_c, 0, 67, 75
2, 13664, Note_on_c, 0, 72, 77
2, 13678, Note_on_c, 0, 75, 0
2, 13680, Note_on_c, 0, 63, 0
2, 13680, Note_on_c, 0, 67, 0
2, 13680, Note_on_c, 0, 72, 0
2, 13680, Note_on_c, 0, 63, 71
2, 13680, Note_on_c, 0, 67, 73
2, 13680, Note_on_c, 0, 72, 75
2, 13696, Note_on_c, 0, 72, 0
2, 13696, Note_on_c, 0, 67, 0
2, 13696, Note_on_c, 0, 63, 0
2, 13696, Note_on_c, 0, 63, 69
2, 13696, Note_on_c, 0, 67, 71
2, 13696, Note_on_c, 0, 72, 73
2, 13712, Note_on_c, 0, 72, 0
2, 13712, Note_on_c, 0, 67, 0
2, 13712, Note_on_c, 0, 63, 0
2, 13712, Note_on_c, 0, 63, 70
2, 13712, Note_on_c, 0, 67, 72
2, 13712, Note_on_c, 0, 72, 99
2, 13715, Note_on_c, 0, 72, 0
2, 13715, Note_on_c, 0, 67, 0
2, 13715, Note_on_c, 0, 63, 0
2, 13718, Note_on_c, 0, 63, 72
2, 13718, Note_on_c, 0, 67, 74
2, 13718, Note_on_c, 0, 74, 101
2, 13721, Note_on_c, 0, 74, 0
2, 13721, Note_on_c, 0, 67, 0
2, 13721, Note_on_c, 0, 63, 0
2, 13723, Note_on_c, 0, 63, 70
2, 13723, Note_on_c, 0, 67, 72
2, 13723, Note_on_c, 0, 72, 99
2, 13726, Note_on_c, 0, 72, 0
2, 13726, Note_on_c, 0, 67, 0
2, 13726, Note_on_c, 0, 63, 0
2, 13728, Note_on_c, 0, 60, 72
2, 13728, Note_on_c, 0, 62, 74
2, 13728, Note_on_c, 0, 67, 95
2, 13730, Control_c, 0, 64, 0
2, 13736, Control_c, 0, 64, 127
2, 13744, Note_on_c, 0, 62, 0
2, 13744, Note_on_c, 0, 60, 0
2, 13744, Note_on_c, 0, 60, 74
2, 13744, Note_on_c, 0, 62, 76
2, 13760, Note_on_c, 0, 62, 0
2, 13760, Note_on_c, 0, 60, 0
2, 13760, Note_on_c, 0, 60, 76
2, 13760, Note_on_c, 0, 62, 78
2, 13776, Note_on_c, 0, 62, 0
2, 13776, Note_on_c, 0, 60, 0
2, 13776, Note_on_c, 0, 59, 76
2, 13776, Note_on_c, 0, 62, 78
2, 13792, Note_on_c, 0, 62, 0
2, 13792, Note_on_c, 0, 59, 0
2, 13792, Note_on_c, 0, 59, 74
2, 13792, Note_on_c, 0, 62, 76
2, 13806, Note_on_c, 0, 67, 0
2, 13808, Note_on_c, 0, 62, 0
2, 13808, Note_on_c, 0, 59, 0
2, 13808, Note_on_c, 0, 59, 74
2, 13808, Note_on_c, 0, 62, 76
2, 13808, Note_on_c, 0, 67, 96
2, 13811, Note_on_c, 0, 67, 0
2, 13811, Note_on_c, 0, 62, 0
2, 13811, Note_on_c, 0, 59, 0
2, 13814, Note_on_c, 0, 59, 72
2, 13814, Note_on_c, 0, 62, 74
2, 13814, Note_on_c, 0, 68, 98
2, 13817, Note_on_c, 0, 68, 0
2, 13817, Note_on_c, 0, 62, 0
2, 13817, Note_on_c, 0, 59, 0
2, 13819, Note_on_c, 0, 59, 70
2, 13819, Note_on_c, 0, 62, 72
2, 13819, Note_on_c, 0, 67, 96
2, 13822, Note_on_c, 0, 67, 0
2, 13822, Note_on_c, 0, 62, 0
2, 13822, Note_on_c, 0, 59, 0
2, 13824, Note_on_c, 0, 51, 70
2, 13824, Note_on_c, 0, 56, 72
2, 13824, Note_on_c, 0, 60, 90
2, 13824, Control_c, 0, 64, 127
2, 13826, Control_c, 0, 64, 0
2, 13832, Control_c, 0, 64, 127
2, 13840, Note_on_c, 0, 56, 0
2, 13840, Note_on_c, 0, 51, 0
2, 13922, Control_c, 0, 64, 0
2, 13928, Control_c, 0, 64, 127
2, 13932, Note_on_c, 0, 60, 0
2, 13932, Note_on_c, 0, 61, 80
2, 13944, Note_on_c, 0, 61, 0
2, 13944, Note_on_c, 0, 65, 82
2, 13956, Note_on_c, 0, 65, 0
2, 13956, Note_on_c, 0, 68, 83
2, 13968, Note_on_c, 0, 68, 0
2, 13968, Note_on_c, 0, 73, 84
2, 13980, Note_on_c, 0, 73, 0
2, 13980, Note_on_c, 0, 76, 85
2, 13992, Note_on_c, 0, 76, 0
2, 13992, Note_on_c, 0, 77, 86
2, 14004, Note_on_c, 0, 77, 0
2, 14004, Note_on_c, 0, 80, 84
2, 14016, Note_on_c, 0, 80, 0
2, 14016, Note_on_c, 0, 59, 85
2, 14016, Control_c, 0, 64, 127
2, 14018, Control_c, 0, 64, 0
2, 14024, Control_c, 0, 64, 127
2, 14114, Control_c, 0, 64, 0
2, 14120, Control_c, 0, 64, 127
2, 14124, Note_on_c, 0, 59, 0
2, 14124, Note_on_c, 0, 68, 78
2, 14136, Note_on_c, 0, 68, 0
2, 14136, Note_on_c, 0, 67, 79
2, 14148, Note_on_c, 0, 67, 0
2, 14148, Note_on_c, 0, 66, 80
2, 14160, Note_on_c, 0, 66, 0
2, 14160, Note_on_c, 0, 65, 78
2, 14172, Note_on_c, 0, 65, 0
2, 14172, Note_on_c, 0, 55, 72
2, 14184, Note_on_c, 0, 55, 0
2, 14184, Note_on_c, 0, 65, 74
2, 14196, Note_on_c, 0, 65, 0
2, 14196, Note_on_c, 0, 63, 69
2, 14208, Note_on_c, 0, 63, 0
2, 14208, Note_on_c, 0, 60, 66
2, 14208, Control_c, 0, 64, 127
2, 14210, Control_c, 0, 64, 0
2, 14216, Control_c, 0, 64, 127
2, 14400, Control_c, 0, 64, 127
2, 14402, Control_c, 0, 64, 0
2, 14408, Control_c, 0, 64, 127
2, 14412, Note_on_c, 0, 60, 0
2, 14412, Note_on_c, 0, 55, 56
2, 14424, Note_on_c, 0, 55, 0
2, 14424, Note_on_c, 0, 60, 58
2, 14436, Note_on_c, 0, 60, 0
2, 14436, Note_on_c, 0, 62, 60
2, 14448, Note_on_c, 0, 62, 0
2, 14448, Note_on_c, 0, 63, 62
2, 14448, Control_c, 0, 64, 0
2, 14460, Note_on_c, 0, 63, 0
2, 14460, Note_on_c, 0, 66, 64
2, 14472, Note_on_c, 0, 66, 0
2, 14472, Note_on_c, 0, 68, 66
2, 14484, Note_on_c, 0, 68, 0
2, 14484, Note_on_c, 0, 67, 64
2, 14496, Note_on_c, 0, 67, 0
2, 14496, Note_on_c, 0, 71, 64
2, 14508, Note_on_c, 0, 71, 0
2, 14508, Note_on_c, 0, 74, 62
2, 14520, Note_on_c, 0, 74, 0
2, 14520, Note_on_c, 0, 72, 62
2, 14532, Note_on_c, 0, 72, 0
2, 14532, Note_on_c, 0, 75, 62
2, 14544, Note_on_c, 0, 75, 0
2, 14544, Note_on_c, 0, 78, 62
2, 14556, Note_on_c, 0, 78, 0
2, 14556, Note_on_c, 0, 79, 58
2, 14564, Note_on_c, 0, 82, 54
2, 14568, Note_on_c, 0, 82, 0
2, 14568, Note_on_c, 0, 79, 0
2, 14568, Note_on_c, 0, 80, 56
2, 14580, Note_on_c, 0, 80, 0
2, 14580, Note_on_c, 0, 79, 54
2, 14592, Note_on_c, 0, 79, 0
2, 14592, Note_on_c, 0, 84, 54
2, 14592, Control_c, 0, 64, 127
2, 14638, Note_on_c, 0, 84, 0
2, 14684, Control_c, 0, 64, 0
2, 14688, Note_on_c, 0, 51, 38
2, 14688, Note_on_c, 0, 55, 40
2, 14688, Note_on_c, 0, 60, 42
2, 14688, Note_on_c, 0, 63, 44
2, 14696, Control_c, 0, 64, 127
2, 14724, Note_on_c, 0, 63, 0
2, 14724, Note_on_c, 0, 51, 0
2, 14724, Note_on_c, 0, 55, 0
2, 14724, Note_on_c, 0, 60, 0
2, 14736, Note_on_c, 0, 51, 38
2, 14736, Note_on_c, 0, 55, 40
2, 14736, Note_on_c, 0, 60, 42
2, 14736, Note_on_c, 0, 63, 44
2, 14772, Note_on_c, 0, 63, 0
2, 14772, Note_on_c, 0, 51, 0
2, 14772, Note_on_c, 0, 55, 0
2, 14772, Note_on_c, 0, 60, 0
2, 14784, Note_on_c, 0, 51, 34
2, 14784, Note_on_c, 0, 55, 36
2, 14784, Note_on_c, 0, 60, 38
2, 14784, Note_on_c, 0, 63, 40
2, 14784, Control_c, 0, 64, 127
2, 14928, Note_on_c, 0, 63, 0
2, 14928, Note_on_c, 0, 51, 0
2, 14928, Note_on_c, 0, 55, 0
2, 14928, Note_on_c, 0, 60, 0
2, 14928, Control_c, 0, 64, 0
2, 14928, End_track
3, 0, Start_track
3, 0, MIDI_port, 0
3, 0, Title_t, "Piano L"
3, 0, Control_c, 1, 0, 0
3, 0, Control_c, 1, 32, 0
3, 0, Program_c, 1, 0
3, 0, Control_c, 1, 7, 127
3, 0, Control_c, 1, 10, 70
3, 192, Note_on_c, 1, 36, 37
3, 192, Note_on_c, 1, 48, 47
3, 192, Control_c, 1, 64, 127
3, 216, Note_on_c, 1, 48, 0
3, 216, Note_on_c, 1, 36, 0
3, 240, Note_on_c, 1, 55, 25
3, 240, Note_on_c, 1, 63, 30
3, 240, Note_on_c, 1, 67, 35
3, 264, Note_on_c, 1, 67, 0
3, 264, Note_on_c, 1, 63, 0
3, 264, Note_on_c, 1, 55, 0
3, 288, Note_on_c, 1, 36, 40
3, 288, Note_on_c, 1, 48, 50
3, 290, Control_c, 1, 64, 0
3, 296, Control_c, 1, 64, 127
3, 312, Note_on_c, 1, 48, 0
3, 312, Note_on_c, 1, 36, 0
3, 336, Note_on_c, 1, 56, 25
3, 336, Note_on_c, 1, 63, 30
3, 336, Note_on_c, 1, 68, 35
3, 360, Note_on_c, 1, 68, 0
3, 360, Note_on_c, 1, 63, 0
3, 360, Note_on_c, 1, 56, 0
3, 384, Note_on_c, 1, 35, 32
3, 384, Note_on_c, 1, 47, 42
3, 384, Control_c, 1, 64, 127
3, 386, Control_c, 1, 64, 0
3, 392, Control_c, 1, 64, 127
3, 408, Note_on_c, 1, 47, 0
3, 408, Note_on_c, 1, 35, 0
3, 432, Note_on_c, 1, 55, 28
3, 432, Note_on_c, 1, 62, 32
3, 432, Note_on_c, 1, 65, 35
3, 432, Note_on_c, 1, 67, 38
3, 456, Note_on_c, 1, 67, 0
3, 456, Note_on_c, 1, 55, 0
3, 456, Note_on_c, 1, 62, 0
3, 456, Note_on_c, 1, 65, 0
3, 480, Note_on_c, 1, 36, 35
3, 480, Note_on_c, 1, 48, 45
3, 482, Control_c, 1, 64, 0
3, 488, Control_c, 1, 64, 127
3, 504, Note_on_c, 1, 48, 0
3, 504, Note_on_c, 1, 36, 0
3, 528, Note_on_c, 1, 55, 28
3, 528, Note_on_c, 1, 60, 32
3, 528, Note_on_c, 1, 63, 35
3, 528, Note_on_c, 1, 67, 38
3, 552, Note_on_c, 1, 67, 0
3, 552, Note_on_c, 1, 55, 0
3, 552, Note_on_c, 1, 60, 0
3, 552, Note_on_c, 1, 63, 0
3, 576, Note_on_c, 1, 32, 35
3, 576, Note_on_c, 1, 44, 45
3, 576, Control_c, 1, 64, 127
3, 578, Control_c, 1, 64, 0
3, 584, Control_c, 1, 64, 127
3, 600, Note_on_c, 1, 44, 0
3, 600, Note_on_c, 1, 32, 0
3, 624, Note_on_c, 1, 60, 25
3, 624, Note_on_c, 1, 63, 30
3, 624, Note_on_c, 1, 68, 35
3, 648, Note_on_c, 1, 68, 0
3, 648, Note_on_c, 1, 63, 0
3, 648, Note_on_c, 1, 60, 0
3, 672, Note_on_c, 1, 29, 40
3, 672, Note_on_c, 1, 41, 50
3, 674, Control_c, 1, 64, 0
3, 680, Control_c, 1, 64, 127
3, 696, Note_on_c, 1, 41, 0
3, 696, Note_on_c, 1, 29, 0
3, 720, Note_on_c, 1, 53, 28
3, 720, Note_on_c, 1, 60, 33
3, 720, Note_on_c, 1, 62, 38
3, 744, Note_on_c, 1, 62, 0
3, 744, Note_on_c, 1, 60, 0
3, 744, Note_on_c, 1, 53, 0
3, 768, Note_on_c, 1, 31, 30
3, 768, Note_on_c, 1, 43, 40
3, 768, Control_c, 1, 64, 127
3, 770, Control_c, 1, 64, 0
3, 776, Control_c, 1, 64, 127
3, 792, Note_on_c, 1, 43, 0
3, 792, Note_on_c, 1, 31, 0
3, 816, Note_on_c, 1, 53, 35
3, 816, Note_on_c, 1, 59, 40
3, 840, Note_on_c, 1, 59, 0
3, 840, Note_on_c, 1, 53, 0
3, 864, Note_on_c, 1, 24, 25
3, 864, Note_on_c, 1, 36, 35
3, 866, Control_c, 1, 64, 0
3, 876, Control_c, 1, 64, 127
3, 888, Note_on_c, 1, 36, 0
3, 888, Note_on_c, 1, 24, 0
3, 912, Note_on_c, 1, 51, 30
3, 912, Note_on_c, 1, 55, 35
3, 936, Note_on_c, 1, 55, 0
3, 936, Note_on_c, 1, 51, 0
3, 956, Control_c, 1, 64, 0
3, 960, Note_on_c, 1, 27, 40
3, 960, Note_on_c, 1, 39, 50
3, 960, Control_c, 1, 64, 127
3, 984, Note_on_c, 1, 39, 0
3, 984, Note_on_c, 1, 27, 0
3, 1008, Note_on_c, 1, 55, 20
3, 1008, Note_on_c, 1, 58, 25
3, 1008, Note_on_c, 1, 63, 30
3, 1008, Note_on_c, 1, 67, 35
3, 1032, Note_on_c, 1, 67, 0
3, 1032, Note_on_c, 1, 55, 0
3, 1032, Note_on_c, 1, 58, 0
3, 1032, Note_on_c, 1, 63, 0
3, 1056, Note_on_c, 1, 32, 45
3, 1056, Note_on_c, 1, 44, 55
3, 1058, Control_c, 1, 64, 0
3, 1064, Control_c, 1, 64, 127
3, 1080, Note_on_c, 1, 44, 0
3, 1080, Note_on_c, 1, 32, 0
3, 1104, Note_on_c, 1, 53, 30
3, 1104, Note_on_c, 1, 60, 35
3, 1104, Note_on_c, 1, 63, 40
3, 1128, Note_on_c, 1, 63, 0
3, 1128, Note_on_c, 1, 60, 0
3, 1128, Note_on_c, 1, 53, 0
3, 1152, Note_on_c, 1, 34, 50
3, 1152, Note_on_c, 1, 46, 60
3, 1152, Control_c, 1, 64, 127
3, 1154, Control_c, 1, 64, 0
3, 1160, Control_c, 1, 64, 127
3, 1176, Note_on_c, 1, 46, 0
3, 1176, Note_on_c, 1, 34, 0
3, 1200, Note_on_c, 1, 58, 42
3, 1200, Note_on_c, 1, 62, 45
3, 1200, Note_on_c, 1, 68, 48
3, 1224, Note_on_c, 1, 68, 0
3, 1224, Note_on_c, 1, 62, 0
3, 1224, Note_on_c, 1, 58, 0
3, 1236, Note_on_c, 1, 35, 45
3, 1236, Note_on_c, 1, 47, 55
3, 1246, Note_on_c, 1, 47, 0
3, 1246, Note_on_c, 1, 35, 0
3, 1248, Note_on_c, 1, 36, 45
3, 1248, Note_on_c, 1, 48, 55
3, 1250, Control_c, 1, 64, 0
3, 1256, Control_c, 1, 64, 127
3, 1272, Note_on_c, 1, 48, 0
3, 1272, Note_on_c, 1, 36, 0
3, 1296, Note_on_c, 1, 57, 32
3, 1296, Note_on_c, 1, 63, 35
3, 1296, Note_on_c, 1, 67, 38
3, 1320, Note_on_c, 1, 67, 0
3, 1320, Note_on_c, 1, 63, 0
3, 1320, Note_on_c, 1, 57, 0
3, 1344, Note_on_c, 1, 38, 45
3, 1344, Note_on_c, 1, 50, 55
3, 1344, Control_c, 1, 64, 127
3, 1346, Control_c, 1, 64, 0
3, 1352, Control_c, 1, 64, 127
3, 1368, Note_on_c, 1, 50, 0
3, 1368, Note_on_c, 1, 38, 0
3, 1392, Note_on_c, 1, 58, 35
3, 1392, Note_on_c, 1, 67, 40
3, 1404, Note_on_c, 1, 67, 0
3, 1416, Note_on_c, 1, 58, 0
3, 1440, Note_on_c, 1, 26, 50
3, 1440, Note_on_c, 1, 38, 50
3, 1442, Control_c, 1, 64, 0
3, 1448, Control_c, 1, 64, 127
3, 1464, Note_on_c, 1, 38, 0
3, 1464, Note_on_c, 1, 26, 0
3, 1488, Note_on_c, 1, 57, 33
3, 1488, Note_on_c, 1, 60, 38
3, 1512, Note_on_c, 1, 60, 0
3, 1512, Note_on_c, 1, 57, 0
3, 1536, Note_on_c, 1, 31, 45
3, 1536, Note_on_c, 1, 43, 45
3, 1536, Control_c, 1, 64, 127
3, 1538, Control_c, 1, 64, 0
3, 1544, Control_c, 1, 64, 127
3, 1560, Note_on_c, 1, 43, 0
3, 1560, Note_on_c, 1, 31, 0
3, 1584, Note_on_c, 1, 50, 22
3, 1584, Note_on_c, 1, 58, 27
3, 1584, Note_on_c, 1, 62, 32
3, 1608, Note_on_c, 1, 62, 0
3, 1608, Note_on_c, 1, 58, 0
3, 1608, Note_on_c, 1, 50, 0
3, 1620, Note_on_c, 1, 38, 35
3, 1632, Note_on_c, 1, 38, 0
3, 1632, Note_on_c, 1, 31, 25
3, 1632, Note_on_c, 1, 43, 35
3, 1634, Control_c, 1, 64, 0
3, 1640, Control_c, 1, 64, 127
3, 1656, Note_on_c, 1, 43, 0
3, 1656, Note_on_c, 1, 31, 0
3, 1680, Note_on_c, 1, 50, 20
3, 1680, Note_on_c, 1, 58, 25
3, 1680, Note_on_c, 1, 62, 30
3, 1704, Note_on_c, 1, 62, 0
3, 1704, Note_on_c, 1, 58, 0
3, 1704, Note_on_c, 1, 50, 0
3, 1724, Control_c, 1, 64, 0
3, 1728, Note_on_c, 1, 30, 40
3, 1728, Note_on_c, 1, 42, 50
3, 1728, Control_c, 1, 64, 127
3, 1752, Note_on_c, 1, 42, 0
3, 1752, Note_on_c, 1, 30, 0
3, 1776, Note_on_c, 1, 54, 25
3, 1776, Note_on_c, 1, 56, 30
3, 1776, Note_on_c, 1, 60, 35
3, 1776, Note_on_c, 1, 63, 40
3, 1800, Note_on_c, 1, 63, 0
3, 1800, Note_on_c, 1, 54, 0
3, 1800, Note_on_c, 1, 56, 0
3, 1800, Note_on_c, 1, 60, 0
3, 1824, Note_on_c, 1, 29, 40
3, 1824, Note_on_c, 1, 41, 50
3, 1826, Control_c, 1, 64, 0
3, 1832, Control_c, 1, 64, 127
3, 1848, Note_on_c, 1, 41, 0
3, 1848, Note_on_c, 1, 29, 0
3, 1872, Note_on_c, 1, 53, 25
3, 1872, Note_on_c, 1, 56, 30
3, 1872, Note_on_c, 1, 61, 35
3, 1872, Note_on_c, 1, 65, 40
3, 1896, Note_on_c, 1, 65, 0
3, 1896, Note_on_c, 1, 53, 0
3, 1896, Note_on_c, 1, 56, 0
3, 1896, Note_on_c, 1, 61, 0
3, 1920, Note_on_c, 1, 24, 40
3, 1920, Note_on_c, 1, 36, 45
3, 1920, Control_c, 1, 64, 127
3, 1922, Control_c, 1, 64, 0
3, 1928, Control_c, 1, 64, 127
3, 1944, Note_on_c, 1, 36, 0
3, 1944, Note_on_c, 1, 24, 0
3, 1968, Note_on_c, 1, 51, 32
3, 1968, Note_on_c, 1, 56, 35
3, 1968, Note_on_c, 1, 63, 38
3, 1992, Note_on_c, 1, 63, 0
3, 1992, Note_on_c, 1, 56, 0
3, 1992, Note_on_c, 1, 51, 0
3, 2016, Note_on_c, 1, 25, 35
3, 2016, Note_on_c, 1, 37, 40
3, 2018, Control_c, 1, 64, 0
3, 2024, Control_c, 1, 64, 127
3, 2040, Note_on_c, 1, 37, 0
3, 2040, Note_on_c, 1, 25, 0
3, 2064, Note_on_c, 1, 53, 32
3, 2064, Note_on_c, 1, 56, 35
3, 2064, Note_on_c, 1, 61, 38
3, 2088, Note_on_c, 1, 61, 0
3, 2088, Note_on_c, 1, 56, 0
3, 2088, Note_on_c, 1, 53, 0
3, 2100, Note_on_c, 1, 36, 45
3, 2100, Note_on_c, 1, 48, 55
3, 2112, Note_on_c, 1, 48, 0
3, 2112, Note_on_c, 1, 36, 0
3, 2112, Note_on_c, 1, 35, 45
3, 2112, Note_on_c, 1, 47, 55
3, 2112, Control_c, 1, 64, 127
3, 2114, Control_c, 1, 64, 0
3, 2120, Control_c, 1, 64, 127
3, 2136, Note_on_c, 1, 47, 0
3, 2136, Note_on_c, 1, 35, 0
3, 2160, Note_on_c, 1, 55, 35
3, 2160, Note_on_c, 1, 62, 35
3, 2160, Note_on_c, 1, 65, 40
3, 2184, Note_on_c, 1, 65, 0
3, 2184, Note_on_c, 1, 62, 0
3, 2184, Note_on_c, 1, 55, 0
3, 2208, Note_on_c, 1, 36, 45
3, 2208, Note_on_c, 1, 48, 55
3, 2210, Control_c, 1, 64, 0
3, 2216, Control_c, 1, 64, 127
3, 2232, Note_on_c, 1, 48, 0
3, 2232, Note_on_c, 1, 36, 0
3, 2256, Note_on_c, 1, 55, 38
3, 2256, Note_on_c, 1, 60, 38
3, 2256, Note_on_c, 1, 67, 43
3, 2280, Note_on_c, 1, 67, 0
3, 2280, Note_on_c, 1, 60, 0
3, 2280, Note_on_c, 1, 55, 0
3, 2304, Note_on_c, 1, 38, 45
3, 2304, Note_on_c, 1, 50, 55
3, 2304, Control_c, 1, 64, 127
3, 2306, Control_c, 1, 64, 0
3, 2312, Control_c, 1, 64, 127
3, 2328, Note_on_c, 1, 50, 0
3, 2328, Note_on_c, 1, 38, 0
3, 2352, Note_on_c, 1, 55, 25
3, 2352, Note_on_c, 1, 59, 30
3, 2352, Note_on_c, 1, 65, 35
3, 2352, Note_on_c, 1, 67, 40
3, 2376, Note_on_c, 1, 67, 0
3, 2376, Note_on_c, 1, 55, 0
3, 2376, Note_on_c, 1, 59, 0
3, 2376, Note_on_c, 1, 65, 0
3, 2400, Note_on_c, 1, 39, 30
3, 2400, Note_on_c, 1, 51, 40
3, 2402, Control_c, 1, 64, 0
3, 2408, Control_c, 1, 64, 127
3, 2424, Note_on_c, 1, 51, 0
3, 2424, Note_on_c, 1, 39, 0
3, 2448, Note_on_c, 1, 55, 35
3, 2448, Note_on_c, 1, 60, 30
3, 2448, Note_on_c, 1, 67, 35
3, 2472, Note_on_c, 1, 67, 0
3, 2472, Note_on_c, 1, 60, 0
3, 2472, Note_on_c, 1, 55, 0
3, 2484, Note_on_c, 1, 39, 40
3, 2484, Note_on_c, 1, 51, 50
3, 2496, Note_on_c, 1, 51, 0
3, 2496, Note_on_c, 1, 39, 0
3, 2496, Note_on_c, 1, 41, 35
3, 2496, Note_on_c, 1, 53, 45
3, 2496, Control_c, 1, 64, 127
3, 2498, Control_c, 1, 64, 0
3, 2504, Control_c, 1, 64, 127
3, 2520, Note_on_c, 1, 53, 0
3, 2520, Note_on_c, 1, 41, 0
3, 2544, Note_on_c, 1, 56, 30
3, 2544, Note_on_c, 1, 62, 35
3, 2544, Note_on_c, 1, 68, 40
3, 2568, Note_on_c, 1, 68, 0
3, 2568, Note_on_c, 1, 62, 0
3, 2568, Note_on_c, 1, 56, 0
3, 2592, Note_on_c, 1, 39, 40
3, 2592, Note_on_c, 1, 51, 50
3, 2594, Control_c, 1, 64, 0
3, 2600, Control_c, 1, 64, 127
3, 2616, Note_on_c, 1, 51, 0
3, 2616, Note_on_c, 1, 39, 0
3, 2640, Note_on_c, 1, 55, 40
3, 2640, Note_on_c, 1, 60, 40
3, 2640, Note_on_c, 1, 67, 45
3, 2664, Note_on_c, 1, 67, 0
3, 2664, Note_on_c, 1, 60, 0
3, 2664, Note_on_c, 1, 55, 0
3, 2676, Note_on_c, 1, 36, 45
3, 2676, Note_on_c, 1, 48, 55
3, 2688, Note_on_c, 1, 48, 0
3, 2688, Note_on_c, 1, 36, 0
3, 2688, Note_on_c, 1, 35, 40
3, 2688, Note_on_c, 1, 47, 50
3, 2688, Control_c, 1, 64, 127
3, 2690, Control_c, 1, 64, 0
3, 2696, Control_c, 1, 64, 127
3, 2712, Note_on_c, 1, 47, 0
3, 2712, Note_on_c, 1, 35, 0
3, 2736, Note_on_c, 1, 55, 35
3, 2736, Note_on_c, 1, 62, 35
3, 2736, Note_on_c, 1, 65, 40
3, 2736, Note_on_c, 1, 67, 45
3, 2760, Note_on_c, 1, 67, 0
3, 2760, Note_on_c, 1, 55, 0
3, 2760, Note_on_c, 1, 62, 0
3, 2760, Note_on_c, 1, 65, 0
3, 2784, Note_on_c, 1, 36, 50
3, 2784, Note_on_c, 1, 48, 60
3, 2786, Control_c, 1, 64, 0
3, 2792, Control_c, 1, 64, 127
3, 2808, Note_on_c, 1, 48, 0
3, 2808, Note_on_c, 1, 36, 0
3, 2832, Note_on_c, 1, 55, 35
3, 2832, Note_on_c, 1, 60, 35
3, 2832, Note_on_c, 1, 63, 40
3, 2832, Note_on_c, 1, 67, 45
3, 2856, Note_on_c, 1, 67, 0
3, 2856, Note_on_c, 1, 55, 0
3, 2856, Note_on_c, 1, 60, 0
3, 2856, Note_on_c, 1, 63, 0
3, 2868, Note_on_c, 1, 36, 58
3, 2878, Control_c, 1, 64, 0
3, 2880, Note_on_c, 1, 36, 0
3, 2880, Note_on_c, 1, 29, 35
3, 2880, Note_on_c, 1, 41, 45
3, 2880, Control_c, 1, 64, 127
3, 2904, Note_on_c, 1, 41, 0
3, 2904, Note_on_c, 1, 29, 0
3, 2928, Note_on_c, 1, 53, 25
3, 2928, Note_on_c, 1, 60, 30
3, 2928, Note_on_c, 1, 68, 35
3, 2952, Note_on_c, 1, 68, 0
3, 2952, Note_on_c, 1, 60, 0
3, 2952, Note_on_c, 1, 53, 0
3, 2976, Note_on_c, 1, 32, 30
3, 2976, Note_on_c, 1, 44, 40
3, 2978, Control_c, 1, 64, 0
3, 2984, Control_c, 1, 64, 127
3, 3000, Note_on_c, 1, 44, 0
3, 3000, Note_on_c, 1, 32, 0
3, 3024, Note_on_c, 1, 53, 20
3, 3024, Note_on_c, 1, 60, 25
3, 3024, Note_on_c, 1, 68, 30
3, 3048, Note_on_c, 1, 68, 0
3, 3048, Note_on_c, 1, 60, 0
3, 3048, Note_on_c, 1, 53, 0
3, 3072, Note_on_c, 1, 34, 25
3, 3072, Note_on_c, 1, 46, 35
3, 3072, Control_c, 1, 64, 127
3, 3074, Control_c, 1, 64, 0
3, 3080, Control_c, 1, 64, 127
3, 3096, Note_on_c, 1, 46, 0
3, 3096, Note_on_c, 1, 34, 0
3, 3120, Note_on_c, 1, 53, 30
3, 3120, Note_on_c, 1, 58, 30
3, 3120, Note_on_c, 1, 62, 33
3, 3120, Note_on_c, 1, 68, 38
3, 3144, Note_on_c, 1, 68, 0
3, 3144, Note_on_c, 1, 53, 0
3, 3144, Note_on_c, 1, 58, 0
3, 3144, Note_on_c, 1, 62, 0
3, 3156, Note_on_c, 1, 34, 45
3, 3156, Note_on_c, 1, 46, 55
3, 3168, Note_on_c, 1, 46, 0
3, 3168, Note_on_c, 1, 34, 0
3, 3168, Note_on_c, 1, 35, 50
3, 3168, Note_on_c, 1, 47, 60
3, 3170, Control_c, 1, 64, 0
3, 3176, Control_c, 1, 64, 127
3, 3192, Note_on_c, 1, 47, 0
3, 3192, Note_on_c, 1, 35, 0
3, 3216, Note_on_c, 1, 55, 46
3, 3216, Note_on_c, 1, 62, 49
3, 3216, Note_on_c, 1, 65, 52
3, 3216, Note_on_c, 1, 67, 55
3, 3240, Note_on_c, 1, 67, 0
3, 3240, Note_on_c, 1, 55, 0
3, 3240, Note_on_c, 1, 62, 0
3, 3240, Note_on_c, 1, 65, 0
3, 3252, Note_on_c, 1, 31, 55
3, 3252, Note_on_c, 1, 43, 65
3, 3264, Note_on_c, 1, 43, 0
3, 3264, Note_on_c, 1, 31, 0
3, 3264, Note_on_c, 1, 36, 60
3, 3264, Note_on_c, 1, 48, 70
3, 3264, Control_c, 1, 64, 127
3, 3266, Control_c, 1, 64, 0
3, 3272, Control_c, 1, 64, 127
3, 3288, Note_on_c, 1, 48, 0
3, 3288, Note_on_c, 1, 36, 0
3, 3312, Note_on_c, 1, 60, 35
3, 3312, Note_on_c, 1, 64, 40
3, 3312, Note_on_c, 1, 70, 45
3, 3336, Note_on_c, 1, 70, 0
3, 3336, Note_on_c, 1, 64, 0
3, 3336, Note_on_c, 1, 60, 0
3, 3360, Note_on_c, 1, 29, 55
3, 3360, Note_on_c, 1, 41, 65
3, 3362, Control_c, 1, 64, 0
3, 3368, Control_c, 1, 64, 127
3, 3384, Note_on_c, 1, 41, 0
3, 3384, Note_on_c, 1, 29, 0
3, 3408, Note_on_c, 1, 60, 35
3, 3408, Note_on_c, 1, 63, 40
3, 3408, Note_on_c, 1, 68, 45
3, 3432, Note_on_c, 1, 68, 0
3, 3432, Note_on_c, 1, 63, 0
3, 3432, Note_on_c, 1, 60, 0
3, 3456, Note_on_c, 1, 34, 55
3, 3456, Note_on_c, 1, 46, 65
3, 3456, Control_c, 1, 64, 127
3, 3458, Control_c, 1, 64, 0
3, 3464, Control_c, 1, 64, 127
3, 3480, Note_on_c, 1, 46, 0
3, 3480, Note_on_c, 1, 34, 0
3, 3504, Note_on_c, 1, 53, 43
3, 3504, Note_on_c, 1, 58, 47
3, 3504, Note_on_c, 1, 62, 50
3, 3504, Note_on_c, 1, 68, 53
3, 3528, Note_on_c, 1, 68, 0
3, 3528, Note_on_c, 1, 53, 0
3, 3528, Note_on_c, 1, 58, 0
3, 3528, Note_on_c, 1, 62, 0
3, 3552, Note_on_c, 1, 39, 50
3, 3552, Note_on_c, 1, 51, 60
3, 3554, Control_c, 1, 64, 0
3, 3560, Control_c, 1, 64, 127
3, 3576, Note_on_c, 1, 51, 0
3, 3576, Note_on_c, 1, 39, 0
3, 3600, Note_on_c, 1, 55, 43
3, 3600, Note_on_c, 1, 58, 47
3, 3600, Note_on_c, 1, 62, 50
3, 3600, Note_on_c, 1, 67, 53
3, 3624, Note_on_c, 1, 67, 0
3, 3624, Note_on_c, 1, 55, 0
3, 3624, Note_on_c, 1, 58, 0
3, 3624, Note_on_c, 1, 62, 0
3, 3648, Note_on_c, 1, 32, 50
3, 3648, Note_on_c, 1, 44, 60
3, 3648, Control_c, 1, 64, 127
3, 3650, Control_c, 1, 64, 0
3, 3656, Control_c, 1, 64, 127
3, 3672, Note_on_c, 1, 44, 0
3, 3672, Note_on_c, 1, 32, 0
3, 3696, Note_on_c, 1, 56, 43
3, 3696, Note_on_c, 1, 60, 48
3, 3696, Note_on_c, 1, 68, 53
3, 3720, Note_on_c, 1, 68, 0
3, 3720, Note_on_c, 1, 60, 0
3, 3720, Note_on_c, 1, 56, 0
3, 3744, Note_on_c, 1, 38, 55
3, 3744, Note_on_c, 1, 50, 65
3, 3746, Control_c, 1, 64, 0
3, 3752, Control_c, 1, 64, 127
3, 3768, Note_on_c, 1, 50, 0
3, 3768, Note_on_c, 1, 38, 0
3, 3792, Note_on_c, 1, 56, 38
3, 3792, Note_on_c, 1, 60, 43
3, 3792, Note_on_c, 1, 65, 48
3, 3816, Note_on_c, 1, 65, 0
3, 3816, Note_on_c, 1, 60, 0
3, 3816, Note_on_c, 1, 56, 0
3, 3840, Note_on_c, 1, 31, 50
3, 3840, Note_on_c, 1, 43, 60
3, 3840, Control_c, 1, 64, 127
3, 3842, Control_c, 1, 64, 0
3, 3848, Control_c, 1, 64, 127
3, 3864, Note_on_c, 1, 43, 0
3, 3864, Note_on_c, 1, 31, 0
3, 3888, Note_on_c, 1, 55, 45
3, 3888, Note_on_c, 1, 59, 50
3, 3888, Note_on_c, 1, 65, 55
3, 3912, Note_on_c, 1, 65, 0
3, 3912, Note_on_c, 1, 59, 0
3, 3912, Note_on_c, 1, 55, 0
3, 3936, Note_on_c, 1, 32, 55
3, 3936, Note_on_c, 1, 44, 65
3, 3938, Control_c, 1, 64, 0
3, 3944, Control_c, 1, 64, 127
3, 3960, Note_on_c, 1, 44, 0
3, 3960, Note_on_c, 1, 32, 0
3, 3984, Note_on_c, 1, 51, 45
3, 3984, Note_on_c, 1, 56, 50
3, 3984, Note_on_c, 1, 63, 55
3, 4008, Note_on_c, 1, 63, 0
3, 4008, Note_on_c, 1, 56, 0
3, 4008, Note_on_c, 1, 51, 0
3, 4032, Note_on_c, 1, 27, 60
3, 4032, Note_on_c, 1, 39, 70
3, 4032, Control_c, 1, 64, 127
3, 4034, Control_c, 1, 64, 0
3, 4040, Control_c, 1, 64, 127
3, 4056, Note_on_c, 1, 39, 0
3, 4056, Note_on_c, 1, 27, 0
3, 4080, Note_on_c, 1, 51, 45
3, 4080, Note_on_c, 1, 55, 50
3, 4080, Note_on_c, 1, 60, 55
3, 4104, Note_on_c, 1, 60, 0
3, 4104, Note_on_c, 1, 55, 0
3, 4104, Note_on_c, 1, 51, 0
3, 4126, Control_c, 1, 64, 0
3, 4128, Note_on_c, 1, 29, 53
3, 4128, Note_on_c, 1, 41, 63
3, 4132, Control_c, 1, 64, 127
3, 4152, Note_on_c, 1, 41, 0
3, 4152, Note_on_c, 1, 29, 0
3, 4176, Note_on_c, 1, 49, 44
3, 4176, Note_on_c, 1, 56, 49
3, 4176, Note_on_c, 1, 61, 54
3, 4200, Note_on_c, 1, 61, 0
3, 4200, Note_on_c, 1, 56, 0
3, 4200, Note_on_c, 1, 49, 0
3, 4224, Note_on_c, 1, 31, 65
3, 4224, Note_on_c, 1, 43, 75
3, 4224, Control_c, 1, 64, 127
3, 4226, Control_c, 1, 64, 0
3, 4232, Control_c, 1, 64, 127
3, 4248, Note_on_c, 1, 43, 0
3, 4248, Note_on_c, 1, 31, 0
3, 4272, Note_on_c, 1, 52, 57
3, 4272, Note_on_c, 1, 58, 60
3, 4272, Note_on_c, 1, 60, 63
3, 4296, Note_on_c, 1, 60, 0
3, 4296, Note_on_c, 1, 58, 0
3, 4296, Note_on_c, 1, 52, 0
3, 4320, Note_on_c, 1, 32, 70
3, 4320, Note_on_c, 1, 44, 80
3, 4322, Control_c, 1, 64, 0
3, 4328, Control_c, 1, 64, 127
3, 4344, Note_on_c, 1, 44, 0
3, 4344, Note_on_c, 1, 32, 0
3, 4368, Note_on_c, 1, 53, 63
3, 4368, Note_on_c, 1, 60, 68
3, 4392, Note_on_c, 1, 60, 0
3, 4392, Note_on_c, 1, 53, 0
3, 4416, Note_on_c, 1, 31, 75
3, 4416, Note_on_c, 1, 43, 85
3, 4416, Control_c, 1, 64, 127
3, 4418, Control_c, 1, 64, 0
3, 4424, Control_c, 1, 64, 127
3, 4440, Note_on_c, 1, 43, 0
3, 4440, Note_on_c, 1, 31, 0
3, 4464, Note_on_c, 1, 51, 65
3, 4464, Note_on_c, 1, 55, 70
3, 4464, Note_on_c, 1, 60, 75
3, 4488, Note_on_c, 1, 60, 0
3, 4488, Note_on_c, 1, 55, 0
3, 4488, Note_on_c, 1, 51, 0
3, 4512, Note_on_c, 1, 31, 80
3, 4512, Note_on_c, 1, 43, 90
3, 4514, Control_c, 1, 64, 0
3, 4520, Control_c, 1, 64, 127
3, 4536, Note_on_c, 1, 43, 0
3, 4536, Note_on_c, 1, 31, 0
3, 4560, Note_on_c, 1, 50, 73
3, 4560, Note_on_c, 1, 55, 78
3, 4560, Note_on_c, 1, 59, 83
3, 4584, Note_on_c, 1, 59, 0
3, 4584, Note_on_c, 1, 55, 0
3, 4584, Note_on_c, 1, 50, 0
3, 4608, Note_on_c, 1, 24, 85
3, 4608, Note_on_c, 1, 36, 95
3, 4608, Control_c, 1, 64, 127
3, 4610, Control_c, 1, 64, 0
3, 4616, Control_c, 1, 64, 127
3, 4656, Note_on_c, 1, 55, 70
3, 4656, Note_on_c, 1, 58, 75
3, 4658, Control_c, 1, 64, 0
3, 4664, Control_c, 1, 64, 127
3, 4704, Note_on_c, 1, 58, 0
3, 4704, Note_on_c, 1, 55, 0
3, 4704, Note_on_c, 1, 54, 58
3, 4704, Note_on_c, 1, 57, 63
3, 4706, Control_c, 1, 64, 0
3, 4712, Control_c, 1, 64, 127
3, 4752, Note_on_c, 1, 57, 0
3, 4752, Note_on_c, 1, 54, 0
3, 4752, Note_on_c, 1, 53, 40
3, 4752, Note_on_c, 1, 56, 45
3, 4754, Control_c, 1, 64, 0
3, 4760, Control_c, 1, 64, 127
3, 4796, Control_c, 1, 64, 0
3, 4798, Note_on_c, 1, 56, 0
3, 4798, Note_on_c, 1, 53, 0
3, 4798, Note_on_c, 1, 24, 0
3, 4800, Note_on_c, 1, 48, 35
3, 4800, Control_c, 1, 64, 127
3, 4872, Note_on_c, 1, 48, 0
3, 4872, Note_on_c, 1, 36, 0
3, 4896, Note_on_c, 1, 31, 25
3, 4896, Note_on_c, 1, 43, 30
3, 4898, Control_c, 1, 64, 0
3, 4904, Control_c, 1, 64, 127
3, 4932, Note_on_c, 1, 43, 0
3, 4932, Note_on_c, 1, 31, 0
3, 4944, Note_on_c, 1, 43, 28
3, 4968, Note_on_c, 1, 43, 0
3, 4980, Note_on_c, 1, 43, 30
3, 4982, Control_c, 1, 64, 0
3, 4986, Control_c, 1, 64, 127
3, 4988, Note_on_c, 1, 43, 0
3, 4992, Note_on_c, 1, 36, 25
3, 4992, Note_on_c, 1, 48, 30
3, 4992, Control_c, 1, 64, 127
3, 4994, Control_c, 1, 64, 0
3, 5000, Control_c, 1, 64, 127
3, 5028, Note_on_c, 1, 48, 0
3, 5028, Note_on_c, 1, 36, 0
3, 5040, Note_on_c, 1, 36, 27
3, 5040, Note_on_c, 1, 48, 32
3, 5076, Note_on_c, 1, 48, 0
3, 5076, Note_on_c, 1, 36, 0
3, 5088, Note_on_c, 1, 36, 29
3, 5088, Note_on_c, 1, 43, 31
3, 5088, Note_on_c, 1, 48, 34
3, 5124, Note_on_c, 1, 48, 0
3, 5124, Note_on_c, 1, 43, 0
3, 5124, Note_on_c, 1, 36, 0
3, 5136, Note_on_c, 1, 36, 31
3, 5136, Note_on_c, 1, 48, 36
3, 5172, Note_on_c, 1, 48, 0
3, 5172, Note_on_c, 1, 36, 0
3, 5184, Note_on_c, 1, 36, 30
3, 5184, Note_on_c, 1, 43, 33
3, 5184, Note_on_c, 1, 52, 36
3, 5184, Control_c, 1, 64, 127
3, 5256, Note_on_c, 1, 52, 0
3, 5256, Note_on_c, 1, 43, 0
3, 5256, Note_on_c, 1, 36, 0
3, 5280, Note_on_c, 1, 45, 35
3, 5280, Note_on_c, 1, 52, 40
3, 5282, Control_c, 1, 64, 0
3, 5288, Control_c, 1, 64, 127
3, 5316, Note_on_c, 1, 52, 0
3, 5316, Note_on_c, 1, 45, 0
3, 5328, Note_on_c, 1, 33, 30
3, 5328, Note_on_c, 1, 45, 35
3, 5352, Note_on_c, 1, 45, 0
3, 5352, Note_on_c, 1, 33, 0
3, 5364, Note_on_c, 1, 33, 30
3, 5364, Note_on_c, 1, 45, 35
3, 5366, Control_c, 1, 64, 0
3, 5370, Control_c, 1, 64, 127
3, 5372, Note_on_c, 1, 33, 0
3, 5376, Note_on_c, 1, 38, 30
3, 5376, Note_on_c, 1, 50, 35
3, 5376, Control_c, 1, 64, 127
3, 5378, Control_c, 1, 64, 0
3, 5384, Control_c, 1, 64, 127
3, 5422, Note_on_c, 1, 45, 0
3, 5448, Note_on_c, 1, 50, 0
3, 5448, Note_on_c, 1, 38, 0
3, 5472, Note_on_c, 1, 31, 30
3, 5472, Note_on_c, 1, 43, 35
3, 5474, Control_c, 1, 64, 0
3, 5480, Control_c, 1, 64, 127
3, 5508, Note_on_c, 1, 43, 0
3, 5508, Note_on_c, 1, 31, 0
3, 5520, Note_on_c, 1, 43, 30
3, 5520, Note_on_c, 1, 53, 35
3, 5522, Control_c, 1, 64, 0
3, 5528, Control_c, 1, 64, 127
3, 5550, Control_c, 1, 64, 0
3, 5556, Note_on_c, 1, 53, 0
3, 5556, Note_on_c, 1, 43, 0
3, 5556, Control_c, 1, 64, 127
3, 5568, Control_c, 1, 64, 127
3, 5664, Note_on_c, 1, 36, 29
3, 5664, Note_on_c, 1, 43, 33
3, 5664, Note_on_c, 1, 53, 37
3, 5664, Note_on_c, 1, 55, 41
3, 5666, Control_c, 1, 64, 0
3, 5672, Control_c, 1, 64, 127
3, 5700, Note_on_c, 1, 55, 0
3, 5700, Note_on_c, 1, 36, 0
3, 5700, Note_on_c, 1, 43, 0
3, 5700, Note_on_c, 1, 53, 0
3, 5712, Note_on_c, 1, 36, 31
3, 5712, Note_on_c, 1, 43, 35
3, 5712, Note_on_c, 1, 48, 39
3, 5712, Note_on_c, 1, 55, 43
3, 5714, Control_c, 1, 64, 0
3, 5720, Control_c, 1, 64, 127
3, 5728, Note_on_c, 1, 55, 0
3, 5728, Note_on_c, 1, 36, 0
3, 5728, Note_on_c, 1, 43, 0
3, 5728, Note_on_c, 1, 48, 0
3, 5736, Note_on_c, 1, 36, 33
3, 5736, Note_on_c, 1, 43, 37
3, 5736, Note_on_c, 1, 50, 41
3, 5736, Note_on_c, 1, 55, 45
3, 5744, Note_on_c, 1, 55, 0
3, 5744, Note_on_c, 1, 36, 0
3, 5744, Note_on_c, 1, 43, 0
3, 5744, Note_on_c, 1, 50, 0
3, 5750, Control_c, 1, 64, 0
3, 5754, Control_c, 1, 64, 127
3, 5760, Control_c, 1, 64, 127
3, 5762, Control_c, 1, 64, 0
3, 5768, Control_c, 1, 64, 127
3, 5808, Note_on_c, 1, 36, 35
3, 5808, Note_on_c, 1, 43, 40
3, 5808, Note_on_c, 1, 52, 45
3, 5844, Note_on_c, 1, 52, 0
3, 5844, Note_on_c, 1, 43, 0
3, 5844, Note_on_c, 1, 36, 0
3, 5856, Note_on_c, 1, 45, 40
3, 5856, Note_on_c, 1, 52, 45
3, 5856, Note_on_c, 1, 57, 50
3, 5858, Control_c, 1, 64, 0
3, 5864, Control_c, 1, 64, 127
3, 5892, Note_on_c, 1, 57, 0
3, 5892, Note_on_c, 1, 52, 0
3, 5892, Note_on_c, 1, 45, 0
3, 5896, Note_on_c, 1, 40, 50
3, 5900, Note_on_c, 1, 52, 52
3, 5904, Note_on_c, 1, 40, 0
3, 5904, Note_on_c, 1, 59, 55
3, 5906, Control_c, 1, 64, 0
3, 5912, Control_c, 1, 64, 127
3, 5926, Control_c, 1, 64, 0
3, 5932, Control_c, 1, 64, 127
3, 5940, Note_on_c, 1, 59, 0
3, 5940, Note_on_c, 1, 52, 0
3, 5952, Control_c, 1, 64, 127
3, 5954, Control_c, 1, 64, 0
3, 5960, Control_c, 1, 64, 127
3, 6048, Note_on_c, 1, 40, 30
3, 6048, Note_on_c, 1, 47, 35
3, 6048, Note_on_c, 1, 56, 40
3, 6050, Control_c, 1, 64, 0
3, 6056, Control_c, 1, 64, 127
3, 6084, Note_on_c, 1, 56, 0
3, 6084, Note_on_c, 1, 47, 0
3, 6084, Note_on_c, 1, 40, 0
3, 6096, Note_on_c, 1, 41, 31
3, 6096, Note_on_c, 1, 50, 36
3, 6096, Note_on_c, 1, 57, 41
3, 6098, Control_c, 1, 64, 0
3, 6104, Control_c, 1, 64, 127
3, 6112, Note_on_c, 1, 57, 0
3, 6112, Note_on_c, 1, 50, 0
3, 6112, Note_on_c, 1, 41, 0
3, 6118, Control_c, 1, 64, 0
3, 6132, Note_on_c, 1, 43, 35
3, 6132, Note_on_c, 1, 50, 38
3, 6132, Note_on_c, 1, 55, 41
3, 6132, Control_c, 1, 64, 127
3, 6140, Note_on_c, 1, 55, 0
3, 6140, Note_on_c, 1, 50, 0
3, 6140, Note_on_c, 1, 43, 0
3, 6144, Note_on_c, 1, 43, 35
3, 6144, Note_on_c, 1, 50, 38
3, 6144, Note_on_c, 1, 55, 41
3, 6144, Control_c, 1, 64, 127
3, 6186, Note_on_c, 1, 55, 0
3, 6186, Note_on_c, 1, 50, 0
3, 6192, Note_on_c, 1, 31, 50
3, 6222, Control_c, 1, 64, 0
3, 6228, Control_c, 1, 64, 127
3, 6240, Note_on_c, 1, 31, 0
3, 6240, Note_on_c, 1, 43, 0
3, 6332, Control_c, 1, 64, 0
3, 6336, Note_on_c, 1, 41, 33
3, 6336, Note_on_c, 1, 48, 37
3, 6336, Note_on_c, 1, 53, 41
3, 6336, Note_on_c, 1, 60, 45
3, 6336, Control_c, 1, 64, 127
3, 6408, Note_on_c, 1, 60, 0
3, 6408, Note_on_c, 1, 41, 0
3, 6408, Note_on_c, 1, 48, 0
3, 6408, Note_on_c, 1, 53, 0
3, 6432, Note_on_c, 1, 40, 30
3, 6432, Note_on_c, 1, 48, 35
3, 6432, Note_on_c, 1, 55, 40
3, 6434, Control_c, 1, 64, 0
3, 6440, Control_c, 1, 64, 127
3, 6468, Note_on_c, 1, 55, 0
3, 6468, Note_on_c, 1, 48, 0
3, 6468, Note_on_c, 1, 40, 0
3, 6480, Note_on_c, 1, 39, 31
3, 6480, Note_on_c, 1, 48, 37
3, 6480, Note_on_c, 1, 57, 43
3, 6482, Control_c, 1, 64, 0
3, 6488, Control_c, 1, 64, 127
3, 6516, Note_on_c, 1, 57, 0
3, 6516, Note_on_c, 1, 48, 0
3, 6516, Note_on_c, 1, 39, 0
3, 6528, Note_on_c, 1, 38, 31
3, 6528, Note_on_c, 1, 45, 35
3, 6528, Note_on_c, 1, 50, 39
3, 6528, Note_on_c, 1, 57, 43
3, 6528, Control_c, 1, 64, 127
3, 6530, Control_c, 1, 64, 0
3, 6536, Control_c, 1, 64, 127
3, 6564, Note_on_c, 1, 57, 0
3, 6564, Note_on_c, 1, 38, 0
3, 6564, Note_on_c, 1, 45, 0
3, 6564, Note_on_c, 1, 50, 0
3, 6576, Note_on_c, 1, 42, 33
3, 6576, Note_on_c, 1, 50, 39
3, 6576, Note_on_c, 1, 57, 45
3, 6600, Note_on_c, 1, 57, 0
3, 6600, Note_on_c, 1, 50, 0
3, 6600, Note_on_c, 1, 42, 0
3, 6612, Note_on_c, 1, 42, 33
3, 6612, Note_on_c, 1, 50, 38
3, 6612, Note_on_c, 1, 58, 43
3, 6612, Control_c, 1, 64, 0
3, 6620, Note_on_c, 1, 58, 0
3, 6620, Note_on_c, 1, 50, 0
3, 6620, Note_on_c, 1, 42, 0
3, 6624, Note_on_c, 1, 43, 33
3, 6624, Note_on_c, 1, 50, 38
3, 6624, Note_on_c, 1, 59, 43
3, 6628, Control_c, 1, 64, 127
3, 6660, Note_on_c, 1, 59, 0
3, 6660, Note_on_c, 1, 50, 0
3, 6660, Note_on_c, 1, 43, 0
3, 6668, Control_c, 1, 64, 0
3, 6672, Note_on_c, 1, 45, 35
3, 6672, Note_on_c, 1, 50, 40
3, 6672, Note_on_c, 1, 60, 45
3, 6674, Control_c, 1, 64, 127
3, 6708, Note_on_c, 1, 60, 0
3, 6708, Note_on_c, 1, 50, 0
3, 6708, Note_on_c, 1, 45, 0
3, 6708, Control_c, 1, 64, 0
3, 6714, Note_on_c, 1, 43, 35
3, 6714, Control_c, 1, 64, 127
3, 6716, Note_on_c, 1, 50, 37
3, 6718, Note_on_c, 1, 55, 39
3, 6720, Note_on_c, 1, 62, 45
3, 6720, Control_c, 1, 64, 127
3, 6722, Control_c, 1, 64, 0
3, 6728, Control_c, 1, 64, 127
3, 6792, Note_on_c, 1, 62, 0
3, 6792, Note_on_c, 1, 43, 0
3, 6792, Note_on_c, 1, 50, 0
3, 6792, Note_on_c, 1, 55, 0
3, 6816, Note_on_c, 1, 42, 30
3, 6816, Note_on_c, 1, 50, 35
3, 6816, Note_on_c, 1, 57, 40
3, 6818, Control_c, 1, 64, 0
3, 6824, Control_c, 1, 64, 127
3, 6852, Note_on_c, 1, 57, 0
3, 6852, Note_on_c, 1, 50, 0
3, 6852, Note_on_c, 1, 42, 0
3, 6864, Note_on_c, 1, 41, 31
3, 6864, Note_on_c, 1, 47, 35
3, 6864, Note_on_c, 1, 51, 39
3, 6864, Note_on_c, 1, 59, 43
3, 6866, Control_c, 1, 64, 0
3, 6872, Control_c, 1, 64, 127
3, 6900, Note_on_c, 1, 59, 0
3, 6900, Note_on_c, 1, 41, 0
3, 6900, Note_on_c, 1, 47, 0
3, 6900, Note_on_c, 1, 51, 0
3, 6900, Control_c, 1, 64, 0
3, 6906, Note_on_c, 1, 40, 29
3, 6906, Control_c, 1, 64, 127
3, 6908, Note_on_c, 1, 47, 31
3, 6910, Note_on_c, 1, 52, 33
3, 6912, Note_on_c, 1, 59, 37
3, 6912, Control_c, 1, 64, 127
3, 6914, Control_c, 1, 64, 0
3, 6920, Control_c, 1, 64, 127
3, 6984, Note_on_c, 1, 59, 0
3, 6984, Note_on_c, 1, 40, 0
3, 6984, Note_on_c, 1, 47, 0
3, 6984, Note_on_c, 1, 52, 0
3, 7008, Note_on_c, 1, 40, 26
3, 7008, Note_on_c, 1, 47, 29
3, 7008, Note_on_c, 1, 52, 32
3, 7008, Note_on_c, 1, 59, 35
3, 7016, Control_c, 1, 64, 0
3, 7022, Control_c, 1, 64, 127
3, 7044, Note_on_c, 1, 59, 0
3, 7044, Note_on_c, 1, 40, 0
3, 7044, Note_on_c, 1, 47, 0
3, 7044, Note_on_c, 1, 52, 0
3, 7056, Note_on_c, 1, 43, 27
3, 7056, Note_on_c, 1, 50, 31
3, 7056, Note_on_c, 1, 59, 35
3, 7064, Control_c, 1, 64, 0
3, 7070, Control_c, 1, 64, 127
3, 7086, Note_on_c, 1, 59, 0
3, 7086, Note_on_c, 1, 50, 0
3, 7086, Note_on_c, 1, 43, 0
3, 7086, Control_c, 1, 64, 0
3, 7092, Note_on_c, 1, 36, 25
3, 7092, Control_c, 1, 64, 127
3, 7096, Note_on_c, 1, 43, 28
3, 7100, Note_on_c, 1, 48, 31
3, 7104, Note_on_c, 1, 55, 34
3, 7104, Control_c, 1, 64, 127
3, 7106, Control_c, 1, 64, 0
3, 7112, Control_c, 1, 64, 127
3, 7176, Note_on_c, 1, 55, 0
3, 7176, Note_on_c, 1, 36, 0
3, 7176, Note_on_c, 1, 43, 0
3, 7176, Note_on_c, 1, 48, 0
3, 7194, Note_on_c, 1, 36, 31
3, 7194, Control_c, 1, 64, 0
3, 7197, Note_on_c, 1, 43, 33
3, 7200, Note_on_c, 1, 55, 35
3, 7200, Control_c, 1, 64, 127
3, 7236, Note_on_c, 1, 55, 0
3, 7236, Note_on_c, 1, 43, 0
3, 7236, Note_on_c, 1, 36, 0
3, 7242, Note_on_c, 1, 36, 36
3, 7242, Control_c, 1, 64, 0
3, 7245, Note_on_c, 1, 43, 38
3, 7248, Note_on_c, 1, 55, 40
3, 7248, Control_c, 1, 64, 127
3, 7264, Note_on_c, 1, 55, 0
3, 7264, Note_on_c, 1, 43, 0
3, 7264, Note_on_c, 1, 36, 0
3, 7266, Note_on_c, 1, 36, 41
3, 7269, Note_on_c, 1, 43, 43
3, 7272, Note_on_c, 1, 55, 45
3, 7288, Note_on_c, 1, 55, 0
3, 7296, Note_on_c, 1, 48, 45
3, 7296, Note_on_c, 1, 55, 50
3, 7296, Control_c, 1, 64, 127
3, 7298, Control_c, 1, 64, 0
3, 7304, Control_c, 1, 64, 127
3, 7332, Note_on_c, 1, 55, 0
3, 7332, Note_on_c, 1, 36, 0
3, 7332, Note_on_c, 1, 43, 0
3, 7332, Note_on_c, 1, 48, 0
3, 7344, Note_on_c, 1, 36, 30
3, 7344, Note_on_c, 1, 43, 35
3, 7344, Note_on_c, 1, 52, 40
3, 7380, Note_on_c, 1, 52, 0
3, 7380, Note_on_c, 1, 43, 0
3, 7380, Note_on_c, 1, 36, 0
3, 7392, Note_on_c, 1, 45, 45
3, 7392, Note_on_c, 1, 52, 50
3, 7392, Note_on_c, 1, 57, 55
3, 7394, Control_c, 1, 64, 0
3, 7400, Control_c, 1, 64, 127
3, 7428, Note_on_c, 1, 57, 0
3, 7428, Note_on_c, 1, 52, 0
3, 7428, Note_on_c, 1, 45, 0
3, 7440, Note_on_c, 1, 43, 55
3, 7440, Note_on_c, 1, 52, 60
3, 7440, Note_on_c, 1, 60, 65
3, 7442, Control_c, 1, 64, 0
3, 7448, Control_c, 1, 64, 127
3, 7476, Note_on_c, 1, 60, 0
3, 7476, Note_on_c, 1, 52, 0
3, 7476, Note_on_c, 1, 43, 0
3, 7488, Note_on_c, 1, 31, 62
3, 7488, Note_on_c, 1, 43, 72
3, 7488, Control_c, 1, 64, 127
3, 7490, Control_c, 1, 64, 0
3, 7496, Control_c, 1, 64, 127
3, 7504, Note_on_c, 1, 43, 0
3, 7504, Note_on_c, 1, 31, 0
3, 7512, Note_on_c, 1, 30, 48
3, 7512, Note_on_c, 1, 42, 48
3, 7512, Control_c, 1, 64, 0
3, 7520, Note_on_c, 1, 42, 0
3, 7520, Note_on_c, 1, 30, 0
3, 7520, Note_on_c, 1, 31, 49
3, 7520, Note_on_c, 1, 43, 49
3, 7528, Note_on_c, 1, 43, 0
3, 7528, Note_on_c, 1, 31, 0
3, 7528, Note_on_c, 1, 31, 50
3, 7528, Note_on_c, 1, 43, 50
3, 7536, Note_on_c, 1, 43, 0
3, 7536, Note_on_c, 1, 31, 0
3, 7536, Note_on_c, 1, 31, 51
3, 7536, Note_on_c, 1, 43, 51
3, 7544, Note_on_c, 1, 43, 0
3, 7544, Note_on_c, 1, 31, 0
3, 7544, Note_on_c, 1, 32, 53
3, 7544, Note_on_c, 1, 44, 53
3, 7552, Note_on_c, 1, 44, 0
3, 7552, Note_on_c, 1, 32, 0
3, 7552, Note_on_c, 1, 32, 55
3, 7552, Note_on_c, 1, 44, 55
3, 7560, Note_on_c, 1, 44, 0
3, 7560, Note_on_c, 1, 32, 0
3, 7560, Note_on_c, 1, 32, 59
3, 7560, Note_on_c, 1, 44, 59
3, 7562, Control_c, 1, 64, 127
3, 7568, Note_on_c, 1, 44, 0
3, 7568, Note_on_c, 1, 32, 0
3, 7568, Note_on_c, 1, 31, 63
3, 7568, Note_on_c, 1, 43, 63
3, 7576, Note_on_c, 1, 43, 0
3, 7576, Note_on_c, 1, 31, 0
3, 7576, Note_on_c, 1, 31, 70
3, 7576, Note_on_c, 1, 43, 70
3, 7584, Note_on_c, 1, 43, 0
3, 7584, Note_on_c, 1, 31, 0
3, 7584, Note_on_c, 1, 43, 59
3, 7586, Note_on_c, 1, 50, 61
3, 7586, Control_c, 1, 64, 0
3, 7588, Note_on_c, 1, 53, 65
3, 7590, Note_on_c, 1, 48, 55
3, 7592, Control_c, 1, 64, 127
3, 7628, Control_c, 1, 64, 0
3, 7632, Note_on_c, 1, 48, 0
3, 7632, Note_on_c, 1, 43, 0
3, 7632, Note_on_c, 1, 50, 0
3, 7632, Note_on_c, 1, 53, 0
3, 7632, Note_on_c, 1, 43, 55
3, 7632, Note_on_c, 1, 50, 50
3, 7632, Note_on_c, 1, 53, 50
3, 7632, Note_on_c, 1, 59, 55
3, 7634, Control_c, 1, 64, 0
3, 7650, Control_c, 1, 64, 0
3, 7656, Note_on_c, 1, 59, 0
3, 7656, Note_on_c, 1, 43, 0
3, 7656, Note_on_c, 1, 50, 0
3, 7656, Note_on_c, 1, 53, 0
3, 7656, Note_on_c, 1, 31, 50
3, 7656, Note_on_c, 1, 43, 50
3, 7656, Control_c, 1, 64, 127
3, 7678, Note_on_c, 1, 43, 0
3, 7678, Note_on_c, 1, 31, 0
3, 7680, Note_on_c, 1, 43, 50
3, 7680, Note_on_c, 1, 50, 46
3, 7680, Note_on_c, 1, 53, 48
3, 7680, Note_on_c, 1, 59, 50
3, 7680, Control_c, 1, 64, 127
3, 7682, Control_c, 1, 64, 0
3, 7688, Control_c, 1, 64, 127
3, 7698, Control_c, 1, 64, 0
3, 7702, Note_on_c, 1, 59, 0
3, 7702, Note_on_c, 1, 43, 0
3, 7702, Note_on_c, 1, 50, 0
3, 7702, Note_on_c, 1, 53, 0
3, 7704, Note_on_c, 1, 30, 45
3, 7704, Note_on_c, 1, 42, 45
3, 7712, Note_on_c, 1, 42, 0
3, 7712, Note_on_c, 1, 30, 0
3, 7712, Note_on_c, 1, 31, 46
3, 7712, Note_on_c, 1, 43, 46
3, 7720, Note_on_c, 1, 43, 0
3, 7720, Note_on_c, 1, 31, 0
3, 7720, Note_on_c, 1, 31, 47
3, 7720, Note_on_c, 1, 43, 47
3, 7728, Note_on_c, 1, 43, 0
3, 7728, Note_on_c, 1, 31, 0
3, 7728, Note_on_c, 1, 32, 48
3, 7728, Note_on_c, 1, 44, 48
3, 7736, Note_on_c, 1, 44, 0
3, 7736, Note_on_c, 1, 32, 0
3, 7736, Note_on_c, 1, 33, 49
3, 7736, Note_on_c, 1, 45, 49
3, 7744, Note_on_c, 1, 45, 0
3, 7744, Note_on_c, 1, 33, 0
3, 7744, Note_on_c, 1, 33, 50
3, 7744, Note_on_c, 1, 45, 50
3, 7752, Note_on_c, 1, 45, 0
3, 7752, Note_on_c, 1, 33, 0
3, 7752, Note_on_c, 1, 34, 52
3, 7752, Note_on_c, 1, 46, 52
3, 7760, Note_on_c, 1, 46, 0
3, 7760, Note_on_c, 1, 34, 0
3, 7760, Note_on_c, 1, 35, 54
3, 7760, Note_on_c, 1, 47, 54
3, 7768, Note_on_c, 1, 47, 0
3, 7768, Note_on_c, 1, 35, 0
3, 7768, Note_on_c, 1, 35, 57
3, 7768, Note_on_c, 1, 47, 57
3, 7776, Note_on_c, 1, 47, 0
3, 7776, Note_on_c, 1, 35, 0
3, 7776, Note_on_c, 1, 36, 65
3, 7776, Note_on_c, 1, 48, 70
3, 7782, Control_c, 1, 64, 127
3, 7872, Note_on_c, 1, 48, 0
3, 7872, Note_on_c, 1, 36, 0
3, 7872, Note_on_c, 1, 41, 55
3, 7872, Note_on_c, 1, 48, 55
3, 7872, Note_on_c, 1, 53, 60
3, 7872, Note_on_c, 1, 60, 65
3, 7872, Control_c, 1, 64, 127
3, 7890, Control_c, 1, 64, 0
3, 7894, Note_on_c, 1, 60, 0
3, 7894, Note_on_c, 1, 41, 0
3, 7894, Note_on_c, 1, 48, 0
3, 7894, Note_on_c, 1, 53, 0
3, 7896, Note_on_c, 1, 35, 48
3, 7896, Note_on_c, 1, 47, 48
3, 7904, Note_on_c, 1, 47, 0
3, 7904, Note_on_c, 1, 35, 0
3, 7904, Note_on_c, 1, 36, 49
3, 7904, Note_on_c, 1, 48, 49
3, 7912, Note_on_c, 1, 48, 0
3, 7912, Note_on_c, 1, 36, 0
3, 7912, Note_on_c, 1, 36, 50
3, 7912, Note_on_c, 1, 48, 50
3, 7920, Note_on_c, 1, 48, 0
3, 7920, Note_on_c, 1, 36, 0
3, 7920, Note_on_c, 1, 36, 51
3, 7920, Note_on_c, 1, 48, 51
3, 7928, Note_on_c, 1, 48, 0
3, 7928, Note_on_c, 1, 36, 0
3, 7928, Note_on_c, 1, 37, 52
3, 7928, Note_on_c, 1, 49, 52
3, 7936, Note_on_c, 1, 49, 0
3, 7936, Note_on_c, 1, 37, 0
3, 7936, Note_on_c, 1, 37, 54
3, 7936, Note_on_c, 1, 49, 54
3, 7944, Note_on_c, 1, 49, 0
3, 7944, Note_on_c, 1, 37, 0
3, 7944, Note_on_c, 1, 37, 56
3, 7944, Note_on_c, 1, 49, 56
3, 7952, Note_on_c, 1, 49, 0
3, 7952, Note_on_c, 1, 37, 0
3, 7952, Note_on_c, 1, 38, 59
3, 7952, Note_on_c, 1, 50, 59
3, 7960, Note_on_c, 1, 50, 0
3, 7960, Note_on_c, 1, 38, 0
3, 7960, Note_on_c, 1, 39, 62
3, 7960, Note_on_c, 1, 51, 62
3, 7968, Note_on_c, 1, 51, 0
3, 7968, Note_on_c, 1, 39, 0
3, 7968, Note_on_c, 1, 51, 61
3, 7968, Note_on_c, 1, 55, 60
3, 7968, Note_on_c, 1, 60, 60
3, 7968, Note_on_c, 1, 63, 66
3, 7974, Control_c, 1, 64, 127
3, 7986, Control_c, 1, 64, 0
3, 7990, Note_on_c, 1, 63, 0
3, 7990, Note_on_c, 1, 51, 0
3, 7990, Note_on_c, 1, 55, 0
3, 7990, Note_on_c, 1, 60, 0
3, 7992, Note_on_c, 1, 36, 48
3, 7992, Note_on_c, 1, 48, 48
3, 8000, Note_on_c, 1, 48, 0
3, 8000, Note_on_c, 1, 36, 0
3, 8000, Note_on_c, 1, 37, 49
3, 8000, Note_on_c, 1, 49, 49
3, 8008, Note_on_c, 1, 49, 0
3, 8008, Note_on_c, 1, 37, 0
3, 8008, Note_on_c, 1, 37, 50
3, 8008, Note_on_c, 1, 49, 50
3, 8016, Note_on_c, 1, 49, 0
3, 8016, Note_on_c, 1, 37, 0
3, 8016, Note_on_c, 1, 37, 51
3, 8016, Note_on_c, 1, 49, 51
3, 8024, Note_on_c, 1, 49, 0
3, 8024, Note_on_c, 1, 37, 0
3, 8024, Note_on_c, 1, 38, 52
3, 8024, Note_on_c, 1, 50, 52
3, 8032, Note_on_c, 1, 50, 0
3, 8032, Note_on_c, 1, 38, 0
3, 8032, Note_on_c, 1, 38, 54
3, 8032, Note_on_c, 1, 50, 54
3, 8040, Note_on_c, 1, 50, 0
3, 8040, Note_on_c, 1, 38, 0
3, 8040, Note_on_c, 1, 38, 56
3, 8040, Note_on_c, 1, 50, 56
3, 8048, Note_on_c, 1, 50, 0
3, 8048, Note_on_c, 1, 38, 0
3, 8048, Note_on_c, 1, 39, 59
3, 8048, Note_on_c, 1, 51, 59
3, 8056, Note_on_c, 1, 51, 0
3, 8056, Note_on_c, 1, 39, 0
3, 8056, Note_on_c, 1, 51, 71
3, 8056, Note_on_c, 1, 55, 65
3, 8056, Note_on_c, 1, 57, 65
3, 8056, Note_on_c, 1, 63, 71
3, 8064, Note_on_c, 1, 63, 0
3, 8064, Note_on_c, 1, 51, 0
3, 8064, Note_on_c, 1, 55, 0
3, 8064, Note_on_c, 1, 57, 0
3, 8064, Note_on_c, 1, 38, 65
3, 8064, Note_on_c, 1, 45, 60
3, 8064, Note_on_c, 1, 50, 65
3, 8064, Control_c, 1, 64, 0
3, 8066, Control_c, 1, 64, 127
3, 8082, Control_c, 1, 64, 0
3, 8086, Note_on_c, 1, 50, 0
3, 8086, Note_on_c, 1, 45, 0
3, 8086, Note_on_c, 1, 38, 0
3, 8088, Note_on_c, 1, 37, 50
3, 8088, Note_on_c, 1, 49, 50
3, 8096, Note_on_c, 1, 49, 0
3, 8096, Note_on_c, 1, 37, 0
3, 8096, Note_on_c, 1, 38, 51
3, 8096, Note_on_c, 1, 50, 51
3, 8104, Note_on_c, 1, 50, 0
3, 8104, Note_on_c, 1, 38, 0
3, 8104, Note_on_c, 1, 38, 53
3, 8104, Note_on_c, 1, 50, 53
3, 8112, Note_on_c, 1, 50, 0
3, 8112, Note_on_c, 1, 38, 0
3, 8112, Note_on_c, 1, 38, 63
3, 8112, Note_on_c, 1, 50, 63
3, 8120, Note_on_c, 1, 50, 0
3, 8120, Note_on_c, 1, 38, 0
3, 8120, Note_on_c, 1, 39, 59
3, 8120, Note_on_c, 1, 51, 59
3, 8128, Note_on_c, 1, 51, 0
3, 8128, Note_on_c, 1, 39, 0
3, 8128, Note_on_c, 1, 39, 60
3, 8128, Note_on_c, 1, 51, 60
3, 8136, Note_on_c, 1, 51, 0
3, 8136, Note_on_c, 1, 39, 0
3, 8136, Note_on_c, 1, 39, 61
3, 8136, Note_on_c, 1, 51, 61
3, 8144, Note_on_c, 1, 51, 0
3, 8144, Note_on_c, 1, 39, 0
3, 8144, Note_on_c, 1, 40, 67
3, 8144, Note_on_c, 1, 52, 67
3, 8152, Note_on_c, 1, 52, 0
3, 8152, Note_on_c, 1, 40, 0
3, 8152, Note_on_c, 1, 40, 63
3, 8152, Note_on_c, 1, 52, 63
3, 8160, Note_on_c, 1, 52, 0
3, 8160, Note_on_c, 1, 40, 0
3, 8160, Note_on_c, 1, 40, 65
3, 8160, Note_on_c, 1, 52, 65
3, 8168, Note_on_c, 1, 52, 0
3, 8168, Note_on_c, 1, 40, 0
3, 8168, Note_on_c, 1, 41, 67
3, 8168, Note_on_c, 1, 53, 67
3, 8176, Note_on_c, 1, 53, 0
3, 8176, Note_on_c, 1, 41, 0
3, 8176, Note_on_c, 1, 41, 69
3, 8176, Note_on_c, 1, 53, 69
3, 8184, Note_on_c, 1, 53, 0
3, 8184, Note_on_c, 1, 41, 0
3, 8184, Note_on_c, 1, 41, 78
3, 8184, Note_on_c, 1, 53, 78
3, 8192, Note_on_c, 1, 53, 0
3, 8192, Note_on_c, 1, 41, 0
3, 8192, Note_on_c, 1, 42, 72
3, 8192, Note_on_c, 1, 54, 72
3, 8200, Note_on_c, 1, 54, 0
3, 8200, Note_on_c, 1, 42, 0
3, 8200, Note_on_c, 1, 42, 73
3, 8200, Note_on_c, 1, 54, 73
3, 8208, Note_on_c, 1, 54, 0
3, 8208, Note_on_c, 1, 42, 0
3, 8208, Note_on_c, 1, 42, 74
3, 8208, Note_on_c, 1, 54, 74
3, 8216, Note_on_c, 1, 54, 0
3, 8216, Note_on_c, 1, 42, 0
3, 8216, Note_on_c, 1, 43, 80
3, 8216, Note_on_c, 1, 55, 80
3, 8224, Note_on_c, 1, 55, 0
3, 8224, Note_on_c, 1, 43, 0
3, 8224, Note_on_c, 1, 44, 76
3, 8224, Note_on_c, 1, 56, 76
3, 8232, Note_on_c, 1, 56, 0
3, 8232, Note_on_c, 1, 44, 0
3, 8232, Note_on_c, 1, 44, 77
3, 8232, Note_on_c, 1, 56, 77
3, 8240, Note_on_c, 1, 56, 0
3, 8240, Note_on_c, 1, 44, 0
3, 8240, Note_on_c, 1, 45, 78
3, 8240, Note_on_c, 1, 57, 78
3, 8248, Note_on_c, 1, 57, 0
3, 8248, Note_on_c, 1, 45, 0
3, 8248, Note_on_c, 1, 46, 79
3, 8248, Note_on_c, 1, 58, 79
3, 8256, Note_on_c, 1, 58, 0
3, 8256, Note_on_c, 1, 46, 0
3, 8256, Note_on_c, 1, 43, 80
3, 8256, Note_on_c, 1, 50, 75
3, 8256, Note_on_c, 1, 59, 80
3, 8256, Control_c, 1, 64, 0
3, 8258, Control_c, 1, 64, 127
3, 8274, Control_c, 1, 64, 0
3, 8278, Note_on_c, 1, 59, 0
3, 8278, Note_on_c, 1, 50, 0
3, 8278, Note_on_c, 1, 43, 0
3, 8280, Note_on_c, 1, 37, 58
3, 8280, Note_on_c, 1, 49, 58
3, 8288, Note_on_c, 1, 49, 0
3, 8288, Note_on_c, 1, 37, 0
3, 8288, Note_on_c, 1, 38, 59
3, 8288, Note_on_c, 1, 50, 59
3, 8296, Note_on_c, 1, 50, 0
3, 8296, Note_on_c, 1, 38, 0
3, 8296, Note_on_c, 1, 38, 60
3, 8296, Note_on_c, 1, 50, 60
3, 8304, Note_on_c, 1, 50, 0
3, 8304, Note_on_c, 1, 38, 0
3, 8304, Note_on_c, 1, 38, 61
3, 8304, Note_on_c, 1, 50, 61
3, 8312, Note_on_c, 1, 50, 0
3, 8312, Note_on_c, 1, 38, 0
3, 8312, Note_on_c, 1, 39, 62
3, 8312, Note_on_c, 1, 51, 62
3, 8320, Note_on_c, 1, 51, 0
3, 8320, Note_on_c, 1, 39, 0
3, 8320, Note_on_c, 1, 39, 64
3, 8320, Note_on_c, 1, 51, 64
3, 8328, Note_on_c, 1, 51, 0
3, 8328, Note_on_c, 1, 39, 0
3, 8328, Note_on_c, 1, 39, 66
3, 8328, Note_on_c, 1, 51, 66
3, 8336, Note_on_c, 1, 51, 0
3, 8336, Note_on_c, 1, 39, 0
3, 8336, Note_on_c, 1, 40, 69
3, 8336, Note_on_c, 1, 52, 69
3, 8344, Note_on_c, 1, 52, 0
3, 8344, Note_on_c, 1, 40, 0
3, 8344, Note_on_c, 1, 41, 72
3, 8344, Note_on_c, 1, 53, 72
3, 8352, Note_on_c, 1, 53, 0
3, 8352, Note_on_c, 1, 41, 0
3, 8352, Note_on_c, 1, 53, 75
3, 8352, Note_on_c, 1, 57, 70
3, 8352, Note_on_c, 1, 59, 70
3, 8352, Note_on_c, 1, 62, 70
3, 8352, Note_on_c, 1, 65, 75
3, 8358, Control_c, 1, 64, 127
3, 8370, Control_c, 1, 64, 0
3, 8374, Note_on_c, 1, 65, 0
3, 8374, Note_on_c, 1, 59, 0
3, 8374, Note_on_c, 1, 53, 0
3, 8374, Note_on_c, 1, 57, 0
3, 8374, Note_on_c, 1, 62, 0
3, 8376, Note_on_c, 1, 38, 58
3, 8376, Note_on_c, 1, 50, 58
3, 8384, Note_on_c, 1, 50, 0
3, 8384, Note_on_c, 1, 38, 0
3, 8384, Note_on_c, 1, 39, 59
3, 8384, Note_on_c, 1, 51, 59
3, 8392, Note_on_c, 1, 51, 0
3, 8392, Note_on_c, 1, 39, 0
3, 8392, Note_on_c, 1, 39, 60
3, 8392, Note_on_c, 1, 51, 60
3, 8400, Note_on_c, 1, 51, 0
3, 8400, Note_on_c, 1, 39, 0
3, 8400, Note_on_c, 1, 39, 61
3, 8400, Note_on_c, 1, 51, 61
3, 8408, Note_on_c, 1, 51, 0
3, 8408, Note_on_c, 1, 39, 0
3, 8408, Note_on_c, 1, 40, 62
3, 8408, Note_on_c, 1, 52, 62
3, 8416, Note_on_c, 1, 52, 0
3, 8416, Note_on_c, 1, 40, 0
3, 8416, Note_on_c, 1, 40, 64
3, 8416, Note_on_c, 1, 52, 64
3, 8424, Note_on_c, 1, 52, 0
3, 8424, Note_on_c, 1, 40, 0
3, 8424, Note_on_c, 1, 40, 66
3, 8424, Note_on_c, 1, 52, 66
3, 8432, Note_on_c, 1, 52, 0
3, 8432, Note_on_c, 1, 40, 0
3, 8432, Note_on_c, 1, 41, 69
3, 8432, Note_on_c, 1, 53, 69
3, 8440, Note_on_c, 1, 53, 0
3, 8440, Note_on_c, 1, 41, 0
3, 8440, Note_on_c, 1, 53, 77
3, 8440, Note_on_c, 1, 57, 72
3, 8440, Note_on_c, 1, 59, 72
3, 8440, Note_on_c, 1, 63, 72
3, 8440, Note_on_c, 1, 65, 77
3, 8440, Control_c, 1, 64, 127
3, 8446, Control_c, 1, 64, 0
3, 8448, Note_on_c, 1, 65, 0
3, 8448, Note_on_c, 1, 59, 0
3, 8448, Note_on_c, 1, 53, 0
3, 8448, Note_on_c, 1, 57, 0
3, 8448, Note_on_c, 1, 63, 0
3, 8448, Note_on_c, 1, 52, 77
3, 8448, Note_on_c, 1, 59, 72
3, 8448, Note_on_c, 1, 64, 77
3, 8448, Control_c, 1, 64, 0
3, 8450, Control_c, 1, 64, 127
3, 8466, Control_c, 1, 64, 0
3, 8470, Note_on_c, 1, 64, 0
3, 8470, Note_on_c, 1, 59, 0
3, 8470, Note_on_c, 1, 52, 0
3, 8472, Note_on_c, 1, 39, 65
3, 8472, Note_on_c, 1, 51, 65
3, 8480, Note_on_c, 1, 51, 0
3, 8480, Note_on_c, 1, 39, 0
3, 8480, Note_on_c, 1, 40, 62
3, 8480, Note_on_c, 1, 52, 62
3, 8488, Note_on_c, 1, 52, 0
3, 8488, Note_on_c, 1, 40, 0
3, 8488, Note_on_c, 1, 40, 64
3, 8488, Note_on_c, 1, 52, 64
3, 8496, Note_on_c, 1, 52, 0
3, 8496, Note_on_c, 1, 40, 0
3, 8496, Note_on_c, 1, 40, 65
3, 8496, Note_on_c, 1, 52, 65
3, 8504, Note_on_c, 1, 52, 0
3, 8504, Note_on_c, 1, 40, 0
3, 8504, Note_on_c, 1, 41, 66
3, 8504, Note_on_c, 1, 53, 66
3, 8512, Note_on_c, 1, 53, 0
3, 8512, Note_on_c, 1, 41, 0
3, 8512, Note_on_c, 1, 41, 72
3, 8512, Note_on_c, 1, 53, 72
3, 8520, Note_on_c, 1, 53, 0
3, 8520, Note_on_c, 1, 41, 0
3, 8520, Note_on_c, 1, 41, 68
3, 8520, Note_on_c, 1, 53, 68
3, 8528, Note_on_c, 1, 53, 0
3, 8528, Note_on_c, 1, 41, 0
3, 8528, Note_on_c, 1, 42, 75
3, 8528, Note_on_c, 1, 54, 75
3, 8536, Note_on_c, 1, 54, 0
3, 8536, Note_on_c, 1, 42, 0
3, 8536, Note_on_c, 1, 42, 76
3, 8536, Note_on_c, 1, 54, 76
3, 8544, Note_on_c, 1, 54, 0
3, 8544, Note_on_c, 1, 42, 0
3, 8544, Note_on_c, 1, 42, 77
3, 8544, Note_on_c, 1, 54, 77
3, 8552, Note_on_c, 1, 54, 0
3, 8552, Note_on_c, 1, 42, 0
3, 8552, Note_on_c, 1, 43, 77
3, 8552, Note_on_c, 1, 55, 77
3, 8560, Note_on_c, 1, 55, 0
3, 8560, Note_on_c, 1, 43, 0
3, 8560, Note_on_c, 1, 43, 79
3, 8560, Note_on_c, 1, 55, 79
3, 8568, Note_on_c, 1, 55, 0
3, 8568, Note_on_c, 1, 43, 0
3, 8568, Note_on_c, 1, 43, 81
3, 8568, Note_on_c, 1, 55, 81
3, 8576, Note_on_c, 1, 55, 0
3, 8576, Note_on_c, 1, 43, 0
3, 8576, Note_on_c, 1, 44, 83
3, 8576, Note_on_c, 1, 56, 83
3, 8584, Note_on_c, 1, 56, 0
3, 8584, Note_on_c, 1, 44, 0
3, 8584, Note_on_c, 1, 45, 85
3, 8584, Note_on_c, 1, 57, 85
3, 8592, Note_on_c, 1, 57, 0
3, 8592, Note_on_c, 1, 45, 0
3, 8592, Note_on_c, 1, 46, 87
3, 8592, Note_on_c, 1, 58, 87
3, 8600, Note_on_c, 1, 58, 0
3, 8600, Note_on_c, 1, 46, 0
3, 8600, Note_on_c, 1, 47, 89
3, 8600, Note_on_c, 1, 59, 89
3, 8608, Note_on_c, 1, 59, 0
3, 8608, Note_on_c, 1, 47, 0
3, 8608, Note_on_c, 1, 48, 91
3, 8608, Note_on_c, 1, 60, 91
3, 8616, Note_on_c, 1, 60, 0
3, 8616, Note_on_c, 1, 48, 0
3, 8616, Note_on_c, 1, 49, 93
3, 8616, Note_on_c, 1, 61, 93
3, 8624, Note_on_c, 1, 61, 0
3, 8624, Note_on_c, 1, 49, 0
3, 8624, Note_on_c, 1, 50, 95
3, 8624, Note_on_c, 1, 62, 95
3, 8632, Note_on_c, 1, 62, 0
3, 8632, Note_on_c, 1, 50, 0
3, 8632, Note_on_c, 1, 51, 95
3, 8632, Note_on_c, 1, 63, 95
3, 8640, Note_on_c, 1, 63, 0
3, 8640, Note_on_c, 1, 51, 0
3, 8640, Note_on_c, 1, 48, 80
3, 8640, Note_on_c, 1, 55, 85
3, 8640, Note_on_c, 1, 60, 90
3, 8640, Note_on_c, 1, 64, 95
3, 8640, Control_c, 1, 64, 0
3, 8642, Control_c, 1, 64, 127
3, 8662, Note_on_c, 1, 64, 0
3, 8662, Note_on_c, 1, 48, 0
3, 8662, Note_on_c, 1, 55, 0
3, 8662, Note_on_c, 1, 60, 0
3, 8664, Note_on_c, 1, 42, 81
3, 8667, Note_on_c, 1, 42, 0
3, 8667, Note_on_c, 1, 43, 77
3, 8670, Note_on_c, 1, 43, 0
3, 8670, Note_on_c, 1, 45, 75
3, 8673, Note_on_c, 1, 45, 0
3, 8673, Note_on_c, 1, 43, 69
3, 8676, Note_on_c, 1, 43, 0
3, 8676, Note_on_c, 1, 45, 65
3, 8679, Note_on_c, 1, 45, 0
3, 8679, Note_on_c, 1, 43, 64
3, 8682, Note_on_c, 1, 43, 0
3, 8682, Note_on_c, 1, 45, 63
3, 8685, Note_on_c, 1, 45, 0
3, 8685, Note_on_c, 1, 43, 61
3, 8688, Note_on_c, 1, 43, 0
3, 8688, Note_on_c, 1, 45, 63
3, 8691, Note_on_c, 1, 45, 0
3, 8691, Note_on_c, 1, 43, 61
3, 8694, Note_on_c, 1, 43, 0
3, 8694, Note_on_c, 1, 45, 63
3, 8697, Note_on_c, 1, 45, 0
3, 8697, Note_on_c, 1, 43, 61
3, 8700, Note_on_c, 1, 43, 0
3, 8700, Note_on_c, 1, 45, 63
3, 8703, Note_on_c, 1, 45, 0
3, 8703, Note_on_c, 1, 43, 61
3, 8706, Note_on_c, 1, 43, 0
3, 8706, Note_on_c, 1, 45, 63
3, 8709, Note_on_c, 1, 45, 0
3, 8709, Note_on_c, 1, 43, 61
3, 8712, Note_on_c, 1, 43, 0
3, 8712, Note_on_c, 1, 45, 63
3, 8715, Note_on_c, 1, 45, 0
3, 8715, Note_on_c, 1, 43, 61
3, 8718, Note_on_c, 1, 43, 0
3, 8718, Note_on_c, 1, 45, 63
3, 8721, Note_on_c, 1, 45, 0
3, 8721, Note_on_c, 1, 43, 62
3, 8724, Note_on_c, 1, 43, 0
3, 8724, Note_on_c, 1, 45, 65
3, 8727, Note_on_c, 1, 45, 0
3, 8727, Note_on_c, 1, 43, 64
3, 8730, Note_on_c, 1, 43, 0
3, 8730, Note_on_c, 1, 42, 73
3, 8733, Note_on_c, 1, 42, 0
3, 8733, Note_on_c, 1, 43, 79
3, 8736, Note_on_c, 1, 31, 80
3, 8738, Control_c, 1, 64, 0
3, 8744, Control_c, 1, 64, 127
3, 8752, Note_on_c, 1, 31, 0
3, 8752, Note_on_c, 1, 43, 0
3, 8754, Note_on_c, 1, 55, 71
3, 8756, Note_on_c, 1, 62, 73
3, 8758, Note_on_c, 1, 65, 75
3, 8760, Note_on_c, 1, 71, 85
3, 8776, Note_on_c, 1, 71, 0
3, 8776, Note_on_c, 1, 55, 0
3, 8776, Note_on_c, 1, 62, 0
3, 8776, Note_on_c, 1, 65, 0
3, 8778, Note_on_c, 1, 55, 77
3, 8780, Control_c, 1, 64, 0
3, 8781, Note_on_c, 1, 64, 81
3, 8784, Note_on_c, 1, 60, 91
3, 8786, Control_c, 1, 64, 127
3, 8800, Note_on_c, 1, 60, 0
3, 8800, Note_on_c, 1, 64, 0
3, 8800, Note_on_c, 1, 55, 0
3, 8802, Note_on_c, 1, 55, 77
3, 8804, Note_on_c, 1, 62, 81
3, 8806, Note_on_c, 1, 67, 85
3, 8808, Note_on_c, 1, 74, 95
3, 8810, Control_c, 1, 64, 0
3, 8824, Note_on_c, 1, 74, 0
3, 8824, Note_on_c, 1, 55, 0
3, 8824, Note_on_c, 1, 62, 0
3, 8824, Note_on_c, 1, 67, 0
3, 8826, Note_on_c, 1, 48, 83
3, 8828, Note_on_c, 1, 55, 87
3, 8830, Note_on_c, 1, 60, 91
3, 8832, Note_on_c, 1, 67, 100
3, 8832, Control_c, 1, 64, 127
3, 8840, Note_on_c, 1, 67, 0
3, 8840, Note_on_c, 1, 48, 0
3, 8840, Note_on_c, 1, 55, 0
3, 8840, Note_on_c, 1, 60, 0
3, 8840, Note_on_c, 1, 60, 94
3, 8840, Note_on_c, 1, 72, 94
3, 8842, Control_c, 1, 64, 0
3, 8848, Note_on_c, 1, 72, 0
3, 8848, Note_on_c, 1, 60, 0
3, 8848, Note_on_c, 1, 62, 96
3, 8848, Note_on_c, 1, 74, 96
3, 8856, Note_on_c, 1, 74, 0
3, 8856, Note_on_c, 1, 62, 0
3, 8856, Note_on_c, 1, 60, 94
3, 8856, Note_on_c, 1, 72, 94
3, 8864, Note_on_c, 1, 72, 0
3, 8864, Note_on_c, 1, 60, 0
3, 8864, Note_on_c, 1, 55, 92
3, 8864, Note_on_c, 1, 67, 92
3, 8872, Note_on_c, 1, 67, 0
3, 8872, Note_on_c, 1, 55, 0
3, 8872, Note_on_c, 1, 57, 94
3, 8872, Note_on_c, 1, 69, 94
3, 8880, Note_on_c, 1, 69, 0
3, 8880, Note_on_c, 1, 57, 0
3, 8880, Note_on_c, 1, 55, 92
3, 8880, Note_on_c, 1, 67, 92
3, 8888, Note_on_c, 1, 67, 0
3, 8888, Note_on_c, 1, 55, 0
3, 8888, Note_on_c, 1, 52, 90
3, 8888, Note_on_c, 1, 64, 90
3, 8896, Note_on_c, 1, 64, 0
3, 8896, Note_on_c, 1, 52, 0
3, 8896, Note_on_c, 1, 53, 92
3, 8896, Note_on_c, 1, 65, 92
3, 8904, Note_on_c, 1, 65, 0
3, 8904, Note_on_c, 1, 53, 0
3, 8904, Note_on_c, 1, 52, 90
3, 8904, Note_on_c, 1, 64, 90
3, 8912, Note_on_c, 1, 64, 0
3, 8912, Note_on_c, 1, 52, 0
3, 8912, Note_on_c, 1, 48, 88
3, 8912, Note_on_c, 1, 60, 88
3, 8920, Note_on_c, 1, 60, 0
3, 8920, Note_on_c, 1, 48, 0
3, 8920, Note_on_c, 1, 50, 90
3, 8920, Note_on_c, 1, 62, 90
3, 8928, Note_on_c, 1, 62, 0
3, 8928, Note_on_c, 1, 50, 0
3, 8928, Note_on_c, 1, 48, 88
3, 8928, Note_on_c, 1, 60, 88
3, 8936, Note_on_c, 1, 60, 0
3, 8936, Note_on_c, 1, 48, 0
3, 8936, Note_on_c, 1, 43, 86
3, 8936, Note_on_c, 1, 55, 86
3, 8944, Note_on_c, 1, 55, 0
3, 8944, Note_on_c, 1, 43, 0
3, 8944, Note_on_c, 1, 45, 88
3, 8944, Note_on_c, 1, 57, 88
3, 8952, Note_on_c, 1, 57, 0
3, 8952, Note_on_c, 1, 45, 0
3, 8952, Note_on_c, 1, 43, 84
3, 8952, Note_on_c, 1, 55, 84
3, 8960, Note_on_c, 1, 55, 0
3, 8960, Note_on_c, 1, 43, 0
3, 8960, Note_on_c, 1, 40, 86
3, 8960, Note_on_c, 1, 52, 86
3, 8968, Note_on_c, 1, 52, 0
3, 8968, Note_on_c, 1, 40, 0
3, 8968, Note_on_c, 1, 41, 89
3, 8968, Note_on_c, 1, 53, 89
3, 8976, Note_on_c, 1, 53, 0
3, 8976, Note_on_c, 1, 41, 0
3, 8976, Note_on_c, 1, 40, 88
3, 8976, Note_on_c, 1, 52, 88
3, 8984, Note_on_c, 1, 52, 0
3, 8984, Note_on_c, 1, 40, 0
3, 8984, Note_on_c, 1, 36, 87
3, 8984, Note_on_c, 1, 48, 87
3, 8992, Note_on_c, 1, 48, 0
3, 8992, Note_on_c, 1, 36, 0
3, 8992, Note_on_c, 1, 38, 90
3, 8992, Note_on_c, 1, 50, 90
3, 9000, Note_on_c, 1, 50, 0
3, 9000, Note_on_c, 1, 38, 0
3, 9000, Note_on_c, 1, 36, 89
3, 9000, Note_on_c, 1, 48, 89
3, 9008, Note_on_c, 1, 48, 0
3, 9008, Note_on_c, 1, 36, 0
3, 9008, Note_on_c, 1, 33, 88
3, 9008, Note_on_c, 1, 45, 88
3, 9016, Note_on_c, 1, 45, 0
3, 9016, Note_on_c, 1, 33, 0
3, 9016, Note_on_c, 1, 28, 87
3, 9016, Note_on_c, 1, 40, 87
3, 9024, Note_on_c, 1, 40, 0
3, 9024, Note_on_c, 1, 28, 0
3, 9024, Note_on_c, 1, 31, 96
3, 9024, Note_on_c, 1, 43, 96
3, 9024, Control_c, 1, 64, 127
3, 9032, Note_on_c, 1, 43, 0
3, 9032, Note_on_c, 1, 31, 0
3, 9032, Note_on_c, 1, 51, 96
3, 9032, Note_on_c, 1, 63, 96
3, 9040, Note_on_c, 1, 63, 0
3, 9040, Note_on_c, 1, 51, 0
3, 9040, Note_on_c, 1, 50, 95
3, 9040, Note_on_c, 1, 62, 95
3, 9042, Control_c, 1, 64, 0
3, 9048, Note_on_c, 1, 62, 0
3, 9048, Note_on_c, 1, 50, 0
3, 9048, Note_on_c, 1, 49, 94
3, 9048, Note_on_c, 1, 61, 94
3, 9056, Note_on_c, 1, 61, 0
3, 9056, Note_on_c, 1, 49, 0
3, 9056, Note_on_c, 1, 48, 93
3, 9056, Note_on_c, 1, 60, 93
3, 9064, Note_on_c, 1, 60, 0
3, 9064, Note_on_c, 1, 48, 0
3, 9064, Note_on_c, 1, 47, 92
3, 9064, Note_on_c, 1, 59, 92
3, 9072, Note_on_c, 1, 59, 0
3, 9072, Note_on_c, 1, 47, 0
3, 9072, Note_on_c, 1, 46, 91
3, 9072, Note_on_c, 1, 58, 91
3, 9080, Note_on_c, 1, 58, 0
3, 9080, Note_on_c, 1, 46, 0
3, 9080, Note_on_c, 1, 45, 90
3, 9080, Note_on_c, 1, 57, 90
3, 9088, Note_on_c, 1, 57, 0
3, 9088, Note_on_c, 1, 45, 0
3, 9088, Note_on_c, 1, 44, 89
3, 9088, Note_on_c, 1, 56, 89
3, 9096, Note_on_c, 1, 56, 0
3, 9096, Note_on_c, 1, 44, 0
3, 9096, Note_on_c, 1, 43, 88
3, 9096, Note_on_c, 1, 55, 88
3, 9104, Note_on_c, 1, 55, 0
3, 9104, Note_on_c, 1, 43, 0
3, 9104, Note_on_c, 1, 42, 87
3, 9104, Note_on_c, 1, 54, 87
3, 9112, Note_on_c, 1, 54, 0
3, 9112, Note_on_c, 1, 42, 0
3, 9112, Note_on_c, 1, 41, 86
3, 9112, Note_on_c, 1, 53, 86
3, 9120, Note_on_c, 1, 53, 0
3, 9120, Note_on_c, 1, 41, 0
3, 9120, Note_on_c, 1, 40, 85
3, 9120, Note_on_c, 1, 52, 85
3, 9120, Control_c, 1, 64, 127
3, 9128, Note_on_c, 1, 52, 0
3, 9128, Note_on_c, 1, 40, 0
3, 9128, Note_on_c, 1, 39, 86
3, 9128, Note_on_c, 1, 51, 86
3, 9136, Note_on_c, 1, 51, 0
3, 9136, Note_on_c, 1, 39, 0
3, 9136, Note_on_c, 1, 38, 87
3, 9136, Note_on_c, 1, 50, 87
3, 9144, Note_on_c, 1, 50, 0
3, 9144, Note_on_c, 1, 38, 0
3, 9144, Note_on_c, 1, 37, 88
3, 9144, Note_on_c, 1, 49, 88
3, 9152, Note_on_c, 1, 49, 0
3, 9152, Note_on_c, 1, 37, 0
3, 9152, Note_on_c, 1, 36, 89
3, 9152, Note_on_c, 1, 48, 89
3, 9160, Note_on_c, 1, 48, 0
3, 9160, Note_on_c, 1, 36, 0
3, 9160, Note_on_c, 1, 35, 90
3, 9160, Note_on_c, 1, 47, 90
3, 9166, Control_c, 1, 64, 0
3, 9168, Note_on_c, 1, 47, 0
3, 9168, Note_on_c, 1, 35, 0
3, 9168, Note_on_c, 1, 34, 91
3, 9168, Note_on_c, 1, 46, 91
3, 9168, Control_c, 1, 64, 127
3, 9176, Note_on_c, 1, 46, 0
3, 9176, Note_on_c, 1, 34, 0
3, 9176, Note_on_c, 1, 33, 92
3, 9176, Note_on_c, 1, 45, 92
3, 9184, Note_on_c, 1, 45, 0
3, 9184, Note_on_c, 1, 33, 0
3, 9184, Note_on_c, 1, 32, 93
3, 9184, Note_on_c, 1, 44, 93
3, 9190, Control_c, 1, 64, 0
3, 9192, Note_on_c, 1, 44, 0
3, 9192, Note_on_c, 1, 32, 0
3, 9192, Note_on_c, 1, 31, 94
3, 9192, Note_on_c, 1, 43, 94
3, 9192, Control_c, 1, 64, 127
3, 9200, Note_on_c, 1, 43, 0
3, 9200, Note_on_c, 1, 31, 0
3, 9200, Note_on_c, 1, 30, 95
3, 9200, Note_on_c, 1, 42, 95
3, 9208, Note_on_c, 1, 42, 0
3, 9208, Note_on_c, 1, 30, 0
3, 9208, Note_on_c, 1, 33, 96
3, 9208, Note_on_c, 1, 45, 96
3, 9214, Control_c, 1, 64, 0
3, 9216, Note_on_c, 1, 45, 0
3, 9216, Note_on_c, 1, 33, 0
3, 9216, Note_on_c, 1, 43, 77
3, 9216, Control_c, 1, 64, 127
3, 9218, Note_on_c, 1, 50, 81
3, 9220, Note_on_c, 1, 53, 85
3, 9222, Note_on_c, 1, 59, 90
3, 9238, Note_on_c, 1, 59, 0
3, 9238, Note_on_c, 1, 43, 0
3, 9238, Note_on_c, 1, 50, 0
3, 9238, Note_on_c, 1, 53, 0
3, 9240, Note_on_c, 1, 64, 105
3, 9240, Note_on_c, 1, 76, 105
3, 9248, Note_on_c, 1, 76, 0
3, 9248, Note_on_c, 1, 64, 0
3, 9248, Note_on_c, 1, 62, 103
3, 9248, Note_on_c, 1, 74, 103
3, 9256, Note_on_c, 1, 74, 0
3, 9256, Note_on_c, 1, 62, 0
3, 9256, Note_on_c, 1, 57, 102
3, 9256, Note_on_c, 1, 69, 102
3, 9258, Control_c, 1, 64, 0
3, 9264, Note_on_c, 1, 69, 0
3, 9264, Note_on_c, 1, 57, 0
3, 9264, Note_on_c, 1, 55, 100
3, 9264, Note_on_c, 1, 67, 100
3, 9264, Control_c, 1, 64, 127
3, 9272, Note_on_c, 1, 67, 0
3, 9272, Note_on_c, 1, 55, 0
3, 9272, Note_on_c, 1, 52, 99
3, 9272, Note_on_c, 1, 64, 99
3, 9280, Note_on_c, 1, 64, 0
3, 9280, Note_on_c, 1, 52, 0
3, 9280, Note_on_c, 1, 50, 97
3, 9280, Note_on_c, 1, 62, 97
3, 9288, Note_on_c, 1, 62, 0
3, 9288, Note_on_c, 1, 50, 0
3, 9288, Note_on_c, 1, 45, 95
3, 9288, Note_on_c, 1, 57, 95
3, 9296, Note_on_c, 1, 57, 0
3, 9296, Note_on_c, 1, 45, 0
3, 9296, Note_on_c, 1, 43, 94
3, 9296, Note_on_c, 1, 55, 94
3, 9304, Note_on_c, 1, 55, 0
3, 9304, Note_on_c, 1, 43, 0
3, 9304, Note_on_c, 1, 31, 85
3, 9304, Note_on_c, 1, 43, 85
3, 9308, Control_c, 1, 64, 0
3, 9312, Note_on_c, 1, 43, 0
3, 9312, Note_on_c, 1, 31, 0
3, 9312, Note_on_c, 1, 24, 90
3, 9312, Note_on_c, 1, 36, 90
3, 9314, Control_c, 1, 64, 127
3, 9320, Note_on_c, 1, 36, 0
3, 9320, Note_on_c, 1, 24, 0
3, 9320, Note_on_c, 1, 31, 60
3, 9320, Note_on_c, 1, 43, 70
3, 9328, Note_on_c, 1, 43, 0
3, 9328, Note_on_c, 1, 31, 0
3, 9328, Note_on_c, 1, 31, 63
3, 9328, Note_on_c, 1, 43, 73
3, 9334, Note_on_c, 1, 43, 0
3, 9334, Note_on_c, 1, 31, 0
3, 9336, Note_on_c, 1, 31, 59
3, 9336, Note_on_c, 1, 43, 69
3, 9344, Note_on_c, 1, 43, 0
3, 9344, Note_on_c, 1, 31, 0
3, 9344, Note_on_c, 1, 36, 58
3, 9344, Note_on_c, 1, 48, 68
3, 9352, Note_on_c, 1, 48, 0
3, 9352, Note_on_c, 1, 36, 0
3, 9352, Note_on_c, 1, 36, 55
3, 9352, Note_on_c, 1, 48, 65
3, 9358, Note_on_c, 1, 48, 0
3, 9360, Note_on_c, 1, 36, 0
3, 9360, Note_on_c, 1, 36, 53
3, 9360, Note_on_c, 1, 48, 63
3, 9368, Note_on_c, 1, 48, 0
3, 9368, Note_on_c, 1, 36, 0
3, 9368, Note_on_c, 1, 43, 51
3, 9368, Note_on_c, 1, 55, 61
3, 9376, Note_on_c, 1, 55, 0
3, 9376, Note_on_c, 1, 43, 0
3, 9376, Note_on_c, 1, 43, 48
3, 9376, Note_on_c, 1, 55, 58
3, 9382, Note_on_c, 1, 55, 0
3, 9382, Note_on_c, 1, 43, 0
3, 9384, Note_on_c, 1, 43, 45
3, 9384, Note_on_c, 1, 55, 55
3, 9392, Note_on_c, 1, 55, 0
3, 9392, Note_on_c, 1, 43, 0
3, 9392, Note_on_c, 1, 48, 40
3, 9392, Note_on_c, 1, 60, 50
3, 9400, Note_on_c, 1, 60, 0
3, 9400, Note_on_c, 1, 48, 0
3, 9400, Note_on_c, 1, 48, 35
3, 9400, Note_on_c, 1, 60, 45
3, 9402, Control_c, 1, 64, 0
3, 9408, Note_on_c, 1, 60, 0
3, 9408, Note_on_c, 1, 48, 0
3, 9408, Note_on_c, 1, 48, 34
3, 9408, Note_on_c, 1, 60, 42
3, 9408, Control_c, 1, 64, 127
3, 9424, Note_on_c, 1, 60, 0
3, 9424, Note_on_c, 1, 48, 0
3, 9424, Note_on_c, 1, 51, 38
3, 9424, Note_on_c, 1, 60, 42
3, 9440, Note_on_c, 1, 60, 0
3, 9440, Note_on_c, 1, 51, 0
3, 9440, Note_on_c, 1, 55, 42
3, 9440, Note_on_c, 1, 63, 46
3, 9456, Note_on_c, 1, 63, 0
3, 9456, Note_on_c, 1, 55, 0
3, 9456, Note_on_c, 1, 51, 38
3, 9456, Note_on_c, 1, 60, 42
3, 9472, Note_on_c, 1, 60, 0
3, 9472, Note_on_c, 1, 51, 0
3, 9472, Note_on_c, 1, 55, 42
3, 9472, Note_on_c, 1, 60, 42
3, 9488, Note_on_c, 1, 60, 0
3, 9488, Note_on_c, 1, 55, 0
3, 9488, Note_on_c, 1, 51, 38
3, 9488, Note_on_c, 1, 60, 42
3, 9502, Note_on_c, 1, 60, 0
3, 9502, Note_on_c, 1, 51, 0
3, 9504, Note_on_c, 1, 41, 54
3, 9504, Note_on_c, 1, 53, 52
3, 9506, Control_c, 1, 64, 0
3, 9512, Control_c, 1, 64, 127
3, 9520, Note_on_c, 1, 53, 0
3, 9520, Note_on_c, 1, 41, 0
3, 9520, Note_on_c, 1, 53, 42
3, 9520, Note_on_c, 1, 60, 46
3, 9536, Note_on_c, 1, 60, 0
3, 9536, Note_on_c, 1, 53, 0
3, 9536, Note_on_c, 1, 56, 46
3, 9536, Note_on_c, 1, 63, 50
3, 9552, Note_on_c, 1, 63, 0
3, 9552, Note_on_c, 1, 56, 0
3, 9552, Note_on_c, 1, 53, 42
3, 9552, Note_on_c, 1, 60, 46
3, 9568, Note_on_c, 1, 60, 0
3, 9568, Note_on_c, 1, 53, 0
3, 9568, Note_on_c, 1, 56, 46
3, 9568, Note_on_c, 1, 63, 50
3, 9584, Note_on_c, 1, 63, 0
3, 9584, Note_on_c, 1, 56, 0
3, 9584, Note_on_c, 1, 53, 42
3, 9584, Note_on_c, 1, 60, 46
3, 9598, Note_on_c, 1, 60, 0
3, 9598, Note_on_c, 1, 53, 0
3, 9600, Note_on_c, 1, 35, 52
3, 9600, Note_on_c, 1, 47, 50
3, 9600, Control_c, 1, 64, 127
3, 9602, Control_c, 1, 64, 0
3, 9608, Control_c, 1, 64, 127
3, 9616, Note_on_c, 1, 47, 0
3, 9616, Note_on_c, 1, 35, 0
3, 9616, Note_on_c, 1, 47, 38
3, 9616, Note_on_c, 1, 55, 44
3, 9632, Note_on_c, 1, 55, 0
3, 9632, Note_on_c, 1, 47, 0
3, 9632, Note_on_c, 1, 50, 42
3, 9632, Note_on_c, 1, 62, 46
3, 9648, Note_on_c, 1, 62, 0
3, 9648, Note_on_c, 1, 50, 0
3, 9648, Note_on_c, 1, 47, 38
3, 9648, Note_on_c, 1, 55, 44
3, 9664, Note_on_c, 1, 55, 0
3, 9664, Note_on_c, 1, 47, 0
3, 9664, Note_on_c, 1, 50, 42
3, 9664, Note_on_c, 1, 62, 46
3, 9680, Note_on_c, 1, 62, 0
3, 9680, Note_on_c, 1, 50, 0
3, 9680, Note_on_c, 1, 47, 38
3, 9680, Note_on_c, 1, 55, 44
3, 9694, Note_on_c, 1, 55, 0
3, 9694, Note_on_c, 1, 47, 0
3, 9696, Note_on_c, 1, 36, 54
3, 9696, Note_on_c, 1, 48, 52
3, 9698, Control_c, 1, 64, 0
3, 9704, Control_c, 1, 64, 127
3, 9712, Note_on_c, 1, 48, 0
3, 9712, Note_on_c, 1, 36, 0
3, 9712, Note_on_c, 1, 48, 38
3, 9712, Note_on_c, 1, 55, 44
3, 9728, Note_on_c, 1, 55, 0
3, 9728, Note_on_c, 1, 48, 0
3, 9728, Note_on_c, 1, 51, 42
3, 9728, Note_on_c, 1, 63, 46
3, 9744, Note_on_c, 1, 63, 0
3, 9744, Note_on_c, 1, 51, 0
3, 9744, Note_on_c, 1, 48, 38
3, 9744, Note_on_c, 1, 55, 44
3, 9760, Note_on_c, 1, 55, 0
3, 9760, Note_on_c, 1, 48, 0
3, 9760, Note_on_c, 1, 51, 42
3, 9760, Note_on_c, 1, 63, 46
3, 9776, Note_on_c, 1, 63, 0
3, 9776, Note_on_c, 1, 51, 0
3, 9776, Note_on_c, 1, 48, 38
3, 9776, Note_on_c, 1, 60, 44
3, 9790, Note_on_c, 1, 60, 0
3, 9790, Note_on_c, 1, 48, 0
3, 9792, Note_on_c, 1, 32, 54
3, 9792, Note_on_c, 1, 44, 52
3, 9792, Control_c, 1, 64, 127
3, 9794, Control_c, 1, 64, 0
3, 9800, Control_c, 1, 64, 127
3, 9808, Note_on_c, 1, 44, 0
3, 9808, Note_on_c, 1, 32, 0
3, 9808, Note_on_c, 1, 48, 38
3, 9808, Note_on_c, 1, 56, 44
3, 9824, Note_on_c, 1, 56, 0
3, 9824, Note_on_c, 1, 48, 0
3, 9824, Note_on_c, 1, 51, 42
3, 9824, Note_on_c, 1, 60, 46
3, 9840, Note_on_c, 1, 60, 0
3, 9840, Note_on_c, 1, 51, 0
3, 9840, Note_on_c, 1, 48, 38
3, 9840, Note_on_c, 1, 56, 44
3, 9856, Note_on_c, 1, 56, 0
3, 9856, Note_on_c, 1, 48, 0
3, 9856, Note_on_c, 1, 51, 42
3, 9856, Note_on_c, 1, 60, 46
3, 9872, Note_on_c, 1, 60, 0
3, 9872, Note_on_c, 1, 51, 0
3, 9872, Note_on_c, 1, 48, 38
3, 9872, Note_on_c, 1, 56, 44
3, 9886, Note_on_c, 1, 56, 0
3, 9886, Note_on_c, 1, 48, 0
3, 9888, Note_on_c, 1, 29, 60
3, 9888, Note_on_c, 1, 41, 58
3, 9890, Control_c, 1, 64, 0
3, 9896, Control_c, 1, 64, 127
3, 9904, Note_on_c, 1, 41, 0
3, 9904, Note_on_c, 1, 29, 0
3, 9904, Note_on_c, 1, 50, 42
3, 9904, Note_on_c, 1, 53, 44
3, 9904, Note_on_c, 1, 56, 46
3, 9920, Note_on_c, 1, 56, 0
3, 9920, Note_on_c, 1, 53, 0
3, 9920, Note_on_c, 1, 50, 0
3, 9920, Note_on_c, 1, 53, 44
3, 9920, Note_on_c, 1, 56, 46
3, 9920, Note_on_c, 1, 60, 48
3, 9936, Note_on_c, 1, 60, 0
3, 9936, Note_on_c, 1, 56, 0
3, 9936, Note_on_c, 1, 53, 0
3, 9936, Note_on_c, 1, 50, 42
3, 9936, Note_on_c, 1, 53, 44
3, 9936, Note_on_c, 1, 56, 46
3, 9952, Note_on_c, 1, 56, 0
3, 9952, Note_on_c, 1, 53, 0
3, 9952, Note_on_c, 1, 50, 0
3, 9952, Note_on_c, 1, 53, 44
3, 9952, Note_on_c, 1, 56, 46
3, 9952, Note_on_c, 1, 60, 48
3, 9968, Note_on_c, 1, 60, 0
3, 9968, Note_on_c, 1, 56, 0
3, 9968, Note_on_c, 1, 53, 0
3, 9968, Note_on_c, 1, 50, 42
3, 9968, Note_on_c, 1, 53, 44
3, 9968, Note_on_c, 1, 56, 46
3, 9982, Note_on_c, 1, 56, 0
3, 9982, Note_on_c, 1, 53, 0
3, 9982, Note_on_c, 1, 50, 0
3, 9984, Note_on_c, 1, 31, 58
3, 9984, Note_on_c, 1, 43, 56
3, 9984, Control_c, 1, 64, 127
3, 9986, Control_c, 1, 64, 0
3, 9992, Control_c, 1, 64, 127
3, 10000, Note_on_c, 1, 43, 0
3, 10000, Note_on_c, 1, 31, 0
3, 10000, Note_on_c, 1, 43, 40
3, 10000, Note_on_c, 1, 50, 46
3, 10016, Note_on_c, 1, 50, 0
3, 10016, Note_on_c, 1, 43, 0
3, 10016, Note_on_c, 1, 50, 46
3, 10016, Note_on_c, 1, 55, 50
3, 10032, Note_on_c, 1, 55, 0
3, 10032, Note_on_c, 1, 50, 0
3, 10032, Note_on_c, 1, 43, 44
3, 10032, Note_on_c, 1, 50, 50
3, 10048, Note_on_c, 1, 50, 0
3, 10048, Note_on_c, 1, 43, 0
3, 10048, Note_on_c, 1, 50, 50
3, 10048, Note_on_c, 1, 55, 54
3, 10064, Note_on_c, 1, 55, 0
3, 10064, Note_on_c, 1, 50, 0
3, 10064, Note_on_c, 1, 43, 49
3, 10064, Note_on_c, 1, 50, 55
3, 10078, Note_on_c, 1, 50, 0
3, 10078, Note_on_c, 1, 43, 0
3, 10080, Note_on_c, 1, 36, 62
3, 10080, Note_on_c, 1, 48, 60
3, 10082, Control_c, 1, 64, 0
3, 10088, Control_c, 1, 64, 127
3, 10096, Note_on_c, 1, 48, 0
3, 10096, Note_on_c, 1, 36, 0
3, 10096, Note_on_c, 1, 43, 48
3, 10096, Note_on_c, 1, 48, 52
3, 10112, Note_on_c, 1, 48, 0
3, 10112, Note_on_c, 1, 43, 0
3, 10112, Note_on_c, 1, 48, 46
3, 10112, Note_on_c, 1, 55, 50
3, 10128, Note_on_c, 1, 55, 0
3, 10128, Note_on_c, 1, 48, 0
3, 10128, Note_on_c, 1, 43, 44
3, 10128, Note_on_c, 1, 48, 48
3, 10144, Note_on_c, 1, 48, 0
3, 10144, Note_on_c, 1, 43, 0
3, 10144, Note_on_c, 1, 48, 42
3, 10144, Note_on_c, 1, 55, 46
3, 10160, Note_on_c, 1, 55, 0
3, 10160, Note_on_c, 1, 48, 0
3, 10160, Note_on_c, 1, 43, 36
3, 10160, Note_on_c, 1, 48, 40
3, 10174, Note_on_c, 1, 48, 0
3, 10174, Note_on_c, 1, 43, 0
3, 10174, Control_c, 1, 64, 0
3, 10176, Note_on_c, 1, 27, 54
3, 10176, Note_on_c, 1, 39, 52
3, 10176, Control_c, 1, 64, 127
3, 10190, Note_on_c, 1, 39, 0
3, 10190, Note_on_c, 1, 27, 0
3, 10192, Note_on_c, 1, 51, 40
3, 10192, Note_on_c, 1, 58, 44
3, 10208, Note_on_c, 1, 58, 0
3, 10208, Note_on_c, 1, 51, 0
3, 10208, Note_on_c, 1, 55, 42
3, 10208, Note_on_c, 1, 63, 46
3, 10224, Note_on_c, 1, 63, 0
3, 10224, Note_on_c, 1, 55, 0
3, 10224, Note_on_c, 1, 51, 40
3, 10224, Note_on_c, 1, 58, 44
3, 10240, Note_on_c, 1, 58, 0
3, 10240, Note_on_c, 1, 51, 0
3, 10240, Note_on_c, 1, 55, 42
3, 10240, Note_on_c, 1, 63, 46
3, 10256, Note_on_c, 1, 63, 0
3, 10256, Note_on_c, 1, 55, 0
3, 10256, Note_on_c, 1, 51, 40
3, 10256, Note_on_c, 1, 58, 44
3, 10270, Note_on_c, 1, 58, 0
3, 10270, Note_on_c, 1, 51, 0
3, 10272, Note_on_c, 1, 32, 54
3, 10272, Note_on_c, 1, 44, 52
3, 10274, Control_c, 1, 64, 0
3, 10280, Control_c, 1, 64, 127
3, 10288, Note_on_c, 1, 44, 0
3, 10288, Note_on_c, 1, 32, 0
3, 10288, Note_on_c, 1, 53, 40
3, 10288, Note_on_c, 1, 60, 44
3, 10304, Note_on_c, 1, 60, 0
3, 10304, Note_on_c, 1, 53, 0
3, 10304, Note_on_c, 1, 56, 42
3, 10304, Note_on_c, 1, 63, 46
3, 10320, Note_on_c, 1, 63, 0
3, 10320, Note_on_c, 1, 56, 0
3, 10320, Note_on_c, 1, 53, 40
3, 10320, Note_on_c, 1, 60, 44
3, 10336, Note_on_c, 1, 60, 0
3, 10336, Note_on_c, 1, 53, 0
3, 10336, Note_on_c, 1, 56, 42
3, 10336, Note_on_c, 1, 63, 46
3, 10352, Note_on_c, 1, 63, 0
3, 10352, Note_on_c, 1, 56, 0
3, 10352, Note_on_c, 1, 53, 40
3, 10352, Note_on_c, 1, 60, 44
3, 10366, Note_on_c, 1, 60, 0
3, 10366, Note_on_c, 1, 53, 0
3, 10368, Note_on_c, 1, 34, 54
3, 10368, Note_on_c, 1, 46, 52
3, 10368, Control_c, 1, 64, 127
3, 10370, Control_c, 1, 64, 0
3, 10376, Control_c, 1, 64, 127
3, 10384, Note_on_c, 1, 46, 0
3, 10384, Note_on_c, 1, 34, 0
3, 10384, Note_on_c, 1, 46, 40
3, 10384, Note_on_c, 1, 56, 44
3, 10400, Note_on_c, 1, 56, 0
3, 10400, Note_on_c, 1, 46, 0
3, 10400, Note_on_c, 1, 53, 42
3, 10400, Note_on_c, 1, 62, 46
3, 10416, Note_on_c, 1, 62, 0
3, 10416, Note_on_c, 1, 53, 0
3, 10416, Note_on_c, 1, 46, 40
3, 10416, Note_on_c, 1, 56, 44
3, 10432, Note_on_c, 1, 56, 0
3, 10432, Note_on_c, 1, 46, 0
3, 10432, Note_on_c, 1, 53, 42
3, 10432, Note_on_c, 1, 62, 46
3, 10448, Note_on_c, 1, 62, 0
3, 10448, Note_on_c, 1, 53, 0
3, 10448, Note_on_c, 1, 35, 52
3, 10448, Note_on_c, 1, 47, 50
3, 10462, Note_on_c, 1, 47, 0
3, 10462, Note_on_c, 1, 35, 0
3, 10464, Note_on_c, 1, 36, 54
3, 10464, Note_on_c, 1, 48, 52
3, 10466, Control_c, 1, 64, 0
3, 10472, Control_c, 1, 64, 127
3, 10480, Note_on_c, 1, 48, 0
3, 10480, Note_on_c, 1, 36, 0
3, 10480, Note_on_c, 1, 48, 40
3, 10480, Note_on_c, 1, 55, 44
3, 10496, Note_on_c, 1, 55, 0
3, 10496, Note_on_c, 1, 48, 0
3, 10496, Note_on_c, 1, 51, 42
3, 10496, Note_on_c, 1, 63, 46
3, 10512, Note_on_c, 1, 63, 0
3, 10512, Note_on_c, 1, 51, 0
3, 10512, Note_on_c, 1, 48, 40
3, 10512, Note_on_c, 1, 55, 44
3, 10528, Note_on_c, 1, 55, 0
3, 10528, Note_on_c, 1, 48, 0
3, 10528, Note_on_c, 1, 51, 42
3, 10528, Note_on_c, 1, 63, 46
3, 10544, Note_on_c, 1, 63, 0
3, 10544, Note_on_c, 1, 51, 0
3, 10544, Note_on_c, 1, 48, 40
3, 10544, Note_on_c, 1, 55, 44
3, 10558, Note_on_c, 1, 55, 0
3, 10558, Note_on_c, 1, 48, 0
3, 10560, Note_on_c, 1, 38, 52
3, 10560, Note_on_c, 1, 50, 50
3, 10560, Control_c, 1, 64, 127
3, 10562, Control_c, 1, 64, 0
3, 10568, Control_c, 1, 64, 127
3, 10576, Note_on_c, 1, 50, 0
3, 10576, Note_on_c, 1, 38, 0
3, 10576, Note_on_c, 1, 46, 40
3, 10576, Note_on_c, 1, 55, 44
3, 10592, Note_on_c, 1, 55, 0
3, 10592, Note_on_c, 1, 46, 0
3, 10592, Note_on_c, 1, 50, 42
3, 10592, Note_on_c, 1, 58, 46
3, 10608, Note_on_c, 1, 58, 0
3, 10608, Note_on_c, 1, 50, 0
3, 10608, Note_on_c, 1, 46, 44
3, 10608, Note_on_c, 1, 55, 48
3, 10624, Note_on_c, 1, 55, 0
3, 10624, Note_on_c, 1, 46, 0
3, 10624, Note_on_c, 1, 50, 48
3, 10624, Note_on_c, 1, 58, 52
3, 10640, Note_on_c, 1, 58, 0
3, 10640, Note_on_c, 1, 50, 0
3, 10640, Note_on_c, 1, 38, 64
3, 10640, Note_on_c, 1, 50, 62
3, 10654, Note_on_c, 1, 50, 0
3, 10654, Note_on_c, 1, 38, 0
3, 10656, Note_on_c, 1, 26, 68
3, 10656, Note_on_c, 1, 38, 66
3, 10658, Control_c, 1, 64, 0
3, 10664, Control_c, 1, 64, 127
3, 10672, Note_on_c, 1, 38, 0
3, 10672, Note_on_c, 1, 26, 0
3, 10672, Note_on_c, 1, 50, 52
3, 10672, Note_on_c, 1, 57, 56
3, 10688, Note_on_c, 1, 57, 0
3, 10688, Note_on_c, 1, 50, 0
3, 10688, Note_on_c, 1, 57, 54
3, 10688, Note_on_c, 1, 60, 58
3, 10704, Note_on_c, 1, 60, 0
3, 10704, Note_on_c, 1, 57, 0
3, 10704, Note_on_c, 1, 50, 50
3, 10704, Note_on_c, 1, 57, 54
3, 10720, Note_on_c, 1, 57, 0
3, 10720, Note_on_c, 1, 50, 0
3, 10720, Note_on_c, 1, 57, 50
3, 10720, Note_on_c, 1, 60, 54
3, 10736, Note_on_c, 1, 60, 0
3, 10736, Note_on_c, 1, 57, 0
3, 10736, Note_on_c, 1, 50, 44
3, 10736, Note_on_c, 1, 57, 48
3, 10750, Note_on_c, 1, 57, 0
3, 10750, Note_on_c, 1, 50, 0
3, 10752, Note_on_c, 1, 31, 60
3, 10752, Note_on_c, 1, 43, 58
3, 10752, Control_c, 1, 64, 127
3, 10754, Control_c, 1, 64, 0
3, 10760, Control_c, 1, 64, 127
3, 10768, Note_on_c, 1, 43, 0
3, 10768, Note_on_c, 1, 31, 0
3, 10768, Note_on_c, 1, 43, 50
3, 10768, Note_on_c, 1, 50, 44
3, 10784, Note_on_c, 1, 50, 0
3, 10784, Note_on_c, 1, 43, 0
3, 10784, Note_on_c, 1, 50, 50
3, 10784, Note_on_c, 1, 55, 46
3, 10800, Note_on_c, 1, 55, 0
3, 10800, Note_on_c, 1, 50, 0
3, 10800, Note_on_c, 1, 43, 50
3, 10800, Note_on_c, 1, 50, 44
3, 10816, Note_on_c, 1, 50, 0
3, 10816, Note_on_c, 1, 43, 0
3, 10816, Note_on_c, 1, 50, 50
3, 10816, Note_on_c, 1, 55, 46
3, 10832, Note_on_c, 1, 55, 0
3, 10832, Note_on_c, 1, 50, 0
3, 10832, Note_on_c, 1, 38, 56
3, 10846, Note_on_c, 1, 38, 0
3, 10848, Note_on_c, 1, 31, 56
3, 10848, Note_on_c, 1, 43, 58
3, 10850, Control_c, 1, 64, 0
3, 10856, Control_c, 1, 64, 127
3, 10864, Note_on_c, 1, 43, 0
3, 10864, Note_on_c, 1, 31, 0
3, 10864, Note_on_c, 1, 43, 42
3, 10864, Note_on_c, 1, 50, 46
3, 10880, Note_on_c, 1, 50, 0
3, 10880, Note_on_c, 1, 43, 0
3, 10880, Note_on_c, 1, 50, 46
3, 10880, Note_on_c, 1, 55, 50
3, 10896, Note_on_c, 1, 55, 0
3, 10896, Note_on_c, 1, 50, 0
3, 10896, Note_on_c, 1, 43, 46
3, 10896, Note_on_c, 1, 50, 50
3, 10912, Note_on_c, 1, 50, 0
3, 10912, Note_on_c, 1, 43, 0
3, 10912, Note_on_c, 1, 50, 44
3, 10912, Note_on_c, 1, 55, 48
3, 10928, Note_on_c, 1, 55, 0
3, 10928, Note_on_c, 1, 50, 0
3, 10928, Note_on_c, 1, 31, 58
3, 10928, Note_on_c, 1, 43, 60
3, 10942, Note_on_c, 1, 43, 0
3, 10942, Note_on_c, 1, 31, 0
3, 10942, Control_c, 1, 64, 0
3, 10944, Note_on_c, 1, 30, 58
3, 10944, Note_on_c, 1, 42, 56
3, 10944, Control_c, 1, 64, 127
3, 10960, Note_on_c, 1, 42, 0
3, 10960, Note_on_c, 1, 30, 0
3, 10960, Note_on_c, 1, 42, 40
3, 10960, Note_on_c, 1, 51, 44
3, 10976, Note_on_c, 1, 51, 0
3, 10976, Note_on_c, 1, 42, 0
3, 10976, Note_on_c, 1, 48, 42
3, 10976, Note_on_c, 1, 56, 46
3, 10992, Note_on_c, 1, 56, 0
3, 10992, Note_on_c, 1, 48, 0
3, 10992, Note_on_c, 1, 42, 40
3, 10992, Note_on_c, 1, 51, 44
3, 10994, Control_c, 1, 64, 0
3, 11000, Control_c, 1, 64, 127
3, 11008, Note_on_c, 1, 51, 0
3, 11008, Note_on_c, 1, 42, 0
3, 11008, Note_on_c, 1, 48, 38
3, 11008, Note_on_c, 1, 56, 42
3, 11024, Note_on_c, 1, 56, 0
3, 11024, Note_on_c, 1, 48, 0
3, 11024, Note_on_c, 1, 30, 58
3, 11024, Note_on_c, 1, 42, 56
3, 11038, Note_on_c, 1, 42, 0
3, 11038, Note_on_c, 1, 30, 0
3, 11040, Note_on_c, 1, 29, 58
3, 11040, Note_on_c, 1, 41, 56
3, 11042, Control_c, 1, 64, 0
3, 11048, Control_c, 1, 64, 127
3, 11056, Note_on_c, 1, 41, 0
3, 11056, Note_on_c, 1, 29, 0
3, 11056, Note_on_c, 1, 41, 48
3, 11056, Note_on_c, 1, 49, 52
3, 11072, Note_on_c, 1, 49, 0
3, 11072, Note_on_c, 1, 41, 0
3, 11072, Note_on_c, 1, 49, 54
3, 11072, Note_on_c, 1, 56, 58
3, 11088, Note_on_c, 1, 56, 0
3, 11088, Note_on_c, 1, 49, 0
3, 11088, Note_on_c, 1, 41, 54
3, 11088, Note_on_c, 1, 49, 58
3, 11104, Note_on_c, 1, 49, 0
3, 11104, Note_on_c, 1, 41, 0
3, 11104, Note_on_c, 1, 49, 60
3, 11104, Note_on_c, 1, 56, 64
3, 11120, Note_on_c, 1, 56, 0
3, 11120, Note_on_c, 1, 49, 0
3, 11120, Note_on_c, 1, 29, 68
3, 11120, Note_on_c, 1, 41, 66
3, 11134, Note_on_c, 1, 41, 0
3, 11134, Note_on_c, 1, 29, 0
3, 11134, Control_c, 1, 64, 0
3, 11136, Note_on_c, 1, 36, 62
3, 11136, Note_on_c, 1, 48, 60
3, 11136, Control_c, 1, 64, 127
3, 11152, Note_on_c, 1, 48, 0
3, 11152, Note_on_c, 1, 36, 0
3, 11152, Note_on_c, 1, 48, 48
3, 11152, Note_on_c, 1, 56, 52
3, 11168, Note_on_c, 1, 56, 0
3, 11168, Note_on_c, 1, 48, 0
3, 11168, Note_on_c, 1, 51, 48
3, 11168, Note_on_c, 1, 63, 52
3, 11184, Note_on_c, 1, 63, 0
3, 11184, Note_on_c, 1, 51, 0
3, 11184, Note_on_c, 1, 48, 44
3, 11184, Note_on_c, 1, 56, 48
3, 11200, Note_on_c, 1, 56, 0
3, 11200, Note_on_c, 1, 48, 0
3, 11200, Note_on_c, 1, 51, 44
3, 11200, Note_on_c, 1, 63, 48
3, 11216, Note_on_c, 1, 63, 0
3, 11216, Note_on_c, 1, 51, 0
3, 11216, Note_on_c, 1, 36, 54
3, 11216, Note_on_c, 1, 48, 52
3, 11226, Control_c, 1, 64, 0
3, 11230, Note_on_c, 1, 48, 0
3, 11230, Note_on_c, 1, 36, 0
3, 11232, Note_on_c, 1, 37, 56
3, 11232, Note_on_c, 1, 49, 54
3, 11232, Control_c, 1, 64, 127
3, 11248, Note_on_c, 1, 49, 0
3, 11248, Note_on_c, 1, 37, 0
3, 11248, Note_on_c, 1, 49, 40
3, 11248, Note_on_c, 1, 56, 44
3, 11264, Note_on_c, 1, 56, 0
3, 11264, Note_on_c, 1, 49, 0
3, 11264, Note_on_c, 1, 53, 42
3, 11264, Note_on_c, 1, 61, 46
3, 11280, Note_on_c, 1, 61, 0
3, 11280, Note_on_c, 1, 53, 0
3, 11280, Note_on_c, 1, 49, 40
3, 11280, Note_on_c, 1, 56, 44
3, 11296, Note_on_c, 1, 56, 0
3, 11296, Note_on_c, 1, 49, 0
3, 11296, Note_on_c, 1, 53, 42
3, 11296, Note_on_c, 1, 61, 46
3, 11312, Note_on_c, 1, 61, 0
3, 11312, Note_on_c, 1, 53, 0
3, 11312, Note_on_c, 1, 36, 50
3, 11312, Note_on_c, 1, 48, 48
3, 11322, Control_c, 1, 64, 0
3, 11326, Note_on_c, 1, 48, 0
3, 11326, Note_on_c, 1, 36, 0
3, 11328, Note_on_c, 1, 35, 52
3, 11328, Note_on_c, 1, 47, 50
3, 11328, Control_c, 1, 64, 127
3, 11344, Note_on_c, 1, 47, 0
3, 11344, Note_on_c, 1, 35, 0
3, 11344, Note_on_c, 1, 47, 40
3, 11344, Note_on_c, 1, 55, 44
3, 11360, Note_on_c, 1, 55, 0
3, 11360, Note_on_c, 1, 47, 0
3, 11360, Note_on_c, 1, 50, 42
3, 11360, Note_on_c, 1, 62, 46
3, 11376, Note_on_c, 1, 62, 0
3, 11376, Note_on_c, 1, 50, 0
3, 11376, Note_on_c, 1, 47, 40
3, 11376, Note_on_c, 1, 55, 44
3, 11392, Note_on_c, 1, 55, 0
3, 11392, Note_on_c, 1, 47, 0
3, 11392, Note_on_c, 1, 50, 42
3, 11392, Note_on_c, 1, 55, 46
3, 11408, Note_on_c, 1, 55, 0
3, 11408, Note_on_c, 1, 50, 0
3, 11408, Note_on_c, 1, 35, 56
3, 11408, Note_on_c, 1, 47, 54
3, 11418, Control_c, 1, 64, 0
3, 11422, Note_on_c, 1, 47, 0
3, 11422, Note_on_c, 1, 35, 0
3, 11424, Note_on_c, 1, 36, 58
3, 11424, Note_on_c, 1, 48, 56
3, 11424, Control_c, 1, 64, 127
3, 11440, Note_on_c, 1, 48, 0
3, 11440, Note_on_c, 1, 36, 0
3, 11440, Note_on_c, 1, 48, 49
3, 11440, Note_on_c, 1, 55, 53
3, 11456, Note_on_c, 1, 55, 0
3, 11456, Note_on_c, 1, 48, 0
3, 11456, Note_on_c, 1, 51, 54
3, 11456, Note_on_c, 1, 60, 58
3, 11472, Note_on_c, 1, 60, 0
3, 11472, Note_on_c, 1, 51, 0
3, 11472, Note_on_c, 1, 48, 55
3, 11472, Note_on_c, 1, 55, 59
3, 11488, Note_on_c, 1, 55, 0
3, 11488, Note_on_c, 1, 48, 0
3, 11488, Note_on_c, 1, 51, 60
3, 11488, Note_on_c, 1, 63, 64
3, 11504, Note_on_c, 1, 63, 0
3, 11504, Note_on_c, 1, 51, 0
3, 11504, Note_on_c, 1, 36, 72
3, 11504, Note_on_c, 1, 48, 70
3, 11518, Note_on_c, 1, 48, 0
3, 11518, Note_on_c, 1, 36, 0
3, 11520, Note_on_c, 1, 38, 71
3, 11520, Note_on_c, 1, 50, 67
3, 11520, Control_c, 1, 64, 127
3, 11522, Control_c, 1, 64, 0
3, 11528, Control_c, 1, 64, 127
3, 11536, Note_on_c, 1, 50, 0
3, 11536, Note_on_c, 1, 38, 0
3, 11536, Note_on_c, 1, 50, 56
3, 11536, Note_on_c, 1, 55, 60
3, 11552, Note_on_c, 1, 55, 0
3, 11552, Note_on_c, 1, 50, 0
3, 11552, Note_on_c, 1, 55, 55
3, 11552, Note_on_c, 1, 62, 59
3, 11568, Note_on_c, 1, 62, 0
3, 11568, Note_on_c, 1, 55, 0
3, 11568, Note_on_c, 1, 50, 50
3, 11568, Note_on_c, 1, 55, 54
3, 11570, Control_c, 1, 64, 0
3, 11576, Control_c, 1, 64, 127
3, 11584, Note_on_c, 1, 55, 0
3, 11584, Note_on_c, 1, 50, 0
3, 11584, Note_on_c, 1, 55, 49
3, 11584, Note_on_c, 1, 62, 53
3, 11600, Note_on_c, 1, 62, 0
3, 11600, Note_on_c, 1, 55, 0
3, 11600, Note_on_c, 1, 38, 50
3, 11600, Note_on_c, 1, 50, 52
3, 11614, Note_on_c, 1, 50, 0
3, 11614, Note_on_c, 1, 38, 0
3, 11616, Note_on_c, 1, 39, 48
3, 11616, Note_on_c, 1, 51, 50
3, 11618, Control_c, 1, 64, 0
3, 11624, Control_c, 1, 64, 127
3, 11632, Note_on_c, 1, 51, 0
3, 11632, Note_on_c, 1, 39, 0
3, 11632, Note_on_c, 1, 51, 40
3, 11632, Note_on_c, 1, 60, 44
3, 11648, Note_on_c, 1, 60, 0
3, 11648, Note_on_c, 1, 51, 0
3, 11648, Note_on_c, 1, 55, 42
3, 11648, Note_on_c, 1, 63, 46
3, 11664, Note_on_c, 1, 63, 0
3, 11664, Note_on_c, 1, 55, 0
3, 11664, Note_on_c, 1, 51, 40
3, 11664, Note_on_c, 1, 60, 44
3, 11680, Note_on_c, 1, 60, 0
3, 11680, Note_on_c, 1, 51, 0
3, 11680, Note_on_c, 1, 55, 42
3, 11680, Note_on_c, 1, 63, 46
3, 11696, Note_on_c, 1, 63, 0
3, 11696, Note_on_c, 1, 55, 0
3, 11696, Note_on_c, 1, 39, 56
3, 11696, Note_on_c, 1, 51, 54
3, 11710, Note_on_c, 1, 51, 0
3, 11710, Note_on_c, 1, 39, 0
3, 11710, Control_c, 1, 64, 0
3, 11712, Note_on_c, 1, 41, 58
3, 11712, Note_on_c, 1, 53, 56
3, 11712, Control_c, 1, 64, 127
3, 11728, Note_on_c, 1, 53, 0
3, 11728, Note_on_c, 1, 41, 0
3, 11728, Note_on_c, 1, 53, 42
3, 11728, Note_on_c, 1, 59, 46
3, 11744, Note_on_c, 1, 59, 0
3, 11744, Note_on_c, 1, 53, 0
3, 11744, Note_on_c, 1, 59, 46
3, 11744, Note_on_c, 1, 65, 50
3, 11760, Note_on_c, 1, 65, 0
3, 11760, Note_on_c, 1, 59, 0
3, 11760, Note_on_c, 1, 53, 46
3, 11760, Note_on_c, 1, 59, 50
3, 11776, Note_on_c, 1, 59, 0
3, 11776, Note_on_c, 1, 53, 0
3, 11776, Note_on_c, 1, 59, 46
3, 11776, Note_on_c, 1, 65, 50
3, 11792, Note_on_c, 1, 65, 0
3, 11792, Note_on_c, 1, 59, 0
3, 11792, Note_on_c, 1, 41, 56
3, 11792, Note_on_c, 1, 53, 54
3, 11806, Note_on_c, 1, 53, 0
3, 11806, Note_on_c, 1, 41, 0
3, 11808, Note_on_c, 1, 39, 54
3, 11808, Note_on_c, 1, 51, 52
3, 11810, Control_c, 1, 64, 0
3, 11816, Control_c, 1, 64, 127
3, 11824, Note_on_c, 1, 51, 0
3, 11824, Note_on_c, 1, 39, 0
3, 11824, Note_on_c, 1, 48, 42
3, 11824, Note_on_c, 1, 55, 46
3, 11840, Note_on_c, 1, 55, 0
3, 11840, Note_on_c, 1, 48, 0
3, 11840, Note_on_c, 1, 55, 46
3, 11840, Note_on_c, 1, 60, 50
3, 11856, Note_on_c, 1, 60, 0
3, 11856, Note_on_c, 1, 55, 0
3, 11856, Note_on_c, 1, 48, 46
3, 11856, Note_on_c, 1, 55, 50
3, 11872, Note_on_c, 1, 55, 0
3, 11872, Note_on_c, 1, 48, 0
3, 11872, Note_on_c, 1, 55, 48
3, 11872, Note_on_c, 1, 60, 52
3, 11888, Note_on_c, 1, 60, 0
3, 11888, Note_on_c, 1, 55, 0
3, 11888, Note_on_c, 1, 36, 56
3, 11888, Note_on_c, 1, 48, 58
3, 11902, Note_on_c, 1, 48, 0
3, 11902, Note_on_c, 1, 36, 0
3, 11904, Note_on_c, 1, 35, 54
3, 11904, Note_on_c, 1, 47, 56
3, 11904, Control_c, 1, 64, 127
3, 11906, Control_c, 1, 64, 0
3, 11912, Control_c, 1, 64, 127
3, 11920, Note_on_c, 1, 47, 0
3, 11920, Note_on_c, 1, 35, 0
3, 11920, Note_on_c, 1, 47, 42
3, 11920, Note_on_c, 1, 55, 46
3, 11936, Note_on_c, 1, 55, 0
3, 11936, Note_on_c, 1, 47, 0
3, 11936, Note_on_c, 1, 50, 46
3, 11936, Note_on_c, 1, 62, 50
3, 11952, Note_on_c, 1, 62, 0
3, 11952, Note_on_c, 1, 50, 0
3, 11952, Note_on_c, 1, 47, 46
3, 11952, Note_on_c, 1, 55, 50
3, 11968, Note_on_c, 1, 55, 0
3, 11968, Note_on_c, 1, 47, 0
3, 11968, Note_on_c, 1, 50, 46
3, 11968, Note_on_c, 1, 62, 50
3, 11984, Note_on_c, 1, 62, 0
3, 11984, Note_on_c, 1, 50, 0
3, 11984, Note_on_c, 1, 35, 58
3, 11984, Note_on_c, 1, 47, 60
3, 11998, Note_on_c, 1, 47, 0
3, 11998, Note_on_c, 1, 35, 0
3, 12000, Note_on_c, 1, 36, 60
3, 12000, Note_on_c, 1, 48, 62
3, 12002, Control_c, 1, 64, 0
3, 12008, Control_c, 1, 64, 127
3, 12016, Note_on_c, 1, 48, 0
3, 12016, Note_on_c, 1, 36, 0
3, 12016, Note_on_c, 1, 48, 46
3, 12016, Note_on_c, 1, 55, 50
3, 12032, Note_on_c, 1, 55, 0
3, 12032, Note_on_c, 1, 48, 0
3, 12032, Note_on_c, 1, 51, 50
3, 12032, Note_on_c, 1, 60, 54
3, 12048, Note_on_c, 1, 60, 0
3, 12048, Note_on_c, 1, 51, 0
3, 12048, Note_on_c, 1, 48, 54
3, 12048, Note_on_c, 1, 55, 58
3, 12064, Note_on_c, 1, 55, 0
3, 12064, Note_on_c, 1, 48, 0
3, 12064, Note_on_c, 1, 51, 58
3, 12064, Note_on_c, 1, 55, 60
3, 12064, Note_on_c, 1, 63, 62
3, 12080, Note_on_c, 1, 63, 0
3, 12080, Note_on_c, 1, 55, 0
3, 12080, Note_on_c, 1, 51, 0
3, 12080, Note_on_c, 1, 36, 62
3, 12080, Note_on_c, 1, 48, 66
3, 12090, Control_c, 1, 64, 0
3, 12094, Note_on_c, 1, 48, 0
3, 12094, Note_on_c, 1, 36, 0
3, 12096, Note_on_c, 1, 29, 52
3, 12096, Note_on_c, 1, 41, 50
3, 12096, Control_c, 1, 64, 127
3, 12112, Note_on_c, 1, 41, 0
3, 12112, Note_on_c, 1, 29, 0
3, 12112, Note_on_c, 1, 53, 40
3, 12112, Note_on_c, 1, 56, 42
3, 12112, Note_on_c, 1, 60, 44
3, 12128, Note_on_c, 1, 60, 0
3, 12128, Note_on_c, 1, 56, 0
3, 12128, Note_on_c, 1, 53, 0
3, 12128, Note_on_c, 1, 56, 42
3, 12128, Note_on_c, 1, 60, 44
3, 12128, Note_on_c, 1, 63, 46
3, 12144, Note_on_c, 1, 63, 0
3, 12144, Note_on_c, 1, 60, 0
3, 12144, Note_on_c, 1, 56, 0
3, 12144, Note_on_c, 1, 53, 40
3, 12144, Note_on_c, 1, 56, 42
3, 12144, Note_on_c, 1, 60, 44
3, 12160, Note_on_c, 1, 60, 0
3, 12160, Note_on_c, 1, 56, 0
3, 12160, Note_on_c, 1, 53, 0
3, 12160, Note_on_c, 1, 56, 42
3, 12160, Note_on_c, 1, 60, 44
3, 12160, Note_on_c, 1, 63, 46
3, 12176, Note_on_c, 1, 63, 0
3, 12176, Note_on_c, 1, 60, 0
3, 12176, Note_on_c, 1, 56, 0
3, 12176, Note_on_c, 1, 29, 52
3, 12176, Note_on_c, 1, 41, 50
3, 12190, Note_on_c, 1, 41, 0
3, 12190, Note_on_c, 1, 29, 0
3, 12192, Note_on_c, 1, 32, 54
3, 12192, Note_on_c, 1, 44, 52
3, 12194, Control_c, 1, 64, 0
3, 12200, Control_c, 1, 64, 127
3, 12208, Note_on_c, 1, 44, 0
3, 12208, Note_on_c, 1, 32, 0
3, 12208, Note_on_c, 1, 53, 40
3, 12208, Note_on_c, 1, 56, 42
3, 12208, Note_on_c, 1, 60, 44
3, 12224, Note_on_c, 1, 60, 0
3, 12224, Note_on_c, 1, 56, 0
3, 12224, Note_on_c, 1, 53, 0
3, 12224, Note_on_c, 1, 56, 42
3, 12224, Note_on_c, 1, 60, 44
3, 12224, Note_on_c, 1, 63, 46
3, 12240, Note_on_c, 1, 63, 0
3, 12240, Note_on_c, 1, 60, 0
3, 12240, Note_on_c, 1, 56, 0
3, 12240, Note_on_c, 1, 53, 40
3, 12240, Note_on_c, 1, 56, 42
3, 12240, Note_on_c, 1, 60, 44
3, 12256, Note_on_c, 1, 60, 0
3, 12256, Note_on_c, 1, 56, 0
3, 12256, Note_on_c, 1, 53, 0
3, 12256, Note_on_c, 1, 56, 42
3, 12256, Note_on_c, 1, 60, 44
3, 12256, Note_on_c, 1, 63, 46
3, 12272, Note_on_c, 1, 63, 0
3, 12272, Note_on_c, 1, 60, 0
3, 12272, Note_on_c, 1, 56, 0
3, 12272, Note_on_c, 1, 32, 52
3, 12272, Note_on_c, 1, 44, 50
3, 12286, Note_on_c, 1, 44, 0
3, 12286, Note_on_c, 1, 32, 0
3, 12288, Note_on_c, 1, 34, 54
3, 12288, Note_on_c, 1, 46, 52
3, 12288, Control_c, 1, 64, 127
3, 12290, Control_c, 1, 64, 0
3, 12296, Control_c, 1, 64, 127
3, 12304, Note_on_c, 1, 46, 0
3, 12304, Note_on_c, 1, 34, 0
3, 12304, Note_on_c, 1, 46, 40
3, 12304, Note_on_c, 1, 56, 44
3, 12320, Note_on_c, 1, 56, 0
3, 12320, Note_on_c, 1, 46, 0
3, 12320, Note_on_c, 1, 53, 42
3, 12320, Note_on_c, 1, 62, 46
3, 12336, Note_on_c, 1, 62, 0
3, 12336, Note_on_c, 1, 53, 0
3, 12336, Note_on_c, 1, 46, 40
3, 12336, Note_on_c, 1, 56, 44
3, 12352, Note_on_c, 1, 56, 0
3, 12352, Note_on_c, 1, 46, 0
3, 12352, Note_on_c, 1, 53, 42
3, 12352, Note_on_c, 1, 62, 46
3, 12368, Note_on_c, 1, 62, 0
3, 12368, Note_on_c, 1, 53, 0
3, 12368, Note_on_c, 1, 34, 52
3, 12368, Note_on_c, 1, 46, 50
3, 12382, Note_on_c, 1, 46, 0
3, 12382, Note_on_c, 1, 34, 0
3, 12384, Note_on_c, 1, 35, 54
3, 12384, Note_on_c, 1, 47, 52
3, 12386, Control_c, 1, 64, 0
3, 12392, Control_c, 1, 64, 127
3, 12400, Note_on_c, 1, 47, 0
3, 12400, Note_on_c, 1, 35, 0
3, 12400, Note_on_c, 1, 47, 40
3, 12400, Note_on_c, 1, 55, 44
3, 12416, Note_on_c, 1, 55, 0
3, 12416, Note_on_c, 1, 47, 0
3, 12416, Note_on_c, 1, 50, 42
3, 12416, Note_on_c, 1, 62, 46
3, 12432, Note_on_c, 1, 62, 0
3, 12432, Note_on_c, 1, 50, 0
3, 12432, Note_on_c, 1, 47, 40
3, 12432, Note_on_c, 1, 55, 44
3, 12448, Note_on_c, 1, 55, 0
3, 12448, Note_on_c, 1, 47, 0
3, 12448, Note_on_c, 1, 50, 42
3, 12448, Note_on_c, 1, 62, 46
3, 12464, Note_on_c, 1, 62, 0
3, 12464, Note_on_c, 1, 50, 0
3, 12464, Note_on_c, 1, 35, 52
3, 12464, Note_on_c, 1, 47, 50
3, 12474, Control_c, 1, 64, 0
3, 12478, Note_on_c, 1, 47, 0
3, 12478, Note_on_c, 1, 35, 0
3, 12480, Note_on_c, 1, 36, 54
3, 12480, Note_on_c, 1, 48, 52
3, 12480, Control_c, 1, 64, 127
3, 12496, Note_on_c, 1, 48, 0
3, 12496, Note_on_c, 1, 36, 0
3, 12496, Note_on_c, 1, 55, 40
3, 12496, Note_on_c, 1, 58, 42
3, 12496, Note_on_c, 1, 60, 44
3, 12512, Note_on_c, 1, 60, 0
3, 12512, Note_on_c, 1, 58, 0
3, 12512, Note_on_c, 1, 55, 0
3, 12512, Note_on_c, 1, 58, 42
3, 12512, Note_on_c, 1, 60, 44
3, 12512, Note_on_c, 1, 64, 46
3, 12528, Note_on_c, 1, 64, 0
3, 12528, Note_on_c, 1, 60, 0
3, 12528, Note_on_c, 1, 58, 0
3, 12528, Note_on_c, 1, 55, 40
3, 12528, Note_on_c, 1, 58, 42
3, 12528, Note_on_c, 1, 60, 44
3, 12544, Note_on_c, 1, 60, 0
3, 12544, Note_on_c, 1, 58, 0
3, 12544, Note_on_c, 1, 55, 0
3, 12544, Note_on_c, 1, 58, 42
3, 12544, Note_on_c, 1, 60, 44
3, 12544, Note_on_c, 1, 64, 46
3, 12560, Note_on_c, 1, 64, 0
3, 12560, Note_on_c, 1, 60, 0
3, 12560, Note_on_c, 1, 58, 0
3, 12560, Note_on_c, 1, 36, 52
3, 12560, Note_on_c, 1, 48, 50
3, 12574, Note_on_c, 1, 48, 0
3, 12574, Note_on_c, 1, 36, 0
3, 12576, Note_on_c, 1, 41, 56
3, 12576, Note_on_c, 1, 53, 54
3, 12578, Control_c, 1, 64, 0
3, 12584, Control_c, 1, 64, 127
3, 12592, Note_on_c, 1, 53, 0
3, 12592, Note_on_c, 1, 41, 0
3, 12592, Note_on_c, 1, 53, 44
3, 12592, Note_on_c, 1, 56, 46
3, 12592, Note_on_c, 1, 60, 48
3, 12608, Note_on_c, 1, 60, 0
3, 12608, Note_on_c, 1, 56, 0
3, 12608, Note_on_c, 1, 53, 0
3, 12608, Note_on_c, 1, 56, 46
3, 12608, Note_on_c, 1, 60, 48
3, 12608, Note_on_c, 1, 64, 50
3, 12624, Note_on_c, 1, 64, 0
3, 12624, Note_on_c, 1, 60, 0
3, 12624, Note_on_c, 1, 56, 0
3, 12624, Note_on_c, 1, 53, 44
3, 12624, Note_on_c, 1, 56, 46
3, 12624, Note_on_c, 1, 60, 48
3, 12640, Note_on_c, 1, 60, 0
3, 12640, Note_on_c, 1, 56, 0
3, 12640, Note_on_c, 1, 53, 0
3, 12640, Note_on_c, 1, 56, 46
3, 12640, Note_on_c, 1, 60, 48
3, 12640, Note_on_c, 1, 65, 50
3, 12656, Note_on_c, 1, 65, 0
3, 12656, Note_on_c, 1, 60, 0
3, 12656, Note_on_c, 1, 56, 0
3, 12656, Note_on_c, 1, 41, 58
3, 12656, Note_on_c, 1, 53, 56
3, 12670, Note_on_c, 1, 53, 0
3, 12670, Note_on_c, 1, 41, 0
3, 12672, Note_on_c, 1, 34, 54
3, 12672, Note_on_c, 1, 46, 52
3, 12672, Control_c, 1, 64, 127
3, 12674, Control_c, 1, 64, 0
3, 12680, Control_c, 1, 64, 127
3, 12688, Note_on_c, 1, 46, 0
3, 12688, Note_on_c, 1, 34, 0
3, 12688, Note_on_c, 1, 53, 40
3, 12688, Note_on_c, 1, 56, 42
3, 12688, Note_on_c, 1, 60, 44
3, 12704, Note_on_c, 1, 60, 0
3, 12704, Note_on_c, 1, 56, 0
3, 12704, Note_on_c, 1, 53, 0
3, 12704, Note_on_c, 1, 56, 42
3, 12704, Note_on_c, 1, 60, 44
3, 12704, Note_on_c, 1, 63, 46
3, 12720, Note_on_c, 1, 63, 0
3, 12720, Note_on_c, 1, 60, 0
3, 12720, Note_on_c, 1, 56, 0
3, 12720, Note_on_c, 1, 53, 40
3, 12720, Note_on_c, 1, 56, 42
3, 12720, Note_on_c, 1, 60, 44
3, 12736, Note_on_c, 1, 60, 0
3, 12736, Note_on_c, 1, 56, 0
3, 12736, Note_on_c, 1, 53, 0
3, 12736, Note_on_c, 1, 56, 42
3, 12736, Note_on_c, 1, 58, 44
3, 12736, Note_on_c, 1, 62, 46
3, 12752, Note_on_c, 1, 62, 0
3, 12752, Note_on_c, 1, 58, 0
3, 12752, Note_on_c, 1, 56, 0
3, 12752, Note_on_c, 1, 34, 52
3, 12752, Note_on_c, 1, 46, 50
3, 12766, Note_on_c, 1, 46, 0
3, 12766, Note_on_c, 1, 34, 0
3, 12768, Note_on_c, 1, 39, 52
3, 12768, Note_on_c, 1, 51, 50
3, 12770, Control_c, 1, 64, 0
3, 12776, Control_c, 1, 64, 127
3, 12784, Note_on_c, 1, 51, 0
3, 12784, Note_on_c, 1, 39, 0
3, 12784, Note_on_c, 1, 51, 41
3, 12784, Note_on_c, 1, 55, 43
3, 12784, Note_on_c, 1, 58, 45
3, 12800, Note_on_c, 1, 58, 0
3, 12800, Note_on_c, 1, 55, 0
3, 12800, Note_on_c, 1, 51, 0
3, 12800, Note_on_c, 1, 55, 44
3, 12800, Note_on_c, 1, 58, 46
3, 12800, Note_on_c, 1, 62, 48
3, 12816, Note_on_c, 1, 62, 0
3, 12816, Note_on_c, 1, 58, 0
3, 12816, Note_on_c, 1, 55, 0
3, 12816, Note_on_c, 1, 51, 43
3, 12816, Note_on_c, 1, 55, 45
3, 12816, Note_on_c, 1, 58, 47
3, 12832, Note_on_c, 1, 58, 0
3, 12832, Note_on_c, 1, 55, 0
3, 12832, Note_on_c, 1, 51, 0
3, 12832, Note_on_c, 1, 55, 46
3, 12832, Note_on_c, 1, 58, 48
3, 12832, Note_on_c, 1, 62, 50
3, 12848, Note_on_c, 1, 62, 0
3, 12848, Note_on_c, 1, 58, 0
3, 12848, Note_on_c, 1, 55, 0
3, 12848, Note_on_c, 1, 39, 57
3, 12848, Note_on_c, 1, 51, 55
3, 12862, Note_on_c, 1, 51, 0
3, 12862, Note_on_c, 1, 39, 0
3, 12864, Note_on_c, 1, 32, 56
3, 12864, Note_on_c, 1, 44, 54
3, 12864, Control_c, 1, 64, 127
3, 12866, Control_c, 1, 64, 0
3, 12872, Control_c, 1, 64, 127
3, 12880, Note_on_c, 1, 44, 0
3, 12880, Note_on_c, 1, 32, 0
3, 12880, Note_on_c, 1, 48, 42
3, 12880, Note_on_c, 1, 51, 44
3, 12880, Note_on_c, 1, 56, 46
3, 12896, Note_on_c, 1, 56, 0
3, 12896, Note_on_c, 1, 51, 0
3, 12896, Note_on_c, 1, 48, 0
3, 12896, Note_on_c, 1, 51, 44
3, 12896, Note_on_c, 1, 56, 46
3, 12896, Note_on_c, 1, 60, 48
3, 12912, Note_on_c, 1, 60, 0
3, 12912, Note_on_c, 1, 56, 0
3, 12912, Note_on_c, 1, 51, 0
3, 12912, Note_on_c, 1, 48, 42
3, 12912, Note_on_c, 1, 51, 44
3, 12912, Note_on_c, 1, 56, 46
3, 12928, Note_on_c, 1, 56, 0
3, 12928, Note_on_c, 1, 51, 0
3, 12928, Note_on_c, 1, 48, 0
3, 12928, Note_on_c, 1, 51, 44
3, 12928, Note_on_c, 1, 56, 46
3, 12928, Note_on_c, 1, 60, 48
3, 12944, Note_on_c, 1, 60, 0
3, 12944, Note_on_c, 1, 56, 0
3, 12944, Note_on_c, 1, 51, 0
3, 12944, Note_on_c, 1, 32, 54
3, 12944, Note_on_c, 1, 44, 52
3, 12958, Note_on_c, 1, 44, 0
3, 12958, Note_on_c, 1, 32, 0
3, 12960, Note_on_c, 1, 38, 58
3, 12960, Note_on_c, 1, 50, 56
3, 12962, Control_c, 1, 64, 0
3, 12968, Control_c, 1, 64, 127
3, 12976, Note_on_c, 1, 50, 0
3, 12976, Note_on_c, 1, 38, 0
3, 12976, Note_on_c, 1, 50, 45
3, 12976, Note_on_c, 1, 53, 47
3, 12976, Note_on_c, 1, 56, 49
3, 12992, Note_on_c, 1, 56, 0
3, 12992, Note_on_c, 1, 53, 0
3, 12992, Note_on_c, 1, 50, 0
3, 12992, Note_on_c, 1, 53, 48
3, 12992, Note_on_c, 1, 56, 50
3, 12992, Note_on_c, 1, 60, 52
3, 13008, Note_on_c, 1, 60, 0
3, 13008, Note_on_c, 1, 56, 0
3, 13008, Note_on_c, 1, 53, 0
3, 13008, Note_on_c, 1, 50, 47
3, 13008, Note_on_c, 1, 53, 49
3, 13008, Note_on_c, 1, 56, 51
3, 13024, Note_on_c, 1, 56, 0
3, 13024, Note_on_c, 1, 53, 0
3, 13024, Note_on_c, 1, 50, 0
3, 13024, Note_on_c, 1, 53, 50
3, 13024, Note_on_c, 1, 56, 52
3, 13024, Note_on_c, 1, 60, 54
3, 13040, Note_on_c, 1, 60, 0
3, 13040, Note_on_c, 1, 56, 0
3, 13040, Note_on_c, 1, 53, 0
3, 13040, Note_on_c, 1, 38, 62
3, 13040, Note_on_c, 1, 50, 60
3, 13054, Note_on_c, 1, 50, 0
3, 13054, Note_on_c, 1, 38, 0
3, 13056, Note_on_c, 1, 31, 63
3, 13056, Note_on_c, 1, 43, 61
3, 13056, Control_c, 1, 64, 127
3, 13058, Control_c, 1, 64, 0
3, 13064, Control_c, 1, 64, 127
3, 13072, Note_on_c, 1, 43, 0
3, 13072, Note_on_c, 1, 31, 0
3, 13072, Note_on_c, 1, 50, 42
3, 13072, Note_on_c, 1, 53, 48
3, 13072, Note_on_c, 1, 56, 50
3, 13088, Note_on_c, 1, 56, 0
3, 13088, Note_on_c, 1, 53, 0
3, 13088, Note_on_c, 1, 50, 0
3, 13088, Note_on_c, 1, 53, 50
3, 13088, Note_on_c, 1, 56, 52
3, 13088, Note_on_c, 1, 60, 54
3, 13104, Note_on_c, 1, 60, 0
3, 13104, Note_on_c, 1, 56, 0
3, 13104, Note_on_c, 1, 53, 0
3, 13104, Note_on_c, 1, 50, 46
3, 13104, Note_on_c, 1, 55, 50
3, 13120, Note_on_c, 1, 55, 0
3, 13120, Note_on_c, 1, 50, 0
3, 13120, Note_on_c, 1, 55, 46
3, 13120, Note_on_c, 1, 59, 50
3, 13136, Note_on_c, 1, 59, 0
3, 13136, Note_on_c, 1, 55, 0
3, 13136, Note_on_c, 1, 31, 61
3, 13136, Note_on_c, 1, 43, 59
3, 13150, Note_on_c, 1, 43, 0
3, 13150, Note_on_c, 1, 31, 0
3, 13152, Note_on_c, 1, 32, 65
3, 13152, Note_on_c, 1, 44, 63
3, 13154, Control_c, 1, 64, 0
3, 13160, Control_c, 1, 64, 127
3, 13168, Note_on_c, 1, 44, 0
3, 13168, Note_on_c, 1, 32, 0
3, 13168, Note_on_c, 1, 48, 50
3, 13168, Note_on_c, 1, 56, 54
3, 13184, Note_on_c, 1, 56, 0
3, 13184, Note_on_c, 1, 48, 0
3, 13184, Note_on_c, 1, 51, 56
3, 13184, Note_on_c, 1, 56, 58
3, 13184, Note_on_c, 1, 60, 60
3, 13200, Note_on_c, 1, 60, 0
3, 13200, Note_on_c, 1, 56, 0
3, 13200, Note_on_c, 1, 51, 0
3, 13200, Note_on_c, 1, 48, 58
3, 13200, Note_on_c, 1, 56, 62
3, 13216, Note_on_c, 1, 56, 0
3, 13216, Note_on_c, 1, 48, 0
3, 13216, Note_on_c, 1, 51, 64
3, 13216, Note_on_c, 1, 56, 66
3, 13216, Note_on_c, 1, 60, 68
3, 13232, Note_on_c, 1, 60, 0
3, 13232, Note_on_c, 1, 56, 0
3, 13232, Note_on_c, 1, 51, 0
3, 13232, Note_on_c, 1, 44, 60
3, 13232, Note_on_c, 1, 56, 64
3, 13246, Note_on_c, 1, 56, 0
3, 13246, Note_on_c, 1, 44, 0
3, 13246, Control_c, 1, 64, 0
3, 13248, Note_on_c, 1, 27, 74
3, 13248, Note_on_c, 1, 39, 72
3, 13248, Control_c, 1, 64, 127
3, 13264, Note_on_c, 1, 39, 0
3, 13264, Note_on_c, 1, 27, 0
3, 13264, Note_on_c, 1, 51, 64
3, 13280, Note_on_c, 1, 51, 0
3, 13280, Note_on_c, 1, 55, 62
3, 13280, Note_on_c, 1, 63, 66
3, 13296, Note_on_c, 1, 63, 0
3, 13296, Note_on_c, 1, 55, 0
3, 13296, Note_on_c, 1, 51, 60
3, 13296, Note_on_c, 1, 55, 62
3, 13296, Note_on_c, 1, 60, 64
3, 13312, Note_on_c, 1, 60, 0
3, 13312, Note_on_c, 1, 55, 0
3, 13312, Note_on_c, 1, 51, 0
3, 13312, Note_on_c, 1, 55, 62
3, 13312, Note_on_c, 1, 60, 64
3, 13312, Note_on_c, 1, 67, 66
3, 13328, Note_on_c, 1, 67, 0
3, 13328, Note_on_c, 1, 60, 0
3, 13328, Note_on_c, 1, 55, 0
3, 13328, Note_on_c, 1, 27, 72
3, 13328, Note_on_c, 1, 39, 70
3, 13342, Note_on_c, 1, 39, 0
3, 13342, Note_on_c, 1, 27, 0
3, 13344, Note_on_c, 1, 29, 64
3, 13344, Note_on_c, 1, 41, 62
3, 13346, Control_c, 1, 64, 0
3, 13352, Control_c, 1, 64, 127
3, 13360, Note_on_c, 1, 41, 0
3, 13360, Note_on_c, 1, 29, 0
3, 13360, Note_on_c, 1, 53, 44
3, 13360, Note_on_c, 1, 60, 46
3, 13360, Note_on_c, 1, 62, 48
3, 13376, Note_on_c, 1, 62, 0
3, 13376, Note_on_c, 1, 60, 0
3, 13376, Note_on_c, 1, 53, 0
3, 13376, Note_on_c, 1, 60, 47
3, 13376, Note_on_c, 1, 62, 49
3, 13376, Note_on_c, 1, 65, 51
3, 13392, Note_on_c, 1, 65, 0
3, 13392, Note_on_c, 1, 62, 0
3, 13392, Note_on_c, 1, 60, 0
3, 13392, Note_on_c, 1, 53, 44
3, 13392, Note_on_c, 1, 60, 46
3, 13392, Note_on_c, 1, 62, 48
3, 13408, Note_on_c, 1, 62, 0
3, 13408, Note_on_c, 1, 60, 0
3, 13408, Note_on_c, 1, 53, 0
3, 13408, Note_on_c, 1, 60, 45
3, 13408, Note_on_c, 1, 62, 47
3, 13408, Note_on_c, 1, 68, 49
3, 13424, Note_on_c, 1, 68, 0
3, 13424, Note_on_c, 1, 62, 0
3, 13424, Note_on_c, 1, 60, 0
3, 13424, Note_on_c, 1, 29, 72
3, 13424, Note_on_c, 1, 41, 70
3, 13438, Note_on_c, 1, 41, 0
3, 13438, Note_on_c, 1, 29, 0
3, 13440, Note_on_c, 1, 31, 74
3, 13440, Note_on_c, 1, 43, 72
3, 13440, Control_c, 1, 64, 127
3, 13442, Control_c, 1, 64, 0
3, 13448, Control_c, 1, 64, 127
3, 13456, Note_on_c, 1, 43, 0
3, 13456, Note_on_c, 1, 31, 0
3, 13456, Note_on_c, 1, 55, 60
3, 13456, Note_on_c, 1, 60, 64
3, 13472, Note_on_c, 1, 60, 0
3, 13472, Note_on_c, 1, 55, 0
3, 13472, Note_on_c, 1, 60, 62
3, 13472, Note_on_c, 1, 67, 66
3, 13488, Note_on_c, 1, 67, 0
3, 13488, Note_on_c, 1, 60, 0
3, 13488, Note_on_c, 1, 55, 60
3, 13488, Note_on_c, 1, 60, 64
3, 13504, Note_on_c, 1, 60, 0
3, 13504, Note_on_c, 1, 55, 0
3, 13504, Note_on_c, 1, 60, 62
3, 13504, Note_on_c, 1, 67, 66
3, 13520, Note_on_c, 1, 67, 0
3, 13520, Note_on_c, 1, 60, 0
3, 13520, Note_on_c, 1, 31, 72
3, 13520, Note_on_c, 1, 43, 70
3, 13534, Note_on_c, 1, 43, 0
3, 13534, Note_on_c, 1, 31, 0
3, 13536, Note_on_c, 1, 32, 74
3, 13536, Note_on_c, 1, 44, 72
3, 13538, Control_c, 1, 64, 0
3, 13544, Control_c, 1, 64, 127
3, 13552, Note_on_c, 1, 44, 0
3, 13552, Note_on_c, 1, 32, 0
3, 13552, Note_on_c, 1, 53, 60
3, 13552, Note_on_c, 1, 60, 64
3, 13568, Note_on_c, 1, 60, 0
3, 13568, Note_on_c, 1, 53, 0
3, 13568, Note_on_c, 1, 60, 62
3, 13568, Note_on_c, 1, 65, 66
3, 13584, Note_on_c, 1, 65, 0
3, 13584, Note_on_c, 1, 60, 0
3, 13584, Note_on_c, 1, 53, 60
3, 13584, Note_on_c, 1, 60, 64
3, 13600, Note_on_c, 1, 60, 0
3, 13600, Note_on_c, 1, 53, 0
3, 13600, Note_on_c, 1, 60, 62
3, 13600, Note_on_c, 1, 62, 64
3, 13600, Note_on_c, 1, 68, 66
3, 13616, Note_on_c, 1, 68, 0
3, 13616, Note_on_c, 1, 62, 0
3, 13616, Note_on_c, 1, 60, 0
3, 13616, Note_on_c, 1, 32, 76
3, 13616, Note_on_c, 1, 44, 74
3, 13630, Note_on_c, 1, 44, 0
3, 13630, Note_on_c, 1, 32, 0
3, 13632, Note_on_c, 1, 31, 72
3, 13632, Note_on_c, 1, 43, 70
3, 13632, Control_c, 1, 64, 127
3, 13634, Control_c, 1, 64, 0
3, 13640, Control_c, 1, 64, 127
3, 13648, Note_on_c, 1, 43, 0
3, 13648, Note_on_c, 1, 31, 0
3, 13648, Note_on_c, 1, 48, 58
3, 13648, Note_on_c, 1, 55, 62
3, 13664, Note_on_c, 1, 55, 0
3, 13664, Note_on_c, 1, 48, 0
3, 13664, Note_on_c, 1, 55, 60
3, 13664, Note_on_c, 1, 60, 64
3, 13680, Note_on_c, 1, 60, 0
3, 13680, Note_on_c, 1, 55, 0
3, 13680, Note_on_c, 1, 48, 58
3, 13680, Note_on_c, 1, 55, 62
3, 13696, Note_on_c, 1, 55, 0
3, 13696, Note_on_c, 1, 48, 0
3, 13696, Note_on_c, 1, 55, 60
3, 13696, Note_on_c, 1, 60, 64
3, 13712, Note_on_c, 1, 60, 0
3, 13712, Note_on_c, 1, 55, 0
3, 13712, Note_on_c, 1, 48, 58
3, 13712, Note_on_c, 1, 55, 62
3, 13726, Note_on_c, 1, 55, 0
3, 13726, Note_on_c, 1, 48, 0
3, 13728, Note_on_c, 1, 31, 72
3, 13728, Note_on_c, 1, 43, 70
3, 13730, Control_c, 1, 64, 0
3, 13736, Control_c, 1, 64, 127
3, 13744, Note_on_c, 1, 43, 0
3, 13744, Note_on_c, 1, 31, 0
3, 13744, Note_on_c, 1, 43, 58
3, 13744, Note_on_c, 1, 50, 62
3, 13760, Note_on_c, 1, 50, 0
3, 13760, Note_on_c, 1, 43, 0
3, 13760, Note_on_c, 1, 50, 60
3, 13760, Note_on_c, 1, 55, 64
3, 13776, Note_on_c, 1, 55, 0
3, 13776, Note_on_c, 1, 50, 0
3, 13776, Note_on_c, 1, 43, 58
3, 13776, Note_on_c, 1, 50, 62
3, 13792, Note_on_c, 1, 50, 0
3, 13792, Note_on_c, 1, 43, 0
3, 13792, Note_on_c, 1, 50, 60
3, 13792, Note_on_c, 1, 55, 64
3, 13808, Note_on_c, 1, 55, 0
3, 13808, Note_on_c, 1, 50, 0
3, 13808, Note_on_c, 1, 43, 58
3, 13808, Note_on_c, 1, 50, 62
3, 13822, Note_on_c, 1, 50, 0
3, 13822, Note_on_c, 1, 43, 0
3, 13824, Note_on_c, 1, 30, 68
3, 13824, Note_on_c, 1, 42, 66
3, 13824, Control_c, 1, 64, 127
3, 13826, Control_c, 1, 64, 0
3, 13832, Control_c, 1, 64, 127
3, 13840, Note_on_c, 1, 42, 0
3, 13840, Note_on_c, 1, 30, 0
3, 13840, Note_on_c, 1, 42, 58
3, 13840, Note_on_c, 1, 51, 62
3, 13856, Note_on_c, 1, 51, 0
3, 13856, Note_on_c, 1, 42, 0
3, 13856, Note_on_c, 1, 48, 60
3, 13856, Note_on_c, 1, 56, 64
3, 13872, Note_on_c, 1, 56, 0
3, 13872, Note_on_c, 1, 48, 0
3, 13872, Note_on_c, 1, 42, 58
3, 13872, Note_on_c, 1, 51, 62
3, 13888, Note_on_c, 1, 51, 0
3, 13888, Note_on_c, 1, 42, 0
3, 13888, Note_on_c, 1, 48, 60
3, 13888, Note_on_c, 1, 56, 64
3, 13904, Note_on_c, 1, 56, 0
3, 13904, Note_on_c, 1, 48, 0
3, 13904, Note_on_c, 1, 42, 58
3, 13904, Note_on_c, 1, 51, 62
3, 13918, Note_on_c, 1, 51, 0
3, 13918, Note_on_c, 1, 42, 0
3, 13920, Note_on_c, 1, 29, 68
3, 13920, Note_on_c, 1, 41, 66
3, 13922, Control_c, 1, 64, 0
3, 13928, Control_c, 1, 64, 127
3, 13936, Note_on_c, 1, 41, 0
3, 13936, Note_on_c, 1, 29, 0
3, 13936, Note_on_c, 1, 41, 58
3, 13936, Note_on_c, 1, 49, 62
3, 13952, Note_on_c, 1, 49, 0
3, 13952, Note_on_c, 1, 41, 0
3, 13952, Note_on_c, 1, 49, 60
3, 13952, Note_on_c, 1, 56, 64
3, 13968, Note_on_c, 1, 56, 0
3, 13968, Note_on_c, 1, 49, 0
3, 13968, Note_on_c, 1, 41, 58
3, 13968, Note_on_c, 1, 49, 62
3, 13984, Note_on_c, 1, 49, 0
3, 13984, Note_on_c, 1, 41, 0
3, 13984, Note_on_c, 1, 49, 60
3, 13984, Note_on_c, 1, 56, 64
3, 14000, Note_on_c, 1, 56, 0
3, 14000, Note_on_c, 1, 49, 0
3, 14000, Note_on_c, 1, 41, 58
3, 14000, Note_on_c, 1, 49, 62
3, 14014, Note_on_c, 1, 49, 0
3, 14014, Note_on_c, 1, 41, 0
3, 14016, Note_on_c, 1, 31, 62
3, 14016, Note_on_c, 1, 43, 60
3, 14016, Control_c, 1, 64, 127
3, 14018, Control_c, 1, 64, 0
3, 14024, Control_c, 1, 64, 127
3, 14032, Note_on_c, 1, 43, 0
3, 14032, Note_on_c, 1, 31, 0
3, 14032, Note_on_c, 1, 43, 54
3, 14032, Note_on_c, 1, 50, 58
3, 14048, Note_on_c, 1, 50, 0
3, 14048, Note_on_c, 1, 43, 0
3, 14048, Note_on_c, 1, 50, 56
3, 14048, Note_on_c, 1, 53, 60
3, 14064, Note_on_c, 1, 53, 0
3, 14064, Note_on_c, 1, 50, 0
3, 14064, Note_on_c, 1, 53, 60
3, 14064, Note_on_c, 1, 56, 62
3, 14080, Note_on_c, 1, 56, 0
3, 14080, Note_on_c, 1, 53, 0
3, 14080, Note_on_c, 1, 53, 58
3, 14080, Note_on_c, 1, 56, 60
3, 14096, Note_on_c, 1, 56, 0
3, 14096, Note_on_c, 1, 53, 0
3, 14096, Note_on_c, 1, 53, 56
3, 14096, Note_on_c, 1, 56, 58
3, 14110, Note_on_c, 1, 56, 0
3, 14110, Note_on_c, 1, 53, 0
3, 14112, Note_on_c, 1, 31, 62
3, 14112, Note_on_c, 1, 43, 60
3, 14114, Control_c, 1, 64, 0
3, 14120, Control_c, 1, 64, 127
3, 14128, Note_on_c, 1, 43, 0
3, 14128, Note_on_c, 1, 31, 0
3, 14128, Note_on_c, 1, 43, 54
3, 14128, Note_on_c, 1, 50, 58
3, 14144, Note_on_c, 1, 50, 0
3, 14144, Note_on_c, 1, 43, 0
3, 14144, Note_on_c, 1, 50, 54
3, 14144, Note_on_c, 1, 53, 58
3, 14160, Note_on_c, 1, 53, 0
3, 14160, Note_on_c, 1, 50, 0
3, 14160, Note_on_c, 1, 53, 57
3, 14160, Note_on_c, 1, 59, 59
3, 14176, Note_on_c, 1, 59, 0
3, 14176, Note_on_c, 1, 53, 0
3, 14176, Note_on_c, 1, 53, 54
3, 14176, Note_on_c, 1, 59, 56
3, 14192, Note_on_c, 1, 59, 0
3, 14192, Note_on_c, 1, 53, 0
3, 14192, Note_on_c, 1, 53, 51
3, 14192, Note_on_c, 1, 59, 53
3, 14206, Note_on_c, 1, 59, 0
3, 14206, Note_on_c, 1, 53, 0
3, 14208, Note_on_c, 1, 24, 62
3, 14208, Control_c, 1, 64, 127
3, 14210, Control_c, 1, 64, 0
3, 14216, Control_c, 1, 64, 127
3, 14224, Note_on_c, 1, 24, 0
3, 14224, Note_on_c, 1, 43, 39
3, 14240, Note_on_c, 1, 43, 0
3, 14240, Note_on_c, 1, 43, 44
3, 14240, Note_on_c, 1, 51, 48
3, 14256, Note_on_c, 1, 51, 0
3, 14256, Note_on_c, 1, 43, 0
3, 14256, Note_on_c, 1, 51, 47
3, 14256, Note_on_c, 1, 55, 49
3, 14272, Note_on_c, 1, 55, 0
3, 14272, Note_on_c, 1, 51, 0
3, 14272, Note_on_c, 1, 51, 46
3, 14272, Note_on_c, 1, 55, 48
3, 14288, Note_on_c, 1, 55, 0
3, 14288, Note_on_c, 1, 51, 0
3, 14288, Note_on_c, 1, 31, 51
3, 14302, Note_on_c, 1, 31, 0
3, 14304, Note_on_c, 1, 36, 48
3, 14320, Note_on_c, 1, 36, 0
3, 14320, Note_on_c, 1, 43, 45
3, 14336, Note_on_c, 1, 43, 0
3, 14336, Note_on_c, 1, 43, 42
3, 14336, Note_on_c, 1, 51, 46
3, 14352, Note_on_c, 1, 51, 0
3, 14352, Note_on_c, 1, 43, 0
3, 14352, Note_on_c, 1, 51, 37
3, 14352, Note_on_c, 1, 55, 41
3, 14368, Note_on_c, 1, 55, 0
3, 14368, Note_on_c, 1, 51, 0
3, 14368, Note_on_c, 1, 51, 34
3, 14368, Note_on_c, 1, 55, 48
3, 14384, Note_on_c, 1, 55, 0
3, 14384, Note_on_c, 1, 51, 0
3, 14384, Note_on_c, 1, 31, 45
3, 14398, Note_on_c, 1, 31, 0
3, 14400, Note_on_c, 1, 24, 50
3, 14400, Control_c, 1, 64, 127
3, 14402, Control_c, 1, 64, 0
3, 14408, Control_c, 1, 64, 127
3, 14446, Note_on_c, 1, 24, 0
3, 14448, Control_c, 1, 64, 0
3, 14592, Control_c, 1, 64, 127
3, 14684, Control_c, 1, 64, 0
3, 14688, Note_on_c, 1, 36, 36
3, 14688, Note_on_c, 1, 48, 36
3, 14696, Control_c, 1, 64, 127
3, 14724, Note_on_c, 1, 48, 0
3, 14724, Note_on_c, 1, 36, 0
3, 14736, Note_on_c, 1, 36, 36
3, 14736, Note_on_c, 1, 48, 36
3, 14772, Note_on_c, 1, 48, 0
3, 14772, Note_on_c, 1, 36, 0
3, 14784, Note_on_c, 1, 36, 32
3, 14784, Note_on_c, 1, 43, 30
3, 14784, Note_on_c, 1, 48, 32
3, 14784, Control_c, 1, 64, 127
3, 14928, Note_on_c, 1, 48, 0
3, 14928, Note_on_c, 1, 43, 0
3, 14928, Note_on_c, 1, 36, 0
3, 14928, Control_c, 1, 64, 0
3, 14928, End_track
0, 0, End_of_file
