0, 0, Header, 1, 3, 48
1, 0, Start_track
1, 0, Time_signature, 12, 3, 12, 8
1, 0, Key_signature, -3, "major"
1, 0, Tempo, 500000
1, 0, Marker_t, "Chopin  Nocturne in Eb Op.55.No.2."
1, 288, Tempo, 952381
1, 432, Tempo, 1621622
1, 441, Tempo, 923077
1, 450, Tempo, 821918
1, 458, Tempo, 731707
1, 466, Tempo, 645161
1, 473, Tempo, 618557
1, 480, Tempo, 697674
1, 486, Tempo, 681818
1, 492, Tempo, 666667
1, 498, Tempo, 645161
1, 504, Tempo, 714286
1, 529, Tempo, 731707
1, 534, Tempo, 750000
1, 539, Tempo, 769231
1, 544, Tempo, 821918
1, 549, Tempo, 895522
1, 554, Tempo, 1000000
1, 559, Tempo, 1818182
1, 564, Tempo, 1333333
1, 570, Tempo, 2727273
1, 576, Tempo, 800000
1, 600, Tempo, 645161
1, 624, Tempo, 618557
1, 672, Tempo, 666667
1, 696, Tempo, 731707
1, 744, Tempo, 618557
1, 768, Tempo, 606061
1, 792, Tempo, 594059
1, 816, Tempo, 631579
1, 840, Tempo, 731707
1, 888, Tempo, 594059
1, 912, Tempo, 571429
1, 936, Tempo, 594059
1, 960, Tempo, 645161
1, 984, Tempo, 845070
1, 1008, Tempo, 789474
1, 1032, Tempo, 582524
1, 1056, Tempo, 645161
1, 1080, Tempo, 681818
1, 1104, Tempo, 697674
1, 1128, Tempo, 845070
1, 1152, Tempo, 789474
1, 1176, Tempo, 606061
1, 1200, Tempo, 631579
1, 1224, Tempo, 731707
1, 1248, Tempo, 789474
1, 1272, Tempo, 983607
1, 1296, Tempo, 697674
1, 1320, Tempo, 659341
1, 1368, Tempo, 645161
1, 1392, Tempo, 606061
1, 1416, Tempo, 666667
1, 1440, Tempo, 606061
1, 1464, Tempo, 582524
1, 1512, Tempo, 594059
1, 1536, Tempo, 618557
1, 1560, Tempo, 769231
1, 1584, Tempo, 571429
1, 1608, Tempo, 535714
1, 1632, Tempo, 697674
1, 1656, Tempo, 645161
1, 1680, Tempo, 618557
1, 1704, Tempo, 645161
1, 1716, Tempo, 1071429
1, 1728, Tempo, 800000
1, 1740, Tempo, 731707
1, 1752, Tempo, 631579
1, 1776, Tempo, 659341
1, 1800, Tempo, 618557
1, 1824, Tempo, 645161
1, 1848, Tempo, 800000
1, 1872, Tempo, 731707
1, 1896, Tempo, 594059
1, 1920, Tempo, 618557
1, 1944, Tempo, 714286
1, 1968, Tempo, 681818
1, 1992, Tempo, 845070
1, 2016, Tempo, 952381
1, 2034, Tempo, 895522
1, 2052, Tempo, 845070
1, 2070, Tempo, 895522
1, 2088, Tempo, 789474
1, 2112, Tempo, 731707
1, 2136, Tempo, 952381
1, 2160, Tempo, 731707
1, 2184, Tempo, 800000
1, 2208, Tempo, 1071429
1, 2220, Tempo, 1000000
1, 2232, Tempo, 952381
1, 2241, Tempo, 1250000
1, 2250, Tempo, 895522
1, 2259, Tempo, 845070
1, 2268, Tempo, 800000
1, 2277, Tempo, 821918
1, 2286, Tempo, 845070
1, 2295, Tempo, 1818182
1, 2304, Tempo, 895522
1, 2328, Tempo, 697674
1, 2352, Tempo, 659341
1, 2376, Tempo, 631579
1, 2400, Tempo, 606061
1, 2424, Tempo, 731707
1, 2448, Tempo, 697674
1, 2472, Tempo, 594059
1, 2496, Tempo, 645161
1, 2520, Tempo, 697674
1, 2544, Tempo, 769231
1, 2568, Tempo, 952381
1, 2592, Tempo, 731707
1, 2616, Tempo, 594059
1, 2640, Tempo, 666667
1, 2664, Tempo, 606061
1, 2682, Tempo, 594059
1, 2700, Tempo, 535714
1, 2718, Tempo, 697674
1, 2736, Tempo, 645161
1, 2760, Tempo, 618557
1, 2784, Tempo, 697674
1, 2808, Tempo, 618557
1, 2832, Tempo, 645161
1, 2856, Tempo, 697674
1, 2868, Tempo, 845070
1, 2904, Tempo, 645161
1, 2928, Tempo, 631579
1, 2952, Tempo, 659341
1, 2976, Tempo, 697674
1, 3000, Tempo, 845070
1, 3024, Tempo, 731707
1, 3048, Tempo, 697674
1, 3072, Tempo, 769231
1, 3096, Tempo, 697674
1, 3120, Tempo, 731707
1, 3144, Tempo, 895522
1, 3156, Tempo, 1250000
1, 3168, Tempo, 731707
1, 3192, Tempo, 666667
1, 3216, Tempo, 618557
1, 3264, Tempo, 645161
1, 3288, Tempo, 731707
1, 3312, Tempo, 800000
1, 3336, Tempo, 697674
1, 3360, Tempo, 845070
1, 3372, Tempo, 769231
1, 3396, Tempo, 1000000
1, 3408, Tempo, 952381
1, 3432, Tempo, 1250000
1, 3450, Tempo, 1463415
1, 3456, Tempo, 845070
1, 3480, Tempo, 800000
1, 3504, Tempo, 1071429
1, 3528, Tempo, 869565
1, 3552, Tempo, 923077
1, 3576, Tempo, 1071429
1, 3600, Tempo, 1153846
1, 3624, Tempo, 800000
1, 3648, Tempo, 750000
1, 3672, Tempo, 731707
1, 3696, Tempo, 845070
1, 3720, Tempo, 1395349
1, 3744, Tempo, 1153846
1, 3768, Tempo, 800000
1, 3792, Tempo, 714286
1, 3816, Tempo, 659341
1, 3840, Tempo, 618557
1, 3864, Tempo, 645161
1, 3888, Tempo, 631579
1, 3912, Tempo, 582524
1, 3960, Tempo, 606061
1, 3984, Tempo, 631579
1, 4008, Tempo, 769231
1, 4032, Tempo, 645161
1, 4056, Tempo, 594059
1, 4080, Tempo, 645161
1, 4104, Tempo, 618557
1, 4128, Tempo, 645161
1, 4152, Tempo, 731707
1, 4176, Tempo, 666667
1, 4200, Tempo, 594059
1, 4248, Tempo, 571429
1, 4272, Tempo, 594059
1, 4296, Tempo, 666667
1, 4344, Tempo, 645161
1, 4368, Tempo, 666667
1, 4392, Tempo, 618557
1, 4416, Tempo, 645161
1, 4440, Tempo, 769231
1, 4464, Tempo, 594059
1, 4488, Tempo, 571429
1, 4512, Tempo, 566038
1, 4536, Tempo, 555556
1, 4560, Tempo, 571429
1, 4584, Tempo, 645161
1, 4608, Tempo, 659341
1, 4632, Tempo, 566038
1, 4656, Tempo, 631579
1, 4680, Tempo, 606061
1, 4704, Tempo, 571429
1, 4728, Tempo, 594059
1, 4752, Tempo, 582524
1, 4776, Tempo, 545455
1, 4800, Tempo, 571429
1, 4824, Tempo, 566038
1, 4872, Tempo, 666667
1, 4920, Tempo, 645161
1, 4944, Tempo, 769231
1, 4968, Tempo, 618557
1, 4992, Tempo, 594059
1, 5064, Tempo, 618557
1, 5088, Tempo, 645161
1, 5112, Tempo, 631579
1, 5136, Tempo, 618557
1, 5160, Tempo, 645161
1, 5184, Tempo, 659341
1, 5208, Tempo, 645161
1, 5232, Tempo, 681818
1, 5280, Tempo, 659341
1, 5304, Tempo, 697674
1, 5328, Tempo, 731707
1, 5352, Tempo, 681818
1, 5376, Tempo, 750000
1, 5400, Tempo, 800000
1, 5424, Tempo, 845070
1, 5448, Tempo, 1071429
1, 5472, Tempo, 800000
1, 5496, Tempo, 631579
1, 5520, Tempo, 571429
1, 5616, Tempo, 618557
1, 5640, Tempo, 566038
1, 5712, Tempo, 594059
1, 5736, Tempo, 697674
1, 5760, Tempo, 645161
1, 5784, Tempo, 571429
1, 5832, Tempo, 582524
1, 5856, Tempo, 606061
1, 5880, Tempo, 697674
1, 5904, Tempo, 645161
1, 5928, Tempo, 535714
1, 5952, Tempo, 526316
1, 5976, Tempo, 545455
1, 6000, Tempo, 618557
1, 6024, Tempo, 731707
1, 6048, Tempo, 666667
1, 6072, Tempo, 566038
1, 6096, Tempo, 594059
1, 6120, Tempo, 571429
1, 6144, Tempo, 545455
1, 6168, Tempo, 594059
1, 6192, Tempo, 571429
1, 6216, Tempo, 545455
1, 6240, Tempo, 571429
1, 6288, Tempo, 555556
1, 6312, Tempo, 618557
1, 6336, Tempo, 594059
1, 6360, Tempo, 566038
1, 6384, Tempo, 582524
1, 6408, Tempo, 618557
1, 6432, Tempo, 606061
1, 6456, Tempo, 769231
1, 6480, Tempo, 645161
1, 6504, Tempo, 535714
1, 6552, Tempo, 566038
1, 6576, Tempo, 618557
1, 6600, Tempo, 645161
1, 6624, Tempo, 618557
1, 6648, Tempo, 555556
1, 6672, Tempo, 594059
1, 6696, Tempo, 555556
1, 6720, Tempo, 535714
1, 6744, Tempo, 594059
1, 6768, Tempo, 566038
1, 6792, Tempo, 545455
1, 6816, Tempo, 555556
1, 6840, Tempo, 571429
1, 6864, Tempo, 582524
1, 6888, Tempo, 666667
1, 6912, Tempo, 645161
1, 6936, Tempo, 566038
1, 6960, Tempo, 594059
1, 6984, Tempo, 618557
1, 7008, Tempo, 666667
1, 7032, Tempo, 952381
1, 7056, Tempo, 869565
1, 7080, Tempo, 645161
1, 7104, Tempo, 666667
1, 7128, Tempo, 697674
1, 7152, Tempo, 789474
1, 7176, Tempo, 1071429
1, 7200, Tempo, 800000
1, 7224, Tempo, 631579
1, 7248, Tempo, 594059
1, 7296, Tempo, 618557
1, 7320, Tempo, 697674
1, 7344, Tempo, 1000000
1, 7359, Tempo, 952381
1, 7374, Tempo, 800000
1, 7388, Tempo, 769231
1, 7402, Tempo, 697674
1, 7416, Tempo, 714286
1, 7430, Tempo, 769231
1, 7444, Tempo, 750000
1, 7458, Tempo, 895522
1, 7473, Tempo, 1000000
1, 7488, Tempo, 1071429
1, 7500, Tempo, 952381
1, 7512, Tempo, 769231
1, 7536, Tempo, 731707
1, 7560, Tempo, 697674
1, 7608, Tempo, 714286
1, 7632, Tempo, 769231
1, 7656, Tempo, 845070
1, 7680, Tempo, 1000000
1, 7704, Tempo, 895522
1, 7728, Tempo, 923077
1, 7752, Tempo, 1071429
1, 7776, Tempo, 923077
1, 7800, Tempo, 681818
1, 7824, Tempo, 659341
1, 7848, Tempo, 645161
1, 7896, Tempo, 769231
1, 7920, Tempo, 697674
1, 7944, Tempo, 594059
1, 7992, Tempo, 606061
1, 8016, Tempo, 645161
1, 8040, Tempo, 769231
1, 8064, Tempo, 666667
1, 8088, Tempo, 594059
1, 8112, Tempo, 571429
1, 8160, Tempo, 618557
1, 8184, Tempo, 731707
1, 8208, Tempo, 594059
1, 8232, Tempo, 571429
1, 8280, Tempo, 645161
1, 8304, Tempo, 666667
1, 8328, Tempo, 800000
1, 8352, Tempo, 571429
1, 8376, Tempo, 555556
1, 8400, Tempo, 645161
1, 8424, Tempo, 545455
1, 8472, Tempo, 606061
1, 8496, Tempo, 582524
1, 8520, Tempo, 594059
1, 8544, Tempo, 681818
1, 8568, Tempo, 697674
1, 8592, Tempo, 666667
1, 8616, Tempo, 769231
1, 8640, Tempo, 645161
1, 8664, Tempo, 571429
1, 8688, Tempo, 666667
1, 8712, Tempo, 618557
1, 8736, Tempo, 571429
1, 8760, Tempo, 645161
1, 8784, Tempo, 618557
1, 8808, Tempo, 594059
1, 8846, Tempo, 535714
1, 8851, Tempo, 645161
1, 8856, Tempo, 618557
1, 8880, Tempo, 666667
1, 8904, Tempo, 769231
1, 8928, Tempo, 800000
1, 8952, Tempo, 645161
1, 9024, Tempo, 666667
1, 9048, Tempo, 769231
1, 9072, Tempo, 645161
1, 9096, Tempo, 618557
1, 9144, Tempo, 606061
1, 9168, Tempo, 594059
1, 9192, Tempo, 618557
1, 9216, Tempo, 731707
1, 9240, Tempo, 697674
1, 9249, Tempo, 666667
1, 9254, Tempo, 618557
1, 9259, Tempo, 645161
1, 9312, Tempo, 666667
1, 9336, Tempo, 800000
1, 9384, Tempo, 645161
1, 9408, Tempo, 1000000
1, 9432, Tempo, 895522
1, 9456, Tempo, 731707
1, 9480, Tempo, 1000000
1, 9504, Tempo, 895522
1, 9528, Tempo, 1250000
1, 9537, Tempo, 952381
1, 9542, Tempo, 895522
1, 9547, Tempo, 1000000
1, 9552, Tempo, 731707
1, 9576, Tempo, 697674
1, 9600, Tempo, 731707
1, 9624, Tempo, 952381
1, 9648, Tempo, 845070
1, 9672, Tempo, 666667
1, 9696, Tempo, 697674
1, 9720, Tempo, 666667
1, 9744, Tempo, 645161
1, 9768, Tempo, 800000
1, 9792, Tempo, 769231
1, 9816, Tempo, 666667
1, 9840, Tempo, 697674
1, 9864, Tempo, 1333333
1, 9870, Tempo, 895522
1, 9876, Tempo, 697674
1, 9882, Tempo, 666667
1, 9918, Tempo, 697674
1, 9924, Tempo, 1000000
1, 9930, Tempo, 952381
1, 9936, Tempo, 731707
1, 9942, Tempo, 666667
1, 9948, Tempo, 645161
1, 9954, Tempo, 631579
1, 9996, Tempo, 645161
1, 10002, Tempo, 697674
1, 10008, Tempo, 800000
1, 10014, Tempo, 731707
1, 10020, Tempo, 697674
1, 10032, Tempo, 821918
1, 10052, Tempo, 895522
1, 10057, Tempo, 1034483
1, 10062, Tempo, 1463415
1, 10068, Tempo, 1333333
1, 10074, Tempo, 2727273
1, 10080, Tempo, 845070
1, 10101, Tempo, 594059
1, 10122, Tempo, 508475
1, 10142, Tempo, 555556
1, 10162, Tempo, 697674
1, 10182, Tempo, 582524
1, 10203, Tempo, 895522
1, 10224, Tempo, 666667
1, 10248, Tempo, 594059
1, 10272, Tempo, 517241
1, 10296, Tempo, 645161
1, 10307, Tempo, 618557
1, 10318, Tempo, 606061
1, 10328, Tempo, 571429
1, 10348, Tempo, 594059
1, 10358, Tempo, 1000000
1, 10368, Tempo, 1071429
1, 10380, Tempo, 731707
1, 10389, Tempo, 571429
1, 10410, Tempo, 517241
1, 10430, Tempo, 500000
1, 10450, Tempo, 535714
1, 10470, Tempo, 517241
1, 10491, Tempo, 555556
1, 10512, Tempo, 666667
1, 10536, Tempo, 594059
1, 10584, Tempo, 697674
1, 10595, Tempo, 618557
1, 10606, Tempo, 659341
1, 10616, Tempo, 645161
1, 10626, Tempo, 714286
1, 10636, Tempo, 769231
1, 10646, Tempo, 1071429
1, 10656, Tempo, 1153846
1, 10668, Tempo, 645161
1, 10704, Tempo, 618557
1, 10728, Tempo, 645161
1, 10776, Tempo, 697674
1, 10800, Tempo, 666667
1, 10824, Tempo, 645161
1, 10848, Tempo, 750000
1, 10860, Tempo, 681818
1, 10872, Tempo, 714286
1, 10884, Tempo, 800000
1, 10896, Tempo, 952381
1, 10920, Tempo, 1071429
1, 10938, Tempo, 1153846
1, 10944, Tempo, 800000
1, 10968, Tempo, 697674
1, 10992, Tempo, 895522
1, 11004, Tempo, 769231
1, 11016, Tempo, 666667
1, 11028, Tempo, 681818
1, 11040, Tempo, 731707
1, 11052, Tempo, 750000
1, 11064, Tempo, 845070
1, 11076, Tempo, 1153846
1, 11088, Tempo, 952381
1, 11112, Tempo, 750000
1, 11136, Tempo, 731707
1, 11160, Tempo, 769231
1, 11184, Tempo, 1071429
1, 11208, Tempo, 1395349
1, 11232, Tempo, 1000000
1, 11256, Tempo, 750000
1, 11280, Tempo, 666667
1, 11304, Tempo, 618557
1, 11328, Tempo, 606061
1, 11352, Tempo, 631579
1, 11376, Tempo, 618557
1, 11400, Tempo, 571429
1, 11424, Tempo, 582524
1, 11448, Tempo, 594059
1, 11472, Tempo, 606061
1, 11496, Tempo, 731707
1, 11520, Tempo, 645161
1, 11544, Tempo, 618557
1, 11568, Tempo, 769231
1, 11592, Tempo, 645161
1, 11616, Tempo, 618557
1, 11640, Tempo, 666667
1, 11664, Tempo, 618557
1, 11688, Tempo, 571429
1, 11760, Tempo, 594059
1, 11784, Tempo, 697674
1, 11808, Tempo, 645161
1, 11832, Tempo, 594059
1, 11856, Tempo, 952381
1, 11865, Tempo, 769231
1, 11880, Tempo, 645161
1, 11904, Tempo, 618557
1, 11928, Tempo, 645161
1, 11940, Tempo, 895522
1, 11948, Tempo, 3333333
1, 11976, Tempo, 582524
1, 12000, Tempo, 571429
1, 12024, Tempo, 555556
1, 12048, Tempo, 566038
1, 12072, Tempo, 631579
1, 12096, Tempo, 618557
1, 12120, Tempo, 566038
1, 12144, Tempo, 618557
1, 12168, Tempo, 582524
1, 12192, Tempo, 545455
1, 12216, Tempo, 618557
1, 12240, Tempo, 571429
1, 12264, Tempo, 535714
1, 12288, Tempo, 555556
1, 12312, Tempo, 535714
1, 12336, Tempo, 555556
1, 12360, Tempo, 618557
1, 12384, Tempo, 594059
1, 12408, Tempo, 535714
1, 12432, Tempo, 555556
1, 12456, Tempo, 571429
1, 12480, Tempo, 535714
1, 12504, Tempo, 571429
1, 12528, Tempo, 606061
1, 12552, Tempo, 545455
1, 12576, Tempo, 555556
1, 12600, Tempo, 566038
1, 12624, Tempo, 606061
1, 12648, Tempo, 845070
1, 12672, Tempo, 594059
1, 12696, Tempo, 566038
1, 12720, Tempo, 582524
1, 12744, Tempo, 606061
1, 12768, Tempo, 618557
1, 12792, Tempo, 666667
1, 12840, Tempo, 645161
1, 12864, Tempo, 681818
1, 12912, Tempo, 750000
1, 12936, Tempo, 1000000
1, 12960, Tempo, 769231
1, 12984, Tempo, 645161
1, 13008, Tempo, 800000
1, 13032, Tempo, 697674
1, 13056, Tempo, 645161
1, 13080, Tempo, 731707
1, 13104, Tempo, 645161
1, 13128, Tempo, 618557
1, 13152, Tempo, 697674
1, 13176, Tempo, 618557
1, 13200, Tempo, 645161
1, 13224, Tempo, 800000
1, 13248, Tempo, 645161
1, 13296, Tempo, 731707
1, 13320, Tempo, 714286
1, 13344, Tempo, 697674
1, 13368, Tempo, 895522
1, 13392, Tempo, 845070
1, 13404, Tempo, 769231
1, 13416, Tempo, 645161
1, 13428, Tempo, 618557
1, 13452, Tempo, 645161
1, 13464, Tempo, 666667
1, 13476, Tempo, 645161
1, 13488, Tempo, 659341
1, 13500, Tempo, 681818
1, 13512, Tempo, 731707
1, 13524, Tempo, 1153846
1, 13560, Tempo, 681818
1, 13608, Tempo, 731707
1, 13632, Tempo, 895522
1, 13656, Tempo, 1250000
1, 13680, Tempo, 800000
1, 13704, Tempo, 645161
1, 13728, Tempo, 618557
1, 13752, Tempo, 645161
1, 13776, Tempo, 666667
1, 13800, Tempo, 800000
1, 13872, Tempo, 952381
1, 13908, Tempo, 731707
1, 13920, Tempo, 618557
1, 13932, Tempo, 582524
1, 13956, Tempo, 800000
1, 13968, Tempo, 618557
1, 13992, Tempo, 594059
1, 14016, Tempo, 571429
1, 14064, Tempo, 594059
1, 14088, Tempo, 666667
1, 14112, Tempo, 571429
1, 14136, Tempo, 555556
1, 14160, Tempo, 697674
1, 14174, Tempo, 645161
1, 14179, Tempo, 697674
1, 14208, Tempo, 535714
1, 14232, Tempo, 594059
1, 14244, Tempo, 769231
1, 14252, Tempo, 2307692
1, 14256, Tempo, 618557
1, 14280, Tempo, 566038
1, 14304, Tempo, 555556
1, 14328, Tempo, 566038
1, 14352, Tempo, 571429
1, 14376, Tempo, 645161
1, 14400, Tempo, 618557
1, 14424, Tempo, 582524
1, 14448, Tempo, 645161
1, 14472, Tempo, 731707
1, 14484, Tempo, 618557
1, 14496, Tempo, 582524
1, 14508, Tempo, 566038
1, 14520, Tempo, 594059
1, 14532, Tempo, 666667
1, 14544, Tempo, 594059
1, 14568, Tempo, 555556
1, 14592, Tempo, 571429
1, 14616, Tempo, 555556
1, 14640, Tempo, 566038
1, 14664, Tempo, 582524
1, 14688, Tempo, 645161
1, 14712, Tempo, 571429
1, 14736, Tempo, 697674
1, 14760, Tempo, 645161
1, 14784, Tempo, 606061
1, 14808, Tempo, 631579
1, 14832, Tempo, 681818
1, 14856, Tempo, 666667
1, 14880, Tempo, 681818
1, 14904, Tempo, 697674
1, 14928, Tempo, 769231
1, 14952, Tempo, 1000000
1, 14976, Tempo, 1333333
1, 14982, Tempo, 800000
1, 14988, Tempo, 697674
1, 14994, Tempo, 681818
1, 15000, Tempo, 666667
1, 15240, Tempo, 681818
1, 15252, Tempo, 697674
1, 15258, Tempo, 714286
1, 15264, Tempo, 731707
1, 15270, Tempo, 800000
1, 15276, Tempo, 769231
1, 15282, Tempo, 697674
1, 15288, Tempo, 666667
1, 15330, Tempo, 681818
1, 15336, Tempo, 714286
1, 15342, Tempo, 800000
1, 15348, Tempo, 697674
1, 15350, Tempo, 666667
1, 15384, Tempo, 681818
1, 15390, Tempo, 697674
1, 15397, Tempo, 714286
1, 15405, Tempo, 645161
1, 15423, Tempo, 666667
1, 15430, Tempo, 645161
1, 15436, Tempo, 631579
1, 15442, Tempo, 618557
1, 15472, Tempo, 631579
1, 15478, Tempo, 645161
1, 15484, Tempo, 666667
1, 15490, Tempo, 697674
1, 15497, Tempo, 645161
1, 15505, Tempo, 606061
1, 15554, Tempo, 618557
1, 15561, Tempo, 645161
1, 15568, Tempo, 666667
1, 15575, Tempo, 731707
1, 15584, Tempo, 666667
1, 15652, Tempo, 697674
1, 15660, Tempo, 1621622
1, 15716, Tempo, 1333333
1, 15734, Tempo, 4615385
1, 15764, Tempo, 983607
1, 15788, Tempo, 1071429
1, 15812, Tempo, 1000000
1, 15836, Tempo, 1153846
1, 15860, Tempo, 1333333
1, 15884, Tempo, 1463415
1, 15896, Tempo, 800000
1, 15908, Tempo, 845070
1, 15932, Tempo, 800000
1, 15956, Tempo, 789474
1, 15980, Tempo, 800000
1, 16004, Tempo, 845070
1, 16028, Tempo, 1000000
1, 16052, Tempo, 800000
1, 16076, Tempo, 769231
1, 16100, Tempo, 895522
1, 16124, Tempo, 923077
1, 16148, Tempo, 1333333
1, 16196, Tempo, 895522
1, 16220, Tempo, 800000
1, 16244, Tempo, 769231
1, 16268, Tempo, 800000
1, 16292, Tempo, 895522
1, 16316, Tempo, 1071429
1, 16340, Tempo, 800000
1, 16364, Tempo, 845070
1, 16388, Tempo, 1000000
1, 16412, Tempo, 1071429
1, 16436, Tempo, 1333333
1, 16460, Tempo, 1153846
1, 16484, Tempo, 845070
1, 16508, Tempo, 769231
1, 16532, Tempo, 789474
1, 16556, Tempo, 821918
1, 16580, Tempo, 1071429
1, 16604, Tempo, 1153846
1, 16628, Tempo, 869565
1, 16652, Tempo, 952381
1, 16676, Tempo, 1153846
1, 16700, Tempo, 1333333
1, 16724, Tempo, 3750000
1, 16736, Tempo, 4615385
1, 16748, Tempo, 1621622
1, 16772, Tempo, 1034483
1, 16796, Tempo, 1538462
1, 16820, Tempo, 1333333
1, 16844, Tempo, 1111111
1, 16868, Tempo, 1395349
1, 16892, Tempo, 1621622
1, 16910, Tempo, 1200000
1, 16928, Tempo, 1071429
1, 16946, Tempo, 1034483
1, 16964, Tempo, 1153846
1, 16982, Tempo, 1250000
1, 17000, Tempo, 1333333
1, 17018, Tempo, 1621622
1, 17036, Tempo, 1250000
1, 17060, Tempo, 952381
1, 17084, Tempo, 1153846
1, 17108, Tempo, 1250000
1, 17123, Tempo, 1034483
1, 17137, Tempo, 1000000
1, 17151, Tempo, 1034483
1, 17165, Tempo, 1071429
1, 17180, Tempo, 1034483
1, 17195, Tempo, 983607
1, 17209, Tempo, 1000000
1, 17223, Tempo, 1034483
1, 17267, Tempo, 1000000
1, 17281, Tempo, 1071429
1, 17295, Tempo, 1111111
1, 17309, Tempo, 1333333
1, 17324, Tempo, 1250000
1, 17339, Tempo, 1034483
1, 17367, Tempo, 1071429
1, 17381, Tempo, 1111111
1, 17396, Tempo, 1034483
1, 17411, Tempo, 1000000
1, 17439, Tempo, 1071429
1, 17453, Tempo, 1111111
1, 17468, Tempo, 1034483
1, 17483, Tempo, 983607
1, 17497, Tempo, 952381
1, 17511, Tempo, 1034483
1, 17525, Tempo, 1000000
1, 17540, Tempo, 952381
1, 17555, Tempo, 983607
1, 17569, Tempo, 1000000
1, 17583, Tempo, 1071429
1, 17597, Tempo, 1153846
1, 17612, Tempo, 1250000
1, 17627, Tempo, 1071429
1, 17641, Tempo, 1034483
1, 17655, Tempo, 1200000
1, 17669, Tempo, 1250000
1, 17684, Tempo, 1111111
1, 17699, Tempo, 1034483
1, 17727, Tempo, 1200000
1, 17741, Tempo, 1333333
1, 17756, Tempo, 1200000
1, 17771, Tempo, 1111111
1, 17785, Tempo, 1153846
1, 17799, Tempo, 1333333
1, 17813, Tempo, 1463415
1, 17828, Tempo, 1304348
1, 17843, Tempo, 1333333
1, 17857, Tempo, 1621622
1, 17871, Tempo, 1818182
1, 17885, Tempo, 3333333
1, 17900, Tempo, 1250000
1, 17904, Tempo, 2307692
1, 17908, Tempo, 1395349
1, 17972, Tempo, 1333333
1, 18044, Tempo, 1395349
1, 18116, Tempo, 1538462
1, 18188, Tempo, 2307692
1, 18212, Tempo, 1621622
1, 18236, Tempo, 1071429
1, 18260, Tempo, 821918
1, 18284, Tempo, 845070
1, 18308, Tempo, 869565
1, 18332, Tempo, 895522
1, 18356, Tempo, 845070
1, 18380, Tempo, 952381
1, 18404, Tempo, 1000000
1, 18428, Tempo, 1153846
1, 18452, Tempo, 2000000
1, 18476, Tempo, 1250000
1, 18620, Tempo, 1153846
1, 18692, Tempo, 1463415
1, 18764, Tempo, 1111111
1, 18908, Tempo, 1621622
1, 18980, Tempo, 2307692
1, 19052, Tempo, 1071429
1, 19052, End_track
2, 0, Start_track
2, 0, MIDI_port, 0
2, 0, Title_t, "Piano R"
2, 0, Control_c, 0, 0, 0
2, 0, Control_c, 0, 32, 0
2, 0, Program_c, 0, 0
2, 0, Control_c, 0, 7, 127
2, 0, Control_c, 0, 10, 50
2, 19, Control_c, 0, 91, 90
2, 35, Control_c, 0, 93, 80
2, 288, Note_on_c, 0, 82, 70
2, 432, Note_on_c, 0, 82, 0
2, 432, Note_on_c, 0, 72, 44
2, 432, Control_c, 0, 64, 127
2, 441, Note_on_c, 0, 72, 0
2, 441, Note_on_c, 0, 74, 44
2, 450, Note_on_c, 0, 74, 0
2, 450, Note_on_c, 0, 75, 44
2, 458, Note_on_c, 0, 75, 0
2, 458, Note_on_c, 0, 74, 46
2, 466, Note_on_c, 0, 74, 0
2, 466, Note_on_c, 0, 75, 48
2, 473, Note_on_c, 0, 75, 0
2, 473, Note_on_c, 0, 74, 50
2, 480, Note_on_c, 0, 74, 0
2, 480, Note_on_c, 0, 75, 52
2, 486, Note_on_c, 0, 75, 0
2, 486, Note_on_c, 0, 74, 54
2, 492, Note_on_c, 0, 74, 0
2, 492, Note_on_c, 0, 75, 56
2, 498, Note_on_c, 0, 75, 0
2, 498, Note_on_c, 0, 74, 57
2, 504, Note_on_c, 0, 74, 0
2, 504, Note_on_c, 0, 75, 58
2, 506, Control_c, 0, 64, 0
2, 509, Note_on_c, 0, 75, 0
2, 509, Note_on_c, 0, 74, 58
2, 512, Control_c, 0, 64, 127
2, 514, Note_on_c, 0, 74, 0
2, 514, Note_on_c, 0, 75, 58
2, 519, Note_on_c, 0, 75, 0
2, 519, Note_on_c, 0, 74, 58
2, 524, Note_on_c, 0, 74, 0
2, 524, Note_on_c, 0, 75, 58
2, 529, Note_on_c, 0, 75, 0
2, 529, Note_on_c, 0, 74, 57
2, 534, Note_on_c, 0, 74, 0
2, 534, Note_on_c, 0, 75, 56
2, 539, Note_on_c, 0, 75, 0
2, 539, Note_on_c, 0, 74, 54
2, 544, Note_on_c, 0, 74, 0
2, 544, Note_on_c, 0, 75, 52
2, 549, Note_on_c, 0, 75, 0
2, 549, Note_on_c, 0, 74, 50
2, 554, Note_on_c, 0, 74, 0
2, 554, Note_on_c, 0, 75, 48
2, 559, Note_on_c, 0, 75, 0
2, 559, Note_on_c, 0, 74, 46
2, 564, Note_on_c, 0, 74, 0
2, 564, Note_on_c, 0, 72, 45
2, 570, Note_on_c, 0, 72, 0
2, 570, Note_on_c, 0, 74, 45
2, 576, Note_on_c, 0, 74, 0
2, 576, Note_on_c, 0, 75, 56
2, 576, Control_c, 0, 64, 127
2, 578, Control_c, 0, 64, 0
2, 584, Control_c, 0, 64, 127
2, 648, Note_on_c, 0, 75, 0
2, 648, Note_on_c, 0, 80, 74
2, 720, Note_on_c, 0, 80, 0
2, 720, Note_on_c, 0, 79, 64
2, 722, Control_c, 0, 64, 0
2, 728, Control_c, 0, 64, 127
2, 792, Note_on_c, 0, 79, 0
2, 792, Note_on_c, 0, 71, 54
2, 864, Note_on_c, 0, 71, 0
2, 864, Note_on_c, 0, 72, 50
2, 864, Control_c, 0, 64, 127
2, 866, Control_c, 0, 64, 0
2, 872, Control_c, 0, 64, 127
2, 984, Note_on_c, 0, 72, 0
2, 984, Note_on_c, 0, 74, 54
2, 1008, Note_on_c, 0, 74, 0
2, 1008, Note_on_c, 0, 74, 62
2, 1010, Control_c, 0, 64, 0
2, 1016, Control_c, 0, 64, 127
2, 1056, Note_on_c, 0, 74, 0
2, 1056, Note_on_c, 0, 75, 68
2, 1080, Note_on_c, 0, 75, 0
2, 1080, Note_on_c, 0, 79, 70
2, 1128, Note_on_c, 0, 79, 0
2, 1128, Note_on_c, 0, 77, 60
2, 1152, Note_on_c, 0, 77, 0
2, 1152, Note_on_c, 0, 74, 50
2, 1152, Control_c, 0, 64, 127
2, 1154, Control_c, 0, 64, 0
2, 1160, Control_c, 0, 64, 127
2, 1296, Note_on_c, 0, 74, 0
2, 1296, Note_on_c, 0, 75, 52
2, 1298, Control_c, 0, 64, 0
2, 1304, Control_c, 0, 64, 127
2, 1366, Note_on_c, 0, 75, 0
2, 1368, Note_on_c, 0, 70, 50
2, 1368, Note_on_c, 0, 76, 66
2, 1376, Control_c, 0, 64, 0
2, 1382, Control_c, 0, 64, 0
2, 1440, Note_on_c, 0, 76, 0
2, 1440, Note_on_c, 0, 70, 0
2, 1440, Note_on_c, 0, 70, 52
2, 1440, Note_on_c, 0, 77, 72
2, 1440, Control_c, 0, 64, 127
2, 1442, Control_c, 0, 64, 0
2, 1448, Control_c, 0, 64, 127
2, 1488, Note_on_c, 0, 70, 0
2, 1488, Note_on_c, 0, 68, 54
2, 1512, Note_on_c, 0, 77, 0
2, 1512, Note_on_c, 0, 75, 68
2, 1514, Control_c, 0, 64, 0
2, 1560, Note_on_c, 0, 75, 0
2, 1560, Note_on_c, 0, 74, 64
2, 1584, Note_on_c, 0, 74, 0
2, 1584, Note_on_c, 0, 72, 68
2, 1584, Control_c, 0, 64, 127
2, 1630, Note_on_c, 0, 68, 0
2, 1632, Note_on_c, 0, 68, 66
2, 1656, Note_on_c, 0, 68, 0
2, 1656, Note_on_c, 0, 72, 0
2, 1656, Note_on_c, 0, 68, 68
2, 1656, Note_on_c, 0, 74, 70
2, 1658, Control_c, 0, 64, 0
2, 1680, Note_on_c, 0, 68, 0
2, 1680, Note_on_c, 0, 67, 65
2, 1680, Control_c, 0, 64, 127
2, 1702, Note_on_c, 0, 67, 0
2, 1716, Note_on_c, 0, 62, 64
2, 1722, Control_c, 0, 64, 0
2, 1728, Note_on_c, 0, 62, 0
2, 1728, Note_on_c, 0, 74, 0
2, 1728, Note_on_c, 0, 65, 54
2, 1728, Note_on_c, 0, 75, 66
2, 1728, Control_c, 0, 64, 127
2, 1740, Note_on_c, 0, 65, 0
2, 1740, Note_on_c, 0, 64, 50
2, 1752, Note_on_c, 0, 64, 0
2, 1752, Note_on_c, 0, 63, 36
2, 1754, Control_c, 0, 64, 0
2, 1776, Control_c, 0, 64, 127
2, 1798, Note_on_c, 0, 63, 0
2, 1800, Note_on_c, 0, 67, 46
2, 1872, Note_on_c, 0, 75, 0
2, 1872, Note_on_c, 0, 70, 60
2, 1874, Control_c, 0, 64, 0
2, 1880, Control_c, 0, 64, 127
2, 1922, Control_c, 0, 64, 0
2, 1942, Note_on_c, 0, 67, 0
2, 1944, Note_on_c, 0, 70, 0
2, 1944, Note_on_c, 0, 66, 40
2, 1944, Note_on_c, 0, 72, 62
2, 2016, Note_on_c, 0, 72, 0
2, 2016, Note_on_c, 0, 74, 52
2, 2016, Control_c, 0, 64, 127
2, 2034, Note_on_c, 0, 66, 0
2, 2034, Note_on_c, 0, 67, 44
2, 2052, Note_on_c, 0, 67, 0
2, 2052, Note_on_c, 0, 69, 50
2, 2070, Note_on_c, 0, 69, 0
2, 2070, Note_on_c, 0, 70, 48
2, 2082, Control_c, 0, 64, 0
2, 2086, Note_on_c, 0, 70, 0
2, 2088, Note_on_c, 0, 74, 0
2, 2088, Note_on_c, 0, 62, 40
2, 2088, Note_on_c, 0, 72, 62
2, 2088, Control_c, 0, 64, 127
2, 2136, Note_on_c, 0, 72, 0
2, 2136, Note_on_c, 0, 70, 52
2, 2154, Control_c, 0, 64, 0
2, 2160, Note_on_c, 0, 70, 0
2, 2160, Note_on_c, 0, 69, 44
2, 2160, Control_c, 0, 64, 127
2, 2206, Note_on_c, 0, 62, 0
2, 2208, Note_on_c, 0, 60, 56
2, 2214, Note_on_c, 0, 60, 0
2, 2220, Note_on_c, 0, 62, 58
2, 2226, Note_on_c, 0, 62, 0
2, 2232, Note_on_c, 0, 63, 60
2, 2235, Note_on_c, 0, 63, 0
2, 2241, Note_on_c, 0, 62, 58
2, 2244, Note_on_c, 0, 62, 0
2, 2250, Note_on_c, 0, 65, 56
2, 2254, Control_c, 0, 64, 0
2, 2256, Note_on_c, 0, 65, 0
2, 2259, Note_on_c, 0, 63, 54
2, 2262, Note_on_c, 0, 63, 0
2, 2268, Note_on_c, 0, 62, 52
2, 2271, Note_on_c, 0, 62, 0
2, 2277, Note_on_c, 0, 63, 50
2, 2280, Note_on_c, 0, 63, 0
2, 2286, Note_on_c, 0, 60, 44
2, 2290, Note_on_c, 0, 60, 0
2, 2295, Note_on_c, 0, 62, 44
2, 2300, Note_on_c, 0, 62, 0
2, 2304, Note_on_c, 0, 69, 0
2, 2304, Note_on_c, 0, 59, 40
2, 2304, Note_on_c, 0, 67, 54
2, 2304, Control_c, 0, 64, 0
2, 2376, Note_on_c, 0, 59, 0
2, 2376, Note_on_c, 0, 58, 50
2, 2446, Note_on_c, 0, 58, 0
2, 2446, Note_on_c, 0, 67, 0
2, 2448, Note_on_c, 0, 68, 74
2, 2448, Control_c, 0, 64, 127
2, 2520, Note_on_c, 0, 68, 0
2, 2520, Note_on_c, 0, 72, 82
2, 2522, Control_c, 0, 64, 0
2, 2568, Note_on_c, 0, 72, 0
2, 2568, Note_on_c, 0, 70, 84
2, 2568, Control_c, 0, 64, 127
2, 2592, Note_on_c, 0, 70, 0
2, 2592, Note_on_c, 0, 79, 88
2, 2592, Control_c, 0, 64, 127
2, 2594, Control_c, 0, 64, 0
2, 2600, Control_c, 0, 64, 127
2, 2640, Note_on_c, 0, 79, 0
2, 2640, Note_on_c, 0, 80, 86
2, 2664, Note_on_c, 0, 80, 0
2, 2664, Note_on_c, 0, 81, 84
2, 2682, Note_on_c, 0, 81, 0
2, 2682, Note_on_c, 0, 82, 86
2, 2700, Note_on_c, 0, 82, 0
2, 2700, Note_on_c, 0, 86, 80
2, 2718, Note_on_c, 0, 86, 0
2, 2718, Note_on_c, 0, 84, 78
2, 2736, Note_on_c, 0, 84, 0
2, 2736, Note_on_c, 0, 82, 72
2, 2738, Control_c, 0, 64, 0
2, 2744, Control_c, 0, 64, 127
2, 2784, Note_on_c, 0, 68, 70
2, 2808, Note_on_c, 0, 68, 0
2, 2808, Note_on_c, 0, 82, 0
2, 2808, Note_on_c, 0, 68, 70
2, 2808, Note_on_c, 0, 74, 70
2, 2832, Note_on_c, 0, 68, 0
2, 2832, Note_on_c, 0, 67, 66
2, 2834, Control_c, 0, 64, 0
2, 2854, Note_on_c, 0, 67, 0
2, 2868, Note_on_c, 0, 65, 64
2, 2880, Note_on_c, 0, 65, 0
2, 2880, Note_on_c, 0, 74, 0
2, 2880, Note_on_c, 0, 65, 58
2, 2880, Note_on_c, 0, 75, 72
2, 2880, Control_c, 0, 64, 127
2, 2882, Control_c, 0, 64, 0
2, 2888, Control_c, 0, 64, 127
2, 2904, Note_on_c, 0, 65, 0
2, 2904, Note_on_c, 0, 63, 54
2, 2926, Note_on_c, 0, 63, 0
2, 2952, Note_on_c, 0, 75, 0
2, 2952, Note_on_c, 0, 80, 84
2, 3024, Note_on_c, 0, 80, 0
2, 3024, Note_on_c, 0, 79, 56
2, 3026, Control_c, 0, 64, 0
2, 3032, Control_c, 0, 64, 127
2, 3072, Note_on_c, 0, 65, 46
2, 3096, Note_on_c, 0, 65, 0
2, 3096, Note_on_c, 0, 79, 0
2, 3096, Note_on_c, 0, 65, 44
2, 3096, Note_on_c, 0, 71, 54
2, 3120, Note_on_c, 0, 65, 0
2, 3120, Note_on_c, 0, 63, 46
2, 3122, Control_c, 0, 64, 0
2, 3142, Note_on_c, 0, 63, 0
2, 3156, Note_on_c, 0, 62, 42
2, 3168, Note_on_c, 0, 62, 0
2, 3168, Note_on_c, 0, 71, 0
2, 3168, Note_on_c, 0, 62, 38
2, 3168, Note_on_c, 0, 72, 56
2, 3168, Control_c, 0, 64, 127
2, 3192, Note_on_c, 0, 62, 0
2, 3192, Note_on_c, 0, 60, 32
2, 3214, Note_on_c, 0, 60, 0
2, 3240, Note_on_c, 0, 72, 0
2, 3240, Note_on_c, 0, 74, 66
2, 3242, Control_c, 0, 64, 0
2, 3248, Control_c, 0, 64, 127
2, 3312, Note_on_c, 0, 75, 76
2, 3314, Control_c, 0, 64, 0
2, 3320, Control_c, 0, 64, 127
2, 3360, Note_on_c, 0, 74, 0
2, 3360, Note_on_c, 0, 64, 64
2, 3360, Control_c, 0, 64, 0
2, 3372, Note_on_c, 0, 64, 0
2, 3372, Note_on_c, 0, 65, 62
2, 3384, Note_on_c, 0, 65, 0
2, 3384, Note_on_c, 0, 75, 0
2, 3384, Note_on_c, 0, 67, 64
2, 3396, Note_on_c, 0, 67, 0
2, 3396, Note_on_c, 0, 65, 60
2, 3408, Note_on_c, 0, 65, 0
2, 3408, Note_on_c, 0, 72, 76
2, 3408, Control_c, 0, 64, 127
2, 3432, Note_on_c, 0, 79, 82
2, 3450, Note_on_c, 0, 77, 72
2, 3450, Control_c, 0, 64, 0
2, 3456, Note_on_c, 0, 74, 64
2, 3456, Control_c, 0, 64, 0
2, 3462, Note_on_c, 0, 77, 0
2, 3468, Note_on_c, 0, 79, 0
2, 3480, Control_c, 0, 64, 127
2, 3502, Note_on_c, 0, 72, 0
2, 3504, Note_on_c, 0, 72, 58
2, 3528, Note_on_c, 0, 72, 0
2, 3528, Note_on_c, 0, 72, 50
2, 3530, Control_c, 0, 64, 0
2, 3552, Note_on_c, 0, 72, 0
2, 3552, Note_on_c, 0, 70, 42
2, 3574, Note_on_c, 0, 70, 0
2, 3588, Note_on_c, 0, 68, 44
2, 3600, Note_on_c, 0, 68, 0
2, 3600, Note_on_c, 0, 74, 0
2, 3600, Note_on_c, 0, 68, 44
2, 3600, Note_on_c, 0, 75, 52
2, 3600, Control_c, 0, 64, 127
2, 3624, Note_on_c, 0, 68, 0
2, 3624, Note_on_c, 0, 67, 36
2, 3646, Note_on_c, 0, 67, 0
2, 3718, Note_on_c, 0, 75, 0
2, 3720, Note_on_c, 0, 63, 46
2, 3744, Note_on_c, 0, 63, 0
2, 3744, Note_on_c, 0, 73, 60
2, 3744, Control_c, 0, 64, 127
2, 3786, Control_c, 0, 64, 0
2, 3792, Control_c, 0, 64, 127
2, 3960, Note_on_c, 0, 73, 0
2, 3960, Note_on_c, 0, 72, 60
2, 3960, Control_c, 0, 64, 0
2, 4008, Note_on_c, 0, 72, 0
2, 4008, Note_on_c, 0, 71, 56
2, 4032, Note_on_c, 0, 71, 0
2, 4032, Note_on_c, 0, 72, 62
2, 4032, Control_c, 0, 64, 127
2, 4080, Note_on_c, 0, 72, 0
2, 4080, Note_on_c, 0, 77, 58
2, 4104, Note_on_c, 0, 77, 0
2, 4104, Note_on_c, 0, 75, 56
2, 4104, Control_c, 0, 64, 0
2, 4110, Control_c, 0, 64, 127
2, 4176, Note_on_c, 0, 75, 0
2, 4176, Note_on_c, 0, 73, 60
2, 4176, Control_c, 0, 64, 0
2, 4224, Control_c, 0, 64, 127
2, 4248, Note_on_c, 0, 73, 0
2, 4248, Note_on_c, 0, 72, 58
2, 4296, Note_on_c, 0, 72, 0
2, 4296, Note_on_c, 0, 71, 54
2, 4320, Note_on_c, 0, 71, 0
2, 4320, Note_on_c, 0, 72, 58
2, 4320, Control_c, 0, 64, 127
2, 4322, Control_c, 0, 64, 0
2, 4328, Control_c, 0, 64, 127
2, 4390, Note_on_c, 0, 72, 0
2, 4392, Note_on_c, 0, 75, 68
2, 4464, Control_c, 0, 64, 0
2, 4512, Control_c, 0, 64, 127
2, 4536, Note_on_c, 0, 75, 0
2, 4536, Note_on_c, 0, 74, 60
2, 4584, Note_on_c, 0, 74, 0
2, 4584, Note_on_c, 0, 73, 60
2, 4608, Note_on_c, 0, 73, 0
2, 4608, Note_on_c, 0, 74, 62
2, 4608, Control_c, 0, 64, 0
2, 4656, Note_on_c, 0, 74, 0
2, 4656, Note_on_c, 0, 79, 66
2, 4680, Note_on_c, 0, 79, 0
2, 4680, Note_on_c, 0, 77, 64
2, 4680, Control_c, 0, 64, 127
2, 4752, Note_on_c, 0, 77, 0
2, 4752, Note_on_c, 0, 75, 62
2, 4752, Control_c, 0, 64, 0
2, 4824, Note_on_c, 0, 75, 0
2, 4824, Note_on_c, 0, 74, 64
2, 4824, Control_c, 0, 64, 127
2, 4872, Note_on_c, 0, 74, 0
2, 4872, Note_on_c, 0, 73, 64
2, 4896, Note_on_c, 0, 73, 0
2, 4896, Note_on_c, 0, 74, 70
2, 4896, Control_c, 0, 64, 0
2, 4902, Control_c, 0, 64, 127
2, 4968, Note_on_c, 0, 74, 0
2, 4968, Note_on_c, 0, 80, 76
2, 5042, Control_c, 0, 64, 0
2, 5048, Control_c, 0, 64, 127
2, 5112, Note_on_c, 0, 80, 0
2, 5112, Note_on_c, 0, 80, 75
2, 5184, Control_c, 0, 64, 127
2, 5186, Control_c, 0, 64, 0
2, 5192, Control_c, 0, 64, 127
2, 5256, Note_on_c, 0, 80, 0
2, 5256, Note_on_c, 0, 80, 64
2, 5330, Control_c, 0, 64, 0
2, 5336, Control_c, 0, 64, 127
2, 5400, Note_on_c, 0, 80, 0
2, 5400, Note_on_c, 0, 80, 50
2, 5472, Note_on_c, 0, 80, 0
2, 5472, Note_on_c, 0, 79, 54
2, 5472, Control_c, 0, 64, 127
2, 5474, Control_c, 0, 64, 0
2, 5480, Control_c, 0, 64, 127
2, 5616, Note_on_c, 0, 79, 0
2, 5616, Note_on_c, 0, 74, 52
2, 5624, Control_c, 0, 64, 127
2, 5688, Note_on_c, 0, 74, 0
2, 5688, Note_on_c, 0, 79, 58
2, 5760, Note_on_c, 0, 79, 0
2, 5760, Note_on_c, 0, 75, 60
2, 5760, Control_c, 0, 64, 127
2, 5762, Control_c, 0, 64, 0
2, 5768, Control_c, 0, 64, 127
2, 5832, Note_on_c, 0, 75, 0
2, 5832, Note_on_c, 0, 74, 58
2, 5856, Control_c, 0, 64, 0
2, 5880, Note_on_c, 0, 74, 0
2, 5880, Note_on_c, 0, 72, 56
2, 5904, Note_on_c, 0, 72, 0
2, 5904, Note_on_c, 0, 75, 62
2, 5904, Control_c, 0, 64, 127
2, 6048, Note_on_c, 0, 75, 0
2, 6048, Note_on_c, 0, 74, 56
2, 6048, Control_c, 0, 64, 127
2, 6050, Control_c, 0, 64, 0
2, 6056, Control_c, 0, 64, 127
2, 6120, Note_on_c, 0, 74, 0
2, 6120, Note_on_c, 0, 77, 66
2, 6168, Note_on_c, 0, 77, 0
2, 6168, Note_on_c, 0, 75, 64
2, 6192, Note_on_c, 0, 75, 0
2, 6192, Note_on_c, 0, 74, 60
2, 6194, Control_c, 0, 64, 0
2, 6200, Control_c, 0, 64, 127
2, 6264, Note_on_c, 0, 74, 0
2, 6264, Note_on_c, 0, 69, 60
2, 6312, Note_on_c, 0, 69, 0
2, 6312, Note_on_c, 0, 74, 62
2, 6336, Note_on_c, 0, 74, 0
2, 6336, Note_on_c, 0, 70, 64
2, 6336, Control_c, 0, 64, 127
2, 6338, Control_c, 0, 64, 0
2, 6344, Control_c, 0, 64, 127
2, 6408, Note_on_c, 0, 70, 0
2, 6408, Note_on_c, 0, 69, 70
2, 6456, Note_on_c, 0, 69, 0
2, 6456, Note_on_c, 0, 67, 72
2, 6456, Control_c, 0, 64, 0
2, 6478, Note_on_c, 0, 67, 0
2, 6480, Note_on_c, 0, 79, 78
2, 6480, Control_c, 0, 64, 127
2, 6624, Control_c, 0, 64, 127
2, 6696, Note_on_c, 0, 79, 0
2, 6696, Note_on_c, 0, 74, 70
2, 6698, Control_c, 0, 64, 0
2, 6704, Control_c, 0, 64, 127
2, 6744, Note_on_c, 0, 74, 0
2, 6744, Note_on_c, 0, 75, 76
2, 6768, Note_on_c, 0, 75, 0
2, 6768, Note_on_c, 0, 77, 82
2, 6840, Note_on_c, 0, 77, 0
2, 6840, Note_on_c, 0, 79, 82
2, 6888, Note_on_c, 0, 79, 0
2, 6888, Note_on_c, 0, 74, 80
2, 6912, Note_on_c, 0, 74, 0
2, 6912, Note_on_c, 0, 75, 86
2, 6912, Control_c, 0, 64, 127
2, 6914, Control_c, 0, 64, 0
2, 6920, Control_c, 0, 64, 127
2, 6984, Note_on_c, 0, 75, 0
2, 6984, Note_on_c, 0, 74, 82
2, 7030, Note_on_c, 0, 74, 0
2, 7032, Note_on_c, 0, 72, 79
2, 7056, Note_on_c, 0, 72, 0
2, 7056, Note_on_c, 0, 84, 82
2, 7058, Control_c, 0, 64, 0
2, 7064, Control_c, 0, 64, 127
2, 7200, Note_on_c, 0, 84, 0
2, 7200, Note_on_c, 0, 82, 78
2, 7200, Control_c, 0, 64, 127
2, 7202, Control_c, 0, 64, 0
2, 7208, Control_c, 0, 64, 127
2, 7272, Note_on_c, 0, 82, 0
2, 7272, Note_on_c, 0, 69, 68
2, 7320, Note_on_c, 0, 69, 0
2, 7320, Note_on_c, 0, 70, 70
2, 7344, Note_on_c, 0, 70, 0
2, 7344, Note_on_c, 0, 71, 66
2, 7346, Control_c, 0, 64, 0
2, 7352, Control_c, 0, 64, 127
2, 7359, Note_on_c, 0, 71, 0
2, 7359, Note_on_c, 0, 62, 60
2, 7374, Note_on_c, 0, 62, 0
2, 7374, Note_on_c, 0, 68, 64
2, 7388, Note_on_c, 0, 68, 0
2, 7388, Note_on_c, 0, 69, 70
2, 7402, Note_on_c, 0, 69, 0
2, 7402, Note_on_c, 0, 72, 70
2, 7416, Note_on_c, 0, 72, 0
2, 7416, Note_on_c, 0, 70, 68
2, 7430, Note_on_c, 0, 70, 0
2, 7430, Note_on_c, 0, 73, 67
2, 7444, Note_on_c, 0, 73, 0
2, 7444, Note_on_c, 0, 74, 66
2, 7458, Note_on_c, 0, 80, 68
2, 7459, Note_on_c, 0, 74, 0
2, 7473, Note_on_c, 0, 80, 0
2, 7473, Note_on_c, 0, 79, 64
2, 7488, Note_on_c, 0, 79, 0
2, 7488, Note_on_c, 0, 77, 56
2, 7488, Control_c, 0, 64, 127
2, 7490, Control_c, 0, 64, 0
2, 7496, Control_c, 0, 64, 127
2, 7500, Note_on_c, 0, 77, 0
2, 7500, Note_on_c, 0, 76, 54
2, 7512, Note_on_c, 0, 76, 0
2, 7512, Note_on_c, 0, 75, 50
2, 7514, Control_c, 0, 64, 0
2, 7520, Control_c, 0, 64, 127
2, 7534, Note_on_c, 0, 75, 0
2, 7632, Control_c, 0, 64, 0
2, 7704, Note_on_c, 0, 75, 58
2, 7704, Control_c, 0, 64, 127
2, 7752, Note_on_c, 0, 75, 0
2, 7752, Note_on_c, 0, 74, 52
2, 7776, Note_on_c, 0, 74, 0
2, 7776, Note_on_c, 0, 73, 56
2, 7776, Control_c, 0, 64, 127
2, 7778, Control_c, 0, 64, 0
2, 7784, Control_c, 0, 64, 127
2, 7848, Note_on_c, 0, 73, 0
2, 7848, Note_on_c, 0, 75, 58
2, 7848, Control_c, 0, 64, 0
2, 7896, Note_on_c, 0, 75, 0
2, 7896, Note_on_c, 0, 77, 56
2, 7920, Note_on_c, 0, 77, 0
2, 7920, Note_on_c, 0, 72, 56
2, 7920, Control_c, 0, 64, 127
2, 7992, Note_on_c, 0, 72, 0
2, 7992, Note_on_c, 0, 73, 56
2, 8064, Note_on_c, 0, 73, 0
2, 8064, Note_on_c, 0, 71, 54
2, 8064, Control_c, 0, 64, 127
2, 8066, Control_c, 0, 64, 0
2, 8072, Control_c, 0, 64, 127
2, 8136, Note_on_c, 0, 71, 0
2, 8136, Note_on_c, 0, 72, 56
2, 8136, Control_c, 0, 64, 0
2, 8184, Note_on_c, 0, 72, 0
2, 8184, Note_on_c, 0, 74, 58
2, 8208, Note_on_c, 0, 74, 0
2, 8208, Note_on_c, 0, 75, 60
2, 8208, Control_c, 0, 64, 127
2, 8280, Note_on_c, 0, 75, 0
2, 8280, Note_on_c, 0, 74, 70
2, 8328, Note_on_c, 0, 74, 0
2, 8328, Note_on_c, 0, 75, 76
2, 8352, Note_on_c, 0, 75, 0
2, 8352, Note_on_c, 0, 79, 80
2, 8352, Control_c, 0, 64, 127
2, 8354, Control_c, 0, 64, 0
2, 8360, Control_c, 0, 64, 127
2, 8400, Note_on_c, 0, 79, 0
2, 8400, Note_on_c, 0, 77, 78
2, 8424, Note_on_c, 0, 77, 0
2, 8424, Note_on_c, 0, 79, 80
2, 8448, Note_on_c, 0, 79, 0
2, 8448, Note_on_c, 0, 80, 78
2, 8472, Note_on_c, 0, 80, 0
2, 8472, Note_on_c, 0, 71, 66
2, 8472, Control_c, 0, 64, 0
2, 8496, Note_on_c, 0, 71, 0
2, 8496, Note_on_c, 0, 72, 64
2, 8496, Control_c, 0, 64, 127
2, 8568, Note_on_c, 0, 72, 0
2, 8568, Note_on_c, 0, 75, 60
2, 8616, Note_on_c, 0, 75, 0
2, 8616, Note_on_c, 0, 74, 52
2, 8640, Note_on_c, 0, 74, 0
2, 8640, Note_on_c, 0, 71, 50
2, 8640, Control_c, 0, 64, 127
2, 8642, Control_c, 0, 64, 0
2, 8648, Control_c, 0, 64, 127
2, 8712, Note_on_c, 0, 71, 0
2, 8712, Note_on_c, 0, 72, 60
2, 8712, Control_c, 0, 64, 0
2, 8760, Note_on_c, 0, 72, 0
2, 8760, Note_on_c, 0, 74, 64
2, 8784, Note_on_c, 0, 74, 0
2, 8784, Note_on_c, 0, 75, 68
2, 8784, Control_c, 0, 64, 127
2, 8832, Note_on_c, 0, 72, 56
2, 8841, Note_on_c, 0, 71, 54
2, 8846, Note_on_c, 0, 71, 0
2, 8846, Note_on_c, 0, 72, 0
2, 8846, Note_on_c, 0, 72, 56
2, 8851, Note_on_c, 0, 72, 0
2, 8851, Note_on_c, 0, 74, 58
2, 8856, Note_on_c, 0, 74, 0
2, 8856, Note_on_c, 0, 75, 0
2, 8856, Note_on_c, 0, 72, 60
2, 8856, Note_on_c, 0, 77, 70
2, 8904, Note_on_c, 0, 77, 0
2, 8904, Note_on_c, 0, 72, 0
2, 8904, Note_on_c, 0, 70, 60
2, 8904, Note_on_c, 0, 79, 78
2, 8928, Note_on_c, 0, 79, 0
2, 8928, Note_on_c, 0, 80, 80
2, 8928, Control_c, 0, 64, 0
2, 8950, Note_on_c, 0, 70, 0
2, 8952, Note_on_c, 0, 68, 58
2, 8974, Note_on_c, 0, 68, 0
2, 8976, Note_on_c, 0, 75, 60
2, 8976, Control_c, 0, 64, 127
2, 9048, Note_on_c, 0, 80, 0
2, 9048, Note_on_c, 0, 79, 70
2, 9072, Note_on_c, 0, 79, 0
2, 9072, Note_on_c, 0, 78, 54
2, 9072, Control_c, 0, 64, 0
2, 9096, Note_on_c, 0, 75, 0
2, 9096, Note_on_c, 0, 73, 48
2, 9120, Note_on_c, 0, 73, 0
2, 9120, Note_on_c, 0, 74, 46
2, 9144, Note_on_c, 0, 74, 0
2, 9144, Note_on_c, 0, 78, 0
2, 9144, Note_on_c, 0, 79, 70
2, 9168, Note_on_c, 0, 75, 64
2, 9192, Note_on_c, 0, 75, 0
2, 9192, Note_on_c, 0, 74, 62
2, 9216, Note_on_c, 0, 79, 0
2, 9216, Note_on_c, 0, 78, 74
2, 9216, Control_c, 0, 64, 0
2, 9238, Note_on_c, 0, 74, 0
2, 9240, Note_on_c, 0, 73, 66
2, 9249, Note_on_c, 0, 72, 64
2, 9254, Note_on_c, 0, 72, 0
2, 9254, Note_on_c, 0, 73, 0
2, 9254, Note_on_c, 0, 73, 66
2, 9259, Note_on_c, 0, 73, 0
2, 9259, Note_on_c, 0, 75, 68
2, 9264, Note_on_c, 0, 75, 0
2, 9264, Note_on_c, 0, 73, 66
2, 9270, Control_c, 0, 64, 127
2, 9336, Note_on_c, 0, 78, 0
2, 9336, Note_on_c, 0, 77, 70
2, 9360, Note_on_c, 0, 77, 0
2, 9360, Note_on_c, 0, 76, 66
2, 9360, Control_c, 0, 64, 0
2, 9384, Note_on_c, 0, 73, 0
2, 9384, Note_on_c, 0, 71, 56
2, 9408, Note_on_c, 0, 71, 0
2, 9408, Note_on_c, 0, 72, 52
2, 9430, Note_on_c, 0, 72, 0
2, 9432, Note_on_c, 0, 76, 0
2, 9432, Note_on_c, 0, 77, 48
2, 9456, Note_on_c, 0, 73, 44
2, 9480, Note_on_c, 0, 73, 0
2, 9480, Note_on_c, 0, 72, 42
2, 9504, Note_on_c, 0, 77, 0
2, 9504, Note_on_c, 0, 76, 48
2, 9504, Control_c, 0, 64, 127
2, 9526, Note_on_c, 0, 72, 0
2, 9528, Note_on_c, 0, 71, 40
2, 9537, Note_on_c, 0, 70, 34
2, 9542, Note_on_c, 0, 70, 0
2, 9542, Note_on_c, 0, 71, 0
2, 9542, Note_on_c, 0, 71, 35
2, 9547, Note_on_c, 0, 71, 0
2, 9547, Note_on_c, 0, 73, 36
2, 9552, Note_on_c, 0, 73, 0
2, 9552, Note_on_c, 0, 71, 38
2, 9624, Note_on_c, 0, 76, 0
2, 9624, Note_on_c, 0, 75, 56
2, 9648, Note_on_c, 0, 75, 0
2, 9648, Note_on_c, 0, 74, 56
2, 9650, Control_c, 0, 64, 0
2, 9656, Control_c, 0, 64, 127
2, 9694, Note_on_c, 0, 71, 0
2, 9696, Note_on_c, 0, 70, 50
2, 9718, Note_on_c, 0, 70, 0
2, 9720, Note_on_c, 0, 74, 0
2, 9720, Note_on_c, 0, 69, 54
2, 9720, Note_on_c, 0, 72, 66
2, 9722, Control_c, 0, 64, 0
2, 9728, Control_c, 0, 64, 127
2, 9766, Note_on_c, 0, 69, 0
2, 9768, Note_on_c, 0, 72, 0
2, 9768, Note_on_c, 0, 68, 58
2, 9768, Note_on_c, 0, 74, 68
2, 9790, Note_on_c, 0, 68, 0
2, 9792, Note_on_c, 0, 74, 0
2, 9792, Note_on_c, 0, 68, 66
2, 9792, Note_on_c, 0, 75, 78
2, 9792, Control_c, 0, 64, 127
2, 9794, Control_c, 0, 64, 0
2, 9800, Control_c, 0, 64, 127
2, 9814, Note_on_c, 0, 68, 0
2, 9816, Note_on_c, 0, 67, 62
2, 9838, Note_on_c, 0, 67, 0
2, 9864, Note_on_c, 0, 75, 0
2, 9864, Note_on_c, 0, 76, 66
2, 9866, Control_c, 0, 64, 0
2, 9870, Note_on_c, 0, 76, 0
2, 9870, Note_on_c, 0, 77, 70
2, 9872, Control_c, 0, 64, 127
2, 9876, Note_on_c, 0, 77, 0
2, 9876, Note_on_c, 0, 76, 72
2, 9882, Note_on_c, 0, 76, 0
2, 9882, Note_on_c, 0, 77, 73
2, 9887, Note_on_c, 0, 77, 0
2, 9888, Note_on_c, 0, 76, 74
2, 9893, Note_on_c, 0, 76, 0
2, 9893, Note_on_c, 0, 77, 74
2, 9898, Note_on_c, 0, 77, 0
2, 9898, Note_on_c, 0, 76, 74
2, 9903, Note_on_c, 0, 76, 0
2, 9903, Note_on_c, 0, 77, 74
2, 9908, Note_on_c, 0, 77, 0
2, 9908, Note_on_c, 0, 76, 72
2, 9913, Note_on_c, 0, 76, 0
2, 9913, Note_on_c, 0, 77, 70
2, 9918, Note_on_c, 0, 77, 0
2, 9918, Note_on_c, 0, 76, 68
2, 9924, Note_on_c, 0, 76, 0
2, 9924, Note_on_c, 0, 75, 84
2, 9930, Note_on_c, 0, 75, 0
2, 9930, Note_on_c, 0, 76, 84
2, 9936, Note_on_c, 0, 76, 0
2, 9936, Note_on_c, 0, 77, 74
2, 9938, Control_c, 0, 64, 0
2, 9942, Note_on_c, 0, 77, 0
2, 9942, Note_on_c, 0, 79, 76
2, 9944, Control_c, 0, 64, 127
2, 9948, Note_on_c, 0, 79, 0
2, 9948, Note_on_c, 0, 77, 78
2, 9954, Note_on_c, 0, 77, 0
2, 9954, Note_on_c, 0, 79, 80
2, 9960, Note_on_c, 0, 79, 0
2, 9960, Note_on_c, 0, 77, 82
2, 9966, Note_on_c, 0, 77, 0
2, 9966, Note_on_c, 0, 79, 83
2, 9972, Note_on_c, 0, 79, 0
2, 9972, Note_on_c, 0, 77, 84
2, 9978, Note_on_c, 0, 77, 0
2, 9978, Note_on_c, 0, 79, 84
2, 9984, Note_on_c, 0, 79, 0
2, 9984, Note_on_c, 0, 77, 83
2, 9990, Note_on_c, 0, 77, 0
2, 9990, Note_on_c, 0, 79, 82
2, 9996, Note_on_c, 0, 79, 0
2, 9996, Note_on_c, 0, 77, 80
2, 10002, Note_on_c, 0, 77, 0
2, 10002, Note_on_c, 0, 79, 78
2, 10008, Note_on_c, 0, 79, 0
2, 10008, Note_on_c, 0, 78, 78
2, 10010, Control_c, 0, 64, 0
2, 10014, Note_on_c, 0, 78, 0
2, 10014, Note_on_c, 0, 79, 80
2, 10016, Control_c, 0, 64, 127
2, 10020, Note_on_c, 0, 79, 0
2, 10020, Note_on_c, 0, 78, 82
2, 10026, Note_on_c, 0, 78, 0
2, 10026, Note_on_c, 0, 79, 84
2, 10032, Note_on_c, 0, 79, 0
2, 10032, Note_on_c, 0, 78, 85
2, 10037, Note_on_c, 0, 78, 0
2, 10037, Note_on_c, 0, 79, 86
2, 10042, Note_on_c, 0, 79, 0
2, 10042, Note_on_c, 0, 78, 86
2, 10047, Note_on_c, 0, 78, 0
2, 10047, Note_on_c, 0, 79, 85
2, 10052, Note_on_c, 0, 79, 0
2, 10052, Note_on_c, 0, 78, 84
2, 10057, Note_on_c, 0, 78, 0
2, 10057, Note_on_c, 0, 79, 82
2, 10062, Note_on_c, 0, 79, 0
2, 10062, Note_on_c, 0, 78, 80
2, 10068, Note_on_c, 0, 78, 0
2, 10068, Note_on_c, 0, 77, 88
2, 10074, Note_on_c, 0, 77, 0
2, 10074, Note_on_c, 0, 78, 86
2, 10080, Note_on_c, 0, 78, 0
2, 10080, Note_on_c, 0, 79, 86
2, 10080, Control_c, 0, 64, 127
2, 10082, Control_c, 0, 64, 0
2, 10088, Control_c, 0, 64, 127
2, 10101, Note_on_c, 0, 79, 0
2, 10101, Note_on_c, 0, 80, 88
2, 10122, Note_on_c, 0, 80, 0
2, 10122, Note_on_c, 0, 81, 90
2, 10142, Note_on_c, 0, 81, 0
2, 10142, Note_on_c, 0, 82, 89
2, 10154, Control_c, 0, 64, 0
2, 10160, Control_c, 0, 64, 127
2, 10162, Note_on_c, 0, 82, 0
2, 10162, Note_on_c, 0, 83, 82
2, 10182, Note_on_c, 0, 83, 0
2, 10182, Note_on_c, 0, 86, 86
2, 10203, Note_on_c, 0, 86, 0
2, 10203, Note_on_c, 0, 84, 82
2, 10224, Note_on_c, 0, 84, 0
2, 10224, Note_on_c, 0, 82, 74
2, 10226, Control_c, 0, 64, 0
2, 10232, Control_c, 0, 64, 127
2, 10272, Note_on_c, 0, 68, 56
2, 10288, Note_on_c, 0, 68, 0
2, 10296, Note_on_c, 0, 82, 0
2, 10296, Note_on_c, 0, 68, 56
2, 10296, Note_on_c, 0, 74, 70
2, 10296, Control_c, 0, 64, 0
2, 10302, Note_on_c, 0, 68, 0
2, 10307, Note_on_c, 0, 67, 58
2, 10313, Note_on_c, 0, 67, 0
2, 10318, Note_on_c, 0, 70, 60
2, 10320, Control_c, 0, 64, 127
2, 10324, Note_on_c, 0, 70, 0
2, 10328, Note_on_c, 0, 68, 56
2, 10334, Note_on_c, 0, 68, 0
2, 10338, Note_on_c, 0, 68, 58
2, 10344, Note_on_c, 0, 68, 0
2, 10348, Note_on_c, 0, 67, 60
2, 10354, Note_on_c, 0, 67, 0
2, 10358, Note_on_c, 0, 65, 62
2, 10364, Note_on_c, 0, 65, 0
2, 10366, Note_on_c, 0, 74, 0
2, 10368, Note_on_c, 0, 65, 64
2, 10368, Note_on_c, 0, 75, 84
2, 10368, Control_c, 0, 64, 127
2, 10370, Control_c, 0, 64, 0
2, 10376, Control_c, 0, 64, 127
2, 10378, Note_on_c, 0, 65, 0
2, 10380, Note_on_c, 0, 63, 54
2, 10386, Note_on_c, 0, 63, 0
2, 10389, Note_on_c, 0, 75, 0
2, 10389, Note_on_c, 0, 76, 82
2, 10410, Note_on_c, 0, 76, 0
2, 10410, Note_on_c, 0, 77, 84
2, 10430, Note_on_c, 0, 77, 0
2, 10430, Note_on_c, 0, 78, 87
2, 10440, Control_c, 0, 64, 0
2, 10450, Note_on_c, 0, 78, 0
2, 10450, Note_on_c, 0, 79, 90
2, 10470, Note_on_c, 0, 79, 0
2, 10470, Note_on_c, 0, 82, 88
2, 10491, Note_on_c, 0, 82, 0
2, 10491, Note_on_c, 0, 80, 80
2, 10512, Note_on_c, 0, 80, 0
2, 10512, Note_on_c, 0, 79, 74
2, 10512, Control_c, 0, 64, 127
2, 10560, Note_on_c, 0, 65, 56
2, 10572, Note_on_c, 0, 65, 0
2, 10584, Note_on_c, 0, 79, 0
2, 10584, Note_on_c, 0, 65, 58
2, 10584, Note_on_c, 0, 71, 70
2, 10590, Note_on_c, 0, 65, 0
2, 10595, Note_on_c, 0, 64, 60
2, 10601, Note_on_c, 0, 64, 0
2, 10606, Note_on_c, 0, 67, 62
2, 10608, Control_c, 0, 64, 0
2, 10612, Note_on_c, 0, 67, 0
2, 10616, Note_on_c, 0, 66, 63
2, 10622, Note_on_c, 0, 66, 0
2, 10626, Note_on_c, 0, 65, 64
2, 10632, Note_on_c, 0, 65, 0
2, 10636, Note_on_c, 0, 64, 62
2, 10642, Note_on_c, 0, 64, 0
2, 10646, Note_on_c, 0, 63, 60
2, 10652, Note_on_c, 0, 63, 0
2, 10654, Note_on_c, 0, 71, 0
2, 10656, Note_on_c, 0, 62, 54
2, 10656, Note_on_c, 0, 72, 60
2, 10656, Control_c, 0, 64, 127
2, 10662, Note_on_c, 0, 62, 0
2, 10668, Note_on_c, 0, 60, 46
2, 10674, Note_on_c, 0, 60, 0
2, 10728, Note_on_c, 0, 72, 0
2, 10728, Note_on_c, 0, 74, 68
2, 10800, Note_on_c, 0, 74, 0
2, 10800, Note_on_c, 0, 75, 76
2, 10802, Control_c, 0, 64, 0
2, 10808, Control_c, 0, 64, 127
2, 10848, Note_on_c, 0, 64, 62
2, 10848, Control_c, 0, 64, 0
2, 10858, Note_on_c, 0, 64, 0
2, 10860, Note_on_c, 0, 65, 66
2, 10870, Note_on_c, 0, 65, 0
2, 10872, Note_on_c, 0, 67, 70
2, 10882, Note_on_c, 0, 67, 0
2, 10884, Note_on_c, 0, 65, 66
2, 10894, Note_on_c, 0, 65, 0
2, 10896, Note_on_c, 0, 72, 76
2, 10896, Control_c, 0, 64, 127
2, 10920, Note_on_c, 0, 75, 0
2, 10920, Note_on_c, 0, 79, 86
2, 10938, Note_on_c, 0, 79, 0
2, 10938, Note_on_c, 0, 77, 76
2, 10944, Note_on_c, 0, 77, 0
2, 10944, Note_on_c, 0, 74, 72
2, 10944, Control_c, 0, 64, 127
2, 10946, Control_c, 0, 64, 0
2, 10952, Control_c, 0, 64, 127
2, 10992, Note_on_c, 0, 72, 0
2, 10992, Note_on_c, 0, 72, 68
2, 10998, Note_on_c, 0, 72, 0
2, 11004, Note_on_c, 0, 70, 66
2, 11010, Note_on_c, 0, 70, 0
2, 11016, Note_on_c, 0, 69, 64
2, 11022, Note_on_c, 0, 69, 0
2, 11028, Note_on_c, 0, 70, 66
2, 11034, Note_on_c, 0, 70, 0
2, 11040, Note_on_c, 0, 67, 62
2, 11046, Note_on_c, 0, 67, 0
2, 11052, Note_on_c, 0, 68, 64
2, 11058, Note_on_c, 0, 68, 0
2, 11064, Note_on_c, 0, 63, 60
2, 11070, Note_on_c, 0, 63, 0
2, 11076, Note_on_c, 0, 65, 62
2, 11082, Note_on_c, 0, 65, 0
2, 11088, Note_on_c, 0, 74, 0
2, 11088, Note_on_c, 0, 67, 64
2, 11088, Note_on_c, 0, 75, 70
2, 11090, Control_c, 0, 64, 0
2, 11096, Control_c, 0, 64, 127
2, 11100, Note_on_c, 0, 67, 0
2, 11206, Note_on_c, 0, 75, 0
2, 11208, Note_on_c, 0, 63, 56
2, 11232, Note_on_c, 0, 63, 0
2, 11232, Note_on_c, 0, 73, 58
2, 11232, Control_c, 0, 64, 127
2, 11234, Control_c, 0, 64, 0
2, 11378, Control_c, 0, 64, 0
2, 11448, Note_on_c, 0, 73, 0
2, 11448, Note_on_c, 0, 72, 56
2, 11496, Note_on_c, 0, 72, 0
2, 11496, Note_on_c, 0, 71, 54
2, 11520, Note_on_c, 0, 71, 0
2, 11520, Note_on_c, 0, 72, 54
2, 11520, Control_c, 0, 64, 0
2, 11568, Note_on_c, 0, 72, 0
2, 11568, Note_on_c, 0, 77, 52
2, 11592, Note_on_c, 0, 77, 0
2, 11592, Note_on_c, 0, 75, 50
2, 11664, Note_on_c, 0, 75, 0
2, 11664, Note_on_c, 0, 73, 54
2, 11664, Control_c, 0, 64, 0
2, 11736, Note_on_c, 0, 73, 0
2, 11736, Note_on_c, 0, 72, 52
2, 11784, Note_on_c, 0, 72, 0
2, 11784, Note_on_c, 0, 71, 50
2, 11808, Note_on_c, 0, 71, 0
2, 11808, Note_on_c, 0, 72, 54
2, 11808, Control_c, 0, 64, 127
2, 11850, Control_c, 0, 64, 0
2, 11856, Note_on_c, 0, 66, 50
2, 11856, Control_c, 0, 64, 127
2, 11865, Note_on_c, 0, 65, 48
2, 11870, Note_on_c, 0, 65, 0
2, 11870, Note_on_c, 0, 66, 0
2, 11870, Note_on_c, 0, 66, 50
2, 11875, Note_on_c, 0, 66, 0
2, 11875, Note_on_c, 0, 68, 52
2, 11880, Note_on_c, 0, 68, 0
2, 11880, Note_on_c, 0, 66, 52
2, 11940, Note_on_c, 0, 66, 0
2, 11940, Note_on_c, 0, 65, 68
2, 11948, Note_on_c, 0, 65, 0
2, 11948, Note_on_c, 0, 65, 68
2, 11948, Control_c, 0, 64, 0
2, 11952, Note_on_c, 0, 72, 0
2, 11952, Note_on_c, 0, 75, 78
2, 12024, Note_on_c, 0, 75, 0
2, 12024, Note_on_c, 0, 74, 70
2, 12072, Note_on_c, 0, 74, 0
2, 12072, Note_on_c, 0, 73, 70
2, 12096, Note_on_c, 0, 73, 0
2, 12096, Note_on_c, 0, 74, 70
2, 12096, Control_c, 0, 64, 0
2, 12142, Note_on_c, 0, 65, 0
2, 12144, Note_on_c, 0, 74, 0
2, 12144, Note_on_c, 0, 79, 76
2, 12168, Note_on_c, 0, 79, 0
2, 12168, Note_on_c, 0, 77, 72
2, 12240, Note_on_c, 0, 77, 0
2, 12240, Note_on_c, 0, 75, 72
2, 12240, Control_c, 0, 64, 0
2, 12312, Note_on_c, 0, 75, 0
2, 12312, Note_on_c, 0, 74, 68
2, 12360, Note_on_c, 0, 74, 0
2, 12360, Note_on_c, 0, 73, 66
2, 12384, Note_on_c, 0, 73, 0
2, 12384, Note_on_c, 0, 74, 68
2, 12384, Control_c, 0, 64, 127
2, 12456, Note_on_c, 0, 80, 76
2, 12456, Control_c, 0, 64, 0
2, 12600, Note_on_c, 0, 80, 0
2, 12600, Note_on_c, 0, 80, 78
2, 12600, Control_c, 0, 64, 127
2, 12670, Note_on_c, 0, 74, 0
2, 12672, Note_on_c, 0, 73, 64
2, 12672, Control_c, 0, 64, 127
2, 12674, Control_c, 0, 64, 0
2, 12680, Control_c, 0, 64, 127
2, 12744, Note_on_c, 0, 80, 0
2, 12744, Note_on_c, 0, 80, 76
2, 12744, Control_c, 0, 64, 0
2, 12888, Note_on_c, 0, 80, 0
2, 12888, Note_on_c, 0, 80, 62
2, 12888, Control_c, 0, 64, 127
2, 12958, Note_on_c, 0, 73, 0
2, 12960, Note_on_c, 0, 73, 52
2, 12960, Control_c, 0, 64, 127
2, 12962, Control_c, 0, 64, 0
2, 12968, Control_c, 0, 64, 127
2, 13032, Note_on_c, 0, 80, 0
2, 13032, Note_on_c, 0, 78, 60
2, 13080, Note_on_c, 0, 78, 0
2, 13080, Note_on_c, 0, 77, 56
2, 13102, Note_on_c, 0, 73, 0
2, 13104, Note_on_c, 0, 77, 0
2, 13104, Note_on_c, 0, 72, 54
2, 13104, Note_on_c, 0, 77, 66
2, 13106, Control_c, 0, 64, 0
2, 13112, Control_c, 0, 64, 127
2, 13152, Note_on_c, 0, 77, 0
2, 13152, Note_on_c, 0, 76, 70
2, 13176, Note_on_c, 0, 76, 0
2, 13176, Note_on_c, 0, 77, 80
2, 13224, Note_on_c, 0, 77, 0
2, 13224, Note_on_c, 0, 79, 84
2, 13248, Note_on_c, 0, 79, 0
2, 13248, Note_on_c, 0, 79, 82
2, 13248, Control_c, 0, 64, 127
2, 13250, Control_c, 0, 64, 0
2, 13256, Control_c, 0, 64, 127
2, 13296, Note_on_c, 0, 79, 0
2, 13296, Note_on_c, 0, 77, 81
2, 13320, Note_on_c, 0, 77, 0
2, 13320, Note_on_c, 0, 75, 82
2, 13366, Note_on_c, 0, 72, 0
2, 13368, Note_on_c, 0, 75, 0
2, 13368, Note_on_c, 0, 63, 62
2, 13368, Note_on_c, 0, 72, 76
2, 13392, Note_on_c, 0, 72, 0
2, 13392, Note_on_c, 0, 68, 74
2, 13392, Control_c, 0, 64, 0
2, 13398, Note_on_c, 0, 63, 0
2, 13404, Note_on_c, 0, 65, 72
2, 13410, Note_on_c, 0, 65, 0
2, 13416, Note_on_c, 0, 60, 68
2, 13422, Note_on_c, 0, 60, 0
2, 13428, Note_on_c, 0, 62, 68
2, 13434, Note_on_c, 0, 62, 0
2, 13440, Note_on_c, 0, 63, 68
2, 13446, Note_on_c, 0, 63, 0
2, 13452, Note_on_c, 0, 58, 66
2, 13458, Note_on_c, 0, 58, 0
2, 13464, Note_on_c, 0, 60, 66
2, 13470, Note_on_c, 0, 60, 0
2, 13476, Note_on_c, 0, 62, 66
2, 13482, Note_on_c, 0, 62, 0
2, 13488, Note_on_c, 0, 56, 64
2, 13494, Note_on_c, 0, 56, 0
2, 13500, Note_on_c, 0, 58, 62
2, 13506, Note_on_c, 0, 58, 0
2, 13512, Note_on_c, 0, 60, 60
2, 13518, Note_on_c, 0, 60, 0
2, 13524, Note_on_c, 0, 53, 58
2, 13530, Note_on_c, 0, 53, 0
2, 13536, Note_on_c, 0, 68, 0
2, 13536, Note_on_c, 0, 55, 54
2, 13536, Note_on_c, 0, 67, 60
2, 13536, Control_c, 0, 64, 127
2, 13546, Note_on_c, 0, 55, 0
2, 13606, Note_on_c, 0, 67, 0
2, 13656, Note_on_c, 0, 63, 52
2, 13680, Note_on_c, 0, 63, 0
2, 13680, Note_on_c, 0, 73, 60
2, 13704, Control_c, 0, 64, 0
2, 13752, Note_on_c, 0, 73, 0
2, 13752, Note_on_c, 0, 72, 58
2, 13800, Note_on_c, 0, 72, 0
2, 13800, Note_on_c, 0, 71, 56
2, 13824, Note_on_c, 0, 71, 0
2, 13824, Note_on_c, 0, 72, 58
2, 13824, Control_c, 0, 64, 0
2, 13872, Note_on_c, 0, 72, 0
2, 13872, Note_on_c, 0, 77, 46
2, 13896, Note_on_c, 0, 77, 0
2, 13896, Note_on_c, 0, 75, 40
2, 13908, Note_on_c, 0, 68, 43
2, 13914, Note_on_c, 0, 68, 0
2, 13920, Note_on_c, 0, 67, 46
2, 13926, Note_on_c, 0, 67, 0
2, 13932, Note_on_c, 0, 66, 50
2, 13938, Note_on_c, 0, 66, 0
2, 13944, Note_on_c, 0, 65, 55
2, 13950, Note_on_c, 0, 65, 0
2, 13956, Note_on_c, 0, 64, 60
2, 13962, Note_on_c, 0, 64, 0
2, 13968, Note_on_c, 0, 75, 0
2, 13968, Note_on_c, 0, 63, 58
2, 13968, Note_on_c, 0, 73, 66
2, 13968, Control_c, 0, 64, 0
2, 14040, Note_on_c, 0, 73, 0
2, 14040, Note_on_c, 0, 72, 70
2, 14088, Note_on_c, 0, 72, 0
2, 14088, Note_on_c, 0, 71, 70
2, 14112, Note_on_c, 0, 71, 0
2, 14112, Note_on_c, 0, 72, 72
2, 14112, Control_c, 0, 64, 127
2, 14154, Control_c, 0, 64, 0
2, 14158, Note_on_c, 0, 63, 0
2, 14160, Note_on_c, 0, 66, 64
2, 14160, Control_c, 0, 64, 127
2, 14169, Note_on_c, 0, 65, 60
2, 14174, Note_on_c, 0, 65, 0
2, 14174, Note_on_c, 0, 66, 0
2, 14174, Note_on_c, 0, 66, 64
2, 14179, Note_on_c, 0, 66, 0
2, 14179, Note_on_c, 0, 68, 68
2, 14184, Note_on_c, 0, 68, 0
2, 14184, Note_on_c, 0, 66, 64
2, 14244, Note_on_c, 0, 66, 0
2, 14244, Note_on_c, 0, 65, 74
2, 14252, Note_on_c, 0, 65, 0
2, 14252, Note_on_c, 0, 65, 74
2, 14252, Control_c, 0, 64, 0
2, 14256, Note_on_c, 0, 72, 0
2, 14256, Note_on_c, 0, 75, 78
2, 14328, Note_on_c, 0, 75, 0
2, 14328, Note_on_c, 0, 74, 72
2, 14376, Note_on_c, 0, 74, 0
2, 14376, Note_on_c, 0, 73, 70
2, 14400, Note_on_c, 0, 73, 0
2, 14400, Note_on_c, 0, 74, 68
2, 14400, Control_c, 0, 64, 0
2, 14446, Note_on_c, 0, 65, 0
2, 14448, Note_on_c, 0, 74, 0
2, 14448, Note_on_c, 0, 79, 66
2, 14472, Note_on_c, 0, 79, 0
2, 14472, Note_on_c, 0, 77, 60
2, 14484, Note_on_c, 0, 70, 60
2, 14490, Note_on_c, 0, 70, 0
2, 14496, Note_on_c, 0, 69, 56
2, 14502, Note_on_c, 0, 69, 0
2, 14508, Note_on_c, 0, 68, 50
2, 14514, Note_on_c, 0, 68, 0
2, 14520, Note_on_c, 0, 67, 52
2, 14526, Note_on_c, 0, 67, 0
2, 14532, Note_on_c, 0, 66, 53
2, 14538, Note_on_c, 0, 66, 0
2, 14544, Note_on_c, 0, 77, 0
2, 14544, Note_on_c, 0, 65, 54
2, 14544, Note_on_c, 0, 75, 72
2, 14544, Control_c, 0, 64, 0
2, 14616, Note_on_c, 0, 75, 0
2, 14616, Note_on_c, 0, 74, 64
2, 14664, Note_on_c, 0, 74, 0
2, 14664, Note_on_c, 0, 73, 62
2, 14688, Note_on_c, 0, 73, 0
2, 14688, Note_on_c, 0, 74, 60
2, 14688, Control_c, 0, 64, 127
2, 14689, Note_on_c, 0, 65, 0
2, 14760, Note_on_c, 0, 80, 68
2, 14760, Control_c, 0, 64, 0
2, 14904, Note_on_c, 0, 80, 0
2, 14904, Note_on_c, 0, 80, 60
2, 14904, Control_c, 0, 64, 127
2, 14974, Note_on_c, 0, 74, 0
2, 14976, Note_on_c, 0, 73, 32
2, 14976, Control_c, 0, 64, 127
2, 14978, Control_c, 0, 64, 0
2, 14982, Note_on_c, 0, 75, 33
2, 14984, Note_on_c, 0, 73, 0
2, 14984, Control_c, 0, 64, 127
2, 14988, Note_on_c, 0, 73, 34
2, 14990, Note_on_c, 0, 75, 0
2, 14994, Note_on_c, 0, 75, 35
2, 14996, Note_on_c, 0, 73, 0
2, 15000, Note_on_c, 0, 73, 36
2, 15002, Note_on_c, 0, 75, 0
2, 15006, Note_on_c, 0, 75, 36
2, 15008, Note_on_c, 0, 73, 0
2, 15012, Note_on_c, 0, 73, 36
2, 15014, Note_on_c, 0, 75, 0
2, 15018, Note_on_c, 0, 75, 36
2, 15020, Note_on_c, 0, 73, 0
2, 15024, Note_on_c, 0, 73, 36
2, 15026, Note_on_c, 0, 75, 0
2, 15030, Note_on_c, 0, 75, 36
2, 15032, Note_on_c, 0, 73, 0
2, 15036, Note_on_c, 0, 73, 36
2, 15038, Note_on_c, 0, 75, 0
2, 15042, Note_on_c, 0, 75, 36
2, 15044, Note_on_c, 0, 73, 0
2, 15048, Note_on_c, 0, 80, 0
2, 15048, Note_on_c, 0, 73, 36
2, 15048, Note_on_c, 0, 80, 60
2, 15050, Note_on_c, 0, 75, 0
2, 15054, Note_on_c, 0, 75, 36
2, 15056, Note_on_c, 0, 73, 0
2, 15060, Note_on_c, 0, 73, 36
2, 15062, Note_on_c, 0, 75, 0
2, 15066, Note_on_c, 0, 75, 36
2, 15068, Note_on_c, 0, 73, 0
2, 15072, Note_on_c, 0, 73, 36
2, 15072, Control_c, 0, 64, 0
2, 15074, Note_on_c, 0, 75, 0
2, 15078, Note_on_c, 0, 75, 36
2, 15080, Note_on_c, 0, 73, 0
2, 15084, Note_on_c, 0, 73, 36
2, 15086, Note_on_c, 0, 75, 0
2, 15090, Note_on_c, 0, 75, 36
2, 15092, Note_on_c, 0, 73, 0
2, 15096, Note_on_c, 0, 73, 36
2, 15098, Note_on_c, 0, 75, 0
2, 15102, Note_on_c, 0, 75, 36
2, 15104, Note_on_c, 0, 73, 0
2, 15108, Note_on_c, 0, 73, 36
2, 15110, Note_on_c, 0, 75, 0
2, 15114, Note_on_c, 0, 75, 36
2, 15116, Note_on_c, 0, 73, 0
2, 15120, Note_on_c, 0, 73, 36
2, 15122, Note_on_c, 0, 75, 0
2, 15126, Note_on_c, 0, 75, 36
2, 15128, Note_on_c, 0, 73, 0
2, 15132, Note_on_c, 0, 73, 36
2, 15134, Note_on_c, 0, 75, 0
2, 15138, Note_on_c, 0, 75, 36
2, 15140, Note_on_c, 0, 73, 0
2, 15144, Note_on_c, 0, 73, 36
2, 15146, Note_on_c, 0, 75, 0
2, 15150, Note_on_c, 0, 75, 36
2, 15152, Note_on_c, 0, 73, 0
2, 15156, Note_on_c, 0, 73, 36
2, 15158, Note_on_c, 0, 75, 0
2, 15162, Note_on_c, 0, 75, 36
2, 15164, Note_on_c, 0, 73, 0
2, 15168, Note_on_c, 0, 73, 36
2, 15170, Note_on_c, 0, 75, 0
2, 15174, Note_on_c, 0, 75, 36
2, 15176, Note_on_c, 0, 73, 0
2, 15180, Note_on_c, 0, 73, 36
2, 15182, Note_on_c, 0, 75, 0
2, 15186, Note_on_c, 0, 75, 36
2, 15188, Note_on_c, 0, 73, 0
2, 15192, Note_on_c, 0, 80, 0
2, 15192, Note_on_c, 0, 73, 36
2, 15192, Note_on_c, 0, 80, 50
2, 15192, Control_c, 0, 64, 127
2, 15194, Note_on_c, 0, 75, 0
2, 15198, Note_on_c, 0, 75, 36
2, 15200, Note_on_c, 0, 73, 0
2, 15204, Note_on_c, 0, 73, 36
2, 15206, Note_on_c, 0, 75, 0
2, 15210, Note_on_c, 0, 75, 36
2, 15212, Note_on_c, 0, 73, 0
2, 15216, Note_on_c, 0, 73, 36
2, 15218, Note_on_c, 0, 75, 0
2, 15222, Note_on_c, 0, 75, 36
2, 15224, Note_on_c, 0, 73, 0
2, 15228, Note_on_c, 0, 73, 35
2, 15230, Note_on_c, 0, 75, 0
2, 15234, Note_on_c, 0, 75, 34
2, 15236, Note_on_c, 0, 73, 0
2, 15240, Note_on_c, 0, 73, 33
2, 15242, Note_on_c, 0, 75, 0
2, 15246, Note_on_c, 0, 75, 32
2, 15248, Note_on_c, 0, 73, 0
2, 15252, Note_on_c, 0, 73, 31
2, 15254, Note_on_c, 0, 75, 0
2, 15258, Note_on_c, 0, 75, 30
2, 15260, Note_on_c, 0, 73, 0
2, 15264, Note_on_c, 0, 73, 28
2, 15266, Note_on_c, 0, 75, 0
2, 15270, Note_on_c, 0, 75, 26
2, 15272, Note_on_c, 0, 73, 0
2, 15276, Note_on_c, 0, 73, 32
2, 15276, Control_c, 0, 64, 127
2, 15278, Note_on_c, 0, 75, 0
2, 15278, Control_c, 0, 64, 0
2, 15282, Note_on_c, 0, 75, 34
2, 15284, Note_on_c, 0, 73, 0
2, 15284, Control_c, 0, 64, 127
2, 15288, Note_on_c, 0, 73, 36
2, 15290, Note_on_c, 0, 75, 0
2, 15294, Note_on_c, 0, 75, 38
2, 15296, Note_on_c, 0, 73, 0
2, 15300, Note_on_c, 0, 73, 40
2, 15302, Note_on_c, 0, 75, 0
2, 15306, Note_on_c, 0, 75, 41
2, 15308, Note_on_c, 0, 73, 0
2, 15312, Note_on_c, 0, 73, 42
2, 15314, Note_on_c, 0, 75, 0
2, 15318, Note_on_c, 0, 75, 43
2, 15320, Note_on_c, 0, 73, 0
2, 15324, Note_on_c, 0, 73, 44
2, 15326, Note_on_c, 0, 75, 0
2, 15330, Note_on_c, 0, 75, 45
2, 15332, Note_on_c, 0, 73, 0
2, 15336, Note_on_c, 0, 73, 46
2, 15338, Note_on_c, 0, 75, 0
2, 15342, Note_on_c, 0, 75, 46
2, 15344, Note_on_c, 0, 73, 0
2, 15348, Note_on_c, 0, 73, 46
2, 15350, Note_on_c, 0, 75, 0
2, 15350, Note_on_c, 0, 80, 0
2, 15350, Note_on_c, 0, 78, 60
2, 15354, Note_on_c, 0, 75, 46
2, 15356, Note_on_c, 0, 73, 0
2, 15360, Note_on_c, 0, 73, 45
2, 15362, Note_on_c, 0, 75, 0
2, 15366, Note_on_c, 0, 75, 45
2, 15368, Note_on_c, 0, 73, 0
2, 15372, Note_on_c, 0, 73, 44
2, 15374, Note_on_c, 0, 75, 0
2, 15378, Note_on_c, 0, 75, 43
2, 15380, Note_on_c, 0, 73, 0
2, 15384, Note_on_c, 0, 73, 42
2, 15386, Note_on_c, 0, 75, 0
2, 15390, Note_on_c, 0, 75, 41
2, 15392, Note_on_c, 0, 73, 0
2, 15397, Note_on_c, 0, 78, 0
2, 15397, Note_on_c, 0, 73, 39
2, 15397, Note_on_c, 0, 77, 66
2, 15399, Note_on_c, 0, 75, 0
2, 15405, Note_on_c, 0, 75, 38
2, 15407, Note_on_c, 0, 73, 0
2, 15421, Note_on_c, 0, 75, 0
2, 15421, Note_on_c, 0, 77, 0
2, 15423, Note_on_c, 0, 72, 44
2, 15423, Note_on_c, 0, 77, 74
2, 15425, Control_c, 0, 64, 0
2, 15430, Note_on_c, 0, 73, 46
2, 15431, Control_c, 0, 64, 127
2, 15432, Note_on_c, 0, 72, 0
2, 15436, Note_on_c, 0, 72, 48
2, 15438, Note_on_c, 0, 73, 0
2, 15442, Note_on_c, 0, 73, 50
2, 15444, Note_on_c, 0, 72, 0
2, 15448, Note_on_c, 0, 72, 52
2, 15450, Note_on_c, 0, 73, 0
2, 15454, Note_on_c, 0, 73, 54
2, 15456, Note_on_c, 0, 72, 0
2, 15460, Note_on_c, 0, 72, 56
2, 15462, Note_on_c, 0, 73, 0
2, 15466, Note_on_c, 0, 73, 58
2, 15468, Note_on_c, 0, 72, 0
2, 15472, Note_on_c, 0, 77, 0
2, 15472, Note_on_c, 0, 72, 60
2, 15472, Note_on_c, 0, 76, 82
2, 15474, Note_on_c, 0, 73, 0
2, 15478, Note_on_c, 0, 73, 60
2, 15480, Note_on_c, 0, 72, 0
2, 15484, Note_on_c, 0, 72, 59
2, 15486, Note_on_c, 0, 73, 0
2, 15490, Note_on_c, 0, 73, 58
2, 15492, Note_on_c, 0, 72, 0
2, 15497, Note_on_c, 0, 76, 0
2, 15497, Note_on_c, 0, 72, 58
2, 15497, Note_on_c, 0, 77, 80
2, 15499, Note_on_c, 0, 73, 0
2, 15505, Note_on_c, 0, 73, 58
2, 15507, Note_on_c, 0, 72, 0
2, 15512, Note_on_c, 0, 72, 60
2, 15514, Note_on_c, 0, 73, 0
2, 15519, Note_on_c, 0, 73, 62
2, 15521, Note_on_c, 0, 72, 0
2, 15526, Note_on_c, 0, 72, 64
2, 15528, Note_on_c, 0, 73, 0
2, 15533, Note_on_c, 0, 73, 64
2, 15535, Note_on_c, 0, 72, 0
2, 15540, Note_on_c, 0, 72, 63
2, 15542, Note_on_c, 0, 73, 0
2, 15547, Note_on_c, 0, 73, 62
2, 15549, Note_on_c, 0, 72, 0
2, 15551, Note_on_c, 0, 77, 0
2, 15554, Note_on_c, 0, 72, 60
2, 15554, Note_on_c, 0, 79, 88
2, 15556, Note_on_c, 0, 73, 0
2, 15561, Note_on_c, 0, 73, 58
2, 15563, Note_on_c, 0, 72, 0
2, 15568, Note_on_c, 0, 72, 56
2, 15570, Note_on_c, 0, 73, 0
2, 15575, Note_on_c, 0, 73, 52
2, 15577, Note_on_c, 0, 72, 0
2, 15578, Note_on_c, 0, 79, 0
2, 15584, Note_on_c, 0, 73, 0
2, 15584, Note_on_c, 0, 72, 48
2, 15584, Note_on_c, 0, 79, 88
2, 15584, Control_c, 0, 64, 127
2, 15586, Control_c, 0, 64, 0
2, 15590, Note_on_c, 0, 74, 52
2, 15592, Note_on_c, 0, 72, 0
2, 15592, Control_c, 0, 64, 127
2, 15596, Note_on_c, 0, 72, 55
2, 15598, Note_on_c, 0, 74, 0
2, 15602, Note_on_c, 0, 74, 58
2, 15604, Note_on_c, 0, 72, 0
2, 15608, Note_on_c, 0, 72, 60
2, 15610, Note_on_c, 0, 74, 0
2, 15614, Note_on_c, 0, 74, 60
2, 15616, Note_on_c, 0, 72, 0
2, 15620, Note_on_c, 0, 72, 60
2, 15622, Note_on_c, 0, 74, 0
2, 15626, Note_on_c, 0, 74, 58
2, 15628, Note_on_c, 0, 72, 0
2, 15632, Note_on_c, 0, 72, 54
2, 15634, Note_on_c, 0, 74, 0
2, 15638, Note_on_c, 0, 74, 50
2, 15640, Note_on_c, 0, 72, 0
2, 15644, Note_on_c, 0, 79, 0
2, 15644, Note_on_c, 0, 72, 50
2, 15644, Note_on_c, 0, 77, 78
2, 15646, Note_on_c, 0, 74, 0
2, 15652, Note_on_c, 0, 71, 60
2, 15653, Note_on_c, 0, 72, 0
2, 15660, Note_on_c, 0, 72, 60
2, 15661, Note_on_c, 0, 71, 0
2, 15668, Note_on_c, 0, 72, 0
2, 15668, Note_on_c, 0, 77, 0
2, 15668, Note_on_c, 0, 75, 80
2, 15668, Note_on_c, 0, 84, 90
2, 15716, Note_on_c, 0, 84, 0
2, 15716, Note_on_c, 0, 75, 0
2, 15716, Note_on_c, 0, 72, 74
2, 15716, Note_on_c, 0, 84, 88
2, 15734, Note_on_c, 0, 68, 68
2, 15740, Note_on_c, 0, 84, 0
2, 15740, Note_on_c, 0, 72, 0
2, 15740, Note_on_c, 0, 84, 88
2, 15742, Control_c, 0, 64, 0
2, 15748, Control_c, 0, 64, 127
2, 15788, Note_on_c, 0, 84, 0
2, 15788, Note_on_c, 0, 77, 76
2, 15812, Note_on_c, 0, 77, 0
2, 15812, Note_on_c, 0, 79, 74
2, 15858, Note_on_c, 0, 68, 0
2, 15860, Note_on_c, 0, 79, 0
2, 15860, Note_on_c, 0, 68, 50
2, 15860, Note_on_c, 0, 74, 54
2, 15884, Note_on_c, 0, 74, 0
2, 15884, Note_on_c, 0, 68, 0
2, 15884, Note_on_c, 0, 68, 48
2, 15884, Note_on_c, 0, 75, 50
2, 15884, Control_c, 0, 64, 127
2, 15886, Control_c, 0, 64, 0
2, 15892, Control_c, 0, 64, 127
2, 15896, Note_on_c, 0, 68, 0
2, 15896, Note_on_c, 0, 67, 42
2, 15956, Control_c, 0, 64, 0
2, 16028, Control_c, 0, 64, 127
2, 16170, Note_on_c, 0, 67, 0
2, 16170, Note_on_c, 0, 75, 0
2, 16172, Note_on_c, 0, 66, 40
2, 16172, Note_on_c, 0, 75, 50
2, 16172, Control_c, 0, 64, 127
2, 16174, Control_c, 0, 64, 0
2, 16180, Control_c, 0, 64, 127
2, 16244, Control_c, 0, 64, 0
2, 16316, Note_on_c, 0, 75, 0
2, 16316, Note_on_c, 0, 73, 46
2, 16316, Control_c, 0, 64, 127
2, 16436, Note_on_c, 0, 73, 0
2, 16436, Note_on_c, 0, 75, 44
2, 16460, Note_on_c, 0, 75, 0
2, 16460, Note_on_c, 0, 71, 40
2, 16460, Control_c, 0, 64, 127
2, 16462, Control_c, 0, 64, 0
2, 16468, Control_c, 0, 64, 127
2, 16602, Note_on_c, 0, 66, 0
2, 16604, Note_on_c, 0, 71, 0
2, 16604, Note_on_c, 0, 83, 50
2, 16606, Control_c, 0, 64, 0
2, 16612, Control_c, 0, 64, 127
2, 16736, Note_on_c, 0, 83, 0
2, 16736, Note_on_c, 0, 82, 36
2, 16748, Note_on_c, 0, 82, 0
2, 16748, Note_on_c, 0, 82, 42
2, 16748, Control_c, 0, 64, 127
2, 16750, Control_c, 0, 64, 0
2, 16756, Control_c, 0, 64, 127
2, 16820, Note_on_c, 0, 82, 0
2, 16820, Note_on_c, 0, 94, 70
2, 16868, Note_on_c, 0, 94, 0
2, 16868, Note_on_c, 0, 93, 60
2, 16892, Note_on_c, 0, 93, 0
2, 16892, Note_on_c, 0, 92, 56
2, 16894, Control_c, 0, 64, 0
2, 16900, Control_c, 0, 64, 127
2, 16910, Note_on_c, 0, 92, 0
2, 16910, Note_on_c, 0, 82, 50
2, 16928, Note_on_c, 0, 82, 0
2, 16928, Note_on_c, 0, 91, 56
2, 16946, Note_on_c, 0, 91, 0
2, 16946, Note_on_c, 0, 89, 54
2, 16964, Note_on_c, 0, 89, 0
2, 16964, Note_on_c, 0, 87, 50
2, 16982, Note_on_c, 0, 87, 0
2, 16982, Note_on_c, 0, 79, 44
2, 17000, Note_on_c, 0, 79, 0
2, 17000, Note_on_c, 0, 86, 52
2, 17018, Note_on_c, 0, 86, 0
2, 17018, Note_on_c, 0, 84, 48
2, 17036, Note_on_c, 0, 84, 0
2, 17036, Note_on_c, 0, 79, 49
2, 17036, Note_on_c, 0, 82, 53
2, 17036, Control_c, 0, 64, 127
2, 17038, Control_c, 0, 64, 0
2, 17044, Control_c, 0, 64, 127
2, 17060, Note_on_c, 0, 79, 0
2, 17060, Note_on_c, 0, 80, 53
2, 17084, Note_on_c, 0, 80, 0
2, 17084, Note_on_c, 0, 75, 45
2, 17108, Note_on_c, 0, 75, 0
2, 17108, Note_on_c, 0, 82, 0
2, 17108, Note_on_c, 0, 77, 43
2, 17108, Note_on_c, 0, 82, 63
2, 17123, Note_on_c, 0, 77, 0
2, 17123, Note_on_c, 0, 75, 47
2, 17137, Note_on_c, 0, 75, 0
2, 17137, Note_on_c, 0, 77, 49
2, 17151, Note_on_c, 0, 77, 0
2, 17151, Note_on_c, 0, 79, 55
2, 17165, Note_on_c, 0, 79, 0
2, 17165, Note_on_c, 0, 74, 49
2, 17180, Note_on_c, 0, 74, 0
2, 17180, Note_on_c, 0, 82, 0
2, 17180, Note_on_c, 0, 75, 43
2, 17180, Note_on_c, 0, 82, 63
2, 17182, Control_c, 0, 64, 0
2, 17188, Control_c, 0, 64, 127
2, 17195, Note_on_c, 0, 75, 0
2, 17195, Note_on_c, 0, 74, 47
2, 17209, Note_on_c, 0, 74, 0
2, 17209, Note_on_c, 0, 75, 48
2, 17223, Note_on_c, 0, 75, 0
2, 17223, Note_on_c, 0, 77, 49
2, 17237, Note_on_c, 0, 77, 0
2, 17237, Note_on_c, 0, 72, 47
2, 17252, Note_on_c, 0, 72, 0
2, 17252, Note_on_c, 0, 82, 0
2, 17252, Note_on_c, 0, 74, 42
2, 17252, Note_on_c, 0, 82, 62
2, 17267, Note_on_c, 0, 74, 0
2, 17267, Note_on_c, 0, 72, 46
2, 17281, Note_on_c, 0, 72, 0
2, 17281, Note_on_c, 0, 74, 47
2, 17295, Note_on_c, 0, 74, 0
2, 17295, Note_on_c, 0, 75, 48
2, 17309, Note_on_c, 0, 75, 0
2, 17309, Note_on_c, 0, 70, 46
2, 17324, Note_on_c, 0, 70, 0
2, 17324, Note_on_c, 0, 82, 0
2, 17324, Note_on_c, 0, 74, 41
2, 17324, Note_on_c, 0, 82, 61
2, 17324, Control_c, 0, 64, 127
2, 17339, Note_on_c, 0, 74, 0
2, 17339, Note_on_c, 0, 72, 45
2, 17353, Note_on_c, 0, 72, 0
2, 17353, Note_on_c, 0, 74, 46
2, 17367, Note_on_c, 0, 74, 0
2, 17367, Note_on_c, 0, 75, 47
2, 17381, Note_on_c, 0, 75, 0
2, 17381, Note_on_c, 0, 70, 45
2, 17396, Note_on_c, 0, 70, 0
2, 17396, Note_on_c, 0, 82, 0
2, 17396, Note_on_c, 0, 72, 40
2, 17396, Note_on_c, 0, 82, 58
2, 17411, Note_on_c, 0, 72, 0
2, 17411, Note_on_c, 0, 70, 44
2, 17425, Note_on_c, 0, 70, 0
2, 17425, Note_on_c, 0, 72, 45
2, 17439, Note_on_c, 0, 72, 0
2, 17439, Note_on_c, 0, 74, 46
2, 17453, Note_on_c, 0, 74, 0
2, 17453, Note_on_c, 0, 68, 44
2, 17468, Note_on_c, 0, 68, 0
2, 17468, Note_on_c, 0, 82, 0
2, 17468, Note_on_c, 0, 70, 39
2, 17468, Note_on_c, 0, 82, 48
2, 17468, Control_c, 0, 64, 127
2, 17483, Note_on_c, 0, 70, 0
2, 17483, Note_on_c, 0, 68, 43
2, 17497, Note_on_c, 0, 68, 0
2, 17497, Note_on_c, 0, 70, 44
2, 17511, Note_on_c, 0, 70, 0
2, 17511, Note_on_c, 0, 72, 45
2, 17525, Note_on_c, 0, 72, 0
2, 17525, Note_on_c, 0, 67, 43
2, 17540, Note_on_c, 0, 67, 0
2, 17540, Note_on_c, 0, 82, 0
2, 17540, Note_on_c, 0, 68, 45
2, 17555, Note_on_c, 0, 68, 0
2, 17555, Note_on_c, 0, 67, 43
2, 17569, Note_on_c, 0, 67, 0
2, 17569, Note_on_c, 0, 68, 42
2, 17583, Note_on_c, 0, 68, 0
2, 17583, Note_on_c, 0, 70, 39
2, 17597, Note_on_c, 0, 70, 0
2, 17597, Note_on_c, 0, 65, 33
2, 17612, Note_on_c, 0, 65, 0
2, 17612, Note_on_c, 0, 70, 41
2, 17612, Control_c, 0, 64, 127
2, 17627, Note_on_c, 0, 70, 0
2, 17627, Note_on_c, 0, 68, 39
2, 17641, Note_on_c, 0, 68, 0
2, 17641, Note_on_c, 0, 70, 40
2, 17655, Note_on_c, 0, 70, 0
2, 17655, Note_on_c, 0, 72, 41
2, 17669, Note_on_c, 0, 72, 0
2, 17669, Note_on_c, 0, 63, 51
2, 17684, Note_on_c, 0, 63, 0
2, 17684, Note_on_c, 0, 72, 41
2, 17686, Control_c, 0, 64, 0
2, 17692, Control_c, 0, 64, 127
2, 17699, Note_on_c, 0, 72, 0
2, 17699, Note_on_c, 0, 70, 39
2, 17713, Note_on_c, 0, 70, 0
2, 17713, Note_on_c, 0, 72, 40
2, 17727, Note_on_c, 0, 72, 0
2, 17727, Note_on_c, 0, 74, 41
2, 17741, Note_on_c, 0, 74, 0
2, 17741, Note_on_c, 0, 62, 49
2, 17756, Note_on_c, 0, 62, 0
2, 17756, Note_on_c, 0, 74, 41
2, 17758, Control_c, 0, 64, 0
2, 17764, Control_c, 0, 64, 127
2, 17771, Note_on_c, 0, 74, 0
2, 17771, Note_on_c, 0, 72, 39
2, 17785, Note_on_c, 0, 72, 0
2, 17785, Note_on_c, 0, 74, 40
2, 17799, Note_on_c, 0, 74, 0
2, 17799, Note_on_c, 0, 75, 41
2, 17813, Note_on_c, 0, 75, 0
2, 17813, Note_on_c, 0, 60, 47
2, 17828, Note_on_c, 0, 60, 0
2, 17828, Note_on_c, 0, 75, 41
2, 17830, Control_c, 0, 64, 0
2, 17836, Control_c, 0, 64, 127
2, 17843, Note_on_c, 0, 75, 0
2, 17843, Note_on_c, 0, 74, 39
2, 17857, Note_on_c, 0, 74, 0
2, 17857, Note_on_c, 0, 75, 37
2, 17871, Note_on_c, 0, 75, 0
2, 17871, Note_on_c, 0, 77, 35
2, 17885, Note_on_c, 0, 77, 0
2, 17885, Note_on_c, 0, 58, 40
2, 17900, Note_on_c, 0, 58, 0
2, 17900, Note_on_c, 0, 65, 33
2, 17900, Control_c, 0, 64, 127
2, 17902, Control_c, 0, 64, 0
2, 17904, Note_on_c, 0, 70, 35
2, 17908, Note_on_c, 0, 77, 37
2, 17908, Control_c, 0, 64, 127
2, 17946, Note_on_c, 0, 77, 0
2, 17946, Note_on_c, 0, 70, 0
2, 17946, Note_on_c, 0, 65, 0
2, 17972, Note_on_c, 0, 67, 40
2, 17972, Note_on_c, 0, 73, 45
2, 17972, Note_on_c, 0, 75, 45
2, 17972, Note_on_c, 0, 79, 60
2, 17972, Control_c, 0, 64, 0
2, 18044, Note_on_c, 0, 79, 0
2, 18044, Note_on_c, 0, 67, 0
2, 18044, Note_on_c, 0, 73, 0
2, 18044, Note_on_c, 0, 75, 0
2, 18044, Note_on_c, 0, 68, 50
2, 18044, Note_on_c, 0, 72, 55
2, 18044, Note_on_c, 0, 80, 65
2, 18044, Control_c, 0, 64, 127
2, 18116, Note_on_c, 0, 80, 0
2, 18116, Note_on_c, 0, 72, 0
2, 18116, Note_on_c, 0, 68, 0
2, 18116, Note_on_c, 0, 63, 45
2, 18116, Note_on_c, 0, 72, 55
2, 18188, Note_on_c, 0, 72, 0
2, 18188, Note_on_c, 0, 63, 0
2, 18188, Note_on_c, 0, 63, 30
2, 18188, Note_on_c, 0, 68, 35
2, 18188, Note_on_c, 0, 72, 45
2, 18188, Control_c, 0, 64, 0
2, 18212, Note_on_c, 0, 72, 0
2, 18212, Note_on_c, 0, 68, 0
2, 18212, Note_on_c, 0, 67, 25
2, 18212, Note_on_c, 0, 70, 32
2, 18212, Control_c, 0, 64, 127
2, 18258, Note_on_c, 0, 70, 0
2, 18258, Note_on_c, 0, 67, 0
2, 18258, Note_on_c, 0, 63, 0
2, 18332, Note_on_c, 0, 67, 48
2, 18334, Control_c, 0, 64, 0
2, 18340, Control_c, 0, 64, 127
2, 18356, Note_on_c, 0, 67, 0
2, 18356, Note_on_c, 0, 70, 52
2, 18380, Note_on_c, 0, 70, 0
2, 18380, Note_on_c, 0, 75, 56
2, 18404, Note_on_c, 0, 75, 0
2, 18404, Note_on_c, 0, 79, 64
2, 18428, Note_on_c, 0, 79, 0
2, 18428, Note_on_c, 0, 82, 68
2, 18452, Note_on_c, 0, 82, 0
2, 18452, Note_on_c, 0, 92, 68
2, 18476, Note_on_c, 0, 92, 0
2, 18476, Note_on_c, 0, 91, 62
2, 18476, Control_c, 0, 64, 127
2, 18478, Control_c, 0, 64, 0
2, 18484, Control_c, 0, 64, 127
2, 18546, Note_on_c, 0, 91, 0
2, 18620, Note_on_c, 0, 63, 30
2, 18620, Note_on_c, 0, 70, 40
2, 18670, Control_c, 0, 64, 0
2, 18676, Control_c, 0, 64, 127
2, 18692, Note_on_c, 0, 70, 0
2, 18692, Note_on_c, 0, 63, 0
2, 18692, Note_on_c, 0, 62, 35
2, 18692, Note_on_c, 0, 70, 45
2, 18764, Note_on_c, 0, 70, 0
2, 18764, Note_on_c, 0, 62, 0
2, 18764, Note_on_c, 0, 65, 40
2, 18764, Note_on_c, 0, 70, 50
2, 18764, Control_c, 0, 64, 127
2, 18906, Note_on_c, 0, 70, 0
2, 18906, Note_on_c, 0, 65, 0
2, 18908, Control_c, 0, 64, 0
2, 18980, Note_on_c, 0, 55, 50
2, 18980, Note_on_c, 0, 63, 55
2, 18980, Note_on_c, 0, 67, 60
2, 18980, Control_c, 0, 64, 127
2, 19052, Note_on_c, 0, 67, 0
2, 19052, Note_on_c, 0, 63, 0
2, 19052, Note_on_c, 0, 55, 0
2, 19052, Note_on_c, 0, 55, 45
2, 19052, Note_on_c, 0, 58, 50
2, 19052, Note_on_c, 0, 63, 55
2, 19052, Note_on_c, 0, 67, 60
2, 19052, Control_c, 0, 64, 127
2, 19196, Control_c, 0, 64, 127
2, 19340, Control_c, 0, 64, 127
2, 19410, Note_on_c, 0, 67, 0
2, 19410, Note_on_c, 0, 55, 0
2, 19410, Note_on_c, 0, 58, 0
2, 19410, Note_on_c, 0, 63, 0
2, 19412, Control_c, 0, 64, 0
2, 19412, End_track
3, 0, Start_track
3, 0, MIDI_port, 0
3, 0, Title_t, "Piano L"
3, 0, Control_c, 0, 0, 0
3, 0, Control_c, 0, 32, 0
3, 0, Program_c, 0, 0
3, 0, Control_c, 0, 7, 127
3, 0, Control_c, 0, 10, 70
3, 26, Control_c, 0, 91, 90
3, 54, Control_c, 0, 93, 80
3, 432, Note_on_c, 0, 34, 30
3, 432, Control_c, 0, 64, 127
3, 456, Note_on_c, 0, 34, 0
3, 456, Note_on_c, 0, 46, 32
3, 480, Note_on_c, 0, 46, 0
3, 480, Note_on_c, 0, 56, 36
3, 504, Note_on_c, 0, 56, 0
3, 504, Note_on_c, 0, 60, 38
3, 506, Control_c, 0, 64, 0
3, 512, Control_c, 0, 64, 127
3, 528, Note_on_c, 0, 60, 0
3, 528, Note_on_c, 0, 58, 35
3, 552, Note_on_c, 0, 58, 0
3, 552, Note_on_c, 0, 68, 32
3, 576, Note_on_c, 0, 68, 0
3, 576, Note_on_c, 0, 67, 32
3, 576, Control_c, 0, 64, 127
3, 578, Control_c, 0, 64, 0
3, 584, Control_c, 0, 64, 127
3, 600, Note_on_c, 0, 67, 0
3, 600, Note_on_c, 0, 63, 36
3, 624, Note_on_c, 0, 63, 0
3, 624, Note_on_c, 0, 58, 38
3, 648, Note_on_c, 0, 58, 0
3, 648, Note_on_c, 0, 55, 40
3, 672, Note_on_c, 0, 55, 0
3, 672, Note_on_c, 0, 46, 42
3, 696, Note_on_c, 0, 46, 0
3, 696, Note_on_c, 0, 39, 38
3, 720, Note_on_c, 0, 39, 0
3, 720, Note_on_c, 0, 43, 38
3, 722, Control_c, 0, 64, 0
3, 728, Control_c, 0, 64, 127
3, 744, Note_on_c, 0, 43, 0
3, 744, Note_on_c, 0, 50, 41
3, 768, Note_on_c, 0, 50, 0
3, 768, Note_on_c, 0, 53, 42
3, 792, Note_on_c, 0, 53, 0
3, 792, Note_on_c, 0, 56, 40
3, 816, Note_on_c, 0, 56, 0
3, 816, Note_on_c, 0, 55, 38
3, 840, Note_on_c, 0, 55, 0
3, 840, Note_on_c, 0, 65, 34
3, 864, Note_on_c, 0, 65, 0
3, 864, Note_on_c, 0, 63, 36
3, 864, Control_c, 0, 64, 127
3, 866, Control_c, 0, 64, 0
3, 872, Control_c, 0, 64, 127
3, 888, Note_on_c, 0, 63, 0
3, 888, Note_on_c, 0, 60, 38
3, 912, Note_on_c, 0, 60, 0
3, 912, Note_on_c, 0, 56, 40
3, 936, Note_on_c, 0, 56, 0
3, 936, Note_on_c, 0, 53, 40
3, 960, Note_on_c, 0, 53, 0
3, 960, Note_on_c, 0, 51, 38
3, 984, Note_on_c, 0, 51, 0
3, 984, Note_on_c, 0, 44, 36
3, 1006, Note_on_c, 0, 44, 0
3, 1008, Note_on_c, 0, 45, 36
3, 1010, Control_c, 0, 64, 0
3, 1016, Control_c, 0, 64, 127
3, 1032, Note_on_c, 0, 45, 0
3, 1032, Note_on_c, 0, 53, 38
3, 1056, Note_on_c, 0, 53, 0
3, 1056, Note_on_c, 0, 60, 40
3, 1080, Note_on_c, 0, 60, 0
3, 1080, Note_on_c, 0, 65, 38
3, 1104, Note_on_c, 0, 65, 0
3, 1104, Note_on_c, 0, 63, 36
3, 1128, Note_on_c, 0, 63, 0
3, 1128, Note_on_c, 0, 72, 32
3, 1150, Note_on_c, 0, 72, 0
3, 1152, Note_on_c, 0, 46, 36
3, 1152, Control_c, 0, 64, 127
3, 1154, Control_c, 0, 64, 0
3, 1160, Control_c, 0, 64, 127
3, 1176, Note_on_c, 0, 46, 0
3, 1176, Note_on_c, 0, 53, 39
3, 1200, Note_on_c, 0, 53, 0
3, 1200, Note_on_c, 0, 56, 38
3, 1224, Note_on_c, 0, 56, 0
3, 1224, Note_on_c, 0, 62, 32
3, 1248, Note_on_c, 0, 62, 0
3, 1248, Note_on_c, 0, 67, 28
3, 1272, Note_on_c, 0, 67, 0
3, 1272, Note_on_c, 0, 65, 26
3, 1296, Note_on_c, 0, 65, 0
3, 1296, Note_on_c, 0, 39, 32
3, 1298, Control_c, 0, 64, 0
3, 1304, Control_c, 0, 64, 127
3, 1320, Note_on_c, 0, 39, 0
3, 1320, Note_on_c, 0, 46, 38
3, 1344, Note_on_c, 0, 46, 0
3, 1344, Note_on_c, 0, 55, 40
3, 1368, Note_on_c, 0, 55, 0
3, 1368, Note_on_c, 0, 48, 38
3, 1376, Control_c, 0, 64, 0
3, 1382, Control_c, 0, 64, 0
3, 1392, Note_on_c, 0, 48, 0
3, 1392, Note_on_c, 0, 61, 36
3, 1416, Note_on_c, 0, 61, 0
3, 1416, Note_on_c, 0, 60, 34
3, 1438, Note_on_c, 0, 60, 0
3, 1440, Note_on_c, 0, 53, 34
3, 1440, Control_c, 0, 64, 127
3, 1442, Control_c, 0, 64, 0
3, 1448, Control_c, 0, 64, 127
3, 1464, Note_on_c, 0, 53, 0
3, 1464, Note_on_c, 0, 56, 36
3, 1488, Note_on_c, 0, 56, 0
3, 1488, Note_on_c, 0, 60, 38
3, 1512, Note_on_c, 0, 60, 0
3, 1512, Note_on_c, 0, 67, 40
3, 1514, Control_c, 0, 64, 0
3, 1536, Note_on_c, 0, 67, 0
3, 1536, Note_on_c, 0, 65, 38
3, 1560, Note_on_c, 0, 65, 0
3, 1560, Note_on_c, 0, 72, 32
3, 1582, Note_on_c, 0, 72, 0
3, 1584, Note_on_c, 0, 43, 38
3, 1584, Control_c, 0, 64, 127
3, 1608, Note_on_c, 0, 43, 0
3, 1608, Note_on_c, 0, 50, 42
3, 1632, Note_on_c, 0, 50, 0
3, 1632, Note_on_c, 0, 53, 44
3, 1656, Note_on_c, 0, 53, 0
3, 1656, Note_on_c, 0, 59, 44
3, 1658, Control_c, 0, 64, 0
3, 1680, Note_on_c, 0, 59, 0
3, 1680, Note_on_c, 0, 55, 38
3, 1680, Control_c, 0, 64, 127
3, 1704, Note_on_c, 0, 55, 0
3, 1704, Note_on_c, 0, 65, 36
3, 1722, Control_c, 0, 64, 0
3, 1726, Note_on_c, 0, 65, 0
3, 1728, Note_on_c, 0, 36, 40
3, 1728, Control_c, 0, 64, 127
3, 1752, Note_on_c, 0, 36, 0
3, 1752, Note_on_c, 0, 43, 44
3, 1754, Control_c, 0, 64, 0
3, 1776, Note_on_c, 0, 43, 0
3, 1776, Note_on_c, 0, 48, 42
3, 1776, Control_c, 0, 64, 127
3, 1800, Note_on_c, 0, 48, 0
3, 1800, Note_on_c, 0, 51, 40
3, 1824, Note_on_c, 0, 51, 0
3, 1824, Note_on_c, 0, 55, 36
3, 1848, Note_on_c, 0, 55, 0
3, 1848, Note_on_c, 0, 63, 32
3, 1870, Note_on_c, 0, 63, 0
3, 1872, Note_on_c, 0, 39, 36
3, 1874, Control_c, 0, 64, 0
3, 1880, Control_c, 0, 64, 127
3, 1896, Note_on_c, 0, 39, 0
3, 1896, Note_on_c, 0, 46, 38
3, 1920, Note_on_c, 0, 46, 0
3, 1920, Note_on_c, 0, 51, 34
3, 1922, Control_c, 0, 64, 0
3, 1944, Note_on_c, 0, 51, 0
3, 1944, Note_on_c, 0, 58, 36
3, 1968, Note_on_c, 0, 58, 0
3, 1968, Note_on_c, 0, 54, 34
3, 1992, Note_on_c, 0, 54, 0
3, 1992, Note_on_c, 0, 63, 30
3, 2014, Note_on_c, 0, 63, 0
3, 2016, Note_on_c, 0, 38, 34
3, 2016, Control_c, 0, 64, 127
3, 2040, Note_on_c, 0, 38, 0
3, 2040, Note_on_c, 0, 50, 36
3, 2064, Note_on_c, 0, 50, 0
3, 2064, Note_on_c, 0, 55, 36
3, 2082, Control_c, 0, 64, 0
3, 2088, Note_on_c, 0, 55, 0
3, 2088, Note_on_c, 0, 58, 34
3, 2088, Control_c, 0, 64, 127
3, 2112, Note_on_c, 0, 58, 0
3, 2112, Note_on_c, 0, 67, 32
3, 2136, Note_on_c, 0, 67, 0
3, 2136, Note_on_c, 0, 50, 32
3, 2154, Control_c, 0, 64, 0
3, 2158, Note_on_c, 0, 50, 0
3, 2160, Note_on_c, 0, 38, 38
3, 2160, Control_c, 0, 64, 127
3, 2184, Note_on_c, 0, 38, 0
3, 2184, Note_on_c, 0, 50, 38
3, 2208, Note_on_c, 0, 50, 0
3, 2208, Note_on_c, 0, 54, 40
3, 2232, Note_on_c, 0, 54, 0
3, 2232, Note_on_c, 0, 60, 42
3, 2254, Control_c, 0, 64, 0
3, 2256, Note_on_c, 0, 60, 0
3, 2256, Note_on_c, 0, 50, 36
3, 2280, Note_on_c, 0, 50, 0
3, 2280, Note_on_c, 0, 54, 28
3, 2304, Note_on_c, 0, 54, 0
3, 2304, Note_on_c, 0, 43, 34
3, 2304, Control_c, 0, 64, 0
3, 2328, Note_on_c, 0, 43, 0
3, 2328, Note_on_c, 0, 49, 38
3, 2352, Note_on_c, 0, 49, 0
3, 2352, Note_on_c, 0, 51, 40
3, 2376, Note_on_c, 0, 51, 0
3, 2376, Note_on_c, 0, 50, 42
3, 2400, Note_on_c, 0, 50, 0
3, 2400, Note_on_c, 0, 54, 46
3, 2424, Note_on_c, 0, 54, 0
3, 2424, Note_on_c, 0, 55, 50
3, 2446, Note_on_c, 0, 55, 0
3, 2448, Note_on_c, 0, 41, 50
3, 2448, Control_c, 0, 64, 127
3, 2472, Note_on_c, 0, 41, 0
3, 2472, Note_on_c, 0, 50, 54
3, 2496, Note_on_c, 0, 50, 0
3, 2496, Note_on_c, 0, 56, 57
3, 2520, Note_on_c, 0, 56, 0
3, 2520, Note_on_c, 0, 57, 62
3, 2522, Control_c, 0, 64, 0
3, 2544, Note_on_c, 0, 57, 0
3, 2544, Note_on_c, 0, 58, 60
3, 2568, Note_on_c, 0, 58, 0
3, 2568, Note_on_c, 0, 62, 50
3, 2568, Note_on_c, 0, 68, 58
3, 2568, Control_c, 0, 64, 127
3, 2590, Note_on_c, 0, 68, 0
3, 2590, Note_on_c, 0, 62, 0
3, 2592, Note_on_c, 0, 39, 54
3, 2592, Control_c, 0, 64, 127
3, 2594, Control_c, 0, 64, 0
3, 2600, Control_c, 0, 64, 127
3, 2616, Note_on_c, 0, 39, 0
3, 2616, Note_on_c, 0, 46, 52
3, 2640, Note_on_c, 0, 46, 0
3, 2640, Note_on_c, 0, 55, 50
3, 2664, Note_on_c, 0, 55, 0
3, 2664, Note_on_c, 0, 60, 52
3, 2688, Note_on_c, 0, 60, 0
3, 2688, Note_on_c, 0, 58, 50
3, 2712, Note_on_c, 0, 58, 0
3, 2712, Note_on_c, 0, 67, 48
3, 2734, Note_on_c, 0, 67, 0
3, 2736, Note_on_c, 0, 41, 46
3, 2738, Control_c, 0, 64, 0
3, 2744, Control_c, 0, 64, 127
3, 2760, Note_on_c, 0, 41, 0
3, 2760, Note_on_c, 0, 50, 48
3, 2784, Note_on_c, 0, 50, 0
3, 2784, Note_on_c, 0, 56, 50
3, 2808, Note_on_c, 0, 56, 0
3, 2808, Note_on_c, 0, 60, 52
3, 2832, Note_on_c, 0, 60, 0
3, 2832, Note_on_c, 0, 58, 50
3, 2834, Control_c, 0, 64, 0
3, 2856, Note_on_c, 0, 58, 0
3, 2856, Note_on_c, 0, 68, 46
3, 2878, Note_on_c, 0, 68, 0
3, 2880, Note_on_c, 0, 43, 46
3, 2880, Control_c, 0, 64, 127
3, 2882, Control_c, 0, 64, 0
3, 2888, Control_c, 0, 64, 127
3, 2904, Note_on_c, 0, 43, 0
3, 2904, Note_on_c, 0, 51, 48
3, 2928, Note_on_c, 0, 51, 0
3, 2928, Note_on_c, 0, 55, 50
3, 2952, Note_on_c, 0, 55, 0
3, 2952, Note_on_c, 0, 58, 50
3, 2976, Note_on_c, 0, 58, 0
3, 2976, Note_on_c, 0, 63, 46
3, 3000, Note_on_c, 0, 63, 0
3, 3000, Note_on_c, 0, 67, 38
3, 3022, Note_on_c, 0, 67, 0
3, 3024, Note_on_c, 0, 43, 32
3, 3026, Control_c, 0, 64, 0
3, 3032, Control_c, 0, 64, 127
3, 3048, Note_on_c, 0, 43, 0
3, 3048, Note_on_c, 0, 50, 34
3, 3072, Note_on_c, 0, 50, 0
3, 3072, Note_on_c, 0, 53, 34
3, 3096, Note_on_c, 0, 53, 0
3, 3096, Note_on_c, 0, 56, 34
3, 3120, Note_on_c, 0, 56, 0
3, 3120, Note_on_c, 0, 55, 32
3, 3122, Control_c, 0, 64, 0
3, 3144, Note_on_c, 0, 55, 0
3, 3144, Note_on_c, 0, 65, 26
3, 3166, Note_on_c, 0, 65, 0
3, 3168, Note_on_c, 0, 44, 32
3, 3168, Control_c, 0, 64, 127
3, 3192, Note_on_c, 0, 44, 0
3, 3192, Note_on_c, 0, 51, 34
3, 3216, Note_on_c, 0, 51, 0
3, 3216, Note_on_c, 0, 56, 36
3, 3240, Note_on_c, 0, 56, 0
3, 3240, Note_on_c, 0, 53, 36
3, 3242, Control_c, 0, 64, 0
3, 3248, Control_c, 0, 64, 127
3, 3264, Note_on_c, 0, 53, 0
3, 3264, Note_on_c, 0, 63, 38
3, 3288, Note_on_c, 0, 63, 0
3, 3288, Note_on_c, 0, 72, 38
3, 3310, Note_on_c, 0, 72, 0
3, 3312, Note_on_c, 0, 45, 42
3, 3314, Control_c, 0, 64, 0
3, 3320, Control_c, 0, 64, 127
3, 3336, Note_on_c, 0, 45, 0
3, 3336, Note_on_c, 0, 53, 46
3, 3360, Note_on_c, 0, 53, 0
3, 3360, Note_on_c, 0, 62, 46
3, 3360, Control_c, 0, 64, 0
3, 3384, Note_on_c, 0, 62, 0
3, 3384, Note_on_c, 0, 60, 44
3, 3408, Note_on_c, 0, 60, 0
3, 3408, Note_on_c, 0, 63, 46
3, 3408, Control_c, 0, 64, 127
3, 3432, Note_on_c, 0, 63, 0
3, 3432, Note_on_c, 0, 75, 42
3, 3450, Control_c, 0, 64, 0
3, 3454, Note_on_c, 0, 75, 0
3, 3456, Note_on_c, 0, 46, 40
3, 3456, Control_c, 0, 64, 0
3, 3480, Note_on_c, 0, 46, 0
3, 3480, Note_on_c, 0, 53, 38
3, 3480, Control_c, 0, 64, 127
3, 3504, Note_on_c, 0, 53, 0
3, 3504, Note_on_c, 0, 56, 36
3, 3528, Note_on_c, 0, 56, 0
3, 3528, Note_on_c, 0, 63, 34
3, 3530, Control_c, 0, 64, 0
3, 3552, Note_on_c, 0, 63, 0
3, 3552, Note_on_c, 0, 62, 32
3, 3576, Note_on_c, 0, 62, 0
3, 3576, Note_on_c, 0, 65, 26
3, 3598, Note_on_c, 0, 65, 0
3, 3600, Note_on_c, 0, 39, 32
3, 3600, Control_c, 0, 64, 127
3, 3624, Note_on_c, 0, 39, 0
3, 3624, Note_on_c, 0, 46, 34
3, 3648, Note_on_c, 0, 46, 0
3, 3648, Note_on_c, 0, 51, 36
3, 3672, Note_on_c, 0, 51, 0
3, 3672, Note_on_c, 0, 55, 38
3, 3696, Note_on_c, 0, 55, 0
3, 3696, Note_on_c, 0, 58, 34
3, 3720, Note_on_c, 0, 58, 0
3, 3744, Note_on_c, 0, 43, 32
3, 3744, Control_c, 0, 64, 127
3, 3768, Note_on_c, 0, 43, 0
3, 3768, Note_on_c, 0, 50, 34
3, 3786, Control_c, 0, 64, 0
3, 3792, Note_on_c, 0, 50, 0
3, 3792, Note_on_c, 0, 51, 36
3, 3792, Control_c, 0, 64, 127
3, 3816, Note_on_c, 0, 51, 0
3, 3816, Note_on_c, 0, 58, 36
3, 3840, Note_on_c, 0, 58, 0
3, 3840, Note_on_c, 0, 61, 38
3, 3864, Note_on_c, 0, 61, 0
3, 3864, Note_on_c, 0, 63, 34
3, 3886, Note_on_c, 0, 63, 0
3, 3888, Note_on_c, 0, 39, 32
3, 3912, Note_on_c, 0, 39, 0
3, 3912, Note_on_c, 0, 51, 34
3, 3936, Note_on_c, 0, 51, 0
3, 3936, Note_on_c, 0, 58, 36
3, 3960, Note_on_c, 0, 58, 0
3, 3960, Note_on_c, 0, 61, 36
3, 3960, Control_c, 0, 64, 0
3, 3984, Note_on_c, 0, 61, 0
3, 3984, Note_on_c, 0, 63, 34
3, 4008, Note_on_c, 0, 63, 0
3, 4008, Note_on_c, 0, 67, 30
3, 4030, Note_on_c, 0, 67, 0
3, 4032, Note_on_c, 0, 44, 32
3, 4032, Control_c, 0, 64, 127
3, 4056, Note_on_c, 0, 44, 0
3, 4056, Note_on_c, 0, 51, 34
3, 4080, Note_on_c, 0, 51, 0
3, 4080, Note_on_c, 0, 56, 36
3, 4104, Note_on_c, 0, 56, 0
3, 4104, Note_on_c, 0, 60, 36
3, 4104, Control_c, 0, 64, 0
3, 4110, Control_c, 0, 64, 127
3, 4128, Note_on_c, 0, 60, 0
3, 4128, Note_on_c, 0, 63, 34
3, 4152, Note_on_c, 0, 63, 0
3, 4152, Note_on_c, 0, 68, 32
3, 4174, Note_on_c, 0, 68, 0
3, 4176, Note_on_c, 0, 43, 32
3, 4176, Control_c, 0, 64, 0
3, 4200, Note_on_c, 0, 43, 0
3, 4200, Note_on_c, 0, 50, 34
3, 4224, Note_on_c, 0, 50, 0
3, 4224, Note_on_c, 0, 51, 36
3, 4224, Control_c, 0, 64, 127
3, 4248, Note_on_c, 0, 51, 0
3, 4248, Note_on_c, 0, 58, 36
3, 4272, Note_on_c, 0, 58, 0
3, 4272, Note_on_c, 0, 61, 34
3, 4296, Note_on_c, 0, 61, 0
3, 4296, Note_on_c, 0, 63, 32
3, 4318, Note_on_c, 0, 63, 0
3, 4320, Note_on_c, 0, 44, 32
3, 4320, Control_c, 0, 64, 127
3, 4322, Control_c, 0, 64, 0
3, 4328, Control_c, 0, 64, 127
3, 4344, Note_on_c, 0, 44, 0
3, 4344, Note_on_c, 0, 54, 34
3, 4368, Note_on_c, 0, 54, 0
3, 4368, Note_on_c, 0, 56, 36
3, 4392, Note_on_c, 0, 56, 0
3, 4392, Note_on_c, 0, 60, 38
3, 4416, Note_on_c, 0, 60, 0
3, 4416, Note_on_c, 0, 63, 38
3, 4440, Note_on_c, 0, 63, 0
3, 4440, Note_on_c, 0, 66, 36
3, 4462, Note_on_c, 0, 66, 0
3, 4464, Note_on_c, 0, 45, 40
3, 4464, Control_c, 0, 64, 0
3, 4488, Note_on_c, 0, 45, 0
3, 4488, Note_on_c, 0, 52, 40
3, 4512, Note_on_c, 0, 52, 0
3, 4512, Note_on_c, 0, 53, 40
3, 4512, Control_c, 0, 64, 127
3, 4536, Note_on_c, 0, 53, 0
3, 4536, Note_on_c, 0, 60, 40
3, 4560, Note_on_c, 0, 60, 0
3, 4560, Note_on_c, 0, 63, 38
3, 4584, Note_on_c, 0, 63, 0
3, 4584, Note_on_c, 0, 65, 36
3, 4606, Note_on_c, 0, 65, 0
3, 4608, Note_on_c, 0, 46, 42
3, 4608, Control_c, 0, 64, 0
3, 4632, Note_on_c, 0, 46, 0
3, 4632, Note_on_c, 0, 52, 42
3, 4656, Note_on_c, 0, 52, 0
3, 4656, Note_on_c, 0, 53, 42
3, 4680, Note_on_c, 0, 53, 0
3, 4680, Note_on_c, 0, 58, 38
3, 4680, Control_c, 0, 64, 127
3, 4704, Note_on_c, 0, 58, 0
3, 4704, Note_on_c, 0, 62, 38
3, 4728, Note_on_c, 0, 62, 0
3, 4728, Note_on_c, 0, 65, 36
3, 4750, Note_on_c, 0, 65, 0
3, 4752, Note_on_c, 0, 45, 44
3, 4752, Control_c, 0, 64, 0
3, 4776, Note_on_c, 0, 45, 0
3, 4776, Note_on_c, 0, 52, 44
3, 4800, Note_on_c, 0, 52, 0
3, 4800, Note_on_c, 0, 53, 44
3, 4824, Note_on_c, 0, 53, 0
3, 4824, Note_on_c, 0, 60, 40
3, 4824, Control_c, 0, 64, 127
3, 4848, Note_on_c, 0, 60, 0
3, 4848, Note_on_c, 0, 63, 38
3, 4872, Note_on_c, 0, 63, 0
3, 4872, Note_on_c, 0, 65, 36
3, 4894, Note_on_c, 0, 65, 0
3, 4896, Note_on_c, 0, 46, 44
3, 4896, Control_c, 0, 64, 0
3, 4902, Control_c, 0, 64, 127
3, 4920, Note_on_c, 0, 46, 0
3, 4920, Note_on_c, 0, 53, 44
3, 4944, Note_on_c, 0, 53, 0
3, 4944, Note_on_c, 0, 56, 44
3, 4968, Note_on_c, 0, 56, 0
3, 4968, Note_on_c, 0, 63, 42
3, 4992, Note_on_c, 0, 63, 0
3, 4992, Note_on_c, 0, 62, 40
3, 5016, Note_on_c, 0, 62, 0
3, 5016, Note_on_c, 0, 68, 38
3, 5038, Note_on_c, 0, 68, 0
3, 5040, Note_on_c, 0, 47, 44
3, 5042, Control_c, 0, 64, 0
3, 5048, Control_c, 0, 64, 127
3, 5064, Note_on_c, 0, 47, 0
3, 5064, Note_on_c, 0, 53, 44
3, 5088, Note_on_c, 0, 53, 0
3, 5088, Note_on_c, 0, 56, 44
3, 5112, Note_on_c, 0, 56, 0
3, 5112, Note_on_c, 0, 63, 42
3, 5136, Note_on_c, 0, 63, 0
3, 5136, Note_on_c, 0, 61, 40
3, 5160, Note_on_c, 0, 61, 0
3, 5160, Note_on_c, 0, 68, 38
3, 5182, Note_on_c, 0, 68, 0
3, 5184, Note_on_c, 0, 48, 40
3, 5184, Control_c, 0, 64, 127
3, 5186, Control_c, 0, 64, 0
3, 5192, Control_c, 0, 64, 127
3, 5208, Note_on_c, 0, 48, 0
3, 5208, Note_on_c, 0, 53, 38
3, 5232, Note_on_c, 0, 53, 0
3, 5232, Note_on_c, 0, 56, 36
3, 5256, Note_on_c, 0, 56, 0
3, 5256, Note_on_c, 0, 61, 36
3, 5280, Note_on_c, 0, 61, 0
3, 5280, Note_on_c, 0, 60, 34
3, 5304, Note_on_c, 0, 60, 0
3, 5304, Note_on_c, 0, 68, 32
3, 5326, Note_on_c, 0, 68, 0
3, 5328, Note_on_c, 0, 49, 36
3, 5330, Control_c, 0, 64, 0
3, 5336, Control_c, 0, 64, 127
3, 5352, Note_on_c, 0, 49, 0
3, 5352, Note_on_c, 0, 53, 34
3, 5376, Note_on_c, 0, 53, 0
3, 5376, Note_on_c, 0, 56, 32
3, 5400, Note_on_c, 0, 56, 0
3, 5400, Note_on_c, 0, 60, 32
3, 5424, Note_on_c, 0, 60, 0
3, 5424, Note_on_c, 0, 59, 30
3, 5448, Note_on_c, 0, 59, 0
3, 5448, Note_on_c, 0, 68, 26
3, 5470, Note_on_c, 0, 68, 0
3, 5472, Note_on_c, 0, 50, 36
3, 5472, Control_c, 0, 64, 127
3, 5474, Control_c, 0, 64, 0
3, 5480, Control_c, 0, 64, 127
3, 5496, Note_on_c, 0, 50, 0
3, 5496, Note_on_c, 0, 53, 38
3, 5520, Note_on_c, 0, 53, 0
3, 5520, Note_on_c, 0, 55, 40
3, 5544, Note_on_c, 0, 55, 0
3, 5544, Note_on_c, 0, 59, 38
3, 5568, Note_on_c, 0, 59, 0
3, 5568, Note_on_c, 0, 65, 42
3, 5592, Note_on_c, 0, 65, 0
3, 5592, Note_on_c, 0, 67, 36
3, 5614, Note_on_c, 0, 67, 0
3, 5616, Note_on_c, 0, 43, 36
3, 5624, Control_c, 0, 64, 127
3, 5640, Note_on_c, 0, 43, 0
3, 5640, Note_on_c, 0, 53, 38
3, 5664, Note_on_c, 0, 53, 0
3, 5664, Note_on_c, 0, 55, 40
3, 5688, Note_on_c, 0, 55, 0
3, 5688, Note_on_c, 0, 59, 38
3, 5712, Note_on_c, 0, 59, 0
3, 5712, Note_on_c, 0, 65, 42
3, 5736, Note_on_c, 0, 65, 0
3, 5736, Note_on_c, 0, 67, 36
3, 5758, Note_on_c, 0, 67, 0
3, 5760, Note_on_c, 0, 36, 36
3, 5760, Control_c, 0, 64, 127
3, 5762, Control_c, 0, 64, 0
3, 5768, Control_c, 0, 64, 127
3, 5784, Note_on_c, 0, 36, 0
3, 5784, Note_on_c, 0, 43, 38
3, 5808, Note_on_c, 0, 43, 0
3, 5808, Note_on_c, 0, 48, 40
3, 5832, Note_on_c, 0, 48, 0
3, 5832, Note_on_c, 0, 51, 38
3, 5856, Note_on_c, 0, 51, 0
3, 5856, Note_on_c, 0, 54, 42
3, 5856, Control_c, 0, 64, 0
3, 5880, Note_on_c, 0, 54, 0
3, 5880, Note_on_c, 0, 55, 42
3, 5904, Note_on_c, 0, 55, 0
3, 5904, Note_on_c, 0, 67, 42
3, 5904, Control_c, 0, 64, 127
3, 5928, Note_on_c, 0, 67, 0
3, 5928, Note_on_c, 0, 63, 44
3, 5952, Note_on_c, 0, 63, 0
3, 5952, Note_on_c, 0, 60, 46
3, 5976, Note_on_c, 0, 60, 0
3, 5976, Note_on_c, 0, 55, 46
3, 6000, Note_on_c, 0, 55, 0
3, 6000, Note_on_c, 0, 48, 44
3, 6024, Note_on_c, 0, 48, 0
3, 6024, Note_on_c, 0, 45, 42
3, 6046, Note_on_c, 0, 45, 0
3, 6048, Note_on_c, 0, 38, 40
3, 6048, Control_c, 0, 64, 127
3, 6050, Control_c, 0, 64, 0
3, 6056, Control_c, 0, 64, 127
3, 6072, Note_on_c, 0, 38, 0
3, 6072, Note_on_c, 0, 50, 40
3, 6096, Note_on_c, 0, 50, 0
3, 6096, Note_on_c, 0, 55, 42
3, 6120, Note_on_c, 0, 55, 0
3, 6120, Note_on_c, 0, 60, 38
3, 6144, Note_on_c, 0, 60, 0
3, 6144, Note_on_c, 0, 62, 40
3, 6168, Note_on_c, 0, 62, 0
3, 6168, Note_on_c, 0, 67, 36
3, 6190, Note_on_c, 0, 67, 0
3, 6192, Note_on_c, 0, 38, 40
3, 6194, Control_c, 0, 64, 0
3, 6200, Control_c, 0, 64, 127
3, 6216, Note_on_c, 0, 38, 0
3, 6216, Note_on_c, 0, 50, 40
3, 6240, Note_on_c, 0, 50, 0
3, 6240, Note_on_c, 0, 54, 42
3, 6264, Note_on_c, 0, 54, 0
3, 6264, Note_on_c, 0, 60, 38
3, 6288, Note_on_c, 0, 60, 0
3, 6288, Note_on_c, 0, 62, 40
3, 6312, Note_on_c, 0, 62, 0
3, 6312, Note_on_c, 0, 66, 36
3, 6334, Note_on_c, 0, 66, 0
3, 6336, Note_on_c, 0, 43, 42
3, 6336, Control_c, 0, 64, 127
3, 6338, Control_c, 0, 64, 0
3, 6344, Control_c, 0, 64, 127
3, 6360, Note_on_c, 0, 43, 0
3, 6360, Note_on_c, 0, 50, 46
3, 6384, Note_on_c, 0, 50, 0
3, 6384, Note_on_c, 0, 55, 50
3, 6408, Note_on_c, 0, 55, 0
3, 6408, Note_on_c, 0, 58, 46
3, 6432, Note_on_c, 0, 58, 0
3, 6432, Note_on_c, 0, 61, 50
3, 6456, Note_on_c, 0, 61, 0
3, 6456, Note_on_c, 0, 62, 52
3, 6456, Control_c, 0, 64, 0
3, 6480, Note_on_c, 0, 62, 0
3, 6480, Note_on_c, 0, 70, 52
3, 6480, Control_c, 0, 64, 127
3, 6504, Note_on_c, 0, 70, 0
3, 6504, Note_on_c, 0, 67, 54
3, 6528, Note_on_c, 0, 67, 0
3, 6528, Note_on_c, 0, 62, 56
3, 6552, Note_on_c, 0, 62, 0
3, 6552, Note_on_c, 0, 58, 58
3, 6576, Note_on_c, 0, 58, 0
3, 6576, Note_on_c, 0, 55, 59
3, 6600, Note_on_c, 0, 55, 0
3, 6600, Note_on_c, 0, 50, 56
3, 6622, Note_on_c, 0, 50, 0
3, 6624, Note_on_c, 0, 43, 52
3, 6624, Control_c, 0, 64, 127
3, 6648, Note_on_c, 0, 43, 0
3, 6648, Note_on_c, 0, 50, 54
3, 6672, Note_on_c, 0, 50, 0
3, 6672, Note_on_c, 0, 55, 56
3, 6696, Note_on_c, 0, 55, 0
3, 6696, Note_on_c, 0, 59, 52
3, 6698, Control_c, 0, 64, 0
3, 6704, Control_c, 0, 64, 127
3, 6720, Note_on_c, 0, 59, 0
3, 6720, Note_on_c, 0, 65, 50
3, 6744, Note_on_c, 0, 65, 0
3, 6744, Note_on_c, 0, 67, 48
3, 6766, Note_on_c, 0, 67, 0
3, 6768, Note_on_c, 0, 43, 52
3, 6792, Note_on_c, 0, 43, 0
3, 6792, Note_on_c, 0, 50, 54
3, 6816, Note_on_c, 0, 50, 0
3, 6816, Note_on_c, 0, 55, 56
3, 6840, Note_on_c, 0, 55, 0
3, 6840, Note_on_c, 0, 59, 52
3, 6864, Note_on_c, 0, 59, 0
3, 6864, Note_on_c, 0, 65, 50
3, 6888, Note_on_c, 0, 65, 0
3, 6888, Note_on_c, 0, 67, 48
3, 6910, Note_on_c, 0, 67, 0
3, 6912, Note_on_c, 0, 36, 54
3, 6912, Control_c, 0, 64, 127
3, 6914, Control_c, 0, 64, 0
3, 6920, Control_c, 0, 64, 127
3, 6936, Note_on_c, 0, 36, 0
3, 6936, Note_on_c, 0, 43, 56
3, 6960, Note_on_c, 0, 43, 0
3, 6960, Note_on_c, 0, 48, 58
3, 6984, Note_on_c, 0, 48, 0
3, 6984, Note_on_c, 0, 51, 54
3, 7008, Note_on_c, 0, 51, 0
3, 7008, Note_on_c, 0, 55, 56
3, 7032, Note_on_c, 0, 55, 0
3, 7032, Note_on_c, 0, 63, 52
3, 7054, Note_on_c, 0, 63, 0
3, 7056, Note_on_c, 0, 45, 50
3, 7058, Control_c, 0, 64, 0
3, 7064, Control_c, 0, 64, 127
3, 7080, Note_on_c, 0, 45, 0
3, 7080, Note_on_c, 0, 54, 54
3, 7104, Note_on_c, 0, 54, 0
3, 7104, Note_on_c, 0, 62, 56
3, 7128, Note_on_c, 0, 62, 0
3, 7128, Note_on_c, 0, 60, 60
3, 7152, Note_on_c, 0, 60, 0
3, 7152, Note_on_c, 0, 66, 62
3, 7176, Note_on_c, 0, 66, 0
3, 7176, Note_on_c, 0, 75, 70
3, 7198, Note_on_c, 0, 75, 0
3, 7200, Note_on_c, 0, 34, 56
3, 7200, Control_c, 0, 64, 127
3, 7202, Control_c, 0, 64, 0
3, 7208, Control_c, 0, 64, 127
3, 7224, Note_on_c, 0, 34, 0
3, 7224, Note_on_c, 0, 46, 57
3, 7248, Note_on_c, 0, 46, 0
3, 7248, Note_on_c, 0, 51, 58
3, 7272, Note_on_c, 0, 51, 0
3, 7272, Note_on_c, 0, 56, 59
3, 7296, Note_on_c, 0, 56, 0
3, 7296, Note_on_c, 0, 63, 58
3, 7320, Note_on_c, 0, 63, 0
3, 7320, Note_on_c, 0, 68, 56
3, 7344, Note_on_c, 0, 68, 0
3, 7344, Note_on_c, 0, 67, 54
3, 7346, Control_c, 0, 64, 0
3, 7352, Control_c, 0, 64, 127
3, 7368, Note_on_c, 0, 67, 0
3, 7368, Note_on_c, 0, 65, 52
3, 7392, Note_on_c, 0, 65, 0
3, 7392, Note_on_c, 0, 58, 50
3, 7416, Note_on_c, 0, 58, 0
3, 7416, Note_on_c, 0, 56, 48
3, 7440, Note_on_c, 0, 56, 0
3, 7440, Note_on_c, 0, 53, 46
3, 7464, Note_on_c, 0, 53, 0
3, 7464, Note_on_c, 0, 46, 48
3, 7486, Note_on_c, 0, 46, 0
3, 7488, Note_on_c, 0, 39, 40
3, 7488, Control_c, 0, 64, 127
3, 7490, Control_c, 0, 64, 0
3, 7496, Control_c, 0, 64, 127
3, 7512, Note_on_c, 0, 39, 0
3, 7512, Note_on_c, 0, 46, 40
3, 7514, Control_c, 0, 64, 0
3, 7520, Control_c, 0, 64, 127
3, 7536, Note_on_c, 0, 46, 0
3, 7536, Note_on_c, 0, 55, 40
3, 7560, Note_on_c, 0, 55, 0
3, 7560, Note_on_c, 0, 60, 40
3, 7584, Note_on_c, 0, 60, 0
3, 7584, Note_on_c, 0, 58, 38
3, 7608, Note_on_c, 0, 58, 0
3, 7608, Note_on_c, 0, 67, 36
3, 7632, Note_on_c, 0, 67, 0
3, 7632, Note_on_c, 0, 62, 34
3, 7632, Control_c, 0, 64, 0
3, 7656, Note_on_c, 0, 62, 0
3, 7656, Note_on_c, 0, 65, 36
3, 7680, Note_on_c, 0, 65, 0
3, 7680, Note_on_c, 0, 63, 38
3, 7704, Note_on_c, 0, 63, 0
3, 7704, Note_on_c, 0, 58, 36
3, 7704, Control_c, 0, 64, 127
3, 7728, Note_on_c, 0, 58, 0
3, 7728, Note_on_c, 0, 55, 34
3, 7752, Note_on_c, 0, 55, 0
3, 7752, Note_on_c, 0, 46, 32
3, 7774, Note_on_c, 0, 46, 0
3, 7776, Note_on_c, 0, 41, 30
3, 7776, Control_c, 0, 64, 127
3, 7778, Control_c, 0, 64, 0
3, 7784, Control_c, 0, 64, 127
3, 7800, Note_on_c, 0, 41, 0
3, 7800, Note_on_c, 0, 49, 32
3, 7824, Note_on_c, 0, 49, 0
3, 7824, Note_on_c, 0, 53, 34
3, 7848, Note_on_c, 0, 53, 0
3, 7848, Note_on_c, 0, 58, 36
3, 7848, Control_c, 0, 64, 0
3, 7872, Note_on_c, 0, 58, 0
3, 7872, Note_on_c, 0, 56, 34
3, 7896, Note_on_c, 0, 56, 0
3, 7896, Note_on_c, 0, 68, 36
3, 7920, Note_on_c, 0, 68, 0
3, 7920, Note_on_c, 0, 65, 34
3, 7920, Control_c, 0, 64, 127
3, 7944, Note_on_c, 0, 65, 0
3, 7944, Note_on_c, 0, 61, 36
3, 7968, Note_on_c, 0, 61, 0
3, 7968, Note_on_c, 0, 56, 38
3, 7992, Note_on_c, 0, 56, 0
3, 7992, Note_on_c, 0, 53, 40
3, 8016, Note_on_c, 0, 53, 0
3, 8016, Note_on_c, 0, 49, 38
3, 8040, Note_on_c, 0, 49, 0
3, 8040, Note_on_c, 0, 41, 38
3, 8062, Note_on_c, 0, 41, 0
3, 8064, Note_on_c, 0, 43, 34
3, 8064, Control_c, 0, 64, 127
3, 8066, Control_c, 0, 64, 0
3, 8072, Control_c, 0, 64, 127
3, 8088, Note_on_c, 0, 43, 0
3, 8088, Note_on_c, 0, 50, 36
3, 8112, Note_on_c, 0, 50, 0
3, 8112, Note_on_c, 0, 53, 38
3, 8136, Note_on_c, 0, 53, 0
3, 8136, Note_on_c, 0, 56, 40
3, 8136, Control_c, 0, 64, 0
3, 8160, Note_on_c, 0, 56, 0
3, 8160, Note_on_c, 0, 55, 36
3, 8184, Note_on_c, 0, 55, 0
3, 8184, Note_on_c, 0, 65, 32
3, 8206, Note_on_c, 0, 65, 0
3, 8208, Note_on_c, 0, 36, 38
3, 8208, Control_c, 0, 64, 127
3, 8232, Note_on_c, 0, 36, 0
3, 8232, Note_on_c, 0, 48, 42
3, 8256, Note_on_c, 0, 48, 0
3, 8256, Note_on_c, 0, 55, 44
3, 8280, Note_on_c, 0, 55, 0
3, 8280, Note_on_c, 0, 60, 46
3, 8304, Note_on_c, 0, 60, 0
3, 8304, Note_on_c, 0, 63, 48
3, 8328, Note_on_c, 0, 63, 0
3, 8328, Note_on_c, 0, 67, 46
3, 8350, Note_on_c, 0, 67, 0
3, 8352, Note_on_c, 0, 44, 44
3, 8352, Control_c, 0, 64, 127
3, 8354, Control_c, 0, 64, 0
3, 8360, Control_c, 0, 64, 127
3, 8376, Note_on_c, 0, 44, 0
3, 8376, Note_on_c, 0, 48, 46
3, 8400, Note_on_c, 0, 48, 0
3, 8400, Note_on_c, 0, 53, 48
3, 8424, Note_on_c, 0, 53, 0
3, 8424, Note_on_c, 0, 58, 48
3, 8448, Note_on_c, 0, 58, 0
3, 8448, Note_on_c, 0, 56, 46
3, 8472, Note_on_c, 0, 56, 0
3, 8472, Note_on_c, 0, 67, 44
3, 8472, Control_c, 0, 64, 0
3, 8494, Note_on_c, 0, 67, 0
3, 8496, Note_on_c, 0, 65, 48
3, 8496, Control_c, 0, 64, 127
3, 8520, Note_on_c, 0, 65, 0
3, 8520, Note_on_c, 0, 62, 46
3, 8544, Note_on_c, 0, 62, 0
3, 8544, Note_on_c, 0, 56, 42
3, 8568, Note_on_c, 0, 56, 0
3, 8568, Note_on_c, 0, 53, 36
3, 8592, Note_on_c, 0, 53, 0
3, 8592, Note_on_c, 0, 50, 34
3, 8616, Note_on_c, 0, 50, 0
3, 8616, Note_on_c, 0, 41, 32
3, 8638, Note_on_c, 0, 41, 0
3, 8640, Note_on_c, 0, 43, 36
3, 8640, Control_c, 0, 64, 127
3, 8642, Control_c, 0, 64, 0
3, 8648, Control_c, 0, 64, 127
3, 8664, Note_on_c, 0, 43, 0
3, 8664, Note_on_c, 0, 50, 38
3, 8688, Note_on_c, 0, 50, 0
3, 8688, Note_on_c, 0, 53, 40
3, 8712, Note_on_c, 0, 53, 0
3, 8712, Note_on_c, 0, 56, 42
3, 8712, Control_c, 0, 64, 0
3, 8736, Note_on_c, 0, 56, 0
3, 8736, Note_on_c, 0, 55, 38
3, 8760, Note_on_c, 0, 55, 0
3, 8760, Note_on_c, 0, 65, 36
3, 8782, Note_on_c, 0, 65, 0
3, 8784, Note_on_c, 0, 48, 38
3, 8784, Control_c, 0, 64, 127
3, 8808, Note_on_c, 0, 48, 0
3, 8808, Note_on_c, 0, 55, 40
3, 8832, Note_on_c, 0, 55, 0
3, 8832, Note_on_c, 0, 60, 42
3, 8856, Note_on_c, 0, 60, 0
3, 8856, Note_on_c, 0, 63, 44
3, 8880, Note_on_c, 0, 63, 0
3, 8880, Note_on_c, 0, 67, 46
3, 8904, Note_on_c, 0, 67, 0
3, 8904, Note_on_c, 0, 55, 42
3, 8926, Note_on_c, 0, 55, 0
3, 8928, Note_on_c, 0, 48, 46
3, 8928, Control_c, 0, 64, 0
3, 8952, Note_on_c, 0, 48, 0
3, 8952, Note_on_c, 0, 51, 48
3, 8976, Note_on_c, 0, 51, 0
3, 8976, Note_on_c, 0, 60, 50
3, 8976, Control_c, 0, 64, 127
3, 9000, Note_on_c, 0, 60, 0
3, 9000, Note_on_c, 0, 56, 46
3, 9024, Note_on_c, 0, 56, 0
3, 9024, Note_on_c, 0, 63, 48
3, 9048, Note_on_c, 0, 63, 0
3, 9048, Note_on_c, 0, 51, 44
3, 9070, Note_on_c, 0, 51, 0
3, 9072, Note_on_c, 0, 48, 42
3, 9072, Control_c, 0, 64, 0
3, 9096, Note_on_c, 0, 48, 0
3, 9096, Note_on_c, 0, 50, 44
3, 9120, Note_on_c, 0, 50, 0
3, 9120, Note_on_c, 0, 62, 40
3, 9142, Note_on_c, 0, 62, 0
3, 9144, Note_on_c, 0, 47, 44
3, 9168, Note_on_c, 0, 47, 0
3, 9168, Note_on_c, 0, 50, 46
3, 9192, Note_on_c, 0, 50, 0
3, 9192, Note_on_c, 0, 62, 44
3, 9214, Note_on_c, 0, 62, 0
3, 9216, Note_on_c, 0, 46, 42
3, 9216, Control_c, 0, 64, 0
3, 9240, Note_on_c, 0, 46, 0
3, 9240, Note_on_c, 0, 58, 46
3, 9264, Note_on_c, 0, 58, 0
3, 9264, Note_on_c, 0, 54, 44
3, 9270, Control_c, 0, 64, 127
3, 9288, Note_on_c, 0, 54, 0
3, 9288, Note_on_c, 0, 61, 46
3, 9312, Note_on_c, 0, 61, 0
3, 9312, Note_on_c, 0, 58, 42
3, 9336, Note_on_c, 0, 58, 0
3, 9336, Note_on_c, 0, 70, 38
3, 9358, Note_on_c, 0, 70, 0
3, 9360, Note_on_c, 0, 46, 38
3, 9360, Control_c, 0, 64, 0
3, 9384, Note_on_c, 0, 46, 0
3, 9384, Note_on_c, 0, 48, 40
3, 9408, Note_on_c, 0, 48, 0
3, 9408, Note_on_c, 0, 60, 36
3, 9430, Note_on_c, 0, 60, 0
3, 9432, Note_on_c, 0, 45, 30
3, 9456, Note_on_c, 0, 45, 0
3, 9456, Note_on_c, 0, 48, 34
3, 9480, Note_on_c, 0, 48, 0
3, 9480, Note_on_c, 0, 60, 30
3, 9502, Note_on_c, 0, 60, 0
3, 9504, Note_on_c, 0, 44, 30
3, 9504, Control_c, 0, 64, 127
3, 9528, Note_on_c, 0, 44, 0
3, 9528, Note_on_c, 0, 56, 32
3, 9550, Note_on_c, 0, 56, 0
3, 9550, Note_on_c, 0, 52, 30
3, 9576, Note_on_c, 0, 52, 0
3, 9576, Note_on_c, 0, 59, 32
3, 9600, Note_on_c, 0, 59, 0
3, 9600, Note_on_c, 0, 56, 30
3, 9624, Note_on_c, 0, 56, 0
3, 9624, Note_on_c, 0, 68, 28
3, 9646, Note_on_c, 0, 68, 0
3, 9648, Note_on_c, 0, 46, 32
3, 9650, Control_c, 0, 64, 0
3, 9656, Control_c, 0, 64, 127
3, 9672, Note_on_c, 0, 46, 0
3, 9672, Note_on_c, 0, 53, 36
3, 9696, Note_on_c, 0, 53, 0
3, 9696, Note_on_c, 0, 56, 40
3, 9720, Note_on_c, 0, 56, 0
3, 9720, Note_on_c, 0, 62, 44
3, 9722, Control_c, 0, 64, 0
3, 9728, Control_c, 0, 64, 127
3, 9744, Note_on_c, 0, 62, 0
3, 9744, Note_on_c, 0, 58, 42
3, 9768, Note_on_c, 0, 58, 0
3, 9768, Note_on_c, 0, 70, 40
3, 9790, Note_on_c, 0, 70, 0
3, 9792, Note_on_c, 0, 46, 44
3, 9792, Control_c, 0, 64, 127
3, 9794, Control_c, 0, 64, 0
3, 9800, Control_c, 0, 64, 127
3, 9816, Note_on_c, 0, 46, 0
3, 9816, Note_on_c, 0, 55, 47
3, 9840, Note_on_c, 0, 55, 0
3, 9840, Note_on_c, 0, 58, 50
3, 9864, Note_on_c, 0, 58, 0
3, 9864, Note_on_c, 0, 61, 53
3, 9866, Control_c, 0, 64, 0
3, 9872, Control_c, 0, 64, 127
3, 9888, Note_on_c, 0, 61, 0
3, 9888, Note_on_c, 0, 60, 56
3, 9912, Note_on_c, 0, 60, 0
3, 9912, Note_on_c, 0, 58, 46
3, 9912, Note_on_c, 0, 70, 52
3, 9934, Note_on_c, 0, 70, 0
3, 9934, Note_on_c, 0, 58, 0
3, 9936, Note_on_c, 0, 46, 66
3, 9938, Control_c, 0, 64, 0
3, 9944, Control_c, 0, 64, 127
3, 9960, Note_on_c, 0, 46, 0
3, 9960, Note_on_c, 0, 56, 64
3, 9984, Note_on_c, 0, 56, 0
3, 9984, Note_on_c, 0, 59, 66
3, 10008, Note_on_c, 0, 63, 70
3, 10010, Control_c, 0, 64, 0
3, 10016, Control_c, 0, 64, 127
3, 10034, Note_on_c, 0, 63, 0
3, 10034, Note_on_c, 0, 59, 0
3, 10034, Note_on_c, 0, 58, 66
3, 10034, Note_on_c, 0, 62, 72
3, 10058, Note_on_c, 0, 62, 0
3, 10058, Note_on_c, 0, 58, 0
3, 10058, Note_on_c, 0, 56, 64
3, 10058, Note_on_c, 0, 70, 66
3, 10080, Note_on_c, 0, 70, 0
3, 10080, Note_on_c, 0, 56, 0
3, 10080, Note_on_c, 0, 39, 50
3, 10080, Control_c, 0, 64, 127
3, 10082, Control_c, 0, 64, 0
3, 10088, Control_c, 0, 64, 127
3, 10104, Note_on_c, 0, 39, 0
3, 10104, Note_on_c, 0, 46, 48
3, 10128, Note_on_c, 0, 46, 0
3, 10128, Note_on_c, 0, 55, 46
3, 10152, Note_on_c, 0, 55, 0
3, 10152, Note_on_c, 0, 60, 46
3, 10154, Control_c, 0, 64, 0
3, 10160, Control_c, 0, 64, 127
3, 10176, Note_on_c, 0, 60, 0
3, 10176, Note_on_c, 0, 58, 44
3, 10200, Note_on_c, 0, 58, 0
3, 10200, Note_on_c, 0, 67, 40
3, 10222, Note_on_c, 0, 67, 0
3, 10224, Note_on_c, 0, 41, 40
3, 10226, Control_c, 0, 64, 0
3, 10232, Control_c, 0, 64, 127
3, 10248, Note_on_c, 0, 41, 0
3, 10248, Note_on_c, 0, 50, 42
3, 10272, Note_on_c, 0, 50, 0
3, 10272, Note_on_c, 0, 56, 44
3, 10296, Note_on_c, 0, 56, 0
3, 10296, Note_on_c, 0, 60, 46
3, 10296, Control_c, 0, 64, 0
3, 10320, Note_on_c, 0, 60, 0
3, 10320, Note_on_c, 0, 58, 44
3, 10320, Control_c, 0, 64, 127
3, 10344, Note_on_c, 0, 58, 0
3, 10344, Note_on_c, 0, 68, 44
3, 10366, Note_on_c, 0, 68, 0
3, 10368, Note_on_c, 0, 43, 50
3, 10368, Control_c, 0, 64, 127
3, 10370, Control_c, 0, 64, 0
3, 10376, Control_c, 0, 64, 127
3, 10392, Note_on_c, 0, 43, 0
3, 10392, Note_on_c, 0, 51, 48
3, 10416, Note_on_c, 0, 51, 0
3, 10416, Note_on_c, 0, 55, 46
3, 10440, Note_on_c, 0, 55, 0
3, 10440, Note_on_c, 0, 60, 46
3, 10440, Control_c, 0, 64, 0
3, 10464, Note_on_c, 0, 60, 0
3, 10464, Note_on_c, 0, 58, 44
3, 10488, Note_on_c, 0, 58, 0
3, 10488, Note_on_c, 0, 67, 40
3, 10510, Note_on_c, 0, 67, 0
3, 10512, Note_on_c, 0, 43, 44
3, 10512, Control_c, 0, 64, 127
3, 10536, Note_on_c, 0, 43, 0
3, 10536, Note_on_c, 0, 50, 46
3, 10560, Note_on_c, 0, 50, 0
3, 10560, Note_on_c, 0, 53, 48
3, 10584, Note_on_c, 0, 53, 0
3, 10584, Note_on_c, 0, 56, 50
3, 10608, Note_on_c, 0, 56, 0
3, 10608, Note_on_c, 0, 55, 48
3, 10608, Control_c, 0, 64, 0
3, 10632, Note_on_c, 0, 55, 0
3, 10632, Note_on_c, 0, 65, 44
3, 10654, Note_on_c, 0, 65, 0
3, 10656, Note_on_c, 0, 44, 50
3, 10656, Control_c, 0, 64, 127
3, 10680, Note_on_c, 0, 44, 0
3, 10680, Note_on_c, 0, 51, 48
3, 10704, Note_on_c, 0, 51, 0
3, 10704, Note_on_c, 0, 56, 46
3, 10728, Note_on_c, 0, 56, 0
3, 10728, Note_on_c, 0, 65, 44
3, 10752, Note_on_c, 0, 65, 0
3, 10752, Note_on_c, 0, 63, 40
3, 10776, Note_on_c, 0, 63, 0
3, 10776, Note_on_c, 0, 72, 44
3, 10798, Note_on_c, 0, 72, 0
3, 10800, Note_on_c, 0, 45, 48
3, 10802, Control_c, 0, 64, 0
3, 10808, Control_c, 0, 64, 127
3, 10824, Note_on_c, 0, 45, 0
3, 10824, Note_on_c, 0, 53, 46
3, 10848, Note_on_c, 0, 53, 0
3, 10848, Note_on_c, 0, 62, 48
3, 10848, Control_c, 0, 64, 0
3, 10872, Note_on_c, 0, 62, 0
3, 10872, Note_on_c, 0, 60, 46
3, 10896, Note_on_c, 0, 60, 0
3, 10896, Note_on_c, 0, 63, 48
3, 10896, Control_c, 0, 64, 127
3, 10920, Note_on_c, 0, 63, 0
3, 10920, Note_on_c, 0, 75, 50
3, 10942, Note_on_c, 0, 75, 0
3, 10944, Note_on_c, 0, 34, 50
3, 10944, Control_c, 0, 64, 127
3, 10946, Control_c, 0, 64, 0
3, 10952, Control_c, 0, 64, 127
3, 10968, Note_on_c, 0, 34, 0
3, 10968, Note_on_c, 0, 46, 48
3, 10992, Note_on_c, 0, 46, 0
3, 10992, Note_on_c, 0, 53, 46
3, 11016, Note_on_c, 0, 53, 0
3, 11016, Note_on_c, 0, 56, 44
3, 11040, Note_on_c, 0, 56, 0
3, 11040, Note_on_c, 0, 62, 42
3, 11064, Note_on_c, 0, 62, 0
3, 11064, Note_on_c, 0, 46, 40
3, 11086, Note_on_c, 0, 46, 0
3, 11088, Note_on_c, 0, 39, 42
3, 11090, Control_c, 0, 64, 0
3, 11096, Control_c, 0, 64, 127
3, 11112, Note_on_c, 0, 39, 0
3, 11112, Note_on_c, 0, 46, 44
3, 11136, Note_on_c, 0, 46, 0
3, 11136, Note_on_c, 0, 51, 46
3, 11160, Note_on_c, 0, 51, 0
3, 11160, Note_on_c, 0, 55, 44
3, 11184, Note_on_c, 0, 55, 0
3, 11184, Note_on_c, 0, 58, 36
3, 11208, Note_on_c, 0, 58, 0
3, 11232, Note_on_c, 0, 43, 28
3, 11232, Control_c, 0, 64, 127
3, 11234, Control_c, 0, 64, 0
3, 11256, Note_on_c, 0, 43, 0
3, 11256, Note_on_c, 0, 50, 30
3, 11280, Note_on_c, 0, 50, 0
3, 11280, Note_on_c, 0, 51, 32
3, 11304, Note_on_c, 0, 51, 0
3, 11304, Note_on_c, 0, 53, 34
3, 11328, Note_on_c, 0, 53, 0
3, 11328, Note_on_c, 0, 51, 32
3, 11352, Note_on_c, 0, 51, 0
3, 11352, Note_on_c, 0, 61, 30
3, 11374, Note_on_c, 0, 61, 0
3, 11376, Note_on_c, 0, 43, 28
3, 11378, Control_c, 0, 64, 0
3, 11400, Note_on_c, 0, 43, 0
3, 11400, Note_on_c, 0, 50, 30
3, 11424, Note_on_c, 0, 50, 0
3, 11424, Note_on_c, 0, 51, 32
3, 11448, Note_on_c, 0, 51, 0
3, 11448, Note_on_c, 0, 53, 34
3, 11472, Note_on_c, 0, 53, 0
3, 11472, Note_on_c, 0, 51, 32
3, 11496, Note_on_c, 0, 51, 0
3, 11496, Note_on_c, 0, 61, 34
3, 11518, Note_on_c, 0, 61, 0
3, 11520, Note_on_c, 0, 44, 28
3, 11520, Control_c, 0, 64, 0
3, 11544, Note_on_c, 0, 44, 0
3, 11544, Note_on_c, 0, 50, 30
3, 11568, Note_on_c, 0, 50, 0
3, 11568, Note_on_c, 0, 51, 32
3, 11592, Note_on_c, 0, 51, 0
3, 11592, Note_on_c, 0, 53, 34
3, 11616, Note_on_c, 0, 53, 0
3, 11616, Note_on_c, 0, 51, 32
3, 11640, Note_on_c, 0, 51, 0
3, 11640, Note_on_c, 0, 60, 30
3, 11662, Note_on_c, 0, 60, 0
3, 11664, Note_on_c, 0, 43, 28
3, 11664, Control_c, 0, 64, 0
3, 11688, Note_on_c, 0, 43, 0
3, 11688, Note_on_c, 0, 50, 30
3, 11712, Note_on_c, 0, 50, 0
3, 11712, Note_on_c, 0, 51, 32
3, 11736, Note_on_c, 0, 51, 0
3, 11736, Note_on_c, 0, 53, 34
3, 11760, Note_on_c, 0, 53, 0
3, 11760, Note_on_c, 0, 51, 32
3, 11784, Note_on_c, 0, 51, 0
3, 11784, Note_on_c, 0, 61, 30
3, 11806, Note_on_c, 0, 61, 0
3, 11808, Note_on_c, 0, 44, 28
3, 11808, Control_c, 0, 64, 127
3, 11832, Note_on_c, 0, 44, 0
3, 11832, Note_on_c, 0, 50, 30
3, 11850, Control_c, 0, 64, 0
3, 11856, Note_on_c, 0, 50, 0
3, 11856, Note_on_c, 0, 51, 32
3, 11856, Control_c, 0, 64, 127
3, 11880, Note_on_c, 0, 51, 0
3, 11880, Note_on_c, 0, 60, 36
3, 11904, Note_on_c, 0, 60, 0
3, 11904, Note_on_c, 0, 56, 34
3, 11928, Note_on_c, 0, 56, 0
3, 11928, Note_on_c, 0, 63, 30
3, 11948, Control_c, 0, 64, 0
3, 11950, Note_on_c, 0, 63, 0
3, 11952, Note_on_c, 0, 45, 36
3, 11976, Note_on_c, 0, 45, 0
3, 11976, Note_on_c, 0, 52, 38
3, 12000, Note_on_c, 0, 52, 0
3, 12000, Note_on_c, 0, 53, 40
3, 12024, Note_on_c, 0, 53, 0
3, 12024, Note_on_c, 0, 55, 42
3, 12048, Note_on_c, 0, 55, 0
3, 12048, Note_on_c, 0, 53, 40
3, 12072, Note_on_c, 0, 53, 0
3, 12072, Note_on_c, 0, 63, 36
3, 12094, Note_on_c, 0, 63, 0
3, 12096, Note_on_c, 0, 46, 38
3, 12096, Control_c, 0, 64, 0
3, 12120, Note_on_c, 0, 46, 0
3, 12120, Note_on_c, 0, 52, 40
3, 12144, Note_on_c, 0, 52, 0
3, 12144, Note_on_c, 0, 53, 42
3, 12168, Note_on_c, 0, 53, 0
3, 12168, Note_on_c, 0, 55, 44
3, 12192, Note_on_c, 0, 55, 0
3, 12192, Note_on_c, 0, 53, 42
3, 12216, Note_on_c, 0, 53, 0
3, 12216, Note_on_c, 0, 62, 40
3, 12238, Note_on_c, 0, 62, 0
3, 12240, Note_on_c, 0, 45, 40
3, 12240, Control_c, 0, 64, 0
3, 12264, Note_on_c, 0, 45, 0
3, 12264, Note_on_c, 0, 52, 42
3, 12288, Note_on_c, 0, 52, 0
3, 12288, Note_on_c, 0, 53, 44
3, 12312, Note_on_c, 0, 53, 0
3, 12312, Note_on_c, 0, 55, 46
3, 12336, Note_on_c, 0, 55, 0
3, 12336, Note_on_c, 0, 53, 44
3, 12360, Note_on_c, 0, 53, 0
3, 12360, Note_on_c, 0, 63, 42
3, 12382, Note_on_c, 0, 63, 0
3, 12384, Note_on_c, 0, 46, 48
3, 12384, Control_c, 0, 64, 127
3, 12408, Note_on_c, 0, 46, 0
3, 12408, Note_on_c, 0, 53, 46
3, 12432, Note_on_c, 0, 53, 0
3, 12432, Note_on_c, 0, 56, 46
3, 12456, Note_on_c, 0, 56, 0
3, 12456, Note_on_c, 0, 60, 46
3, 12456, Control_c, 0, 64, 0
3, 12480, Note_on_c, 0, 60, 0
3, 12480, Note_on_c, 0, 58, 46
3, 12504, Note_on_c, 0, 58, 0
3, 12504, Note_on_c, 0, 63, 48
3, 12528, Note_on_c, 0, 63, 0
3, 12528, Note_on_c, 0, 62, 46
3, 12552, Note_on_c, 0, 62, 0
3, 12552, Note_on_c, 0, 67, 45
3, 12576, Note_on_c, 0, 67, 0
3, 12576, Note_on_c, 0, 65, 44
3, 12600, Note_on_c, 0, 65, 0
3, 12600, Note_on_c, 0, 62, 44
3, 12600, Control_c, 0, 64, 127
3, 12624, Note_on_c, 0, 62, 0
3, 12624, Note_on_c, 0, 56, 46
3, 12648, Note_on_c, 0, 56, 0
3, 12648, Note_on_c, 0, 53, 48
3, 12670, Note_on_c, 0, 53, 0
3, 12672, Note_on_c, 0, 47, 50
3, 12672, Control_c, 0, 64, 127
3, 12674, Control_c, 0, 64, 0
3, 12680, Control_c, 0, 64, 127
3, 12696, Note_on_c, 0, 47, 0
3, 12696, Note_on_c, 0, 53, 48
3, 12720, Note_on_c, 0, 53, 0
3, 12720, Note_on_c, 0, 56, 46
3, 12744, Note_on_c, 0, 56, 0
3, 12744, Note_on_c, 0, 63, 48
3, 12744, Control_c, 0, 64, 0
3, 12768, Note_on_c, 0, 63, 0
3, 12768, Note_on_c, 0, 61, 46
3, 12792, Note_on_c, 0, 61, 0
3, 12792, Note_on_c, 0, 66, 48
3, 12816, Note_on_c, 0, 66, 0
3, 12816, Note_on_c, 0, 65, 46
3, 12840, Note_on_c, 0, 65, 0
3, 12840, Note_on_c, 0, 70, 44
3, 12864, Note_on_c, 0, 70, 0
3, 12864, Note_on_c, 0, 68, 42
3, 12888, Note_on_c, 0, 68, 0
3, 12888, Note_on_c, 0, 65, 40
3, 12888, Control_c, 0, 64, 127
3, 12912, Note_on_c, 0, 65, 0
3, 12912, Note_on_c, 0, 61, 36
3, 12936, Note_on_c, 0, 61, 0
3, 12936, Note_on_c, 0, 56, 34
3, 12958, Note_on_c, 0, 56, 0
3, 12960, Note_on_c, 0, 46, 38
3, 12960, Control_c, 0, 64, 127
3, 12962, Control_c, 0, 64, 0
3, 12968, Control_c, 0, 64, 127
3, 12984, Note_on_c, 0, 46, 0
3, 12984, Note_on_c, 0, 58, 36
3, 13008, Note_on_c, 0, 58, 0
3, 13008, Note_on_c, 0, 54, 32
3, 13032, Note_on_c, 0, 54, 0
3, 13032, Note_on_c, 0, 61, 34
3, 13056, Note_on_c, 0, 61, 0
3, 13056, Note_on_c, 0, 58, 30
3, 13080, Note_on_c, 0, 58, 0
3, 13080, Note_on_c, 0, 70, 26
3, 13102, Note_on_c, 0, 70, 0
3, 13104, Note_on_c, 0, 46, 32
3, 13106, Control_c, 0, 64, 0
3, 13112, Control_c, 0, 64, 127
3, 13128, Note_on_c, 0, 46, 0
3, 13128, Note_on_c, 0, 55, 36
3, 13152, Note_on_c, 0, 55, 0
3, 13152, Note_on_c, 0, 60, 40
3, 13176, Note_on_c, 0, 60, 0
3, 13176, Note_on_c, 0, 55, 40
3, 13200, Note_on_c, 0, 55, 0
3, 13200, Note_on_c, 0, 60, 42
3, 13224, Note_on_c, 0, 60, 0
3, 13224, Note_on_c, 0, 67, 46
3, 13246, Note_on_c, 0, 67, 0
3, 13248, Note_on_c, 0, 44, 50
3, 13248, Control_c, 0, 64, 127
3, 13250, Control_c, 0, 64, 0
3, 13256, Control_c, 0, 64, 127
3, 13272, Note_on_c, 0, 44, 0
3, 13272, Note_on_c, 0, 56, 54
3, 13296, Note_on_c, 0, 56, 0
3, 13296, Note_on_c, 0, 53, 52
3, 13320, Note_on_c, 0, 53, 0
3, 13320, Note_on_c, 0, 60, 54
3, 13344, Note_on_c, 0, 60, 0
3, 13344, Note_on_c, 0, 56, 52
3, 13368, Note_on_c, 0, 56, 0
3, 13368, Note_on_c, 0, 68, 58
3, 13390, Note_on_c, 0, 68, 0
3, 13392, Note_on_c, 0, 34, 42
3, 13392, Control_c, 0, 64, 0
3, 13416, Note_on_c, 0, 34, 0
3, 13416, Note_on_c, 0, 41, 40
3, 13440, Note_on_c, 0, 41, 0
3, 13440, Note_on_c, 0, 46, 42
3, 13464, Note_on_c, 0, 46, 0
3, 13464, Note_on_c, 0, 53, 44
3, 13488, Note_on_c, 0, 53, 0
3, 13488, Note_on_c, 0, 46, 40
3, 13512, Note_on_c, 0, 46, 0
3, 13512, Note_on_c, 0, 41, 36
3, 13534, Note_on_c, 0, 41, 0
3, 13536, Note_on_c, 0, 39, 40
3, 13536, Control_c, 0, 64, 127
3, 13560, Note_on_c, 0, 39, 0
3, 13560, Note_on_c, 0, 46, 39
3, 13584, Note_on_c, 0, 46, 0
3, 13584, Note_on_c, 0, 51, 38
3, 13608, Note_on_c, 0, 51, 0
3, 13608, Note_on_c, 0, 55, 36
3, 13632, Note_on_c, 0, 55, 0
3, 13632, Note_on_c, 0, 58, 32
3, 13656, Note_on_c, 0, 58, 0
3, 13680, Note_on_c, 0, 43, 28
3, 13704, Note_on_c, 0, 43, 0
3, 13704, Note_on_c, 0, 50, 30
3, 13704, Control_c, 0, 64, 0
3, 13728, Note_on_c, 0, 50, 0
3, 13728, Note_on_c, 0, 51, 32
3, 13752, Note_on_c, 0, 51, 0
3, 13752, Note_on_c, 0, 53, 34
3, 13776, Note_on_c, 0, 53, 0
3, 13776, Note_on_c, 0, 51, 32
3, 13800, Note_on_c, 0, 51, 0
3, 13800, Note_on_c, 0, 61, 28
3, 13822, Note_on_c, 0, 61, 0
3, 13824, Note_on_c, 0, 44, 28
3, 13824, Control_c, 0, 64, 0
3, 13848, Note_on_c, 0, 44, 0
3, 13848, Note_on_c, 0, 50, 26
3, 13872, Note_on_c, 0, 50, 0
3, 13872, Note_on_c, 0, 51, 22
3, 13896, Note_on_c, 0, 51, 0
3, 13896, Note_on_c, 0, 53, 24
3, 13920, Note_on_c, 0, 53, 0
3, 13920, Note_on_c, 0, 51, 26
3, 13944, Note_on_c, 0, 51, 0
3, 13944, Note_on_c, 0, 60, 28
3, 13966, Note_on_c, 0, 60, 0
3, 13968, Note_on_c, 0, 43, 28
3, 13968, Control_c, 0, 64, 0
3, 13992, Note_on_c, 0, 43, 0
3, 13992, Note_on_c, 0, 50, 30
3, 14016, Note_on_c, 0, 50, 0
3, 14016, Note_on_c, 0, 51, 32
3, 14040, Note_on_c, 0, 51, 0
3, 14040, Note_on_c, 0, 53, 34
3, 14064, Note_on_c, 0, 53, 0
3, 14064, Note_on_c, 0, 51, 32
3, 14088, Note_on_c, 0, 51, 0
3, 14088, Note_on_c, 0, 61, 28
3, 14110, Note_on_c, 0, 61, 0
3, 14112, Note_on_c, 0, 44, 32
3, 14112, Control_c, 0, 64, 127
3, 14136, Note_on_c, 0, 44, 0
3, 14136, Note_on_c, 0, 50, 34
3, 14154, Control_c, 0, 64, 0
3, 14160, Note_on_c, 0, 50, 0
3, 14160, Note_on_c, 0, 51, 36
3, 14160, Control_c, 0, 64, 127
3, 14184, Note_on_c, 0, 51, 0
3, 14184, Note_on_c, 0, 60, 38
3, 14208, Note_on_c, 0, 60, 0
3, 14208, Note_on_c, 0, 56, 36
3, 14232, Note_on_c, 0, 56, 0
3, 14232, Note_on_c, 0, 63, 32
3, 14252, Control_c, 0, 64, 0
3, 14254, Note_on_c, 0, 63, 0
3, 14256, Note_on_c, 0, 45, 32
3, 14280, Note_on_c, 0, 45, 0
3, 14280, Note_on_c, 0, 52, 34
3, 14304, Note_on_c, 0, 52, 0
3, 14304, Note_on_c, 0, 53, 36
3, 14328, Note_on_c, 0, 53, 0
3, 14328, Note_on_c, 0, 55, 38
3, 14352, Note_on_c, 0, 55, 0
3, 14352, Note_on_c, 0, 53, 36
3, 14376, Note_on_c, 0, 53, 0
3, 14376, Note_on_c, 0, 63, 32
3, 14398, Note_on_c, 0, 63, 0
3, 14400, Note_on_c, 0, 46, 30
3, 14400, Control_c, 0, 64, 0
3, 14424, Note_on_c, 0, 46, 0
3, 14424, Note_on_c, 0, 52, 32
3, 14448, Note_on_c, 0, 52, 0
3, 14448, Note_on_c, 0, 53, 34
3, 14472, Note_on_c, 0, 53, 0
3, 14472, Note_on_c, 0, 55, 36
3, 14496, Note_on_c, 0, 55, 0
3, 14496, Note_on_c, 0, 53, 34
3, 14520, Note_on_c, 0, 53, 0
3, 14520, Note_on_c, 0, 62, 28
3, 14542, Note_on_c, 0, 62, 0
3, 14544, Note_on_c, 0, 45, 30
3, 14544, Control_c, 0, 64, 0
3, 14568, Note_on_c, 0, 45, 0
3, 14568, Note_on_c, 0, 52, 32
3, 14592, Note_on_c, 0, 52, 0
3, 14592, Note_on_c, 0, 53, 34
3, 14616, Note_on_c, 0, 53, 0
3, 14616, Note_on_c, 0, 55, 36
3, 14640, Note_on_c, 0, 55, 0
3, 14640, Note_on_c, 0, 53, 34
3, 14664, Note_on_c, 0, 53, 0
3, 14664, Note_on_c, 0, 63, 28
3, 14686, Note_on_c, 0, 63, 0
3, 14688, Note_on_c, 0, 46, 28
3, 14688, Control_c, 0, 64, 127
3, 14712, Note_on_c, 0, 46, 0
3, 14712, Note_on_c, 0, 53, 30
3, 14736, Note_on_c, 0, 53, 0
3, 14736, Note_on_c, 0, 56, 31
3, 14760, Note_on_c, 0, 56, 0
3, 14760, Note_on_c, 0, 60, 32
3, 14760, Control_c, 0, 64, 0
3, 14784, Note_on_c, 0, 60, 0
3, 14784, Note_on_c, 0, 58, 31
3, 14808, Note_on_c, 0, 58, 0
3, 14808, Note_on_c, 0, 63, 33
3, 14832, Note_on_c, 0, 63, 0
3, 14832, Note_on_c, 0, 62, 32
3, 14856, Note_on_c, 0, 62, 0
3, 14856, Note_on_c, 0, 67, 38
3, 14880, Note_on_c, 0, 67, 0
3, 14880, Note_on_c, 0, 65, 36
3, 14904, Note_on_c, 0, 65, 0
3, 14904, Note_on_c, 0, 62, 32
3, 14904, Control_c, 0, 64, 127
3, 14928, Note_on_c, 0, 62, 0
3, 14928, Note_on_c, 0, 56, 30
3, 14952, Note_on_c, 0, 56, 0
3, 14952, Note_on_c, 0, 53, 28
3, 14974, Note_on_c, 0, 53, 0
3, 14976, Note_on_c, 0, 47, 28
3, 14976, Control_c, 0, 64, 127
3, 14978, Control_c, 0, 64, 0
3, 14984, Control_c, 0, 64, 127
3, 15000, Note_on_c, 0, 47, 0
3, 15000, Note_on_c, 0, 53, 29
3, 15024, Note_on_c, 0, 53, 0
3, 15024, Note_on_c, 0, 56, 30
3, 15048, Note_on_c, 0, 56, 0
3, 15048, Note_on_c, 0, 63, 31
3, 15072, Note_on_c, 0, 63, 0
3, 15072, Note_on_c, 0, 61, 30
3, 15072, Control_c, 0, 64, 0
3, 15094, Note_on_c, 0, 61, 0
3, 15094, Note_on_c, 0, 66, 29
3, 15117, Note_on_c, 0, 66, 0
3, 15117, Note_on_c, 0, 65, 28
3, 15142, Note_on_c, 0, 65, 0
3, 15142, Note_on_c, 0, 70, 26
3, 15167, Note_on_c, 0, 70, 0
3, 15167, Note_on_c, 0, 68, 26
3, 15192, Note_on_c, 0, 68, 0
3, 15192, Note_on_c, 0, 65, 25
3, 15192, Control_c, 0, 64, 127
3, 15220, Note_on_c, 0, 65, 0
3, 15220, Note_on_c, 0, 61, 24
3, 15248, Note_on_c, 0, 61, 0
3, 15248, Note_on_c, 0, 56, 23
3, 15276, Note_on_c, 0, 56, 0
3, 15276, Note_on_c, 0, 46, 28
3, 15276, Control_c, 0, 64, 127
3, 15278, Control_c, 0, 64, 0
3, 15284, Control_c, 0, 64, 127
3, 15302, Note_on_c, 0, 46, 0
3, 15302, Note_on_c, 0, 58, 32
3, 15326, Note_on_c, 0, 58, 0
3, 15326, Note_on_c, 0, 54, 30
3, 15350, Note_on_c, 0, 54, 0
3, 15350, Note_on_c, 0, 61, 34
3, 15373, Note_on_c, 0, 61, 0
3, 15373, Note_on_c, 0, 58, 32
3, 15397, Note_on_c, 0, 58, 0
3, 15397, Note_on_c, 0, 70, 34
3, 15421, Note_on_c, 0, 70, 0
3, 15423, Note_on_c, 0, 46, 36
3, 15425, Control_c, 0, 64, 0
3, 15431, Control_c, 0, 64, 127
3, 15449, Note_on_c, 0, 46, 0
3, 15449, Note_on_c, 0, 55, 40
3, 15473, Note_on_c, 0, 55, 0
3, 15473, Note_on_c, 0, 60, 44
3, 15497, Note_on_c, 0, 60, 0
3, 15497, Note_on_c, 0, 55, 48
3, 15526, Note_on_c, 0, 55, 0
3, 15526, Note_on_c, 0, 60, 50
3, 15554, Note_on_c, 0, 60, 0
3, 15554, Note_on_c, 0, 67, 54
3, 15582, Note_on_c, 0, 67, 0
3, 15584, Note_on_c, 0, 44, 60
3, 15584, Control_c, 0, 64, 127
3, 15586, Control_c, 0, 64, 0
3, 15592, Control_c, 0, 64, 127
3, 15615, Note_on_c, 0, 44, 0
3, 15615, Note_on_c, 0, 56, 56
3, 15644, Note_on_c, 0, 56, 0
3, 15644, Note_on_c, 0, 53, 58
3, 15668, Note_on_c, 0, 53, 0
3, 15668, Note_on_c, 0, 65, 64
3, 15692, Note_on_c, 0, 65, 0
3, 15692, Note_on_c, 0, 60, 64
3, 15716, Note_on_c, 0, 60, 0
3, 15716, Note_on_c, 0, 68, 68
3, 15738, Note_on_c, 0, 68, 0
3, 15740, Note_on_c, 0, 34, 65
3, 15742, Control_c, 0, 64, 0
3, 15748, Control_c, 0, 64, 127
3, 15764, Note_on_c, 0, 34, 0
3, 15764, Note_on_c, 0, 46, 58
3, 15788, Note_on_c, 0, 46, 0
3, 15788, Note_on_c, 0, 56, 52
3, 15812, Note_on_c, 0, 56, 0
3, 15812, Note_on_c, 0, 62, 48
3, 15836, Note_on_c, 0, 62, 0
3, 15836, Note_on_c, 0, 58, 42
3, 15860, Note_on_c, 0, 58, 0
3, 15860, Note_on_c, 0, 65, 38
3, 15882, Note_on_c, 0, 65, 0
3, 15884, Note_on_c, 0, 39, 44
3, 15884, Control_c, 0, 64, 127
3, 15886, Control_c, 0, 64, 0
3, 15892, Control_c, 0, 64, 127
3, 15908, Note_on_c, 0, 39, 0
3, 15908, Note_on_c, 0, 46, 42
3, 15932, Note_on_c, 0, 46, 0
3, 15932, Note_on_c, 0, 51, 40
3, 15956, Note_on_c, 0, 51, 0
3, 15956, Note_on_c, 0, 55, 38
3, 15956, Control_c, 0, 64, 0
3, 15980, Note_on_c, 0, 55, 0
3, 15980, Note_on_c, 0, 60, 36
3, 16004, Note_on_c, 0, 60, 0
3, 16004, Note_on_c, 0, 58, 32
3, 16028, Note_on_c, 0, 58, 0
3, 16028, Note_on_c, 0, 67, 36
3, 16028, Control_c, 0, 64, 127
3, 16052, Note_on_c, 0, 67, 0
3, 16052, Note_on_c, 0, 63, 34
3, 16076, Note_on_c, 0, 63, 0
3, 16076, Note_on_c, 0, 58, 32
3, 16100, Note_on_c, 0, 58, 0
3, 16100, Note_on_c, 0, 55, 30
3, 16124, Note_on_c, 0, 55, 0
3, 16124, Note_on_c, 0, 51, 28
3, 16148, Note_on_c, 0, 51, 0
3, 16148, Note_on_c, 0, 46, 26
3, 16170, Note_on_c, 0, 46, 0
3, 16172, Note_on_c, 0, 39, 34
3, 16172, Control_c, 0, 64, 127
3, 16174, Control_c, 0, 64, 0
3, 16180, Control_c, 0, 64, 127
3, 16196, Note_on_c, 0, 39, 0
3, 16196, Note_on_c, 0, 46, 33
3, 16220, Note_on_c, 0, 46, 0
3, 16220, Note_on_c, 0, 51, 32
3, 16244, Note_on_c, 0, 51, 0
3, 16244, Note_on_c, 0, 54, 31
3, 16244, Control_c, 0, 64, 0
3, 16268, Note_on_c, 0, 54, 0
3, 16268, Note_on_c, 0, 59, 30
3, 16292, Note_on_c, 0, 59, 0
3, 16292, Note_on_c, 0, 58, 30
3, 16316, Note_on_c, 0, 58, 0
3, 16316, Note_on_c, 0, 66, 28
3, 16316, Control_c, 0, 64, 127
3, 16340, Note_on_c, 0, 66, 0
3, 16340, Note_on_c, 0, 63, 27
3, 16364, Note_on_c, 0, 63, 0
3, 16364, Note_on_c, 0, 58, 26
3, 16388, Note_on_c, 0, 58, 0
3, 16388, Note_on_c, 0, 54, 25
3, 16412, Note_on_c, 0, 54, 0
3, 16412, Note_on_c, 0, 51, 24
3, 16436, Note_on_c, 0, 51, 0
3, 16436, Note_on_c, 0, 46, 23
3, 16458, Note_on_c, 0, 46, 0
3, 16460, Note_on_c, 0, 39, 26
3, 16460, Control_c, 0, 64, 127
3, 16462, Control_c, 0, 64, 0
3, 16468, Control_c, 0, 64, 127
3, 16484, Note_on_c, 0, 39, 0
3, 16484, Note_on_c, 0, 45, 27
3, 16508, Note_on_c, 0, 45, 0
3, 16508, Note_on_c, 0, 47, 28
3, 16532, Note_on_c, 0, 47, 0
3, 16532, Note_on_c, 0, 57, 29
3, 16556, Note_on_c, 0, 57, 0
3, 16556, Note_on_c, 0, 61, 30
3, 16580, Note_on_c, 0, 61, 0
3, 16580, Note_on_c, 0, 59, 29
3, 16604, Note_on_c, 0, 59, 0
3, 16604, Note_on_c, 0, 69, 32
3, 16606, Control_c, 0, 64, 0
3, 16612, Control_c, 0, 64, 127
3, 16628, Note_on_c, 0, 69, 0
3, 16628, Note_on_c, 0, 66, 31
3, 16652, Note_on_c, 0, 66, 0
3, 16652, Note_on_c, 0, 59, 30
3, 16676, Note_on_c, 0, 59, 0
3, 16676, Note_on_c, 0, 56, 29
3, 16700, Note_on_c, 0, 56, 0
3, 16700, Note_on_c, 0, 47, 28
3, 16724, Note_on_c, 0, 47, 0
3, 16724, Note_on_c, 0, 45, 27
3, 16746, Note_on_c, 0, 45, 0
3, 16748, Note_on_c, 0, 39, 34
3, 16748, Control_c, 0, 64, 127
3, 16750, Control_c, 0, 64, 0
3, 16756, Control_c, 0, 64, 127
3, 16772, Note_on_c, 0, 39, 0
3, 16772, Note_on_c, 0, 46, 28
3, 16796, Note_on_c, 0, 46, 0
3, 16796, Note_on_c, 0, 51, 30
3, 16820, Note_on_c, 0, 51, 0
3, 16820, Note_on_c, 0, 55, 32
3, 16844, Note_on_c, 0, 55, 0
3, 16844, Note_on_c, 0, 60, 34
3, 16868, Note_on_c, 0, 60, 0
3, 16868, Note_on_c, 0, 58, 32
3, 16892, Note_on_c, 0, 58, 0
3, 16892, Note_on_c, 0, 67, 32
3, 16894, Control_c, 0, 64, 0
3, 16900, Control_c, 0, 64, 127
3, 16916, Note_on_c, 0, 67, 0
3, 16916, Note_on_c, 0, 63, 32
3, 16940, Note_on_c, 0, 63, 0
3, 16940, Note_on_c, 0, 58, 32
3, 16964, Note_on_c, 0, 58, 0
3, 16964, Note_on_c, 0, 55, 31
3, 16988, Note_on_c, 0, 55, 0
3, 16988, Note_on_c, 0, 51, 30
3, 17012, Note_on_c, 0, 51, 0
3, 17012, Note_on_c, 0, 46, 28
3, 17034, Note_on_c, 0, 46, 0
3, 17036, Note_on_c, 0, 39, 27
3, 17036, Control_c, 0, 64, 127
3, 17038, Control_c, 0, 64, 0
3, 17044, Control_c, 0, 64, 127
3, 17060, Note_on_c, 0, 39, 0
3, 17060, Note_on_c, 0, 46, 29
3, 17084, Note_on_c, 0, 46, 0
3, 17084, Note_on_c, 0, 50, 31
3, 17108, Note_on_c, 0, 50, 0
3, 17108, Note_on_c, 0, 56, 33
3, 17132, Note_on_c, 0, 56, 0
3, 17132, Note_on_c, 0, 60, 35
3, 17156, Note_on_c, 0, 60, 0
3, 17156, Note_on_c, 0, 58, 33
3, 17180, Note_on_c, 0, 58, 0
3, 17180, Note_on_c, 0, 68, 35
3, 17182, Control_c, 0, 64, 0
3, 17188, Control_c, 0, 64, 127
3, 17204, Note_on_c, 0, 68, 0
3, 17204, Note_on_c, 0, 62, 33
3, 17228, Note_on_c, 0, 62, 0
3, 17228, Note_on_c, 0, 58, 31
3, 17252, Note_on_c, 0, 58, 0
3, 17252, Note_on_c, 0, 56, 29
3, 17276, Note_on_c, 0, 56, 0
3, 17276, Note_on_c, 0, 50, 27
3, 17300, Note_on_c, 0, 50, 0
3, 17300, Note_on_c, 0, 46, 25
3, 17322, Note_on_c, 0, 46, 0
3, 17324, Note_on_c, 0, 39, 25
3, 17324, Control_c, 0, 64, 127
3, 17348, Note_on_c, 0, 39, 0
3, 17348, Note_on_c, 0, 46, 27
3, 17372, Note_on_c, 0, 46, 0
3, 17372, Note_on_c, 0, 50, 29
3, 17396, Note_on_c, 0, 50, 0
3, 17396, Note_on_c, 0, 56, 31
3, 17420, Note_on_c, 0, 56, 0
3, 17420, Note_on_c, 0, 60, 33
3, 17444, Note_on_c, 0, 60, 0
3, 17444, Note_on_c, 0, 58, 31
3, 17468, Note_on_c, 0, 58, 0
3, 17468, Note_on_c, 0, 68, 35
3, 17468, Control_c, 0, 64, 127
3, 17492, Note_on_c, 0, 68, 0
3, 17492, Note_on_c, 0, 62, 33
3, 17516, Note_on_c, 0, 62, 0
3, 17516, Note_on_c, 0, 58, 31
3, 17540, Note_on_c, 0, 58, 0
3, 17540, Note_on_c, 0, 56, 29
3, 17564, Note_on_c, 0, 56, 0
3, 17564, Note_on_c, 0, 50, 27
3, 17588, Note_on_c, 0, 50, 0
3, 17588, Note_on_c, 0, 46, 25
3, 17610, Note_on_c, 0, 46, 0
3, 17612, Note_on_c, 0, 39, 23
3, 17612, Control_c, 0, 64, 127
3, 17636, Note_on_c, 0, 39, 0
3, 17636, Note_on_c, 0, 46, 25
3, 17660, Note_on_c, 0, 46, 0
3, 17660, Note_on_c, 0, 50, 27
3, 17684, Note_on_c, 0, 50, 0
3, 17684, Note_on_c, 0, 56, 29
3, 17686, Control_c, 0, 64, 0
3, 17692, Control_c, 0, 64, 127
3, 17708, Note_on_c, 0, 56, 0
3, 17708, Note_on_c, 0, 60, 31
3, 17732, Note_on_c, 0, 60, 0
3, 17732, Note_on_c, 0, 58, 29
3, 17756, Note_on_c, 0, 58, 0
3, 17756, Note_on_c, 0, 68, 33
3, 17758, Control_c, 0, 64, 0
3, 17764, Control_c, 0, 64, 127
3, 17780, Note_on_c, 0, 68, 0
3, 17780, Note_on_c, 0, 62, 31
3, 17804, Note_on_c, 0, 62, 0
3, 17804, Note_on_c, 0, 58, 29
3, 17828, Note_on_c, 0, 58, 0
3, 17828, Note_on_c, 0, 56, 27
3, 17830, Control_c, 0, 64, 0
3, 17836, Control_c, 0, 64, 127
3, 17852, Note_on_c, 0, 56, 0
3, 17852, Note_on_c, 0, 50, 25
3, 17876, Note_on_c, 0, 50, 0
3, 17876, Note_on_c, 0, 46, 23
3, 17898, Note_on_c, 0, 46, 0
3, 17900, Note_on_c, 0, 39, 25
3, 17900, Control_c, 0, 64, 127
3, 17902, Control_c, 0, 64, 0
3, 17908, Control_c, 0, 64, 127
3, 17946, Note_on_c, 0, 39, 0
3, 17972, Note_on_c, 0, 51, 25
3, 17972, Note_on_c, 0, 58, 25
3, 17972, Note_on_c, 0, 63, 30
3, 17972, Control_c, 0, 64, 0
3, 18042, Note_on_c, 0, 63, 0
3, 18042, Note_on_c, 0, 58, 0
3, 18042, Note_on_c, 0, 51, 0
3, 18044, Note_on_c, 0, 51, 30
3, 18044, Note_on_c, 0, 60, 30
3, 18044, Note_on_c, 0, 63, 35
3, 18044, Control_c, 0, 64, 127
3, 18114, Note_on_c, 0, 63, 0
3, 18114, Note_on_c, 0, 60, 0
3, 18114, Note_on_c, 0, 51, 0
3, 18116, Note_on_c, 0, 51, 25
3, 18116, Note_on_c, 0, 56, 25
3, 18116, Note_on_c, 0, 63, 30
3, 18186, Note_on_c, 0, 63, 0
3, 18186, Note_on_c, 0, 56, 0
3, 18186, Note_on_c, 0, 51, 0
3, 18188, Note_on_c, 0, 27, 28
3, 18188, Control_c, 0, 64, 0
3, 18212, Note_on_c, 0, 27, 0
3, 18212, Note_on_c, 0, 39, 32
3, 18212, Control_c, 0, 64, 127
3, 18236, Note_on_c, 0, 39, 0
3, 18236, Note_on_c, 0, 46, 35
3, 18260, Note_on_c, 0, 46, 0
3, 18260, Note_on_c, 0, 55, 38
3, 18284, Note_on_c, 0, 55, 0
3, 18284, Note_on_c, 0, 58, 40
3, 18308, Note_on_c, 0, 58, 0
3, 18308, Note_on_c, 0, 65, 42
3, 18332, Note_on_c, 0, 65, 0
3, 18332, Note_on_c, 0, 63, 40
3, 18334, Control_c, 0, 64, 0
3, 18340, Control_c, 0, 64, 127
3, 18356, Note_on_c, 0, 63, 0
3, 18356, Note_on_c, 0, 58, 38
3, 18380, Note_on_c, 0, 58, 0
3, 18380, Note_on_c, 0, 55, 38
3, 18404, Note_on_c, 0, 55, 0
3, 18404, Note_on_c, 0, 51, 40
3, 18428, Note_on_c, 0, 51, 0
3, 18428, Note_on_c, 0, 46, 42
3, 18452, Note_on_c, 0, 46, 0
3, 18452, Note_on_c, 0, 39, 44
3, 18474, Note_on_c, 0, 39, 0
3, 18476, Note_on_c, 0, 34, 40
3, 18476, Control_c, 0, 64, 127
3, 18478, Control_c, 0, 64, 0
3, 18484, Control_c, 0, 64, 127
3, 18546, Note_on_c, 0, 34, 0
3, 18620, Note_on_c, 0, 58, 25
3, 18620, Note_on_c, 0, 67, 50
3, 18670, Control_c, 0, 64, 0
3, 18676, Control_c, 0, 64, 127
3, 18690, Note_on_c, 0, 67, 0
3, 18690, Note_on_c, 0, 58, 0
3, 18692, Note_on_c, 0, 58, 30
3, 18692, Note_on_c, 0, 65, 55
3, 18762, Note_on_c, 0, 65, 0
3, 18762, Note_on_c, 0, 58, 0
3, 18764, Note_on_c, 0, 58, 35
3, 18764, Note_on_c, 0, 68, 60
3, 18764, Control_c, 0, 64, 127
3, 18906, Note_on_c, 0, 68, 0
3, 18906, Note_on_c, 0, 58, 0
3, 18908, Control_c, 0, 64, 0
3, 18980, Note_on_c, 0, 39, 35
3, 18980, Note_on_c, 0, 46, 30
3, 18980, Control_c, 0, 64, 127
3, 19050, Note_on_c, 0, 46, 0
3, 19050, Note_on_c, 0, 39, 0
3, 19052, Note_on_c, 0, 39, 35
3, 19052, Note_on_c, 0, 46, 30
3, 19052, Note_on_c, 0, 51, 30
3, 19052, Control_c, 0, 64, 127
3, 19196, Control_c, 0, 64, 127
3, 19340, Control_c, 0, 64, 127
3, 19410, Note_on_c, 0, 51, 0
3, 19410, Note_on_c, 0, 46, 0
3, 19410, Note_on_c, 0, 39, 0
3, 19412, Control_c, 0, 64, 0
3, 19412, End_track
0, 0, End_of_file
