0, 0, Header, 1, 2, 480
1, 0, Start_track
1, 0, Key_signature, 0, "major"
1, 0, SMPTE_offset, 96, 0, 0, 0, 0
1, 0, Tempo, 500000
1, 0, Time_signature, 4, 2, 24, 8
1, 0, End_track
2, 0, Start_track
2, 0, Control_c, 0, 64, 127
2, 0, Note_on_c, 0, 70, 41
2, 1162, Note_on_c, 0, 71, 55
2, 1264, Note_on_c, 0, 70, 0
2, 1500, Note_on_c, 0, 70, 58
2, 1532, Note_on_c, 0, 37, 24
2, 1654, Note_on_c, 0, 71, 0
2, 1682, Control_c, 0, 64, 0
2, 1924, Note_on_c, 0, 68, 59
2, 2062, Note_on_c, 0, 70, 0
2, 2128, Control_c, 0, 64, 127
2, 2134, Note_on_c, 0, 37, 0
2, 2312, Note_on_c, 0, 65, 51
2, 2324, Note_on_c, 0, 49, 31
2, 2422, Note_on_c, 0, 68, 0
2, 2622, Note_on_c, 0, 49, 0
2, 2624, Note_on_c, 0, 61, 62
2, 2634, Note_on_c, 0, 65, 0
2, 2842, Note_on_c, 0, 61, 0
2, 3052, Note_on_c, 0, 61, 47
2, 3064, Note_on_c, 0, 59, 22
2, 3066, Note_on_c, 0, 53, 25
2, 3160, Note_on_c, 0, 53, 0
2, 3676, Note_on_c, 0, 61, 0
2, 3948, Note_on_c, 0, 61, 49
2, 3974, Note_on_c, 0, 49, 22
2, 3984, Note_on_c, 0, 59, 0
2, 4298, Note_on_c, 0, 61, 0
2, 4376, Note_on_c, 0, 49, 0
2, 4696, Note_on_c, 0, 61, 58
2, 4752, Note_on_c, 0, 42, 20
2, 4878, Control_c, 0, 64, 0
2, 5446, Control_c, 0, 64, 127
2, 5470, Note_on_c, 0, 49, 27
2, 5484, Note_on_c, 0, 42, 0
2, 5722, Note_on_c, 0, 61, 0
2, 5742, Note_on_c, 0, 66, 29
2, 5972, Note_on_c, 0, 66, 0
2, 5974, Note_on_c, 0, 70, 33
2, 6062, Note_on_c, 0, 70, 0
2, 6164, Note_on_c, 0, 75, 41
2, 6230, Note_on_c, 0, 75, 0
2, 6340, Note_on_c, 0, 75, 12
2, 6410, Note_on_c, 0, 58, 15
2, 6412, Note_on_c, 0, 73, 36
2, 6418, Note_on_c, 0, 75, 0
2, 6424, Note_on_c, 0, 54, 26
2, 6492, Control_c, 0, 64, 0
2, 6708, Note_on_c, 0, 49, 0
2, 6768, Control_c, 0, 64, 127
2, 6810, Note_on_c, 0, 73, 0
2, 7548, Note_on_c, 0, 70, 44
2, 7582, Note_on_c, 0, 49, 18
2, 7616, Note_on_c, 0, 54, 0
2, 7676, Note_on_c, 0, 58, 0
2, 8232, Note_on_c, 0, 71, 58
2, 8310, Note_on_c, 0, 70, 0
2, 8498, Note_on_c, 0, 70, 62
2, 8528, Note_on_c, 0, 37, 29
2, 8536, Control_c, 0, 64, 0
2, 8576, Note_on_c, 0, 49, 0
2, 8594, Note_on_c, 0, 71, 0
2, 8858, Control_c, 0, 64, 127
2, 8866, Note_on_c, 0, 68, 65
2, 8902, Note_on_c, 0, 37, 0
2, 8978, Note_on_c, 0, 70, 0
2, 9194, Note_on_c, 0, 65, 61
2, 9208, Note_on_c, 0, 49, 30
2, 9308, Note_on_c, 0, 68, 0
2, 9502, Note_on_c, 0, 62, 66
2, 9522, Note_on_c, 0, 65, 0
2, 9724, Note_on_c, 0, 61, 70
2, 9734, Note_on_c, 0, 62, 0
2, 9872, Note_on_c, 0, 61, 0
2, 10024, Note_on_c, 0, 61, 61
2, 10040, Note_on_c, 0, 59, 31
2, 10056, Note_on_c, 0, 53, 23
2, 10256, Control_c, 0, 64, 0
2, 10518, Note_on_c, 0, 53, 0
2, 10518, Control_c, 0, 64, 127
2, 10524, Note_on_c, 0, 49, 0
2, 10574, Note_on_c, 0, 61, 0
2, 10876, Note_on_c, 0, 61, 50
2, 10878, Note_on_c, 0, 59, 0
2, 10900, Note_on_c, 0, 49, 27
2, 11186, Note_on_c, 0, 61, 0
2, 11308, Note_on_c, 0, 49, 0
2, 11826, Note_on_c, 0, 61, 52
2, 11846, Note_on_c, 0, 42, 21
2, 12268, Control_c, 0, 64, 0
2, 12546, Control_c, 0, 64, 127
2, 12692, Note_on_c, 0, 49, 18
2, 12794, Note_on_c, 0, 42, 0
2, 12924, Note_on_c, 0, 66, 26
2, 12936, Note_on_c, 0, 61, 0
2, 13180, Note_on_c, 0, 66, 0
2, 13242, Note_on_c, 0, 70, 20
2, 13428, Note_on_c, 0, 70, 0
2, 13440, Note_on_c, 0, 66, 34
2, 13548, Note_on_c, 0, 66, 0
2, 13640, Note_on_c, 0, 75, 39
2, 13918, Note_on_c, 0, 73, 36
2, 13924, Note_on_c, 0, 61, 15
2, 13928, Note_on_c, 0, 58, 11
2, 13938, Note_on_c, 0, 54, 18
2, 13998, Note_on_c, 0, 75, 0
2, 14206, Control_c, 0, 64, 0
2, 14466, Control_c, 0, 64, 127
2, 14568, Note_on_c, 0, 73, 0
2, 15336, Note_on_c, 0, 71, 62
2, 15379, Note_on_c, 0, 54, 0
2, 15386, Note_on_c, 0, 58, 0
2, 15424, Note_on_c, 0, 61, 0
2, 15440, Note_on_c, 0, 49, 0
2, 15572, Control_c, 0, 64, 0
2, 15850, Control_c, 0, 64, 127
2, 15962, Note_on_c, 0, 73, 58
2, 15992, Note_on_c, 0, 71, 0
2, 16248, Note_on_c, 0, 71, 83
2, 16276, Note_on_c, 0, 39, 35
2, 16350, Note_on_c, 0, 73, 0
2, 16448, Control_c, 0, 64, 0
2, 16640, Note_on_c, 0, 70, 67
2, 16678, Control_c, 0, 64, 127
2, 16718, Note_on_c, 0, 71, 0
2, 16740, Note_on_c, 0, 39, 0
2, 16982, Note_on_c, 0, 67, 75
2, 17004, Note_on_c, 0, 51, 49
2, 17080, Note_on_c, 0, 70, 0
2, 17286, Note_on_c, 0, 63, 77
2, 17304, Note_on_c, 0, 67, 0
2, 17506, Note_on_c, 0, 63, 0
2, 17652, Note_on_c, 0, 63, 79
2, 17666, Note_on_c, 0, 61, 42
2, 17668, Note_on_c, 0, 55, 41
2, 17786, Control_c, 0, 64, 0
2, 18046, Control_c, 0, 64, 127
2, 18056, Note_on_c, 0, 63, 0
2, 18074, Note_on_c, 0, 51, 0
2, 18358, Note_on_c, 0, 63, 76
2, 18380, Note_on_c, 0, 55, 0
2, 18390, Note_on_c, 0, 51, 44
2, 18426, Note_on_c, 0, 61, 0
2, 18754, Note_on_c, 0, 63, 0
2, 19146, Note_on_c, 0, 63, 68
2, 19156, Note_on_c, 0, 51, 0
2, 19174, Note_on_c, 0, 44, 33
2, 19184, Control_c, 0, 64, 0
2, 19476, Control_c, 0, 64, 127
2, 19508, Note_on_c, 0, 63, 0
2, 19532, Note_on_c, 0, 44, 0
2, 20054, Note_on_c, 0, 78, 82
2, 20065, Note_on_c, 0, 59, 33
2, 20070, Note_on_c, 0, 51, 25
2, 20072, Note_on_c, 0, 56, 22
2, 20652, Note_on_c, 0, 59, 0
2, 20660, Note_on_c, 0, 56, 0
2, 20834, Note_on_c, 0, 51, 0
2, 20856, Note_on_c, 0, 47, 48
2, 20980, Control_c, 0, 64, 0
2, 21166, Control_c, 0, 64, 127
2, 21354, Note_on_c, 0, 75, 68
2, 21455, Note_on_c, 0, 47, 0
2, 21466, Note_on_c, 0, 78, 0
2, 21750, Note_on_c, 0, 63, 57
2, 21750, Note_on_c, 0, 66, 67
2, 21753, Note_on_c, 0, 56, 28
2, 21759, Note_on_c, 0, 51, 29
2, 21820, Note_on_c, 0, 75, 0
2, 22096, Note_on_c, 0, 68, 72
2, 22172, Note_on_c, 0, 66, 0
2, 22286, Note_on_c, 0, 63, 0
2, 22381, Note_on_c, 0, 56, 0
2, 22413, Note_on_c, 0, 51, 0
2, 22434, Note_on_c, 0, 49, 47
2, 22436, Note_on_c, 0, 70, 67
2, 22498, Note_on_c, 0, 68, 0
2, 22532, Control_c, 0, 64, 0
2, 22778, Control_c, 0, 64, 127
2, 22904, Note_on_c, 0, 70, 0
2, 23234, Note_on_c, 0, 71, 85
2, 23244, Note_on_c, 0, 63, 55
2, 23286, Note_on_c, 0, 54, 26
2, 23408, Control_c, 0, 64, 0
2, 23640, Control_c, 0, 64, 127
2, 23864, Note_on_c, 0, 63, 0
2, 23876, Note_on_c, 0, 70, 69
2, 23938, Note_on_c, 0, 71, 0
2, 24048, Note_on_c, 0, 60, 54
2, 24060, Note_on_c, 0, 68, 67
2, 24070, Note_on_c, 0, 70, 0
2, 24176, Control_c, 0, 64, 0
2, 24232, Note_on_c, 0, 70, 58
2, 24240, Note_on_c, 0, 68, 0
2, 24298, Note_on_c, 0, 70, 0
2, 24326, Note_on_c, 0, 68, 44
2, 24362, Control_c, 0, 64, 127
2, 24392, Note_on_c, 0, 68, 0
2, 24396, Note_on_c, 0, 70, 48
2, 24450, Note_on_c, 0, 70, 0
2, 24458, Note_on_c, 0, 68, 64
2, 24508, Note_on_c, 0, 68, 0
2, 24526, Note_on_c, 0, 70, 40
2, 24574, Note_on_c, 0, 60, 0
2, 24608, Note_on_c, 0, 68, 50
2, 24646, Note_on_c, 0, 54, 0
2, 24674, Note_on_c, 0, 70, 0
2, 24708, Note_on_c, 0, 67, 77
2, 24718, Note_on_c, 0, 68, 0
2, 24837, Note_on_c, 0, 68, 49
2, 24870, Note_on_c, 0, 67, 0
2, 24988, Note_on_c, 0, 61, 25
2, 24992, Note_on_c, 0, 70, 55
2, 24994, Note_on_c, 0, 53, 47
2, 25006, Control_c, 0, 64, 0
2, 25075, Note_on_c, 0, 68, 0
2, 25298, Control_c, 0, 64, 127
2, 25390, Note_on_c, 0, 70, 0
2, 25416, Note_on_c, 0, 53, 0
2, 25434, Note_on_c, 0, 49, 0
2, 25470, Note_on_c, 0, 61, 0
2, 25702, Note_on_c, 0, 68, 40
2, 25710, Note_on_c, 0, 59, 24
2, 25714, Note_on_c, 0, 50, 20
2, 25794, Note_on_c, 0, 59, 0
2, 25974, Note_on_c, 0, 66, 41
2, 25980, Note_on_c, 0, 58, 22
2, 25982, Note_on_c, 0, 54, 33
2, 25982, Note_on_c, 0, 51, 38
2, 25990, Note_on_c, 0, 50, 0
2, 26066, Control_c, 0, 64, 0
2, 26186, Note_on_c, 0, 68, 0
2, 26374, Control_c, 0, 64, 127
2, 26440, Note_on_c, 0, 51, 0
2, 26582, Note_on_c, 0, 58, 0
2, 26884, Note_on_c, 0, 65, 35
2, 26896, Note_on_c, 0, 57, 27
2, 26900, Note_on_c, 0, 48, 19
2, 26962, Note_on_c, 0, 66, 0
2, 27004, Control_c, 0, 64, 0
2, 27326, Control_c, 0, 64, 127
2, 27524, Note_on_c, 0, 54, 0
2, 27534, Note_on_c, 0, 57, 0
2, 27606, Note_on_c, 0, 48, 0
2, 27778, Note_on_c, 0, 63, 26
2, 27798, Note_on_c, 0, 65, 0
2, 28190, Note_on_c, 0, 61, 31
2, 28200, Note_on_c, 0, 56, 14
2, 28210, Note_on_c, 0, 49, 10
2, 28212, Note_on_c, 0, 53, 26
2, 28272, Note_on_c, 0, 63, 0
2, 28540, Control_c, 0, 64, 0
2, 28744, Note_on_c, 0, 53, 0
2, 28802, Control_c, 0, 64, 127
2, 28850, Note_on_c, 0, 49, 0
2, 28858, Note_on_c, 0, 56, 0
2, 28944, Note_on_c, 0, 61, 0
2, 29412, Note_on_c, 0, 42, 25
2, 29548, Note_on_c, 0, 49, 35
2, 29650, Note_on_c, 0, 54, 55
2, 29724, Control_c, 0, 64, 0
2, 29754, Note_on_c, 0, 58, 38
2, 29846, Note_on_c, 0, 61, 61
2, 29938, Control_c, 0, 64, 127
2, 29974, Note_on_c, 0, 66, 44
2, 30022, Note_on_c, 0, 58, 0
2, 30050, Note_on_c, 0, 49, 0
2, 30140, Note_on_c, 0, 61, 0
2, 30176, Note_on_c, 0, 70, 67
2, 30292, Note_on_c, 0, 54, 0
2, 30424, Note_on_c, 0, 66, 0
2, 31080, Note_on_c, 0, 70, 0
2, 31092, Note_on_c, 0, 71, 81
2, 31254, Note_on_c, 0, 59, 40
2, 31262, Note_on_c, 0, 71, 0
2, 31396, Note_on_c, 0, 65, 29
2, 31458, Note_on_c, 0, 42, 0
2, 31470, Note_on_c, 0, 70, 66
2, 31480, Note_on_c, 0, 37, 36
2, 31598, Control_c, 0, 64, 0
2, 31906, Control_c, 0, 64, 127
2, 32014, Note_on_c, 0, 68, 65
2, 32080, Note_on_c, 0, 65, 0
2, 32114, Note_on_c, 0, 70, 0
2, 32138, Note_on_c, 0, 37, 0
2, 32286, Note_on_c, 0, 59, 0
2, 32402, Note_on_c, 0, 65, 64
2, 32434, Note_on_c, 0, 49, 34
2, 32548, Note_on_c, 0, 68, 0
2, 32740, Note_on_c, 0, 61, 72
2, 32802, Note_on_c, 0, 65, 0
2, 32976, Note_on_c, 0, 61, 0
2, 33112, Note_on_c, 0, 61, 58
2, 33114, Note_on_c, 0, 59, 41
2, 33126, Note_on_c, 0, 53, 45
2, 33272, Control_c, 0, 64, 0
2, 33486, Note_on_c, 0, 49, 0
2, 33518, Control_c, 0, 64, 127
2, 33550, Note_on_c, 0, 61, 0
2, 33898, Note_on_c, 0, 61, 60
2, 33906, Note_on_c, 0, 49, 33
2, 33920, Note_on_c, 0, 53, 0
2, 33923, Note_on_c, 0, 59, 0
2, 34242, Note_on_c, 0, 61, 0
2, 34730, Note_on_c, 0, 61, 47
2, 34742, Note_on_c, 0, 49, 0
2, 34760, Note_on_c, 0, 42, 22
2, 34886, Control_c, 0, 64, 0
2, 35286, Control_c, 0, 64, 127
2, 35504, Note_on_c, 0, 49, 31
2, 35548, Note_on_c, 0, 42, 0
2, 35812, Note_on_c, 0, 61, 0
2, 35816, Note_on_c, 0, 66, 31
2, 36022, Note_on_c, 0, 66, 0
2, 36034, Note_on_c, 0, 70, 26
2, 36122, Note_on_c, 0, 70, 0
2, 36182, Note_on_c, 0, 75, 38
2, 36330, Control_c, 0, 64, 0
2, 36356, Note_on_c, 0, 58, 25
2, 36366, Note_on_c, 0, 75, 0
2, 36368, Note_on_c, 0, 73, 39
2, 36386, Note_on_c, 0, 54, 29
2, 36666, Note_on_c, 0, 49, 0
2, 36684, Control_c, 0, 64, 127
2, 36706, Note_on_c, 0, 73, 0
2, 37270, Note_on_c, 0, 70, 43
2, 37322, Note_on_c, 0, 49, 22
2, 37506, Note_on_c, 0, 71, 65
2, 37514, Note_on_c, 0, 70, 0
2, 37556, Note_on_c, 0, 54, 0
2, 37606, Note_on_c, 0, 70, 38
2, 37626, Note_on_c, 0, 71, 0
2, 37670, Note_on_c, 0, 58, 0
2, 37718, Note_on_c, 0, 69, 59
2, 37732, Note_on_c, 0, 70, 0
2, 37814, Note_on_c, 0, 70, 47
2, 37874, Note_on_c, 0, 69, 0
2, 37934, Note_on_c, 0, 73, 61
2, 37984, Note_on_c, 0, 70, 0
2, 38060, Note_on_c, 0, 72, 59
2, 38118, Note_on_c, 0, 73, 0
2, 38121, Note_on_c, 0, 42, 28
2, 38174, Control_c, 0, 64, 0
2, 38184, Note_on_c, 0, 49, 0
2, 38204, Note_on_c, 0, 72, 0
2, 38216, Note_on_c, 0, 71, 65
2, 38394, Note_on_c, 0, 70, 57
2, 38424, Note_on_c, 0, 71, 0
2, 38512, Control_c, 0, 64, 127
2, 38540, Note_on_c, 0, 71, 54
2, 38545, Note_on_c, 0, 70, 0
2, 38682, Note_on_c, 0, 71, 0
2, 38696, Note_on_c, 0, 70, 49
2, 38782, Note_on_c, 0, 70, 0
2, 38810, Note_on_c, 0, 69, 44
2, 38914, Note_on_c, 0, 69, 0
2, 38918, Note_on_c, 0, 68, 50
2, 39018, Note_on_c, 0, 42, 0
2, 39044, Note_on_c, 0, 68, 0
2, 39056, Note_on_c, 0, 69, 42
2, 39070, Note_on_c, 0, 50, 27
2, 39126, Note_on_c, 0, 68, 48
2, 39128, Note_on_c, 0, 69, 0
2, 39236, Note_on_c, 0, 69, 40
2, 39242, Note_on_c, 0, 68, 0
2, 39308, Note_on_c, 0, 68, 57
2, 39334, Note_on_c, 0, 69, 0
2, 39404, Note_on_c, 0, 68, 0
2, 39418, Note_on_c, 0, 67, 54
2, 39486, Note_on_c, 0, 67, 0
2, 39502, Note_on_c, 0, 66, 41
2, 39564, Note_on_c, 0, 67, 55
2, 39570, Note_on_c, 0, 66, 0
2, 39642, Note_on_c, 0, 66, 46
2, 39702, Note_on_c, 0, 67, 0
2, 39750, Note_on_c, 0, 65, 57
2, 39766, Note_on_c, 0, 56, 20
2, 39769, Note_on_c, 0, 66, 0
2, 39776, Note_on_c, 0, 59, 32
2, 39806, Note_on_c, 0, 65, 0
2, 39834, Note_on_c, 0, 64, 53
2, 39902, Note_on_c, 0, 50, 0
2, 39928, Note_on_c, 0, 65, 36
2, 39938, Note_on_c, 0, 64, 0
2, 39992, Note_on_c, 0, 65, 0
2, 40002, Note_on_c, 0, 66, 49
2, 40088, Note_on_c, 0, 65, 41
2, 40164, Note_on_c, 0, 66, 0
2, 40166, Note_on_c, 0, 65, 0
2, 40170, Note_on_c, 0, 64, 55
2, 40178, Note_on_c, 0, 50, 2
2, 40258, Note_on_c, 0, 64, 0
2, 40270, Note_on_c, 0, 63, 61
2, 40362, Note_on_c, 0, 63, 0
2, 40370, Note_on_c, 0, 65, 55
2, 40458, Note_on_c, 0, 66, 53
2, 40478, Note_on_c, 0, 65, 0
2, 40578, Note_on_c, 0, 50, 0
2, 40584, Note_on_c, 0, 49, 29
2, 40587, Control_c, 0, 64, 0
2, 40600, Note_on_c, 0, 70, 43
2, 40628, Note_on_c, 0, 66, 0
2, 40804, Note_on_c, 0, 68, 52
2, 40854, Note_on_c, 0, 70, 0
2, 40958, Note_on_c, 0, 68, 0
2, 40958, Note_on_c, 0, 65, 44
2, 40970, Control_c, 0, 64, 127
2, 41086, Note_on_c, 0, 59, 0
2, 41104, Note_on_c, 0, 66, 33
2, 41110, Note_on_c, 0, 65, 0
2, 41150, Note_on_c, 0, 56, 0
2, 41200, Note_on_c, 0, 66, 0
2, 41202, Note_on_c, 0, 49, 0
2, 41202, Note_on_c, 0, 63, 44
2, 41280, Note_on_c, 0, 63, 0
2, 41312, Note_on_c, 0, 68, 44
2, 41362, Note_on_c, 0, 68, 0
2, 41416, Note_on_c, 0, 68, 59
2, 41502, Note_on_c, 0, 42, 26
2, 41570, Control_c, 0, 64, 0
2, 41656, Note_on_c, 0, 61, 45
2, 41710, Note_on_c, 0, 68, 0
2, 42246, Control_c, 0, 64, 127
2, 42430, Note_on_c, 0, 49, 24
2, 42602, Note_on_c, 0, 42, 0
2, 42670, Note_on_c, 0, 61, 0
2, 42710, Note_on_c, 0, 66, 24
2, 42924, Note_on_c, 0, 66, 0
2, 42946, Note_on_c, 0, 70, 33
2, 43140, Note_on_c, 0, 70, 0
2, 43164, Note_on_c, 0, 78, 41
2, 43352, Note_on_c, 0, 78, 0
2, 43688, Note_on_c, 0, 75, 37
2, 43978, Note_on_c, 0, 73, 34
2, 43982, Note_on_c, 0, 61, 17
2, 43983, Note_on_c, 0, 58, 19
2, 43984, Note_on_c, 0, 54, 18
2, 44074, Control_c, 0, 64, 0
2, 44156, Note_on_c, 0, 75, 0
2, 44444, Control_c, 0, 64, 127
2, 45018, Note_on_c, 0, 73, 0
2, 45370, Note_on_c, 0, 69, 40
2, 45372, Note_on_c, 0, 54, 0
2, 45433, Note_on_c, 0, 58, 0
2, 45434, Note_on_c, 0, 61, 0
2, 45437, Note_on_c, 0, 49, 0
2, 45534, Control_c, 0, 64, 0
2, 45710, Note_on_c, 0, 70, 62
2, 45818, Note_on_c, 0, 69, 0
2, 45842, Control_c, 0, 64, 127
2, 45958, Note_on_c, 0, 71, 88
2, 45996, Control_c, 0, 64, 0
2, 46008, Note_on_c, 0, 70, 0
2, 46148, Note_on_c, 0, 70, 71
2, 46208, Note_on_c, 0, 71, 0
2, 46211, Control_c, 0, 64, 127
2, 46406, Note_on_c, 0, 76, 66
2, 46409, Control_c, 0, 64, 0
2, 46446, Note_on_c, 0, 70, 0
2, 46670, Control_c, 0, 64, 127
2, 46758, Note_on_c, 0, 75, 71
2, 46832, Note_on_c, 0, 76, 0
2, 46918, Control_c, 0, 64, 0
2, 47070, Control_c, 0, 64, 127
2, 47106, Note_on_c, 0, 74, 77
2, 47111, Note_on_c, 0, 39, 32
2, 47178, Control_c, 0, 64, 0
2, 47184, Note_on_c, 0, 75, 0
2, 47408, Control_c, 0, 64, 127
2, 47432, Note_on_c, 0, 39, 0
2, 47474, Note_on_c, 0, 73, 76
2, 47546, Note_on_c, 0, 74, 0
2, 47772, Note_on_c, 0, 70, 69
2, 47820, Note_on_c, 0, 51, 35
2, 47862, Note_on_c, 0, 73, 0
2, 48030, Note_on_c, 0, 67, 78
2, 48046, Note_on_c, 0, 70, 0
2, 48264, Note_on_c, 0, 70, 71
2, 48336, Note_on_c, 0, 67, 0
2, 48388, Note_on_c, 0, 55, 29
2, 48472, Note_on_c, 0, 61, 34
2, 48532, Note_on_c, 0, 64, 87
2, 48590, Note_on_c, 0, 70, 0
2, 48654, Control_c, 0, 64, 0
2, 48914, Control_c, 0, 64, 127
2, 48950, Note_on_c, 0, 51, 0
2, 49052, Note_on_c, 0, 63, 79
2, 49082, Note_on_c, 0, 64, 0
2, 49148, Note_on_c, 0, 63, 0
2, 49214, Note_on_c, 0, 63, 76
2, 49294, Note_on_c, 0, 51, 32
2, 49297, Note_on_c, 0, 61, 0
2, 49434, Note_on_c, 0, 62, 72
2, 49442, Note_on_c, 0, 63, 0
2, 49454, Note_on_c, 0, 55, 0
2, 49554, Note_on_c, 0, 63, 66
2, 49606, Note_on_c, 0, 62, 0
2, 49680, Note_on_c, 0, 66, 59
2, 49720, Note_on_c, 0, 63, 0
2, 49788, Note_on_c, 0, 64, 80
2, 49860, Note_on_c, 0, 66, 0
2, 49904, Note_on_c, 0, 63, 85
2, 49922, Note_on_c, 0, 64, 0
2, 49978, Note_on_c, 0, 63, 0
2, 50028, Note_on_c, 0, 51, 0
2, 50052, Note_on_c, 0, 44, 45
2, 50068, Note_on_c, 0, 63, 84
2, 50068, Control_c, 0, 64, 0
2, 50238, Note_on_c, 0, 63, 0
2, 50298, Control_c, 0, 64, 127
2, 50408, Note_on_c, 0, 44, 0
2, 50418, Note_on_c, 0, 78, 84
2, 50570, Note_on_c, 0, 78, 0
2, 50720, Note_on_c, 0, 75, 87
2, 50884, Note_on_c, 0, 75, 0
2, 50982, Note_on_c, 0, 56, 29
2, 50982, Note_on_c, 0, 51, 29
2, 50982, Note_on_c, 0, 59, 33
2, 51178, Note_on_c, 0, 90, 86
2, 51352, Note_on_c, 0, 59, 0
2, 51438, Note_on_c, 0, 56, 0
2, 51492, Note_on_c, 0, 51, 0
2, 51966, Note_on_c, 0, 63, 49
2, 51970, Note_on_c, 0, 56, 29
2, 51971, Note_on_c, 0, 59, 34
2, 51972, Note_on_c, 0, 54, 38
2, 52292, Note_on_c, 0, 87, 62
2, 52311, Note_on_c, 0, 59, 0
2, 52348, Note_on_c, 0, 54, 0
2, 52360, Note_on_c, 0, 90, 0
2, 52410, Note_on_c, 0, 56, 0
2, 52524, Note_on_c, 0, 63, 0
2, 52552, Note_on_c, 0, 83, 98
2, 52564, Note_on_c, 0, 87, 0
2, 52732, Note_on_c, 0, 80, 75
2, 52776, Note_on_c, 0, 83, 0
2, 52822, Note_on_c, 0, 66, 33
2, 52824, Note_on_c, 0, 63, 37
2, 52825, Note_on_c, 0, 59, 22
2, 52830, Note_on_c, 0, 56, 28
2, 52918, Note_on_c, 0, 78, 70
2, 52931, Note_on_c, 0, 59, 0
2, 52978, Note_on_c, 0, 80, 0
2, 52981, Note_on_c, 0, 66, 0
2, 53060, Note_on_c, 0, 63, 0
2, 53076, Note_on_c, 0, 75, 64
2, 53098, Note_on_c, 0, 78, 0
2, 53200, Note_on_c, 0, 56, 0
2, 53204, Note_on_c, 0, 75, 0
2, 53228, Note_on_c, 0, 71, 66
2, 53354, Note_on_c, 0, 66, 65
2, 53388, Note_on_c, 0, 71, 0
2, 53500, Note_on_c, 0, 68, 65
2, 53542, Note_on_c, 0, 66, 0
2, 53586, Control_c, 0, 64, 0
2, 53652, Note_on_c, 0, 49, 59
2, 53662, Note_on_c, 0, 37, 50
2, 53676, Note_on_c, 0, 70, 61
2, 53716, Note_on_c, 0, 68, 0
2, 53910, Note_on_c, 0, 37, 0
2, 53984, Control_c, 0, 64, 127
2, 54092, Note_on_c, 0, 70, 0
2, 54494, Note_on_c, 0, 71, 86
2, 54508, Note_on_c, 0, 63, 68
2, 54514, Note_on_c, 0, 54, 52
2, 54692, Control_c, 0, 64, 0
2, 54938, Control_c, 0, 64, 127
2, 55104, Note_on_c, 0, 63, 0
2, 55114, Note_on_c, 0, 70, 63
2, 55132, Note_on_c, 0, 71, 0
2, 55256, Note_on_c, 0, 70, 0
2, 55268, Note_on_c, 0, 68, 62
2, 55288, Note_on_c, 0, 60, 54
2, 55334, Note_on_c, 0, 68, 0
2, 55344, Note_on_c, 0, 70, 46
2, 55422, Note_on_c, 0, 70, 0
2, 55432, Note_on_c, 0, 68, 49
2, 55474, Control_c, 0, 64, 0
2, 55504, Note_on_c, 0, 68, 0
2, 55504, Note_on_c, 0, 70, 46
2, 55568, Note_on_c, 0, 68, 65
2, 55571, Note_on_c, 0, 70, 0
2, 55636, Note_on_c, 0, 68, 0
2, 55640, Note_on_c, 0, 70, 60
2, 55704, Note_on_c, 0, 68, 57
2, 55720, Control_c, 0, 64, 127
2, 55725, Note_on_c, 0, 70, 0
2, 55788, Note_on_c, 0, 70, 67
2, 55814, Note_on_c, 0, 68, 0
2, 55880, Note_on_c, 0, 68, 62
2, 55904, Note_on_c, 0, 70, 0
2, 55984, Note_on_c, 0, 60, 0
2, 55996, Note_on_c, 0, 67, 61
2, 55998, Note_on_c, 0, 68, 0
2, 56072, Note_on_c, 0, 54, 0
2, 56106, Note_on_c, 0, 68, 44
2, 56136, Note_on_c, 0, 67, 0
2, 56228, Control_c, 0, 64, 0
2, 56268, Note_on_c, 0, 61, 27
2, 56272, Note_on_c, 0, 70, 44
2, 56275, Note_on_c, 0, 53, 43
2, 56282, Note_on_c, 0, 68, 0
2, 56582, Control_c, 0, 64, 127
2, 56660, Note_on_c, 0, 70, 0
2, 56688, Note_on_c, 0, 53, 0
2, 56734, Note_on_c, 0, 61, 0
2, 56894, Note_on_c, 0, 49, 0
2, 57138, Note_on_c, 0, 68, 35
2, 57144, Note_on_c, 0, 59, 24
2, 57371, Note_on_c, 0, 59, 0
2, 57448, Note_on_c, 0, 66, 31
2, 57450, Note_on_c, 0, 42, 23
2, 57458, Control_c, 0, 64, 0
2, 57580, Note_on_c, 0, 68, 0
2, 57796, Control_c, 0, 64, 127
2, 57812, Note_on_c, 0, 42, 0
2, 58440, Note_on_c, 0, 61, 17
2, 58444, Note_on_c, 0, 58, 16
2, 58568, Note_on_c, 0, 58, 0
2, 58680, Note_on_c, 0, 61, 0
2, 59358, Note_on_c, 0, 58, 13
2, 59358, Note_on_c, 0, 54, 24
2, 59932, Note_on_c, 0, 66, 0
2, 60802, Note_on_c, 0, 65, 33
2, 60810, Note_on_c, 0, 54, 0
2, 60820, Note_on_c, 0, 58, 0
2, 60946, Control_c, 0, 64, 0
2, 61360, Control_c, 0, 64, 127
2, 61428, Note_on_c, 0, 66, 41
2, 61480, Note_on_c, 0, 65, 0
2, 61604, Note_on_c, 0, 68, 55
2, 61607, Control_c, 0, 64, 0
2, 61632, Note_on_c, 0, 37, 25
2, 61658, Note_on_c, 0, 66, 0
2, 61898, Control_c, 0, 64, 127
2, 61900, Note_on_c, 0, 37, 0
2, 62322, Note_on_c, 0, 73, 67
2, 62346, Note_on_c, 0, 65, 30
2, 62348, Note_on_c, 0, 61, 22
2, 62349, Note_on_c, 0, 56, 26
2, 62454, Note_on_c, 0, 68, 0
2, 62640, Note_on_c, 0, 65, 0
2, 62676, Note_on_c, 0, 61, 0
2, 62732, Note_on_c, 0, 56, 0
2, 62822, Note_on_c, 0, 75, 78
2, 62914, Note_on_c, 0, 73, 0
2, 63018, Note_on_c, 0, 77, 86
2, 63030, Note_on_c, 0, 61, 29
2, 63032, Note_on_c, 0, 56, 22
2, 63034, Note_on_c, 0, 53, 37
2, 63078, Note_on_c, 0, 75, 0
2, 63096, Control_c, 0, 64, 0
2, 63306, Note_on_c, 0, 53, 0
2, 63314, Note_on_c, 0, 56, 0
2, 63342, Control_c, 0, 64, 127
2, 63354, Note_on_c, 0, 61, 0
2, 63382, Note_on_c, 0, 77, 0
2, 63718, Note_on_c, 0, 77, 78
2, 63740, Note_on_c, 0, 65, 23
2, 63743, Note_on_c, 0, 61, 20
2, 63744, Note_on_c, 0, 56, 20
2, 63980, Note_on_c, 0, 65, 0
2, 64101, Note_on_c, 0, 61, 0
2, 64186, Note_on_c, 0, 56, 0
2, 64368, Note_on_c, 0, 77, 0
2, 64644, Note_on_c, 0, 77, 38
2, 64654, Note_on_c, 0, 37, 25
2, 64678, Control_c, 0, 64, 0
2, 64900, Note_on_c, 0, 37, 0
2, 64910, Control_c, 0, 64, 127
2, 65462, Note_on_c, 0, 66, 16
2, 65474, Note_on_c, 0, 57, 7
2, 65476, Note_on_c, 0, 61, 11
2, 65744, Note_on_c, 0, 76, 20
2, 65749, Note_on_c, 0, 77, 0
2, 65804, Note_on_c, 0, 61, 0
2, 65826, Note_on_c, 0, 76, 0
2, 65832, Note_on_c, 0, 57, 0
2, 65878, Note_on_c, 0, 75, 38
2, 65932, Note_on_c, 0, 66, 0
2, 65944, Note_on_c, 0, 75, 0
2, 66008, Note_on_c, 0, 74, 26
2, 66082, Note_on_c, 0, 74, 0
2, 66082, Note_on_c, 0, 73, 40
2, 66184, Note_on_c, 0, 72, 35
2, 66187, Note_on_c, 0, 73, 0
2, 66240, Note_on_c, 0, 72, 0
2, 66270, Note_on_c, 0, 71, 44
2, 66336, Note_on_c, 0, 61, 19
2, 66338, Note_on_c, 0, 70, 41
2, 66350, Note_on_c, 0, 71, 0
2, 66352, Note_on_c, 0, 54, 20
2, 66355, Note_on_c, 0, 57, 9
2, 66446, Note_on_c, 0, 69, 44
2, 66504, Note_on_c, 0, 70, 0
2, 66642, Note_on_c, 0, 57, 0
2, 66716, Note_on_c, 0, 61, 0
2, 67142, Note_on_c, 0, 66, 17
2, 67158, Note_on_c, 0, 61, 26
2, 67164, Note_on_c, 0, 57, 18
2, 67168, Control_c, 0, 64, 0
2, 67382, Note_on_c, 0, 66, 0
2, 67384, Control_c, 0, 64, 127
2, 67410, Note_on_c, 0, 61, 0
2, 67450, Note_on_c, 0, 57, 0
2, 67520, Note_on_c, 0, 54, 0
2, 67868, Note_on_c, 0, 37, 36
2, 67986, Note_on_c, 0, 37, 0
2, 68078, Note_on_c, 0, 69, 0
2, 68514, Note_on_c, 0, 73, 74
2, 68518, Note_on_c, 0, 57, 17
2, 68520, Note_on_c, 0, 66, 26
2, 68522, Note_on_c, 0, 61, 23
2, 68816, Note_on_c, 0, 57, 0
2, 68872, Note_on_c, 0, 61, 0
2, 68980, Note_on_c, 0, 66, 0
2, 69116, Note_on_c, 0, 77, 88
2, 69182, Note_on_c, 0, 73, 0
2, 69312, Note_on_c, 0, 61, 44
2, 69316, Note_on_c, 0, 57, 31
2, 69318, Note_on_c, 0, 54, 38
2, 69354, Note_on_c, 0, 78, 79
2, 69418, Note_on_c, 0, 77, 0
2, 69458, Control_c, 0, 64, 0
2, 69628, Control_c, 0, 64, 127
2, 69630, Note_on_c, 0, 57, 0
2, 69660, Note_on_c, 0, 54, 0
2, 69670, Note_on_c, 0, 78, 0
2, 69700, Note_on_c, 0, 61, 0
2, 69878, Note_on_c, 0, 78, 81
2, 70024, Note_on_c, 0, 78, 0
2, 70064, Note_on_c, 0, 69, 37
2, 70069, Note_on_c, 0, 61, 38
2, 70070, Note_on_c, 0, 57, 31
2, 70228, Note_on_c, 0, 69, 0
2, 70276, Note_on_c, 0, 57, 0
2, 70319, Note_on_c, 0, 61, 0
2, 70386, Note_on_c, 0, 78, 76
2, 70586, Note_on_c, 0, 78, 0
2, 70982, Note_on_c, 0, 78, 54
2, 71008, Note_on_c, 0, 36, 25
2, 71008, Control_c, 0, 64, 0
2, 71268, Note_on_c, 0, 36, 0
2, 71270, Control_c, 0, 64, 127
2, 71836, Note_on_c, 0, 66, 7
2, 71840, Note_on_c, 0, 62, 15
2, 71844, Note_on_c, 0, 57, 13
2, 72020, Note_on_c, 0, 78, 0
2, 72028, Note_on_c, 0, 77, 38
2, 72094, Note_on_c, 0, 77, 0
2, 72158, Note_on_c, 0, 62, 0
2, 72160, Note_on_c, 0, 76, 41
2, 72278, Note_on_c, 0, 75, 33
2, 72284, Note_on_c, 0, 76, 0
2, 72296, Note_on_c, 0, 57, 0
2, 72342, Note_on_c, 0, 66, 0
2, 72368, Note_on_c, 0, 74, 35
2, 72374, Note_on_c, 0, 75, 0
2, 72426, Note_on_c, 0, 74, 0
2, 72440, Note_on_c, 0, 73, 36
2, 72502, Note_on_c, 0, 73, 0
2, 72546, Note_on_c, 0, 72, 31
2, 72618, Note_on_c, 0, 71, 51
2, 72660, Note_on_c, 0, 72, 0
2, 72688, Note_on_c, 0, 70, 41
2, 72696, Note_on_c, 0, 71, 0
2, 72736, Note_on_c, 0, 57, 12
2, 72736, Note_on_c, 0, 62, 18
2, 72742, Note_on_c, 0, 54, 19
2, 72814, Note_on_c, 0, 69, 50
2, 72854, Note_on_c, 0, 70, 0
2, 72898, Control_c, 0, 64, 0
2, 73086, Note_on_c, 0, 62, 0
2, 73092, Note_on_c, 0, 57, 0
2, 73100, Control_c, 0, 64, 127
2, 73134, Note_on_c, 0, 54, 0
2, 73502, Note_on_c, 0, 66, 14
2, 73502, Note_on_c, 0, 57, 25
2, 73516, Note_on_c, 0, 62, 25
2, 73610, Note_on_c, 0, 62, 0
2, 73678, Note_on_c, 0, 66, 0
2, 73760, Note_on_c, 0, 57, 0
2, 74236, Control_c, 0, 64, 0
2, 74236, Note_on_c, 0, 47, 32
2, 74239, Note_on_c, 0, 35, 38
2, 74428, Note_on_c, 0, 35, 0
2, 74466, Control_c, 0, 64, 127
2, 74486, Note_on_c, 0, 47, 0
2, 74660, Note_on_c, 0, 69, 0
2, 75154, Note_on_c, 0, 75, 66
2, 75160, Note_on_c, 0, 66, 34
2, 75162, Note_on_c, 0, 63, 27
2, 75168, Note_on_c, 0, 57, 23
2, 75484, Note_on_c, 0, 57, 0
2, 75508, Note_on_c, 0, 63, 0
2, 75622, Note_on_c, 0, 66, 0
2, 75698, Note_on_c, 0, 77, 90
2, 75752, Note_on_c, 0, 75, 0
2, 75890, Note_on_c, 0, 78, 86
2, 75902, Note_on_c, 0, 63, 47
2, 75906, Note_on_c, 0, 57, 32
2, 75906, Note_on_c, 0, 54, 31
2, 75948, Note_on_c, 0, 77, 0
2, 76004, Control_c, 0, 64, 0
2, 76218, Control_c, 0, 64, 127
2, 76234, Note_on_c, 0, 57, 0
2, 76236, Note_on_c, 0, 54, 0
2, 76280, Note_on_c, 0, 63, 0
2, 76302, Note_on_c, 0, 78, 0
2, 76588, Note_on_c, 0, 78, 87
2, 76591, Note_on_c, 0, 69, 50
2, 76592, Note_on_c, 0, 57, 39
2, 76876, Note_on_c, 0, 69, 0
2, 76908, Note_on_c, 0, 57, 0
2, 76950, Note_on_c, 0, 78, 0
2, 77200, Note_on_c, 0, 78, 91
2, 77332, Note_on_c, 0, 78, 0
2, 77398, Note_on_c, 0, 78, 82
2, 77408, Note_on_c, 0, 34, 65
2, 77414, Note_on_c, 0, 46, 46
2, 77416, Control_c, 0, 64, 0
2, 77584, Note_on_c, 0, 34, 0
2, 77616, Control_c, 0, 64, 127
2, 77626, Note_on_c, 0, 46, 0
2, 77874, Note_on_c, 0, 53, 81
2, 77994, Note_on_c, 0, 58, 58
2, 78006, Note_on_c, 0, 53, 0
2, 78116, Note_on_c, 0, 62, 64
2, 78258, Note_on_c, 0, 70, 79
2, 78368, Note_on_c, 0, 62, 0
2, 78436, Note_on_c, 0, 70, 0
2, 78588, Note_on_c, 0, 58, 0
2, 78592, Note_on_c, 0, 77, 93
2, 78734, Note_on_c, 0, 78, 0
2, 78952, Note_on_c, 0, 75, 86
2, 78964, Note_on_c, 0, 46, 58
2, 78978, Note_on_c, 0, 34, 62
2, 78998, Control_c, 0, 64, 0
2, 79040, Note_on_c, 0, 77, 0
2, 79128, Note_on_c, 0, 34, 0
2, 79174, Note_on_c, 0, 46, 0
2, 79182, Control_c, 0, 64, 127
2, 79232, Note_on_c, 0, 77, 95
2, 79312, Note_on_c, 0, 75, 0
2, 79444, Note_on_c, 0, 75, 92
2, 79464, Note_on_c, 0, 53, 76
2, 79520, Note_on_c, 0, 53, 0
2, 79540, Note_on_c, 0, 77, 0
2, 79558, Note_on_c, 0, 59, 48
2, 79610, Note_on_c, 0, 59, 0
2, 79620, Note_on_c, 0, 63, 65
2, 79668, Note_on_c, 0, 63, 0
2, 79708, Note_on_c, 0, 74, 92
2, 79724, Note_on_c, 0, 69, 72
2, 79814, Note_on_c, 0, 75, 0
2, 79846, Note_on_c, 0, 69, 0
2, 79988, Note_on_c, 0, 75, 94
2, 80078, Note_on_c, 0, 74, 0
2, 80210, Note_on_c, 0, 77, 97
2, 80254, Note_on_c, 0, 75, 0
2, 80404, Note_on_c, 0, 75, 84
2, 80420, Note_on_c, 0, 46, 63
2, 80428, Control_c, 0, 64, 0
2, 80430, Note_on_c, 0, 34, 66
2, 80472, Note_on_c, 0, 77, 0
2, 80590, Note_on_c, 0, 34, 0
2, 80628, Note_on_c, 0, 46, 0
2, 80628, Control_c, 0, 64, 127
2, 80932, Note_on_c, 0, 53, 41
2, 80990, Note_on_c, 0, 53, 0
2, 81114, Note_on_c, 0, 62, 55
2, 81198, Note_on_c, 0, 70, 81
2, 81252, Note_on_c, 0, 62, 0
2, 81326, Note_on_c, 0, 70, 0
2, 81550, Note_on_c, 0, 74, 97
2, 81622, Note_on_c, 0, 75, 0
2, 81960, Note_on_c, 0, 71, 96
2, 81963, Note_on_c, 0, 46, 62
2, 81982, Note_on_c, 0, 34, 55
2, 81994, Note_on_c, 0, 74, 0
2, 82026, Control_c, 0, 64, 0
2, 82188, Note_on_c, 0, 34, 0
2, 82210, Control_c, 0, 64, 127
2, 82244, Note_on_c, 0, 46, 0
2, 82268, Note_on_c, 0, 73, 83
2, 82342, Note_on_c, 0, 71, 0
2, 82492, Note_on_c, 0, 71, 95
2, 82594, Note_on_c, 0, 51, 51
2, 82610, Note_on_c, 0, 73, 0
2, 82696, Note_on_c, 0, 57, 55
2, 82742, Note_on_c, 0, 70, 76
2, 82756, Note_on_c, 0, 51, 0
2, 82808, Note_on_c, 0, 71, 0
2, 82916, Note_on_c, 0, 66, 43
2, 82972, Note_on_c, 0, 71, 88
2, 83014, Note_on_c, 0, 70, 0
2, 83324, Note_on_c, 0, 75, 78
2, 83386, Note_on_c, 0, 71, 0
2, 83532, Note_on_c, 0, 66, 0
2, 83676, Note_on_c, 0, 57, 0
2, 83720, Note_on_c, 0, 73, 70
2, 83842, Note_on_c, 0, 75, 0
2, 84046, Note_on_c, 0, 71, 85
2, 84062, Note_on_c, 0, 73, 0
2, 84294, Note_on_c, 0, 71, 0
2, 84390, Note_on_c, 0, 34, 26
2, 84412, Note_on_c, 0, 71, 69
2, 84438, Control_c, 0, 64, 0
2, 84636, Note_on_c, 0, 34, 0
2, 84654, Control_c, 0, 64, 127
2, 85074, Note_on_c, 0, 50, 38
2, 85490, Note_on_c, 0, 50, 0
2, 85546, Note_on_c, 0, 58, 29
2, 85850, Note_on_c, 0, 58, 0
2, 85942, Note_on_c, 0, 53, 39
2, 85948, Note_on_c, 0, 70, 30
2, 86018, Note_on_c, 0, 71, 0
2, 86146, Note_on_c, 0, 53, 0
2, 86310, Note_on_c, 0, 62, 44
2, 86628, Note_on_c, 0, 62, 0
2, 86680, Note_on_c, 0, 58, 26
2, 87230, Note_on_c, 0, 65, 37
2, 87510, Note_on_c, 0, 70, 0
2, 87966, Note_on_c, 0, 70, 45
2, 88132, Note_on_c, 0, 58, 0
2, 88200, Control_c, 0, 64, 0
2, 88280, Control_c, 0, 64, 127
2, 88368, Note_on_c, 0, 70, 0
2, 88594, Note_on_c, 0, 70, 28
2, 88838, Note_on_c, 0, 70, 0
2, 89004, Note_on_c, 0, 70, 31
2, 89078, Control_c, 0, 64, 0
2, 89262, Control_c, 0, 64, 127
2, 89266, Note_on_c, 0, 70, 0
2, 89542, Note_on_c, 0, 70, 23
2, 89646, Control_c, 0, 64, 0
2, 89848, Control_c, 0, 64, 127
2, 90058, Note_on_c, 0, 70, 0
2, 90338, Note_on_c, 0, 71, 28
2, 90476, Control_c, 0, 64, 0
2, 90738, Control_c, 0, 64, 127
2, 91038, Note_on_c, 0, 71, 0
2, 91376, Note_on_c, 0, 77, 38
2, 91382, Note_on_c, 0, 37, 16
2, 91540, Note_on_c, 0, 37, 0
2, 91620, Note_on_c, 0, 77, 0
2, 91760, Note_on_c, 0, 65, 0
2, 91780, Note_on_c, 0, 68, 20
2, 92006, Note_on_c, 0, 68, 0
2, 92016, Note_on_c, 0, 71, 30
2, 92048, Note_on_c, 0, 59, 22
2, 92049, Note_on_c, 0, 56, 12
2, 92058, Note_on_c, 0, 49, 13
2, 92142, Note_on_c, 0, 71, 0
2, 92168, Note_on_c, 0, 63, 29
2, 92310, Note_on_c, 0, 75, 49
2, 92312, Note_on_c, 0, 59, 0
2, 92344, Note_on_c, 0, 63, 0
2, 92366, Note_on_c, 0, 75, 0
2, 92383, Note_on_c, 0, 56, 0
2, 92516, Note_on_c, 0, 49, 0
2, 92534, Note_on_c, 0, 73, 48
2, 92537, Note_on_c, 0, 61, 36
2, 92624, Note_on_c, 0, 61, 0
2, 92728, Note_on_c, 0, 68, 36
2, 92810, Note_on_c, 0, 68, 0
2, 92860, Note_on_c, 0, 71, 45
2, 92874, Note_on_c, 0, 44, 28
2, 92878, Note_on_c, 0, 73, 0
2, 92930, Note_on_c, 0, 71, 0
2, 92972, Note_on_c, 0, 63, 38
2, 93048, Note_on_c, 0, 63, 0
2, 93076, Note_on_c, 0, 75, 65
2, 93086, Note_on_c, 0, 44, 0
2, 93236, Note_on_c, 0, 75, 0
2, 93250, Note_on_c, 0, 77, 78
2, 93258, Note_on_c, 0, 37, 24
2, 93262, Note_on_c, 0, 65, 50
2, 93372, Note_on_c, 0, 65, 0
2, 93382, Note_on_c, 0, 37, 0
2, 93474, Note_on_c, 0, 71, 33
2, 93540, Note_on_c, 0, 71, 0
2, 93560, Note_on_c, 0, 73, 43
2, 93588, Note_on_c, 0, 59, 41
2, 93590, Note_on_c, 0, 56, 24
2, 93594, Note_on_c, 0, 49, 17
2, 93638, Note_on_c, 0, 73, 0
2, 93641, Note_on_c, 0, 77, 0
2, 93666, Note_on_c, 0, 66, 41
2, 93732, Note_on_c, 0, 66, 0
2, 93774, Note_on_c, 0, 78, 78
2, 93896, Note_on_c, 0, 78, 0
2, 93918, Control_c, 0, 64, 0
2, 93950, Note_on_c, 0, 80, 79
2, 93952, Note_on_c, 0, 68, 54
2, 93980, Note_on_c, 0, 59, 0
2, 94010, Control_c, 0, 64, 127
2, 94014, Note_on_c, 0, 56, 0
2, 94062, Note_on_c, 0, 49, 0
2, 94062, Note_on_c, 0, 80, 0
2, 94070, Note_on_c, 0, 68, 0
2, 94132, Note_on_c, 0, 71, 46
2, 94212, Note_on_c, 0, 71, 0
2, 94232, Note_on_c, 0, 73, 54
2, 94250, Note_on_c, 0, 44, 48
2, 94278, Note_on_c, 0, 73, 0
2, 94326, Note_on_c, 0, 70, 56
2, 94388, Note_on_c, 0, 70, 0
2, 94414, Note_on_c, 0, 82, 76
2, 94436, Note_on_c, 0, 44, 0
2, 94456, Note_on_c, 0, 82, 0
2, 94572, Note_on_c, 0, 80, 90
2, 94586, Note_on_c, 0, 37, 44
2, 94589, Note_on_c, 0, 68, 58
2, 94642, Note_on_c, 0, 37, 0
2, 94683, Note_on_c, 0, 68, 0
2, 94718, Note_on_c, 0, 80, 0
2, 94768, Note_on_c, 0, 71, 52
2, 94880, Note_on_c, 0, 73, 48
2, 94884, Note_on_c, 0, 71, 0
2, 94893, Note_on_c, 0, 59, 45
2, 94896, Note_on_c, 0, 56, 35
2, 94900, Note_on_c, 0, 49, 22
2, 94944, Note_on_c, 0, 65, 56
2, 94970, Note_on_c, 0, 73, 0
2, 95036, Note_on_c, 0, 59, 0
2, 95036, Note_on_c, 0, 56, 0
2, 95041, Note_on_c, 0, 65, 0
2, 95041, Note_on_c, 0, 77, 78
2, 95080, Note_on_c, 0, 77, 0
2, 95218, Note_on_c, 0, 78, 74
2, 95224, Note_on_c, 0, 66, 52
2, 95226, Control_c, 0, 64, 0
2, 95234, Note_on_c, 0, 60, 41
2, 95236, Note_on_c, 0, 57, 29
2, 95316, Note_on_c, 0, 60, 0
2, 95346, Note_on_c, 0, 57, 0
2, 95362, Control_c, 0, 64, 127
2, 95400, Note_on_c, 0, 66, 0
2, 95401, Note_on_c, 0, 49, 0
2, 95418, Note_on_c, 0, 69, 37
2, 95442, Note_on_c, 0, 78, 0
2, 95552, Note_on_c, 0, 72, 33
2, 95560, Note_on_c, 0, 69, 0
2, 95578, Note_on_c, 0, 37, 37
2, 95610, Note_on_c, 0, 63, 66
2, 95632, Note_on_c, 0, 72, 0
2, 95638, Note_on_c, 0, 37, 0
2, 95680, Note_on_c, 0, 63, 0
2, 95732, Note_on_c, 0, 75, 53
2, 95892, Note_on_c, 0, 75, 0
2, 95906, Note_on_c, 0, 77, 51
2, 95906, Note_on_c, 0, 65, 52
2, 95916, Note_on_c, 0, 56, 45
2, 95922, Note_on_c, 0, 49, 23
2, 95978, Control_c, 0, 64, 0
2, 96074, Note_on_c, 0, 68, 47
2, 96130, Control_c, 0, 64, 127
2, 96144, Note_on_c, 0, 56, 0
2, 96160, Note_on_c, 0, 68, 0
2, 96186, Note_on_c, 0, 73, 34
2, 96264, Note_on_c, 0, 73, 0
2, 96278, Note_on_c, 0, 57, 57
2, 96278, Note_on_c, 0, 61, 39
2, 96354, Note_on_c, 0, 61, 0
2, 96386, Note_on_c, 0, 69, 24
2, 96474, Note_on_c, 0, 69, 0
2, 96496, Note_on_c, 0, 73, 32
2, 96600, Note_on_c, 0, 73, 0
2, 96634, Note_on_c, 0, 57, 0
2, 96648, Note_on_c, 0, 56, 43
2, 96666, Note_on_c, 0, 68, 45
2, 96668, Control_c, 0, 64, 0
2, 96680, Note_on_c, 0, 65, 0
2, 96854, Control_c, 0, 64, 127
2, 96854, Note_on_c, 0, 65, 40
2, 96857, Note_on_c, 0, 68, 0
2, 96861, Note_on_c, 0, 56, 0
2, 96894, Note_on_c, 0, 49, 0
2, 97082, Note_on_c, 0, 44, 51
2, 97084, Note_on_c, 0, 73, 31
2, 97164, Note_on_c, 0, 73, 0
2, 97172, Note_on_c, 0, 77, 0
2, 97188, Note_on_c, 0, 68, 30
2, 97194, Note_on_c, 0, 65, 0
2, 97278, Note_on_c, 0, 68, 0
2, 97320, Note_on_c, 0, 73, 41
2, 97338, Note_on_c, 0, 44, 0
2, 97394, Note_on_c, 0, 73, 0
2, 97436, Control_c, 0, 64, 0
2, 97438, Note_on_c, 0, 77, 71
2, 97444, Note_on_c, 0, 37, 38
2, 97448, Note_on_c, 0, 65, 46
2, 97576, Note_on_c, 0, 37, 0
2, 97592, Control_c, 0, 64, 127
2, 97614, Note_on_c, 0, 65, 0
2, 97640, Note_on_c, 0, 77, 0
2, 97640, Note_on_c, 0, 68, 43
2, 97758, Note_on_c, 0, 68, 0
2, 97770, Note_on_c, 0, 71, 59
2, 97784, Note_on_c, 0, 59, 34
2, 97786, Note_on_c, 0, 56, 21
2, 97788, Note_on_c, 0, 49, 7
2, 97850, Note_on_c, 0, 63, 57
2, 97932, Note_on_c, 0, 75, 58
2, 97938, Note_on_c, 0, 71, 0
2, 97944, Note_on_c, 0, 63, 0
2, 97976, Note_on_c, 0, 75, 0
2, 97994, Note_on_c, 0, 59, 0
2, 98038, Note_on_c, 0, 56, 0
2, 98066, Note_on_c, 0, 61, 73
2, 98069, Note_on_c, 0, 73, 70
2, 98118, Note_on_c, 0, 49, 0
2, 98192, Note_on_c, 0, 61, 0
2, 98234, Note_on_c, 0, 68, 44
2, 98330, Note_on_c, 0, 68, 0
2, 98352, Note_on_c, 0, 44, 71
2, 98355, Note_on_c, 0, 71, 57
2, 98358, Note_on_c, 0, 73, 0
2, 98404, Note_on_c, 0, 71, 0
2, 98444, Note_on_c, 0, 63, 67
2, 98544, Note_on_c, 0, 75, 76
2, 98558, Note_on_c, 0, 63, 0
2, 98586, Note_on_c, 0, 44, 0
2, 98682, Control_c, 0, 64, 0
2, 98682, Note_on_c, 0, 77, 94
2, 98685, Note_on_c, 0, 75, 0
2, 98685, Note_on_c, 0, 37, 58
2, 98689, Note_on_c, 0, 65, 71
2, 98800, Note_on_c, 0, 37, 0
2, 98820, Control_c, 0, 64, 127
2, 98854, Note_on_c, 0, 71, 59
2, 98858, Note_on_c, 0, 65, 0
2, 98944, Note_on_c, 0, 77, 0
2, 98960, Note_on_c, 0, 73, 48
2, 98964, Note_on_c, 0, 71, 0
2, 98974, Note_on_c, 0, 59, 63
2, 98977, Note_on_c, 0, 56, 46
2, 98986, Note_on_c, 0, 49, 26
2, 99016, Note_on_c, 0, 73, 0
2, 99034, Note_on_c, 0, 66, 62
2, 99104, Note_on_c, 0, 66, 0
2, 99138, Note_on_c, 0, 78, 76
2, 99154, Note_on_c, 0, 59, 0
2, 99222, Note_on_c, 0, 78, 0
2, 99262, Note_on_c, 0, 80, 87
2, 99264, Note_on_c, 0, 56, 0
2, 99274, Note_on_c, 0, 68, 71
2, 99318, Note_on_c, 0, 49, 0
2, 99356, Note_on_c, 0, 80, 0
2, 99400, Note_on_c, 0, 68, 0
2, 99416, Note_on_c, 0, 71, 55
2, 99512, Note_on_c, 0, 71, 0
2, 99520, Note_on_c, 0, 73, 61
2, 99534, Note_on_c, 0, 44, 68
2, 99566, Note_on_c, 0, 73, 0
2, 99616, Note_on_c, 0, 70, 59
2, 99706, Note_on_c, 0, 82, 78
2, 99746, Note_on_c, 0, 82, 0
2, 99774, Note_on_c, 0, 44, 0
2, 99780, Note_on_c, 0, 70, 0
2, 99866, Note_on_c, 0, 80, 89
2, 99874, Note_on_c, 0, 68, 69
2, 99878, Note_on_c, 0, 37, 60
2, 99896, Control_c, 0, 64, 0
2, 99972, Control_c, 0, 64, 127
2, 99978, Note_on_c, 0, 37, 0
2, 100004, Note_on_c, 0, 80, 0
2, 100024, Note_on_c, 0, 68, 0
2, 100048, Note_on_c, 0, 71, 52
2, 100142, Note_on_c, 0, 56, 59
2, 100142, Note_on_c, 0, 59, 55
2, 100148, Note_on_c, 0, 49, 38
2, 100155, Note_on_c, 0, 73, 56
2, 100198, Note_on_c, 0, 71, 0
2, 100226, Note_on_c, 0, 65, 54
2, 100256, Note_on_c, 0, 73, 0
2, 100270, Note_on_c, 0, 59, 0
2, 100302, Note_on_c, 0, 77, 72
2, 100316, Note_on_c, 0, 56, 0
2, 100324, Note_on_c, 0, 65, 0
2, 100342, Note_on_c, 0, 77, 0
2, 100434, Control_c, 0, 64, 0
2, 100442, Note_on_c, 0, 66, 71
2, 100444, Note_on_c, 0, 78, 85
2, 100447, Note_on_c, 0, 60, 75
2, 100456, Note_on_c, 0, 57, 62
2, 100546, Note_on_c, 0, 60, 0
2, 100570, Note_on_c, 0, 57, 0
2, 100572, Control_c, 0, 64, 127
2, 100604, Note_on_c, 0, 66, 0
2, 100606, Note_on_c, 0, 49, 0
2, 100607, Note_on_c, 0, 69, 44
2, 100650, Note_on_c, 0, 78, 0
2, 100734, Note_on_c, 0, 72, 50
2, 100756, Note_on_c, 0, 37, 68
2, 100798, Note_on_c, 0, 69, 0
2, 100818, Note_on_c, 0, 63, 69
2, 100831, Note_on_c, 0, 37, 0
2, 100872, Note_on_c, 0, 63, 0
2, 100914, Note_on_c, 0, 75, 68
2, 100974, Note_on_c, 0, 72, 0
2, 101032, Control_c, 0, 64, 0
2, 101048, Note_on_c, 0, 61, 79
2, 101050, Note_on_c, 0, 77, 86
2, 101050, Note_on_c, 0, 56, 55
2, 101058, Note_on_c, 0, 49, 31
2, 101060, Note_on_c, 0, 75, 0
2, 101064, Note_on_c, 0, 65, 40
2, 101108, Note_on_c, 0, 67, 24
2, 101158, Note_on_c, 0, 61, 0
2, 101164, Note_on_c, 0, 67, 0
2, 101180, Note_on_c, 0, 56, 0
2, 101190, Note_on_c, 0, 68, 65
2, 101198, Note_on_c, 0, 49, 0
2, 101202, Control_c, 0, 64, 127
2, 101210, Note_on_c, 0, 65, 0
2, 101288, Note_on_c, 0, 77, 0
2, 101326, Note_on_c, 0, 73, 54
2, 101342, Note_on_c, 0, 37, 85
2, 101354, Note_on_c, 0, 68, 0
2, 101434, Note_on_c, 0, 65, 75
2, 101435, Note_on_c, 0, 37, 0
2, 101442, Note_on_c, 0, 73, 0
2, 101498, Note_on_c, 0, 65, 0
2, 101542, Note_on_c, 0, 77, 94
2, 101656, Note_on_c, 0, 77, 0
2, 101694, Control_c, 0, 64, 0
2, 101700, Note_on_c, 0, 79, 101
2, 101710, Note_on_c, 0, 67, 81
2, 101711, Note_on_c, 0, 58, 62
2, 101712, Note_on_c, 0, 55, 64
2, 101713, Note_on_c, 0, 64, 86
2, 101848, Note_on_c, 0, 64, 0
2, 101860, Note_on_c, 0, 55, 0
2, 101872, Note_on_c, 0, 70, 63
2, 101873, Note_on_c, 0, 58, 0
2, 101874, Control_c, 0, 64, 127
2, 101880, Note_on_c, 0, 67, 0
2, 102012, Note_on_c, 0, 76, 64
2, 102028, Note_on_c, 0, 70, 0
2, 102050, Note_on_c, 0, 79, 0
2, 102062, Note_on_c, 0, 49, 76
2, 102066, Note_on_c, 0, 37, 70
2, 102126, Note_on_c, 0, 67, 66
2, 102154, Note_on_c, 0, 76, 0
2, 102222, Note_on_c, 0, 37, 0
2, 102234, Note_on_c, 0, 79, 99
2, 102250, Note_on_c, 0, 49, 0
2, 102254, Note_on_c, 0, 67, 0
2, 102330, Note_on_c, 0, 79, 0
2, 102454, Note_on_c, 0, 80, 84
2, 102464, Note_on_c, 0, 68, 57
2, 102464, Note_on_c, 0, 50, 93
2, 102466, Note_on_c, 0, 38, 66
2, 102492, Control_c, 0, 64, 0
2, 102622, Note_on_c, 0, 38, 0
2, 102714, Note_on_c, 0, 50, 0
2, 102718, Note_on_c, 0, 68, 0
2, 102722, Note_on_c, 0, 71, 61
2, 102724, Control_c, 0, 64, 127
2, 102812, Note_on_c, 0, 80, 0
2, 102922, Note_on_c, 0, 71, 0
2, 102922, Note_on_c, 0, 59, 53
2, 102928, Note_on_c, 0, 52, 37
2, 102932, Note_on_c, 0, 56, 35
2, 102934, Note_on_c, 0, 76, 42
2, 103026, Note_on_c, 0, 66, 42
2, 103050, Note_on_c, 0, 76, 0
2, 103114, Note_on_c, 0, 78, 77
2, 103162, Note_on_c, 0, 78, 0
2, 103166, Note_on_c, 0, 66, 0
2, 103290, Note_on_c, 0, 76, 69
2, 103306, Note_on_c, 0, 64, 49
2, 103316, Note_on_c, 0, 52, 0
2, 103344, Note_on_c, 0, 56, 0
2, 103346, Note_on_c, 0, 59, 0
2, 103360, Note_on_c, 0, 64, 0
2, 103410, Note_on_c, 0, 68, 50
2, 103438, Note_on_c, 0, 76, 0
2, 103532, Note_on_c, 0, 68, 0
2, 103546, Note_on_c, 0, 71, 55
2, 103560, Note_on_c, 0, 56, 52
2, 103560, Note_on_c, 0, 59, 60
2, 103576, Note_on_c, 0, 52, 58
2, 103598, Note_on_c, 0, 71, 0
2, 103626, Note_on_c, 0, 59, 0
2, 103638, Note_on_c, 0, 66, 66
2, 103644, Note_on_c, 0, 52, 0
2, 103662, Note_on_c, 0, 56, 0
2, 103732, Note_on_c, 0, 66, 0
2, 103736, Note_on_c, 0, 78, 81
2, 103870, Note_on_c, 0, 78, 0
2, 103870, Note_on_c, 0, 80, 91
2, 103870, Note_on_c, 0, 68, 67
2, 103876, Note_on_c, 0, 50, 88
2, 103878, Note_on_c, 0, 38, 72
2, 103928, Note_on_c, 0, 50, 0
2, 103953, Note_on_c, 0, 38, 0
2, 104012, Note_on_c, 0, 68, 0
2, 104028, Note_on_c, 0, 71, 66
2, 104031, Note_on_c, 0, 80, 0
2, 104148, Note_on_c, 0, 76, 55
2, 104150, Note_on_c, 0, 71, 0
2, 104153, Note_on_c, 0, 59, 72
2, 104156, Note_on_c, 0, 56, 55
2, 104158, Note_on_c, 0, 52, 65
2, 104200, Note_on_c, 0, 76, 0
2, 104238, Note_on_c, 0, 69, 67
2, 104304, Note_on_c, 0, 69, 0
2, 104324, Note_on_c, 0, 81, 91
2, 104358, Note_on_c, 0, 81, 0
2, 104456, Note_on_c, 0, 83, 116
2, 104461, Note_on_c, 0, 71, 92
2, 104470, Note_on_c, 0, 52, 0
2, 104476, Note_on_c, 0, 56, 0
2, 104483, Note_on_c, 0, 59, 0
2, 104586, Note_on_c, 0, 71, 0
2, 104600, Note_on_c, 0, 76, 60
2, 104632, Note_on_c, 0, 83, 0
2, 104694, Note_on_c, 0, 59, 66
2, 104694, Note_on_c, 0, 56, 63
2, 104704, Note_on_c, 0, 52, 71
2, 104708, Note_on_c, 0, 80, 77
2, 104736, Note_on_c, 0, 76, 0
2, 104736, Note_on_c, 0, 59, 0
2, 104752, Note_on_c, 0, 56, 0
2, 104752, Note_on_c, 0, 52, 0
2, 104782, Note_on_c, 0, 80, 0
2, 104800, Note_on_c, 0, 73, 62
2, 104882, Note_on_c, 0, 85, 81
2, 104922, Note_on_c, 0, 85, 0
2, 104964, Note_on_c, 0, 73, 0
2, 104996, Control_c, 0, 64, 0
2, 105016, Note_on_c, 0, 83, 115
2, 105024, Note_on_c, 0, 50, 84
2, 105024, Note_on_c, 0, 71, 92
2, 105027, Note_on_c, 0, 38, 71
2, 105070, Note_on_c, 0, 38, 0
2, 105110, Note_on_c, 0, 50, 0
2, 105134, Control_c, 0, 64, 127
2, 105160, Note_on_c, 0, 76, 63
2, 105170, Note_on_c, 0, 83, 0
2, 105172, Note_on_c, 0, 71, 0
2, 105286, Note_on_c, 0, 59, 82
2, 105294, Note_on_c, 0, 56, 68
2, 105312, Note_on_c, 0, 80, 54
2, 105324, Note_on_c, 0, 76, 0
2, 105368, Note_on_c, 0, 68, 70
2, 105386, Note_on_c, 0, 80, 0
2, 105468, Note_on_c, 0, 80, 73
2, 105498, Note_on_c, 0, 56, 0
2, 105532, Note_on_c, 0, 59, 0
2, 105532, Note_on_c, 0, 68, 0
2, 105556, Note_on_c, 0, 80, 0
2, 105596, Control_c, 0, 64, 0
2, 105618, Note_on_c, 0, 54, 77
2, 105618, Note_on_c, 0, 81, 90
2, 105618, Note_on_c, 0, 69, 71
2, 105618, Note_on_c, 0, 60, 86
2, 105720, Control_c, 0, 64, 127
2, 105744, Note_on_c, 0, 60, 0
2, 105746, Note_on_c, 0, 54, 0
2, 105768, Note_on_c, 0, 81, 0
2, 105802, Note_on_c, 0, 72, 43
2, 105820, Note_on_c, 0, 69, 0
2, 105928, Note_on_c, 0, 78, 63
2, 105931, Note_on_c, 0, 38, 67
2, 105974, Note_on_c, 0, 38, 0
2, 105992, Note_on_c, 0, 78, 0
2, 106006, Note_on_c, 0, 72, 0
2, 106014, Note_on_c, 0, 66, 61
2, 106086, Note_on_c, 0, 66, 0
2, 106094, Note_on_c, 0, 78, 61
2, 106170, Note_on_c, 0, 78, 0
2, 106252, Note_on_c, 0, 68, 54
2, 106255, Note_on_c, 0, 59, 72
2, 106255, Control_c, 0, 64, 0
2, 106258, Note_on_c, 0, 56, 50
2, 106258, Note_on_c, 0, 52, 64
2, 106259, Note_on_c, 0, 80, 73
2, 106261, Note_on_c, 0, 50, 41
2, 106448, Note_on_c, 0, 71, 56
2, 106472, Control_c, 0, 64, 127
2, 106490, Note_on_c, 0, 59, 0
2, 106582, Note_on_c, 0, 71, 0
2, 106584, Note_on_c, 0, 76, 37
2, 106632, Note_on_c, 0, 60, 75
2, 106666, Note_on_c, 0, 76, 0
2, 106692, Note_on_c, 0, 56, 0
2, 106772, Note_on_c, 0, 72, 39
2, 106796, Note_on_c, 0, 68, 0
2, 106878, Note_on_c, 0, 72, 0
2, 106918, Note_on_c, 0, 76, 26
2, 106986, Note_on_c, 0, 60, 0
2, 106994, Note_on_c, 0, 76, 0
2, 107012, Note_on_c, 0, 59, 58
2, 107038, Note_on_c, 0, 71, 44
2, 107090, Note_on_c, 0, 52, 0
2, 107167, Note_on_c, 0, 50, 0
2, 107195, Note_on_c, 0, 68, 49
2, 107206, Note_on_c, 0, 71, 0
2, 107238, Note_on_c, 0, 59, 0
2, 107308, Note_on_c, 0, 68, 0
2, 107320, Note_on_c, 0, 76, 38
2, 107322, Note_on_c, 0, 56, 67
2, 107366, Note_on_c, 0, 80, 0
2, 107369, Note_on_c, 0, 56, 0
2, 107382, Note_on_c, 0, 76, 0
2, 107416, Note_on_c, 0, 71, 54
2, 107520, Note_on_c, 0, 76, 48
2, 107562, Note_on_c, 0, 71, 0
2, 107640, Control_c, 0, 64, 0
2, 107643, Note_on_c, 0, 80, 83
2, 107648, Note_on_c, 0, 68, 60
2, 107650, Note_on_c, 0, 76, 0
2, 107650, Note_on_c, 0, 38, 74
2, 107752, Note_on_c, 0, 38, 0
2, 107780, Control_c, 0, 64, 127
2, 107824, Note_on_c, 0, 80, 0
2, 107850, Note_on_c, 0, 71, 64
2, 107866, Note_on_c, 0, 68, 0
2, 107968, Note_on_c, 0, 52, 44
2, 107970, Note_on_c, 0, 56, 43
2, 107970, Note_on_c, 0, 76, 53
2, 107972, Note_on_c, 0, 59, 57
2, 108006, Note_on_c, 0, 71, 0
2, 108064, Note_on_c, 0, 66, 49
2, 108116, Note_on_c, 0, 76, 0
2, 108119, Note_on_c, 0, 78, 73
2, 108162, Note_on_c, 0, 78, 0
2, 108182, Note_on_c, 0, 66, 0
2, 108264, Note_on_c, 0, 76, 78
2, 108267, Note_on_c, 0, 64, 88
2, 108270, Note_on_c, 0, 52, 0
2, 108326, Note_on_c, 0, 59, 0
2, 108340, Note_on_c, 0, 64, 0
2, 108352, Note_on_c, 0, 56, 0
2, 108392, Note_on_c, 0, 68, 61
2, 108432, Note_on_c, 0, 76, 0
2, 108514, Note_on_c, 0, 71, 74
2, 108519, Note_on_c, 0, 68, 0
2, 108524, Note_on_c, 0, 59, 66
2, 108530, Note_on_c, 0, 56, 62
2, 108530, Note_on_c, 0, 52, 60
2, 108530, Note_on_c, 0, 50, 49
2, 108566, Note_on_c, 0, 71, 0
2, 108566, Note_on_c, 0, 59, 0
2, 108574, Note_on_c, 0, 52, 0
2, 108586, Note_on_c, 0, 50, 0
2, 108588, Note_on_c, 0, 56, 0
2, 108612, Note_on_c, 0, 66, 77
2, 108696, Note_on_c, 0, 78, 83
2, 108728, Note_on_c, 0, 66, 0
2, 108738, Note_on_c, 0, 78, 0
2, 108820, Note_on_c, 0, 68, 84
2, 108826, Note_on_c, 0, 80, 95
2, 108848, Note_on_c, 0, 38, 62
2, 108892, Note_on_c, 0, 38, 0
2, 108972, Note_on_c, 0, 68, 0
2, 108976, Note_on_c, 0, 71, 69
2, 108988, Note_on_c, 0, 80, 0
2, 109088, Note_on_c, 0, 56, 67
2, 109088, Note_on_c, 0, 59, 79
2, 109092, Note_on_c, 0, 52, 53
2, 109094, Note_on_c, 0, 76, 67
2, 109100, Note_on_c, 0, 71, 0
2, 109154, Note_on_c, 0, 76, 0
2, 109186, Note_on_c, 0, 69, 74
2, 109266, Note_on_c, 0, 81, 75
2, 109284, Note_on_c, 0, 69, 0
2, 109304, Note_on_c, 0, 81, 0
2, 109370, Note_on_c, 0, 56, 0
2, 109378, Note_on_c, 0, 83, 117
2, 109394, Note_on_c, 0, 59, 0
2, 109396, Note_on_c, 0, 71, 75
2, 109452, Note_on_c, 0, 52, 0
2, 109512, Note_on_c, 0, 71, 0
2, 109520, Note_on_c, 0, 76, 55
2, 109590, Note_on_c, 0, 83, 0
2, 109630, Note_on_c, 0, 64, 89
2, 109636, Note_on_c, 0, 80, 83
2, 109636, Note_on_c, 0, 56, 70
2, 109644, Note_on_c, 0, 59, 75
2, 109654, Note_on_c, 0, 76, 0
2, 109682, Note_on_c, 0, 64, 0
2, 109704, Note_on_c, 0, 59, 0
2, 109730, Note_on_c, 0, 80, 0
2, 109748, Note_on_c, 0, 73, 80
2, 109756, Note_on_c, 0, 56, 0
2, 109822, Note_on_c, 0, 85, 89
2, 109872, Note_on_c, 0, 85, 0
2, 109875, Note_on_c, 0, 73, 0
2, 109930, Control_c, 0, 64, 0
2, 109946, Note_on_c, 0, 74, 103
2, 109948, Note_on_c, 0, 86, 105
2, 109958, Note_on_c, 0, 49, 95
2, 109972, Note_on_c, 0, 37, 75
2, 110010, Note_on_c, 0, 37, 0
2, 110042, Note_on_c, 0, 49, 0
2, 110098, Note_on_c, 0, 86, 0
2, 110098, Control_c, 0, 64, 127
2, 110108, Note_on_c, 0, 77, 74
2, 110172, Note_on_c, 0, 74, 0
2, 110226, Note_on_c, 0, 65, 83
2, 110226, Note_on_c, 0, 59, 71
2, 110228, Note_on_c, 0, 56, 55
2, 110236, Note_on_c, 0, 80, 79
2, 110258, Note_on_c, 0, 77, 0
2, 110278, Note_on_c, 0, 65, 0
2, 110294, Note_on_c, 0, 59, 0
2, 110334, Note_on_c, 0, 80, 0
2, 110336, Note_on_c, 0, 73, 88
2, 110338, Note_on_c, 0, 56, 0
2, 110404, Note_on_c, 0, 85, 84
2, 110460, Note_on_c, 0, 85, 0
2, 110464, Note_on_c, 0, 73, 0
2, 110498, Control_c, 0, 64, 0
2, 110526, Note_on_c, 0, 49, 97
2, 110526, Note_on_c, 0, 86, 104
2, 110529, Note_on_c, 0, 74, 98
2, 110538, Note_on_c, 0, 37, 81
2, 110572, Note_on_c, 0, 37, 0
2, 110618, Note_on_c, 0, 49, 0
2, 110636, Control_c, 0, 64, 127
2, 110668, Note_on_c, 0, 78, 79
2, 110702, Note_on_c, 0, 86, 0
2, 110756, Note_on_c, 0, 74, 0
2, 110810, Note_on_c, 0, 81, 75
2, 110840, Note_on_c, 0, 78, 0
2, 110840, Note_on_c, 0, 66, 83
2, 110841, Note_on_c, 0, 57, 75
2, 110843, Note_on_c, 0, 61, 73
2, 110903, Note_on_c, 0, 61, 0
2, 110932, Note_on_c, 0, 66, 0
2, 110932, Note_on_c, 0, 73, 84
2, 110945, Note_on_c, 0, 57, 0
2, 110982, Note_on_c, 0, 81, 0
2, 111008, Note_on_c, 0, 85, 80
2, 111048, Note_on_c, 0, 85, 0
2, 111056, Note_on_c, 0, 73, 0
2, 111096, Control_c, 0, 64, 0
2, 111126, Note_on_c, 0, 86, 106
2, 111132, Note_on_c, 0, 74, 97
2, 111135, Note_on_c, 0, 49, 88
2, 111138, Note_on_c, 0, 37, 95
2, 111174, Note_on_c, 0, 37, 0
2, 111238, Note_on_c, 0, 49, 0
2, 111251, Control_c, 0, 64, 127
2, 111268, Note_on_c, 0, 86, 0
2, 111294, Note_on_c, 0, 77, 75
2, 111366, Note_on_c, 0, 74, 0
2, 111388, Note_on_c, 0, 80, 78
2, 111404, Note_on_c, 0, 65, 89
2, 111408, Note_on_c, 0, 56, 73
2, 111408, Note_on_c, 0, 61, 80
2, 111414, Note_on_c, 0, 77, 0
2, 111444, Note_on_c, 0, 65, 0
2, 111492, Note_on_c, 0, 61, 0
2, 111510, Note_on_c, 0, 73, 88
2, 111534, Note_on_c, 0, 80, 0
2, 111538, Note_on_c, 0, 56, 0
2, 111604, Note_on_c, 0, 85, 95
2, 111656, Note_on_c, 0, 73, 0
2, 111688, Note_on_c, 0, 85, 0
2, 111756, Control_c, 0, 64, 0
2, 111758, Note_on_c, 0, 88, 108
2, 111761, Note_on_c, 0, 76, 101
2, 111770, Note_on_c, 0, 49, 95
2, 111776, Note_on_c, 0, 37, 97
2, 111850, Note_on_c, 0, 37, 0
2, 111888, Note_on_c, 0, 49, 0
2, 111896, Control_c, 0, 64, 127
2, 111942, Note_on_c, 0, 88, 0
2, 112032, Note_on_c, 0, 78, 84
2, 112108, Note_on_c, 0, 76, 0
2, 112178, Note_on_c, 0, 62, 80
2, 112184, Note_on_c, 0, 81, 87
2, 112188, Note_on_c, 0, 57, 59
2, 112190, Note_on_c, 0, 54, 80
2, 112222, Note_on_c, 0, 78, 0
2, 112270, Note_on_c, 0, 62, 0
2, 112306, Note_on_c, 0, 74, 83
2, 112308, Note_on_c, 0, 57, 0
2, 112342, Note_on_c, 0, 54, 0
2, 112350, Note_on_c, 0, 81, 0
2, 112402, Note_on_c, 0, 74, 0
2, 112410, Note_on_c, 0, 86, 93
2, 112458, Note_on_c, 0, 86, 0
2, 112526, Control_c, 0, 64, 0
2, 112536, Note_on_c, 0, 86, 95
2, 112542, Note_on_c, 0, 74, 97
2, 112542, Note_on_c, 0, 49, 87
2, 112550, Note_on_c, 0, 37, 87
2, 112590, Note_on_c, 0, 37, 0
2, 112634, Note_on_c, 0, 49, 0
2, 112664, Control_c, 0, 64, 127
2, 112702, Note_on_c, 0, 77, 51
2, 112708, Note_on_c, 0, 86, 0
2, 112730, Note_on_c, 0, 74, 0
2, 112828, Note_on_c, 0, 80, 76
2, 112834, Note_on_c, 0, 61, 81
2, 112842, Note_on_c, 0, 53, 81
2, 112843, Note_on_c, 0, 56, 62
2, 112862, Note_on_c, 0, 77, 0
2, 112901, Note_on_c, 0, 56, 0
2, 112902, Note_on_c, 0, 61, 0
2, 112928, Note_on_c, 0, 73, 76
2, 112930, Note_on_c, 0, 53, 0
2, 112960, Note_on_c, 0, 80, 0
2, 113022, Note_on_c, 0, 85, 92
2, 113072, Note_on_c, 0, 73, 0
2, 113112, Note_on_c, 0, 85, 0
2, 113140, Control_c, 0, 64, 0
2, 113142, Note_on_c, 0, 73, 75
2, 113154, Note_on_c, 0, 85, 79
2, 113168, Note_on_c, 0, 44, 96
2, 113176, Note_on_c, 0, 32, 85
2, 113210, Note_on_c, 0, 32, 0
2, 113256, Note_on_c, 0, 44, 0
2, 113274, Note_on_c, 0, 85, 0
2, 113278, Control_c, 0, 64, 127
2, 113328, Note_on_c, 0, 73, 0
2, 113384, Note_on_c, 0, 74, 76
2, 113502, Note_on_c, 0, 74, 0
2, 113508, Note_on_c, 0, 78, 70
2, 113524, Note_on_c, 0, 59, 66
2, 113524, Note_on_c, 0, 54, 30
2, 113528, Note_on_c, 0, 50, 2
2, 113562, Note_on_c, 0, 78, 0
2, 113600, Note_on_c, 0, 71, 85
2, 113670, Note_on_c, 0, 71, 0
2, 113702, Note_on_c, 0, 83, 110
2, 113732, Note_on_c, 0, 83, 0
2, 113748, Note_on_c, 0, 50, 0
2, 113780, Note_on_c, 0, 54, 0
2, 113803, Note_on_c, 0, 59, 0
2, 113826, Note_on_c, 0, 81, 95
2, 113826, Note_on_c, 0, 69, 80
2, 113886, Note_on_c, 0, 81, 0
2, 113960, Note_on_c, 0, 69, 0
2, 113980, Note_on_c, 0, 71, 53
2, 114071, Note_on_c, 0, 50, 48
2, 114074, Note_on_c, 0, 59, 68
2, 114074, Note_on_c, 0, 74, 78
2, 114077, Note_on_c, 0, 54, 69
2, 114088, Note_on_c, 0, 71, 0
2, 114112, Note_on_c, 0, 59, 0
2, 114124, Note_on_c, 0, 50, 0
2, 114126, Note_on_c, 0, 54, 0
2, 114156, Note_on_c, 0, 74, 0
2, 114180, Note_on_c, 0, 68, 61
2, 114242, Note_on_c, 0, 80, 86
2, 114286, Note_on_c, 0, 80, 0
2, 114304, Note_on_c, 0, 68, 0
2, 114362, Note_on_c, 0, 68, 81
2, 114365, Note_on_c, 0, 80, 74
2, 114386, Control_c, 0, 64, 0
2, 114398, Note_on_c, 0, 47, 73
2, 114410, Note_on_c, 0, 35, 75
2, 114448, Note_on_c, 0, 35, 0
2, 114498, Note_on_c, 0, 71, 71
2, 114508, Control_c, 0, 64, 127
2, 114511, Note_on_c, 0, 68, 0
2, 114518, Note_on_c, 0, 47, 0
2, 114542, Note_on_c, 0, 80, 0
2, 114610, Note_on_c, 0, 74, 68
2, 114634, Note_on_c, 0, 56, 87
2, 114676, Note_on_c, 0, 50, 52
2, 114682, Note_on_c, 0, 56, 0
2, 114692, Note_on_c, 0, 71, 0
2, 114702, Note_on_c, 0, 66, 64
2, 114732, Note_on_c, 0, 50, 0
2, 114752, Note_on_c, 0, 74, 0
2, 114782, Note_on_c, 0, 78, 83
2, 114840, Note_on_c, 0, 66, 0
2, 114854, Note_on_c, 0, 78, 0
2, 114868, Note_on_c, 0, 37, 78
2, 114908, Control_c, 0, 64, 0
2, 114920, Note_on_c, 0, 66, 65
2, 114920, Note_on_c, 0, 78, 87
2, 114970, Note_on_c, 0, 49, 79
2, 115008, Note_on_c, 0, 37, 0
2, 115062, Note_on_c, 0, 49, 0
2, 115076, Control_c, 0, 64, 127
2, 115094, Note_on_c, 0, 68, 65
2, 115108, Note_on_c, 0, 78, 0
2, 115122, Note_on_c, 0, 66, 0
2, 115174, Note_on_c, 0, 56, 70
2, 115208, Note_on_c, 0, 71, 65
2, 115208, Note_on_c, 0, 49, 49
2, 115260, Note_on_c, 0, 68, 0
2, 115276, Note_on_c, 0, 65, 61
2, 115294, Note_on_c, 0, 71, 0
2, 115346, Note_on_c, 0, 65, 0
2, 115366, Note_on_c, 0, 77, 88
2, 115400, Note_on_c, 0, 77, 0
2, 115516, Note_on_c, 0, 49, 0
2, 115530, Note_on_c, 0, 74, 90
2, 115584, Note_on_c, 0, 62, 79
2, 115668, Note_on_c, 0, 65, 57
2, 115676, Note_on_c, 0, 74, 0
2, 115698, Note_on_c, 0, 56, 0
2, 115786, Note_on_c, 0, 68, 54
2, 115810, Note_on_c, 0, 62, 0
2, 115810, Note_on_c, 0, 65, 0
2, 115896, Note_on_c, 0, 61, 67
2, 115930, Note_on_c, 0, 68, 0
2, 115994, Note_on_c, 0, 73, 74
2, 116034, Note_on_c, 0, 61, 0
2, 116054, Note_on_c, 0, 73, 0
2, 116152, Note_on_c, 0, 74, 87
2, 116154, Note_on_c, 0, 62, 74
2, 116318, Note_on_c, 0, 74, 0
2, 116322, Note_on_c, 0, 65, 57
2, 116420, Note_on_c, 0, 62, 0
2, 116438, Note_on_c, 0, 68, 47
2, 116566, Note_on_c, 0, 61, 70
2, 116612, Note_on_c, 0, 65, 0
2, 116636, Note_on_c, 0, 73, 70
2, 116654, Note_on_c, 0, 68, 0
2, 116674, Note_on_c, 0, 42, 56
2, 116714, Note_on_c, 0, 61, 0
2, 116756, Note_on_c, 0, 49, 44
2, 116766, Note_on_c, 0, 73, 0
2, 116798, Control_c, 0, 64, 0
2, 116818, Note_on_c, 0, 74, 89
2, 116832, Note_on_c, 0, 62, 61
2, 116878, Note_on_c, 0, 57, 62
2, 116982, Control_c, 0, 64, 127
2, 117010, Note_on_c, 0, 42, 0
2, 117022, Note_on_c, 0, 66, 44
2, 117056, Note_on_c, 0, 74, 0
2, 117078, Note_on_c, 0, 57, 0
2, 117114, Note_on_c, 0, 62, 0
2, 117158, Note_on_c, 0, 49, 0
2, 117164, Note_on_c, 0, 69, 38
2, 117240, Note_on_c, 0, 66, 0
2, 117270, Note_on_c, 0, 61, 67
2, 117374, Note_on_c, 0, 69, 0
2, 117408, Note_on_c, 0, 73, 48
2, 117436, Note_on_c, 0, 61, 0
2, 117454, Note_on_c, 0, 37, 39
2, 117532, Note_on_c, 0, 44, 49
2, 117544, Note_on_c, 0, 73, 0
2, 117550, Control_c, 0, 64, 0
2, 117624, Note_on_c, 0, 74, 73
2, 117634, Note_on_c, 0, 62, 48
2, 117676, Note_on_c, 0, 37, 0
2, 117734, Control_c, 0, 64, 127
2, 117742, Note_on_c, 0, 53, 83
2, 117792, Note_on_c, 0, 74, 0
2, 117842, Note_on_c, 0, 65, 42
2, 117878, Note_on_c, 0, 62, 0
2, 117960, Note_on_c, 0, 68, 32
2, 117988, Note_on_c, 0, 65, 0
2, 118060, Note_on_c, 0, 61, 52
2, 118114, Note_on_c, 0, 68, 0
2, 118116, Note_on_c, 0, 53, 0
2, 118138, Note_on_c, 0, 61, 0
2, 118158, Note_on_c, 0, 73, 62
2, 118204, Note_on_c, 0, 73, 0
2, 118396, Note_on_c, 0, 44, 0
2, 118476, Note_on_c, 0, 62, 90
2, 118492, Note_on_c, 0, 50, 67
2, 118642, Note_on_c, 0, 50, 0
2, 118654, Note_on_c, 0, 62, 0
2, 118674, Note_on_c, 0, 53, 71
2, 118794, Note_on_c, 0, 56, 43
2, 118828, Note_on_c, 0, 53, 0
2, 118890, Note_on_c, 0, 49, 64
2, 118960, Note_on_c, 0, 56, 0
2, 118978, Note_on_c, 0, 61, 66
2, 119022, Note_on_c, 0, 49, 0
2, 119042, Note_on_c, 0, 61, 0
2, 119132, Note_on_c, 0, 62, 70
2, 119140, Note_on_c, 0, 50, 57
2, 119148, Control_c, 0, 64, 0
2, 119306, Note_on_c, 0, 62, 0
2, 119316, Note_on_c, 0, 53, 70
2, 119316, Control_c, 0, 64, 127
2, 119340, Note_on_c, 0, 50, 0
2, 119414, Note_on_c, 0, 56, 41
2, 119494, Note_on_c, 0, 53, 0
2, 119532, Note_on_c, 0, 49, 67
2, 119604, Note_on_c, 0, 56, 0
2, 119620, Note_on_c, 0, 61, 69
2, 119644, Note_on_c, 0, 49, 0
2, 119746, Note_on_c, 0, 61, 0
2, 119782, Note_on_c, 0, 62, 74
2, 119782, Note_on_c, 0, 42, 62
2, 119788, Note_on_c, 0, 50, 55
2, 119790, Note_on_c, 0, 30, 63
2, 119794, Control_c, 0, 64, 0
2, 119978, Note_on_c, 0, 54, 60
2, 120050, Note_on_c, 0, 50, 0
2, 120053, Control_c, 0, 64, 127
2, 120064, Note_on_c, 0, 62, 0
2, 120080, Note_on_c, 0, 42, 0
2, 120154, Note_on_c, 0, 57, 41
2, 120166, Note_on_c, 0, 30, 0
2, 120240, Note_on_c, 0, 54, 0
2, 120298, Note_on_c, 0, 49, 56
2, 120418, Note_on_c, 0, 49, 0
2, 120454, Note_on_c, 0, 61, 64
2, 120508, Note_on_c, 0, 57, 0
2, 120656, Note_on_c, 0, 61, 0
2, 120720, Note_on_c, 0, 62, 51
2, 120728, Note_on_c, 0, 50, 44
2, 120750, Note_on_c, 0, 25, 62
2, 120753, Note_on_c, 0, 37, 42
2, 120760, Control_c, 0, 64, 0
2, 121022, Control_c, 0, 64, 127
2, 121034, Note_on_c, 0, 62, 0
2, 121054, Note_on_c, 0, 53, 44
2, 121106, Note_on_c, 0, 50, 0
2, 121232, Note_on_c, 0, 56, 30
2, 121284, Note_on_c, 0, 53, 0
2, 121370, Note_on_c, 0, 49, 43
2, 121402, Note_on_c, 0, 56, 0
2, 121460, Note_on_c, 0, 49, 0
2, 121496, Note_on_c, 0, 61, 54
2, 121652, Note_on_c, 0, 61, 0
2, 121724, Note_on_c, 0, 62, 51
2, 121744, Control_c, 0, 64, 0
2, 121754, Note_on_c, 0, 50, 28
2, 121920, Note_on_c, 0, 50, 0
2, 121928, Note_on_c, 0, 62, 0
2, 121928, Control_c, 0, 64, 127
2, 121938, Note_on_c, 0, 53, 46
2, 122072, Note_on_c, 0, 53, 0
2, 122080, Note_on_c, 0, 56, 36
2, 122258, Note_on_c, 0, 49, 26
2, 122358, Note_on_c, 0, 49, 0
2, 122370, Note_on_c, 0, 56, 0
2, 122442, Note_on_c, 0, 61, 38
2, 122590, Note_on_c, 0, 61, 0
2, 122752, Note_on_c, 0, 62, 37
2, 122774, Control_c, 0, 64, 0
2, 122784, Note_on_c, 0, 50, 18
2, 122996, Note_on_c, 0, 50, 0
2, 123020, Control_c, 0, 64, 127
2, 123036, Note_on_c, 0, 62, 0
2, 123156, Note_on_c, 0, 53, 42
2, 123268, Note_on_c, 0, 53, 0
2, 123452, Note_on_c, 0, 56, 30
2, 123832, Note_on_c, 0, 49, 27
2, 124058, Note_on_c, 0, 56, 0
2, 124692, Note_on_c, 0, 61, 23
2, 125278, Control_c, 0, 64, 0
2, 125540, Control_c, 0, 64, 127
2, 125632, Note_on_c, 0, 37, 0
2, 125746, Note_on_c, 0, 25, 0
2, 125820, Note_on_c, 0, 49, 0
2, 126532, Note_on_c, 0, 61, 0
2, 126970, Control_c, 0, 64, 0
2, 128842, Note_on_c, 0, 70, 42
2, 129274, Control_c, 0, 64, 127
2, 129334, Note_on_c, 0, 70, 0
2, 129526, Note_on_c, 0, 70, 2
2, 129628, Note_on_c, 0, 71, 58
2, 129638, Note_on_c, 0, 70, 0
2, 129982, Note_on_c, 0, 37, 22
2, 129988, Note_on_c, 0, 70, 56
2, 130088, Note_on_c, 0, 71, 0
2, 130180, Control_c, 0, 64, 0
2, 130396, Control_c, 0, 64, 127
2, 130424, Note_on_c, 0, 68, 55
2, 130534, Note_on_c, 0, 37, 0
2, 130534, Note_on_c, 0, 70, 0
2, 130978, Note_on_c, 0, 65, 50
2, 130986, Note_on_c, 0, 49, 23
2, 131102, Control_c, 0, 64, 0
2, 131116, Note_on_c, 0, 68, 0
2, 131302, Control_c, 0, 64, 127
2, 131342, Note_on_c, 0, 65, 0
2, 131618, Note_on_c, 0, 49, 0
2, 131620, Note_on_c, 0, 61, 46
2, 131730, Note_on_c, 0, 61, 0
2, 131800, Note_on_c, 0, 61, 55
2, 131810, Note_on_c, 0, 59, 29
2, 131814, Note_on_c, 0, 53, 37
2, 132040, Control_c, 0, 64, 0
2, 132254, Control_c, 0, 64, 127
2, 132284, Note_on_c, 0, 61, 0
2, 132310, Note_on_c, 0, 53, 0
2, 132608, Note_on_c, 0, 61, 46
2, 132626, Note_on_c, 0, 49, 29
2, 132662, Note_on_c, 0, 59, 0
2, 132940, Note_on_c, 0, 61, 0
2, 133238, Note_on_c, 0, 49, 0
2, 133528, Note_on_c, 0, 61, 50
2, 133552, Note_on_c, 0, 42, 18
2, 133592, Control_c, 0, 64, 0
2, 134236, Control_c, 0, 64, 127
2, 134314, Note_on_c, 0, 42, 0
2, 134342, Note_on_c, 0, 49, 16
2, 134718, Note_on_c, 0, 61, 0
2, 134736, Note_on_c, 0, 66, 19
2, 134962, Note_on_c, 0, 66, 0
2, 134970, Note_on_c, 0, 70, 22
2, 135060, Note_on_c, 0, 70, 0
2, 135156, Note_on_c, 0, 75, 36
2, 135230, Note_on_c, 0, 75, 0
2, 135418, Note_on_c, 0, 58, 16
2, 135424, Note_on_c, 0, 54, 22
2, 135434, Control_c, 0, 64, 0
2, 135436, Note_on_c, 0, 73, 32
2, 135740, Note_on_c, 0, 73, 0
2, 135812, Note_on_c, 0, 49, 0
2, 135834, Control_c, 0, 64, 127
2, 136282, Note_on_c, 0, 70, 27
2, 136326, Note_on_c, 0, 49, 18
2, 136508, Note_on_c, 0, 70, 0
2, 136526, Note_on_c, 0, 71, 35
2, 136582, Note_on_c, 0, 54, 0
2, 136622, Note_on_c, 0, 71, 0
2, 136654, Note_on_c, 0, 70, 44
2, 136718, Note_on_c, 0, 70, 0
2, 136752, Note_on_c, 0, 69, 47
2, 136834, Note_on_c, 0, 58, 0
2, 136837, Note_on_c, 0, 69, 0
2, 136860, Note_on_c, 0, 70, 59
2, 136948, Note_on_c, 0, 73, 64
2, 136996, Note_on_c, 0, 70, 0
2, 137060, Note_on_c, 0, 72, 71
2, 137112, Note_on_c, 0, 73, 0
2, 137168, Note_on_c, 0, 49, 0
2, 137178, Note_on_c, 0, 72, 0
2, 137204, Note_on_c, 0, 71, 69
2, 137214, Note_on_c, 0, 42, 25
2, 137232, Control_c, 0, 64, 0
2, 137350, Note_on_c, 0, 71, 0
2, 137376, Note_on_c, 0, 80, 68
2, 137508, Control_c, 0, 64, 127
2, 137514, Note_on_c, 0, 71, 55
2, 137566, Note_on_c, 0, 80, 0
2, 137624, Note_on_c, 0, 71, 0
2, 137640, Note_on_c, 0, 70, 44
2, 137718, Note_on_c, 0, 70, 0
2, 137748, Note_on_c, 0, 79, 70
2, 137860, Note_on_c, 0, 70, 48
2, 137870, Note_on_c, 0, 79, 0
2, 137932, Note_on_c, 0, 69, 43
2, 137934, Note_on_c, 0, 70, 0
2, 137998, Note_on_c, 0, 78, 67
2, 138006, Note_on_c, 0, 69, 0
2, 138068, Note_on_c, 0, 78, 0
2, 138080, Note_on_c, 0, 69, 46
2, 138162, Note_on_c, 0, 68, 62
2, 138174, Note_on_c, 0, 69, 0
2, 138176, Note_on_c, 0, 42, 0
2, 138214, Note_on_c, 0, 68, 0
2, 138224, Note_on_c, 0, 50, 20
2, 138248, Note_on_c, 0, 77, 69
2, 138320, Note_on_c, 0, 68, 39
2, 138364, Note_on_c, 0, 77, 0
2, 138406, Note_on_c, 0, 67, 54
2, 138454, Note_on_c, 0, 68, 0
2, 138466, Note_on_c, 0, 67, 0
2, 138472, Note_on_c, 0, 76, 67
2, 138530, Note_on_c, 0, 76, 0
2, 138538, Note_on_c, 0, 67, 52
2, 138646, Note_on_c, 0, 67, 0
2, 138649, Note_on_c, 0, 66, 54
2, 138708, Note_on_c, 0, 66, 0
2, 138724, Note_on_c, 0, 75, 67
2, 138808, Note_on_c, 0, 66, 40
2, 138828, Note_on_c, 0, 56, 28
2, 138892, Note_on_c, 0, 75, 0
2, 138920, Note_on_c, 0, 59, 33
2, 138938, Control_c, 0, 64, 0
2, 138954, Note_on_c, 0, 66, 0
2, 138964, Note_on_c, 0, 65, 62
2, 139098, Note_on_c, 0, 74, 57
2, 139108, Note_on_c, 0, 65, 0
2, 139170, Control_c, 0, 64, 127
2, 139208, Note_on_c, 0, 73, 60
2, 139238, Note_on_c, 0, 74, 0
2, 139310, Note_on_c, 0, 72, 69
2, 139340, Note_on_c, 0, 73, 0
2, 139366, Note_on_c, 0, 72, 0
2, 139408, Note_on_c, 0, 71, 73
2, 139484, Note_on_c, 0, 70, 54
2, 139532, Note_on_c, 0, 71, 0
2, 139544, Note_on_c, 0, 69, 58
2, 139618, Note_on_c, 0, 70, 0
2, 139626, Note_on_c, 0, 68, 62
2, 139674, Note_on_c, 0, 68, 0
2, 139676, Note_on_c, 0, 69, 0
2, 139692, Note_on_c, 0, 67, 57
2, 139772, Note_on_c, 0, 66, 51
2, 139810, Note_on_c, 0, 67, 0
2, 139866, Note_on_c, 0, 65, 59
2, 139882, Note_on_c, 0, 49, 28
2, 139885, Note_on_c, 0, 66, 0
2, 139952, Control_c, 0, 64, 0
2, 139988, Note_on_c, 0, 66, 42
2, 139998, Note_on_c, 0, 50, 0
2, 140014, Note_on_c, 0, 65, 0
2, 140084, Note_on_c, 0, 65, 58
2, 140154, Note_on_c, 0, 66, 0
2, 140206, Note_on_c, 0, 63, 59
2, 140220, Note_on_c, 0, 65, 0
2, 140324, Note_on_c, 0, 65, 31
2, 140336, Note_on_c, 0, 63, 0
2, 140448, Note_on_c, 0, 66, 45
2, 140472, Note_on_c, 0, 65, 0
2, 140604, Note_on_c, 0, 70, 33
2, 140618, Note_on_c, 0, 66, 0
2, 140786, Note_on_c, 0, 70, 0
2, 140789, Note_on_c, 0, 68, 37
2, 140874, Control_c, 0, 64, 127
2, 140954, Note_on_c, 0, 65, 35
2, 140958, Note_on_c, 0, 68, 0
2, 140992, Note_on_c, 0, 59, 0
2, 141058, Note_on_c, 0, 56, 0
2, 141104, Note_on_c, 0, 65, 0
2, 141104, Note_on_c, 0, 66, 16
2, 141138, Note_on_c, 0, 49, 0
2, 141196, Note_on_c, 0, 63, 38
2, 141200, Note_on_c, 0, 66, 0
2, 141296, Note_on_c, 0, 63, 0
2, 141328, Note_on_c, 0, 68, 38
2, 141386, Note_on_c, 0, 68, 0
2, 141556, Note_on_c, 0, 68, 15
2, 141564, Note_on_c, 0, 42, 18
2, 141658, Control_c, 0, 64, 0
2, 141794, Note_on_c, 0, 61, 37
2, 141876, Note_on_c, 0, 68, 0
2, 142334, Control_c, 0, 64, 127
2, 142544, Note_on_c, 0, 49, 22
2, 142586, Note_on_c, 0, 42, 0
2, 142776, Note_on_c, 0, 61, 0
2, 142790, Note_on_c, 0, 66, 17
2, 142966, Note_on_c, 0, 66, 0
2, 142968, Note_on_c, 0, 70, 26
2, 143110, Note_on_c, 0, 70, 0
2, 143160, Note_on_c, 0, 73, 20
2, 143244, Note_on_c, 0, 73, 0
2, 143314, Note_on_c, 0, 70, 25
2, 143498, Note_on_c, 0, 70, 0
2, 143514, Note_on_c, 0, 78, 38
2, 143706, Note_on_c, 0, 78, 0
2, 144110, Note_on_c, 0, 75, 27
2, 144370, Note_on_c, 0, 61, 17
2, 144390, Note_on_c, 0, 73, 23
2, 144393, Note_on_c, 0, 58, 17
2, 144440, Note_on_c, 0, 54, 19
2, 144448, Note_on_c, 0, 75, 0
2, 144670, Control_c, 0, 64, 0
2, 144900, Control_c, 0, 64, 127
2, 144968, Note_on_c, 0, 73, 0
2, 145496, Note_on_c, 0, 54, 0
2, 145972, Note_on_c, 0, 61, 0
2, 145988, Note_on_c, 0, 58, 0
2, 146014, Note_on_c, 0, 71, 60
2, 146168, Note_on_c, 0, 49, 0
2, 146298, Control_c, 0, 64, 0
2, 146590, Control_c, 0, 64, 127
2, 146702, Note_on_c, 0, 73, 52
2, 146748, Note_on_c, 0, 71, 0
2, 147062, Note_on_c, 0, 71, 70
2, 147076, Note_on_c, 0, 39, 25
2, 147128, Control_c, 0, 64, 0
2, 147210, Note_on_c, 0, 73, 0
2, 147390, Control_c, 0, 64, 127
2, 147482, Note_on_c, 0, 39, 0
2, 147542, Note_on_c, 0, 70, 55
2, 147684, Note_on_c, 0, 71, 0
2, 147940, Note_on_c, 0, 67, 62
2, 147976, Note_on_c, 0, 51, 36
2, 148070, Note_on_c, 0, 70, 0
2, 148464, Note_on_c, 0, 67, 0
2, 148538, Note_on_c, 0, 63, 66
2, 148648, Note_on_c, 0, 63, 0
2, 148722, Note_on_c, 0, 63, 67
2, 148738, Note_on_c, 0, 61, 36
2, 148752, Note_on_c, 0, 55, 30
2, 148940, Control_c, 0, 64, 0
2, 149156, Control_c, 0, 64, 127
2, 149260, Note_on_c, 0, 51, 0
2, 149376, Note_on_c, 0, 63, 0
2, 149498, Note_on_c, 0, 63, 68
2, 149508, Note_on_c, 0, 51, 47
2, 149552, Note_on_c, 0, 61, 0
2, 149572, Note_on_c, 0, 55, 0
2, 149862, Note_on_c, 0, 51, 0
2, 150164, Note_on_c, 0, 63, 0
2, 150300, Note_on_c, 0, 44, 52
2, 150305, Note_on_c, 0, 32, 39
2, 150308, Control_c, 0, 64, 0
2, 150312, Note_on_c, 0, 63, 82
2, 150470, Note_on_c, 0, 63, 0
2, 150492, Control_c, 0, 64, 127
2, 150740, Note_on_c, 0, 78, 80
2, 150884, Note_on_c, 0, 32, 0
2, 150898, Note_on_c, 0, 78, 0
2, 150970, Note_on_c, 0, 44, 0
2, 151076, Note_on_c, 0, 75, 90
2, 151208, Note_on_c, 0, 75, 0
2, 151489, Note_on_c, 0, 90, 90
2, 151492, Note_on_c, 0, 59, 59
2, 151496, Note_on_c, 0, 56, 43
2, 151498, Note_on_c, 0, 51, 42
2, 151962, Note_on_c, 0, 56, 0
2, 152000, Note_on_c, 0, 59, 0
2, 152344, Note_on_c, 0, 63, 71
2, 152355, Note_on_c, 0, 59, 51
2, 152360, Note_on_c, 0, 56, 50
2, 152362, Note_on_c, 0, 54, 52
2, 152422, Note_on_c, 0, 51, 0
2, 152640, Note_on_c, 0, 94, 70
2, 152704, Note_on_c, 0, 90, 0
2, 152768, Note_on_c, 0, 59, 0
2, 152832, Note_on_c, 0, 56, 0
2, 152920, Note_on_c, 0, 92, 73
2, 153020, Note_on_c, 0, 94, 0
2, 153044, Note_on_c, 0, 54, 0
2, 153072, Note_on_c, 0, 63, 0
2, 153102, Note_on_c, 0, 90, 79
2, 153160, Note_on_c, 0, 92, 0
2, 153240, Note_on_c, 0, 87, 71
2, 153280, Note_on_c, 0, 90, 0
2, 153346, Note_on_c, 0, 66, 39
2, 153360, Note_on_c, 0, 56, 28
2, 153376, Note_on_c, 0, 63, 33
2, 153382, Note_on_c, 0, 59, 29
2, 153392, Note_on_c, 0, 87, 0
2, 153398, Note_on_c, 0, 83, 99
2, 153554, Note_on_c, 0, 82, 73
2, 153560, Note_on_c, 0, 66, 0
2, 153566, Note_on_c, 0, 83, 0
2, 153592, Note_on_c, 0, 63, 0
2, 153628, Note_on_c, 0, 59, 0
2, 153664, Note_on_c, 0, 80, 75
2, 153712, Note_on_c, 0, 82, 0
2, 153744, Note_on_c, 0, 56, 0
2, 153774, Note_on_c, 0, 78, 69
2, 153830, Note_on_c, 0, 80, 0
2, 153868, Note_on_c, 0, 75, 68
2, 153888, Note_on_c, 0, 78, 0
2, 153978, Note_on_c, 0, 71, 73
2, 153994, Note_on_c, 0, 75, 0
2, 154102, Note_on_c, 0, 66, 76
2, 154118, Note_on_c, 0, 71, 0
2, 154174, Note_on_c, 0, 37, 39
2, 154234, Note_on_c, 0, 68, 75
2, 154276, Note_on_c, 0, 66, 0
2, 154334, Control_c, 0, 64, 0
2, 154404, Note_on_c, 0, 70, 70
2, 154412, Note_on_c, 0, 49, 78
2, 154446, Note_on_c, 0, 68, 0
2, 154644, Note_on_c, 0, 37, 0
2, 154778, Control_c, 0, 64, 127
2, 154910, Note_on_c, 0, 70, 0
2, 155190, Note_on_c, 0, 71, 95
2, 155212, Note_on_c, 0, 63, 74
2, 155224, Note_on_c, 0, 54, 51
2, 155424, Control_c, 0, 64, 0
2, 155624, Control_c, 0, 64, 127
2, 155816, Note_on_c, 0, 70, 71
2, 155822, Note_on_c, 0, 63, 0
2, 155842, Note_on_c, 0, 71, 0
2, 155958, Note_on_c, 0, 70, 0
2, 155962, Note_on_c, 0, 68, 67
2, 155976, Note_on_c, 0, 60, 71
2, 156044, Note_on_c, 0, 70, 48
2, 156052, Note_on_c, 0, 68, 0
2, 156122, Note_on_c, 0, 70, 0
2, 156130, Note_on_c, 0, 68, 56
2, 156204, Note_on_c, 0, 70, 61
2, 156218, Note_on_c, 0, 68, 0
2, 156282, Note_on_c, 0, 70, 0
2, 156282, Note_on_c, 0, 68, 68
2, 156340, Note_on_c, 0, 68, 0
2, 156356, Note_on_c, 0, 70, 65
2, 156416, Note_on_c, 0, 68, 55
2, 156486, Note_on_c, 0, 70, 0
2, 156530, Note_on_c, 0, 67, 77
2, 156546, Note_on_c, 0, 60, 0
2, 156552, Note_on_c, 0, 68, 0
2, 156626, Note_on_c, 0, 68, 64
2, 156708, Note_on_c, 0, 67, 0
2, 156768, Note_on_c, 0, 61, 59
2, 156780, Note_on_c, 0, 54, 0
2, 156786, Note_on_c, 0, 70, 75
2, 156794, Note_on_c, 0, 53, 50
2, 156854, Note_on_c, 0, 68, 0
2, 156878, Note_on_c, 0, 53, 0
2, 156930, Control_c, 0, 64, 0
2, 156990, Note_on_c, 0, 53, 4
2, 157176, Control_c, 0, 64, 127
2, 157244, Note_on_c, 0, 53, 0
2, 157320, Note_on_c, 0, 61, 0
2, 157408, Note_on_c, 0, 68, 74
2, 157418, Note_on_c, 0, 49, 0
2, 157428, Note_on_c, 0, 59, 59
2, 157468, Note_on_c, 0, 70, 0
2, 157636, Note_on_c, 0, 49, 43
2, 157684, Note_on_c, 0, 75, 71
2, 157694, Note_on_c, 0, 66, 36
2, 157696, Note_on_c, 0, 58, 35
2, 157740, Note_on_c, 0, 59, 0
2, 157746, Note_on_c, 0, 68, 0
2, 157836, Control_c, 0, 64, 0
2, 158160, Control_c, 0, 64, 127
2, 158330, Note_on_c, 0, 58, 0
2, 158350, Note_on_c, 0, 73, 69
2, 158384, Note_on_c, 0, 75, 0
2, 158402, Note_on_c, 0, 73, 0
2, 158524, Note_on_c, 0, 73, 72
2, 158562, Note_on_c, 0, 63, 54
2, 158906, Note_on_c, 0, 71, 71
2, 158974, Note_on_c, 0, 73, 0
2, 158974, Control_c, 0, 64, 0
2, 159096, Control_c, 0, 64, 127
2, 159186, Note_on_c, 0, 70, 60
2, 159218, Note_on_c, 0, 71, 0
2, 159238, Note_on_c, 0, 63, 0
2, 159246, Note_on_c, 0, 66, 0
2, 159386, Note_on_c, 0, 67, 52
2, 159394, Note_on_c, 0, 70, 0
2, 159422, Note_on_c, 0, 60, 44
2, 159460, Note_on_c, 0, 67, 0
2, 159484, Note_on_c, 0, 68, 46
2, 159548, Note_on_c, 0, 68, 0
2, 159551, Note_on_c, 0, 70, 56
2, 159618, Note_on_c, 0, 70, 0
2, 159624, Note_on_c, 0, 68, 46
2, 159702, Note_on_c, 0, 70, 48
2, 159705, Note_on_c, 0, 68, 0
2, 159756, Note_on_c, 0, 70, 0
2, 159774, Note_on_c, 0, 68, 58
2, 159830, Note_on_c, 0, 68, 0
2, 159838, Note_on_c, 0, 70, 48
2, 159894, Note_on_c, 0, 68, 53
2, 159908, Note_on_c, 0, 70, 0
2, 159960, Note_on_c, 0, 68, 0
2, 159976, Note_on_c, 0, 70, 64
2, 160020, Note_on_c, 0, 68, 64
2, 160026, Note_on_c, 0, 70, 0
2, 160122, Note_on_c, 0, 70, 55
2, 160138, Note_on_c, 0, 68, 0
2, 160172, Control_c, 0, 64, 0
2, 160196, Note_on_c, 0, 68, 68
2, 160268, Note_on_c, 0, 70, 0
2, 160298, Note_on_c, 0, 67, 81
2, 160310, Control_c, 0, 64, 127
2, 160316, Note_on_c, 0, 68, 0
2, 160404, Note_on_c, 0, 60, 0
2, 160434, Note_on_c, 0, 68, 66
2, 160484, Note_on_c, 0, 67, 0
2, 160642, Note_on_c, 0, 70, 65
2, 160646, Note_on_c, 0, 61, 44
2, 160650, Note_on_c, 0, 65, 39
2, 160676, Note_on_c, 0, 68, 0
2, 160680, Control_c, 0, 64, 0
2, 160946, Control_c, 0, 64, 127
2, 161110, Note_on_c, 0, 61, 0
2, 161202, Note_on_c, 0, 49, 0
2, 161438, Note_on_c, 0, 65, 0
2, 161468, Note_on_c, 0, 50, 14
2, 161472, Note_on_c, 0, 68, 55
2, 161472, Note_on_c, 0, 59, 28
2, 161556, Note_on_c, 0, 59, 0
2, 161608, Note_on_c, 0, 70, 0
2, 161776, Note_on_c, 0, 58, 26
2, 161788, Note_on_c, 0, 66, 58
2, 161796, Note_on_c, 0, 50, 0
2, 161796, Note_on_c, 0, 51, 34
2, 161894, Control_c, 0, 64, 0
2, 161924, Note_on_c, 0, 68, 0
2, 162170, Control_c, 0, 64, 127
2, 162228, Note_on_c, 0, 78, 76
2, 162586, Note_on_c, 0, 51, 0
2, 162612, Note_on_c, 0, 58, 0
2, 162615, Note_on_c, 0, 77, 90
2, 162646, Note_on_c, 0, 78, 0
2, 162746, Note_on_c, 0, 48, 45
2, 163004, Note_on_c, 0, 77, 0
2, 163140, Note_on_c, 0, 80, 70
2, 163166, Note_on_c, 0, 63, 44
2, 163188, Note_on_c, 0, 57, 31
2, 163230, Control_c, 0, 64, 0
2, 163522, Control_c, 0, 64, 127
2, 163618, Note_on_c, 0, 80, 0
2, 163628, Note_on_c, 0, 79, 69
2, 163676, Control_c, 0, 64, 0
2, 163830, Note_on_c, 0, 79, 0
2, 163876, Control_c, 0, 64, 127
2, 164012, Note_on_c, 0, 78, 52
2, 164178, Note_on_c, 0, 78, 0
2, 164342, Note_on_c, 0, 77, 43
2, 164428, Note_on_c, 0, 57, 0
2, 164490, Note_on_c, 0, 77, 0
2, 164502, Note_on_c, 0, 48, 0
2, 164618, Note_on_c, 0, 76, 38
2, 164690, Note_on_c, 0, 76, 0
2, 164880, Note_on_c, 0, 75, 39
2, 164883, Note_on_c, 0, 49, 32
2, 164898, Note_on_c, 0, 56, 26
2, 164936, Control_c, 0, 64, 0
2, 165058, Note_on_c, 0, 75, 0
2, 165120, Control_c, 0, 64, 127
2, 165150, Control_c, 0, 64, 0
2, 165156, Note_on_c, 0, 71, 58
2, 165292, Note_on_c, 0, 71, 0
2, 165366, Control_c, 0, 64, 127
2, 165414, Note_on_c, 0, 74, 61
2, 165426, Control_c, 0, 64, 0
2, 165552, Note_on_c, 0, 74, 0
2, 165612, Control_c, 0, 64, 127
2, 165668, Note_on_c, 0, 70, 39
2, 165671, Control_c, 0, 64, 0
2, 165820, Note_on_c, 0, 70, 0
2, 165872, Control_c, 0, 64, 127
2, 165944, Note_on_c, 0, 73, 41
2, 165950, Control_c, 0, 64, 0
2, 166096, Note_on_c, 0, 73, 0
2, 166134, Control_c, 0, 64, 127
2, 166254, Note_on_c, 0, 69, 34
2, 166426, Note_on_c, 0, 63, 0
2, 166434, Note_on_c, 0, 69, 0
2, 166614, Note_on_c, 0, 72, 35
2, 166640, Control_c, 0, 64, 0
2, 166642, Note_on_c, 0, 62, 38
2, 166844, Note_on_c, 0, 72, 0
2, 166886, Control_c, 0, 64, 127
2, 166994, Note_on_c, 0, 68, 33
2, 167010, Control_c, 0, 64, 0
2, 167180, Control_c, 0, 64, 127
2, 167220, Note_on_c, 0, 68, 0
2, 167518, Control_c, 0, 64, 0
2, 167536, Note_on_c, 0, 71, 39
2, 167794, Control_c, 0, 64, 127
2, 167922, Note_on_c, 0, 66, 0
2, 168308, Note_on_c, 0, 65, 15
2, 168378, Control_c, 0, 64, 0
2, 168576, Control_c, 0, 64, 127
2, 168708, Note_on_c, 0, 62, 0
2, 169190, Note_on_c, 0, 70, 15
2, 169210, Note_on_c, 0, 61, 15
2, 169258, Note_on_c, 0, 71, 0
2, 169330, Control_c, 0, 64, 0
2, 169530, Control_c, 0, 64, 127
2, 169540, Note_on_c, 0, 61, 0
2, 169762, Note_on_c, 0, 68, 20
2, 169780, Note_on_c, 0, 59, 19
2, 169806, Control_c, 0, 64, 0
2, 169836, Note_on_c, 0, 70, 0
2, 170020, Note_on_c, 0, 65, 0
2, 170022, Control_c, 0, 64, 127
2, 170070, Note_on_c, 0, 56, 0
2, 170078, Note_on_c, 0, 59, 0
2, 170158, Note_on_c, 0, 49, 0
2, 170812, Note_on_c, 0, 66, 20
2, 170816, Note_on_c, 0, 30, 13
2, 170902, Note_on_c, 0, 68, 0
2, 170944, Control_c, 0, 64, 0
2, 171250, Control_c, 0, 64, 127
2, 171278, Note_on_c, 0, 30, 0
2, 171592, Note_on_c, 0, 66, 0
2, 172312, Note_on_c, 0, 58, 13
2, 172315, Note_on_c, 0, 49, 17
2, 172316, Note_on_c, 0, 54, 14
2, 172342, Note_on_c, 0, 99, 50
2, 172468, Note_on_c, 0, 54, 0
2, 172476, Note_on_c, 0, 49, 0
2, 172482, Note_on_c, 0, 58, 0
2, 172740, Note_on_c, 0, 49, 26
2, 172740, Note_on_c, 0, 58, 19
2, 172741, Note_on_c, 0, 54, 18
2, 172817, Note_on_c, 0, 54, 0
2, 172830, Note_on_c, 0, 49, 0
2, 172844, Note_on_c, 0, 58, 0
2, 173034, Note_on_c, 0, 58, 12
2, 173036, Note_on_c, 0, 54, 29
2, 173038, Note_on_c, 0, 49, 15
2, 173100, Note_on_c, 0, 54, 0
2, 173118, Note_on_c, 0, 49, 0
2, 173142, Note_on_c, 0, 58, 0
2, 173380, Note_on_c, 0, 54, 22
2, 173382, Note_on_c, 0, 61, 33
2, 173382, Note_on_c, 0, 58, 8
2, 173684, Note_on_c, 0, 58, 0
2, 174040, Note_on_c, 0, 97, 24
2, 174056, Note_on_c, 0, 61, 0
2, 174074, Note_on_c, 0, 99, 0
2, 174106, Note_on_c, 0, 54, 0
2, 174218, Note_on_c, 0, 94, 20
2, 174222, Note_on_c, 0, 97, 0
2, 174304, Note_on_c, 0, 94, 0
2, 174358, Note_on_c, 0, 90, 34
2, 174455, Note_on_c, 0, 90, 0
2, 174515, Note_on_c, 0, 54, 21
2, 174516, Note_on_c, 0, 58, 17
2, 174516, Note_on_c, 0, 49, 18
2, 174529, Note_on_c, 0, 95, 44
2, 174722, Note_on_c, 0, 58, 0
2, 174755, Note_on_c, 0, 54, 0
2, 174850, Note_on_c, 0, 49, 0
2, 175004, Note_on_c, 0, 95, 0
2, 175012, Note_on_c, 0, 94, 33
2, 175154, Note_on_c, 0, 94, 0
2, 175178, Note_on_c, 0, 90, 37
2, 175269, Note_on_c, 0, 90, 0
2, 175310, Note_on_c, 0, 85, 27
2, 175436, Note_on_c, 0, 30, 30
2, 175454, Note_on_c, 0, 85, 0
2, 175470, Note_on_c, 0, 92, 41
2, 175552, Note_on_c, 0, 30, 0
2, 175866, Note_on_c, 0, 90, 35
2, 175888, Note_on_c, 0, 92, 0
2, 176014, Note_on_c, 0, 85, 37
2, 176034, Note_on_c, 0, 90, 0
2, 176122, Note_on_c, 0, 82, 43
2, 176154, Note_on_c, 0, 85, 0
2, 176270, Note_on_c, 0, 87, 50
2, 176280, Note_on_c, 0, 58, 10
2, 176282, Note_on_c, 0, 54, 13
2, 176283, Note_on_c, 0, 49, 20
2, 176292, Note_on_c, 0, 82, 0
2, 176378, Note_on_c, 0, 54, 0
2, 176400, Note_on_c, 0, 58, 0
2, 176406, Note_on_c, 0, 49, 0
2, 176710, Note_on_c, 0, 58, 32
2, 176711, Note_on_c, 0, 49, 18
2, 176713, Note_on_c, 0, 54, 20
2, 176728, Note_on_c, 0, 85, 37
2, 176768, Note_on_c, 0, 87, 0
2, 176784, Note_on_c, 0, 49, 0
2, 176787, Note_on_c, 0, 54, 0
2, 176790, Note_on_c, 0, 58, 0
2, 176876, Note_on_c, 0, 58, 33
2, 176876, Note_on_c, 0, 49, 18
2, 176878, Note_on_c, 0, 54, 20
2, 176900, Note_on_c, 0, 82, 33
2, 176938, Note_on_c, 0, 85, 0
2, 176949, Note_on_c, 0, 49, 0
2, 176952, Note_on_c, 0, 54, 0
2, 176954, Note_on_c, 0, 58, 0
2, 177008, Note_on_c, 0, 82, 0
2, 177054, Note_on_c, 0, 58, 16
2, 177057, Note_on_c, 0, 78, 39
2, 177062, Note_on_c, 0, 54, 41
2, 177062, Note_on_c, 0, 49, 27
2, 177116, Note_on_c, 0, 54, 0
2, 177134, Note_on_c, 0, 49, 0
2, 177136, Note_on_c, 0, 58, 0
2, 177240, Note_on_c, 0, 78, 0
2, 177274, Note_on_c, 0, 83, 62
2, 177299, Note_on_c, 0, 61, 40
2, 177302, Note_on_c, 0, 54, 14
2, 177302, Note_on_c, 0, 58, 2
2, 177368, Note_on_c, 0, 58, 0
2, 177483, Note_on_c, 0, 61, 0
2, 177688, Note_on_c, 0, 54, 0
2, 177726, Note_on_c, 0, 83, 0
2, 177730, Note_on_c, 0, 82, 33
2, 177878, Note_on_c, 0, 78, 38
2, 177882, Note_on_c, 0, 82, 0
2, 177978, Note_on_c, 0, 78, 0
2, 177986, Note_on_c, 0, 73, 34
2, 178134, Note_on_c, 0, 73, 0
2, 178152, Note_on_c, 0, 80, 52
2, 178158, Note_on_c, 0, 58, 14
2, 178168, Note_on_c, 0, 49, 13
2, 178168, Note_on_c, 0, 54, 11
2, 178286, Note_on_c, 0, 54, 0
2, 178346, Note_on_c, 0, 58, 0
2, 178396, Note_on_c, 0, 49, 0
2, 178550, Note_on_c, 0, 78, 35
2, 178553, Note_on_c, 0, 80, 0
2, 178682, Note_on_c, 0, 78, 0
2, 178688, Note_on_c, 0, 73, 33
2, 178716, Note_on_c, 0, 42, 23
2, 178830, Note_on_c, 0, 73, 0
2, 178858, Note_on_c, 0, 70, 28
2, 178870, Note_on_c, 0, 42, 0
2, 178880, Note_on_c, 0, 49, 20
2, 179078, Note_on_c, 0, 70, 0
2, 179090, Note_on_c, 0, 75, 34
2, 179136, Note_on_c, 0, 58, 14
2, 179278, Note_on_c, 0, 75, 0
2, 179296, Note_on_c, 0, 73, 26
2, 179426, Note_on_c, 0, 73, 0
2, 179436, Note_on_c, 0, 70, 22
2, 179538, Note_on_c, 0, 70, 0
2, 179566, Note_on_c, 0, 66, 24
2, 179702, Note_on_c, 0, 66, 0
2, 179726, Note_on_c, 0, 71, 45
2, 179808, Note_on_c, 0, 71, 0
2, 179848, Note_on_c, 0, 70, 30
2, 179928, Note_on_c, 0, 58, 0
2, 179964, Note_on_c, 0, 70, 0
2, 179984, Note_on_c, 0, 66, 23
2, 180062, Note_on_c, 0, 66, 0
2, 180078, Note_on_c, 0, 61, 40
2, 180162, Note_on_c, 0, 61, 0
2, 180200, Note_on_c, 0, 68, 43
2, 180314, Note_on_c, 0, 68, 0
2, 180356, Note_on_c, 0, 66, 23
2, 180452, Note_on_c, 0, 61, 39
2, 180454, Note_on_c, 0, 66, 0
2, 180520, Note_on_c, 0, 61, 0
2, 180544, Note_on_c, 0, 58, 34
2, 180664, Note_on_c, 0, 58, 0
2, 180692, Note_on_c, 0, 63, 56
2, 180784, Note_on_c, 0, 63, 0
2, 180838, Note_on_c, 0, 61, 34
2, 180898, Note_on_c, 0, 49, 0
2, 180940, Note_on_c, 0, 61, 0
2, 180972, Note_on_c, 0, 58, 23
2, 181054, Note_on_c, 0, 58, 0
2, 181070, Note_on_c, 0, 54, 46
2, 181178, Note_on_c, 0, 54, 0
2, 181318, Note_on_c, 0, 58, 43
2, 181478, Note_on_c, 0, 58, 0
2, 181494, Note_on_c, 0, 63, 41
2, 181504, Note_on_c, 0, 37, 51
2, 181592, Control_c, 0, 64, 0
2, 181638, Note_on_c, 0, 63, 0
2, 181654, Note_on_c, 0, 61, 37
2, 181776, Note_on_c, 0, 61, 0
2, 181776, Control_c, 0, 64, 127
2, 181810, Note_on_c, 0, 58, 17
2, 181894, Note_on_c, 0, 58, 0
2, 181920, Note_on_c, 0, 54, 47
2, 182048, Note_on_c, 0, 54, 0
2, 182054, Note_on_c, 0, 49, 38
2, 182108, Note_on_c, 0, 49, 0
2, 182172, Note_on_c, 0, 58, 41
2, 182326, Note_on_c, 0, 63, 51
2, 182328, Note_on_c, 0, 58, 0
2, 182332, Note_on_c, 0, 42, 37
2, 182335, Note_on_c, 0, 30, 34
2, 182360, Control_c, 0, 64, 0
2, 182368, Note_on_c, 0, 37, 0
2, 182482, Note_on_c, 0, 61, 41
2, 182485, Note_on_c, 0, 63, 0
2, 182528, Control_c, 0, 64, 127
2, 182614, Note_on_c, 0, 61, 0
2, 182627, Note_on_c, 0, 58, 22
2, 182708, Note_on_c, 0, 58, 0
2, 182752, Note_on_c, 0, 54, 37
2, 182838, Note_on_c, 0, 54, 0
2, 182872, Note_on_c, 0, 49, 38
2, 182940, Note_on_c, 0, 49, 0
2, 183010, Note_on_c, 0, 58, 36
2, 183118, Note_on_c, 0, 58, 0
2, 183156, Note_on_c, 0, 63, 48
2, 183300, Note_on_c, 0, 63, 0
2, 183318, Note_on_c, 0, 61, 31
2, 183414, Note_on_c, 0, 61, 0
2, 183454, Note_on_c, 0, 58, 23
2, 183540, Note_on_c, 0, 58, 0
2, 183610, Note_on_c, 0, 54, 39
2, 183694, Note_on_c, 0, 54, 0
2, 183738, Note_on_c, 0, 49, 34
2, 183814, Note_on_c, 0, 49, 0
2, 183900, Note_on_c, 0, 58, 31
2, 184008, Note_on_c, 0, 58, 0
2, 184078, Note_on_c, 0, 63, 42
2, 184218, Note_on_c, 0, 63, 0
2, 184258, Note_on_c, 0, 61, 37
2, 184372, Note_on_c, 0, 61, 0
2, 184454, Note_on_c, 0, 58, 13
2, 184552, Note_on_c, 0, 58, 0
2, 184628, Note_on_c, 0, 54, 32
2, 184718, Note_on_c, 0, 54, 0
2, 184812, Note_on_c, 0, 49, 35
2, 184898, Note_on_c, 0, 49, 0
2, 185024, Note_on_c, 0, 58, 25
2, 185260, Note_on_c, 0, 58, 0
2, 185274, Note_on_c, 0, 37, 33
2, 185278, Note_on_c, 0, 63, 29
2, 185280, Control_c, 0, 64, 0
2, 185392, Note_on_c, 0, 42, 0
2, 185536, Note_on_c, 0, 63, 0
2, 185550, Note_on_c, 0, 61, 29
2, 185556, Control_c, 0, 64, 127
2, 185592, Note_on_c, 0, 30, 0
2, 185818, Note_on_c, 0, 61, 0
2, 185840, Note_on_c, 0, 58, 17
2, 186170, Note_on_c, 0, 58, 0
2, 186222, Note_on_c, 0, 54, 31
2, 186452, Note_on_c, 0, 54, 0
2, 186636, Note_on_c, 0, 49, 27
2, 187230, Control_c, 0, 64, 0
2, 187268, Note_on_c, 0, 61, 32
2, 187314, Note_on_c, 0, 49, 0
2, 187444, Control_c, 0, 64, 127
2, 187750, Note_on_c, 0, 61, 0
2, 188850, Note_on_c, 0, 70, 23
2, 188866, Note_on_c, 0, 30, 16
2, 188888, Note_on_c, 0, 37, 0
2, 193498, Control_c, 0, 64, 0
2, 193752, Note_on_c, 0, 70, 0
2, 193755, Note_on_c, 0, 30, 0
2, 193755, End_track
0, 0, End_of_file
