0, 0, Header, 1, 6, 384
1, 0, Start_track
1, 0, Sequencer_specific, 3, 0, 0, 65
1, 0, Time_signature, 4, 2, 24, 8
1, 0, Key_signature, 0, "major"
1, 0, Tempo, 500000
1, 0, Marker_t, "Chopin - Nocturne in F Op 15 No 1"
1, 58160, Tempo, 545455
1, 105392, Tempo, 521739
1, 105392, End_track
2, 0, Start_track
2, 0, MIDI_port, 0
2, 0, Title_t, "Piano R"
2, 0, Control_c, 0, 0, 0
2, 0, Control_c, 0, 32, 0
2, 0, Program_c, 0, 0
2, 0, Control_c, 0, 7, 127
2, 0, Control_c, 0, 10, 48
2, 794, Control_c, 0, 91, 120
2, 1056, Note_on_c, 0, 72, 54
2, 1148, Control_c, 0, 64, 40
2, 1164, Control_c, 0, 64, 72
2, 1180, Control_c, 0, 64, 127
2, 1520, Note_on_c, 0, 72, 0
2, 1532, Note_on_c, 0, 77, 66
2, 1536, Note_on_c, 0, 65, 33
2, 1676, Control_c, 0, 64, 88
2, 1692, Control_c, 0, 64, 24
2, 1704, Control_c, 0, 64, 0
2, 1784, Control_c, 0, 64, 72
2, 1796, Control_c, 0, 64, 127
2, 1836, Note_on_c, 0, 60, 29
2, 1876, Note_on_c, 0, 60, 0
2, 1924, Note_on_c, 0, 65, 0
2, 2052, Note_on_c, 0, 60, 39
2, 2184, Note_on_c, 0, 60, 0
2, 2312, Note_on_c, 0, 65, 32
2, 2540, Note_on_c, 0, 60, 35
2, 2588, Note_on_c, 0, 60, 0
2, 2648, Note_on_c, 0, 65, 0
2, 2784, Note_on_c, 0, 60, 33
2, 2872, Note_on_c, 0, 60, 0
2, 3016, Note_on_c, 0, 76, 67
2, 3028, Note_on_c, 0, 64, 37
2, 3056, Note_on_c, 0, 77, 0
2, 3264, Note_on_c, 0, 60, 39
2, 3340, Note_on_c, 0, 60, 0
2, 3364, Note_on_c, 0, 64, 0
2, 3520, Note_on_c, 0, 60, 43
2, 3560, Note_on_c, 0, 60, 0
2, 3768, Note_on_c, 0, 74, 67
2, 3768, Note_on_c, 0, 62, 38
2, 3772, Note_on_c, 0, 76, 0
2, 3860, Control_c, 0, 64, 72
2, 3876, Control_c, 0, 64, 0
2, 3984, Control_c, 0, 64, 40
2, 4000, Control_c, 0, 64, 104
2, 4016, Control_c, 0, 64, 127
2, 4088, Note_on_c, 0, 62, 0
2, 4496, Note_on_c, 0, 74, 0
2, 4496, Note_on_c, 0, 76, 66
2, 4512, Note_on_c, 0, 64, 34
2, 4556, Control_c, 0, 64, 72
2, 4572, Control_c, 0, 64, 0
2, 4648, Control_c, 0, 64, 40
2, 4664, Control_c, 0, 64, 104
2, 4680, Control_c, 0, 64, 127
2, 4860, Note_on_c, 0, 64, 0
2, 5204, Note_on_c, 0, 72, 63
2, 5216, Note_on_c, 0, 60, 34
2, 5232, Note_on_c, 0, 76, 0
2, 5512, Note_on_c, 0, 60, 0
2, 5892, Note_on_c, 0, 72, 0
2, 5920, Note_on_c, 0, 74, 70
2, 5948, Note_on_c, 0, 62, 41
2, 5984, Control_c, 0, 64, 56
2, 6000, Control_c, 0, 64, 0
2, 6104, Control_c, 0, 64, 56
2, 6120, Control_c, 0, 64, 127
2, 6248, Note_on_c, 0, 62, 0
2, 6480, Note_on_c, 0, 74, 0
2, 6500, Note_on_c, 0, 76, 73
2, 6632, Note_on_c, 0, 76, 0
2, 6644, Note_on_c, 0, 77, 74
2, 6688, Note_on_c, 0, 64, 38
2, 6740, Control_c, 0, 64, 72
2, 6756, Control_c, 0, 64, 0
2, 6864, Control_c, 0, 64, 72
2, 6880, Control_c, 0, 64, 127
2, 7068, Note_on_c, 0, 64, 0
2, 7324, Note_on_c, 0, 77, 0
2, 7340, Note_on_c, 0, 79, 76
2, 7340, Note_on_c, 0, 60, 54
2, 7564, Note_on_c, 0, 60, 0
2, 8076, Note_on_c, 0, 79, 0
2, 8080, Note_on_c, 0, 81, 77
2, 8100, Note_on_c, 0, 60, 47
2, 8136, Control_c, 0, 64, 56
2, 8152, Control_c, 0, 64, 0
2, 8260, Control_c, 0, 64, 56
2, 8276, Control_c, 0, 64, 127
2, 8360, Note_on_c, 0, 60, 0
2, 8820, Note_on_c, 0, 61, 50
2, 8912, Control_c, 0, 64, 104
2, 8928, Control_c, 0, 64, 56
2, 8944, Control_c, 0, 64, 0
2, 9036, Control_c, 0, 64, 88
2, 9048, Control_c, 0, 64, 127
2, 9228, Note_on_c, 0, 61, 0
2, 9564, Note_on_c, 0, 62, 52
2, 9672, Control_c, 0, 64, 104
2, 9684, Control_c, 0, 64, 72
2, 9700, Control_c, 0, 64, 40
2, 9716, Control_c, 0, 64, 0
2, 9856, Control_c, 0, 64, 104
2, 9872, Control_c, 0, 64, 127
2, 10056, Note_on_c, 0, 62, 0
2, 10420, Note_on_c, 0, 81, 0
2, 10424, Note_on_c, 0, 79, 75
2, 10536, Control_c, 0, 64, 56
2, 10552, Control_c, 0, 64, 0
2, 10664, Control_c, 0, 64, 72
2, 10680, Control_c, 0, 64, 127
2, 11208, Note_on_c, 0, 81, 76
2, 11216, Note_on_c, 0, 79, 0
2, 11296, Control_c, 0, 64, 104
2, 11312, Control_c, 0, 64, 40
2, 11328, Control_c, 0, 64, 0
2, 11420, Control_c, 0, 64, 88
2, 11436, Control_c, 0, 64, 127
2, 11844, Note_on_c, 0, 81, 0
2, 11860, Note_on_c, 0, 79, 74
2, 11964, Note_on_c, 0, 79, 0
2, 12128, Note_on_c, 0, 79, 75
2, 12164, Control_c, 0, 64, 56
2, 12180, Control_c, 0, 64, 0
2, 12268, Control_c, 0, 64, 104
2, 12288, Control_c, 0, 64, 127
2, 12324, Note_on_c, 0, 79, 0
2, 12376, Note_on_c, 0, 77, 78
2, 12584, Note_on_c, 0, 77, 0
2, 12604, Note_on_c, 0, 76, 77
2, 12864, Note_on_c, 0, 76, 0
2, 12880, Note_on_c, 0, 77, 76
2, 12972, Control_c, 0, 64, 104
2, 12984, Control_c, 0, 64, 40
2, 13000, Control_c, 0, 64, 0
2, 13092, Control_c, 0, 64, 40
2, 13108, Control_c, 0, 64, 104
2, 13124, Control_c, 0, 64, 127
2, 13716, Control_c, 0, 64, 56
2, 13728, Control_c, 0, 64, 0
2, 13852, Control_c, 0, 64, 104
2, 13868, Control_c, 0, 64, 127
2, 14128, Note_on_c, 0, 76, 72
2, 14132, Note_on_c, 0, 77, 0
2, 14432, Note_on_c, 0, 76, 0
2, 14444, Note_on_c, 0, 74, 70
2, 14488, Control_c, 0, 64, 104
2, 14504, Control_c, 0, 64, 40
2, 14516, Control_c, 0, 64, 0
2, 14564, Control_c, 0, 64, 40
2, 14580, Control_c, 0, 64, 127
2, 14704, Note_on_c, 0, 74, 0
2, 14724, Note_on_c, 0, 76, 75
2, 14940, Note_on_c, 0, 76, 0
2, 14956, Note_on_c, 0, 77, 82
2, 15224, Note_on_c, 0, 77, 0
2, 15244, Note_on_c, 0, 76, 77
2, 15292, Control_c, 0, 64, 72
2, 15308, Control_c, 0, 64, 0
2, 15432, Control_c, 0, 64, 56
2, 15448, Control_c, 0, 64, 127
2, 16052, Control_c, 0, 64, 72
2, 16068, Control_c, 0, 64, 0
2, 16144, Control_c, 0, 64, 72
2, 16160, Control_c, 0, 64, 127
2, 16632, Note_on_c, 0, 76, 0
2, 16812, Control_c, 0, 64, 56
2, 16828, Control_c, 0, 64, 0
2, 16920, Control_c, 0, 64, 104
2, 16936, Control_c, 0, 64, 127
2, 16944, Note_on_c, 0, 76, 72
2, 17196, Note_on_c, 0, 76, 0
2, 17244, Note_on_c, 0, 74, 66
2, 17404, Note_on_c, 0, 74, 0
2, 17516, Note_on_c, 0, 69, 62
2, 17768, Note_on_c, 0, 69, 0
2, 17788, Control_c, 0, 64, 104
2, 17804, Control_c, 0, 64, 0
2, 17876, Note_on_c, 0, 71, 63
2, 17928, Control_c, 0, 64, 88
2, 17944, Control_c, 0, 64, 127
2, 18668, Note_on_c, 0, 64, 42
2, 18764, Control_c, 0, 64, 40
2, 18776, Control_c, 0, 64, 0
2, 18824, Control_c, 0, 64, 24
2, 18840, Control_c, 0, 64, 88
2, 18856, Control_c, 0, 64, 127
2, 19048, Note_on_c, 0, 64, 0
2, 19476, Note_on_c, 0, 71, 0
2, 19508, Note_on_c, 0, 72, 63
2, 19508, Note_on_c, 0, 64, 34
2, 19584, Control_c, 0, 64, 72
2, 19600, Control_c, 0, 64, 0
2, 19692, Control_c, 0, 64, 88
2, 19708, Control_c, 0, 64, 127
2, 19840, Note_on_c, 0, 72, 0
2, 19856, Note_on_c, 0, 74, 64
2, 19868, Note_on_c, 0, 60, 36
2, 19924, Note_on_c, 0, 60, 0
2, 20104, Note_on_c, 0, 64, 0
2, 20184, Note_on_c, 0, 60, 38
2, 20236, Note_on_c, 0, 74, 0
2, 20252, Note_on_c, 0, 60, 0
2, 20364, Note_on_c, 0, 72, 57
2, 20396, Note_on_c, 0, 72, 0
2, 20460, Note_on_c, 0, 72, 61
2, 20628, Note_on_c, 0, 65, 35
2, 20636, Control_c, 0, 64, 56
2, 20648, Note_on_c, 0, 77, 68
2, 20652, Control_c, 0, 64, 0
2, 20656, Note_on_c, 0, 72, 0
2, 20780, Control_c, 0, 64, 72
2, 20792, Control_c, 0, 64, 127
2, 20912, Note_on_c, 0, 60, 46
2, 20936, Note_on_c, 0, 65, 0
2, 20992, Note_on_c, 0, 60, 0
2, 21128, Note_on_c, 0, 60, 47
2, 21256, Note_on_c, 0, 60, 0
2, 21376, Note_on_c, 0, 65, 50
2, 21612, Note_on_c, 0, 65, 0
2, 21616, Note_on_c, 0, 60, 39
2, 21672, Note_on_c, 0, 60, 0
2, 21848, Note_on_c, 0, 60, 46
2, 21980, Note_on_c, 0, 60, 0
2, 22044, Note_on_c, 0, 77, 0
2, 22076, Note_on_c, 0, 76, 68
2, 22080, Note_on_c, 0, 64, 51
2, 22080, Control_c, 0, 64, 40
2, 22092, Control_c, 0, 64, 0
2, 22140, Control_c, 0, 64, 24
2, 22144, Note_on_c, 0, 76, 0
2, 22156, Control_c, 0, 64, 72
2, 22172, Note_on_c, 0, 77, 56
2, 22172, Control_c, 0, 64, 127
2, 22228, Note_on_c, 0, 76, 60
2, 22264, Note_on_c, 0, 77, 0
2, 22336, Note_on_c, 0, 76, 0
2, 22348, Note_on_c, 0, 79, 70
2, 22376, Note_on_c, 0, 60, 38
2, 22388, Note_on_c, 0, 79, 0
2, 22436, Note_on_c, 0, 60, 0
2, 22440, Note_on_c, 0, 64, 0
2, 22624, Note_on_c, 0, 60, 37
2, 22716, Note_on_c, 0, 60, 0
2, 22848, Note_on_c, 0, 74, 69
2, 22852, Control_c, 0, 64, 72
2, 22856, Note_on_c, 0, 62, 48
2, 22868, Control_c, 0, 64, 0
2, 22916, Note_on_c, 0, 74, 0
2, 22948, Control_c, 0, 64, 56
2, 22952, Note_on_c, 0, 76, 58
2, 22964, Control_c, 0, 64, 127
2, 23008, Note_on_c, 0, 74, 59
2, 23032, Note_on_c, 0, 76, 0
2, 23100, Note_on_c, 0, 74, 0
2, 23104, Note_on_c, 0, 77, 68
2, 23116, Note_on_c, 0, 62, 0
2, 23144, Note_on_c, 0, 77, 0
2, 23628, Note_on_c, 0, 76, 72
2, 23628, Note_on_c, 0, 64, 45
2, 23752, Control_c, 0, 64, 104
2, 23768, Control_c, 0, 64, 40
2, 23784, Control_c, 0, 64, 0
2, 23876, Control_c, 0, 64, 40
2, 23892, Control_c, 0, 64, 104
2, 23908, Control_c, 0, 64, 127
2, 23996, Note_on_c, 0, 64, 0
2, 24384, Note_on_c, 0, 60, 42
2, 24396, Note_on_c, 0, 76, 0
2, 24400, Note_on_c, 0, 72, 60
2, 24480, Control_c, 0, 64, 88
2, 24496, Control_c, 0, 64, 24
2, 24512, Control_c, 0, 64, 0
2, 24556, Control_c, 0, 64, 72
2, 24572, Control_c, 0, 64, 127
2, 24720, Note_on_c, 0, 60, 0
2, 25144, Note_on_c, 0, 72, 0
2, 25148, Note_on_c, 0, 74, 69
2, 25152, Note_on_c, 0, 62, 34
2, 25256, Control_c, 0, 64, 88
2, 25268, Control_c, 0, 64, 24
2, 25288, Control_c, 0, 64, 0
2, 25364, Control_c, 0, 64, 72
2, 25380, Control_c, 0, 64, 127
2, 25440, Note_on_c, 0, 62, 0
2, 25736, Note_on_c, 0, 74, 0
2, 25744, Note_on_c, 0, 76, 73
2, 25860, Note_on_c, 0, 76, 0
2, 25876, Note_on_c, 0, 77, 75
2, 25896, Note_on_c, 0, 64, 35
2, 25936, Control_c, 0, 64, 72
2, 25952, Control_c, 0, 64, 0
2, 26044, Control_c, 0, 64, 40
2, 26060, Control_c, 0, 64, 104
2, 26076, Control_c, 0, 64, 127
2, 26284, Note_on_c, 0, 64, 0
2, 26592, Note_on_c, 0, 77, 0
2, 26592, Note_on_c, 0, 79, 77
2, 26612, Note_on_c, 0, 60, 41
2, 26848, Note_on_c, 0, 60, 0
2, 27316, Note_on_c, 0, 81, 78
2, 27340, Note_on_c, 0, 79, 0
2, 27344, Note_on_c, 0, 60, 49
2, 27408, Control_c, 0, 64, 104
2, 27424, Control_c, 0, 64, 40
2, 27440, Control_c, 0, 64, 0
2, 27548, Control_c, 0, 64, 88
2, 27564, Control_c, 0, 64, 127
2, 27604, Note_on_c, 0, 60, 0
2, 28072, Note_on_c, 0, 61, 45
2, 28088, Control_c, 0, 64, 104
2, 28104, Control_c, 0, 64, 24
2, 28124, Control_c, 0, 64, 0
2, 28196, Control_c, 0, 64, 40
2, 28212, Control_c, 0, 64, 127
2, 28456, Note_on_c, 0, 61, 0
2, 28800, Note_on_c, 0, 61, 37
2, 29368, Note_on_c, 0, 61, 0
2, 29368, Note_on_c, 0, 81, 0
2, 29608, Note_on_c, 0, 82, 85
2, 29632, Note_on_c, 0, 61, 34
2, 29700, Control_c, 0, 64, 72
2, 29716, Control_c, 0, 64, 0
2, 29808, Control_c, 0, 64, 56
2, 29824, Control_c, 0, 64, 127
2, 30032, Note_on_c, 0, 61, 0
2, 30328, Note_on_c, 0, 60, 51
2, 30444, Control_c, 0, 64, 104
2, 30460, Control_c, 0, 64, 40
2, 30476, Control_c, 0, 64, 0
2, 30536, Control_c, 0, 64, 40
2, 30552, Control_c, 0, 64, 127
2, 30724, Note_on_c, 0, 60, 0
2, 31048, Note_on_c, 0, 82, 0
2, 31060, Note_on_c, 0, 81, 74
2, 31060, Note_on_c, 0, 62, 45
2, 31144, Control_c, 0, 64, 104
2, 31160, Control_c, 0, 64, 56
2, 31172, Control_c, 0, 64, 0
2, 31264, Control_c, 0, 64, 72
2, 31280, Control_c, 0, 64, 127
2, 31340, Note_on_c, 0, 60, 45
2, 31356, Note_on_c, 0, 62, 0
2, 31432, Note_on_c, 0, 60, 0
2, 31592, Note_on_c, 0, 60, 29
2, 31696, Note_on_c, 0, 60, 0
2, 31836, Note_on_c, 0, 79, 71
2, 31844, Note_on_c, 0, 81, 0
2, 31856, Note_on_c, 0, 64, 38
2, 31900, Control_c, 0, 64, 72
2, 31916, Control_c, 0, 64, 0
2, 31992, Control_c, 0, 64, 56
2, 32008, Control_c, 0, 64, 127
2, 32100, Note_on_c, 0, 79, 0
2, 32132, Note_on_c, 0, 81, 69
2, 32172, Note_on_c, 0, 60, 27
2, 32228, Note_on_c, 0, 60, 0
2, 32260, Note_on_c, 0, 81, 0
2, 32264, Note_on_c, 0, 79, 77
2, 32336, Note_on_c, 0, 64, 0
2, 32372, Note_on_c, 0, 79, 0
2, 32392, Note_on_c, 0, 77, 80
2, 32452, Note_on_c, 0, 60, 27
2, 32496, Note_on_c, 0, 60, 0
2, 32496, Note_on_c, 0, 77, 0
2, 32512, Note_on_c, 0, 79, 87
2, 32644, Note_on_c, 0, 79, 0
2, 32676, Note_on_c, 0, 81, 79
2, 32708, Note_on_c, 0, 65, 31
2, 32720, Control_c, 0, 64, 88
2, 32736, Control_c, 0, 64, 24
2, 32752, Control_c, 0, 64, 0
2, 32844, Control_c, 0, 64, 40
2, 32860, Control_c, 0, 64, 104
2, 32876, Control_c, 0, 64, 127
2, 32932, Note_on_c, 0, 60, 47
2, 32976, Note_on_c, 0, 60, 0
2, 33080, Note_on_c, 0, 65, 0
2, 33188, Note_on_c, 0, 60, 41
2, 33220, Note_on_c, 0, 60, 0
2, 33440, Note_on_c, 0, 81, 0
2, 33448, Note_on_c, 0, 77, 74
2, 33448, Note_on_c, 0, 68, 39
2, 33560, Control_c, 0, 64, 88
2, 33572, Control_c, 0, 64, 24
2, 33588, Control_c, 0, 64, 0
2, 33668, Control_c, 0, 64, 56
2, 33684, Control_c, 0, 64, 127
2, 33736, Note_on_c, 0, 62, 37
2, 33784, Note_on_c, 0, 62, 0
2, 33840, Note_on_c, 0, 68, 0
2, 33968, Note_on_c, 0, 62, 43
2, 34024, Note_on_c, 0, 62, 0
2, 34088, Note_on_c, 0, 77, 0
2, 34168, Note_on_c, 0, 69, 49
2, 34288, Control_c, 0, 64, 56
2, 34300, Control_c, 0, 64, 0
2, 34304, Note_on_c, 0, 72, 69
2, 34408, Control_c, 0, 64, 104
2, 34428, Control_c, 0, 64, 127
2, 34576, Note_on_c, 0, 60, 42
2, 34656, Note_on_c, 0, 60, 0
2, 34740, Note_on_c, 0, 69, 0
2, 34808, Note_on_c, 0, 60, 53
2, 34936, Note_on_c, 0, 60, 0
2, 35072, Note_on_c, 0, 77, 75
2, 35084, Note_on_c, 0, 65, 36
2, 35300, Note_on_c, 0, 60, 48
2, 35328, Note_on_c, 0, 72, 0
2, 35356, Note_on_c, 0, 60, 0
2, 35356, Note_on_c, 0, 65, 0
2, 35552, Note_on_c, 0, 60, 46
2, 35720, Note_on_c, 0, 60, 0
2, 35800, Note_on_c, 0, 76, 74
2, 35816, Note_on_c, 0, 64, 52
2, 35832, Note_on_c, 0, 77, 0
2, 35880, Control_c, 0, 64, 72
2, 35896, Control_c, 0, 64, 0
2, 35976, Control_c, 0, 64, 72
2, 35988, Control_c, 0, 64, 127
2, 36040, Note_on_c, 0, 60, 58
2, 36116, Note_on_c, 0, 60, 0
2, 36124, Note_on_c, 0, 64, 0
2, 36288, Note_on_c, 0, 60, 55
2, 36368, Note_on_c, 0, 60, 0
2, 36568, Note_on_c, 0, 79, 78
2, 36584, Note_on_c, 0, 76, 0
2, 36584, Note_on_c, 0, 61, 35
2, 36608, Control_c, 0, 64, 72
2, 36624, Control_c, 0, 64, 0
2, 36736, Control_c, 0, 64, 72
2, 36752, Control_c, 0, 64, 127
2, 36908, Note_on_c, 0, 61, 0
2, 37296, Note_on_c, 0, 61, 43
2, 37544, Note_on_c, 0, 61, 0
2, 38036, Note_on_c, 0, 61, 29
2, 38096, Control_c, 0, 64, 72
2, 38112, Control_c, 0, 64, 24
2, 38128, Control_c, 0, 64, 0
2, 38192, Control_c, 0, 64, 56
2, 38208, Control_c, 0, 64, 127
2, 38464, Note_on_c, 0, 79, 0
2, 38488, Note_on_c, 0, 61, 0
2, 38888, Note_on_c, 0, 82, 85
2, 38912, Note_on_c, 0, 61, 36
2, 38968, Control_c, 0, 64, 104
2, 38980, Control_c, 0, 64, 40
2, 38996, Control_c, 0, 64, 0
2, 39088, Control_c, 0, 64, 24
2, 39104, Control_c, 0, 64, 88
2, 39120, Control_c, 0, 64, 127
2, 40172, Note_on_c, 0, 61, 0
2, 40292, Note_on_c, 0, 82, 0
2, 40356, Note_on_c, 0, 81, 82
2, 40356, Note_on_c, 0, 61, 36
2, 40452, Control_c, 0, 64, 88
2, 40468, Control_c, 0, 64, 24
2, 40484, Control_c, 0, 64, 0
2, 40560, Control_c, 0, 64, 56
2, 40576, Control_c, 0, 64, 127
2, 40776, Note_on_c, 0, 61, 0
2, 41128, Note_on_c, 0, 79, 74
2, 41140, Note_on_c, 0, 61, 33
2, 41164, Note_on_c, 0, 81, 0
2, 41196, Control_c, 0, 64, 40
2, 41212, Control_c, 0, 64, 0
2, 41272, Control_c, 0, 64, 24
2, 41288, Control_c, 0, 64, 88
2, 41304, Control_c, 0, 64, 127
2, 41392, Note_on_c, 0, 79, 0
2, 41420, Note_on_c, 0, 81, 72
2, 41548, Note_on_c, 0, 81, 0
2, 41568, Note_on_c, 0, 79, 79
2, 41680, Note_on_c, 0, 79, 0
2, 41696, Note_on_c, 0, 78, 74
2, 41784, Note_on_c, 0, 78, 0
2, 41816, Note_on_c, 0, 79, 80
2, 41832, Note_on_c, 0, 61, 0
2, 41956, Note_on_c, 0, 79, 0
2, 41976, Note_on_c, 0, 81, 81
2, 41976, Note_on_c, 0, 60, 42
2, 42064, Control_c, 0, 64, 56
2, 42080, Control_c, 0, 64, 0
2, 42188, Control_c, 0, 64, 56
2, 42200, Control_c, 0, 64, 127
2, 42372, Note_on_c, 0, 60, 0
2, 42700, Note_on_c, 0, 81, 0
2, 42744, Note_on_c, 0, 77, 74
2, 42868, Control_c, 0, 64, 104
2, 42884, Control_c, 0, 64, 40
2, 42900, Control_c, 0, 64, 0
2, 42980, Control_c, 0, 64, 40
2, 42996, Control_c, 0, 64, 127
2, 43576, Note_on_c, 0, 77, 0
2, 43620, Note_on_c, 0, 72, 67
2, 43656, Control_c, 0, 64, 56
2, 43672, Control_c, 0, 64, 0
2, 43768, Control_c, 0, 64, 88
2, 43784, Control_c, 0, 64, 127
2, 43912, Note_on_c, 0, 60, 46
2, 44036, Note_on_c, 0, 60, 0
2, 44188, Note_on_c, 0, 60, 54
2, 44304, Note_on_c, 0, 60, 0
2, 44452, Note_on_c, 0, 72, 0
2, 44508, Note_on_c, 0, 79, 77
2, 44520, Note_on_c, 0, 65, 53
2, 44616, Control_c, 0, 64, 104
2, 44636, Control_c, 0, 64, 40
2, 44652, Control_c, 0, 64, 0
2, 44728, Control_c, 0, 64, 40
2, 44744, Control_c, 0, 64, 127
2, 44784, Note_on_c, 0, 60, 50
2, 44852, Note_on_c, 0, 60, 0
2, 44916, Note_on_c, 0, 65, 0
2, 45040, Note_on_c, 0, 60, 48
2, 45168, Note_on_c, 0, 60, 0
2, 45308, Note_on_c, 0, 64, 46
2, 45376, Control_c, 0, 64, 56
2, 45396, Control_c, 0, 64, 0
2, 45456, Control_c, 0, 64, 72
2, 45472, Control_c, 0, 64, 127
2, 45624, Note_on_c, 0, 60, 34
2, 45660, Note_on_c, 0, 60, 0
2, 45752, Note_on_c, 0, 64, 0
2, 45864, Note_on_c, 0, 60, 34
2, 45928, Note_on_c, 0, 60, 0
2, 45956, Note_on_c, 0, 79, 0
2, 45980, Note_on_c, 0, 77, 64
2, 46072, Note_on_c, 0, 77, 0
2, 46220, Note_on_c, 0, 77, 68
2, 46220, Note_on_c, 0, 65, 37
2, 46292, Control_c, 0, 64, 88
2, 46308, Control_c, 0, 64, 24
2, 46324, Control_c, 0, 64, 0
2, 46404, Control_c, 0, 64, 40
2, 46416, Control_c, 0, 64, 104
2, 46432, Control_c, 0, 64, 127
2, 46508, Note_on_c, 0, 60, 33
2, 46588, Note_on_c, 0, 60, 0
2, 46676, Note_on_c, 0, 65, 0
2, 46772, Note_on_c, 0, 60, 45
2, 46812, Note_on_c, 0, 60, 0
2, 47056, Note_on_c, 0, 77, 0
2, 47116, Note_on_c, 0, 86, 83
2, 47132, Control_c, 0, 64, 72
2, 47144, Control_c, 0, 64, 0
2, 47224, Control_c, 0, 64, 88
2, 47236, Control_c, 0, 64, 127
2, 47652, Note_on_c, 0, 86, 0
2, 47944, Note_on_c, 0, 76, 72
2, 47944, Note_on_c, 0, 62, 40
2, 47980, Control_c, 0, 64, 56
2, 47992, Control_c, 0, 64, 0
2, 48028, Control_c, 0, 64, 40
2, 48044, Control_c, 0, 64, 88
2, 48060, Control_c, 0, 64, 127
2, 48072, Note_on_c, 0, 76, 0
2, 48108, Note_on_c, 0, 77, 73
2, 48204, Note_on_c, 0, 77, 0
2, 48232, Note_on_c, 0, 76, 74
2, 48312, Note_on_c, 0, 76, 0
2, 48352, Note_on_c, 0, 74, 63
2, 48424, Note_on_c, 0, 74, 0
2, 48484, Note_on_c, 0, 76, 72
2, 48584, Control_c, 0, 64, 72
2, 48604, Control_c, 0, 64, 0
2, 48616, Control_c, 0, 64, 24
2, 48620, Control_c, 0, 64, 72
2, 48636, Control_c, 0, 64, 127
2, 48652, Note_on_c, 0, 79, 68
2, 48680, Note_on_c, 0, 76, 0
2, 48780, Note_on_c, 0, 79, 0
2, 48804, Note_on_c, 0, 62, 0
2, 48836, Note_on_c, 0, 77, 66
2, 48924, Note_on_c, 0, 77, 0
2, 48996, Note_on_c, 0, 74, 63
2, 49128, Note_on_c, 0, 74, 0
2, 49180, Note_on_c, 0, 72, 61
2, 49192, Control_c, 0, 64, 56
2, 49204, Control_c, 0, 64, 0
2, 49268, Control_c, 0, 64, 56
2, 49284, Control_c, 0, 64, 127
2, 49472, Note_on_c, 0, 60, 49
2, 49508, Note_on_c, 0, 60, 0
2, 49716, Note_on_c, 0, 60, 43
2, 49772, Note_on_c, 0, 60, 0
2, 49980, Note_on_c, 0, 72, 0
2, 50004, Note_on_c, 0, 79, 73
2, 50020, Note_on_c, 0, 65, 47
2, 50064, Control_c, 0, 64, 88
2, 50076, Control_c, 0, 64, 24
2, 50092, Control_c, 0, 64, 0
2, 50156, Control_c, 0, 64, 40
2, 50168, Control_c, 0, 64, 127
2, 50284, Note_on_c, 0, 60, 47
2, 50328, Note_on_c, 0, 60, 0
2, 50348, Note_on_c, 0, 65, 0
2, 50536, Note_on_c, 0, 60, 45
2, 50592, Note_on_c, 0, 60, 0
2, 50792, Note_on_c, 0, 64, 43
2, 50868, Control_c, 0, 64, 88
2, 50884, Control_c, 0, 64, 0
2, 50944, Control_c, 0, 64, 40
2, 50960, Control_c, 0, 64, 127
2, 51092, Note_on_c, 0, 60, 27
2, 51136, Note_on_c, 0, 60, 0
2, 51208, Note_on_c, 0, 64, 0
2, 51376, Note_on_c, 0, 60, 26
2, 51424, Note_on_c, 0, 60, 0
2, 51508, Note_on_c, 0, 79, 0
2, 51516, Note_on_c, 0, 77, 61
2, 51600, Note_on_c, 0, 77, 0
2, 51772, Note_on_c, 0, 77, 65
2, 51784, Note_on_c, 0, 65, 39
2, 51796, Control_c, 0, 64, 104
2, 51812, Control_c, 0, 64, 24
2, 51824, Control_c, 0, 64, 0
2, 51904, Control_c, 0, 64, 88
2, 51920, Control_c, 0, 64, 127
2, 52052, Note_on_c, 0, 60, 35
2, 52100, Note_on_c, 0, 65, 0
2, 52120, Note_on_c, 0, 60, 0
2, 52296, Note_on_c, 0, 60, 45
2, 52408, Note_on_c, 0, 60, 0
2, 52532, Note_on_c, 0, 65, 45
2, 52776, Note_on_c, 0, 60, 42
2, 52888, Note_on_c, 0, 60, 0
2, 52956, Note_on_c, 0, 65, 0
2, 53032, Note_on_c, 0, 60, 38
2, 53164, Note_on_c, 0, 60, 0
2, 53272, Note_on_c, 0, 76, 66
2, 53284, Note_on_c, 0, 64, 44
2, 53312, Note_on_c, 0, 77, 0
2, 53536, Note_on_c, 0, 60, 42
2, 53600, Note_on_c, 0, 64, 0
2, 53616, Note_on_c, 0, 60, 0
2, 53776, Note_on_c, 0, 60, 41
2, 53924, Note_on_c, 0, 60, 0
2, 54032, Note_on_c, 0, 74, 65
2, 54036, Note_on_c, 0, 76, 0
2, 54044, Note_on_c, 0, 62, 40
2, 54104, Control_c, 0, 64, 88
2, 54120, Control_c, 0, 64, 0
2, 54212, Control_c, 0, 64, 56
2, 54228, Control_c, 0, 64, 127
2, 54252, Note_on_c, 0, 62, 0
2, 54768, Note_on_c, 0, 76, 63
2, 54780, Note_on_c, 0, 74, 0
2, 54780, Note_on_c, 0, 64, 43
2, 54848, Control_c, 0, 64, 88
2, 54860, Control_c, 0, 64, 40
2, 54876, Control_c, 0, 64, 24
2, 54892, Control_c, 0, 64, 40
2, 54908, Control_c, 0, 64, 88
2, 54924, Control_c, 0, 64, 127
2, 55168, Note_on_c, 0, 64, 0
2, 55456, Note_on_c, 0, 76, 0
2, 55508, Note_on_c, 0, 72, 54
2, 55512, Note_on_c, 0, 60, 39
2, 55724, Note_on_c, 0, 60, 0
2, 56340, Note_on_c, 0, 72, 0
2, 56352, Note_on_c, 0, 74, 57
2, 56372, Note_on_c, 0, 62, 34
2, 56476, Control_c, 0, 64, 104
2, 56492, Control_c, 0, 64, 40
2, 56504, Control_c, 0, 64, 0
2, 56568, Control_c, 0, 64, 24
2, 56580, Control_c, 0, 64, 88
2, 56596, Control_c, 0, 64, 127
2, 56800, Note_on_c, 0, 62, 0
2, 57160, Note_on_c, 0, 76, 54
2, 57168, Note_on_c, 0, 74, 0
2, 57172, Note_on_c, 0, 64, 32
2, 57296, Control_c, 0, 64, 88
2, 57308, Control_c, 0, 64, 24
2, 57328, Control_c, 0, 64, 0
2, 57420, Control_c, 0, 64, 56
2, 57432, Control_c, 0, 64, 127
2, 57552, Note_on_c, 0, 76, 0
2, 57776, Note_on_c, 0, 64, 0
2, 58092, Control_c, 0, 64, 24
2, 58100, Control_c, 0, 64, 40
2, 58112, Control_c, 0, 64, 56
2, 58124, Control_c, 0, 64, 72
2, 58132, Control_c, 0, 64, 88
2, 58140, Control_c, 0, 64, 104
2, 58152, Control_c, 0, 64, 127
2, 58176, Note_on_c, 0, 65, 45
2, 58268, Note_on_c, 0, 65, 0
2, 58312, Note_on_c, 0, 68, 56
2, 58348, Note_on_c, 0, 60, 49
2, 58388, Note_on_c, 0, 68, 0
2, 58396, Note_on_c, 0, 60, 0
2, 58448, Note_on_c, 0, 65, 52
2, 58524, Note_on_c, 0, 65, 0
2, 58548, Note_on_c, 0, 68, 46
2, 58580, Note_on_c, 0, 60, 44
2, 58616, Note_on_c, 0, 68, 0
2, 58620, Note_on_c, 0, 60, 0
2, 58672, Note_on_c, 0, 65, 57
2, 58740, Note_on_c, 0, 65, 0
2, 58772, Note_on_c, 0, 68, 53
2, 58796, Note_on_c, 0, 60, 43
2, 58836, Note_on_c, 0, 60, 0
2, 58844, Note_on_c, 0, 68, 0
2, 58896, Note_on_c, 0, 65, 59
2, 58964, Note_on_c, 0, 65, 0
2, 59000, Note_on_c, 0, 68, 58
2, 59020, Note_on_c, 0, 60, 52
2, 59072, Note_on_c, 0, 68, 0
2, 59076, Note_on_c, 0, 60, 0
2, 59120, Note_on_c, 0, 65, 63
2, 59204, Note_on_c, 0, 65, 0
2, 59228, Note_on_c, 0, 68, 59
2, 59244, Note_on_c, 0, 60, 60
2, 59296, Note_on_c, 0, 68, 0
2, 59316, Note_on_c, 0, 60, 0
2, 59348, Note_on_c, 0, 65, 68
2, 59432, Note_on_c, 0, 65, 0
2, 59456, Note_on_c, 0, 68, 63
2, 59464, Note_on_c, 0, 60, 63
2, 59532, Note_on_c, 0, 60, 0
2, 59532, Note_on_c, 0, 68, 0
2, 59572, Note_on_c, 0, 65, 68
2, 59656, Note_on_c, 0, 65, 0
2, 59684, Note_on_c, 0, 68, 61
2, 59692, Note_on_c, 0, 60, 61
2, 59752, Note_on_c, 0, 68, 0
2, 59764, Note_on_c, 0, 60, 0
2, 59792, Note_on_c, 0, 65, 71
2, 59876, Note_on_c, 0, 65, 0
2, 59892, Note_on_c, 0, 68, 69
2, 59912, Note_on_c, 0, 60, 64
2, 59968, Note_on_c, 0, 68, 0
2, 59972, Note_on_c, 0, 60, 0
2, 60004, Note_on_c, 0, 65, 74
2, 60088, Note_on_c, 0, 65, 0
2, 60108, Note_on_c, 0, 68, 71
2, 60128, Note_on_c, 0, 60, 55
2, 60156, Note_on_c, 0, 60, 0
2, 60192, Note_on_c, 0, 68, 0
2, 60228, Control_c, 0, 64, 104
2, 60236, Note_on_c, 0, 65, 78
2, 60236, Control_c, 0, 64, 40
2, 60248, Control_c, 0, 64, 0
2, 60316, Control_c, 0, 64, 72
2, 60324, Note_on_c, 0, 65, 0
2, 60324, Control_c, 0, 64, 127
2, 60340, Note_on_c, 0, 68, 65
2, 60348, Note_on_c, 0, 61, 62
2, 60412, Note_on_c, 0, 68, 0
2, 60428, Note_on_c, 0, 61, 0
2, 60456, Note_on_c, 0, 65, 73
2, 60540, Note_on_c, 0, 65, 0
2, 60568, Note_on_c, 0, 68, 68
2, 60576, Note_on_c, 0, 61, 59
2, 60640, Note_on_c, 0, 68, 0
2, 60656, Note_on_c, 0, 61, 0
2, 60680, Note_on_c, 0, 65, 77
2, 60772, Note_on_c, 0, 65, 0
2, 60788, Note_on_c, 0, 68, 65
2, 60800, Note_on_c, 0, 61, 54
2, 60864, Note_on_c, 0, 68, 0
2, 60868, Note_on_c, 0, 61, 0
2, 60920, Note_on_c, 0, 65, 74
2, 60996, Note_on_c, 0, 65, 0
2, 61024, Note_on_c, 0, 61, 60
2, 61044, Note_on_c, 0, 68, 42
2, 61088, Note_on_c, 0, 68, 0
2, 61092, Note_on_c, 0, 61, 0
2, 61144, Note_on_c, 0, 65, 68
2, 61228, Note_on_c, 0, 65, 0
2, 61256, Note_on_c, 0, 61, 55
2, 61260, Note_on_c, 0, 68, 64
2, 61320, Note_on_c, 0, 61, 0
2, 61324, Note_on_c, 0, 68, 0
2, 61368, Note_on_c, 0, 65, 70
2, 61448, Note_on_c, 0, 65, 0
2, 61460, Note_on_c, 0, 68, 64
2, 61468, Note_on_c, 0, 61, 42
2, 61520, Note_on_c, 0, 68, 0
2, 61524, Note_on_c, 0, 61, 0
2, 61584, Note_on_c, 0, 65, 66
2, 61616, Control_c, 0, 64, 88
2, 61628, Control_c, 0, 64, 40
2, 61636, Control_c, 0, 64, 0
2, 61680, Control_c, 0, 64, 40
2, 61684, Note_on_c, 0, 65, 0
2, 61692, Control_c, 0, 64, 104
2, 61696, Note_on_c, 0, 67, 60
2, 61704, Control_c, 0, 64, 127
2, 61712, Note_on_c, 0, 61, 39
2, 61736, Note_on_c, 0, 61, 0
2, 61744, Note_on_c, 0, 67, 0
2, 61800, Note_on_c, 0, 65, 64
2, 61884, Note_on_c, 0, 65, 0
2, 61912, Note_on_c, 0, 67, 56
2, 61912, Note_on_c, 0, 61, 37
2, 61968, Note_on_c, 0, 67, 0
2, 61972, Note_on_c, 0, 61, 0
2, 62016, Note_on_c, 0, 65, 60
2, 62096, Note_on_c, 0, 65, 0
2, 62112, Note_on_c, 0, 61, 46
2, 62120, Note_on_c, 0, 67, 56
2, 62148, Note_on_c, 0, 61, 0
2, 62152, Note_on_c, 0, 67, 0
2, 62264, Note_on_c, 0, 67, 65
2, 62268, Control_c, 0, 64, 88
2, 62276, Control_c, 0, 64, 40
2, 62288, Control_c, 0, 64, 0
2, 62332, Control_c, 0, 64, 24
2, 62344, Control_c, 0, 64, 72
2, 62352, Control_c, 0, 64, 127
2, 62368, Note_on_c, 0, 67, 0
2, 62380, Note_on_c, 0, 70, 60
2, 62396, Note_on_c, 0, 65, 44
2, 62428, Note_on_c, 0, 65, 0
2, 62436, Note_on_c, 0, 70, 0
2, 62484, Note_on_c, 0, 67, 64
2, 62568, Note_on_c, 0, 67, 0
2, 62592, Note_on_c, 0, 70, 65
2, 62604, Note_on_c, 0, 65, 55
2, 62660, Note_on_c, 0, 65, 0
2, 62664, Note_on_c, 0, 70, 0
2, 62704, Note_on_c, 0, 67, 66
2, 62788, Note_on_c, 0, 67, 0
2, 62808, Note_on_c, 0, 70, 63
2, 62820, Note_on_c, 0, 65, 58
2, 62880, Note_on_c, 0, 65, 0
2, 62884, Note_on_c, 0, 70, 0
2, 62924, Note_on_c, 0, 67, 64
2, 62928, Control_c, 0, 64, 72
2, 62972, Control_c, 0, 64, 127
2, 63012, Note_on_c, 0, 67, 0
2, 63032, Note_on_c, 0, 70, 60
2, 63040, Note_on_c, 0, 65, 57
2, 63100, Note_on_c, 0, 65, 0
2, 63100, Note_on_c, 0, 70, 0
2, 63140, Note_on_c, 0, 67, 64
2, 63220, Note_on_c, 0, 67, 0
2, 63248, Note_on_c, 0, 70, 59
2, 63252, Note_on_c, 0, 65, 54
2, 63308, Note_on_c, 0, 65, 0
2, 63312, Note_on_c, 0, 70, 0
2, 63352, Note_on_c, 0, 67, 63
2, 63428, Note_on_c, 0, 67, 0
2, 63452, Note_on_c, 0, 70, 62
2, 63468, Note_on_c, 0, 65, 58
2, 63524, Note_on_c, 0, 65, 0
2, 63524, Note_on_c, 0, 70, 0
2, 63564, Note_on_c, 0, 67, 69
2, 63652, Note_on_c, 0, 67, 0
2, 63668, Note_on_c, 0, 70, 67
2, 63676, Note_on_c, 0, 65, 61
2, 63732, Note_on_c, 0, 65, 0
2, 63736, Note_on_c, 0, 70, 0
2, 63772, Note_on_c, 0, 67, 66
2, 63856, Note_on_c, 0, 67, 0
2, 63880, Note_on_c, 0, 70, 67
2, 63888, Note_on_c, 0, 65, 64
2, 63944, Note_on_c, 0, 65, 0
2, 63944, Note_on_c, 0, 70, 0
2, 63984, Note_on_c, 0, 67, 70
2, 64064, Note_on_c, 0, 67, 0
2, 64068, Note_on_c, 0, 65, 58
2, 64116, Note_on_c, 0, 70, 48
2, 64124, Note_on_c, 0, 65, 0
2, 64180, Note_on_c, 0, 70, 0
2, 64204, Note_on_c, 0, 66, 73
2, 64208, Control_c, 0, 64, 88
2, 64220, Control_c, 0, 64, 40
2, 64228, Control_c, 0, 64, 0
2, 64276, Control_c, 0, 64, 56
2, 64284, Control_c, 0, 64, 127
2, 64308, Note_on_c, 0, 66, 0
2, 64320, Note_on_c, 0, 70, 70
2, 64324, Note_on_c, 0, 63, 61
2, 64384, Note_on_c, 0, 63, 0
2, 64388, Note_on_c, 0, 70, 0
2, 64424, Note_on_c, 0, 66, 67
2, 64504, Note_on_c, 0, 66, 0
2, 64524, Note_on_c, 0, 70, 71
2, 64528, Note_on_c, 0, 63, 62
2, 64592, Note_on_c, 0, 63, 0
2, 64596, Note_on_c, 0, 70, 0
2, 64624, Note_on_c, 0, 66, 67
2, 64704, Note_on_c, 0, 66, 0
2, 64724, Note_on_c, 0, 70, 69
2, 64732, Note_on_c, 0, 63, 54
2, 64788, Note_on_c, 0, 63, 0
2, 64796, Note_on_c, 0, 60, 92
2, 64800, Note_on_c, 0, 70, 0
2, 64840, Note_on_c, 0, 60, 0
2, 64852, Note_on_c, 0, 66, 64
2, 64872, Note_on_c, 0, 60, 90
2, 64928, Note_on_c, 0, 66, 0
2, 64968, Note_on_c, 0, 63, 57
2, 64972, Note_on_c, 0, 70, 68
2, 65028, Note_on_c, 0, 63, 0
2, 65036, Note_on_c, 0, 70, 0
2, 65080, Note_on_c, 0, 66, 65
2, 65160, Note_on_c, 0, 66, 0
2, 65192, Note_on_c, 0, 63, 54
2, 65192, Note_on_c, 0, 70, 65
2, 65248, Note_on_c, 0, 63, 0
2, 65260, Note_on_c, 0, 70, 0
2, 65300, Note_on_c, 0, 66, 61
2, 65364, Note_on_c, 0, 60, 0
2, 65380, Note_on_c, 0, 66, 0
2, 65396, Note_on_c, 0, 70, 69
2, 65396, Note_on_c, 0, 63, 54
2, 65452, Note_on_c, 0, 63, 0
2, 65452, Note_on_c, 0, 70, 0
2, 65508, Note_on_c, 0, 66, 64
2, 65608, Control_c, 0, 64, 72
2, 65616, Control_c, 0, 64, 0
2, 65620, Note_on_c, 0, 66, 0
2, 65620, Note_on_c, 0, 63, 53
2, 65620, Note_on_c, 0, 69, 63
2, 65664, Control_c, 0, 64, 72
2, 65672, Control_c, 0, 64, 127
2, 65676, Note_on_c, 0, 69, 0
2, 65676, Note_on_c, 0, 63, 0
2, 65728, Note_on_c, 0, 66, 63
2, 65796, Note_on_c, 0, 66, 0
2, 65832, Note_on_c, 0, 63, 55
2, 65836, Note_on_c, 0, 69, 68
2, 65888, Note_on_c, 0, 63, 0
2, 65896, Note_on_c, 0, 69, 0
2, 65948, Note_on_c, 0, 66, 53
2, 66048, Note_on_c, 0, 69, 68
2, 66056, Note_on_c, 0, 66, 0
2, 66076, Note_on_c, 0, 69, 0
2, 66200, Note_on_c, 0, 72, 76
2, 66200, Note_on_c, 0, 65, 53
2, 66208, Note_on_c, 0, 60, 59
2, 66236, Control_c, 0, 64, 104
2, 66248, Control_c, 0, 64, 40
2, 66260, Control_c, 0, 64, 0
2, 66276, Note_on_c, 0, 65, 0
2, 66304, Note_on_c, 0, 77, 73
2, 66304, Control_c, 0, 64, 56
2, 66316, Note_on_c, 0, 72, 0
2, 66316, Control_c, 0, 64, 127
2, 66348, Note_on_c, 0, 69, 24
2, 66368, Note_on_c, 0, 77, 0
2, 66376, Note_on_c, 0, 69, 0
2, 66412, Note_on_c, 0, 65, 61
2, 66424, Note_on_c, 0, 72, 71
2, 66472, Note_on_c, 0, 65, 0
2, 66496, Note_on_c, 0, 72, 0
2, 66524, Note_on_c, 0, 77, 77
2, 66540, Note_on_c, 0, 69, 64
2, 66568, Note_on_c, 0, 60, 0
2, 66596, Note_on_c, 0, 69, 0
2, 66600, Note_on_c, 0, 77, 0
2, 66628, Note_on_c, 0, 65, 51
2, 66636, Note_on_c, 0, 72, 70
2, 66720, Note_on_c, 0, 72, 0
2, 66720, Note_on_c, 0, 65, 0
2, 66744, Note_on_c, 0, 77, 79
2, 66744, Note_on_c, 0, 61, 69
2, 66812, Note_on_c, 0, 77, 0
2, 66860, Note_on_c, 0, 73, 71
2, 66864, Note_on_c, 0, 61, 0
2, 66872, Note_on_c, 0, 65, 54
2, 66920, Control_c, 0, 64, 72
2, 66932, Control_c, 0, 64, 24
2, 66944, Control_c, 0, 64, 0
2, 66948, Note_on_c, 0, 65, 0
2, 66964, Note_on_c, 0, 73, 0
2, 66976, Note_on_c, 0, 77, 69
2, 66976, Note_on_c, 0, 70, 53
2, 66996, Control_c, 0, 64, 40
2, 67008, Control_c, 0, 64, 104
2, 67016, Control_c, 0, 64, 127
2, 67036, Note_on_c, 0, 77, 0
2, 67040, Note_on_c, 0, 70, 0
2, 67080, Note_on_c, 0, 65, 56
2, 67084, Note_on_c, 0, 73, 61
2, 67144, Note_on_c, 0, 65, 0
2, 67164, Note_on_c, 0, 73, 0
2, 67184, Note_on_c, 0, 70, 61
2, 67188, Note_on_c, 0, 77, 74
2, 67256, Note_on_c, 0, 70, 0
2, 67264, Note_on_c, 0, 77, 0
2, 67296, Note_on_c, 0, 65, 53
2, 67300, Note_on_c, 0, 73, 64
2, 67360, Note_on_c, 0, 65, 0
2, 67376, Note_on_c, 0, 73, 0
2, 67396, Note_on_c, 0, 70, 56
2, 67408, Note_on_c, 0, 77, 82
2, 67452, Note_on_c, 0, 70, 0
2, 67468, Note_on_c, 0, 77, 0
2, 67516, Note_on_c, 0, 73, 71
2, 67520, Note_on_c, 0, 65, 56
2, 67572, Control_c, 0, 64, 88
2, 67584, Control_c, 0, 64, 40
2, 67596, Note_on_c, 0, 65, 0
2, 67596, Control_c, 0, 64, 0
2, 67616, Note_on_c, 0, 73, 0
2, 67628, Control_c, 0, 64, 24
2, 67632, Note_on_c, 0, 71, 59
2, 67636, Note_on_c, 0, 77, 69
2, 67636, Control_c, 0, 64, 72
2, 67648, Control_c, 0, 64, 127
2, 67680, Note_on_c, 0, 71, 0
2, 67696, Note_on_c, 0, 77, 0
2, 67736, Note_on_c, 0, 73, 67
2, 67740, Note_on_c, 0, 65, 45
2, 67796, Note_on_c, 0, 65, 0
2, 67808, Note_on_c, 0, 73, 0
2, 67848, Note_on_c, 0, 77, 69
2, 67856, Note_on_c, 0, 71, 46
2, 67884, Note_on_c, 0, 71, 0
2, 67904, Note_on_c, 0, 77, 0
2, 67952, Note_on_c, 0, 73, 58
2, 67960, Note_on_c, 0, 65, 37
2, 67996, Note_on_c, 0, 65, 0
2, 68024, Note_on_c, 0, 73, 0
2, 68056, Note_on_c, 0, 77, 68
2, 68076, Note_on_c, 0, 71, 26
2, 68100, Note_on_c, 0, 71, 0
2, 68112, Note_on_c, 0, 77, 0
2, 68172, Note_on_c, 0, 73, 58
2, 68180, Note_on_c, 0, 65, 37
2, 68220, Note_on_c, 0, 65, 0
2, 68232, Control_c, 0, 64, 104
2, 68244, Control_c, 0, 64, 56
2, 68252, Note_on_c, 0, 73, 0
2, 68256, Control_c, 0, 64, 40
2, 68288, Note_on_c, 0, 77, 59
2, 68288, Note_on_c, 0, 71, 42
2, 68288, Control_c, 0, 64, 88
2, 68296, Control_c, 0, 64, 127
2, 68320, Note_on_c, 0, 71, 0
2, 68336, Note_on_c, 0, 77, 0
2, 68380, Note_on_c, 0, 73, 56
2, 68384, Note_on_c, 0, 65, 45
2, 68432, Note_on_c, 0, 65, 0
2, 68452, Note_on_c, 0, 73, 0
2, 68496, Note_on_c, 0, 77, 65
2, 68504, Note_on_c, 0, 71, 38
2, 68536, Note_on_c, 0, 71, 0
2, 68552, Note_on_c, 0, 77, 0
2, 68600, Note_on_c, 0, 73, 60
2, 68608, Note_on_c, 0, 65, 38
2, 68672, Note_on_c, 0, 65, 0
2, 68680, Note_on_c, 0, 73, 0
2, 68696, Note_on_c, 0, 77, 71
2, 68716, Note_on_c, 0, 71, 33
2, 68748, Note_on_c, 0, 71, 0
2, 68752, Note_on_c, 0, 77, 0
2, 68824, Note_on_c, 0, 73, 64
2, 68832, Note_on_c, 0, 66, 37
2, 68896, Control_c, 0, 64, 88
2, 68904, Note_on_c, 0, 66, 0
2, 68908, Control_c, 0, 64, 56
2, 68912, Note_on_c, 0, 73, 0
2, 68916, Control_c, 0, 64, 24
2, 68932, Note_on_c, 0, 78, 68
2, 68932, Note_on_c, 0, 71, 54
2, 68948, Control_c, 0, 64, 88
2, 68960, Control_c, 0, 64, 127
2, 68964, Note_on_c, 0, 71, 0
2, 68996, Note_on_c, 0, 78, 0
2, 69032, Note_on_c, 0, 73, 62
2, 69032, Note_on_c, 0, 66, 49
2, 69104, Note_on_c, 0, 66, 0
2, 69108, Note_on_c, 0, 73, 0
2, 69132, Note_on_c, 0, 78, 65
2, 69144, Note_on_c, 0, 71, 53
2, 69188, Note_on_c, 0, 71, 0
2, 69236, Note_on_c, 0, 66, 38
2, 69244, Note_on_c, 0, 78, 0
2, 69252, Note_on_c, 0, 73, 54
2, 69312, Note_on_c, 0, 66, 0
2, 69324, Note_on_c, 0, 73, 0
2, 69348, Note_on_c, 0, 78, 70
2, 69348, Note_on_c, 0, 71, 36
2, 69384, Note_on_c, 0, 71, 0
2, 69420, Note_on_c, 0, 78, 0
2, 69456, Note_on_c, 0, 73, 72
2, 69456, Note_on_c, 0, 68, 51
2, 69492, Control_c, 0, 64, 88
2, 69504, Control_c, 0, 64, 40
2, 69512, Control_c, 0, 64, 0
2, 69516, Note_on_c, 0, 68, 0
2, 69548, Note_on_c, 0, 73, 0
2, 69568, Control_c, 0, 64, 72
2, 69572, Note_on_c, 0, 71, 41
2, 69572, Note_on_c, 0, 80, 74
2, 69580, Control_c, 0, 64, 127
2, 69620, Note_on_c, 0, 71, 0
2, 69644, Note_on_c, 0, 80, 0
2, 69672, Note_on_c, 0, 73, 65
2, 69680, Note_on_c, 0, 68, 43
2, 69736, Note_on_c, 0, 68, 0
2, 69760, Note_on_c, 0, 73, 0
2, 69772, Note_on_c, 0, 80, 75
2, 69788, Note_on_c, 0, 71, 56
2, 69824, Note_on_c, 0, 71, 0
2, 69868, Note_on_c, 0, 80, 0
2, 69880, Note_on_c, 0, 68, 54
2, 69892, Note_on_c, 0, 73, 62
2, 69972, Note_on_c, 0, 68, 0
2, 69992, Note_on_c, 0, 73, 0
2, 69996, Note_on_c, 0, 80, 85
2, 70064, Note_on_c, 0, 80, 0
2, 70172, Note_on_c, 0, 80, 86
2, 70188, Note_on_c, 0, 71, 64
2, 70268, Note_on_c, 0, 71, 0
2, 70288, Note_on_c, 0, 73, 62
2, 70304, Control_c, 0, 64, 104
2, 70316, Control_c, 0, 64, 56
2, 70328, Control_c, 0, 64, 24
2, 70360, Control_c, 0, 64, 104
2, 70372, Control_c, 0, 64, 127
2, 70400, Note_on_c, 0, 71, 63
2, 70404, Note_on_c, 0, 73, 0
2, 70472, Note_on_c, 0, 71, 0
2, 70504, Note_on_c, 0, 73, 62
2, 70516, Note_on_c, 0, 80, 0
2, 70592, Note_on_c, 0, 73, 0
2, 70612, Note_on_c, 0, 71, 60
2, 70680, Note_on_c, 0, 71, 0
2, 70712, Note_on_c, 0, 82, 76
2, 70720, Note_on_c, 0, 73, 65
2, 70808, Note_on_c, 0, 82, 0
2, 70820, Note_on_c, 0, 73, 0
2, 70844, Note_on_c, 0, 78, 73
2, 70868, Note_on_c, 0, 70, 58
2, 70936, Control_c, 0, 64, 72
2, 70948, Control_c, 0, 64, 24
2, 70956, Control_c, 0, 64, 0
2, 70968, Note_on_c, 0, 73, 68
2, 70976, Note_on_c, 0, 70, 0
2, 71000, Control_c, 0, 64, 56
2, 71012, Control_c, 0, 64, 127
2, 71060, Note_on_c, 0, 73, 0
2, 71080, Note_on_c, 0, 70, 60
2, 71152, Note_on_c, 0, 70, 0
2, 71176, Note_on_c, 0, 73, 62
2, 71272, Note_on_c, 0, 73, 0
2, 71288, Note_on_c, 0, 70, 47
2, 71348, Note_on_c, 0, 78, 0
2, 71372, Note_on_c, 0, 70, 0
2, 71384, Note_on_c, 0, 73, 58
2, 71472, Note_on_c, 0, 73, 0
2, 71488, Note_on_c, 0, 77, 83
2, 71504, Note_on_c, 0, 68, 46
2, 71540, Control_c, 0, 64, 56
2, 71552, Control_c, 0, 64, 0
2, 71564, Note_on_c, 0, 68, 0
2, 71596, Note_on_c, 0, 73, 57
2, 71596, Control_c, 0, 64, 24
2, 71608, Control_c, 0, 64, 72
2, 71620, Control_c, 0, 64, 127
2, 71680, Note_on_c, 0, 73, 0
2, 71712, Note_on_c, 0, 68, 47
2, 71772, Note_on_c, 0, 68, 0
2, 71808, Note_on_c, 0, 73, 58
2, 71888, Note_on_c, 0, 73, 0
2, 71920, Note_on_c, 0, 68, 37
2, 72000, Note_on_c, 0, 68, 0
2, 72016, Note_on_c, 0, 73, 54
2, 72084, Note_on_c, 0, 73, 0
2, 72128, Note_on_c, 0, 75, 76
2, 72136, Note_on_c, 0, 66, 34
2, 72180, Note_on_c, 0, 66, 0
2, 72204, Note_on_c, 0, 77, 0
2, 72240, Note_on_c, 0, 73, 64
2, 72268, Control_c, 0, 64, 72
2, 72280, Control_c, 0, 64, 56
2, 72300, Control_c, 0, 64, 88
2, 72312, Control_c, 0, 64, 127
2, 72340, Note_on_c, 0, 66, 50
2, 72344, Note_on_c, 0, 73, 0
2, 72420, Note_on_c, 0, 66, 0
2, 72428, Note_on_c, 0, 75, 0
2, 72440, Note_on_c, 0, 73, 58
2, 72524, Note_on_c, 0, 73, 0
2, 72544, Note_on_c, 0, 66, 54
2, 72628, Note_on_c, 0, 66, 0
2, 72644, Note_on_c, 0, 73, 62
2, 72728, Note_on_c, 0, 73, 0
2, 72752, Note_on_c, 0, 77, 82
2, 72760, Note_on_c, 0, 65, 55
2, 72812, Note_on_c, 0, 65, 0
2, 72812, Control_c, 0, 64, 72
2, 72820, Control_c, 0, 64, 24
2, 72832, Control_c, 0, 64, 0
2, 72860, Note_on_c, 0, 73, 60
2, 72876, Control_c, 0, 64, 24
2, 72888, Control_c, 0, 64, 88
2, 72900, Control_c, 0, 64, 127
2, 72932, Note_on_c, 0, 73, 0
2, 72960, Note_on_c, 0, 65, 54
2, 73020, Note_on_c, 0, 65, 0
2, 73040, Note_on_c, 0, 77, 0
2, 73060, Note_on_c, 0, 73, 53
2, 73128, Note_on_c, 0, 73, 0
2, 73168, Note_on_c, 0, 65, 53
2, 73236, Note_on_c, 0, 65, 0
2, 73252, Note_on_c, 0, 73, 63
2, 73348, Note_on_c, 0, 73, 0
2, 73368, Note_on_c, 0, 61, 42
2, 73372, Note_on_c, 0, 65, 43
2, 73432, Control_c, 0, 64, 88
2, 73440, Note_on_c, 0, 65, 0
2, 73440, Control_c, 0, 64, 40
2, 73452, Control_c, 0, 64, 24
2, 73472, Note_on_c, 0, 73, 53
2, 73472, Control_c, 0, 64, 56
2, 73484, Control_c, 0, 64, 104
2, 73496, Control_c, 0, 64, 127
2, 73548, Note_on_c, 0, 73, 0
2, 73576, Note_on_c, 0, 65, 55
2, 73604, Note_on_c, 0, 61, 0
2, 73644, Note_on_c, 0, 65, 0
2, 73680, Note_on_c, 0, 73, 56
2, 73748, Note_on_c, 0, 73, 0
2, 73768, Note_on_c, 0, 65, 52
2, 73808, Control_c, 0, 64, 104
2, 73820, Control_c, 0, 64, 56
2, 73832, Control_c, 0, 64, 0
2, 73848, Note_on_c, 0, 73, 49
2, 73852, Note_on_c, 0, 65, 0
2, 73864, Control_c, 0, 64, 88
2, 73872, Note_on_c, 0, 73, 0
2, 73872, Control_c, 0, 64, 127
2, 74056, Note_on_c, 0, 80, 74
2, 74068, Note_on_c, 0, 71, 53
2, 74120, Note_on_c, 0, 71, 0
2, 74172, Note_on_c, 0, 73, 54
2, 74256, Note_on_c, 0, 73, 0
2, 74284, Note_on_c, 0, 71, 47
2, 74336, Note_on_c, 0, 71, 0
2, 74388, Note_on_c, 0, 80, 0
2, 74388, Note_on_c, 0, 73, 54
2, 74460, Note_on_c, 0, 73, 0
2, 74488, Note_on_c, 0, 71, 46
2, 74544, Note_on_c, 0, 71, 0
2, 74592, Note_on_c, 0, 82, 72
2, 74596, Note_on_c, 0, 73, 61
2, 74660, Note_on_c, 0, 82, 0
2, 74672, Note_on_c, 0, 73, 0
2, 74720, Note_on_c, 0, 78, 69
2, 74732, Note_on_c, 0, 70, 56
2, 74796, Note_on_c, 0, 70, 0
2, 74804, Control_c, 0, 64, 72
2, 74816, Control_c, 0, 64, 24
2, 74828, Control_c, 0, 64, 0
2, 74836, Note_on_c, 0, 73, 55
2, 74860, Control_c, 0, 64, 24
2, 74872, Control_c, 0, 64, 72
2, 74884, Control_c, 0, 64, 127
2, 74920, Note_on_c, 0, 73, 0
2, 74960, Note_on_c, 0, 70, 50
2, 75024, Note_on_c, 0, 70, 0
2, 75060, Note_on_c, 0, 73, 57
2, 75080, Note_on_c, 0, 78, 0
2, 75144, Note_on_c, 0, 73, 0
2, 75168, Note_on_c, 0, 70, 44
2, 75252, Note_on_c, 0, 70, 0
2, 75268, Note_on_c, 0, 73, 54
2, 75348, Note_on_c, 0, 73, 0
2, 75380, Note_on_c, 0, 77, 71
2, 75380, Note_on_c, 0, 68, 44
2, 75436, Control_c, 0, 64, 56
2, 75448, Control_c, 0, 64, 0
2, 75460, Note_on_c, 0, 68, 0
2, 75484, Note_on_c, 0, 73, 57
2, 75504, Control_c, 0, 64, 72
2, 75512, Control_c, 0, 64, 127
2, 75572, Note_on_c, 0, 73, 0
2, 75596, Note_on_c, 0, 68, 43
2, 75668, Note_on_c, 0, 68, 0
2, 75704, Note_on_c, 0, 73, 53
2, 75772, Note_on_c, 0, 73, 0
2, 75812, Note_on_c, 0, 68, 33
2, 75892, Note_on_c, 0, 68, 0
2, 75912, Note_on_c, 0, 73, 51
2, 75956, Note_on_c, 0, 77, 0
2, 75976, Note_on_c, 0, 73, 0
2, 76012, Note_on_c, 0, 75, 61
2, 76024, Note_on_c, 0, 66, 33
2, 76112, Note_on_c, 0, 66, 0
2, 76120, Control_c, 0, 64, 88
2, 76128, Note_on_c, 0, 73, 56
2, 76132, Control_c, 0, 64, 40
2, 76140, Control_c, 0, 64, 0
2, 76172, Control_c, 0, 64, 24
2, 76184, Control_c, 0, 64, 72
2, 76196, Control_c, 0, 64, 127
2, 76208, Note_on_c, 0, 73, 0
2, 76232, Note_on_c, 0, 66, 45
2, 76300, Note_on_c, 0, 66, 0
2, 76324, Note_on_c, 0, 75, 0
2, 76324, Note_on_c, 0, 73, 50
2, 76396, Note_on_c, 0, 73, 0
2, 76424, Note_on_c, 0, 66, 45
2, 76508, Note_on_c, 0, 66, 0
2, 76524, Note_on_c, 0, 73, 59
2, 76612, Note_on_c, 0, 73, 0
2, 76640, Note_on_c, 0, 65, 52
2, 76640, Note_on_c, 0, 77, 64
2, 76716, Note_on_c, 0, 65, 0
2, 76736, Control_c, 0, 64, 104
2, 76748, Control_c, 0, 64, 56
2, 76756, Note_on_c, 0, 73, 54
2, 76760, Control_c, 0, 64, 24
2, 76772, Control_c, 0, 64, 0
2, 76804, Control_c, 0, 64, 56
2, 76816, Control_c, 0, 64, 104
2, 76820, Note_on_c, 0, 73, 0
2, 76824, Control_c, 0, 64, 127
2, 76856, Note_on_c, 0, 65, 52
2, 76932, Note_on_c, 0, 65, 0
2, 76964, Note_on_c, 0, 73, 53
2, 77032, Note_on_c, 0, 73, 0
2, 77068, Note_on_c, 0, 65, 47
2, 77148, Note_on_c, 0, 65, 0
2, 77164, Note_on_c, 0, 73, 58
2, 77244, Note_on_c, 0, 73, 0
2, 77264, Note_on_c, 0, 61, 50
2, 77280, Note_on_c, 0, 65, 52
2, 77372, Note_on_c, 0, 65, 0
2, 77372, Note_on_c, 0, 73, 51
2, 77444, Note_on_c, 0, 73, 0
2, 77476, Note_on_c, 0, 77, 0
2, 77484, Note_on_c, 0, 65, 50
2, 77540, Note_on_c, 0, 61, 0
2, 77568, Note_on_c, 0, 65, 0
2, 77588, Note_on_c, 0, 72, 69
2, 77664, Note_on_c, 0, 72, 0
2, 77680, Note_on_c, 0, 65, 46
2, 77756, Control_c, 0, 64, 72
2, 77768, Control_c, 0, 64, 24
2, 77776, Note_on_c, 0, 65, 0
2, 77776, Note_on_c, 0, 71, 61
2, 77780, Control_c, 0, 64, 0
2, 77792, Control_c, 0, 64, 24
2, 77804, Control_c, 0, 64, 72
2, 77812, Control_c, 0, 64, 127
2, 77824, Note_on_c, 0, 71, 0
2, 77984, Note_on_c, 0, 79, 77
2, 77988, Note_on_c, 0, 64, 49
2, 78004, Note_on_c, 0, 70, 31
2, 78092, Note_on_c, 0, 70, 0
2, 78108, Note_on_c, 0, 64, 0
2, 78120, Note_on_c, 0, 72, 61
2, 78128, Note_on_c, 0, 60, 52
2, 78192, Note_on_c, 0, 72, 0
2, 78204, Note_on_c, 0, 60, 0
2, 78224, Note_on_c, 0, 70, 57
2, 78236, Note_on_c, 0, 64, 44
2, 78296, Note_on_c, 0, 79, 0
2, 78304, Note_on_c, 0, 70, 0
2, 78316, Note_on_c, 0, 64, 0
2, 78332, Note_on_c, 0, 72, 64
2, 78336, Note_on_c, 0, 60, 50
2, 78404, Note_on_c, 0, 72, 0
2, 78424, Note_on_c, 0, 60, 0
2, 78432, Note_on_c, 0, 70, 45
2, 78452, Note_on_c, 0, 64, 51
2, 78516, Note_on_c, 0, 70, 0
2, 78540, Note_on_c, 0, 64, 0
2, 78552, Note_on_c, 0, 80, 77
2, 78560, Note_on_c, 0, 72, 59
2, 78564, Note_on_c, 0, 60, 49
2, 78592, Note_on_c, 0, 72, 0
2, 78656, Note_on_c, 0, 80, 0
2, 78684, Note_on_c, 0, 60, 0
2, 78700, Note_on_c, 0, 68, 58
2, 78700, Note_on_c, 0, 65, 52
2, 78704, Note_on_c, 0, 77, 77
2, 78724, Control_c, 0, 64, 56
2, 78732, Control_c, 0, 64, 0
2, 78772, Note_on_c, 0, 65, 0
2, 78776, Control_c, 0, 64, 40
2, 78780, Note_on_c, 0, 68, 0
2, 78788, Control_c, 0, 64, 127
2, 78832, Note_on_c, 0, 72, 55
2, 78884, Note_on_c, 0, 72, 0
2, 78916, Note_on_c, 0, 68, 32
2, 79012, Note_on_c, 0, 68, 0
2, 79012, Note_on_c, 0, 77, 0
2, 79024, Note_on_c, 0, 72, 62
2, 79084, Note_on_c, 0, 72, 0
2, 79144, Note_on_c, 0, 75, 73
2, 79160, Note_on_c, 0, 67, 47
2, 79192, Note_on_c, 0, 67, 0
2, 79264, Note_on_c, 0, 70, 46
2, 79288, Note_on_c, 0, 75, 0
2, 79328, Note_on_c, 0, 70, 0
2, 79372, Note_on_c, 0, 73, 69
2, 79376, Note_on_c, 0, 65, 51
2, 79440, Note_on_c, 0, 65, 0
2, 79464, Note_on_c, 0, 73, 0
2, 79468, Note_on_c, 0, 68, 57
2, 79536, Note_on_c, 0, 68, 0
2, 79580, Note_on_c, 0, 72, 73
2, 79584, Note_on_c, 0, 63, 38
2, 79676, Note_on_c, 0, 63, 0
2, 79684, Note_on_c, 0, 67, 54
2, 79708, Note_on_c, 0, 72, 0
2, 79732, Note_on_c, 0, 67, 0
2, 79800, Note_on_c, 0, 70, 65
2, 79800, Note_on_c, 0, 61, 54
2, 79840, Control_c, 0, 64, 88
2, 79872, Control_c, 0, 64, 127
2, 79888, Note_on_c, 0, 61, 0
2, 79908, Note_on_c, 0, 65, 54
2, 79952, Note_on_c, 0, 70, 0
2, 79956, Note_on_c, 0, 65, 0
2, 80012, Note_on_c, 0, 68, 69
2, 80028, Note_on_c, 0, 60, 59
2, 80036, Control_c, 0, 64, 104
2, 80044, Control_c, 0, 64, 72
2, 80068, Control_c, 0, 64, 104
2, 80080, Control_c, 0, 64, 127
2, 80096, Note_on_c, 0, 60, 0
2, 80116, Note_on_c, 0, 63, 61
2, 80132, Note_on_c, 0, 68, 0
2, 80192, Note_on_c, 0, 63, 0
2, 80244, Note_on_c, 0, 67, 66
2, 80264, Control_c, 0, 64, 104
2, 80272, Control_c, 0, 64, 40
2, 80284, Control_c, 0, 64, 0
2, 80296, Control_c, 0, 64, 24
2, 80308, Control_c, 0, 64, 56
2, 80316, Control_c, 0, 64, 88
2, 80328, Control_c, 0, 64, 127
2, 80336, Note_on_c, 0, 67, 0
2, 80344, Note_on_c, 0, 61, 58
2, 80416, Note_on_c, 0, 61, 0
2, 80468, Note_on_c, 0, 65, 67
2, 80480, Control_c, 0, 64, 104
2, 80492, Control_c, 0, 64, 24
2, 80500, Control_c, 0, 64, 0
2, 80524, Control_c, 0, 64, 24
2, 80536, Control_c, 0, 64, 56
2, 80544, Control_c, 0, 64, 104
2, 80556, Control_c, 0, 64, 127
2, 80572, Note_on_c, 0, 60, 53
2, 80632, Note_on_c, 0, 60, 0
2, 80632, Note_on_c, 0, 65, 0
2, 80688, Note_on_c, 0, 67, 70
2, 80708, Control_c, 0, 64, 104
2, 80716, Control_c, 0, 64, 0
2, 80772, Control_c, 0, 64, 24
2, 80784, Control_c, 0, 64, 88
2, 80796, Control_c, 0, 64, 127
2, 80800, Note_on_c, 0, 61, 49
2, 80848, Note_on_c, 0, 67, 0
2, 80896, Note_on_c, 0, 61, 0
2, 80924, Note_on_c, 0, 65, 67
2, 80948, Control_c, 0, 64, 88
2, 80960, Control_c, 0, 64, 24
2, 80968, Control_c, 0, 64, 0
2, 80992, Control_c, 0, 64, 40
2, 81000, Control_c, 0, 64, 88
2, 81012, Control_c, 0, 64, 127
2, 81032, Note_on_c, 0, 65, 0
2, 81044, Note_on_c, 0, 60, 59
2, 81124, Note_on_c, 0, 60, 0
2, 81176, Note_on_c, 0, 64, 64
2, 81196, Control_c, 0, 64, 104
2, 81204, Control_c, 0, 64, 24
2, 81220, Control_c, 0, 64, 0
2, 81240, Control_c, 0, 64, 24
2, 81252, Control_c, 0, 64, 72
2, 81260, Control_c, 0, 64, 127
2, 81292, Note_on_c, 0, 64, 0
2, 81304, Note_on_c, 0, 60, 48
2, 81352, Note_on_c, 0, 60, 0
2, 81472, Note_on_c, 0, 65, 66
2, 81488, Control_c, 0, 64, 24
2, 81500, Control_c, 0, 64, 0
2, 81552, Control_c, 0, 64, 56
2, 81564, Control_c, 0, 64, 127
2, 81592, Note_on_c, 0, 65, 0
2, 81604, Note_on_c, 0, 68, 46
2, 81616, Note_on_c, 0, 60, 35
2, 81648, Note_on_c, 0, 60, 0
2, 81660, Note_on_c, 0, 68, 0
2, 81712, Note_on_c, 0, 65, 56
2, 81788, Note_on_c, 0, 65, 0
2, 81820, Note_on_c, 0, 68, 46
2, 81832, Note_on_c, 0, 60, 52
2, 81876, Note_on_c, 0, 68, 0
2, 81884, Note_on_c, 0, 60, 0
2, 81936, Note_on_c, 0, 65, 58
2, 82000, Note_on_c, 0, 65, 0
2, 82036, Note_on_c, 0, 68, 51
2, 82052, Note_on_c, 0, 60, 55
2, 82092, Note_on_c, 0, 60, 0
2, 82100, Note_on_c, 0, 68, 0
2, 82152, Note_on_c, 0, 65, 61
2, 82224, Note_on_c, 0, 65, 0
2, 82252, Note_on_c, 0, 68, 57
2, 82268, Note_on_c, 0, 60, 55
2, 82300, Note_on_c, 0, 60, 0
2, 82316, Note_on_c, 0, 68, 0
2, 82360, Note_on_c, 0, 65, 64
2, 82432, Note_on_c, 0, 65, 0
2, 82456, Note_on_c, 0, 68, 61
2, 82476, Note_on_c, 0, 60, 58
2, 82532, Note_on_c, 0, 60, 0
2, 82532, Note_on_c, 0, 68, 0
2, 82568, Note_on_c, 0, 65, 65
2, 82644, Note_on_c, 0, 65, 0
2, 82668, Note_on_c, 0, 68, 64
2, 82680, Note_on_c, 0, 60, 62
2, 82732, Note_on_c, 0, 60, 0
2, 82736, Note_on_c, 0, 68, 0
2, 82776, Note_on_c, 0, 65, 68
2, 82860, Note_on_c, 0, 65, 0
2, 82876, Note_on_c, 0, 68, 62
2, 82892, Note_on_c, 0, 60, 59
2, 82936, Note_on_c, 0, 60, 0
2, 82944, Note_on_c, 0, 68, 0
2, 82988, Note_on_c, 0, 65, 68
2, 83068, Note_on_c, 0, 65, 0
2, 83088, Note_on_c, 0, 68, 67
2, 83100, Note_on_c, 0, 60, 62
2, 83156, Note_on_c, 0, 60, 0
2, 83160, Note_on_c, 0, 68, 0
2, 83196, Note_on_c, 0, 65, 67
2, 83284, Note_on_c, 0, 65, 0
2, 83300, Note_on_c, 0, 68, 67
2, 83316, Note_on_c, 0, 60, 40
2, 83344, Note_on_c, 0, 60, 0
2, 83376, Note_on_c, 0, 68, 0
2, 83416, Note_on_c, 0, 65, 67
2, 83420, Control_c, 0, 64, 104
2, 83432, Control_c, 0, 64, 24
2, 83444, Control_c, 0, 64, 0
2, 83496, Control_c, 0, 64, 56
2, 83504, Note_on_c, 0, 65, 0
2, 83508, Control_c, 0, 64, 127
2, 83520, Note_on_c, 0, 68, 67
2, 83528, Note_on_c, 0, 61, 58
2, 83592, Note_on_c, 0, 68, 0
2, 83596, Note_on_c, 0, 61, 0
2, 83636, Note_on_c, 0, 65, 70
2, 83716, Note_on_c, 0, 65, 0
2, 83736, Note_on_c, 0, 68, 65
2, 83744, Note_on_c, 0, 61, 54
2, 83808, Note_on_c, 0, 68, 0
2, 83812, Note_on_c, 0, 61, 0
2, 83848, Note_on_c, 0, 65, 72
2, 83936, Note_on_c, 0, 65, 0
2, 83960, Note_on_c, 0, 68, 67
2, 83972, Note_on_c, 0, 61, 51
2, 84032, Note_on_c, 0, 68, 0
2, 84040, Note_on_c, 0, 61, 0
2, 84088, Note_on_c, 0, 65, 74
2, 84168, Note_on_c, 0, 65, 0
2, 84204, Note_on_c, 0, 61, 56
2, 84204, Note_on_c, 0, 68, 64
2, 84272, Note_on_c, 0, 68, 0
2, 84272, Note_on_c, 0, 61, 0
2, 84320, Note_on_c, 0, 65, 67
2, 84392, Note_on_c, 0, 65, 0
2, 84420, Note_on_c, 0, 68, 62
2, 84428, Note_on_c, 0, 61, 48
2, 84488, Note_on_c, 0, 68, 0
2, 84492, Note_on_c, 0, 61, 0
2, 84540, Note_on_c, 0, 65, 64
2, 84616, Note_on_c, 0, 65, 0
2, 84636, Note_on_c, 0, 68, 53
2, 84644, Note_on_c, 0, 61, 42
2, 84696, Note_on_c, 0, 68, 0
2, 84708, Note_on_c, 0, 61, 0
2, 84752, Note_on_c, 0, 65, 61
2, 84788, Control_c, 0, 64, 56
2, 84800, Control_c, 0, 64, 0
2, 84852, Control_c, 0, 64, 56
2, 84864, Control_c, 0, 64, 127
2, 84872, Note_on_c, 0, 67, 51
2, 84876, Note_on_c, 0, 65, 0
2, 84892, Note_on_c, 0, 61, 26
2, 84904, Note_on_c, 0, 67, 0
2, 84924, Note_on_c, 0, 61, 0
2, 84972, Note_on_c, 0, 65, 58
2, 85056, Note_on_c, 0, 65, 0
2, 85084, Note_on_c, 0, 67, 58
2, 85088, Note_on_c, 0, 61, 37
2, 85136, Note_on_c, 0, 61, 0
2, 85148, Note_on_c, 0, 67, 0
2, 85188, Note_on_c, 0, 65, 56
2, 85272, Note_on_c, 0, 65, 0
2, 85292, Note_on_c, 0, 61, 46
2, 85296, Note_on_c, 0, 67, 53
2, 85320, Note_on_c, 0, 61, 0
2, 85332, Note_on_c, 0, 67, 0
2, 85440, Control_c, 0, 64, 104
2, 85444, Note_on_c, 0, 67, 62
2, 85448, Control_c, 0, 64, 40
2, 85460, Control_c, 0, 64, 0
2, 85536, Control_c, 0, 64, 72
2, 85540, Note_on_c, 0, 67, 0
2, 85548, Note_on_c, 0, 70, 59
2, 85548, Control_c, 0, 64, 127
2, 85580, Note_on_c, 0, 65, 31
2, 85604, Note_on_c, 0, 70, 0
2, 85612, Note_on_c, 0, 65, 0
2, 85656, Note_on_c, 0, 67, 64
2, 85732, Note_on_c, 0, 67, 0
2, 85760, Note_on_c, 0, 70, 61
2, 85772, Note_on_c, 0, 65, 51
2, 85804, Note_on_c, 0, 65, 0
2, 85828, Note_on_c, 0, 70, 0
2, 85868, Note_on_c, 0, 67, 66
2, 85944, Note_on_c, 0, 67, 0
2, 85972, Note_on_c, 0, 70, 65
2, 85984, Note_on_c, 0, 65, 54
2, 86016, Note_on_c, 0, 65, 0
2, 86036, Note_on_c, 0, 70, 0
2, 86072, Note_on_c, 0, 67, 68
2, 86152, Note_on_c, 0, 67, 0
2, 86180, Note_on_c, 0, 70, 58
2, 86196, Note_on_c, 0, 65, 52
2, 86228, Note_on_c, 0, 65, 0
2, 86244, Note_on_c, 0, 70, 0
2, 86284, Note_on_c, 0, 67, 61
2, 86356, Note_on_c, 0, 67, 0
2, 86384, Note_on_c, 0, 70, 64
2, 86396, Note_on_c, 0, 65, 53
2, 86428, Note_on_c, 0, 65, 0
2, 86452, Note_on_c, 0, 70, 0
2, 86492, Note_on_c, 0, 67, 67
2, 86560, Note_on_c, 0, 67, 0
2, 86588, Note_on_c, 0, 70, 65
2, 86600, Note_on_c, 0, 65, 60
2, 86656, Note_on_c, 0, 65, 0
2, 86660, Note_on_c, 0, 70, 0
2, 86692, Note_on_c, 0, 67, 70
2, 86772, Note_on_c, 0, 67, 0
2, 86792, Note_on_c, 0, 70, 69
2, 86804, Note_on_c, 0, 65, 63
2, 86856, Note_on_c, 0, 65, 0
2, 86864, Note_on_c, 0, 70, 0
2, 86900, Note_on_c, 0, 67, 73
2, 86972, Note_on_c, 0, 67, 0
2, 86996, Note_on_c, 0, 70, 70
2, 87008, Note_on_c, 0, 65, 63
2, 87064, Note_on_c, 0, 70, 0
2, 87068, Note_on_c, 0, 65, 0
2, 87112, Note_on_c, 0, 67, 69
2, 87136, Note_on_c, 0, 65, 24
2, 87196, Note_on_c, 0, 67, 0
2, 87220, Note_on_c, 0, 70, 73
2, 87252, Note_on_c, 0, 65, 0
2, 87304, Note_on_c, 0, 70, 0
2, 87328, Control_c, 0, 64, 104
2, 87332, Note_on_c, 0, 66, 74
2, 87340, Control_c, 0, 64, 24
2, 87348, Control_c, 0, 64, 0
2, 87404, Control_c, 0, 64, 72
2, 87412, Control_c, 0, 64, 127
2, 87428, Note_on_c, 0, 66, 0
2, 87452, Note_on_c, 0, 70, 73
2, 87456, Note_on_c, 0, 63, 62
2, 87512, Note_on_c, 0, 63, 0
2, 87516, Note_on_c, 0, 70, 0
2, 87556, Note_on_c, 0, 66, 67
2, 87632, Note_on_c, 0, 66, 0
2, 87656, Note_on_c, 0, 70, 69
2, 87660, Note_on_c, 0, 63, 58
2, 87724, Note_on_c, 0, 63, 0
2, 87728, Note_on_c, 0, 70, 0
2, 87756, Note_on_c, 0, 66, 64
2, 87832, Note_on_c, 0, 66, 0
2, 87872, Note_on_c, 0, 70, 69
2, 87876, Note_on_c, 0, 63, 54
2, 87932, Note_on_c, 0, 63, 0
2, 87932, Note_on_c, 0, 60, 82
2, 87936, Note_on_c, 0, 70, 0
2, 87980, Note_on_c, 0, 66, 69
2, 87988, Note_on_c, 0, 60, 87
2, 88004, Note_on_c, 0, 60, 0
2, 88056, Note_on_c, 0, 66, 0
2, 88092, Note_on_c, 0, 70, 65
2, 88092, Note_on_c, 0, 63, 55
2, 88160, Note_on_c, 0, 63, 0
2, 88164, Note_on_c, 0, 70, 0
2, 88208, Note_on_c, 0, 66, 64
2, 88248, Control_c, 0, 64, 104
2, 88260, Control_c, 0, 64, 88
2, 88272, Control_c, 0, 64, 104
2, 88280, Control_c, 0, 64, 127
2, 88284, Note_on_c, 0, 66, 0
2, 88312, Note_on_c, 0, 70, 61
2, 88316, Note_on_c, 0, 63, 50
2, 88372, Note_on_c, 0, 63, 0
2, 88380, Note_on_c, 0, 70, 0
2, 88420, Note_on_c, 0, 66, 58
2, 88500, Note_on_c, 0, 66, 0
2, 88520, Note_on_c, 0, 70, 62
2, 88576, Note_on_c, 0, 60, 0
2, 88580, Note_on_c, 0, 70, 0
2, 88628, Note_on_c, 0, 66, 65
2, 88716, Control_c, 0, 64, 40
2, 88728, Control_c, 0, 64, 0
2, 88736, Note_on_c, 0, 66, 0
2, 88744, Note_on_c, 0, 69, 65
2, 88748, Note_on_c, 0, 63, 42
2, 88748, Control_c, 0, 64, 56
2, 88760, Control_c, 0, 64, 127
2, 88800, Note_on_c, 0, 63, 0
2, 88800, Note_on_c, 0, 69, 0
2, 88852, Note_on_c, 0, 66, 60
2, 88920, Note_on_c, 0, 66, 0
2, 88952, Note_on_c, 0, 69, 67
2, 88960, Note_on_c, 0, 63, 47
2, 89008, Note_on_c, 0, 63, 0
2, 89020, Note_on_c, 0, 69, 0
2, 89068, Note_on_c, 0, 66, 58
2, 89156, Note_on_c, 0, 66, 0
2, 89184, Note_on_c, 0, 69, 58
2, 89212, Note_on_c, 0, 69, 0
2, 89328, Note_on_c, 0, 68, 59
2, 89336, Note_on_c, 0, 60, 47
2, 89400, Control_c, 0, 64, 56
2, 89412, Note_on_c, 0, 60, 0
2, 89412, Control_c, 0, 64, 0
2, 89432, Note_on_c, 0, 68, 0
2, 89444, Note_on_c, 0, 66, 39
2, 89448, Note_on_c, 0, 72, 63
2, 89476, Control_c, 0, 64, 88
2, 89480, Note_on_c, 0, 72, 0
2, 89484, Control_c, 0, 64, 127
2, 89492, Note_on_c, 0, 66, 0
2, 89544, Note_on_c, 0, 68, 61
2, 89548, Note_on_c, 0, 60, 58
2, 89588, Note_on_c, 0, 60, 0
2, 89616, Note_on_c, 0, 68, 0
2, 89656, Note_on_c, 0, 66, 42
2, 89656, Note_on_c, 0, 72, 66
2, 89696, Note_on_c, 0, 66, 0
2, 89704, Note_on_c, 0, 72, 0
2, 89748, Note_on_c, 0, 68, 65
2, 89752, Note_on_c, 0, 60, 58
2, 89800, Note_on_c, 0, 60, 0
2, 89828, Note_on_c, 0, 68, 0
2, 89848, Note_on_c, 0, 72, 78
2, 89856, Note_on_c, 0, 66, 39
2, 89900, Note_on_c, 0, 66, 0
2, 89904, Note_on_c, 0, 72, 0
2, 89964, Note_on_c, 0, 61, 58
2, 89968, Note_on_c, 0, 68, 65
2, 90040, Note_on_c, 0, 61, 0
2, 90040, Control_c, 0, 64, 40
2, 90048, Control_c, 0, 64, 0
2, 90060, Note_on_c, 0, 68, 0
2, 90076, Note_on_c, 0, 73, 70
2, 90080, Note_on_c, 0, 66, 58
2, 90096, Control_c, 0, 64, 40
2, 90104, Control_c, 0, 64, 127
2, 90128, Note_on_c, 0, 66, 0
2, 90136, Note_on_c, 0, 73, 0
2, 90180, Note_on_c, 0, 68, 67
2, 90180, Note_on_c, 0, 61, 60
2, 90236, Note_on_c, 0, 61, 0
2, 90252, Note_on_c, 0, 68, 0
2, 90276, Note_on_c, 0, 73, 71
2, 90284, Note_on_c, 0, 66, 50
2, 90332, Note_on_c, 0, 66, 0
2, 90356, Note_on_c, 0, 73, 0
2, 90372, Note_on_c, 0, 61, 58
2, 90380, Note_on_c, 0, 68, 65
2, 90444, Note_on_c, 0, 61, 0
2, 90456, Note_on_c, 0, 68, 0
2, 90476, Note_on_c, 0, 73, 75
2, 90484, Note_on_c, 0, 66, 53
2, 90516, Note_on_c, 0, 66, 0
2, 90556, Note_on_c, 0, 73, 0
2, 90592, Note_on_c, 0, 68, 67
2, 90592, Note_on_c, 0, 63, 54
2, 90636, Control_c, 0, 64, 56
2, 90648, Note_on_c, 0, 63, 0
2, 90648, Control_c, 0, 64, 0
2, 90680, Note_on_c, 0, 68, 0
2, 90688, Control_c, 0, 64, 24
2, 90700, Note_on_c, 0, 75, 67
2, 90700, Note_on_c, 0, 66, 47
2, 90700, Control_c, 0, 64, 104
2, 90712, Control_c, 0, 64, 127
2, 90748, Note_on_c, 0, 66, 0
2, 90760, Note_on_c, 0, 75, 0
2, 90788, Note_on_c, 0, 63, 50
2, 90796, Note_on_c, 0, 68, 62
2, 90844, Note_on_c, 0, 63, 0
2, 90872, Note_on_c, 0, 68, 0
2, 90896, Note_on_c, 0, 75, 70
2, 90900, Note_on_c, 0, 66, 55
2, 90948, Note_on_c, 0, 66, 0
2, 90964, Note_on_c, 0, 75, 0
2, 90992, Note_on_c, 0, 63, 48
2, 91000, Note_on_c, 0, 68, 61
2, 91048, Note_on_c, 0, 63, 0
2, 91068, Note_on_c, 0, 68, 0
2, 91092, Note_on_c, 0, 75, 69
2, 91096, Note_on_c, 0, 66, 54
2, 91148, Note_on_c, 0, 66, 0
2, 91176, Note_on_c, 0, 75, 0
2, 91208, Note_on_c, 0, 68, 56
2, 91208, Note_on_c, 0, 63, 39
2, 91264, Control_c, 0, 64, 56
2, 91272, Note_on_c, 0, 63, 0
2, 91276, Control_c, 0, 64, 0
2, 91292, Note_on_c, 0, 68, 0
2, 91308, Note_on_c, 0, 75, 65
2, 91308, Note_on_c, 0, 66, 57
2, 91320, Control_c, 0, 64, 56
2, 91328, Control_c, 0, 64, 127
2, 91360, Note_on_c, 0, 66, 0
2, 91376, Note_on_c, 0, 75, 0
2, 91408, Note_on_c, 0, 63, 48
2, 91412, Note_on_c, 0, 68, 57
2, 91468, Note_on_c, 0, 63, 0
2, 91488, Note_on_c, 0, 68, 0
2, 91520, Note_on_c, 0, 75, 62
2, 91524, Note_on_c, 0, 66, 56
2, 91580, Note_on_c, 0, 66, 0
2, 91592, Note_on_c, 0, 75, 0
2, 91616, Note_on_c, 0, 63, 54
2, 91620, Note_on_c, 0, 68, 60
2, 91676, Note_on_c, 0, 63, 0
2, 91708, Note_on_c, 0, 68, 0
2, 91728, Note_on_c, 0, 75, 67
2, 91732, Note_on_c, 0, 66, 57
2, 91784, Note_on_c, 0, 66, 0
2, 91796, Note_on_c, 0, 75, 0
2, 91836, Note_on_c, 0, 68, 55
2, 91836, Note_on_c, 0, 63, 44
2, 91896, Control_c, 0, 64, 40
2, 91904, Note_on_c, 0, 63, 0
2, 91904, Control_c, 0, 64, 0
2, 91924, Note_on_c, 0, 68, 0
2, 91936, Note_on_c, 0, 75, 62
2, 91940, Note_on_c, 0, 66, 52
2, 91956, Control_c, 0, 64, 40
2, 91972, Control_c, 0, 64, 127
2, 91988, Note_on_c, 0, 66, 0
2, 92000, Note_on_c, 0, 75, 0
2, 92032, Note_on_c, 0, 63, 44
2, 92036, Note_on_c, 0, 68, 58
2, 92088, Note_on_c, 0, 63, 0
2, 92108, Note_on_c, 0, 68, 0
2, 92128, Note_on_c, 0, 75, 68
2, 92132, Note_on_c, 0, 66, 57
2, 92188, Note_on_c, 0, 66, 0
2, 92212, Note_on_c, 0, 75, 0
2, 92232, Note_on_c, 0, 63, 43
2, 92244, Note_on_c, 0, 68, 54
2, 92284, Note_on_c, 0, 63, 0
2, 92304, Note_on_c, 0, 68, 0
2, 92340, Note_on_c, 0, 75, 60
2, 92344, Note_on_c, 0, 66, 50
2, 92388, Note_on_c, 0, 66, 0
2, 92400, Note_on_c, 0, 75, 0
2, 92436, Note_on_c, 0, 63, 38
2, 92444, Note_on_c, 0, 68, 50
2, 92484, Note_on_c, 0, 63, 0
2, 92504, Note_on_c, 0, 68, 0
2, 92536, Note_on_c, 0, 75, 62
2, 92544, Note_on_c, 0, 66, 46
2, 92588, Note_on_c, 0, 66, 0
2, 92604, Note_on_c, 0, 75, 0
2, 92640, Note_on_c, 0, 63, 42
2, 92648, Note_on_c, 0, 68, 55
2, 92684, Note_on_c, 0, 63, 0
2, 92716, Note_on_c, 0, 68, 0
2, 92752, Note_on_c, 0, 75, 55
2, 92756, Note_on_c, 0, 66, 50
2, 92796, Note_on_c, 0, 63, 22
2, 92808, Note_on_c, 0, 75, 0
2, 92828, Note_on_c, 0, 68, 44
2, 92832, Note_on_c, 0, 66, 0
2, 92864, Note_on_c, 0, 63, 0
2, 92908, Note_on_c, 0, 75, 59
2, 92916, Note_on_c, 0, 68, 0
2, 92980, Note_on_c, 0, 75, 0
2, 93132, Control_c, 0, 64, 88
2, 93144, Control_c, 0, 64, 0
2, 93152, Note_on_c, 0, 68, 61
2, 93160, Note_on_c, 0, 74, 68
2, 93196, Control_c, 0, 64, 24
2, 93204, Note_on_c, 0, 74, 0
2, 93204, Control_c, 0, 64, 88
2, 93216, Note_on_c, 0, 68, 0
2, 93220, Control_c, 0, 64, 127
2, 93260, Note_on_c, 0, 70, 70
2, 93260, Note_on_c, 0, 62, 54
2, 93288, Note_on_c, 0, 62, 0
2, 93328, Note_on_c, 0, 70, 0
2, 93356, Note_on_c, 0, 68, 58
2, 93364, Note_on_c, 0, 74, 68
2, 93412, Note_on_c, 0, 74, 0
2, 93420, Note_on_c, 0, 68, 0
2, 93452, Note_on_c, 0, 70, 71
2, 93460, Note_on_c, 0, 62, 52
2, 93512, Note_on_c, 0, 62, 0
2, 93544, Note_on_c, 0, 70, 0
2, 93556, Note_on_c, 0, 74, 73
2, 93556, Note_on_c, 0, 68, 54
2, 93608, Note_on_c, 0, 74, 0
2, 93624, Note_on_c, 0, 68, 0
2, 93668, Note_on_c, 0, 70, 64
2, 93668, Note_on_c, 0, 63, 53
2, 93724, Note_on_c, 0, 63, 0
2, 93724, Control_c, 0, 64, 104
2, 93740, Control_c, 0, 64, 40
2, 93748, Note_on_c, 0, 70, 0
2, 93748, Control_c, 0, 64, 0
2, 93764, Note_on_c, 0, 68, 62
2, 93772, Note_on_c, 0, 75, 70
2, 93772, Control_c, 0, 64, 56
2, 93780, Control_c, 0, 64, 104
2, 93792, Control_c, 0, 64, 127
2, 93824, Note_on_c, 0, 68, 0
2, 93836, Note_on_c, 0, 75, 0
2, 93864, Note_on_c, 0, 63, 54
2, 93864, Note_on_c, 0, 70, 64
2, 93920, Note_on_c, 0, 63, 0
2, 93932, Note_on_c, 0, 70, 0
2, 93960, Note_on_c, 0, 68, 56
2, 93968, Note_on_c, 0, 75, 73
2, 94020, Note_on_c, 0, 68, 0
2, 94032, Note_on_c, 0, 75, 0
2, 94060, Note_on_c, 0, 63, 60
2, 94064, Note_on_c, 0, 70, 70
2, 94120, Note_on_c, 0, 63, 0
2, 94144, Note_on_c, 0, 70, 0
2, 94152, Note_on_c, 0, 68, 53
2, 94160, Note_on_c, 0, 75, 75
2, 94200, Note_on_c, 0, 68, 0
2, 94228, Note_on_c, 0, 75, 0
2, 94256, Note_on_c, 0, 70, 75
2, 94260, Note_on_c, 0, 65, 62
2, 94304, Control_c, 0, 64, 56
2, 94312, Control_c, 0, 64, 0
2, 94316, Note_on_c, 0, 65, 0
2, 94348, Note_on_c, 0, 70, 0
2, 94364, Note_on_c, 0, 68, 50
2, 94364, Note_on_c, 0, 77, 68
2, 94368, Control_c, 0, 64, 72
2, 94380, Control_c, 0, 64, 127
2, 94408, Note_on_c, 0, 77, 0
2, 94408, Note_on_c, 0, 68, 0
2, 94456, Note_on_c, 0, 65, 62
2, 94456, Note_on_c, 0, 70, 73
2, 94504, Note_on_c, 0, 65, 0
2, 94528, Note_on_c, 0, 70, 0
2, 94548, Note_on_c, 0, 68, 62
2, 94552, Note_on_c, 0, 77, 77
2, 94604, Note_on_c, 0, 68, 0
2, 94616, Note_on_c, 0, 77, 0
2, 94652, Note_on_c, 0, 70, 71
2, 94656, Note_on_c, 0, 65, 55
2, 94716, Note_on_c, 0, 65, 0
2, 94732, Note_on_c, 0, 70, 0
2, 94744, Note_on_c, 0, 68, 45
2, 94752, Note_on_c, 0, 77, 77
2, 94812, Note_on_c, 0, 68, 0
2, 94820, Note_on_c, 0, 77, 0
2, 94860, Note_on_c, 0, 70, 73
2, 94864, Note_on_c, 0, 65, 60
2, 94928, Note_on_c, 0, 65, 0
2, 94932, Control_c, 0, 64, 72
2, 94944, Control_c, 0, 64, 0
2, 94948, Note_on_c, 0, 70, 0
2, 94960, Note_on_c, 0, 68, 43
2, 94972, Note_on_c, 0, 77, 70
2, 94988, Control_c, 0, 64, 40
2, 94996, Control_c, 0, 64, 104
2, 95008, Control_c, 0, 64, 127
2, 95016, Note_on_c, 0, 68, 0
2, 95024, Note_on_c, 0, 77, 0
2, 95064, Note_on_c, 0, 65, 59
2, 95068, Note_on_c, 0, 70, 69
2, 95120, Note_on_c, 0, 65, 0
2, 95140, Note_on_c, 0, 70, 0
2, 95160, Note_on_c, 0, 68, 56
2, 95168, Note_on_c, 0, 77, 73
2, 95220, Note_on_c, 0, 68, 0
2, 95228, Note_on_c, 0, 77, 0
2, 95268, Note_on_c, 0, 65, 63
2, 95268, Note_on_c, 0, 70, 73
2, 95332, Note_on_c, 0, 65, 0
2, 95360, Note_on_c, 0, 70, 0
2, 95364, Note_on_c, 0, 68, 44
2, 95376, Note_on_c, 0, 77, 76
2, 95428, Note_on_c, 0, 68, 0
2, 95440, Note_on_c, 0, 77, 0
2, 95488, Note_on_c, 0, 70, 70
2, 95492, Note_on_c, 0, 65, 60
2, 95540, Control_c, 0, 64, 56
2, 95552, Control_c, 0, 64, 0
2, 95564, Note_on_c, 0, 65, 0
2, 95588, Note_on_c, 0, 70, 0
2, 95592, Note_on_c, 0, 68, 47
2, 95600, Note_on_c, 0, 77, 65
2, 95604, Control_c, 0, 64, 40
2, 95616, Control_c, 0, 64, 127
2, 95652, Note_on_c, 0, 77, 0
2, 95652, Note_on_c, 0, 68, 0
2, 95704, Note_on_c, 0, 70, 62
2, 95704, Note_on_c, 0, 65, 52
2, 95752, Note_on_c, 0, 65, 0
2, 95772, Note_on_c, 0, 70, 0
2, 95796, Note_on_c, 0, 68, 44
2, 95812, Note_on_c, 0, 77, 64
2, 95848, Note_on_c, 0, 68, 0
2, 95860, Note_on_c, 0, 77, 0
2, 95912, Note_on_c, 0, 70, 63
2, 95912, Note_on_c, 0, 65, 49
2, 95980, Note_on_c, 0, 65, 0
2, 95980, Note_on_c, 0, 70, 0
2, 96012, Note_on_c, 0, 68, 50
2, 96016, Note_on_c, 0, 77, 66
2, 96028, Control_c, 0, 64, 56
2, 96040, Control_c, 0, 64, 24
2, 96072, Note_on_c, 0, 68, 0
2, 96072, Control_c, 0, 64, 88
2, 96080, Control_c, 0, 64, 127
2, 96084, Note_on_c, 0, 77, 0
2, 96120, Note_on_c, 0, 70, 59
2, 96124, Note_on_c, 0, 65, 45
2, 96164, Note_on_c, 0, 65, 0
2, 96192, Note_on_c, 0, 70, 0
2, 96224, Note_on_c, 0, 68, 40
2, 96224, Note_on_c, 0, 77, 64
2, 96272, Note_on_c, 0, 68, 0
2, 96284, Note_on_c, 0, 77, 0
2, 96332, Note_on_c, 0, 65, 42
2, 96332, Note_on_c, 0, 70, 56
2, 96372, Note_on_c, 0, 65, 0
2, 96396, Note_on_c, 0, 70, 0
2, 96424, Note_on_c, 0, 68, 36
2, 96428, Note_on_c, 0, 77, 64
2, 96476, Note_on_c, 0, 68, 0
2, 96488, Note_on_c, 0, 77, 0
2, 96532, Note_on_c, 0, 65, 51
2, 96548, Note_on_c, 0, 70, 51
2, 96600, Note_on_c, 0, 65, 0
2, 96628, Note_on_c, 0, 70, 0
2, 96652, Note_on_c, 0, 77, 68
2, 96728, Note_on_c, 0, 77, 0
2, 96744, Control_c, 0, 64, 56
2, 96756, Control_c, 0, 64, 0
2, 96796, Control_c, 0, 64, 56
2, 96808, Control_c, 0, 64, 127
2, 96868, Note_on_c, 0, 77, 76
2, 96880, Note_on_c, 0, 68, 44
2, 96884, Note_on_c, 0, 62, 55
2, 96928, Note_on_c, 0, 68, 0
2, 96952, Note_on_c, 0, 62, 0
2, 97004, Note_on_c, 0, 70, 43
2, 97064, Note_on_c, 0, 70, 0
2, 97104, Note_on_c, 0, 68, 43
2, 97104, Note_on_c, 0, 62, 38
2, 97148, Note_on_c, 0, 62, 0
2, 97176, Note_on_c, 0, 68, 0
2, 97208, Note_on_c, 0, 70, 47
2, 97216, Note_on_c, 0, 77, 0
2, 97288, Note_on_c, 0, 70, 0
2, 97308, Note_on_c, 0, 68, 44
2, 97316, Note_on_c, 0, 62, 41
2, 97372, Note_on_c, 0, 68, 0
2, 97376, Note_on_c, 0, 62, 0
2, 97412, Note_on_c, 0, 78, 73
2, 97424, Note_on_c, 0, 70, 60
2, 97480, Note_on_c, 0, 70, 0
2, 97500, Note_on_c, 0, 78, 0
2, 97540, Note_on_c, 0, 75, 75
2, 97552, Note_on_c, 0, 63, 51
2, 97552, Note_on_c, 0, 66, 48
2, 97588, Control_c, 0, 64, 88
2, 97600, Control_c, 0, 64, 0
2, 97612, Note_on_c, 0, 66, 0
2, 97664, Note_on_c, 0, 70, 45
2, 97664, Control_c, 0, 64, 56
2, 97672, Note_on_c, 0, 63, 0
2, 97676, Control_c, 0, 64, 127
2, 97724, Note_on_c, 0, 70, 0
2, 97760, Note_on_c, 0, 66, 44
2, 97772, Note_on_c, 0, 63, 45
2, 97828, Note_on_c, 0, 66, 0
2, 97844, Note_on_c, 0, 75, 0
2, 97868, Note_on_c, 0, 63, 0
2, 97868, Note_on_c, 0, 70, 52
2, 97940, Note_on_c, 0, 70, 0
2, 97964, Note_on_c, 0, 63, 34
2, 97972, Note_on_c, 0, 66, 40
2, 98040, Note_on_c, 0, 66, 0
2, 98076, Note_on_c, 0, 63, 0
2, 98084, Note_on_c, 0, 70, 42
2, 98208, Control_c, 0, 64, 56
2, 98220, Control_c, 0, 64, 0
2, 98232, Note_on_c, 0, 70, 0
2, 98272, Note_on_c, 0, 77, 73
2, 98272, Control_c, 0, 64, 40
2, 98276, Note_on_c, 0, 68, 32
2, 98284, Control_c, 0, 64, 127
2, 98300, Note_on_c, 0, 62, 46
2, 98324, Note_on_c, 0, 68, 0
2, 98340, Note_on_c, 0, 62, 0
2, 98384, Note_on_c, 0, 70, 47
2, 98460, Note_on_c, 0, 70, 0
2, 98492, Note_on_c, 0, 68, 35
2, 98500, Note_on_c, 0, 62, 33
2, 98544, Note_on_c, 0, 62, 0
2, 98552, Note_on_c, 0, 68, 0
2, 98596, Note_on_c, 0, 77, 0
2, 98600, Note_on_c, 0, 70, 44
2, 98668, Note_on_c, 0, 70, 0
2, 98692, Note_on_c, 0, 62, 43
2, 98704, Note_on_c, 0, 68, 31
2, 98760, Note_on_c, 0, 68, 0
2, 98764, Note_on_c, 0, 62, 0
2, 98796, Note_on_c, 0, 78, 69
2, 98812, Note_on_c, 0, 70, 55
2, 98860, Note_on_c, 0, 70, 0
2, 98868, Note_on_c, 0, 78, 0
2, 98924, Note_on_c, 0, 75, 65
2, 98936, Note_on_c, 0, 66, 35
2, 98944, Note_on_c, 0, 63, 39
2, 98956, Control_c, 0, 64, 104
2, 98968, Control_c, 0, 64, 40
2, 98980, Control_c, 0, 64, 0
2, 98996, Note_on_c, 0, 66, 0
2, 99040, Note_on_c, 0, 63, 0
2, 99044, Note_on_c, 0, 70, 44
2, 99064, Control_c, 0, 64, 104
2, 99076, Control_c, 0, 64, 127
2, 99096, Note_on_c, 0, 70, 0
2, 99144, Note_on_c, 0, 66, 37
2, 99160, Note_on_c, 0, 63, 39
2, 99212, Note_on_c, 0, 66, 0
2, 99232, Note_on_c, 0, 75, 0
2, 99256, Note_on_c, 0, 63, 0
2, 99256, Note_on_c, 0, 70, 53
2, 99320, Note_on_c, 0, 70, 0
2, 99368, Note_on_c, 0, 66, 30
2, 99376, Note_on_c, 0, 63, 34
2, 99448, Note_on_c, 0, 66, 0
2, 99460, Note_on_c, 0, 63, 0
2, 99480, Note_on_c, 0, 70, 52
2, 99536, Note_on_c, 0, 70, 0
2, 99584, Control_c, 0, 64, 104
2, 99596, Control_c, 0, 64, 24
2, 99608, Control_c, 0, 64, 0
2, 99652, Control_c, 0, 64, 56
2, 99660, Control_c, 0, 64, 127
2, 99684, Note_on_c, 0, 75, 79
2, 99696, Note_on_c, 0, 60, 47
2, 99708, Note_on_c, 0, 66, 39
2, 99744, Note_on_c, 0, 66, 0
2, 99744, Note_on_c, 0, 60, 0
2, 99812, Note_on_c, 0, 68, 46
2, 99816, Note_on_c, 0, 75, 0
2, 99896, Note_on_c, 0, 68, 0
2, 99932, Note_on_c, 0, 66, 42
2, 99936, Note_on_c, 0, 60, 41
2, 99988, Note_on_c, 0, 60, 0
2, 100000, Note_on_c, 0, 66, 0
2, 100052, Note_on_c, 0, 68, 43
2, 100116, Note_on_c, 0, 68, 0
2, 100164, Note_on_c, 0, 66, 36
2, 100168, Note_on_c, 0, 60, 38
2, 100228, Note_on_c, 0, 66, 0
2, 100240, Note_on_c, 0, 60, 0
2, 100288, Note_on_c, 0, 68, 52
2, 100288, Note_on_c, 0, 77, 75
2, 100344, Note_on_c, 0, 77, 0
2, 100364, Note_on_c, 0, 68, 0
2, 100452, Note_on_c, 0, 73, 70
2, 100464, Note_on_c, 0, 61, 33
2, 100464, Note_on_c, 0, 65, 47
2, 100488, Control_c, 0, 64, 104
2, 100496, Control_c, 0, 64, 24
2, 100508, Control_c, 0, 64, 0
2, 100536, Note_on_c, 0, 65, 0
2, 100592, Note_on_c, 0, 68, 31
2, 100596, Note_on_c, 0, 61, 0
2, 100596, Control_c, 0, 64, 72
2, 100604, Control_c, 0, 64, 127
2, 100664, Note_on_c, 0, 68, 0
2, 100704, Note_on_c, 0, 65, 39
2, 100704, Note_on_c, 0, 61, 29
2, 100744, Note_on_c, 0, 65, 0
2, 100784, Note_on_c, 0, 61, 0
2, 100800, Note_on_c, 0, 68, 44
2, 100872, Note_on_c, 0, 68, 0
2, 100920, Note_on_c, 0, 61, 33
2, 100932, Note_on_c, 0, 65, 37
2, 100976, Note_on_c, 0, 65, 0
2, 101000, Note_on_c, 0, 61, 0
2, 101028, Note_on_c, 0, 68, 36
2, 101104, Note_on_c, 0, 68, 0
2, 101148, Note_on_c, 0, 61, 33
2, 101164, Note_on_c, 0, 65, 35
2, 101204, Note_on_c, 0, 65, 0
2, 101220, Note_on_c, 0, 61, 0
2, 101260, Note_on_c, 0, 68, 37
2, 101336, Note_on_c, 0, 68, 0
2, 101388, Note_on_c, 0, 65, 41
2, 101392, Note_on_c, 0, 61, 30
2, 101428, Note_on_c, 0, 65, 0
2, 101464, Note_on_c, 0, 61, 0
2, 101500, Note_on_c, 0, 68, 38
2, 101576, Note_on_c, 0, 68, 0
2, 101632, Note_on_c, 0, 65, 35
2, 101632, Note_on_c, 0, 61, 32
2, 101688, Note_on_c, 0, 61, 0
2, 101712, Note_on_c, 0, 65, 0
2, 101736, Note_on_c, 0, 68, 39
2, 101804, Note_on_c, 0, 68, 0
2, 101856, Note_on_c, 0, 73, 0
2, 101908, Control_c, 0, 64, 40
2, 101916, Control_c, 0, 64, 0
2, 101972, Control_c, 0, 64, 88
2, 101984, Note_on_c, 0, 72, 73
2, 101984, Note_on_c, 0, 63, 44
2, 101984, Control_c, 0, 64, 127
2, 102068, Note_on_c, 0, 63, 0
2, 102140, Note_on_c, 0, 65, 26
2, 102152, Note_on_c, 0, 72, 0
2, 102184, Note_on_c, 0, 65, 0
2, 102236, Note_on_c, 0, 63, 42
2, 102316, Note_on_c, 0, 63, 0
2, 102376, Note_on_c, 0, 65, 25
2, 102428, Note_on_c, 0, 65, 0
2, 102480, Note_on_c, 0, 63, 37
2, 102564, Note_on_c, 0, 63, 0
2, 102628, Note_on_c, 0, 73, 65
2, 102644, Note_on_c, 0, 65, 47
2, 102704, Note_on_c, 0, 65, 0
2, 102728, Note_on_c, 0, 73, 0
2, 102808, Note_on_c, 0, 70, 61
2, 102812, Note_on_c, 0, 61, 38
2, 102852, Control_c, 0, 64, 104
2, 102864, Control_c, 0, 64, 0
2, 102924, Note_on_c, 0, 61, 0
2, 102948, Control_c, 0, 64, 88
2, 102960, Control_c, 0, 64, 127
2, 102976, Note_on_c, 0, 65, 25
2, 103016, Note_on_c, 0, 65, 0
2, 103076, Note_on_c, 0, 61, 34
2, 103148, Note_on_c, 0, 61, 0
2, 103196, Note_on_c, 0, 65, 39
2, 103260, Note_on_c, 0, 65, 0
2, 103308, Note_on_c, 0, 61, 32
2, 103384, Note_on_c, 0, 61, 0
2, 103440, Note_on_c, 0, 65, 38
2, 103496, Note_on_c, 0, 65, 0
2, 103556, Note_on_c, 0, 61, 25
2, 103640, Note_on_c, 0, 61, 0
2, 103688, Note_on_c, 0, 65, 34
2, 103732, Note_on_c, 0, 65, 0
2, 103812, Note_on_c, 0, 61, 34
2, 103904, Note_on_c, 0, 61, 0
2, 103960, Note_on_c, 0, 65, 30
2, 104016, Note_on_c, 0, 65, 0
2, 104072, Note_on_c, 0, 61, 27
2, 104164, Note_on_c, 0, 61, 0
2, 104176, Note_on_c, 0, 70, 0
2, 104376, Note_on_c, 0, 69, 59
2, 104388, Note_on_c, 0, 61, 22
2, 104444, Control_c, 0, 64, 88
2, 104456, Control_c, 0, 64, 0
2, 104504, Note_on_c, 0, 61, 0
2, 104520, Control_c, 0, 64, 88
2, 104532, Control_c, 0, 64, 127
2, 104548, Note_on_c, 0, 65, 24
2, 104608, Note_on_c, 0, 65, 0
2, 104668, Note_on_c, 0, 61, 26
2, 104756, Note_on_c, 0, 61, 0
2, 104784, Note_on_c, 0, 69, 0
2, 104808, Note_on_c, 0, 65, 35
2, 104888, Note_on_c, 0, 65, 0
2, 104984, Note_on_c, 0, 67, 52
2, 104988, Note_on_c, 0, 61, 20
2, 105052, Control_c, 0, 64, 56
2, 105064, Control_c, 0, 64, 0
2, 105128, Control_c, 0, 64, 72
2, 105140, Control_c, 0, 64, 127
2, 105160, Note_on_c, 0, 67, 0
2, 105168, Note_on_c, 0, 61, 0
2, 105180, Note_on_c, 0, 65, 28
2, 105216, Note_on_c, 0, 65, 0
2, 105396, Note_on_c, 0, 60, 37
2, 105440, Control_c, 0, 64, 40
2, 105456, Control_c, 0, 64, 0
2, 105480, Note_on_c, 0, 65, 38
2, 105496, Control_c, 0, 64, 40
2, 105508, Control_c, 0, 64, 127
2, 105524, Note_on_c, 0, 60, 0
2, 105580, Note_on_c, 0, 65, 0
2, 105580, Note_on_c, 0, 69, 48
2, 105656, Note_on_c, 0, 69, 0
2, 105664, Note_on_c, 0, 72, 42
2, 105688, Note_on_c, 0, 72, 0
2, 105828, Note_on_c, 0, 77, 71
2, 105876, Control_c, 0, 64, 56
2, 105936, Control_c, 0, 64, 72
2, 105984, Note_on_c, 0, 77, 0
2, 106004, Control_c, 0, 64, 88
2, 106032, Control_c, 0, 64, 104
2, 106048, Control_c, 0, 64, 127
2, 106128, Note_on_c, 0, 60, 46
2, 106172, Note_on_c, 0, 60, 0
2, 106384, Note_on_c, 0, 60, 45
2, 106564, Note_on_c, 0, 60, 0
2, 106640, Note_on_c, 0, 65, 47
2, 106852, Note_on_c, 0, 60, 45
2, 106920, Note_on_c, 0, 60, 0
2, 107028, Note_on_c, 0, 65, 0
2, 107080, Note_on_c, 0, 60, 43
2, 107276, Note_on_c, 0, 60, 0
2, 107324, Note_on_c, 0, 76, 64
2, 107344, Note_on_c, 0, 64, 44
2, 107560, Note_on_c, 0, 60, 39
2, 107636, Note_on_c, 0, 60, 0
2, 107732, Note_on_c, 0, 64, 0
2, 107800, Note_on_c, 0, 60, 40
2, 107924, Note_on_c, 0, 60, 0
2, 108032, Note_on_c, 0, 74, 67
2, 108032, Note_on_c, 0, 62, 40
2, 108036, Note_on_c, 0, 76, 0
2, 108108, Control_c, 0, 64, 104
2, 108120, Control_c, 0, 64, 56
2, 108136, Control_c, 0, 64, 0
2, 108232, Control_c, 0, 64, 72
2, 108248, Control_c, 0, 64, 127
2, 108264, Note_on_c, 0, 62, 0
2, 108736, Note_on_c, 0, 76, 67
2, 108764, Note_on_c, 0, 74, 0
2, 108768, Note_on_c, 0, 64, 28
2, 108816, Control_c, 0, 64, 104
2, 108832, Control_c, 0, 64, 56
2, 108844, Control_c, 0, 64, 0
2, 108928, Control_c, 0, 64, 24
2, 108944, Control_c, 0, 64, 88
2, 108956, Control_c, 0, 64, 127
2, 109140, Note_on_c, 0, 64, 0
2, 109408, Note_on_c, 0, 72, 63
2, 109420, Note_on_c, 0, 76, 0
2, 109432, Note_on_c, 0, 60, 33
2, 109652, Note_on_c, 0, 60, 0
2, 110076, Note_on_c, 0, 72, 0
2, 110080, Note_on_c, 0, 74, 72
2, 110080, Note_on_c, 0, 62, 39
2, 110168, Control_c, 0, 64, 72
2, 110180, Control_c, 0, 64, 0
2, 110292, Control_c, 0, 64, 24
2, 110300, Note_on_c, 0, 62, 0
2, 110308, Control_c, 0, 64, 88
2, 110320, Control_c, 0, 64, 127
2, 110632, Note_on_c, 0, 74, 0
2, 110632, Note_on_c, 0, 76, 72
2, 110736, Note_on_c, 0, 76, 0
2, 110760, Note_on_c, 0, 77, 74
2, 110776, Note_on_c, 0, 64, 34
2, 110832, Control_c, 0, 64, 88
2, 110848, Control_c, 0, 64, 24
2, 110860, Control_c, 0, 64, 0
2, 110960, Control_c, 0, 64, 72
2, 110976, Control_c, 0, 64, 127
2, 111156, Note_on_c, 0, 64, 0
2, 111452, Note_on_c, 0, 79, 73
2, 111460, Note_on_c, 0, 60, 36
2, 111484, Note_on_c, 0, 77, 0
2, 111852, Note_on_c, 0, 60, 0
2, 112176, Note_on_c, 0, 81, 70
2, 112184, Note_on_c, 0, 79, 0
2, 112184, Note_on_c, 0, 60, 31
2, 112240, Control_c, 0, 64, 104
2, 112252, Control_c, 0, 64, 40
2, 112268, Control_c, 0, 64, 0
2, 112380, Control_c, 0, 64, 72
2, 112396, Control_c, 0, 64, 127
2, 112448, Note_on_c, 0, 60, 0
2, 112872, Note_on_c, 0, 61, 49
2, 112964, Control_c, 0, 64, 72
2, 112976, Control_c, 0, 64, 0
2, 113060, Control_c, 0, 64, 56
2, 113076, Control_c, 0, 64, 127
2, 113308, Note_on_c, 0, 61, 0
2, 113572, Note_on_c, 0, 62, 51
2, 113672, Control_c, 0, 64, 104
2, 113688, Control_c, 0, 64, 56
2, 113700, Control_c, 0, 64, 24
2, 113716, Control_c, 0, 64, 0
2, 113804, Control_c, 0, 64, 40
2, 113816, Control_c, 0, 64, 104
2, 113832, Control_c, 0, 64, 127
2, 114008, Note_on_c, 0, 62, 0
2, 114340, Note_on_c, 0, 81, 0
2, 114392, Note_on_c, 0, 79, 66
2, 114500, Control_c, 0, 64, 104
2, 114512, Control_c, 0, 64, 56
2, 114528, Control_c, 0, 64, 0
2, 114612, Control_c, 0, 64, 56
2, 114624, Control_c, 0, 64, 104
2, 114640, Control_c, 0, 64, 127
2, 115120, Note_on_c, 0, 81, 73
2, 115128, Note_on_c, 0, 79, 0
2, 115208, Control_c, 0, 64, 72
2, 115224, Control_c, 0, 64, 0
2, 115320, Control_c, 0, 64, 24
2, 115336, Control_c, 0, 64, 88
2, 115348, Control_c, 0, 64, 127
2, 115708, Note_on_c, 0, 81, 0
2, 115712, Note_on_c, 0, 79, 70
2, 115824, Note_on_c, 0, 79, 0
2, 115944, Note_on_c, 0, 79, 63
2, 116016, Control_c, 0, 64, 72
2, 116032, Control_c, 0, 64, 24
2, 116044, Control_c, 0, 64, 0
2, 116128, Control_c, 0, 64, 40
2, 116144, Control_c, 0, 64, 127
2, 116192, Note_on_c, 0, 79, 0
2, 116204, Note_on_c, 0, 77, 70
2, 116432, Note_on_c, 0, 76, 70
2, 116436, Note_on_c, 0, 77, 0
2, 116680, Note_on_c, 0, 76, 0
2, 116684, Note_on_c, 0, 77, 71
2, 116728, Control_c, 0, 64, 72
2, 116740, Control_c, 0, 64, 24
2, 116756, Control_c, 0, 64, 0
2, 116856, Control_c, 0, 64, 72
2, 116872, Control_c, 0, 64, 127
2, 117424, Control_c, 0, 64, 56
2, 117436, Control_c, 0, 64, 0
2, 117524, Control_c, 0, 64, 72
2, 117540, Control_c, 0, 64, 127
2, 117848, Note_on_c, 0, 77, 0
2, 117848, Note_on_c, 0, 76, 68
2, 117928, Note_on_c, 0, 76, 0
2, 118140, Note_on_c, 0, 74, 62
2, 118160, Control_c, 0, 64, 72
2, 118176, Control_c, 0, 64, 0
2, 118264, Control_c, 0, 64, 40
2, 118276, Control_c, 0, 64, 104
2, 118292, Control_c, 0, 64, 127
2, 118304, Note_on_c, 0, 74, 0
2, 118328, Note_on_c, 0, 76, 67
2, 118440, Note_on_c, 0, 76, 0
2, 118468, Note_on_c, 0, 74, 67
2, 118552, Note_on_c, 0, 74, 0
2, 118588, Note_on_c, 0, 73, 63
2, 118676, Note_on_c, 0, 73, 0
2, 118704, Note_on_c, 0, 74, 68
2, 118800, Note_on_c, 0, 74, 0
2, 118836, Note_on_c, 0, 76, 70
2, 118940, Note_on_c, 0, 76, 0
2, 118964, Note_on_c, 0, 77, 72
2, 119080, Note_on_c, 0, 77, 0
2, 119128, Note_on_c, 0, 76, 72
2, 119184, Control_c, 0, 64, 104
2, 119200, Control_c, 0, 64, 40
2, 119216, Control_c, 0, 64, 0
2, 119368, Control_c, 0, 64, 56
2, 119384, Control_c, 0, 64, 104
2, 119396, Control_c, 0, 64, 127
2, 119772, Note_on_c, 0, 76, 0
2, 119952, Control_c, 0, 64, 104
2, 119968, Control_c, 0, 64, 40
2, 119980, Control_c, 0, 64, 0
2, 120044, Note_on_c, 0, 76, 70
2, 120052, Control_c, 0, 64, 72
2, 120064, Control_c, 0, 64, 127
2, 120384, Note_on_c, 0, 76, 0
2, 120564, Control_c, 0, 64, 56
2, 120576, Control_c, 0, 64, 0
2, 120636, Control_c, 0, 64, 40
2, 120648, Control_c, 0, 64, 127
2, 121016, Note_on_c, 0, 74, 60
2, 121224, Note_on_c, 0, 74, 0
2, 121284, Note_on_c, 0, 69, 63
2, 121512, Control_c, 0, 64, 56
2, 121528, Control_c, 0, 64, 0
2, 121556, Note_on_c, 0, 69, 0
2, 121628, Control_c, 0, 64, 56
2, 121636, Note_on_c, 0, 71, 62
2, 121644, Control_c, 0, 64, 127
2, 122368, Note_on_c, 0, 64, 36
2, 122408, Control_c, 0, 64, 104
2, 122424, Control_c, 0, 64, 40
2, 122436, Control_c, 0, 64, 0
2, 122492, Control_c, 0, 64, 72
2, 122508, Control_c, 0, 64, 127
2, 122604, Note_on_c, 0, 64, 0
2, 123152, Note_on_c, 0, 71, 0
2, 123176, Note_on_c, 0, 72, 66
2, 123196, Note_on_c, 0, 64, 39
2, 123260, Control_c, 0, 64, 88
2, 123272, Control_c, 0, 64, 24
2, 123288, Control_c, 0, 64, 0
2, 123376, Control_c, 0, 64, 72
2, 123388, Control_c, 0, 64, 127
2, 123500, Note_on_c, 0, 60, 49
2, 123520, Note_on_c, 0, 64, 0
2, 123616, Note_on_c, 0, 60, 0
2, 123616, Note_on_c, 0, 72, 0
2, 123644, Note_on_c, 0, 71, 60
2, 123716, Note_on_c, 0, 71, 0
2, 123760, Note_on_c, 0, 72, 66
2, 123808, Note_on_c, 0, 72, 0
2, 123892, Note_on_c, 0, 72, 53
2, 123980, Note_on_c, 0, 72, 0
2, 123984, Note_on_c, 0, 60, 40
2, 123992, Note_on_c, 0, 76, 62
2, 124044, Control_c, 0, 64, 104
2, 124056, Control_c, 0, 64, 24
2, 124072, Control_c, 0, 64, 0
2, 124128, Control_c, 0, 64, 24
2, 124140, Control_c, 0, 64, 88
2, 124156, Control_c, 0, 64, 127
2, 124172, Note_on_c, 0, 76, 0
2, 124204, Note_on_c, 0, 74, 60
2, 124256, Note_on_c, 0, 60, 0
2, 124308, Note_on_c, 0, 74, 0
2, 124340, Note_on_c, 0, 72, 68
2, 124396, Note_on_c, 0, 72, 0
2, 124548, Note_on_c, 0, 77, 69
2, 124548, Note_on_c, 0, 65, 33
2, 124624, Control_c, 0, 64, 104
2, 124636, Control_c, 0, 64, 40
2, 124656, Control_c, 0, 64, 0
2, 124748, Control_c, 0, 64, 56
2, 124764, Control_c, 0, 64, 127
2, 124832, Note_on_c, 0, 60, 42
2, 124920, Note_on_c, 0, 60, 0
2, 125012, Note_on_c, 0, 65, 0
2, 125056, Note_on_c, 0, 60, 39
2, 125168, Note_on_c, 0, 60, 0
2, 125288, Note_on_c, 0, 65, 43
2, 125512, Note_on_c, 0, 60, 43
2, 125552, Note_on_c, 0, 60, 0
2, 125664, Note_on_c, 0, 65, 0
2, 125756, Note_on_c, 0, 60, 42
2, 125864, Note_on_c, 0, 60, 0
2, 125920, Note_on_c, 0, 77, 0
2, 125968, Note_on_c, 0, 64, 51
2, 125972, Note_on_c, 0, 76, 60
2, 125976, Control_c, 0, 64, 56
2, 125988, Control_c, 0, 64, 0
2, 126036, Note_on_c, 0, 76, 0
2, 126044, Control_c, 0, 64, 24
2, 126060, Control_c, 0, 64, 88
2, 126064, Note_on_c, 0, 77, 45
2, 126072, Control_c, 0, 64, 127
2, 126120, Note_on_c, 0, 76, 59
2, 126132, Note_on_c, 0, 77, 0
2, 126228, Note_on_c, 0, 76, 0
2, 126228, Note_on_c, 0, 79, 62
2, 126272, Note_on_c, 0, 79, 0
2, 126280, Note_on_c, 0, 60, 44
2, 126368, Note_on_c, 0, 60, 0
2, 126416, Note_on_c, 0, 64, 0
2, 126500, Note_on_c, 0, 60, 44
2, 126580, Note_on_c, 0, 60, 0
2, 126704, Note_on_c, 0, 74, 70
2, 126716, Note_on_c, 0, 62, 49
2, 126728, Control_c, 0, 64, 88
2, 126740, Control_c, 0, 64, 0
2, 126780, Note_on_c, 0, 74, 0
2, 126808, Note_on_c, 0, 76, 53
2, 126828, Control_c, 0, 64, 72
2, 126836, Control_c, 0, 64, 127
2, 126864, Note_on_c, 0, 74, 46
2, 126892, Note_on_c, 0, 76, 0
2, 126968, Note_on_c, 0, 74, 0
2, 126976, Note_on_c, 0, 77, 62
2, 126996, Note_on_c, 0, 62, 0
2, 127020, Note_on_c, 0, 77, 0
2, 127460, Note_on_c, 0, 76, 66
2, 127472, Note_on_c, 0, 64, 46
2, 127536, Control_c, 0, 64, 72
2, 127552, Control_c, 0, 64, 0
2, 127636, Control_c, 0, 64, 24
2, 127648, Control_c, 0, 64, 88
2, 127664, Control_c, 0, 64, 127
2, 127868, Note_on_c, 0, 64, 0
2, 128160, Note_on_c, 0, 72, 63
2, 128164, Note_on_c, 0, 76, 0
2, 128188, Note_on_c, 0, 60, 41
2, 128388, Note_on_c, 0, 60, 0
2, 128832, Note_on_c, 0, 72, 0
2, 128864, Note_on_c, 0, 74, 72
2, 128864, Note_on_c, 0, 62, 41
2, 128912, Control_c, 0, 64, 104
2, 128928, Control_c, 0, 64, 24
2, 128940, Control_c, 0, 64, 0
2, 129028, Control_c, 0, 64, 24
2, 129040, Control_c, 0, 64, 88
2, 129056, Control_c, 0, 64, 127
2, 129156, Note_on_c, 0, 62, 0
2, 129436, Note_on_c, 0, 76, 72
2, 129444, Note_on_c, 0, 74, 0
2, 129568, Note_on_c, 0, 76, 0
2, 129568, Note_on_c, 0, 77, 75
2, 129568, Note_on_c, 0, 64, 44
2, 129624, Control_c, 0, 64, 72
2, 129636, Control_c, 0, 64, 0
2, 129692, Control_c, 0, 64, 24
2, 129708, Control_c, 0, 64, 88
2, 129724, Control_c, 0, 64, 127
2, 129960, Note_on_c, 0, 64, 0
2, 130224, Note_on_c, 0, 77, 0
2, 130240, Note_on_c, 0, 79, 77
2, 130264, Note_on_c, 0, 60, 46
2, 130524, Note_on_c, 0, 60, 0
2, 130960, Note_on_c, 0, 81, 79
2, 130980, Note_on_c, 0, 60, 48
2, 130992, Note_on_c, 0, 79, 0
2, 131044, Control_c, 0, 64, 72
2, 131056, Control_c, 0, 64, 0
2, 131160, Control_c, 0, 64, 40
2, 131172, Control_c, 0, 64, 104
2, 131188, Control_c, 0, 64, 127
2, 131276, Note_on_c, 0, 60, 0
2, 131712, Note_on_c, 0, 61, 40
2, 131768, Control_c, 0, 64, 72
2, 131780, Control_c, 0, 64, 0
2, 131868, Control_c, 0, 64, 56
2, 131884, Control_c, 0, 64, 127
2, 132180, Note_on_c, 0, 61, 0
2, 132408, Note_on_c, 0, 61, 31
2, 132896, Note_on_c, 0, 61, 0
2, 132952, Note_on_c, 0, 81, 0
2, 133192, Note_on_c, 0, 82, 76
2, 133192, Note_on_c, 0, 61, 44
2, 133276, Control_c, 0, 64, 88
2, 133288, Control_c, 0, 64, 40
2, 133304, Control_c, 0, 64, 0
2, 133388, Control_c, 0, 64, 40
2, 133400, Control_c, 0, 64, 104
2, 133416, Control_c, 0, 64, 127
2, 133668, Note_on_c, 0, 61, 0
2, 133912, Note_on_c, 0, 60, 41
2, 133952, Control_c, 0, 64, 88
2, 133972, Control_c, 0, 64, 40
2, 133984, Control_c, 0, 64, 0
2, 134040, Control_c, 0, 64, 56
2, 134052, Control_c, 0, 64, 127
2, 134260, Note_on_c, 0, 60, 0
2, 134580, Note_on_c, 0, 82, 0
2, 134604, Note_on_c, 0, 81, 77
2, 134608, Note_on_c, 0, 62, 49
2, 134676, Control_c, 0, 64, 72
2, 134696, Control_c, 0, 64, 24
2, 134708, Control_c, 0, 64, 0
2, 134780, Control_c, 0, 64, 24
2, 134792, Control_c, 0, 64, 88
2, 134808, Control_c, 0, 64, 127
2, 134856, Note_on_c, 0, 60, 48
2, 134876, Note_on_c, 0, 62, 0
2, 134940, Note_on_c, 0, 60, 0
2, 135108, Note_on_c, 0, 60, 44
2, 135228, Note_on_c, 0, 60, 0
2, 135324, Note_on_c, 0, 81, 0
2, 135332, Note_on_c, 0, 79, 73
2, 135332, Note_on_c, 0, 64, 41
2, 135404, Control_c, 0, 64, 72
2, 135420, Control_c, 0, 64, 0
2, 135488, Control_c, 0, 64, 24
2, 135504, Control_c, 0, 64, 88
2, 135516, Control_c, 0, 64, 127
2, 135612, Note_on_c, 0, 60, 56
2, 135624, Note_on_c, 0, 79, 0
2, 135644, Note_on_c, 0, 81, 71
2, 135696, Note_on_c, 0, 60, 0
2, 135752, Note_on_c, 0, 81, 0
2, 135768, Note_on_c, 0, 79, 78
2, 135876, Note_on_c, 0, 79, 0
2, 135884, Note_on_c, 0, 77, 78
2, 135912, Note_on_c, 0, 64, 0
2, 135932, Note_on_c, 0, 60, 50
2, 135972, Note_on_c, 0, 77, 0
2, 136004, Note_on_c, 0, 60, 0
2, 136004, Note_on_c, 0, 79, 80
2, 136132, Note_on_c, 0, 79, 0
2, 136156, Note_on_c, 0, 81, 70
2, 136200, Note_on_c, 0, 65, 49
2, 136212, Control_c, 0, 64, 72
2, 136228, Control_c, 0, 64, 0
2, 136344, Control_c, 0, 64, 104
2, 136356, Control_c, 0, 64, 127
2, 136420, Note_on_c, 0, 60, 52
2, 136480, Note_on_c, 0, 60, 0
2, 136572, Note_on_c, 0, 65, 0
2, 136620, Note_on_c, 0, 60, 49
2, 136656, Note_on_c, 0, 60, 0
2, 136836, Note_on_c, 0, 81, 0
2, 136868, Note_on_c, 0, 77, 70
2, 136900, Note_on_c, 0, 68, 39
2, 137008, Control_c, 0, 64, 56
2, 137024, Control_c, 0, 64, 0
2, 137096, Control_c, 0, 64, 24
2, 137108, Control_c, 0, 64, 88
2, 137124, Control_c, 0, 64, 127
2, 137168, Note_on_c, 0, 62, 39
2, 137216, Note_on_c, 0, 62, 0
2, 137296, Note_on_c, 0, 68, 0
2, 137384, Note_on_c, 0, 62, 40
2, 137436, Note_on_c, 0, 62, 0
2, 137456, Note_on_c, 0, 77, 0
2, 137580, Note_on_c, 0, 69, 52
2, 137620, Control_c, 0, 64, 104
2, 137636, Control_c, 0, 64, 24
2, 137648, Control_c, 0, 64, 0
2, 137668, Note_on_c, 0, 72, 69
2, 137688, Note_on_c, 0, 69, 0
2, 137732, Control_c, 0, 64, 40
2, 137744, Control_c, 0, 64, 104
2, 137760, Control_c, 0, 64, 127
2, 137952, Note_on_c, 0, 60, 40
2, 137996, Note_on_c, 0, 60, 0
2, 138144, Note_on_c, 0, 60, 39
2, 138276, Note_on_c, 0, 60, 0
2, 138372, Note_on_c, 0, 77, 79
2, 138384, Note_on_c, 0, 65, 32
2, 138420, Note_on_c, 0, 72, 0
2, 138604, Note_on_c, 0, 60, 54
2, 138688, Note_on_c, 0, 60, 0
2, 138696, Note_on_c, 0, 65, 0
2, 138840, Note_on_c, 0, 60, 46
2, 139028, Note_on_c, 0, 60, 0
2, 139052, Note_on_c, 0, 64, 45
2, 139056, Note_on_c, 0, 76, 75
2, 139064, Note_on_c, 0, 77, 0
2, 139124, Control_c, 0, 64, 104
2, 139140, Control_c, 0, 64, 40
2, 139152, Control_c, 0, 64, 0
2, 139224, Control_c, 0, 64, 56
2, 139240, Control_c, 0, 64, 127
2, 139308, Note_on_c, 0, 60, 53
2, 139384, Note_on_c, 0, 60, 0
2, 139444, Note_on_c, 0, 64, 0
2, 139548, Note_on_c, 0, 60, 54
2, 139608, Note_on_c, 0, 60, 0
2, 139652, Note_on_c, 0, 76, 0
2, 139816, Note_on_c, 0, 79, 82
2, 139816, Note_on_c, 0, 61, 48
2, 139848, Control_c, 0, 64, 56
2, 139864, Control_c, 0, 64, 0
2, 139948, Control_c, 0, 64, 40
2, 139964, Control_c, 0, 64, 104
2, 139976, Control_c, 0, 64, 127
2, 140128, Note_on_c, 0, 61, 0
2, 140532, Note_on_c, 0, 61, 43
2, 140772, Note_on_c, 0, 61, 0
2, 141244, Note_on_c, 0, 61, 43
2, 141340, Control_c, 0, 64, 56
2, 141352, Control_c, 0, 64, 0
2, 141440, Control_c, 0, 64, 40
2, 141456, Control_c, 0, 64, 127
2, 141612, Note_on_c, 0, 79, 0
2, 141800, Note_on_c, 0, 61, 0
2, 142068, Note_on_c, 0, 82, 78
2, 142068, Note_on_c, 0, 61, 45
2, 142192, Control_c, 0, 64, 72
2, 142208, Control_c, 0, 64, 0
2, 142304, Control_c, 0, 64, 24
2, 142320, Control_c, 0, 64, 88
2, 142336, Control_c, 0, 64, 127
2, 143280, Note_on_c, 0, 61, 0
2, 143348, Note_on_c, 0, 82, 0
2, 143492, Note_on_c, 0, 81, 74
2, 143516, Note_on_c, 0, 61, 28
2, 143600, Control_c, 0, 64, 88
2, 143612, Control_c, 0, 64, 24
2, 143628, Control_c, 0, 64, 0
2, 143696, Control_c, 0, 64, 24
2, 143712, Control_c, 0, 64, 104
2, 143724, Control_c, 0, 64, 127
2, 143928, Note_on_c, 0, 61, 0
2, 144212, Note_on_c, 0, 81, 0
2, 144220, Note_on_c, 0, 79, 69
2, 144220, Note_on_c, 0, 61, 44
2, 144264, Control_c, 0, 64, 56
2, 144280, Control_c, 0, 64, 0
2, 144352, Control_c, 0, 64, 72
2, 144364, Control_c, 0, 64, 127
2, 144468, Note_on_c, 0, 79, 0
2, 144496, Note_on_c, 0, 81, 74
2, 144612, Note_on_c, 0, 81, 0
2, 144632, Note_on_c, 0, 79, 78
2, 144728, Note_on_c, 0, 79, 0
2, 144760, Note_on_c, 0, 78, 74
2, 144840, Note_on_c, 0, 78, 0
2, 144876, Note_on_c, 0, 79, 82
2, 144896, Note_on_c, 0, 61, 0
2, 145000, Note_on_c, 0, 79, 0
2, 145028, Note_on_c, 0, 81, 74
2, 145028, Note_on_c, 0, 60, 43
2, 145116, Control_c, 0, 64, 72
2, 145136, Control_c, 0, 64, 0
2, 145232, Control_c, 0, 64, 40
2, 145248, Control_c, 0, 64, 104
2, 145260, Control_c, 0, 64, 127
2, 145412, Note_on_c, 0, 60, 0
2, 145736, Note_on_c, 0, 81, 0
2, 145756, Note_on_c, 0, 77, 68
2, 145860, Control_c, 0, 64, 72
2, 145872, Control_c, 0, 64, 0
2, 145968, Control_c, 0, 64, 56
2, 145984, Control_c, 0, 64, 127
2, 146560, Note_on_c, 0, 77, 0
2, 146616, Note_on_c, 0, 72, 66
2, 146652, Control_c, 0, 64, 72
2, 146664, Control_c, 0, 64, 0
2, 146752, Control_c, 0, 64, 56
2, 146764, Control_c, 0, 64, 127
2, 146916, Note_on_c, 0, 60, 34
2, 147024, Note_on_c, 0, 60, 0
2, 147152, Note_on_c, 0, 60, 46
2, 147248, Note_on_c, 0, 60, 0
2, 147360, Note_on_c, 0, 72, 0
2, 147476, Note_on_c, 0, 79, 76
2, 147496, Note_on_c, 0, 65, 47
2, 147604, Control_c, 0, 64, 104
2, 147616, Control_c, 0, 64, 40
2, 147632, Control_c, 0, 64, 0
2, 147704, Control_c, 0, 64, 88
2, 147716, Control_c, 0, 64, 127
2, 147764, Note_on_c, 0, 60, 41
2, 147840, Note_on_c, 0, 60, 0
2, 147904, Note_on_c, 0, 65, 0
2, 147988, Note_on_c, 0, 60, 44
2, 148144, Note_on_c, 0, 60, 0
2, 148240, Note_on_c, 0, 64, 41
2, 148344, Control_c, 0, 64, 56
2, 148356, Control_c, 0, 64, 0
2, 148428, Control_c, 0, 64, 40
2, 148440, Control_c, 0, 64, 127
2, 148488, Note_on_c, 0, 60, 42
2, 148572, Note_on_c, 0, 60, 0
2, 148752, Note_on_c, 0, 64, 0
2, 148800, Note_on_c, 0, 60, 38
2, 148956, Note_on_c, 0, 60, 0
2, 148972, Note_on_c, 0, 77, 68
2, 148976, Note_on_c, 0, 79, 0
2, 149048, Note_on_c, 0, 77, 0
2, 149212, Note_on_c, 0, 77, 67
2, 149220, Note_on_c, 0, 65, 24
2, 149280, Control_c, 0, 64, 56
2, 149296, Control_c, 0, 64, 0
2, 149392, Control_c, 0, 64, 88
2, 149408, Control_c, 0, 64, 127
2, 149468, Note_on_c, 0, 60, 50
2, 149568, Note_on_c, 0, 60, 0
2, 149748, Note_on_c, 0, 60, 40
2, 149776, Note_on_c, 0, 65, 0
2, 149832, Note_on_c, 0, 60, 0
2, 150092, Note_on_c, 0, 77, 0
2, 150100, Note_on_c, 0, 86, 86
2, 150132, Control_c, 0, 64, 40
2, 150144, Control_c, 0, 64, 0
2, 150232, Control_c, 0, 64, 88
2, 150244, Control_c, 0, 64, 127
2, 150580, Note_on_c, 0, 86, 0
2, 150972, Note_on_c, 0, 76, 70
2, 151004, Note_on_c, 0, 62, 41
2, 151124, Note_on_c, 0, 76, 0
2, 151144, Note_on_c, 0, 77, 75
2, 151240, Note_on_c, 0, 77, 0
2, 151264, Note_on_c, 0, 76, 78
2, 151356, Note_on_c, 0, 76, 0
2, 151388, Note_on_c, 0, 74, 74
2, 151460, Note_on_c, 0, 74, 0
2, 151516, Note_on_c, 0, 76, 73
2, 151564, Note_on_c, 0, 76, 0
2, 151660, Note_on_c, 0, 76, 76
2, 151764, Note_on_c, 0, 76, 0
2, 151788, Note_on_c, 0, 79, 74
2, 151820, Control_c, 0, 64, 88
2, 151836, Control_c, 0, 64, 0
2, 151920, Control_c, 0, 64, 104
2, 151936, Note_on_c, 0, 62, 0
2, 151936, Control_c, 0, 64, 127
2, 152008, Note_on_c, 0, 77, 69
2, 152024, Note_on_c, 0, 79, 0
2, 152104, Note_on_c, 0, 77, 0
2, 152140, Note_on_c, 0, 74, 66
2, 152236, Note_on_c, 0, 74, 0
2, 152316, Note_on_c, 0, 72, 63
2, 152332, Control_c, 0, 64, 72
2, 152348, Control_c, 0, 64, 0
2, 152420, Control_c, 0, 64, 56
2, 152432, Control_c, 0, 64, 127
2, 152612, Note_on_c, 0, 60, 54
2, 152668, Note_on_c, 0, 60, 0
2, 152856, Note_on_c, 0, 60, 49
2, 152948, Note_on_c, 0, 60, 0
2, 153088, Note_on_c, 0, 72, 0
2, 153120, Note_on_c, 0, 79, 74
2, 153144, Note_on_c, 0, 65, 49
2, 153228, Control_c, 0, 64, 104
2, 153240, Control_c, 0, 64, 24
2, 153256, Control_c, 0, 64, 0
2, 153328, Control_c, 0, 64, 24
2, 153340, Control_c, 0, 64, 104
2, 153356, Control_c, 0, 64, 127
2, 153384, Note_on_c, 0, 60, 43
2, 153428, Note_on_c, 0, 60, 0
2, 153544, Note_on_c, 0, 65, 0
2, 153632, Note_on_c, 0, 60, 42
2, 153784, Note_on_c, 0, 60, 0
2, 153888, Note_on_c, 0, 64, 45
2, 153964, Control_c, 0, 64, 104
2, 153980, Control_c, 0, 64, 40
2, 153992, Control_c, 0, 64, 0
2, 154080, Control_c, 0, 64, 104
2, 154096, Control_c, 0, 64, 127
2, 154176, Note_on_c, 0, 60, 39
2, 154256, Note_on_c, 0, 60, 0
2, 154376, Note_on_c, 0, 64, 0
2, 154504, Note_on_c, 0, 60, 35
2, 154624, Note_on_c, 0, 60, 0
2, 154684, Note_on_c, 0, 77, 62
2, 154708, Note_on_c, 0, 79, 0
2, 154776, Note_on_c, 0, 77, 0
2, 154944, Note_on_c, 0, 77, 62
2, 154956, Note_on_c, 0, 65, 42
2, 155016, Control_c, 0, 64, 56
2, 155032, Control_c, 0, 64, 0
2, 155132, Control_c, 0, 64, 40
2, 155144, Control_c, 0, 64, 104
2, 155160, Control_c, 0, 64, 127
2, 155212, Note_on_c, 0, 60, 40
2, 155288, Note_on_c, 0, 60, 0
2, 155340, Note_on_c, 0, 65, 0
2, 155452, Note_on_c, 0, 60, 45
2, 155560, Note_on_c, 0, 60, 0
2, 155688, Note_on_c, 0, 65, 41
2, 155904, Note_on_c, 0, 60, 35
2, 155980, Note_on_c, 0, 60, 0
2, 156036, Note_on_c, 0, 65, 0
2, 156136, Note_on_c, 0, 60, 36
2, 156212, Note_on_c, 0, 60, 0
2, 156376, Note_on_c, 0, 76, 62
2, 156392, Note_on_c, 0, 77, 0
2, 156392, Note_on_c, 0, 64, 40
2, 156440, Control_c, 0, 64, 72
2, 156452, Control_c, 0, 64, 0
2, 156536, Control_c, 0, 64, 24
2, 156552, Control_c, 0, 64, 88
2, 156564, Control_c, 0, 64, 127
2, 156604, Note_on_c, 0, 60, 38
2, 156680, Note_on_c, 0, 60, 0
2, 156784, Note_on_c, 0, 64, 0
2, 156848, Note_on_c, 0, 60, 34
2, 156928, Note_on_c, 0, 60, 0
2, 157088, Note_on_c, 0, 76, 0
2, 157104, Note_on_c, 0, 74, 60
2, 157132, Note_on_c, 0, 62, 32
2, 157204, Control_c, 0, 64, 104
2, 157220, Control_c, 0, 64, 56
2, 157232, Control_c, 0, 64, 0
2, 157304, Control_c, 0, 64, 24
2, 157316, Control_c, 0, 64, 88
2, 157332, Control_c, 0, 64, 127
2, 157396, Note_on_c, 0, 62, 0
2, 157808, Note_on_c, 0, 74, 0
2, 157816, Note_on_c, 0, 76, 63
2, 157840, Note_on_c, 0, 64, 34
2, 157872, Control_c, 0, 64, 88
2, 157888, Control_c, 0, 64, 40
2, 157900, Control_c, 0, 64, 0
2, 157984, Control_c, 0, 64, 56
2, 158000, Control_c, 0, 64, 127
2, 158200, Note_on_c, 0, 64, 0
2, 158488, Note_on_c, 0, 76, 0
2, 158500, Note_on_c, 0, 72, 64
2, 158536, Note_on_c, 0, 60, 22
2, 158832, Note_on_c, 0, 60, 0
2, 159196, Note_on_c, 0, 72, 0
2, 159232, Note_on_c, 0, 74, 56
2, 159252, Note_on_c, 0, 62, 28
2, 159308, Control_c, 0, 64, 56
2, 159320, Control_c, 0, 64, 0
2, 159404, Control_c, 0, 64, 40
2, 159420, Control_c, 0, 64, 104
2, 159432, Control_c, 0, 64, 127
2, 159604, Note_on_c, 0, 62, 0
2, 159812, Note_on_c, 0, 74, 0
2, 159964, Note_on_c, 0, 76, 59
2, 159992, Note_on_c, 0, 64, 19
2, 160088, Control_c, 0, 64, 72
2, 160100, Control_c, 0, 64, 0
2, 160172, Control_c, 0, 64, 24
2, 160184, Control_c, 0, 64, 88
2, 160200, Control_c, 0, 64, 127
2, 160336, Note_on_c, 0, 64, 0
2, 160664, Note_on_c, 0, 76, 0
2, 160704, Note_on_c, 0, 72, 49
2, 160728, Note_on_c, 0, 60, 30
2, 160884, Control_c, 0, 64, 56
2, 160900, Control_c, 0, 64, 0
2, 160968, Control_c, 0, 64, 24
2, 160984, Control_c, 0, 64, 88
2, 160996, Control_c, 0, 64, 127
2, 161184, Note_on_c, 0, 60, 0
2, 161688, Control_c, 0, 64, 88
2, 161704, Control_c, 0, 64, 0
2, 161776, Control_c, 0, 64, 72
2, 161792, Control_c, 0, 64, 127
2, 162244, Note_on_c, 0, 72, 0
2, 162388, Note_on_c, 0, 60, 55
2, 162540, Note_on_c, 0, 64, 58
2, 162680, Note_on_c, 0, 64, 0
2, 162688, Note_on_c, 0, 70, 59
2, 162720, Note_on_c, 0, 60, 0
2, 162832, Note_on_c, 0, 70, 0
2, 162864, Note_on_c, 0, 72, 67
2, 163216, Note_on_c, 0, 79, 63
2, 163864, Note_on_c, 0, 72, 0
2, 163892, Note_on_c, 0, 79, 0
2, 164800, Control_c, 0, 64, 88
2, 164816, Control_c, 0, 64, 0
2, 164900, Control_c, 0, 64, 88
2, 164916, Control_c, 0, 64, 127
2, 165396, Note_on_c, 0, 60, 44
2, 165492, Note_on_c, 0, 60, 0
2, 165556, Note_on_c, 0, 65, 39
2, 165652, Note_on_c, 0, 65, 0
2, 165740, Note_on_c, 0, 69, 39
2, 165832, Note_on_c, 0, 69, 0
2, 165920, Note_on_c, 0, 72, 53
2, 166128, Note_on_c, 0, 72, 0
2, 166252, Note_on_c, 0, 77, 56
2, 167208, Note_on_c, 0, 77, 0
2, 168324, Control_c, 0, 64, 104
2, 168336, Control_c, 0, 64, 72
2, 168352, Control_c, 0, 64, 24
2, 168368, Control_c, 0, 64, 0
2, 168368, End_track
3, 0, Start_track
3, 0, MIDI_port, 0
3, 0, Title_t, "Piano L"
3, 0, Control_c, 1, 0, 0
3, 0, Control_c, 1, 32, 0
3, 0, Program_c, 1, 0
3, 0, Control_c, 1, 7, 120
3, 0, Control_c, 1, 10, 70
3, 896, Control_c, 1, 91, 120
3, 1148, Control_c, 1, 64, 40
3, 1164, Control_c, 1, 64, 72
3, 1180, Control_c, 1, 64, 127
3, 1536, Note_on_c, 1, 53, 30
3, 1536, Note_on_c, 1, 57, 29
3, 1676, Control_c, 1, 64, 88
3, 1692, Control_c, 1, 64, 24
3, 1704, Control_c, 1, 64, 0
3, 1784, Control_c, 1, 64, 72
3, 1796, Control_c, 1, 64, 127
3, 1892, Note_on_c, 1, 57, 0
3, 2316, Note_on_c, 1, 57, 29
3, 2740, Note_on_c, 1, 57, 0
3, 3044, Note_on_c, 1, 57, 25
3, 3416, Note_on_c, 1, 57, 0
3, 3528, Note_on_c, 1, 53, 0
3, 3768, Note_on_c, 1, 57, 37
3, 3768, Note_on_c, 1, 53, 33
3, 3860, Control_c, 1, 64, 72
3, 3876, Control_c, 1, 64, 0
3, 3984, Control_c, 1, 64, 40
3, 4000, Control_c, 1, 64, 104
3, 4012, Note_on_c, 1, 58, 40
3, 4016, Control_c, 1, 64, 127
3, 4052, Note_on_c, 1, 57, 0
3, 4084, Note_on_c, 1, 58, 0
3, 4252, Note_on_c, 1, 58, 39
3, 4364, Note_on_c, 1, 58, 0
3, 4520, Note_on_c, 1, 55, 38
3, 4556, Control_c, 1, 64, 72
3, 4572, Control_c, 1, 64, 0
3, 4648, Control_c, 1, 64, 40
3, 4664, Control_c, 1, 64, 104
3, 4680, Control_c, 1, 64, 127
3, 4744, Note_on_c, 1, 58, 26
3, 4804, Note_on_c, 1, 58, 0
3, 4876, Note_on_c, 1, 55, 0
3, 4960, Note_on_c, 1, 58, 35
3, 5084, Note_on_c, 1, 58, 0
3, 5232, Note_on_c, 1, 55, 32
3, 5444, Note_on_c, 1, 58, 35
3, 5508, Note_on_c, 1, 58, 0
3, 5536, Note_on_c, 1, 55, 0
3, 5600, Note_on_c, 1, 53, 0
3, 5680, Note_on_c, 1, 58, 46
3, 5828, Note_on_c, 1, 58, 0
3, 5964, Note_on_c, 1, 55, 39
3, 5980, Note_on_c, 1, 53, 34
3, 5984, Control_c, 1, 64, 56
3, 6000, Control_c, 1, 64, 0
3, 6104, Control_c, 1, 64, 56
3, 6120, Control_c, 1, 64, 127
3, 6160, Note_on_c, 1, 58, 37
3, 6232, Note_on_c, 1, 55, 0
3, 6248, Note_on_c, 1, 58, 0
3, 6368, Note_on_c, 1, 58, 40
3, 6468, Note_on_c, 1, 58, 0
3, 6704, Note_on_c, 1, 55, 24
3, 6740, Control_c, 1, 64, 72
3, 6756, Control_c, 1, 64, 0
3, 6864, Control_c, 1, 64, 72
3, 6872, Note_on_c, 1, 58, 40
3, 6880, Control_c, 1, 64, 127
3, 6944, Note_on_c, 1, 58, 0
3, 6948, Note_on_c, 1, 55, 0
3, 7100, Note_on_c, 1, 58, 43
3, 7172, Note_on_c, 1, 58, 0
3, 7368, Note_on_c, 1, 55, 39
3, 7580, Note_on_c, 1, 58, 42
3, 7672, Note_on_c, 1, 58, 0
3, 7788, Note_on_c, 1, 55, 0
3, 7840, Note_on_c, 1, 58, 30
3, 7848, Note_on_c, 1, 53, 0
3, 7908, Note_on_c, 1, 58, 0
3, 8100, Note_on_c, 1, 53, 55
3, 8136, Control_c, 1, 64, 56
3, 8152, Control_c, 1, 64, 0
3, 8260, Control_c, 1, 64, 56
3, 8276, Control_c, 1, 64, 127
3, 8336, Note_on_c, 1, 57, 43
3, 8408, Note_on_c, 1, 57, 0
3, 8524, Note_on_c, 1, 53, 0
3, 8580, Note_on_c, 1, 57, 43
3, 8724, Note_on_c, 1, 57, 0
3, 8820, Note_on_c, 1, 52, 46
3, 8820, Note_on_c, 1, 55, 39
3, 8912, Control_c, 1, 64, 104
3, 8928, Control_c, 1, 64, 56
3, 8944, Control_c, 1, 64, 0
3, 9036, Control_c, 1, 64, 88
3, 9048, Note_on_c, 1, 52, 0
3, 9048, Control_c, 1, 64, 127
3, 9080, Note_on_c, 1, 57, 41
3, 9096, Note_on_c, 1, 55, 0
3, 9132, Note_on_c, 1, 57, 0
3, 9312, Note_on_c, 1, 57, 40
3, 9416, Note_on_c, 1, 57, 0
3, 9592, Note_on_c, 1, 53, 31
3, 9628, Note_on_c, 1, 50, 24
3, 9672, Control_c, 1, 64, 104
3, 9684, Control_c, 1, 64, 72
3, 9700, Control_c, 1, 64, 40
3, 9716, Control_c, 1, 64, 0
3, 9816, Note_on_c, 1, 57, 39
3, 9856, Control_c, 1, 64, 104
3, 9872, Control_c, 1, 64, 127
3, 9876, Note_on_c, 1, 57, 0
3, 10060, Note_on_c, 1, 57, 38
3, 10084, Note_on_c, 1, 53, 0
3, 10100, Note_on_c, 1, 50, 0
3, 10124, Note_on_c, 1, 57, 0
3, 10444, Note_on_c, 1, 59, 30
3, 10456, Note_on_c, 1, 53, 33
3, 10460, Note_on_c, 1, 50, 33
3, 10536, Control_c, 1, 64, 56
3, 10552, Control_c, 1, 64, 0
3, 10664, Control_c, 1, 64, 72
3, 10680, Control_c, 1, 64, 127
3, 10696, Note_on_c, 1, 55, 51
3, 10776, Note_on_c, 1, 55, 0
3, 10816, Note_on_c, 1, 59, 0
3, 10872, Note_on_c, 1, 53, 0
3, 10940, Note_on_c, 1, 50, 0
3, 10940, Note_on_c, 1, 55, 51
3, 11104, Note_on_c, 1, 55, 0
3, 11224, Note_on_c, 1, 58, 35
3, 11244, Note_on_c, 1, 53, 34
3, 11264, Note_on_c, 1, 49, 36
3, 11296, Control_c, 1, 64, 104
3, 11312, Control_c, 1, 64, 40
3, 11328, Control_c, 1, 64, 0
3, 11420, Control_c, 1, 64, 88
3, 11436, Control_c, 1, 64, 127
3, 11480, Note_on_c, 1, 53, 0
3, 11484, Note_on_c, 1, 55, 44
3, 11528, Note_on_c, 1, 55, 0
3, 11648, Note_on_c, 1, 58, 0
3, 11720, Note_on_c, 1, 49, 0
3, 11752, Note_on_c, 1, 55, 44
3, 11908, Note_on_c, 1, 55, 0
3, 12132, Note_on_c, 1, 58, 37
3, 12148, Note_on_c, 1, 52, 38
3, 12164, Control_c, 1, 64, 56
3, 12168, Note_on_c, 1, 48, 35
3, 12180, Control_c, 1, 64, 0
3, 12268, Control_c, 1, 64, 104
3, 12288, Control_c, 1, 64, 127
3, 12420, Note_on_c, 1, 55, 35
3, 12468, Note_on_c, 1, 55, 0
3, 12576, Note_on_c, 1, 52, 0
3, 12640, Note_on_c, 1, 48, 0
3, 12640, Note_on_c, 1, 55, 33
3, 12648, Note_on_c, 1, 58, 0
3, 12708, Note_on_c, 1, 55, 0
3, 12920, Note_on_c, 1, 57, 32
3, 12928, Note_on_c, 1, 52, 36
3, 12932, Note_on_c, 1, 48, 39
3, 12972, Control_c, 1, 64, 104
3, 12984, Control_c, 1, 64, 40
3, 13000, Control_c, 1, 64, 0
3, 13092, Control_c, 1, 64, 40
3, 13108, Control_c, 1, 64, 104
3, 13124, Control_c, 1, 64, 127
3, 13136, Note_on_c, 1, 53, 52
3, 13212, Note_on_c, 1, 53, 0
3, 13292, Note_on_c, 1, 52, 0
3, 13296, Note_on_c, 1, 57, 0
3, 13380, Note_on_c, 1, 48, 0
3, 13408, Note_on_c, 1, 53, 44
3, 13476, Note_on_c, 1, 53, 0
3, 13652, Note_on_c, 1, 57, 36
3, 13656, Note_on_c, 1, 50, 39
3, 13688, Note_on_c, 1, 47, 32
3, 13716, Control_c, 1, 64, 56
3, 13728, Control_c, 1, 64, 0
3, 13852, Control_c, 1, 64, 104
3, 13868, Control_c, 1, 64, 127
3, 13900, Note_on_c, 1, 53, 39
3, 13968, Note_on_c, 1, 53, 0
3, 14032, Note_on_c, 1, 50, 0
3, 14044, Note_on_c, 1, 57, 0
3, 14164, Note_on_c, 1, 53, 44
3, 14312, Note_on_c, 1, 53, 0
3, 14456, Note_on_c, 1, 57, 34
3, 14468, Note_on_c, 1, 50, 37
3, 14488, Control_c, 1, 64, 104
3, 14504, Control_c, 1, 64, 40
3, 14516, Control_c, 1, 64, 0
3, 14564, Control_c, 1, 64, 40
3, 14580, Control_c, 1, 64, 127
3, 14748, Note_on_c, 1, 53, 44
3, 14812, Note_on_c, 1, 53, 0
3, 14896, Note_on_c, 1, 57, 0
3, 14972, Note_on_c, 1, 50, 0
3, 14972, Note_on_c, 1, 53, 48
3, 15004, Note_on_c, 1, 47, 0
3, 15064, Note_on_c, 1, 53, 0
3, 15268, Note_on_c, 1, 56, 37
3, 15268, Note_on_c, 1, 50, 40
3, 15284, Note_on_c, 1, 47, 38
3, 15292, Control_c, 1, 64, 72
3, 15308, Control_c, 1, 64, 0
3, 15432, Control_c, 1, 64, 56
3, 15448, Control_c, 1, 64, 127
3, 15516, Note_on_c, 1, 52, 42
3, 15556, Note_on_c, 1, 52, 0
3, 15648, Note_on_c, 1, 50, 0
3, 15656, Note_on_c, 1, 56, 0
3, 15692, Note_on_c, 1, 47, 0
3, 15748, Note_on_c, 1, 52, 41
3, 15788, Note_on_c, 1, 52, 0
3, 16008, Note_on_c, 1, 57, 40
3, 16020, Note_on_c, 1, 48, 31
3, 16036, Note_on_c, 1, 45, 34
3, 16052, Control_c, 1, 64, 72
3, 16068, Control_c, 1, 64, 0
3, 16144, Control_c, 1, 64, 72
3, 16160, Control_c, 1, 64, 127
3, 16284, Note_on_c, 1, 52, 42
3, 16332, Note_on_c, 1, 52, 0
3, 16392, Note_on_c, 1, 57, 0
3, 16472, Note_on_c, 1, 48, 0
3, 16512, Note_on_c, 1, 45, 0
3, 16528, Note_on_c, 1, 52, 47
3, 16588, Note_on_c, 1, 52, 0
3, 16756, Note_on_c, 1, 41, 44
3, 16812, Control_c, 1, 64, 56
3, 16824, Note_on_c, 1, 47, 43
3, 16828, Control_c, 1, 64, 0
3, 16868, Note_on_c, 1, 47, 0
3, 16920, Control_c, 1, 64, 104
3, 16936, Note_on_c, 1, 57, 40
3, 16936, Control_c, 1, 64, 127
3, 17108, Note_on_c, 1, 57, 0
3, 17264, Note_on_c, 1, 50, 47
3, 17344, Note_on_c, 1, 50, 0
3, 17452, Note_on_c, 1, 41, 0
3, 17508, Note_on_c, 1, 50, 50
3, 17544, Note_on_c, 1, 50, 0
3, 17748, Note_on_c, 1, 40, 42
3, 17788, Control_c, 1, 64, 104
3, 17804, Control_c, 1, 64, 0
3, 17812, Note_on_c, 1, 47, 41
3, 17844, Note_on_c, 1, 40, 0
3, 17884, Note_on_c, 1, 56, 49
3, 17908, Note_on_c, 1, 47, 0
3, 17928, Control_c, 1, 64, 88
3, 17944, Control_c, 1, 64, 127
3, 17996, Note_on_c, 1, 56, 0
3, 18184, Note_on_c, 1, 59, 39
3, 18252, Note_on_c, 1, 59, 0
3, 18408, Note_on_c, 1, 59, 42
3, 18504, Note_on_c, 1, 59, 0
3, 18684, Note_on_c, 1, 56, 31
3, 18764, Control_c, 1, 64, 40
3, 18776, Control_c, 1, 64, 0
3, 18824, Control_c, 1, 64, 24
3, 18840, Control_c, 1, 64, 88
3, 18856, Control_c, 1, 64, 127
3, 18920, Note_on_c, 1, 59, 37
3, 18976, Note_on_c, 1, 59, 0
3, 19156, Note_on_c, 1, 56, 0
3, 19204, Note_on_c, 1, 59, 38
3, 19268, Note_on_c, 1, 59, 0
3, 19508, Note_on_c, 1, 55, 36
3, 19508, Note_on_c, 1, 58, 35
3, 19584, Control_c, 1, 64, 72
3, 19600, Control_c, 1, 64, 0
3, 19692, Control_c, 1, 64, 88
3, 19708, Control_c, 1, 64, 127
3, 20152, Note_on_c, 1, 55, 0
3, 20224, Note_on_c, 1, 58, 0
3, 20636, Control_c, 1, 64, 56
3, 20648, Note_on_c, 1, 57, 30
3, 20652, Control_c, 1, 64, 0
3, 20668, Note_on_c, 1, 53, 37
3, 20780, Control_c, 1, 64, 72
3, 20792, Control_c, 1, 64, 127
3, 21024, Note_on_c, 1, 57, 0
3, 21392, Note_on_c, 1, 57, 30
3, 21772, Note_on_c, 1, 57, 0
3, 22080, Control_c, 1, 64, 40
3, 22092, Note_on_c, 1, 57, 37
3, 22092, Control_c, 1, 64, 0
3, 22140, Control_c, 1, 64, 24
3, 22156, Control_c, 1, 64, 72
3, 22172, Control_c, 1, 64, 127
3, 22484, Note_on_c, 1, 57, 0
3, 22624, Note_on_c, 1, 53, 0
3, 22852, Control_c, 1, 64, 72
3, 22868, Note_on_c, 1, 57, 36
3, 22868, Control_c, 1, 64, 0
3, 22872, Note_on_c, 1, 53, 30
3, 22948, Control_c, 1, 64, 56
3, 22964, Control_c, 1, 64, 127
3, 23108, Note_on_c, 1, 58, 40
3, 23152, Note_on_c, 1, 57, 0
3, 23180, Note_on_c, 1, 58, 0
3, 23352, Note_on_c, 1, 58, 37
3, 23412, Note_on_c, 1, 53, 0
3, 23492, Note_on_c, 1, 58, 0
3, 23628, Note_on_c, 1, 53, 30
3, 23628, Note_on_c, 1, 55, 34
3, 23752, Control_c, 1, 64, 104
3, 23768, Control_c, 1, 64, 40
3, 23784, Control_c, 1, 64, 0
3, 23868, Note_on_c, 1, 58, 38
3, 23876, Control_c, 1, 64, 40
3, 23892, Control_c, 1, 64, 104
3, 23908, Control_c, 1, 64, 127
3, 23940, Note_on_c, 1, 55, 0
3, 23956, Note_on_c, 1, 58, 0
3, 24120, Note_on_c, 1, 58, 32
3, 24148, Note_on_c, 1, 53, 0
3, 24228, Note_on_c, 1, 58, 0
3, 24404, Note_on_c, 1, 53, 33
3, 24412, Note_on_c, 1, 55, 36
3, 24480, Control_c, 1, 64, 88
3, 24496, Control_c, 1, 64, 24
3, 24512, Control_c, 1, 64, 0
3, 24556, Control_c, 1, 64, 72
3, 24572, Control_c, 1, 64, 127
3, 24624, Note_on_c, 1, 58, 36
3, 24684, Note_on_c, 1, 55, 0
3, 24712, Note_on_c, 1, 58, 0
3, 24872, Note_on_c, 1, 58, 43
3, 24920, Note_on_c, 1, 53, 0
3, 24988, Note_on_c, 1, 58, 0
3, 25180, Note_on_c, 1, 53, 27
3, 25192, Note_on_c, 1, 55, 32
3, 25256, Control_c, 1, 64, 88
3, 25268, Control_c, 1, 64, 24
3, 25288, Control_c, 1, 64, 0
3, 25364, Control_c, 1, 64, 72
3, 25380, Control_c, 1, 64, 127
3, 25388, Note_on_c, 1, 58, 34
3, 25448, Note_on_c, 1, 55, 0
3, 25472, Note_on_c, 1, 58, 0
3, 25612, Note_on_c, 1, 58, 33
3, 25716, Note_on_c, 1, 58, 0
3, 25900, Note_on_c, 1, 55, 38
3, 25936, Control_c, 1, 64, 72
3, 25952, Control_c, 1, 64, 0
3, 26044, Control_c, 1, 64, 40
3, 26060, Control_c, 1, 64, 104
3, 26076, Control_c, 1, 64, 127
3, 26116, Note_on_c, 1, 58, 44
3, 26216, Note_on_c, 1, 58, 0
3, 26240, Note_on_c, 1, 55, 0
3, 26340, Note_on_c, 1, 53, 0
3, 26356, Note_on_c, 1, 58, 39
3, 26520, Note_on_c, 1, 58, 0
3, 26632, Note_on_c, 1, 53, 37
3, 26652, Note_on_c, 1, 55, 37
3, 26824, Note_on_c, 1, 58, 43
3, 26912, Note_on_c, 1, 58, 0
3, 27024, Note_on_c, 1, 55, 0
3, 27076, Note_on_c, 1, 58, 39
3, 27104, Note_on_c, 1, 53, 0
3, 27192, Note_on_c, 1, 58, 0
3, 27352, Note_on_c, 1, 53, 48
3, 27408, Control_c, 1, 64, 104
3, 27424, Control_c, 1, 64, 40
3, 27440, Control_c, 1, 64, 0
3, 27548, Control_c, 1, 64, 88
3, 27564, Control_c, 1, 64, 127
3, 27608, Note_on_c, 1, 57, 38
3, 27696, Note_on_c, 1, 57, 0
3, 27768, Note_on_c, 1, 53, 0
3, 27832, Note_on_c, 1, 57, 37
3, 27992, Note_on_c, 1, 57, 0
3, 28088, Control_c, 1, 64, 104
3, 28092, Note_on_c, 1, 55, 45
3, 28100, Note_on_c, 1, 52, 40
3, 28104, Control_c, 1, 64, 24
3, 28124, Control_c, 1, 64, 0
3, 28196, Control_c, 1, 64, 40
3, 28212, Control_c, 1, 64, 127
3, 28296, Note_on_c, 1, 55, 0
3, 28324, Note_on_c, 1, 57, 44
3, 28384, Note_on_c, 1, 57, 0
3, 28560, Note_on_c, 1, 57, 37
3, 28712, Note_on_c, 1, 57, 0
3, 28828, Note_on_c, 1, 55, 34
3, 29064, Note_on_c, 1, 57, 34
3, 29112, Note_on_c, 1, 57, 0
3, 29236, Note_on_c, 1, 55, 0
3, 29324, Note_on_c, 1, 52, 0
3, 29324, Note_on_c, 1, 57, 37
3, 29468, Note_on_c, 1, 57, 0
3, 29644, Note_on_c, 1, 52, 41
3, 29648, Note_on_c, 1, 55, 41
3, 29700, Control_c, 1, 64, 72
3, 29716, Control_c, 1, 64, 0
3, 29808, Control_c, 1, 64, 56
3, 29824, Control_c, 1, 64, 127
3, 29880, Note_on_c, 1, 58, 31
3, 29932, Note_on_c, 1, 58, 0
3, 29992, Note_on_c, 1, 55, 0
3, 30100, Note_on_c, 1, 58, 38
3, 30236, Note_on_c, 1, 58, 0
3, 30348, Note_on_c, 1, 55, 37
3, 30444, Control_c, 1, 64, 104
3, 30460, Control_c, 1, 64, 40
3, 30476, Control_c, 1, 64, 0
3, 30536, Control_c, 1, 64, 40
3, 30552, Control_c, 1, 64, 127
3, 30564, Note_on_c, 1, 58, 36
3, 30640, Note_on_c, 1, 58, 0
3, 30788, Note_on_c, 1, 55, 0
3, 30800, Note_on_c, 1, 58, 37
3, 30840, Note_on_c, 1, 52, 0
3, 30892, Note_on_c, 1, 58, 0
3, 31060, Note_on_c, 1, 57, 34
3, 31060, Note_on_c, 1, 54, 35
3, 31144, Control_c, 1, 64, 104
3, 31160, Control_c, 1, 64, 56
3, 31172, Control_c, 1, 64, 0
3, 31264, Control_c, 1, 64, 72
3, 31280, Control_c, 1, 64, 127
3, 31436, Note_on_c, 1, 57, 0
3, 31496, Note_on_c, 1, 54, 0
3, 31848, Note_on_c, 1, 58, 31
3, 31856, Note_on_c, 1, 55, 40
3, 31900, Control_c, 1, 64, 72
3, 31916, Control_c, 1, 64, 0
3, 31992, Control_c, 1, 64, 56
3, 32008, Control_c, 1, 64, 127
3, 32412, Note_on_c, 1, 55, 0
3, 32432, Note_on_c, 1, 58, 0
3, 32700, Note_on_c, 1, 57, 22
3, 32720, Control_c, 1, 64, 88
3, 32728, Note_on_c, 1, 53, 40
3, 32736, Control_c, 1, 64, 24
3, 32752, Control_c, 1, 64, 0
3, 32844, Control_c, 1, 64, 40
3, 32860, Control_c, 1, 64, 104
3, 32876, Control_c, 1, 64, 127
3, 33104, Note_on_c, 1, 57, 0
3, 33196, Note_on_c, 1, 53, 0
3, 33448, Note_on_c, 1, 59, 40
3, 33560, Control_c, 1, 64, 88
3, 33572, Control_c, 1, 64, 24
3, 33588, Control_c, 1, 64, 0
3, 33668, Control_c, 1, 64, 56
3, 33684, Control_c, 1, 64, 127
3, 33940, Note_on_c, 1, 59, 0
3, 34288, Control_c, 1, 64, 56
3, 34300, Control_c, 1, 64, 0
3, 34316, Note_on_c, 1, 48, 49
3, 34408, Control_c, 1, 64, 104
3, 34428, Control_c, 1, 64, 127
3, 34452, Note_on_c, 1, 48, 0
3, 35088, Note_on_c, 1, 57, 37
3, 35500, Note_on_c, 1, 57, 0
3, 35836, Note_on_c, 1, 55, 39
3, 35880, Control_c, 1, 64, 72
3, 35896, Control_c, 1, 64, 0
3, 35976, Control_c, 1, 64, 72
3, 35988, Control_c, 1, 64, 127
3, 36224, Note_on_c, 1, 55, 0
3, 36608, Note_on_c, 1, 53, 47
3, 36608, Note_on_c, 1, 55, 40
3, 36608, Control_c, 1, 64, 72
3, 36624, Control_c, 1, 64, 0
3, 36736, Control_c, 1, 64, 72
3, 36752, Control_c, 1, 64, 127
3, 36860, Note_on_c, 1, 59, 33
3, 36872, Note_on_c, 1, 55, 0
3, 36900, Note_on_c, 1, 59, 0
3, 37084, Note_on_c, 1, 59, 47
3, 37220, Note_on_c, 1, 59, 0
3, 37352, Note_on_c, 1, 55, 31
3, 37544, Note_on_c, 1, 59, 45
3, 37600, Note_on_c, 1, 59, 0
3, 37748, Note_on_c, 1, 55, 0
3, 37784, Note_on_c, 1, 53, 0
3, 37800, Note_on_c, 1, 59, 35
3, 37892, Note_on_c, 1, 59, 0
3, 38052, Note_on_c, 1, 52, 35
3, 38068, Note_on_c, 1, 55, 32
3, 38096, Control_c, 1, 64, 72
3, 38112, Control_c, 1, 64, 24
3, 38128, Control_c, 1, 64, 0
3, 38192, Control_c, 1, 64, 56
3, 38208, Control_c, 1, 64, 127
3, 38280, Note_on_c, 1, 58, 40
3, 38376, Note_on_c, 1, 58, 0
3, 38516, Note_on_c, 1, 52, 0
3, 38568, Note_on_c, 1, 58, 37
3, 38572, Note_on_c, 1, 55, 0
3, 38700, Note_on_c, 1, 58, 0
3, 38932, Note_on_c, 1, 55, 40
3, 38940, Note_on_c, 1, 51, 40
3, 38968, Control_c, 1, 64, 104
3, 38980, Control_c, 1, 64, 40
3, 38996, Control_c, 1, 64, 0
3, 39088, Control_c, 1, 64, 24
3, 39104, Control_c, 1, 64, 88
3, 39120, Control_c, 1, 64, 127
3, 39140, Note_on_c, 1, 58, 38
3, 39220, Note_on_c, 1, 58, 0
3, 39288, Note_on_c, 1, 55, 0
3, 39376, Note_on_c, 1, 58, 45
3, 39556, Note_on_c, 1, 58, 0
3, 39636, Note_on_c, 1, 55, 44
3, 39848, Note_on_c, 1, 58, 42
3, 39936, Note_on_c, 1, 58, 0
3, 40096, Note_on_c, 1, 58, 42
3, 40112, Note_on_c, 1, 55, 0
3, 40164, Note_on_c, 1, 51, 0
3, 40268, Note_on_c, 1, 58, 0
3, 40356, Note_on_c, 1, 54, 45
3, 40356, Note_on_c, 1, 51, 34
3, 40452, Control_c, 1, 64, 88
3, 40468, Control_c, 1, 64, 24
3, 40484, Control_c, 1, 64, 0
3, 40560, Control_c, 1, 64, 56
3, 40576, Control_c, 1, 64, 127
3, 40632, Note_on_c, 1, 57, 40
3, 40672, Note_on_c, 1, 57, 0
3, 40816, Note_on_c, 1, 54, 0
3, 40828, Note_on_c, 1, 51, 0
3, 40872, Note_on_c, 1, 57, 45
3, 41008, Note_on_c, 1, 57, 0
3, 41152, Note_on_c, 1, 55, 49
3, 41168, Note_on_c, 1, 51, 34
3, 41196, Control_c, 1, 64, 40
3, 41212, Control_c, 1, 64, 0
3, 41272, Control_c, 1, 64, 24
3, 41288, Control_c, 1, 64, 88
3, 41304, Control_c, 1, 64, 127
3, 41484, Note_on_c, 1, 57, 39
3, 41540, Note_on_c, 1, 57, 0
3, 41708, Note_on_c, 1, 55, 0
3, 41756, Note_on_c, 1, 57, 26
3, 41764, Note_on_c, 1, 51, 0
3, 41816, Note_on_c, 1, 57, 0
3, 41976, Note_on_c, 1, 54, 29
3, 41976, Note_on_c, 1, 50, 40
3, 42064, Control_c, 1, 64, 56
3, 42080, Control_c, 1, 64, 0
3, 42188, Control_c, 1, 64, 56
3, 42200, Control_c, 1, 64, 127
3, 42284, Note_on_c, 1, 57, 30
3, 42328, Note_on_c, 1, 57, 0
3, 42412, Note_on_c, 1, 54, 0
3, 42428, Note_on_c, 1, 50, 0
3, 42496, Note_on_c, 1, 57, 43
3, 42588, Note_on_c, 1, 57, 0
3, 42744, Note_on_c, 1, 53, 33
3, 42744, Note_on_c, 1, 50, 33
3, 42744, Note_on_c, 1, 59, 36
3, 42868, Control_c, 1, 64, 104
3, 42884, Control_c, 1, 64, 40
3, 42900, Control_c, 1, 64, 0
3, 42980, Control_c, 1, 64, 40
3, 42996, Control_c, 1, 64, 127
3, 43024, Note_on_c, 1, 55, 46
3, 43116, Note_on_c, 1, 55, 0
3, 43132, Note_on_c, 1, 59, 0
3, 43220, Note_on_c, 1, 53, 0
3, 43256, Note_on_c, 1, 50, 0
3, 43296, Note_on_c, 1, 55, 43
3, 43376, Note_on_c, 1, 55, 0
3, 43620, Note_on_c, 1, 48, 53
3, 43656, Control_c, 1, 64, 56
3, 43672, Control_c, 1, 64, 0
3, 43768, Control_c, 1, 64, 88
3, 43784, Control_c, 1, 64, 127
3, 43808, Note_on_c, 1, 48, 0
3, 44512, Note_on_c, 1, 58, 40
3, 44540, Note_on_c, 1, 55, 44
3, 44616, Control_c, 1, 64, 104
3, 44636, Control_c, 1, 64, 40
3, 44652, Control_c, 1, 64, 0
3, 44728, Control_c, 1, 64, 40
3, 44744, Control_c, 1, 64, 127
3, 44824, Note_on_c, 1, 58, 0
3, 45316, Note_on_c, 1, 58, 39
3, 45376, Control_c, 1, 64, 56
3, 45396, Control_c, 1, 64, 0
3, 45456, Control_c, 1, 64, 72
3, 45472, Control_c, 1, 64, 127
3, 45836, Note_on_c, 1, 58, 0
3, 45852, Note_on_c, 1, 55, 0
3, 46220, Note_on_c, 1, 53, 37
3, 46220, Note_on_c, 1, 57, 30
3, 46292, Control_c, 1, 64, 88
3, 46308, Control_c, 1, 64, 24
3, 46324, Control_c, 1, 64, 0
3, 46404, Control_c, 1, 64, 40
3, 46416, Control_c, 1, 64, 104
3, 46432, Control_c, 1, 64, 127
3, 46708, Note_on_c, 1, 57, 0
3, 46760, Note_on_c, 1, 53, 0
3, 47132, Control_c, 1, 64, 72
3, 47144, Control_c, 1, 64, 0
3, 47148, Note_on_c, 1, 47, 51
3, 47224, Control_c, 1, 64, 88
3, 47228, Note_on_c, 1, 47, 0
3, 47236, Control_c, 1, 64, 127
3, 47416, Note_on_c, 1, 56, 49
3, 47468, Note_on_c, 1, 56, 0
3, 47668, Note_on_c, 1, 56, 47
3, 47884, Note_on_c, 1, 56, 0
3, 47944, Note_on_c, 1, 53, 39
3, 47980, Control_c, 1, 64, 56
3, 47992, Control_c, 1, 64, 0
3, 48028, Control_c, 1, 64, 40
3, 48044, Control_c, 1, 64, 88
3, 48060, Control_c, 1, 64, 127
3, 48352, Note_on_c, 1, 56, 34
3, 48408, Note_on_c, 1, 56, 0
3, 48584, Control_c, 1, 64, 72
3, 48604, Control_c, 1, 64, 0
3, 48616, Control_c, 1, 64, 24
3, 48620, Control_c, 1, 64, 72
3, 48636, Control_c, 1, 64, 127
3, 48652, Note_on_c, 1, 56, 32
3, 48764, Note_on_c, 1, 56, 0
3, 48852, Note_on_c, 1, 53, 0
3, 49180, Note_on_c, 1, 36, 44
3, 49192, Control_c, 1, 64, 56
3, 49204, Control_c, 1, 64, 0
3, 49220, Note_on_c, 1, 36, 0
3, 49268, Control_c, 1, 64, 56
3, 49284, Control_c, 1, 64, 127
3, 50012, Note_on_c, 1, 58, 38
3, 50040, Note_on_c, 1, 55, 43
3, 50064, Control_c, 1, 64, 88
3, 50076, Control_c, 1, 64, 24
3, 50092, Control_c, 1, 64, 0
3, 50156, Control_c, 1, 64, 40
3, 50168, Control_c, 1, 64, 127
3, 50328, Note_on_c, 1, 58, 0
3, 50792, Note_on_c, 1, 58, 34
3, 50868, Control_c, 1, 64, 88
3, 50884, Control_c, 1, 64, 0
3, 50944, Control_c, 1, 64, 40
3, 50960, Control_c, 1, 64, 127
3, 51324, Note_on_c, 1, 58, 0
3, 51360, Note_on_c, 1, 55, 0
3, 51792, Note_on_c, 1, 57, 29
3, 51796, Control_c, 1, 64, 104
3, 51808, Note_on_c, 1, 53, 34
3, 51812, Control_c, 1, 64, 24
3, 51824, Control_c, 1, 64, 0
3, 51904, Control_c, 1, 64, 88
3, 51920, Control_c, 1, 64, 127
3, 52036, Note_on_c, 1, 57, 0
3, 52556, Note_on_c, 1, 57, 33
3, 52696, Note_on_c, 1, 53, 0
3, 52956, Note_on_c, 1, 57, 0
3, 53304, Note_on_c, 1, 57, 43
3, 54064, Note_on_c, 1, 57, 29
3, 54104, Control_c, 1, 64, 88
3, 54120, Control_c, 1, 64, 0
3, 54212, Control_c, 1, 64, 56
3, 54228, Control_c, 1, 64, 127
3, 54264, Note_on_c, 1, 58, 37
3, 54360, Note_on_c, 1, 58, 0
3, 54384, Note_on_c, 1, 57, 0
3, 54432, Note_on_c, 1, 57, 0
3, 54496, Note_on_c, 1, 58, 35
3, 54648, Note_on_c, 1, 58, 0
3, 54820, Note_on_c, 1, 55, 29
3, 54848, Control_c, 1, 64, 88
3, 54860, Control_c, 1, 64, 40
3, 54876, Control_c, 1, 64, 24
3, 54892, Control_c, 1, 64, 40
3, 54908, Control_c, 1, 64, 88
3, 54924, Control_c, 1, 64, 127
3, 55024, Note_on_c, 1, 58, 36
3, 55080, Note_on_c, 1, 58, 0
3, 55172, Note_on_c, 1, 55, 0
3, 55264, Note_on_c, 1, 58, 34
3, 55320, Note_on_c, 1, 58, 0
3, 55536, Note_on_c, 1, 55, 22
3, 55752, Note_on_c, 1, 58, 31
3, 55820, Note_on_c, 1, 58, 0
3, 55920, Note_on_c, 1, 55, 0
3, 56012, Note_on_c, 1, 58, 33
3, 56160, Note_on_c, 1, 58, 0
3, 56384, Note_on_c, 1, 55, 29
3, 56392, Note_on_c, 1, 53, 26
3, 56476, Control_c, 1, 64, 104
3, 56492, Control_c, 1, 64, 40
3, 56504, Control_c, 1, 64, 0
3, 56568, Control_c, 1, 64, 24
3, 56580, Control_c, 1, 64, 88
3, 56596, Control_c, 1, 64, 127
3, 56792, Note_on_c, 1, 58, 25
3, 56816, Note_on_c, 1, 55, 0
3, 56960, Note_on_c, 1, 58, 0
3, 57212, Note_on_c, 1, 55, 26
3, 57296, Control_c, 1, 64, 88
3, 57308, Control_c, 1, 64, 24
3, 57328, Control_c, 1, 64, 0
3, 57420, Control_c, 1, 64, 56
3, 57432, Control_c, 1, 64, 127
3, 57556, Note_on_c, 1, 58, 25
3, 57820, Note_on_c, 1, 53, 0
3, 57832, Note_on_c, 1, 58, 0
3, 57844, Note_on_c, 1, 55, 0
3, 58092, Control_c, 1, 64, 24
3, 58100, Control_c, 1, 64, 40
3, 58112, Control_c, 1, 64, 56
3, 58124, Control_c, 1, 64, 72
3, 58132, Control_c, 1, 64, 88
3, 58140, Control_c, 1, 64, 104
3, 58152, Control_c, 1, 64, 127
3, 58168, Note_on_c, 1, 56, 37
3, 58184, Note_on_c, 1, 48, 52
3, 58196, Note_on_c, 1, 41, 30
3, 58260, Note_on_c, 1, 56, 0
3, 58300, Note_on_c, 1, 48, 0
3, 58332, Note_on_c, 1, 47, 50
3, 58420, Note_on_c, 1, 47, 0
3, 58444, Note_on_c, 1, 48, 60
3, 58452, Note_on_c, 1, 56, 43
3, 58504, Note_on_c, 1, 56, 0
3, 58508, Note_on_c, 1, 48, 0
3, 58560, Note_on_c, 1, 49, 56
3, 58624, Note_on_c, 1, 49, 0
3, 58668, Note_on_c, 1, 48, 64
3, 58676, Note_on_c, 1, 56, 44
3, 58728, Note_on_c, 1, 56, 0
3, 58740, Note_on_c, 1, 48, 0
3, 58780, Note_on_c, 1, 47, 59
3, 58872, Note_on_c, 1, 47, 0
3, 58896, Note_on_c, 1, 48, 71
3, 58896, Note_on_c, 1, 56, 44
3, 58956, Note_on_c, 1, 56, 0
3, 59004, Note_on_c, 1, 48, 0
3, 59008, Note_on_c, 1, 46, 65
3, 59116, Note_on_c, 1, 46, 0
3, 59116, Note_on_c, 1, 44, 65
3, 59120, Note_on_c, 1, 41, 0
3, 59124, Note_on_c, 1, 56, 37
3, 59180, Note_on_c, 1, 56, 0
3, 59208, Note_on_c, 1, 44, 0
3, 59216, Note_on_c, 1, 43, 66
3, 59324, Note_on_c, 1, 43, 0
3, 59336, Note_on_c, 1, 41, 64
3, 59348, Note_on_c, 1, 56, 49
3, 59404, Note_on_c, 1, 56, 0
3, 59416, Note_on_c, 1, 41, 0
3, 59448, Note_on_c, 1, 40, 63
3, 59544, Note_on_c, 1, 40, 0
3, 59564, Note_on_c, 1, 41, 71
3, 59572, Note_on_c, 1, 56, 51
3, 59640, Note_on_c, 1, 56, 0
3, 59676, Note_on_c, 1, 39, 65
3, 59684, Note_on_c, 1, 41, 0
3, 59772, Note_on_c, 1, 39, 0
3, 59784, Note_on_c, 1, 37, 64
3, 59796, Note_on_c, 1, 56, 48
3, 59856, Note_on_c, 1, 56, 0
3, 59856, Note_on_c, 1, 37, 0
3, 59884, Note_on_c, 1, 36, 71
3, 59956, Note_on_c, 1, 36, 0
3, 60000, Note_on_c, 1, 56, 63
3, 60004, Note_on_c, 1, 34, 72
3, 60060, Note_on_c, 1, 56, 0
3, 60076, Note_on_c, 1, 34, 0
3, 60112, Note_on_c, 1, 32, 67
3, 60228, Note_on_c, 1, 32, 0
3, 60228, Control_c, 1, 64, 104
3, 60232, Note_on_c, 1, 29, 79
3, 60232, Note_on_c, 1, 58, 62
3, 60236, Control_c, 1, 64, 40
3, 60248, Control_c, 1, 64, 0
3, 60292, Note_on_c, 1, 58, 0
3, 60316, Control_c, 1, 64, 72
3, 60324, Control_c, 1, 64, 127
3, 60344, Note_on_c, 1, 37, 71
3, 60368, Note_on_c, 1, 29, 0
3, 60440, Note_on_c, 1, 37, 0
3, 60456, Note_on_c, 1, 41, 70
3, 60464, Note_on_c, 1, 58, 44
3, 60512, Note_on_c, 1, 41, 0
3, 60524, Note_on_c, 1, 58, 0
3, 60560, Note_on_c, 1, 46, 70
3, 60664, Note_on_c, 1, 46, 0
3, 60676, Note_on_c, 1, 49, 86
3, 60684, Note_on_c, 1, 58, 53
3, 60712, Note_on_c, 1, 49, 0
3, 60752, Note_on_c, 1, 58, 0
3, 60884, Note_on_c, 1, 53, 91
3, 60916, Note_on_c, 1, 58, 54
3, 60924, Note_on_c, 1, 53, 0
3, 60956, Note_on_c, 1, 53, 93
3, 60968, Note_on_c, 1, 58, 0
3, 61148, Note_on_c, 1, 58, 56
3, 61212, Note_on_c, 1, 58, 0
3, 61356, Note_on_c, 1, 58, 50
3, 61428, Note_on_c, 1, 58, 0
3, 61584, Note_on_c, 1, 58, 35
3, 61616, Control_c, 1, 64, 88
3, 61628, Control_c, 1, 64, 40
3, 61636, Control_c, 1, 64, 0
3, 61664, Note_on_c, 1, 58, 0
3, 61680, Control_c, 1, 64, 40
3, 61692, Control_c, 1, 64, 104
3, 61704, Control_c, 1, 64, 127
3, 61800, Note_on_c, 1, 58, 33
3, 61864, Note_on_c, 1, 58, 0
3, 61976, Note_on_c, 1, 53, 0
3, 62008, Note_on_c, 1, 58, 38
3, 62100, Note_on_c, 1, 58, 0
3, 62256, Note_on_c, 1, 41, 58
3, 62260, Note_on_c, 1, 49, 62
3, 62268, Note_on_c, 1, 58, 42
3, 62268, Control_c, 1, 64, 88
3, 62276, Control_c, 1, 64, 40
3, 62288, Control_c, 1, 64, 0
3, 62332, Control_c, 1, 64, 24
3, 62344, Note_on_c, 1, 58, 0
3, 62344, Control_c, 1, 64, 72
3, 62352, Control_c, 1, 64, 127
3, 62360, Note_on_c, 1, 49, 0
3, 62388, Note_on_c, 1, 48, 64
3, 62460, Note_on_c, 1, 48, 0
3, 62484, Note_on_c, 1, 58, 37
3, 62484, Note_on_c, 1, 49, 67
3, 62548, Note_on_c, 1, 58, 0
3, 62572, Note_on_c, 1, 49, 0
3, 62588, Note_on_c, 1, 51, 63
3, 62656, Note_on_c, 1, 51, 0
3, 62692, Note_on_c, 1, 49, 62
3, 62700, Note_on_c, 1, 58, 44
3, 62764, Note_on_c, 1, 49, 0
3, 62772, Note_on_c, 1, 58, 0
3, 62812, Note_on_c, 1, 48, 66
3, 62880, Note_on_c, 1, 48, 0
3, 62920, Note_on_c, 1, 49, 73
3, 62924, Note_on_c, 1, 58, 44
3, 62928, Control_c, 1, 64, 72
3, 62972, Control_c, 1, 64, 127
3, 62988, Note_on_c, 1, 58, 0
3, 63000, Note_on_c, 1, 49, 0
3, 63024, Note_on_c, 1, 48, 72
3, 63096, Note_on_c, 1, 48, 0
3, 63128, Note_on_c, 1, 46, 58
3, 63140, Note_on_c, 1, 58, 40
3, 63196, Note_on_c, 1, 58, 0
3, 63216, Note_on_c, 1, 46, 0
3, 63244, Note_on_c, 1, 45, 66
3, 63320, Note_on_c, 1, 45, 0
3, 63348, Note_on_c, 1, 58, 43
3, 63348, Note_on_c, 1, 46, 70
3, 63416, Note_on_c, 1, 58, 0
3, 63420, Note_on_c, 1, 41, 0
3, 63424, Note_on_c, 1, 46, 0
3, 63452, Note_on_c, 1, 44, 65
3, 63524, Note_on_c, 1, 44, 0
3, 63552, Note_on_c, 1, 43, 74
3, 63564, Note_on_c, 1, 58, 49
3, 63632, Note_on_c, 1, 58, 0
3, 63656, Note_on_c, 1, 43, 0
3, 63668, Note_on_c, 1, 41, 74
3, 63748, Note_on_c, 1, 41, 0
3, 63768, Note_on_c, 1, 39, 62
3, 63776, Note_on_c, 1, 58, 46
3, 63832, Note_on_c, 1, 58, 0
3, 63872, Note_on_c, 1, 37, 53
3, 63896, Note_on_c, 1, 39, 0
3, 63928, Note_on_c, 1, 37, 0
3, 63952, Note_on_c, 1, 36, 54
3, 63980, Note_on_c, 1, 58, 44
3, 64056, Note_on_c, 1, 58, 0
3, 64060, Note_on_c, 1, 34, 72
3, 64064, Note_on_c, 1, 36, 0
3, 64152, Note_on_c, 1, 34, 0
3, 64204, Note_on_c, 1, 58, 62
3, 64208, Control_c, 1, 64, 88
3, 64220, Note_on_c, 1, 24, 59
3, 64220, Control_c, 1, 64, 40
3, 64228, Control_c, 1, 64, 0
3, 64256, Note_on_c, 1, 58, 0
3, 64276, Control_c, 1, 64, 56
3, 64284, Control_c, 1, 64, 127
3, 64324, Note_on_c, 1, 36, 62
3, 64332, Note_on_c, 1, 24, 0
3, 64360, Note_on_c, 1, 36, 0
3, 64424, Note_on_c, 1, 58, 53
3, 64448, Note_on_c, 1, 42, 27
3, 64480, Note_on_c, 1, 58, 0
3, 64484, Note_on_c, 1, 42, 0
3, 64520, Note_on_c, 1, 46, 76
3, 64592, Note_on_c, 1, 46, 0
3, 64616, Note_on_c, 1, 51, 74
3, 64624, Note_on_c, 1, 58, 56
3, 64648, Note_on_c, 1, 51, 0
3, 64672, Note_on_c, 1, 58, 0
3, 65100, Note_on_c, 1, 58, 36
3, 65128, Note_on_c, 1, 58, 0
3, 65300, Note_on_c, 1, 58, 49
3, 65360, Note_on_c, 1, 58, 0
3, 65512, Note_on_c, 1, 57, 63
3, 65576, Note_on_c, 1, 57, 0
3, 65608, Control_c, 1, 64, 72
3, 65616, Control_c, 1, 64, 0
3, 65664, Control_c, 1, 64, 72
3, 65672, Control_c, 1, 64, 127
3, 65724, Note_on_c, 1, 57, 59
3, 65772, Note_on_c, 1, 57, 0
3, 65940, Note_on_c, 1, 57, 51
3, 66000, Note_on_c, 1, 57, 0
3, 66212, Note_on_c, 1, 49, 44
3, 66236, Control_c, 1, 64, 104
3, 66248, Control_c, 1, 64, 40
3, 66260, Control_c, 1, 64, 0
3, 66304, Control_c, 1, 64, 56
3, 66316, Control_c, 1, 64, 127
3, 66864, Note_on_c, 1, 58, 61
3, 66920, Control_c, 1, 64, 72
3, 66932, Control_c, 1, 64, 24
3, 66944, Control_c, 1, 64, 0
3, 66996, Control_c, 1, 64, 40
3, 67008, Control_c, 1, 64, 104
3, 67016, Control_c, 1, 64, 127
3, 67516, Note_on_c, 1, 56, 71
3, 67528, Note_on_c, 1, 58, 0
3, 67572, Control_c, 1, 64, 88
3, 67584, Control_c, 1, 64, 40
3, 67596, Control_c, 1, 64, 0
3, 67628, Control_c, 1, 64, 24
3, 67636, Control_c, 1, 64, 72
3, 67648, Control_c, 1, 64, 127
3, 67936, Note_on_c, 1, 56, 0
3, 68160, Note_on_c, 1, 56, 81
3, 68232, Control_c, 1, 64, 104
3, 68244, Control_c, 1, 64, 56
3, 68256, Control_c, 1, 64, 40
3, 68288, Control_c, 1, 64, 88
3, 68296, Control_c, 1, 64, 127
3, 68684, Note_on_c, 1, 56, 0
3, 68696, Note_on_c, 1, 58, 65
3, 68812, Note_on_c, 1, 54, 78
3, 68828, Note_on_c, 1, 58, 0
3, 68896, Control_c, 1, 64, 88
3, 68908, Control_c, 1, 64, 56
3, 68916, Control_c, 1, 64, 24
3, 68948, Control_c, 1, 64, 88
3, 68960, Control_c, 1, 64, 127
3, 69412, Note_on_c, 1, 54, 0
3, 69444, Note_on_c, 1, 53, 74
3, 69492, Control_c, 1, 64, 88
3, 69504, Control_c, 1, 64, 40
3, 69512, Control_c, 1, 64, 0
3, 69568, Control_c, 1, 64, 72
3, 69580, Control_c, 1, 64, 127
3, 69908, Note_on_c, 1, 53, 0
3, 69956, Note_on_c, 1, 49, 0
3, 70184, Note_on_c, 1, 53, 62
3, 70204, Note_on_c, 1, 49, 47
3, 70212, Note_on_c, 1, 42, 55
3, 70304, Control_c, 1, 64, 104
3, 70316, Control_c, 1, 64, 56
3, 70328, Control_c, 1, 64, 24
3, 70360, Control_c, 1, 64, 104
3, 70372, Control_c, 1, 64, 127
3, 70752, Note_on_c, 1, 53, 0
3, 70856, Note_on_c, 1, 54, 61
3, 70936, Control_c, 1, 64, 72
3, 70948, Control_c, 1, 64, 24
3, 70956, Control_c, 1, 64, 0
3, 71000, Control_c, 1, 64, 56
3, 71012, Control_c, 1, 64, 127
3, 71336, Note_on_c, 1, 54, 0
3, 71488, Note_on_c, 1, 56, 65
3, 71540, Control_c, 1, 64, 56
3, 71552, Control_c, 1, 64, 0
3, 71596, Control_c, 1, 64, 24
3, 71608, Control_c, 1, 64, 72
3, 71620, Control_c, 1, 64, 127
3, 71932, Note_on_c, 1, 42, 0
3, 72040, Note_on_c, 1, 56, 0
3, 72128, Note_on_c, 1, 58, 71
3, 72268, Control_c, 1, 64, 72
3, 72280, Control_c, 1, 64, 56
3, 72300, Control_c, 1, 64, 88
3, 72312, Control_c, 1, 64, 127
3, 72756, Note_on_c, 1, 56, 63
3, 72772, Note_on_c, 1, 58, 0
3, 72812, Control_c, 1, 64, 72
3, 72820, Control_c, 1, 64, 24
3, 72832, Control_c, 1, 64, 0
3, 72876, Control_c, 1, 64, 24
3, 72888, Control_c, 1, 64, 88
3, 72900, Control_c, 1, 64, 127
3, 73432, Control_c, 1, 64, 88
3, 73436, Note_on_c, 1, 56, 0
3, 73440, Control_c, 1, 64, 40
3, 73452, Control_c, 1, 64, 24
3, 73472, Control_c, 1, 64, 56
3, 73484, Control_c, 1, 64, 104
3, 73496, Control_c, 1, 64, 127
3, 73632, Note_on_c, 1, 49, 0
3, 73808, Control_c, 1, 64, 104
3, 73820, Control_c, 1, 64, 56
3, 73832, Control_c, 1, 64, 0
3, 73864, Control_c, 1, 64, 88
3, 73872, Control_c, 1, 64, 127
3, 73888, Note_on_c, 1, 37, 48
3, 73944, Note_on_c, 1, 37, 0
3, 74068, Note_on_c, 1, 53, 54
3, 74688, Note_on_c, 1, 53, 0
3, 74716, Note_on_c, 1, 49, 48
3, 74724, Note_on_c, 1, 54, 40
3, 74804, Control_c, 1, 64, 72
3, 74816, Control_c, 1, 64, 24
3, 74828, Control_c, 1, 64, 0
3, 74860, Control_c, 1, 64, 24
3, 74872, Control_c, 1, 64, 72
3, 74884, Control_c, 1, 64, 127
3, 75372, Note_on_c, 1, 54, 0
3, 75376, Note_on_c, 1, 56, 50
3, 75436, Control_c, 1, 64, 56
3, 75448, Control_c, 1, 64, 0
3, 75504, Control_c, 1, 64, 72
3, 75512, Control_c, 1, 64, 127
3, 76004, Note_on_c, 1, 58, 58
3, 76008, Note_on_c, 1, 56, 0
3, 76120, Control_c, 1, 64, 88
3, 76132, Control_c, 1, 64, 40
3, 76140, Control_c, 1, 64, 0
3, 76172, Control_c, 1, 64, 24
3, 76184, Control_c, 1, 64, 72
3, 76196, Control_c, 1, 64, 127
3, 76632, Note_on_c, 1, 56, 57
3, 76652, Note_on_c, 1, 58, 0
3, 76736, Control_c, 1, 64, 104
3, 76748, Control_c, 1, 64, 56
3, 76760, Control_c, 1, 64, 24
3, 76772, Control_c, 1, 64, 0
3, 76804, Control_c, 1, 64, 56
3, 76816, Control_c, 1, 64, 104
3, 76824, Control_c, 1, 64, 127
3, 77264, Note_on_c, 1, 56, 0
3, 77580, Note_on_c, 1, 49, 0
3, 77756, Control_c, 1, 64, 72
3, 77768, Control_c, 1, 64, 24
3, 77780, Control_c, 1, 64, 0
3, 77792, Control_c, 1, 64, 24
3, 77804, Control_c, 1, 64, 72
3, 77812, Control_c, 1, 64, 127
3, 77840, Note_on_c, 1, 48, 53
3, 77912, Note_on_c, 1, 48, 0
3, 78724, Control_c, 1, 64, 56
3, 78732, Control_c, 1, 64, 0
3, 78776, Control_c, 1, 64, 40
3, 78788, Control_c, 1, 64, 127
3, 79840, Control_c, 1, 64, 88
3, 79872, Control_c, 1, 64, 127
3, 80036, Control_c, 1, 64, 104
3, 80044, Control_c, 1, 64, 72
3, 80068, Control_c, 1, 64, 104
3, 80080, Control_c, 1, 64, 127
3, 80240, Note_on_c, 1, 58, 52
3, 80264, Control_c, 1, 64, 104
3, 80272, Control_c, 1, 64, 40
3, 80284, Control_c, 1, 64, 0
3, 80296, Control_c, 1, 64, 24
3, 80308, Control_c, 1, 64, 56
3, 80316, Control_c, 1, 64, 88
3, 80328, Note_on_c, 1, 58, 0
3, 80328, Control_c, 1, 64, 127
3, 80468, Note_on_c, 1, 56, 43
3, 80480, Control_c, 1, 64, 104
3, 80492, Control_c, 1, 64, 24
3, 80500, Control_c, 1, 64, 0
3, 80524, Control_c, 1, 64, 24
3, 80536, Control_c, 1, 64, 56
3, 80544, Control_c, 1, 64, 104
3, 80548, Note_on_c, 1, 56, 0
3, 80556, Control_c, 1, 64, 127
3, 80692, Note_on_c, 1, 58, 47
3, 80708, Control_c, 1, 64, 104
3, 80716, Control_c, 1, 64, 0
3, 80772, Control_c, 1, 64, 24
3, 80784, Control_c, 1, 64, 88
3, 80792, Note_on_c, 1, 58, 0
3, 80796, Control_c, 1, 64, 127
3, 80932, Note_on_c, 1, 56, 44
3, 80948, Control_c, 1, 64, 88
3, 80960, Control_c, 1, 64, 24
3, 80968, Control_c, 1, 64, 0
3, 80992, Control_c, 1, 64, 40
3, 81000, Control_c, 1, 64, 88
3, 81012, Control_c, 1, 64, 127
3, 81020, Note_on_c, 1, 56, 0
3, 81184, Note_on_c, 1, 55, 48
3, 81196, Control_c, 1, 64, 104
3, 81204, Control_c, 1, 64, 24
3, 81220, Control_c, 1, 64, 0
3, 81240, Control_c, 1, 64, 24
3, 81252, Control_c, 1, 64, 72
3, 81260, Control_c, 1, 64, 127
3, 81268, Note_on_c, 1, 55, 0
3, 81476, Note_on_c, 1, 56, 36
3, 81488, Note_on_c, 1, 48, 51
3, 81488, Note_on_c, 1, 41, 51
3, 81488, Control_c, 1, 64, 24
3, 81500, Control_c, 1, 64, 0
3, 81552, Control_c, 1, 64, 56
3, 81564, Control_c, 1, 64, 127
3, 81568, Note_on_c, 1, 56, 0
3, 81588, Note_on_c, 1, 48, 0
3, 81612, Note_on_c, 1, 47, 54
3, 81684, Note_on_c, 1, 47, 0
3, 81716, Note_on_c, 1, 48, 63
3, 81732, Note_on_c, 1, 56, 23
3, 81764, Note_on_c, 1, 56, 0
3, 81776, Note_on_c, 1, 48, 0
3, 81816, Note_on_c, 1, 49, 64
3, 81888, Note_on_c, 1, 49, 0
3, 81924, Note_on_c, 1, 48, 64
3, 81944, Note_on_c, 1, 56, 28
3, 81988, Note_on_c, 1, 56, 0
3, 82004, Note_on_c, 1, 48, 0
3, 82036, Note_on_c, 1, 47, 60
3, 82104, Note_on_c, 1, 47, 0
3, 82140, Note_on_c, 1, 48, 71
3, 82148, Note_on_c, 1, 56, 45
3, 82216, Note_on_c, 1, 56, 0
3, 82232, Note_on_c, 1, 48, 0
3, 82252, Note_on_c, 1, 46, 71
3, 82304, Note_on_c, 1, 41, 0
3, 82344, Note_on_c, 1, 46, 0
3, 82360, Note_on_c, 1, 44, 63
3, 82360, Note_on_c, 1, 56, 45
3, 82416, Note_on_c, 1, 56, 0
3, 82424, Note_on_c, 1, 44, 0
3, 82460, Note_on_c, 1, 43, 63
3, 82540, Note_on_c, 1, 43, 0
3, 82560, Note_on_c, 1, 41, 68
3, 82568, Note_on_c, 1, 56, 42
3, 82628, Note_on_c, 1, 56, 0
3, 82632, Note_on_c, 1, 41, 0
3, 82660, Note_on_c, 1, 40, 63
3, 82736, Note_on_c, 1, 40, 0
3, 82768, Note_on_c, 1, 41, 76
3, 82776, Note_on_c, 1, 56, 49
3, 82844, Note_on_c, 1, 56, 0
3, 82884, Note_on_c, 1, 39, 67
3, 82896, Note_on_c, 1, 41, 0
3, 82980, Note_on_c, 1, 39, 0
3, 82984, Note_on_c, 1, 56, 49
3, 82988, Note_on_c, 1, 37, 63
3, 83048, Note_on_c, 1, 37, 0
3, 83052, Note_on_c, 1, 56, 0
3, 83088, Note_on_c, 1, 36, 67
3, 83152, Note_on_c, 1, 36, 0
3, 83192, Note_on_c, 1, 56, 53
3, 83196, Note_on_c, 1, 34, 71
3, 83248, Note_on_c, 1, 34, 0
3, 83268, Note_on_c, 1, 56, 0
3, 83296, Note_on_c, 1, 32, 70
3, 83412, Note_on_c, 1, 29, 78
3, 83420, Note_on_c, 1, 32, 0
3, 83420, Note_on_c, 1, 58, 52
3, 83420, Control_c, 1, 64, 104
3, 83432, Control_c, 1, 64, 24
3, 83444, Control_c, 1, 64, 0
3, 83476, Note_on_c, 1, 58, 0
3, 83496, Control_c, 1, 64, 56
3, 83508, Control_c, 1, 64, 127
3, 83516, Note_on_c, 1, 37, 72
3, 83536, Note_on_c, 1, 29, 0
3, 83608, Note_on_c, 1, 37, 0
3, 83624, Note_on_c, 1, 41, 69
3, 83640, Note_on_c, 1, 58, 42
3, 83680, Note_on_c, 1, 41, 0
3, 83696, Note_on_c, 1, 58, 0
3, 83728, Note_on_c, 1, 46, 68
3, 83808, Note_on_c, 1, 46, 0
3, 83840, Note_on_c, 1, 49, 80
3, 83848, Note_on_c, 1, 58, 47
3, 83880, Note_on_c, 1, 49, 0
3, 83924, Note_on_c, 1, 58, 0
3, 84040, Note_on_c, 1, 53, 93
3, 84080, Note_on_c, 1, 53, 0
3, 84084, Note_on_c, 1, 58, 50
3, 84112, Note_on_c, 1, 53, 90
3, 84152, Note_on_c, 1, 58, 0
3, 84312, Note_on_c, 1, 58, 44
3, 84380, Note_on_c, 1, 58, 0
3, 84532, Note_on_c, 1, 58, 46
3, 84608, Note_on_c, 1, 58, 0
3, 84760, Note_on_c, 1, 58, 28
3, 84788, Control_c, 1, 64, 56
3, 84800, Control_c, 1, 64, 0
3, 84844, Note_on_c, 1, 58, 0
3, 84852, Control_c, 1, 64, 56
3, 84864, Control_c, 1, 64, 127
3, 84972, Note_on_c, 1, 58, 39
3, 85036, Note_on_c, 1, 58, 0
3, 85148, Note_on_c, 1, 53, 0
3, 85184, Note_on_c, 1, 58, 37
3, 85280, Note_on_c, 1, 58, 0
3, 85432, Note_on_c, 1, 49, 54
3, 85436, Note_on_c, 1, 58, 39
3, 85440, Control_c, 1, 64, 104
3, 85444, Note_on_c, 1, 41, 39
3, 85448, Control_c, 1, 64, 40
3, 85460, Control_c, 1, 64, 0
3, 85512, Note_on_c, 1, 49, 0
3, 85520, Note_on_c, 1, 58, 0
3, 85536, Control_c, 1, 64, 72
3, 85548, Control_c, 1, 64, 127
3, 85564, Note_on_c, 1, 48, 66
3, 85648, Note_on_c, 1, 48, 0
3, 85656, Note_on_c, 1, 58, 35
3, 85656, Note_on_c, 1, 49, 69
3, 85716, Note_on_c, 1, 58, 0
3, 85720, Note_on_c, 1, 41, 0
3, 85732, Note_on_c, 1, 49, 0
3, 85752, Note_on_c, 1, 51, 55
3, 85812, Note_on_c, 1, 51, 0
3, 85852, Note_on_c, 1, 49, 64
3, 85868, Note_on_c, 1, 58, 38
3, 85924, Note_on_c, 1, 58, 0
3, 85924, Note_on_c, 1, 49, 0
3, 85968, Note_on_c, 1, 48, 70
3, 86032, Note_on_c, 1, 48, 0
3, 86064, Note_on_c, 1, 49, 77
3, 86076, Note_on_c, 1, 58, 43
3, 86128, Note_on_c, 1, 58, 0
3, 86140, Note_on_c, 1, 49, 0
3, 86164, Note_on_c, 1, 48, 75
3, 86248, Note_on_c, 1, 48, 0
3, 86264, Note_on_c, 1, 46, 65
3, 86284, Note_on_c, 1, 58, 44
3, 86348, Note_on_c, 1, 58, 0
3, 86352, Note_on_c, 1, 46, 0
3, 86376, Note_on_c, 1, 45, 68
3, 86456, Note_on_c, 1, 45, 0
3, 86484, Note_on_c, 1, 46, 79
3, 86488, Note_on_c, 1, 58, 43
3, 86544, Note_on_c, 1, 58, 0
3, 86560, Note_on_c, 1, 46, 0
3, 86584, Note_on_c, 1, 44, 69
3, 86656, Note_on_c, 1, 44, 0
3, 86676, Note_on_c, 1, 43, 79
3, 86692, Note_on_c, 1, 58, 47
3, 86756, Note_on_c, 1, 58, 0
3, 86756, Note_on_c, 1, 43, 0
3, 86792, Note_on_c, 1, 41, 74
3, 86864, Note_on_c, 1, 41, 0
3, 86888, Note_on_c, 1, 39, 58
3, 86892, Note_on_c, 1, 58, 55
3, 86956, Note_on_c, 1, 58, 0
3, 86980, Note_on_c, 1, 37, 46
3, 86992, Note_on_c, 1, 39, 0
3, 87040, Note_on_c, 1, 37, 0
3, 87084, Note_on_c, 1, 36, 56
3, 87108, Note_on_c, 1, 58, 46
3, 87168, Note_on_c, 1, 58, 0
3, 87180, Note_on_c, 1, 36, 0
3, 87192, Note_on_c, 1, 32, 33
3, 87228, Note_on_c, 1, 33, 24
3, 87256, Note_on_c, 1, 32, 0
3, 87260, Note_on_c, 1, 33, 0
3, 87328, Control_c, 1, 64, 104
3, 87336, Note_on_c, 1, 58, 64
3, 87340, Note_on_c, 1, 24, 74
3, 87340, Control_c, 1, 64, 24
3, 87348, Control_c, 1, 64, 0
3, 87392, Note_on_c, 1, 58, 0
3, 87404, Control_c, 1, 64, 72
3, 87412, Control_c, 1, 64, 127
3, 87440, Note_on_c, 1, 24, 0
3, 87444, Note_on_c, 1, 36, 70
3, 87464, Note_on_c, 1, 36, 0
3, 87552, Note_on_c, 1, 42, 65
3, 87564, Note_on_c, 1, 58, 43
3, 87608, Note_on_c, 1, 58, 0
3, 87616, Note_on_c, 1, 42, 0
3, 87640, Note_on_c, 1, 46, 73
3, 87724, Note_on_c, 1, 46, 0
3, 87740, Note_on_c, 1, 51, 80
3, 87756, Note_on_c, 1, 58, 53
3, 87780, Note_on_c, 1, 51, 0
3, 87804, Note_on_c, 1, 58, 0
3, 88212, Note_on_c, 1, 58, 61
3, 88248, Control_c, 1, 64, 104
3, 88260, Note_on_c, 1, 58, 0
3, 88260, Control_c, 1, 64, 88
3, 88272, Control_c, 1, 64, 104
3, 88280, Control_c, 1, 64, 127
3, 88424, Note_on_c, 1, 58, 52
3, 88480, Note_on_c, 1, 58, 0
3, 88640, Note_on_c, 1, 57, 57
3, 88688, Note_on_c, 1, 57, 0
3, 88716, Control_c, 1, 64, 40
3, 88728, Control_c, 1, 64, 0
3, 88748, Control_c, 1, 64, 56
3, 88760, Control_c, 1, 64, 127
3, 88852, Note_on_c, 1, 57, 51
3, 88896, Note_on_c, 1, 57, 0
3, 89068, Note_on_c, 1, 57, 49
3, 89112, Note_on_c, 1, 57, 0
3, 89348, Note_on_c, 1, 56, 41
3, 89360, Note_on_c, 1, 44, 51
3, 89368, Note_on_c, 1, 51, 74
3, 89400, Control_c, 1, 64, 56
3, 89412, Control_c, 1, 64, 0
3, 89476, Control_c, 1, 64, 88
3, 89484, Control_c, 1, 64, 127
3, 89660, Note_on_c, 1, 51, 0
3, 89860, Note_on_c, 1, 53, 71
3, 89936, Note_on_c, 1, 53, 0
3, 89968, Note_on_c, 1, 49, 72
3, 90040, Control_c, 1, 64, 40
3, 90048, Control_c, 1, 64, 0
3, 90096, Control_c, 1, 64, 40
3, 90104, Control_c, 1, 64, 127
3, 90560, Note_on_c, 1, 49, 0
3, 90560, Note_on_c, 1, 56, 0
3, 90580, Note_on_c, 1, 48, 77
3, 90588, Note_on_c, 1, 44, 0
3, 90636, Control_c, 1, 64, 56
3, 90648, Control_c, 1, 64, 0
3, 90688, Control_c, 1, 64, 24
3, 90700, Control_c, 1, 64, 104
3, 90712, Control_c, 1, 64, 127
3, 90900, Note_on_c, 1, 48, 0
3, 91204, Note_on_c, 1, 47, 81
3, 91216, Note_on_c, 1, 35, 65
3, 91264, Control_c, 1, 64, 56
3, 91276, Control_c, 1, 64, 0
3, 91320, Control_c, 1, 64, 56
3, 91328, Control_c, 1, 64, 127
3, 91588, Note_on_c, 1, 47, 0
3, 91592, Note_on_c, 1, 35, 0
3, 91704, Note_on_c, 1, 48, 82
3, 91720, Note_on_c, 1, 36, 55
3, 91732, Note_on_c, 1, 48, 0
3, 91748, Note_on_c, 1, 36, 0
3, 91828, Note_on_c, 1, 44, 76
3, 91832, Note_on_c, 1, 32, 70
3, 91896, Control_c, 1, 64, 40
3, 91904, Control_c, 1, 64, 0
3, 91956, Control_c, 1, 64, 40
3, 91972, Control_c, 1, 64, 127
3, 92596, Note_on_c, 1, 32, 0
3, 92624, Note_on_c, 1, 44, 0
3, 93044, Note_on_c, 1, 58, 64
3, 93052, Note_on_c, 1, 53, 73
3, 93056, Note_on_c, 1, 46, 57
3, 93132, Control_c, 1, 64, 88
3, 93144, Control_c, 1, 64, 0
3, 93196, Control_c, 1, 64, 24
3, 93204, Control_c, 1, 64, 88
3, 93220, Control_c, 1, 64, 127
3, 93300, Note_on_c, 1, 53, 0
3, 93552, Note_on_c, 1, 54, 78
3, 93580, Note_on_c, 1, 46, 0
3, 93644, Note_on_c, 1, 54, 0
3, 93652, Note_on_c, 1, 51, 79
3, 93724, Control_c, 1, 64, 104
3, 93740, Control_c, 1, 64, 40
3, 93748, Control_c, 1, 64, 0
3, 93772, Control_c, 1, 64, 56
3, 93780, Control_c, 1, 64, 104
3, 93792, Control_c, 1, 64, 127
3, 94244, Note_on_c, 1, 51, 0
3, 94252, Note_on_c, 1, 50, 83
3, 94304, Control_c, 1, 64, 56
3, 94312, Control_c, 1, 64, 0
3, 94368, Control_c, 1, 64, 72
3, 94380, Control_c, 1, 64, 127
3, 94524, Note_on_c, 1, 58, 0
3, 94544, Note_on_c, 1, 50, 0
3, 94864, Note_on_c, 1, 49, 81
3, 94868, Note_on_c, 1, 37, 69
3, 94932, Control_c, 1, 64, 72
3, 94944, Control_c, 1, 64, 0
3, 94988, Control_c, 1, 64, 40
3, 94996, Control_c, 1, 64, 104
3, 95008, Control_c, 1, 64, 127
3, 95172, Note_on_c, 1, 37, 0
3, 95228, Note_on_c, 1, 49, 0
3, 95368, Note_on_c, 1, 50, 82
3, 95380, Note_on_c, 1, 38, 64
3, 95404, Note_on_c, 1, 38, 0
3, 95412, Note_on_c, 1, 50, 0
3, 95484, Note_on_c, 1, 46, 78
3, 95496, Note_on_c, 1, 34, 71
3, 95540, Control_c, 1, 64, 56
3, 95552, Control_c, 1, 64, 0
3, 95604, Control_c, 1, 64, 40
3, 95616, Control_c, 1, 64, 127
3, 96028, Control_c, 1, 64, 56
3, 96040, Control_c, 1, 64, 24
3, 96072, Control_c, 1, 64, 88
3, 96080, Control_c, 1, 64, 127
3, 96388, Note_on_c, 1, 34, 0
3, 96420, Note_on_c, 1, 46, 0
3, 96744, Control_c, 1, 64, 56
3, 96756, Control_c, 1, 64, 0
3, 96764, Note_on_c, 1, 46, 55
3, 96796, Control_c, 1, 64, 56
3, 96808, Control_c, 1, 64, 127
3, 96816, Note_on_c, 1, 46, 0
3, 97008, Note_on_c, 1, 58, 37
3, 97060, Note_on_c, 1, 58, 0
3, 97196, Note_on_c, 1, 58, 43
3, 97264, Note_on_c, 1, 58, 0
3, 97424, Note_on_c, 1, 58, 34
3, 97504, Note_on_c, 1, 58, 0
3, 97564, Note_on_c, 1, 51, 48
3, 97588, Control_c, 1, 64, 88
3, 97600, Control_c, 1, 64, 0
3, 97664, Control_c, 1, 64, 56
3, 97668, Note_on_c, 1, 58, 37
3, 97676, Control_c, 1, 64, 127
3, 97744, Note_on_c, 1, 58, 0
3, 97872, Note_on_c, 1, 58, 32
3, 97944, Note_on_c, 1, 58, 0
3, 98060, Note_on_c, 1, 51, 0
3, 98064, Note_on_c, 1, 58, 42
3, 98088, Note_on_c, 1, 58, 0
3, 98200, Note_on_c, 1, 46, 50
3, 98208, Control_c, 1, 64, 56
3, 98220, Control_c, 1, 64, 0
3, 98252, Note_on_c, 1, 46, 0
3, 98272, Control_c, 1, 64, 40
3, 98284, Control_c, 1, 64, 127
3, 98396, Note_on_c, 1, 58, 34
3, 98452, Note_on_c, 1, 58, 0
3, 98588, Note_on_c, 1, 58, 40
3, 98660, Note_on_c, 1, 58, 0
3, 98808, Note_on_c, 1, 58, 37
3, 98896, Note_on_c, 1, 58, 0
3, 98956, Note_on_c, 1, 51, 43
3, 98956, Control_c, 1, 64, 104
3, 98968, Control_c, 1, 64, 40
3, 98980, Control_c, 1, 64, 0
3, 99056, Note_on_c, 1, 58, 29
3, 99064, Control_c, 1, 64, 104
3, 99076, Control_c, 1, 64, 127
3, 99128, Note_on_c, 1, 58, 0
3, 99264, Note_on_c, 1, 58, 37
3, 99344, Note_on_c, 1, 58, 0
3, 99464, Note_on_c, 1, 58, 29
3, 99484, Note_on_c, 1, 51, 0
3, 99488, Note_on_c, 1, 58, 0
3, 99584, Control_c, 1, 64, 104
3, 99592, Note_on_c, 1, 44, 49
3, 99596, Control_c, 1, 64, 24
3, 99608, Control_c, 1, 64, 0
3, 99648, Note_on_c, 1, 44, 0
3, 99652, Control_c, 1, 64, 56
3, 99660, Control_c, 1, 64, 127
3, 99820, Note_on_c, 1, 56, 30
3, 99884, Note_on_c, 1, 56, 0
3, 100044, Note_on_c, 1, 56, 42
3, 100112, Note_on_c, 1, 56, 0
3, 100300, Note_on_c, 1, 56, 36
3, 100396, Note_on_c, 1, 56, 0
3, 100480, Note_on_c, 1, 49, 41
3, 100488, Control_c, 1, 64, 104
3, 100496, Control_c, 1, 64, 24
3, 100508, Control_c, 1, 64, 0
3, 100596, Note_on_c, 1, 56, 32
3, 100596, Control_c, 1, 64, 72
3, 100604, Control_c, 1, 64, 127
3, 100672, Note_on_c, 1, 56, 0
3, 100804, Note_on_c, 1, 56, 33
3, 100876, Note_on_c, 1, 56, 0
3, 101032, Note_on_c, 1, 56, 36
3, 101100, Note_on_c, 1, 56, 0
3, 101276, Note_on_c, 1, 56, 31
3, 101340, Note_on_c, 1, 56, 0
3, 101492, Note_on_c, 1, 56, 35
3, 101568, Note_on_c, 1, 56, 0
3, 101672, Note_on_c, 1, 49, 0
3, 101892, Note_on_c, 1, 41, 49
3, 101908, Control_c, 1, 64, 40
3, 101916, Control_c, 1, 64, 0
3, 101960, Note_on_c, 1, 41, 0
3, 101972, Control_c, 1, 64, 88
3, 101984, Control_c, 1, 64, 127
3, 101992, Note_on_c, 1, 57, 40
3, 102068, Note_on_c, 1, 57, 0
3, 102144, Note_on_c, 1, 53, 28
3, 102180, Note_on_c, 1, 53, 0
3, 102248, Note_on_c, 1, 57, 40
3, 102332, Note_on_c, 1, 57, 0
3, 102372, Note_on_c, 1, 53, 34
3, 102440, Note_on_c, 1, 53, 0
3, 102496, Note_on_c, 1, 57, 34
3, 102544, Note_on_c, 1, 57, 0
3, 102652, Note_on_c, 1, 53, 33
3, 102784, Note_on_c, 1, 53, 0
3, 102828, Note_on_c, 1, 58, 36
3, 102844, Note_on_c, 1, 46, 45
3, 102852, Control_c, 1, 64, 104
3, 102864, Control_c, 1, 64, 0
3, 102948, Control_c, 1, 64, 88
3, 102960, Note_on_c, 1, 58, 0
3, 102960, Control_c, 1, 64, 127
3, 103008, Note_on_c, 1, 53, 14
3, 103044, Note_on_c, 1, 53, 0
3, 103084, Note_on_c, 1, 58, 26
3, 103184, Note_on_c, 1, 58, 0
3, 103208, Note_on_c, 1, 53, 27
3, 103264, Note_on_c, 1, 53, 0
3, 103308, Note_on_c, 1, 58, 29
3, 103416, Note_on_c, 1, 58, 0
3, 103460, Note_on_c, 1, 53, 24
3, 103496, Note_on_c, 1, 53, 0
3, 103552, Note_on_c, 1, 58, 26
3, 103664, Note_on_c, 1, 58, 0
3, 103696, Note_on_c, 1, 53, 30
3, 103736, Note_on_c, 1, 53, 0
3, 103812, Note_on_c, 1, 58, 27
3, 103932, Note_on_c, 1, 58, 0
3, 103964, Note_on_c, 1, 53, 27
3, 104004, Note_on_c, 1, 53, 0
3, 104072, Note_on_c, 1, 58, 25
3, 104192, Note_on_c, 1, 58, 0
3, 104224, Note_on_c, 1, 53, 30
3, 104336, Note_on_c, 1, 53, 0
3, 104380, Note_on_c, 1, 58, 23
3, 104444, Control_c, 1, 64, 88
3, 104456, Control_c, 1, 64, 0
3, 104512, Note_on_c, 1, 58, 0
3, 104520, Control_c, 1, 64, 88
3, 104524, Note_on_c, 1, 53, 39
3, 104532, Control_c, 1, 64, 127
3, 104628, Note_on_c, 1, 53, 0
3, 104672, Note_on_c, 1, 58, 26
3, 104808, Note_on_c, 1, 58, 0
3, 104820, Note_on_c, 1, 53, 36
3, 104916, Note_on_c, 1, 53, 0
3, 104980, Note_on_c, 1, 58, 23
3, 105052, Control_c, 1, 64, 56
3, 105064, Control_c, 1, 64, 0
3, 105128, Control_c, 1, 64, 72
3, 105140, Control_c, 1, 64, 127
3, 105188, Note_on_c, 1, 58, 0
3, 105204, Note_on_c, 1, 53, 29
3, 105228, Note_on_c, 1, 46, 0
3, 105236, Note_on_c, 1, 53, 0
3, 105440, Control_c, 1, 64, 40
3, 105456, Control_c, 1, 64, 0
3, 105496, Control_c, 1, 64, 40
3, 105508, Control_c, 1, 64, 127
3, 105536, Note_on_c, 1, 41, 43
3, 105612, Note_on_c, 1, 41, 0
3, 105876, Control_c, 1, 64, 56
3, 105936, Control_c, 1, 64, 72
3, 106004, Control_c, 1, 64, 88
3, 106032, Control_c, 1, 64, 104
3, 106048, Control_c, 1, 64, 127
3, 106656, Note_on_c, 1, 57, 36
3, 107052, Note_on_c, 1, 57, 0
3, 107360, Note_on_c, 1, 57, 37
3, 107764, Note_on_c, 1, 57, 0
3, 108032, Note_on_c, 1, 57, 34
3, 108032, Note_on_c, 1, 53, 38
3, 108108, Control_c, 1, 64, 104
3, 108120, Control_c, 1, 64, 56
3, 108136, Control_c, 1, 64, 0
3, 108232, Control_c, 1, 64, 72
3, 108248, Control_c, 1, 64, 127
3, 108260, Note_on_c, 1, 58, 42
3, 108320, Note_on_c, 1, 57, 0
3, 108340, Note_on_c, 1, 58, 0
3, 108488, Note_on_c, 1, 58, 35
3, 108656, Note_on_c, 1, 58, 0
3, 108760, Note_on_c, 1, 55, 42
3, 108816, Control_c, 1, 64, 104
3, 108832, Control_c, 1, 64, 56
3, 108844, Control_c, 1, 64, 0
3, 108928, Control_c, 1, 64, 24
3, 108944, Control_c, 1, 64, 88
3, 108956, Note_on_c, 1, 58, 42
3, 108956, Control_c, 1, 64, 127
3, 109036, Note_on_c, 1, 58, 0
3, 109072, Note_on_c, 1, 55, 0
3, 109188, Note_on_c, 1, 58, 38
3, 109356, Note_on_c, 1, 58, 0
3, 109424, Note_on_c, 1, 55, 34
3, 109632, Note_on_c, 1, 58, 42
3, 109700, Note_on_c, 1, 55, 0
3, 109720, Note_on_c, 1, 58, 0
3, 109816, Note_on_c, 1, 53, 0
3, 109864, Note_on_c, 1, 58, 42
3, 109992, Note_on_c, 1, 58, 0
3, 110080, Note_on_c, 1, 55, 24
3, 110080, Note_on_c, 1, 53, 40
3, 110168, Control_c, 1, 64, 72
3, 110180, Control_c, 1, 64, 0
3, 110236, Note_on_c, 1, 55, 0
3, 110288, Note_on_c, 1, 58, 42
3, 110292, Control_c, 1, 64, 24
3, 110308, Control_c, 1, 64, 88
3, 110320, Control_c, 1, 64, 127
3, 110372, Note_on_c, 1, 58, 0
3, 110520, Note_on_c, 1, 58, 38
3, 110684, Note_on_c, 1, 58, 0
3, 110784, Note_on_c, 1, 55, 29
3, 110832, Control_c, 1, 64, 88
3, 110848, Control_c, 1, 64, 24
3, 110860, Control_c, 1, 64, 0
3, 110960, Control_c, 1, 64, 72
3, 110976, Control_c, 1, 64, 127
3, 110996, Note_on_c, 1, 58, 43
3, 111024, Note_on_c, 1, 55, 0
3, 111064, Note_on_c, 1, 58, 0
3, 111224, Note_on_c, 1, 58, 31
3, 111260, Note_on_c, 1, 58, 0
3, 111480, Note_on_c, 1, 55, 34
3, 111680, Note_on_c, 1, 58, 45
3, 111772, Note_on_c, 1, 58, 0
3, 111872, Note_on_c, 1, 53, 0
3, 111880, Note_on_c, 1, 55, 0
3, 111928, Note_on_c, 1, 58, 31
3, 112040, Note_on_c, 1, 58, 0
3, 112196, Note_on_c, 1, 53, 40
3, 112240, Control_c, 1, 64, 104
3, 112252, Control_c, 1, 64, 40
3, 112268, Control_c, 1, 64, 0
3, 112380, Control_c, 1, 64, 72
3, 112396, Control_c, 1, 64, 127
3, 112400, Note_on_c, 1, 57, 52
3, 112488, Note_on_c, 1, 57, 0
3, 112604, Note_on_c, 1, 53, 0
3, 112636, Note_on_c, 1, 57, 47
3, 112796, Note_on_c, 1, 57, 0
3, 112900, Note_on_c, 1, 52, 43
3, 112900, Note_on_c, 1, 55, 42
3, 112964, Control_c, 1, 64, 72
3, 112976, Control_c, 1, 64, 0
3, 113060, Control_c, 1, 64, 56
3, 113076, Control_c, 1, 64, 127
3, 113080, Note_on_c, 1, 52, 0
3, 113092, Note_on_c, 1, 57, 44
3, 113164, Note_on_c, 1, 57, 0
3, 113300, Note_on_c, 1, 55, 0
3, 113340, Note_on_c, 1, 57, 34
3, 113460, Note_on_c, 1, 57, 0
3, 113572, Note_on_c, 1, 53, 39
3, 113572, Note_on_c, 1, 50, 39
3, 113672, Control_c, 1, 64, 104
3, 113688, Control_c, 1, 64, 56
3, 113700, Control_c, 1, 64, 24
3, 113716, Control_c, 1, 64, 0
3, 113804, Control_c, 1, 64, 40
3, 113816, Note_on_c, 1, 57, 35
3, 113816, Control_c, 1, 64, 104
3, 113832, Control_c, 1, 64, 127
3, 113888, Note_on_c, 1, 57, 0
3, 114012, Note_on_c, 1, 53, 0
3, 114040, Note_on_c, 1, 50, 0
3, 114080, Note_on_c, 1, 57, 28
3, 114172, Note_on_c, 1, 57, 0
3, 114404, Note_on_c, 1, 53, 38
3, 114404, Note_on_c, 1, 59, 39
3, 114424, Note_on_c, 1, 50, 39
3, 114500, Control_c, 1, 64, 104
3, 114512, Control_c, 1, 64, 56
3, 114528, Control_c, 1, 64, 0
3, 114612, Control_c, 1, 64, 56
3, 114624, Control_c, 1, 64, 104
3, 114636, Note_on_c, 1, 55, 47
3, 114640, Control_c, 1, 64, 127
3, 114716, Note_on_c, 1, 55, 0
3, 114788, Note_on_c, 1, 59, 0
3, 114804, Note_on_c, 1, 53, 0
3, 114852, Note_on_c, 1, 50, 0
3, 114872, Note_on_c, 1, 55, 49
3, 115032, Note_on_c, 1, 55, 0
3, 115148, Note_on_c, 1, 58, 30
3, 115148, Note_on_c, 1, 53, 37
3, 115148, Note_on_c, 1, 49, 37
3, 115208, Control_c, 1, 64, 72
3, 115224, Control_c, 1, 64, 0
3, 115320, Control_c, 1, 64, 24
3, 115336, Control_c, 1, 64, 88
3, 115348, Control_c, 1, 64, 127
3, 115360, Note_on_c, 1, 55, 50
3, 115444, Note_on_c, 1, 55, 0
3, 115560, Note_on_c, 1, 53, 0
3, 115592, Note_on_c, 1, 58, 0
3, 115596, Note_on_c, 1, 55, 50
3, 115660, Note_on_c, 1, 49, 0
3, 115756, Note_on_c, 1, 55, 0
3, 115944, Note_on_c, 1, 58, 41
3, 115944, Note_on_c, 1, 52, 36
3, 115944, Note_on_c, 1, 48, 47
3, 116016, Control_c, 1, 64, 72
3, 116032, Control_c, 1, 64, 24
3, 116044, Control_c, 1, 64, 0
3, 116128, Control_c, 1, 64, 40
3, 116144, Control_c, 1, 64, 127
3, 116204, Note_on_c, 1, 55, 43
3, 116292, Note_on_c, 1, 55, 0
3, 116412, Note_on_c, 1, 58, 0
3, 116420, Note_on_c, 1, 52, 0
3, 116448, Note_on_c, 1, 48, 0
3, 116464, Note_on_c, 1, 55, 40
3, 116516, Note_on_c, 1, 55, 0
3, 116712, Note_on_c, 1, 52, 43
3, 116716, Note_on_c, 1, 48, 42
3, 116716, Note_on_c, 1, 57, 42
3, 116728, Control_c, 1, 64, 72
3, 116740, Control_c, 1, 64, 24
3, 116756, Control_c, 1, 64, 0
3, 116856, Control_c, 1, 64, 72
3, 116872, Control_c, 1, 64, 127
3, 116936, Note_on_c, 1, 53, 48
3, 117028, Note_on_c, 1, 53, 0
3, 117080, Note_on_c, 1, 57, 0
3, 117084, Note_on_c, 1, 52, 0
3, 117168, Note_on_c, 1, 48, 0
3, 117176, Note_on_c, 1, 53, 35
3, 117264, Note_on_c, 1, 53, 0
3, 117384, Note_on_c, 1, 57, 37
3, 117396, Note_on_c, 1, 47, 37
3, 117404, Note_on_c, 1, 50, 35
3, 117424, Control_c, 1, 64, 56
3, 117436, Control_c, 1, 64, 0
3, 117524, Control_c, 1, 64, 72
3, 117540, Control_c, 1, 64, 127
3, 117608, Note_on_c, 1, 53, 48
3, 117692, Note_on_c, 1, 53, 0
3, 117872, Note_on_c, 1, 53, 41
3, 117888, Note_on_c, 1, 57, 0
3, 117904, Note_on_c, 1, 50, 0
3, 117984, Note_on_c, 1, 53, 0
3, 118140, Note_on_c, 1, 57, 31
3, 118152, Note_on_c, 1, 50, 37
3, 118160, Control_c, 1, 64, 72
3, 118176, Control_c, 1, 64, 0
3, 118264, Control_c, 1, 64, 40
3, 118276, Control_c, 1, 64, 104
3, 118292, Control_c, 1, 64, 127
3, 118500, Note_on_c, 1, 53, 42
3, 118588, Note_on_c, 1, 53, 0
3, 118836, Note_on_c, 1, 57, 0
3, 118848, Note_on_c, 1, 53, 36
3, 118900, Note_on_c, 1, 47, 0
3, 118916, Note_on_c, 1, 53, 0
3, 118928, Note_on_c, 1, 50, 0
3, 119140, Note_on_c, 1, 50, 40
3, 119144, Note_on_c, 1, 56, 39
3, 119148, Note_on_c, 1, 47, 40
3, 119184, Control_c, 1, 64, 104
3, 119200, Control_c, 1, 64, 40
3, 119216, Control_c, 1, 64, 0
3, 119368, Control_c, 1, 64, 56
3, 119376, Note_on_c, 1, 52, 48
3, 119384, Control_c, 1, 64, 104
3, 119396, Control_c, 1, 64, 127
3, 119468, Note_on_c, 1, 52, 0
3, 119564, Note_on_c, 1, 50, 0
3, 119564, Note_on_c, 1, 56, 0
3, 119596, Note_on_c, 1, 47, 0
3, 119628, Note_on_c, 1, 52, 48
3, 119720, Note_on_c, 1, 52, 0
3, 119872, Note_on_c, 1, 57, 42
3, 119872, Note_on_c, 1, 48, 40
3, 119872, Note_on_c, 1, 45, 45
3, 119952, Control_c, 1, 64, 104
3, 119968, Control_c, 1, 64, 40
3, 119980, Control_c, 1, 64, 0
3, 120052, Control_c, 1, 64, 72
3, 120064, Control_c, 1, 64, 127
3, 120148, Note_on_c, 1, 52, 52
3, 120212, Note_on_c, 1, 57, 0
3, 120224, Note_on_c, 1, 48, 0
3, 120232, Note_on_c, 1, 52, 0
3, 120320, Note_on_c, 1, 45, 0
3, 120388, Note_on_c, 1, 52, 60
3, 120424, Note_on_c, 1, 52, 0
3, 120564, Control_c, 1, 64, 56
3, 120576, Control_c, 1, 64, 0
3, 120584, Note_on_c, 1, 41, 46
3, 120592, Note_on_c, 1, 47, 43
3, 120632, Note_on_c, 1, 41, 0
3, 120636, Control_c, 1, 64, 40
3, 120648, Control_c, 1, 64, 127
3, 120728, Note_on_c, 1, 57, 51
3, 120836, Note_on_c, 1, 57, 0
3, 120884, Note_on_c, 1, 47, 0
3, 121016, Note_on_c, 1, 50, 47
3, 121084, Note_on_c, 1, 50, 0
3, 121272, Note_on_c, 1, 50, 46
3, 121320, Note_on_c, 1, 50, 0
3, 121508, Note_on_c, 1, 40, 49
3, 121512, Control_c, 1, 64, 56
3, 121528, Control_c, 1, 64, 0
3, 121540, Note_on_c, 1, 47, 47
3, 121568, Note_on_c, 1, 40, 0
3, 121628, Control_c, 1, 64, 56
3, 121636, Note_on_c, 1, 47, 0
3, 121644, Control_c, 1, 64, 127
3, 121664, Note_on_c, 1, 56, 44
3, 121796, Note_on_c, 1, 56, 0
3, 121916, Note_on_c, 1, 59, 39
3, 121976, Note_on_c, 1, 59, 0
3, 122144, Note_on_c, 1, 59, 49
3, 122288, Note_on_c, 1, 59, 0
3, 122376, Note_on_c, 1, 56, 31
3, 122408, Control_c, 1, 64, 104
3, 122424, Control_c, 1, 64, 40
3, 122436, Control_c, 1, 64, 0
3, 122492, Control_c, 1, 64, 72
3, 122508, Control_c, 1, 64, 127
3, 122620, Note_on_c, 1, 59, 40
3, 122692, Note_on_c, 1, 59, 0
3, 122844, Note_on_c, 1, 56, 0
3, 122892, Note_on_c, 1, 59, 40
3, 122940, Note_on_c, 1, 59, 0
3, 123196, Note_on_c, 1, 58, 35
3, 123196, Note_on_c, 1, 55, 39
3, 123260, Control_c, 1, 64, 88
3, 123272, Control_c, 1, 64, 24
3, 123288, Control_c, 1, 64, 0
3, 123376, Control_c, 1, 64, 72
3, 123388, Control_c, 1, 64, 127
3, 124044, Control_c, 1, 64, 104
3, 124056, Control_c, 1, 64, 24
3, 124072, Control_c, 1, 64, 0
3, 124128, Control_c, 1, 64, 24
3, 124140, Control_c, 1, 64, 88
3, 124156, Control_c, 1, 64, 127
3, 124204, Note_on_c, 1, 55, 0
3, 124244, Note_on_c, 1, 58, 0
3, 124548, Note_on_c, 1, 57, 38
3, 124548, Note_on_c, 1, 53, 39
3, 124624, Control_c, 1, 64, 104
3, 124636, Control_c, 1, 64, 40
3, 124656, Control_c, 1, 64, 0
3, 124748, Control_c, 1, 64, 56
3, 124764, Control_c, 1, 64, 127
3, 125008, Note_on_c, 1, 57, 0
3, 125304, Note_on_c, 1, 57, 34
3, 125700, Note_on_c, 1, 57, 0
3, 125776, Note_on_c, 1, 53, 0
3, 125976, Control_c, 1, 64, 56
3, 125988, Note_on_c, 1, 53, 39
3, 125988, Note_on_c, 1, 57, 37
3, 125988, Control_c, 1, 64, 0
3, 126044, Control_c, 1, 64, 24
3, 126060, Control_c, 1, 64, 88
3, 126072, Control_c, 1, 64, 127
3, 126452, Note_on_c, 1, 57, 0
3, 126520, Note_on_c, 1, 53, 0
3, 126720, Note_on_c, 1, 57, 39
3, 126728, Control_c, 1, 64, 88
3, 126736, Note_on_c, 1, 53, 40
3, 126740, Control_c, 1, 64, 0
3, 126828, Control_c, 1, 64, 72
3, 126836, Control_c, 1, 64, 127
3, 126960, Note_on_c, 1, 58, 38
3, 127104, Note_on_c, 1, 58, 0
3, 127116, Note_on_c, 1, 57, 0
3, 127228, Note_on_c, 1, 58, 41
3, 127312, Note_on_c, 1, 53, 0
3, 127340, Note_on_c, 1, 58, 0
3, 127496, Note_on_c, 1, 55, 36
3, 127504, Note_on_c, 1, 53, 35
3, 127536, Control_c, 1, 64, 72
3, 127552, Control_c, 1, 64, 0
3, 127636, Control_c, 1, 64, 24
3, 127648, Control_c, 1, 64, 88
3, 127664, Control_c, 1, 64, 127
3, 127712, Note_on_c, 1, 58, 43
3, 127760, Note_on_c, 1, 55, 0
3, 127804, Note_on_c, 1, 58, 0
3, 127932, Note_on_c, 1, 58, 42
3, 128076, Note_on_c, 1, 58, 0
3, 128188, Note_on_c, 1, 55, 41
3, 128404, Note_on_c, 1, 58, 43
3, 128484, Note_on_c, 1, 58, 0
3, 128540, Note_on_c, 1, 55, 0
3, 128608, Note_on_c, 1, 53, 0
3, 128628, Note_on_c, 1, 58, 43
3, 128740, Note_on_c, 1, 58, 0
3, 128864, Note_on_c, 1, 53, 42
3, 128864, Note_on_c, 1, 55, 40
3, 128912, Control_c, 1, 64, 104
3, 128928, Control_c, 1, 64, 24
3, 128940, Control_c, 1, 64, 0
3, 129028, Control_c, 1, 64, 24
3, 129040, Control_c, 1, 64, 88
3, 129056, Control_c, 1, 64, 127
3, 129092, Note_on_c, 1, 58, 37
3, 129124, Note_on_c, 1, 55, 0
3, 129188, Note_on_c, 1, 58, 0
3, 129320, Note_on_c, 1, 58, 43
3, 129448, Note_on_c, 1, 58, 0
3, 129572, Note_on_c, 1, 55, 42
3, 129624, Control_c, 1, 64, 72
3, 129636, Control_c, 1, 64, 0
3, 129692, Control_c, 1, 64, 24
3, 129708, Control_c, 1, 64, 88
3, 129724, Control_c, 1, 64, 127
3, 129800, Note_on_c, 1, 58, 35
3, 129876, Note_on_c, 1, 58, 0
3, 129904, Note_on_c, 1, 55, 0
3, 130032, Note_on_c, 1, 58, 44
3, 130084, Note_on_c, 1, 53, 0
3, 130140, Note_on_c, 1, 58, 0
3, 130272, Note_on_c, 1, 53, 44
3, 130280, Note_on_c, 1, 55, 44
3, 130492, Note_on_c, 1, 58, 44
3, 130580, Note_on_c, 1, 58, 0
3, 130692, Note_on_c, 1, 55, 0
3, 130732, Note_on_c, 1, 58, 40
3, 130740, Note_on_c, 1, 53, 0
3, 130876, Note_on_c, 1, 58, 0
3, 130992, Note_on_c, 1, 53, 49
3, 131044, Control_c, 1, 64, 72
3, 131056, Control_c, 1, 64, 0
3, 131160, Control_c, 1, 64, 40
3, 131172, Control_c, 1, 64, 104
3, 131188, Control_c, 1, 64, 127
3, 131220, Note_on_c, 1, 57, 49
3, 131308, Note_on_c, 1, 57, 0
3, 131416, Note_on_c, 1, 53, 0
3, 131468, Note_on_c, 1, 57, 54
3, 131636, Note_on_c, 1, 57, 0
3, 131728, Note_on_c, 1, 52, 39
3, 131748, Note_on_c, 1, 55, 34
3, 131768, Control_c, 1, 64, 72
3, 131780, Control_c, 1, 64, 0
3, 131868, Control_c, 1, 64, 56
3, 131884, Control_c, 1, 64, 127
3, 131928, Note_on_c, 1, 55, 0
3, 131940, Note_on_c, 1, 57, 41
3, 131980, Note_on_c, 1, 57, 0
3, 132172, Note_on_c, 1, 57, 37
3, 132316, Note_on_c, 1, 57, 0
3, 132432, Note_on_c, 1, 55, 36
3, 132648, Note_on_c, 1, 57, 38
3, 132696, Note_on_c, 1, 57, 0
3, 132808, Note_on_c, 1, 55, 0
3, 132924, Note_on_c, 1, 57, 33
3, 132960, Note_on_c, 1, 52, 0
3, 133028, Note_on_c, 1, 57, 0
3, 133192, Note_on_c, 1, 55, 37
3, 133192, Note_on_c, 1, 52, 41
3, 133276, Control_c, 1, 64, 88
3, 133288, Control_c, 1, 64, 40
3, 133304, Control_c, 1, 64, 0
3, 133388, Control_c, 1, 64, 40
3, 133400, Control_c, 1, 64, 104
3, 133416, Control_c, 1, 64, 127
3, 133424, Note_on_c, 1, 58, 42
3, 133504, Note_on_c, 1, 58, 0
3, 133552, Note_on_c, 1, 55, 0
3, 133668, Note_on_c, 1, 58, 42
3, 133804, Note_on_c, 1, 58, 0
3, 133896, Note_on_c, 1, 55, 41
3, 133952, Control_c, 1, 64, 88
3, 133972, Control_c, 1, 64, 40
3, 133984, Control_c, 1, 64, 0
3, 134040, Control_c, 1, 64, 56
3, 134052, Control_c, 1, 64, 127
3, 134128, Note_on_c, 1, 58, 39
3, 134208, Note_on_c, 1, 58, 0
3, 134320, Note_on_c, 1, 55, 0
3, 134344, Note_on_c, 1, 52, 0
3, 134352, Note_on_c, 1, 58, 46
3, 134452, Note_on_c, 1, 58, 0
3, 134604, Note_on_c, 1, 57, 38
3, 134604, Note_on_c, 1, 54, 42
3, 134676, Control_c, 1, 64, 72
3, 134696, Control_c, 1, 64, 24
3, 134708, Control_c, 1, 64, 0
3, 134780, Control_c, 1, 64, 24
3, 134792, Control_c, 1, 64, 88
3, 134808, Control_c, 1, 64, 127
3, 134972, Note_on_c, 1, 57, 0
3, 134988, Note_on_c, 1, 54, 0
3, 135332, Note_on_c, 1, 58, 36
3, 135332, Note_on_c, 1, 55, 41
3, 135404, Control_c, 1, 64, 72
3, 135420, Control_c, 1, 64, 0
3, 135488, Control_c, 1, 64, 24
3, 135504, Control_c, 1, 64, 88
3, 135516, Control_c, 1, 64, 127
3, 135896, Note_on_c, 1, 55, 0
3, 135952, Note_on_c, 1, 58, 0
3, 136184, Note_on_c, 1, 57, 38
3, 136212, Note_on_c, 1, 53, 41
3, 136212, Control_c, 1, 64, 72
3, 136228, Control_c, 1, 64, 0
3, 136344, Control_c, 1, 64, 104
3, 136356, Control_c, 1, 64, 127
3, 136488, Note_on_c, 1, 57, 0
3, 136656, Note_on_c, 1, 53, 0
3, 136912, Note_on_c, 1, 59, 48
3, 137008, Control_c, 1, 64, 56
3, 137024, Control_c, 1, 64, 0
3, 137096, Control_c, 1, 64, 24
3, 137108, Control_c, 1, 64, 88
3, 137124, Control_c, 1, 64, 127
3, 137408, Note_on_c, 1, 59, 0
3, 137620, Control_c, 1, 64, 104
3, 137636, Control_c, 1, 64, 24
3, 137648, Control_c, 1, 64, 0
3, 137656, Note_on_c, 1, 48, 48
3, 137732, Control_c, 1, 64, 40
3, 137744, Control_c, 1, 64, 104
3, 137760, Control_c, 1, 64, 127
3, 137776, Note_on_c, 1, 48, 0
3, 138400, Note_on_c, 1, 57, 31
3, 138884, Note_on_c, 1, 57, 0
3, 139056, Note_on_c, 1, 55, 45
3, 139124, Control_c, 1, 64, 104
3, 139140, Control_c, 1, 64, 40
3, 139152, Control_c, 1, 64, 0
3, 139224, Control_c, 1, 64, 56
3, 139240, Control_c, 1, 64, 127
3, 139492, Note_on_c, 1, 55, 0
3, 139816, Note_on_c, 1, 55, 44
3, 139816, Note_on_c, 1, 53, 49
3, 139848, Control_c, 1, 64, 56
3, 139864, Control_c, 1, 64, 0
3, 139948, Control_c, 1, 64, 40
3, 139964, Control_c, 1, 64, 104
3, 139976, Control_c, 1, 64, 127
3, 140096, Note_on_c, 1, 59, 38
3, 140108, Note_on_c, 1, 55, 0
3, 140132, Note_on_c, 1, 59, 0
3, 140316, Note_on_c, 1, 59, 53
3, 140468, Note_on_c, 1, 59, 0
3, 140532, Note_on_c, 1, 55, 47
3, 140792, Note_on_c, 1, 59, 38
3, 140848, Note_on_c, 1, 59, 0
3, 140972, Note_on_c, 1, 55, 0
3, 141008, Note_on_c, 1, 53, 0
3, 141012, Note_on_c, 1, 59, 44
3, 141096, Note_on_c, 1, 59, 0
3, 141244, Note_on_c, 1, 52, 39
3, 141248, Note_on_c, 1, 55, 44
3, 141340, Control_c, 1, 64, 56
3, 141352, Control_c, 1, 64, 0
3, 141440, Control_c, 1, 64, 40
3, 141456, Control_c, 1, 64, 127
3, 141476, Note_on_c, 1, 58, 40
3, 141572, Note_on_c, 1, 58, 0
3, 141732, Note_on_c, 1, 55, 0
3, 141732, Note_on_c, 1, 52, 0
3, 141732, Note_on_c, 1, 58, 37
3, 141888, Note_on_c, 1, 58, 0
3, 142068, Note_on_c, 1, 55, 36
3, 142068, Note_on_c, 1, 51, 43
3, 142192, Control_c, 1, 64, 72
3, 142208, Control_c, 1, 64, 0
3, 142304, Control_c, 1, 64, 24
3, 142312, Note_on_c, 1, 58, 34
3, 142320, Control_c, 1, 64, 88
3, 142336, Control_c, 1, 64, 127
3, 142396, Note_on_c, 1, 58, 0
3, 142428, Note_on_c, 1, 55, 0
3, 142560, Note_on_c, 1, 58, 44
3, 142744, Note_on_c, 1, 58, 0
3, 142792, Note_on_c, 1, 55, 44
3, 143016, Note_on_c, 1, 58, 40
3, 143096, Note_on_c, 1, 58, 0
3, 143192, Note_on_c, 1, 55, 0
3, 143248, Note_on_c, 1, 58, 43
3, 143316, Note_on_c, 1, 51, 0
3, 143380, Note_on_c, 1, 58, 0
3, 143500, Note_on_c, 1, 54, 44
3, 143536, Note_on_c, 1, 51, 22
3, 143600, Control_c, 1, 64, 88
3, 143612, Control_c, 1, 64, 24
3, 143628, Control_c, 1, 64, 0
3, 143696, Control_c, 1, 64, 24
3, 143712, Control_c, 1, 64, 104
3, 143724, Control_c, 1, 64, 127
3, 143752, Note_on_c, 1, 57, 34
3, 143792, Note_on_c, 1, 57, 0
3, 143944, Note_on_c, 1, 54, 0
3, 143980, Note_on_c, 1, 57, 47
3, 144008, Note_on_c, 1, 51, 0
3, 144124, Note_on_c, 1, 57, 0
3, 144220, Note_on_c, 1, 51, 30
3, 144220, Note_on_c, 1, 55, 45
3, 144264, Control_c, 1, 64, 56
3, 144280, Control_c, 1, 64, 0
3, 144352, Control_c, 1, 64, 72
3, 144364, Control_c, 1, 64, 127
3, 144536, Note_on_c, 1, 57, 36
3, 144644, Note_on_c, 1, 57, 0
3, 144784, Note_on_c, 1, 55, 0
3, 144808, Note_on_c, 1, 51, 0
3, 144824, Note_on_c, 1, 57, 39
3, 144876, Note_on_c, 1, 57, 0
3, 145028, Note_on_c, 1, 50, 51
3, 145028, Note_on_c, 1, 54, 30
3, 145116, Control_c, 1, 64, 72
3, 145136, Control_c, 1, 64, 0
3, 145232, Control_c, 1, 64, 40
3, 145248, Control_c, 1, 64, 104
3, 145260, Control_c, 1, 64, 127
3, 145296, Note_on_c, 1, 57, 37
3, 145348, Note_on_c, 1, 57, 0
3, 145420, Note_on_c, 1, 54, 0
3, 145484, Note_on_c, 1, 50, 0
3, 145524, Note_on_c, 1, 57, 40
3, 145588, Note_on_c, 1, 57, 0
3, 145756, Note_on_c, 1, 50, 44
3, 145756, Note_on_c, 1, 59, 40
3, 145756, Note_on_c, 1, 53, 41
3, 145860, Control_c, 1, 64, 72
3, 145872, Control_c, 1, 64, 0
3, 145968, Control_c, 1, 64, 56
3, 145984, Control_c, 1, 64, 127
3, 146048, Note_on_c, 1, 55, 46
3, 146152, Note_on_c, 1, 55, 0
3, 146152, Note_on_c, 1, 59, 0
3, 146268, Note_on_c, 1, 50, 0
3, 146272, Note_on_c, 1, 53, 0
3, 146304, Note_on_c, 1, 55, 44
3, 146376, Note_on_c, 1, 55, 0
3, 146616, Note_on_c, 1, 48, 52
3, 146652, Control_c, 1, 64, 72
3, 146664, Control_c, 1, 64, 0
3, 146752, Control_c, 1, 64, 56
3, 146764, Control_c, 1, 64, 127
3, 146916, Note_on_c, 1, 48, 0
3, 147496, Note_on_c, 1, 58, 26
3, 147516, Note_on_c, 1, 55, 36
3, 147604, Control_c, 1, 64, 104
3, 147616, Control_c, 1, 64, 40
3, 147632, Control_c, 1, 64, 0
3, 147704, Control_c, 1, 64, 88
3, 147716, Control_c, 1, 64, 127
3, 147848, Note_on_c, 1, 58, 0
3, 148240, Note_on_c, 1, 58, 35
3, 148344, Control_c, 1, 64, 56
3, 148356, Control_c, 1, 64, 0
3, 148428, Control_c, 1, 64, 40
3, 148440, Control_c, 1, 64, 127
3, 148820, Note_on_c, 1, 58, 0
3, 148860, Note_on_c, 1, 55, 0
3, 149220, Note_on_c, 1, 57, 32
3, 149228, Note_on_c, 1, 53, 38
3, 149280, Control_c, 1, 64, 56
3, 149296, Control_c, 1, 64, 0
3, 149392, Control_c, 1, 64, 88
3, 149408, Control_c, 1, 64, 127
3, 149744, Note_on_c, 1, 57, 0
3, 149828, Note_on_c, 1, 53, 0
3, 150132, Note_on_c, 1, 47, 54
3, 150132, Control_c, 1, 64, 40
3, 150144, Control_c, 1, 64, 0
3, 150232, Control_c, 1, 64, 88
3, 150244, Note_on_c, 1, 47, 0
3, 150244, Control_c, 1, 64, 127
3, 150464, Note_on_c, 1, 56, 49
3, 150536, Note_on_c, 1, 56, 0
3, 150720, Note_on_c, 1, 56, 51
3, 150888, Note_on_c, 1, 56, 0
3, 151020, Note_on_c, 1, 53, 36
3, 151372, Note_on_c, 1, 56, 33
3, 151464, Note_on_c, 1, 56, 0
3, 151748, Note_on_c, 1, 56, 41
3, 151820, Control_c, 1, 64, 88
3, 151836, Control_c, 1, 64, 0
3, 151920, Control_c, 1, 64, 104
3, 151936, Control_c, 1, 64, 127
3, 151980, Note_on_c, 1, 56, 0
3, 151980, Note_on_c, 1, 53, 0
3, 152332, Control_c, 1, 64, 72
3, 152348, Control_c, 1, 64, 0
3, 152364, Note_on_c, 1, 36, 48
3, 152420, Note_on_c, 1, 36, 0
3, 152420, Control_c, 1, 64, 56
3, 152432, Control_c, 1, 64, 127
3, 153128, Note_on_c, 1, 58, 37
3, 153164, Note_on_c, 1, 55, 38
3, 153228, Control_c, 1, 64, 104
3, 153240, Control_c, 1, 64, 24
3, 153256, Control_c, 1, 64, 0
3, 153328, Control_c, 1, 64, 24
3, 153340, Control_c, 1, 64, 104
3, 153356, Control_c, 1, 64, 127
3, 153536, Note_on_c, 1, 58, 0
3, 153908, Note_on_c, 1, 58, 35
3, 153964, Control_c, 1, 64, 104
3, 153980, Control_c, 1, 64, 40
3, 153992, Control_c, 1, 64, 0
3, 154080, Control_c, 1, 64, 104
3, 154096, Control_c, 1, 64, 127
3, 154484, Note_on_c, 1, 58, 0
3, 154504, Note_on_c, 1, 55, 0
3, 154964, Note_on_c, 1, 57, 38
3, 154984, Note_on_c, 1, 53, 24
3, 155016, Control_c, 1, 64, 56
3, 155032, Control_c, 1, 64, 0
3, 155132, Control_c, 1, 64, 40
3, 155144, Control_c, 1, 64, 104
3, 155160, Control_c, 1, 64, 127
3, 155364, Note_on_c, 1, 57, 0
3, 155720, Note_on_c, 1, 57, 33
3, 156068, Note_on_c, 1, 57, 0
3, 156220, Note_on_c, 1, 53, 0
3, 156424, Note_on_c, 1, 57, 38
3, 156440, Control_c, 1, 64, 72
3, 156452, Control_c, 1, 64, 0
3, 156536, Control_c, 1, 64, 24
3, 156552, Control_c, 1, 64, 88
3, 156564, Control_c, 1, 64, 127
3, 156792, Note_on_c, 1, 57, 0
3, 157132, Note_on_c, 1, 57, 26
3, 157140, Note_on_c, 1, 53, 34
3, 157204, Control_c, 1, 64, 104
3, 157220, Control_c, 1, 64, 56
3, 157232, Control_c, 1, 64, 0
3, 157304, Control_c, 1, 64, 24
3, 157316, Control_c, 1, 64, 88
3, 157332, Control_c, 1, 64, 127
3, 157364, Note_on_c, 1, 58, 37
3, 157440, Note_on_c, 1, 58, 0
3, 157456, Note_on_c, 1, 57, 0
3, 157600, Note_on_c, 1, 58, 37
3, 157736, Note_on_c, 1, 58, 0
3, 157844, Note_on_c, 1, 55, 42
3, 157872, Control_c, 1, 64, 88
3, 157888, Control_c, 1, 64, 40
3, 157900, Control_c, 1, 64, 0
3, 157984, Control_c, 1, 64, 56
3, 158000, Control_c, 1, 64, 127
3, 158056, Note_on_c, 1, 58, 34
3, 158140, Note_on_c, 1, 58, 0
3, 158200, Note_on_c, 1, 55, 0
3, 158280, Note_on_c, 1, 58, 32
3, 158396, Note_on_c, 1, 58, 0
3, 158748, Note_on_c, 1, 58, 34
3, 158824, Note_on_c, 1, 58, 0
3, 158968, Note_on_c, 1, 53, 0
3, 158972, Note_on_c, 1, 58, 32
3, 159080, Note_on_c, 1, 58, 0
3, 159260, Note_on_c, 1, 53, 31
3, 159260, Note_on_c, 1, 55, 30
3, 159308, Control_c, 1, 64, 56
3, 159320, Control_c, 1, 64, 0
3, 159404, Control_c, 1, 64, 40
3, 159420, Control_c, 1, 64, 104
3, 159432, Control_c, 1, 64, 127
3, 159480, Note_on_c, 1, 58, 35
3, 159516, Note_on_c, 1, 55, 0
3, 159576, Note_on_c, 1, 58, 0
3, 159712, Note_on_c, 1, 58, 33
3, 159812, Note_on_c, 1, 58, 0
3, 159996, Note_on_c, 1, 55, 30
3, 160088, Control_c, 1, 64, 72
3, 160100, Control_c, 1, 64, 0
3, 160172, Control_c, 1, 64, 24
3, 160184, Control_c, 1, 64, 88
3, 160200, Control_c, 1, 64, 127
3, 160204, Note_on_c, 1, 58, 35
3, 160276, Note_on_c, 1, 58, 0
3, 160312, Note_on_c, 1, 55, 0
3, 160472, Note_on_c, 1, 58, 27
3, 160648, Note_on_c, 1, 58, 0
3, 160736, Note_on_c, 1, 55, 24
3, 160884, Control_c, 1, 64, 56
3, 160900, Control_c, 1, 64, 0
3, 160956, Note_on_c, 1, 58, 28
3, 160968, Control_c, 1, 64, 24
3, 160984, Control_c, 1, 64, 88
3, 160996, Control_c, 1, 64, 127
3, 161052, Note_on_c, 1, 58, 0
3, 161272, Note_on_c, 1, 58, 32
3, 161348, Note_on_c, 1, 55, 0
3, 161352, Note_on_c, 1, 58, 0
3, 161364, Note_on_c, 1, 53, 0
3, 161684, Note_on_c, 1, 41, 46
3, 161688, Control_c, 1, 64, 88
3, 161704, Control_c, 1, 64, 0
3, 161776, Control_c, 1, 64, 72
3, 161792, Control_c, 1, 64, 127
3, 161908, Note_on_c, 1, 48, 53
3, 161928, Note_on_c, 1, 41, 0
3, 162012, Note_on_c, 1, 48, 0
3, 162104, Note_on_c, 1, 55, 50
3, 162232, Note_on_c, 1, 58, 51
3, 162252, Note_on_c, 1, 55, 0
3, 162720, Note_on_c, 1, 58, 0
3, 164736, Note_on_c, 1, 41, 34
3, 164800, Control_c, 1, 64, 88
3, 164816, Control_c, 1, 64, 0
3, 164900, Control_c, 1, 64, 88
3, 164916, Control_c, 1, 64, 127
3, 165008, Note_on_c, 1, 48, 45
3, 165012, Note_on_c, 1, 41, 0
3, 165224, Note_on_c, 1, 57, 44
3, 165700, Note_on_c, 1, 48, 0
3, 165748, Note_on_c, 1, 57, 0
3, 168324, Control_c, 1, 64, 104
3, 168336, Control_c, 1, 64, 72
3, 168352, Control_c, 1, 64, 24
3, 168368, Control_c, 1, 64, 0
3, 168368, End_track
4, 0, Start_track
4, 0, MIDI_port, 0
4, 0, Title_t, "Nocturne Op 15 No 1"
4, 0, End_track
5, 0, Start_track
5, 0, MIDI_port, 0
5, 0, Title_t, "Frederic Chopin"
5, 0, End_track
6, 0, Start_track
6, 0, MIDI_port, 0
6, 0, Title_t, "Robert Finley C 1996"
6, 0, End_track
0, 0, End_of_file
