0, 0, Header, 0, 1, 480
1, 0, Start_track
1, 0, SMPTE_offset, 96, 0, 0, 0, 0
1, 0, Time_signature, 4, 2, 24, 8
1, 0, Key_signature, 0, "major"
1, 0, Tempo, 500000
1, 0, Control_c, 0, 64, 127
1, 0, Note_on_c, 0, 59, 69
1, 1148, Note_on_c, 0, 68, 64
1, 1185, Note_on_c, 0, 40, 49
1, 1240, Note_off_c, 0, 59, 64
1, 1250, Control_c, 0, 64, 0
1, 1586, Control_c, 0, 64, 127
1, 1676, Note_off_c, 0, 40, 64
1, 2144, Note_on_c, 0, 61, 45
1, 2196, Note_on_c, 0, 56, 24
1, 2202, Note_on_c, 0, 52, 27
1, 2296, Note_off_c, 0, 52, 64
1, 2460, Note_off_c, 0, 56, 64
1, 2526, Note_on_c, 0, 69, 75
1, 2534, Note_off_c, 0, 61, 64
1, 2650, Note_off_c, 0, 68, 64
1, 2750, Note_on_c, 0, 47, 34
1, 2856, Note_on_c, 0, 56, 20
1, 2980, Note_on_c, 0, 71, 91
1, 3040, Note_on_c, 0, 59, 43
1, 3062, Note_off_c, 0, 69, 64
1, 3124, Control_c, 0, 64, 0
1, 3266, Note_off_c, 0, 47, 64
1, 3292, Control_c, 0, 64, 127
1, 3342, Note_on_c, 0, 75, 84
1, 3346, Note_off_c, 0, 56, 64
1, 3370, Note_off_c, 0, 59, 64
1, 3438, Note_off_c, 0, 71, 64
1, 3750, Note_on_c, 0, 68, 27
1, 3750, Note_on_c, 0, 76, 61
1, 3818, Note_off_c, 0, 75, 64
1, 3818, Note_on_c, 0, 64, 15
1, 3838, Note_on_c, 0, 59, 19
1, 3846, Control_c, 0, 64, 0
1, 4014, Control_c, 0, 64, 127
1, 4084, Note_off_c, 0, 64, 64
1, 4092, Note_off_c, 0, 68, 64
1, 4116, Note_off_c, 0, 59, 64
1, 4182, Note_on_c, 0, 73, 52
1, 4320, Note_off_c, 0, 76, 64
1, 4764, Note_on_c, 0, 71, 61
1, 4782, Control_c, 0, 64, 0
1, 4794, Note_off_c, 0, 73, 64
1, 4800, Note_on_c, 0, 35, 22
1, 5074, Control_c, 0, 64, 127
1, 5148, Note_off_c, 0, 35, 64
1, 5558, Note_on_c, 0, 63, 25
1, 5580, Note_on_c, 0, 54, 28
1, 5934, Note_off_c, 0, 63, 64
1, 6302, Note_on_c, 0, 66, 34
1, 6344, Note_on_c, 0, 63, 17
1, 6356, Note_off_c, 0, 71, 64
1, 6374, Note_on_c, 0, 57, 14
1, 6704, Note_off_c, 0, 63, 64
1, 6738, Note_off_c, 0, 57, 64
1, 6866, Note_off_c, 0, 54, 64
1, 7200, Note_on_c, 0, 57, 23
1, 7212, Note_on_c, 0, 47, 15
1, 7632, Note_off_c, 0, 57, 64
1, 7650, Note_on_c, 0, 68, 58
1, 7842, Note_off_c, 0, 47, 64
1, 7906, Note_off_c, 0, 66, 64
1, 8122, Note_on_c, 0, 64, 75
1, 8136, Note_on_c, 0, 49, 32
1, 8142, Note_on_c, 0, 37, 33
1, 8208, Control_c, 0, 64, 0
1, 8216, Note_off_c, 0, 68, 64
1, 8486, Control_c, 0, 64, 127
1, 8502, Note_off_c, 0, 37, 64
1, 8542, Note_off_c, 0, 49, 64
1, 8878, Note_on_c, 0, 61, 42
1, 8902, Note_on_c, 0, 56, 32
1, 8912, Note_on_c, 0, 52, 40
1, 9022, Note_off_c, 0, 56, 64
1, 9078, Note_off_c, 0, 61, 64
1, 9164, Note_off_c, 0, 52, 64
1, 9668, Note_on_c, 0, 66, 48
1, 9702, Note_on_c, 0, 47, 29
1, 9716, Note_on_c, 0, 35, 22
1, 9802, Note_off_c, 0, 64, 64
1, 9838, Control_c, 0, 64, 0
1, 10022, Control_c, 0, 64, 127
1, 10044, Note_off_c, 0, 35, 64
1, 10070, Note_on_c, 0, 68, 66
1, 10110, Note_off_c, 0, 47, 64
1, 10180, Note_off_c, 0, 66, 64
1, 10406, Note_on_c, 0, 69, 77
1, 10406, Note_on_c, 0, 56, 42
1, 10412, Note_on_c, 0, 62, 49
1, 10436, Note_on_c, 0, 52, 51
1, 10522, Note_off_c, 0, 68, 64
1, 10570, Note_off_c, 0, 62, 64
1, 10652, Note_off_c, 0, 52, 64
1, 10708, Note_off_c, 0, 56, 64
1, 10742, Note_on_c, 0, 71, 95
1, 10822, Note_off_c, 0, 69, 64
1, 11114, Note_on_c, 0, 33, 63
1, 11116, Note_on_c, 0, 45, 54
1, 11144, Note_on_c, 0, 73, 73
1, 11190, Control_c, 0, 64, 0
1, 11212, Note_off_c, 0, 71, 64
1, 11420, Control_c, 0, 64, 127
1, 11432, Note_off_c, 0, 33, 64
1, 11488, Note_off_c, 0, 45, 64
1, 11908, Note_on_c, 0, 61, 58
1, 11926, Note_on_c, 0, 57, 45
1, 11932, Note_on_c, 0, 52, 51
1, 12124, Note_off_c, 0, 61, 64
1, 12166, Note_off_c, 0, 57, 64
1, 12188, Note_off_c, 0, 52, 64
1, 12802, Note_on_c, 0, 32, 69
1, 12804, Note_on_c, 0, 44, 73
1, 12814, Note_off_c, 0, 73, 64
1, 12988, Control_c, 0, 64, 0
1, 13172, Control_c, 0, 64, 127
1, 13208, Note_on_c, 0, 73, 87
1, 13214, Note_off_c, 0, 32, 64
1, 13302, Note_off_c, 0, 44, 64
1, 13618, Note_on_c, 0, 61, 59
1, 13636, Note_on_c, 0, 59, 58
1, 13640, Note_on_c, 0, 53, 58
1, 13882, Note_off_c, 0, 61, 64
1, 13914, Note_off_c, 0, 53, 64
1, 13922, Note_off_c, 0, 59, 64
1, 14134, Note_on_c, 0, 71, 97
1, 14226, Note_off_c, 0, 73, 64
1, 14498, Note_off_c, 0, 71, 64
1, 14574, Note_on_c, 0, 71, 80
1, 14584, Note_on_c, 0, 42, 53
1, 14588, Note_on_c, 0, 30, 62
1, 14708, Control_c, 0, 64, 0
1, 14970, Control_c, 0, 64, 127
1, 15018, Note_off_c, 0, 30, 64
1, 15066, Note_off_c, 0, 42, 64
1, 15404, Note_on_c, 0, 69, 72
1, 15420, Note_on_c, 0, 61, 59
1, 15446, Note_on_c, 0, 49, 41
1, 15620, Note_off_c, 0, 71, 64
1, 15784, Control_c, 0, 64, 0
1, 15938, Control_c, 0, 64, 127
1, 16042, Note_off_c, 0, 49, 64
1, 16088, Note_off_c, 0, 61, 64
1, 16192, Note_on_c, 0, 62, 68
1, 16216, Note_on_c, 0, 59, 44
1, 16228, Note_on_c, 0, 53, 61
1, 16260, Note_off_c, 0, 69, 64
1, 16708, Note_on_c, 0, 68, 79
1, 16782, Control_c, 0, 64, 0
1, 16934, Note_off_c, 0, 62, 64
1, 16936, Control_c, 0, 64, 127
1, 16998, Note_off_c, 0, 68, 64
1, 17130, Note_on_c, 0, 68, 62
1, 17184, Note_on_c, 0, 61, 48
1, 17244, Note_on_c, 0, 49, 30
1, 17474, Control_c, 0, 64, 0
1, 17522, Note_on_c, 0, 66, 57
1, 17562, Note_off_c, 0, 68, 64
1, 17720, Control_c, 0, 64, 127
1, 17772, Note_off_c, 0, 59, 64
1, 17788, Note_off_c, 0, 66, 64
1, 17828, Note_off_c, 0, 53, 64
1, 17840, Note_off_c, 0, 61, 64
1, 17934, Note_off_c, 0, 49, 64
1, 17996, Note_on_c, 0, 65, 57
1, 18054, Note_off_c, 0, 65, 64
1, 18170, Note_on_c, 0, 65, 47
1, 18200, Note_on_c, 0, 42, 32
1, 18350, Control_c, 0, 64, 0
1, 18596, Control_c, 0, 64, 127
1, 18998, Note_on_c, 0, 57, 31
1, 19002, Note_off_c, 0, 65, 64
1, 19002, Note_on_c, 0, 66, 30
1, 19056, Note_on_c, 0, 49, 22
1, 19134, Control_c, 0, 64, 0
1, 19348, Control_c, 0, 64, 127
1, 19462, Note_off_c, 0, 57, 64
1, 19686, Note_off_c, 0, 49, 64
1, 19694, Note_off_c, 0, 42, 64
1, 19954, Note_on_c, 0, 39, 48
1, 19992, Note_off_c, 0, 66, 64
1, 20332, Note_on_c, 0, 58, 69
1, 20378, Control_c, 0, 64, 0
1, 20532, Note_off_c, 0, 39, 64
1, 20532, Control_c, 0, 64, 127
1, 20746, Note_on_c, 0, 59, 84
1, 20770, Note_on_c, 0, 57, 25
1, 20770, Note_on_c, 0, 54, 40
1, 20776, Note_on_c, 0, 47, 23
1, 20858, Note_off_c, 0, 58, 64
1, 21130, Note_on_c, 0, 69, 72
1, 21130, Control_c, 0, 64, 0
1, 21230, Note_off_c, 0, 59, 64
1, 21314, Control_c, 0, 64, 127
1, 21346, Note_off_c, 0, 57, 64
1, 21352, Note_off_c, 0, 47, 64
1, 21362, Note_off_c, 0, 54, 64
1, 21564, Note_on_c, 0, 68, 72
1, 21624, Note_on_c, 0, 40, 37
1, 21686, Note_off_c, 0, 69, 64
1, 21744, Control_c, 0, 64, 0
1, 21946, Control_c, 0, 64, 127
1, 22214, Note_off_c, 0, 40, 64
1, 22428, Note_on_c, 0, 63, 83
1, 22438, Note_on_c, 0, 56, 37
1, 22482, Note_on_c, 0, 47, 24
1, 22574, Note_off_c, 0, 68, 64
1, 22806, Note_off_c, 0, 56, 64
1, 22816, Note_on_c, 0, 64, 91
1, 22870, Note_off_c, 0, 63, 64
1, 22892, Note_off_c, 0, 47, 64
1, 23200, Note_on_c, 0, 63, 79
1, 23232, Note_on_c, 0, 37, 54
1, 23262, Note_off_c, 0, 64, 64
1, 23328, Control_c, 0, 64, 0
1, 23528, Control_c, 0, 64, 127
1, 23568, Note_on_c, 0, 64, 77
1, 23612, Note_off_c, 0, 63, 64
1, 23636, Note_off_c, 0, 37, 64
1, 23830, Note_on_c, 0, 63, 79
1, 23850, Note_off_c, 0, 64, 64
1, 24068, Note_on_c, 0, 58, 28
1, 24076, Note_on_c, 0, 54, 36
1, 24112, Note_on_c, 0, 64, 74
1, 24118, Note_on_c, 0, 52, 20
1, 24122, Note_off_c, 0, 63, 64
1, 24358, Control_c, 0, 64, 0
1, 24454, Note_on_c, 0, 66, 49
1, 24498, Note_off_c, 0, 64, 64
1, 24510, Control_c, 0, 64, 127
1, 24604, Note_off_c, 0, 58, 64
1, 24622, Note_off_c, 0, 54, 64
1, 24624, Note_off_c, 0, 52, 64
1, 24754, Note_on_c, 0, 61, 69
1, 24808, Note_off_c, 0, 66, 64
1, 25178, Note_on_c, 0, 64, 58
1, 25194, Note_off_c, 0, 61, 64
1, 25206, Note_on_c, 0, 35, 29
1, 25206, Control_c, 0, 64, 0
1, 25464, Control_c, 0, 64, 127
1, 25550, Note_off_c, 0, 35, 64
1, 26028, Note_on_c, 0, 56, 19
1, 26068, Note_on_c, 0, 59, 30
1, 26888, Note_on_c, 0, 63, 46
1, 26930, Note_off_c, 0, 64, 64
1, 26936, Note_on_c, 0, 54, 28
1, 27028, Note_off_c, 0, 56, 64
1, 27424, Note_on_c, 0, 75, 62
1, 27458, Note_off_c, 0, 63, 64
1, 27508, Control_c, 0, 64, 0
1, 27636, Note_off_c, 0, 59, 64
1, 27676, Control_c, 0, 64, 127
1, 27950, Note_on_c, 0, 73, 55
1, 27992, Note_off_c, 0, 54, 64
1, 28000, Note_off_c, 0, 73, 64
1, 28062, Note_on_c, 0, 59, 11
1, 28086, Note_on_c, 0, 63, 22
1, 28134, Note_on_c, 0, 73, 51
1, 28218, Note_off_c, 0, 75, 64
1, 28220, Note_on_c, 0, 69, 23
1, 28352, Note_off_c, 0, 69, 64
1, 28456, Note_off_c, 0, 59, 64
1, 28488, Note_off_c, 0, 63, 64
1, 28602, Note_on_c, 0, 71, 55
1, 28710, Note_off_c, 0, 73, 64
1, 28880, Note_off_c, 0, 71, 64
1, 28948, Note_on_c, 0, 69, 48
1, 29206, Note_off_c, 0, 69, 64
1, 29536, Note_on_c, 0, 68, 33
1, 29592, Note_on_c, 0, 40, 34
1, 29644, Control_c, 0, 64, 0
1, 29904, Control_c, 0, 64, 127
1, 30012, Note_off_c, 0, 40, 64
1, 30542, Note_on_c, 0, 61, 32
1, 30578, Note_on_c, 0, 56, 19
1, 30634, Note_on_c, 0, 52, 13
1, 30972, Note_off_c, 0, 56, 64
1, 31038, Note_off_c, 0, 52, 64
1, 31056, Note_on_c, 0, 69, 54
1, 31062, Note_off_c, 0, 61, 64
1, 31244, Note_off_c, 0, 68, 64
1, 31354, Note_on_c, 0, 47, 7
1, 31428, Note_on_c, 0, 56, 30
1, 31610, Control_c, 0, 64, 0
1, 31618, Note_on_c, 0, 71, 58
1, 31624, Note_off_c, 0, 69, 64
1, 31724, Note_off_c, 0, 47, 64
1, 31730, Note_on_c, 0, 59, 23
1, 31776, Note_off_c, 0, 71, 64
1, 31779, Control_c, 0, 64, 127
1, 31816, Note_on_c, 0, 47, 40
1, 31876, Note_off_c, 0, 47, 64
1, 31910, Note_on_c, 0, 76, 65
1, 31950, Note_off_c, 0, 59, 64
1, 31976, Note_off_c, 0, 56, 64
1, 32122, Note_on_c, 0, 78, 70
1, 32150, Note_off_c, 0, 76, 64
1, 32320, Note_on_c, 0, 80, 64
1, 32340, Note_off_c, 0, 78, 64
1, 32510, Note_on_c, 0, 78, 43
1, 32514, Note_on_c, 0, 64, 16
1, 32528, Note_off_c, 0, 80, 64
1, 32576, Note_on_c, 0, 68, 27
1, 32640, Note_off_c, 0, 64, 64
1, 32672, Note_off_c, 0, 68, 64
1, 32718, Note_on_c, 0, 76, 46
1, 32732, Note_off_c, 0, 78, 64
1, 32784, Note_off_c, 0, 76, 64
1, 32858, Note_on_c, 0, 71, 48
1, 32962, Note_on_c, 0, 73, 43
1, 32978, Note_off_c, 0, 71, 64
1, 33078, Note_on_c, 0, 68, 45
1, 33096, Note_off_c, 0, 73, 64
1, 33178, Note_off_c, 0, 68, 64
1, 33188, Note_on_c, 0, 73, 35
1, 33362, Note_on_c, 0, 71, 70
1, 33376, Control_c, 0, 64, 0
1, 33386, Note_off_c, 0, 73, 64
1, 33394, Note_on_c, 0, 35, 22
1, 33654, Control_c, 0, 64, 127
1, 33688, Note_off_c, 0, 35, 64
1, 34152, Note_on_c, 0, 63, 21
1, 34162, Note_on_c, 0, 54, 39
1, 34332, Note_off_c, 0, 63, 64
1, 34942, Note_off_c, 0, 54, 64
1, 34968, Note_on_c, 0, 63, 17
1, 35012, Note_off_c, 0, 71, 64
1, 35012, Note_on_c, 0, 57, 7
1, 35020, Note_on_c, 0, 66, 39
1, 35062, Note_off_c, 0, 63, 64
1, 35100, Note_off_c, 0, 57, 64
1, 35766, Note_on_c, 0, 36, 45
1, 35769, Note_on_c, 0, 48, 33
1, 36134, Note_on_c, 0, 68, 57
1, 36270, Note_off_c, 0, 48, 64
1, 36352, Note_off_c, 0, 66, 64
1, 36578, Note_off_c, 0, 36, 64
1, 36646, Note_on_c, 0, 64, 67
1, 36658, Note_on_c, 0, 37, 36
1, 36662, Note_on_c, 0, 49, 41
1, 36680, Control_c, 0, 64, 0
1, 36774, Note_off_c, 0, 68, 64
1, 36958, Control_c, 0, 64, 127
1, 37006, Note_off_c, 0, 37, 64
1, 37068, Note_off_c, 0, 49, 64
1, 37446, Note_on_c, 0, 63, 70
1, 37449, Note_on_c, 0, 61, 37
1, 37449, Note_on_c, 0, 56, 26
1, 37494, Note_on_c, 0, 52, 32
1, 37528, Note_off_c, 0, 64, 64
1, 37634, Note_off_c, 0, 61, 64
1, 37703, Note_off_c, 0, 52, 64
1, 37732, Note_off_c, 0, 56, 64
1, 37896, Note_on_c, 0, 64, 75
1, 37976, Note_off_c, 0, 63, 64
1, 38248, Note_on_c, 0, 66, 64
1, 38266, Note_on_c, 0, 47, 33
1, 38278, Control_c, 0, 64, 0
1, 38280, Note_on_c, 0, 35, 43
1, 38306, Note_off_c, 0, 64, 64
1, 38508, Control_c, 0, 64, 127
1, 38512, Note_off_c, 0, 35, 64
1, 38600, Note_off_c, 0, 47, 64
1, 38850, Note_on_c, 0, 68, 63
1, 38958, Note_off_c, 0, 66, 64
1, 39028, Note_on_c, 0, 69, 70
1, 39052, Note_on_c, 0, 62, 42
1, 39052, Note_on_c, 0, 56, 29
1, 39072, Note_on_c, 0, 52, 39
1, 39120, Note_off_c, 0, 68, 64
1, 39248, Note_off_c, 0, 62, 64
1, 39304, Note_off_c, 0, 52, 64
1, 39342, Note_off_c, 0, 56, 64
1, 39356, Note_on_c, 0, 71, 94
1, 39436, Note_off_c, 0, 69, 64
1, 39778, Note_on_c, 0, 73, 82
1, 39782, Note_on_c, 0, 45, 54
1, 39788, Note_on_c, 0, 33, 54
1, 39842, Note_off_c, 0, 71, 64
1, 39846, Control_c, 0, 64, 0
1, 40076, Control_c, 0, 64, 127
1, 40082, Note_off_c, 0, 33, 64
1, 40144, Note_off_c, 0, 45, 64
1, 40526, Note_on_c, 0, 61, 52
1, 40534, Note_on_c, 0, 57, 48
1, 40546, Note_on_c, 0, 52, 52
1, 40774, Note_off_c, 0, 61, 64
1, 40806, Note_off_c, 0, 52, 64
1, 40818, Note_off_c, 0, 57, 64
1, 41220, Note_on_c, 0, 31, 81
1, 41224, Note_on_c, 0, 43, 80
1, 41232, Note_off_c, 0, 73, 64
1, 41596, Control_c, 0, 64, 0
1, 41640, Note_on_c, 0, 73, 88
1, 41712, Note_off_c, 0, 31, 64
1, 41782, Note_off_c, 0, 43, 64
1, 41782, Control_c, 0, 64, 127
1, 42150, Note_on_c, 0, 64, 72
1, 42164, Note_on_c, 0, 59, 58
1, 42167, Note_on_c, 0, 52, 60
1, 42344, Note_off_c, 0, 64, 64
1, 42420, Note_off_c, 0, 59, 64
1, 42428, Note_off_c, 0, 52, 64
1, 42448, Note_on_c, 0, 71, 97
1, 42512, Note_off_c, 0, 73, 64
1, 42612, Note_on_c, 0, 70, 65
1, 42614, Note_off_c, 0, 71, 64
1, 42710, Note_on_c, 0, 71, 69
1, 42760, Note_off_c, 0, 70, 64
1, 42814, Note_on_c, 0, 73, 77
1, 42848, Note_off_c, 0, 71, 64
1, 42898, Note_on_c, 0, 71, 105
1, 42900, Note_on_c, 0, 30, 73
1, 42906, Note_on_c, 0, 42, 56
1, 42964, Control_c, 0, 64, 0
1, 42976, Note_off_c, 0, 73, 64
1, 43180, Control_c, 0, 64, 127
1, 43230, Note_off_c, 0, 30, 64
1, 43292, Note_off_c, 0, 42, 64
1, 43662, Note_on_c, 0, 64, 71
1, 43672, Note_on_c, 0, 54, 56
1, 43680, Note_on_c, 0, 61, 50
1, 43746, Note_on_c, 0, 70, 67
1, 43836, Note_off_c, 0, 71, 64
1, 43864, Note_off_c, 0, 64, 64
1, 43996, Note_off_c, 0, 61, 64
1, 44050, Note_off_c, 0, 54, 64
1, 44420, Note_on_c, 0, 28, 76
1, 44422, Note_on_c, 0, 40, 90
1, 44500, Control_c, 0, 64, 0
1, 44690, Note_off_c, 0, 28, 64
1, 44702, Control_c, 0, 64, 127
1, 44758, Note_off_c, 0, 40, 64
1, 44800, Note_on_c, 0, 71, 100
1, 44892, Note_off_c, 0, 70, 64
1, 45176, Note_on_c, 0, 68, 66
1, 45182, Note_on_c, 0, 73, 92
1, 45192, Note_on_c, 0, 56, 54
1, 45206, Note_on_c, 0, 61, 50
1, 45272, Note_off_c, 0, 71, 64
1, 45308, Note_off_c, 0, 68, 64
1, 45458, Note_off_c, 0, 61, 64
1, 45514, Note_off_c, 0, 56, 64
1, 45534, Note_on_c, 0, 74, 101
1, 45596, Note_off_c, 0, 73, 64
1, 46048, Note_on_c, 0, 27, 72
1, 46056, Note_on_c, 0, 39, 51
1, 46056, Note_on_c, 0, 75, 84
1, 46130, Control_c, 0, 64, 0
1, 46188, Note_off_c, 0, 74, 64
1, 46376, Control_c, 0, 64, 127
1, 46408, Note_off_c, 0, 27, 64
1, 46462, Note_off_c, 0, 39, 64
1, 46956, Note_on_c, 0, 58, 38
1, 46956, Note_on_c, 0, 67, 57
1, 46968, Note_on_c, 0, 61, 44
1, 47244, Note_off_c, 0, 67, 64
1, 47348, Note_off_c, 0, 58, 64
1, 47353, Note_off_c, 0, 61, 64
1, 47444, Note_on_c, 0, 73, 79
1, 47554, Note_off_c, 0, 75, 64
1, 47642, Note_on_c, 0, 44, 53
1, 47756, Note_on_c, 0, 51, 38
1, 47820, Control_c, 0, 64, 0
1, 47826, Note_on_c, 0, 70, 76
1, 47890, Note_on_c, 0, 59, 62
1, 47944, Note_off_c, 0, 73, 64
1, 48004, Control_c, 0, 64, 127
1, 48054, Note_off_c, 0, 59, 64
1, 48094, Note_off_c, 0, 44, 64
1, 48130, Note_off_c, 0, 51, 64
1, 48198, Note_on_c, 0, 71, 93
1, 48264, Note_off_c, 0, 70, 64
1, 48356, Note_on_c, 0, 40, 47
1, 48404, Control_c, 0, 64, 0
1, 48504, Note_on_c, 0, 49, 67
1, 48572, Note_off_c, 0, 40, 64
1, 48574, Control_c, 0, 64, 127
1, 48626, Note_off_c, 0, 49, 64
1, 48660, Note_on_c, 0, 61, 92
1, 48670, Note_off_c, 0, 71, 64
1, 48748, Note_on_c, 0, 59, 48
1, 48816, Note_off_c, 0, 61, 64
1, 48888, Note_off_c, 0, 59, 64
1, 49460, Note_on_c, 0, 80, 93
1, 49644, Note_off_c, 0, 80, 64
1, 49710, Note_on_c, 0, 80, 79
1, 49738, Note_on_c, 0, 42, 31
1, 49744, Note_on_c, 0, 30, 31
1, 49848, Control_c, 0, 64, 0
1, 50032, Control_c, 0, 64, 127
1, 50042, Note_off_c, 0, 30, 64
1, 50116, Note_off_c, 0, 42, 64
1, 50580, Note_on_c, 0, 54, 30
1, 50642, Note_on_c, 0, 59, 25
1, 50648, Note_off_c, 0, 80, 64
1, 50772, Note_on_c, 0, 66, 62
1, 50782, Note_on_c, 0, 64, 37
1, 51034, Note_off_c, 0, 64, 64
1, 51072, Note_off_c, 0, 59, 64
1, 51274, Note_off_c, 0, 54, 64
1, 51576, Note_on_c, 0, 42, 31
1, 51800, Control_c, 0, 64, 0
1, 52000, Control_c, 0, 64, 127
1, 52060, Note_off_c, 0, 42, 64
1, 52060, Note_on_c, 0, 71, 74
1, 52202, Note_off_c, 0, 66, 64
1, 52576, Note_on_c, 0, 75, 57
1, 52592, Note_on_c, 0, 54, 28
1, 52595, Note_on_c, 0, 64, 26
1, 52598, Note_on_c, 0, 58, 15
1, 52680, Note_off_c, 0, 71, 64
1, 52690, Control_c, 0, 64, 0
1, 52876, Control_c, 0, 64, 127
1, 53074, Note_off_c, 0, 64, 64
1, 53120, Note_off_c, 0, 58, 64
1, 53150, Note_off_c, 0, 54, 64
1, 53284, Note_on_c, 0, 73, 48
1, 53372, Note_off_c, 0, 75, 64
1, 53484, Note_off_c, 0, 73, 64
1, 53530, Note_on_c, 0, 70, 41
1, 53566, Control_c, 0, 64, 0
1, 53584, Note_on_c, 0, 47, 20
1, 53796, Control_c, 0, 64, 127
1, 53894, Note_off_c, 0, 47, 64
1, 54370, Note_on_c, 0, 64, 25
1, 54390, Note_on_c, 0, 54, 19
1, 54394, Note_on_c, 0, 61, 10
1, 54556, Note_off_c, 0, 64, 64
1, 54636, Note_off_c, 0, 54, 64
1, 54644, Note_off_c, 0, 61, 64
1, 55230, Note_on_c, 0, 71, 31
1, 55274, Note_off_c, 0, 70, 64
1, 55296, Note_on_c, 0, 47, 14
1, 55334, Control_c, 0, 64, 0
1, 55564, Control_c, 0, 64, 127
1, 55634, Note_off_c, 0, 47, 64
1, 56178, Note_on_c, 0, 63, 17
1, 56230, Note_on_c, 0, 54, 10
1, 56280, Note_on_c, 0, 59, 3
1, 56488, Note_off_c, 0, 63, 64
1, 56530, Note_off_c, 0, 59, 64
1, 56636, Note_off_c, 0, 71, 64
1, 56768, Note_off_c, 0, 54, 64
1, 57276, Note_on_c, 0, 68, 33
1, 57340, Note_on_c, 0, 50, 20
1, 57378, Control_c, 0, 64, 0
1, 57592, Control_c, 0, 64, 127
1, 57700, Note_off_c, 0, 50, 64
1, 58118, Note_on_c, 0, 62, 22
1, 58130, Note_on_c, 0, 54, 20
1, 58138, Note_on_c, 0, 59, 16
1, 58328, Note_off_c, 0, 62, 64
1, 58478, Note_off_c, 0, 59, 64
1, 58566, Note_on_c, 0, 69, 52
1, 58608, Note_off_c, 0, 54, 64
1, 58676, Note_off_c, 0, 68, 64
1, 58944, Note_on_c, 0, 71, 76
1, 58948, Note_on_c, 0, 44, 37
1, 58960, Control_c, 0, 64, 0
1, 59006, Note_off_c, 0, 69, 64
1, 59160, Control_c, 0, 64, 127
1, 59186, Note_off_c, 0, 44, 64
1, 59314, Note_on_c, 0, 73, 75
1, 59386, Note_off_c, 0, 71, 64
1, 59534, Note_on_c, 0, 54, 24
1, 59606, Note_on_c, 0, 59, 16
1, 59664, Note_on_c, 0, 76, 72
1, 59692, Note_on_c, 0, 66, 34
1, 59704, Note_off_c, 0, 59, 64
1, 59726, Note_off_c, 0, 73, 64
1, 59846, Note_off_c, 0, 66, 64
1, 59978, Note_off_c, 0, 54, 64
1, 60218, Note_on_c, 0, 74, 71
1, 60330, Note_off_c, 0, 76, 64
1, 60600, Note_on_c, 0, 37, 18
1, 60622, Note_on_c, 0, 49, 20
1, 60656, Note_on_c, 0, 65, 64
1, 60666, Control_c, 0, 64, 0
1, 60702, Note_off_c, 0, 74, 64
1, 60910, Control_c, 0, 64, 127
1, 60950, Note_off_c, 0, 37, 64
1, 60996, Note_off_c, 0, 49, 64
1, 61398, Note_on_c, 0, 49, 27
1, 61398, Note_on_c, 0, 59, 30
1, 61404, Note_on_c, 0, 56, 21
1, 61626, Note_off_c, 0, 59, 64
1, 61714, Note_off_c, 0, 56, 64
1, 61820, Note_off_c, 0, 49, 64
1, 62288, Note_on_c, 0, 30, 28
1, 62298, Note_on_c, 0, 66, 29
1, 62310, Note_on_c, 0, 42, 16
1, 62370, Control_c, 0, 64, 0
1, 62442, Note_off_c, 0, 65, 64
1, 62616, Control_c, 0, 64, 127
1, 62652, Note_off_c, 0, 30, 64
1, 62710, Note_off_c, 0, 42, 64
1, 63172, Note_on_c, 0, 49, 34
1, 63190, Note_on_c, 0, 57, 20
1, 63198, Note_on_c, 0, 54, 22
1, 63414, Note_off_c, 0, 66, 64
1, 63428, Note_off_c, 0, 57, 64
1, 63450, Note_off_c, 0, 54, 64
1, 63498, Note_off_c, 0, 49, 64
1, 64032, Note_on_c, 0, 70, 72
1, 64060, Control_c, 0, 64, 0
1, 64065, Note_on_c, 0, 40, 45
1, 64074, Note_on_c, 0, 52, 31
1, 64276, Control_c, 0, 64, 127
1, 64346, Note_off_c, 0, 40, 64
1, 64418, Note_off_c, 0, 52, 64
1, 64772, Note_on_c, 0, 61, 62
1, 64792, Note_on_c, 0, 56, 44
1, 64942, Note_off_c, 0, 61, 64
1, 65152, Note_on_c, 0, 71, 94
1, 65160, Note_off_c, 0, 56, 64
1, 65240, Note_off_c, 0, 70, 64
1, 65612, Note_on_c, 0, 73, 84
1, 65622, Note_on_c, 0, 46, 47
1, 65632, Note_on_c, 0, 34, 53
1, 65778, Note_off_c, 0, 71, 64
1, 65966, Control_c, 0, 64, 0
1, 65980, Note_on_c, 0, 75, 90
1, 66078, Note_off_c, 0, 73, 64
1, 66086, Note_off_c, 0, 34, 64
1, 66104, Control_c, 0, 64, 127
1, 66128, Note_off_c, 0, 46, 64
1, 66334, Note_on_c, 0, 78, 82
1, 66352, Note_on_c, 0, 61, 44
1, 66360, Note_on_c, 0, 56, 42
1, 66474, Note_off_c, 0, 75, 64
1, 66610, Note_off_c, 0, 61, 64
1, 66676, Note_off_c, 0, 56, 64
1, 66724, Note_on_c, 0, 76, 79
1, 66930, Note_off_c, 0, 78, 64
1, 67122, Note_on_c, 0, 67, 75
1, 67134, Note_on_c, 0, 39, 28
1, 67144, Note_on_c, 0, 51, 35
1, 67154, Note_off_c, 0, 76, 64
1, 67210, Control_c, 0, 64, 0
1, 67426, Control_c, 0, 64, 127
1, 67510, Note_off_c, 0, 39, 64
1, 67586, Note_off_c, 0, 51, 64
1, 67885, Note_on_c, 0, 58, 26
1, 67894, Note_on_c, 0, 61, 38
1, 68200, Note_off_c, 0, 61, 64
1, 68242, Note_off_c, 0, 58, 64
1, 68594, Note_on_c, 0, 68, 52
1, 68640, Note_on_c, 0, 50, 68
1, 68660, Note_on_c, 0, 38, 38
1, 68782, Note_off_c, 0, 67, 64
1, 68840, Control_c, 0, 64, 0
1, 68974, Note_off_c, 0, 38, 64
1, 69008, Control_c, 0, 64, 127
1, 69102, Note_on_c, 0, 69, 66
1, 69192, Note_off_c, 0, 68, 64
1, 69530, Note_on_c, 0, 73, 70
1, 69560, Note_on_c, 0, 54, 53
1, 69562, Note_on_c, 0, 59, 49
1, 69626, Note_off_c, 0, 69, 64
1, 69816, Note_off_c, 0, 59, 64
1, 69886, Note_on_c, 0, 71, 87
1, 69946, Note_off_c, 0, 54, 64
1, 69966, Note_off_c, 0, 50, 64
1, 70228, Note_off_c, 0, 73, 64
1, 70284, Note_on_c, 0, 65, 79
1, 70294, Note_on_c, 0, 49, 74
1, 70296, Note_on_c, 0, 37, 73
1, 70406, Control_c, 0, 64, 0
1, 70440, Note_off_c, 0, 71, 64
1, 70622, Control_c, 0, 64, 127
1, 70628, Note_off_c, 0, 37, 64
1, 71012, Note_on_c, 0, 59, 69
1, 71020, Note_on_c, 0, 56, 48
1, 71272, Note_off_c, 0, 59, 64
1, 71422, Note_off_c, 0, 56, 64
1, 71438, Note_off_c, 0, 49, 64
1, 71654, Note_on_c, 0, 66, 71
1, 71696, Note_on_c, 0, 48, 72
1, 71716, Note_on_c, 0, 36, 54
1, 71828, Note_off_c, 0, 65, 64
1, 71974, Control_c, 0, 64, 0
1, 72050, Note_on_c, 0, 67, 88
1, 72130, Note_off_c, 0, 36, 64
1, 72140, Note_off_c, 0, 66, 64
1, 72142, Control_c, 0, 64, 127
1, 72492, Note_on_c, 0, 71, 88
1, 72510, Note_on_c, 0, 57, 61
1, 72532, Note_on_c, 0, 52, 49
1, 72592, Note_off_c, 0, 67, 64
1, 72740, Note_off_c, 0, 57, 64
1, 72836, Note_off_c, 0, 52, 64
1, 72856, Note_off_c, 0, 48, 64
1, 72870, Note_on_c, 0, 69, 84
1, 72992, Note_off_c, 0, 71, 64
1, 73118, Note_off_c, 0, 69, 64
1, 73188, Note_on_c, 0, 69, 59
1, 73208, Note_on_c, 0, 47, 83
1, 73224, Note_on_c, 0, 35, 80
1, 73326, Control_c, 0, 64, 0
1, 73492, Note_off_c, 0, 35, 64
1, 73510, Control_c, 0, 64, 127
1, 74030, Note_on_c, 0, 67, 84
1, 74048, Note_on_c, 0, 57, 63
1, 74060, Note_on_c, 0, 54, 68
1, 74148, Note_off_c, 0, 69, 64
1, 74356, Note_on_c, 0, 66, 68
1, 74418, Note_off_c, 0, 67, 64
1, 74460, Note_on_c, 0, 64, 88
1, 74512, Note_off_c, 0, 66, 64
1, 74596, Note_off_c, 0, 54, 64
1, 74630, Note_off_c, 0, 57, 64
1, 74664, Note_on_c, 0, 63, 91
1, 74730, Note_off_c, 0, 64, 64
1, 74834, Note_off_c, 0, 63, 64
1, 74914, Note_on_c, 0, 60, 65
1, 74916, Note_on_c, 0, 63, 77
1, 74922, Note_on_c, 0, 57, 55
1, 75232, Control_c, 0, 64, 0
1, 75400, Control_c, 0, 64, 127
1, 75628, Note_off_c, 0, 60, 64
1, 75698, Note_off_c, 0, 57, 64
1, 75768, Note_off_c, 0, 47, 64
1, 75820, Note_on_c, 0, 59, 87
1, 75834, Note_on_c, 0, 55, 79
1, 75972, Note_off_c, 0, 55, 64
1, 76074, Note_off_c, 0, 59, 64
1, 76084, Note_off_c, 0, 63, 64
1, 76202, Note_on_c, 0, 57, 81
1, 76210, Note_on_c, 0, 54, 75
1, 76300, Note_off_c, 0, 57, 64
1, 76312, Note_off_c, 0, 54, 64
1, 76618, Note_on_c, 0, 64, 97
1, 76630, Control_c, 0, 64, 0
1, 76650, Note_on_c, 0, 35, 83
1, 76798, Control_c, 0, 64, 127
1, 76840, Note_off_c, 0, 64, 64
1, 76950, Note_on_c, 0, 79, 101
1, 76980, Note_off_c, 0, 35, 64
1, 77576, Note_on_c, 0, 55, 83
1, 77580, Note_on_c, 0, 47, 71
1, 77814, Note_on_c, 0, 76, 81
1, 77878, Note_off_c, 0, 79, 64
1, 77972, Note_on_c, 0, 72, 74
1, 78006, Note_off_c, 0, 55, 64
1, 78010, Note_off_c, 0, 76, 64
1, 78118, Note_off_c, 0, 47, 64
1, 78118, Note_on_c, 0, 69, 75
1, 78126, Note_off_c, 0, 72, 64
1, 78166, Note_off_c, 0, 69, 64
1, 78248, Note_on_c, 0, 64, 91
1, 78368, Note_off_c, 0, 64, 64
1, 78386, Note_on_c, 0, 60, 98
1, 78472, Note_off_c, 0, 60, 64
1, 78620, Note_on_c, 0, 55, 99
1, 78636, Note_on_c, 0, 58, 51
1, 78644, Note_on_c, 0, 64, 71
1, 78816, Note_off_c, 0, 55, 64
1, 78862, Note_on_c, 0, 57, 65
1, 78918, Note_off_c, 0, 57, 64
1, 78944, Note_on_c, 0, 55, 66
1, 78976, Note_off_c, 0, 64, 64
1, 79000, Note_off_c, 0, 55, 64
1, 79020, Note_on_c, 0, 57, 63
1, 79070, Note_off_c, 0, 58, 64
1, 79092, Note_on_c, 0, 55, 60
1, 79100, Note_off_c, 0, 57, 64
1, 79162, Note_off_c, 0, 55, 64
1, 79170, Note_on_c, 0, 57, 74
1, 79270, Note_on_c, 0, 55, 85
1, 79304, Note_off_c, 0, 57, 64
1, 79398, Note_on_c, 0, 54, 93
1, 79414, Note_off_c, 0, 55, 64
1, 79510, Note_off_c, 0, 54, 64
1, 79550, Note_on_c, 0, 52, 102
1, 79634, Note_off_c, 0, 52, 64
1, 79836, Note_on_c, 0, 67, 82
1, 79850, Note_on_c, 0, 47, 56
1, 80024, Control_c, 0, 64, 0
1, 80210, Control_c, 0, 64, 127
1, 80246, Note_off_c, 0, 67, 64
1, 80728, Note_on_c, 0, 58, 73
1, 80914, Note_off_c, 0, 58, 64
1, 80974, Note_off_c, 0, 47, 64
1, 80998, Note_on_c, 0, 59, 76
1, 81024, Note_on_c, 0, 35, 43
1, 81054, Control_c, 0, 64, 0
1, 81316, Control_c, 0, 64, 127
1, 81440, Note_off_c, 0, 35, 64
1, 82070, Note_on_c, 0, 63, 43
1, 82082, Note_on_c, 0, 54, 44
1, 82374, Note_off_c, 0, 59, 64
1, 82490, Note_off_c, 0, 63, 64
1, 82896, Note_on_c, 0, 61, 75
1, 82962, Note_on_c, 0, 57, 26
1, 83380, Note_on_c, 0, 63, 75
1, 83490, Note_off_c, 0, 61, 64
1, 83832, Note_on_c, 0, 49, 26
1, 83942, Note_on_c, 0, 64, 52
1, 83980, Note_off_c, 0, 63, 64
1, 84020, Control_c, 0, 64, 0
1, 84028, Note_off_c, 0, 54, 64
1, 84220, Control_c, 0, 64, 127
1, 84570, Note_off_c, 0, 49, 64
1, 84634, Note_on_c, 0, 47, 25
1, 84728, Control_c, 0, 64, 0
1, 84896, Control_c, 0, 64, 127
1, 84992, Note_off_c, 0, 57, 64
1, 85156, Note_on_c, 0, 66, 22
1, 85196, Note_off_c, 0, 64, 64
1, 85450, Note_off_c, 0, 47, 64
1, 85602, Note_off_c, 0, 66, 64
1, 85646, Note_on_c, 0, 68, 29
1, 85706, Note_on_c, 0, 40, 39
1, 85709, Control_c, 0, 64, 0
1, 85986, Control_c, 0, 64, 127
1, 86152, Note_off_c, 0, 40, 64
1, 86832, Note_on_c, 0, 61, 29
1, 86868, Note_on_c, 0, 56, 19
1, 86896, Note_on_c, 0, 52, 23
1, 87264, Note_off_c, 0, 52, 64
1, 87274, Note_off_c, 0, 56, 64
1, 87286, Note_on_c, 0, 69, 40
1, 87290, Note_off_c, 0, 61, 64
1, 87374, Note_off_c, 0, 68, 64
1, 87466, Note_off_c, 0, 69, 64
1, 87504, Note_on_c, 0, 47, 22
1, 87642, Note_on_c, 0, 56, 28
1, 87860, Note_on_c, 0, 71, 38
1, 87886, Note_on_c, 0, 59, 19
1, 87906, Control_c, 0, 64, 0
1, 88072, Note_on_c, 0, 76, 34
1, 88075, Note_off_c, 0, 71, 64
1, 88075, Control_c, 0, 64, 127
1, 88148, Note_off_c, 0, 76, 64
1, 88152, Note_off_c, 0, 47, 64
1, 88186, Note_on_c, 0, 78, 45
1, 88262, Note_off_c, 0, 56, 64
1, 88286, Note_off_c, 0, 78, 64
1, 88290, Note_on_c, 0, 80, 59
1, 88292, Note_off_c, 0, 59, 64
1, 88332, Note_off_c, 0, 80, 64
1, 88408, Note_on_c, 0, 83, 74
1, 88500, Note_on_c, 0, 88, 61
1, 88594, Note_on_c, 0, 90, 59
1, 88606, Note_off_c, 0, 88, 64
1, 88620, Note_off_c, 0, 83, 64
1, 88690, Note_on_c, 0, 92, 58
1, 88702, Note_off_c, 0, 90, 64
1, 88778, Note_on_c, 0, 68, 26
1, 88780, Note_on_c, 0, 90, 55
1, 88792, Note_on_c, 0, 59, 22
1, 88830, Note_off_c, 0, 92, 64
1, 88832, Note_on_c, 0, 64, 5
1, 88905, Note_on_c, 0, 88, 52
1, 88916, Note_off_c, 0, 90, 64
1, 88952, Note_off_c, 0, 88, 64
1, 89002, Note_on_c, 0, 83, 69
1, 89056, Note_off_c, 0, 83, 64
1, 89110, Note_on_c, 0, 80, 56
1, 89116, Note_off_c, 0, 68, 64
1, 89202, Note_off_c, 0, 64, 64
1, 89240, Note_on_c, 0, 78, 48
1, 89264, Note_off_c, 0, 80, 64
1, 89338, Note_off_c, 0, 59, 64
1, 89352, Note_off_c, 0, 78, 64
1, 89360, Note_on_c, 0, 76, 36
1, 89414, Note_off_c, 0, 76, 64
1, 89470, Note_on_c, 0, 71, 49
1, 89536, Note_off_c, 0, 71, 64
1, 89572, Note_on_c, 0, 73, 43
1, 89696, Note_on_c, 0, 68, 35
1, 89706, Note_off_c, 0, 73, 64
1, 89870, Note_on_c, 0, 73, 50
1, 89872, Note_off_c, 0, 68, 64
1, 90126, Note_on_c, 0, 71, 63
1, 90154, Note_off_c, 0, 73, 64
1, 90180, Note_on_c, 0, 35, 30
1, 90212, Control_c, 0, 64, 0
1, 90458, Control_c, 0, 64, 127
1, 90482, Note_off_c, 0, 35, 64
1, 90956, Note_on_c, 0, 47, 29
1, 90958, Note_on_c, 0, 57, 30
1, 91330, Note_off_c, 0, 47, 64
1, 91378, Note_off_c, 0, 57, 64
1, 91776, Note_on_c, 0, 66, 50
1, 91800, Note_on_c, 0, 63, 23
1, 91840, Note_on_c, 0, 57, 10
1, 91920, Note_off_c, 0, 71, 64
1, 91952, Note_off_c, 0, 63, 64
1, 92016, Note_off_c, 0, 57, 64
1, 92548, Note_on_c, 0, 35, 22
1, 93046, Note_on_c, 0, 67, 40
1, 93086, Control_c, 0, 64, 0
1, 93102, Note_off_c, 0, 66, 64
1, 93254, Control_c, 0, 64, 127
1, 93324, Note_off_c, 0, 35, 64
1, 93374, Note_off_c, 0, 67, 64
1, 93662, Note_on_c, 0, 64, 53
1, 93682, Note_on_c, 0, 36, 24
1, 93684, Control_c, 0, 64, 0
1, 93976, Control_c, 0, 64, 127
1, 94076, Note_off_c, 0, 36, 64
1, 94484, Note_on_c, 0, 57, 31
1, 94516, Note_on_c, 0, 52, 23
1, 94616, Note_off_c, 0, 52, 64
1, 94934, Note_off_c, 0, 57, 64
1, 95114, Note_on_c, 0, 65, 36
1, 95260, Note_off_c, 0, 64, 64
1, 95354, Note_on_c, 0, 43, 15
1, 95532, Note_on_c, 0, 67, 36
1, 95544, Control_c, 0, 64, 0
1, 95574, Note_off_c, 0, 65, 64
1, 95606, Note_on_c, 0, 55, 30
1, 95758, Control_c, 0, 64, 127
1, 95776, Note_off_c, 0, 43, 64
1, 95862, Note_off_c, 0, 55, 64
1, 95942, Note_on_c, 0, 71, 63
1, 96078, Note_off_c, 0, 67, 64
1, 96318, Note_on_c, 0, 72, 53
1, 96342, Note_on_c, 0, 64, 27
1, 96352, Note_off_c, 0, 71, 64
1, 96362, Note_on_c, 0, 55, 21
1, 96436, Note_off_c, 0, 64, 64
1, 96468, Note_off_c, 0, 55, 64
1, 96688, Note_on_c, 0, 69, 46
1, 96778, Note_off_c, 0, 72, 64
1, 97096, Control_c, 0, 64, 0
1, 97104, Note_on_c, 0, 67, 46
1, 97114, Note_on_c, 0, 31, 42
1, 97116, Note_off_c, 0, 69, 64
1, 97340, Control_c, 0, 64, 127
1, 97368, Note_off_c, 0, 31, 64
1, 97920, Note_on_c, 0, 43, 23
1, 97936, Note_on_c, 0, 53, 29
1, 98026, Note_off_c, 0, 53, 64
1, 98370, Note_off_c, 0, 43, 64
1, 98672, Note_on_c, 0, 62, 39
1, 98689, Note_on_c, 0, 59, 25
1, 98812, Note_off_c, 0, 59, 64
1, 98888, Note_off_c, 0, 67, 64
1, 99466, Note_on_c, 0, 43, 20
1, 99972, Note_on_c, 0, 64, 37
1, 99984, Note_off_c, 0, 62, 64
1, 100300, Note_off_c, 0, 64, 64
1, 100528, Note_on_c, 0, 61, 49
1, 100540, Note_on_c, 0, 31, 33
1, 100552, Control_c, 0, 64, 0
1, 100752, Note_off_c, 0, 43, 64
1, 100798, Control_c, 0, 64, 127
1, 100878, Note_off_c, 0, 31, 64
1, 101296, Note_on_c, 0, 58, 23
1, 101322, Note_on_c, 0, 52, 38
1, 101554, Note_off_c, 0, 58, 64
1, 101646, Note_off_c, 0, 52, 64
1, 101986, Note_on_c, 0, 30, 38
1, 101988, Note_on_c, 0, 42, 35
1, 102354, Note_on_c, 0, 63, 57
1, 102472, Note_off_c, 0, 61, 64
1, 102536, Note_off_c, 0, 42, 64
1, 102722, Note_on_c, 0, 64, 76
1, 102724, Note_on_c, 0, 28, 54
1, 102727, Note_off_c, 0, 30, 64
1, 102727, Note_on_c, 0, 40, 59
1, 102808, Note_off_c, 0, 63, 64
1, 103038, Note_on_c, 0, 65, 78
1, 103154, Note_off_c, 0, 40, 64
1, 103318, Note_off_c, 0, 64, 64
1, 103472, Note_off_c, 0, 28, 64
1, 103480, Note_on_c, 0, 27, 60
1, 103482, Note_on_c, 0, 39, 55
1, 103488, Note_on_c, 0, 66, 64
1, 103600, Note_off_c, 0, 65, 64
1, 103610, Control_c, 0, 64, 0
1, 103886, Control_c, 0, 64, 127
1, 103896, Note_off_c, 0, 27, 64
1, 103952, Note_off_c, 0, 39, 64
1, 104262, Note_on_c, 0, 59, 84
1, 104272, Note_on_c, 0, 57, 52
1, 104278, Note_on_c, 0, 47, 57
1, 104496, Note_off_c, 0, 57, 64
1, 104524, Note_off_c, 0, 66, 64
1, 104578, Note_off_c, 0, 47, 64
1, 105062, Note_on_c, 0, 68, 95
1, 105082, Note_on_c, 0, 40, 87
1, 105085, Note_on_c, 0, 28, 72
1, 105100, Control_c, 0, 64, 0
1, 105152, Note_off_c, 0, 59, 64
1, 105362, Control_c, 0, 64, 127
1, 105364, Note_off_c, 0, 28, 64
1, 105462, Note_off_c, 0, 40, 64
1, 105838, Note_on_c, 0, 62, 81
1, 105838, Note_on_c, 0, 56, 58
1, 105856, Note_on_c, 0, 52, 60
1, 106110, Note_off_c, 0, 62, 64
1, 106190, Note_off_c, 0, 56, 64
1, 106198, Note_off_c, 0, 52, 64
1, 106450, Note_off_c, 0, 68, 64
1, 106618, Note_on_c, 0, 45, 80
1, 106618, Note_on_c, 0, 33, 85
1, 106830, Note_on_c, 0, 61, 91
1, 106868, Control_c, 0, 64, 0
1, 107004, Note_off_c, 0, 33, 64
1, 107036, Control_c, 0, 64, 127
1, 107038, Note_off_c, 0, 61, 64
1, 107050, Note_on_c, 0, 68, 76
1, 107086, Note_off_c, 0, 45, 64
1, 107170, Note_off_c, 0, 68, 64
1, 107206, Note_on_c, 0, 66, 73
1, 107240, Note_on_c, 0, 68, 29
1, 107338, Note_on_c, 0, 73, 73
1, 107348, Note_off_c, 0, 68, 64
1, 107350, Note_off_c, 0, 66, 64
1, 107474, Note_on_c, 0, 80, 88
1, 107484, Note_on_c, 0, 64, 65
1, 107488, Note_on_c, 0, 54, 56
1, 107498, Note_on_c, 0, 61, 49
1, 107500, Note_off_c, 0, 73, 64
1, 107528, Note_off_c, 0, 80, 64
1, 107596, Note_on_c, 0, 78, 92
1, 107708, Note_on_c, 0, 85, 84
1, 107770, Note_off_c, 0, 78, 64
1, 107850, Note_on_c, 0, 92, 83
1, 107892, Note_off_c, 0, 85, 64
1, 108030, Note_on_c, 0, 90, 76
1, 108068, Note_off_c, 0, 92, 64
1, 108166, Note_on_c, 0, 85, 69
1, 108194, Note_off_c, 0, 90, 64
1, 108206, Note_off_c, 0, 64, 64
1, 108244, Note_off_c, 0, 61, 64
1, 108276, Note_off_c, 0, 85, 64
1, 108278, Note_on_c, 0, 80, 73
1, 108320, Note_off_c, 0, 54, 64
1, 108336, Note_off_c, 0, 80, 64
1, 108384, Note_on_c, 0, 78, 75
1, 108516, Note_on_c, 0, 73, 66
1, 108526, Note_off_c, 0, 78, 64
1, 108596, Note_off_c, 0, 73, 64
1, 108620, Note_on_c, 0, 69, 63
1, 108702, Note_off_c, 0, 69, 64
1, 108716, Note_on_c, 0, 68, 67
1, 108796, Note_off_c, 0, 68, 64
1, 108796, Note_on_c, 0, 66, 65
1, 108856, Note_on_c, 0, 47, 38
1, 108859, Note_on_c, 0, 35, 45
1, 108914, Note_off_c, 0, 66, 64
1, 108920, Note_on_c, 0, 68, 65
1, 108958, Control_c, 0, 64, 0
1, 108980, Note_off_c, 0, 68, 64
1, 108998, Note_on_c, 0, 66, 52
1, 109074, Note_on_c, 0, 68, 56
1, 109104, Note_off_c, 0, 66, 64
1, 109126, Control_c, 0, 64, 127
1, 109138, Note_off_c, 0, 68, 64
1, 109162, Note_on_c, 0, 66, 54
1, 109190, Note_off_c, 0, 35, 64
1, 109208, Note_on_c, 0, 68, 61
1, 109211, Note_off_c, 0, 66, 64
1, 109266, Note_off_c, 0, 68, 64
1, 109278, Note_on_c, 0, 66, 52
1, 109282, Note_off_c, 0, 47, 64
1, 109328, Note_off_c, 0, 66, 64
1, 109332, Note_on_c, 0, 68, 60
1, 109394, Note_on_c, 0, 66, 43
1, 109436, Note_off_c, 0, 68, 64
1, 109502, Note_off_c, 0, 66, 64
1, 109502, Note_on_c, 0, 65, 64
1, 109634, Note_on_c, 0, 66, 54
1, 109646, Note_off_c, 0, 65, 64
1, 109822, Note_on_c, 0, 63, 25
1, 109838, Note_on_c, 0, 57, 15
1, 109880, Control_c, 0, 64, 0
1, 109910, Note_on_c, 0, 68, 52
1, 109920, Note_off_c, 0, 66, 64
1, 110078, Control_c, 0, 64, 127
1, 110124, Note_off_c, 0, 63, 64
1, 110192, Note_off_c, 0, 68, 64
1, 110200, Note_off_c, 0, 57, 64
1, 110646, Note_on_c, 0, 59, 50
1, 111132, Note_on_c, 0, 56, 28
1, 111160, Note_on_c, 0, 64, 53
1, 111166, Note_on_c, 0, 40, 39
1, 111184, Control_c, 0, 64, 0
1, 111282, Note_off_c, 0, 59, 64
1, 111714, Note_on_c, 0, 49, 44
1, 111758, Note_off_c, 0, 40, 64
1, 111770, Control_c, 0, 64, 127
1, 111974, Note_on_c, 0, 46, 48
1, 112010, Note_off_c, 0, 49, 64
1, 112214, Note_on_c, 0, 49, 55
1, 112262, Note_off_c, 0, 46, 64
1, 112276, Control_c, 0, 64, 0
1, 112416, Note_on_c, 0, 47, 46
1, 112426, Note_off_c, 0, 49, 64
1, 112522, Control_c, 0, 64, 127
1, 112606, Note_off_c, 0, 47, 64
1, 112632, Note_on_c, 0, 52, 61
1, 112810, Note_on_c, 0, 51, 58
1, 112844, Control_c, 0, 64, 0
1, 112852, Note_off_c, 0, 52, 64
1, 113002, Note_on_c, 0, 54, 78
1, 113020, Note_off_c, 0, 56, 64
1, 113044, Control_c, 0, 64, 127
1, 113058, Note_off_c, 0, 51, 64
1, 113186, Note_on_c, 0, 52, 83
1, 113196, Note_off_c, 0, 54, 64
1, 113366, Control_c, 0, 64, 0
1, 113372, Note_on_c, 0, 56, 65
1, 113396, Note_off_c, 0, 52, 64
1, 113534, Note_off_c, 0, 64, 64
1, 113566, Control_c, 0, 64, 127
1, 113576, Note_on_c, 0, 55, 67
1, 113658, Note_off_c, 0, 56, 64
1, 113792, Note_off_c, 0, 55, 64
1, 113804, Note_on_c, 0, 57, 46
1, 113842, Note_on_c, 0, 64, 75
1, 113904, Control_c, 0, 64, 0
1, 114134, Control_c, 0, 64, 127
1, 114152, Note_off_c, 0, 57, 64
1, 114152, Note_on_c, 0, 56, 47
1, 114376, Note_on_c, 0, 54, 62
1, 114378, Note_off_c, 0, 56, 64
1, 114550, Note_off_c, 0, 54, 64
1, 114582, Note_on_c, 0, 66, 65
1, 114604, Note_on_c, 0, 52, 66
1, 114656, Note_off_c, 0, 64, 64
1, 114756, Note_off_c, 0, 52, 64
1, 114970, Note_on_c, 0, 68, 53
1, 114980, Note_on_c, 0, 56, 29
1, 114996, Control_c, 0, 64, 0
1, 115004, Note_on_c, 0, 51, 50
1, 115014, Note_on_c, 0, 64, 42
1, 115114, Note_off_c, 0, 66, 64
1, 115480, Note_on_c, 0, 37, 30
1, 115580, Control_c, 0, 64, 127
1, 115698, Note_off_c, 0, 51, 64
1, 115714, Note_on_c, 0, 44, 41
1, 115814, Note_off_c, 0, 37, 64
1, 115950, Note_off_c, 0, 44, 64
1, 115964, Note_on_c, 0, 49, 41
1, 116164, Control_c, 0, 64, 0
1, 116206, Note_on_c, 0, 48, 37
1, 116294, Note_off_c, 0, 49, 64
1, 116332, Control_c, 0, 64, 127
1, 116398, Note_on_c, 0, 51, 60
1, 116456, Control_c, 0, 64, 0
1, 116476, Note_off_c, 0, 48, 64
1, 116594, Control_c, 0, 64, 127
1, 116594, Note_on_c, 0, 49, 65
1, 116636, Note_off_c, 0, 51, 64
1, 116686, Control_c, 0, 64, 0
1, 116788, Note_on_c, 0, 52, 77
1, 116794, Note_off_c, 0, 49, 64
1, 116840, Control_c, 0, 64, 127
1, 116932, Control_c, 0, 64, 0
1, 116962, Note_on_c, 0, 51, 73
1, 116994, Note_off_c, 0, 52, 64
1, 117086, Control_c, 0, 64, 127
1, 117106, Note_off_c, 0, 56, 64
1, 117152, Note_on_c, 0, 54, 75
1, 117208, Control_c, 0, 64, 0
1, 117218, Note_off_c, 0, 51, 64
1, 117234, Note_off_c, 0, 64, 64
1, 117344, Note_on_c, 0, 52, 78
1, 117347, Control_c, 0, 64, 127
1, 117384, Note_off_c, 0, 54, 64
1, 117544, Note_off_c, 0, 52, 64
1, 117574, Note_on_c, 0, 57, 42
1, 117614, Note_on_c, 0, 64, 81
1, 117620, Note_on_c, 0, 61, 40
1, 117670, Control_c, 0, 64, 0
1, 117730, Note_off_c, 0, 68, 64
1, 117868, Control_c, 0, 64, 127
1, 117890, Note_off_c, 0, 57, 64
1, 117890, Note_on_c, 0, 56, 48
1, 118174, Note_off_c, 0, 56, 64
1, 118192, Note_on_c, 0, 66, 64
1, 118216, Note_on_c, 0, 54, 51
1, 118256, Note_off_c, 0, 64, 64
1, 118304, Note_off_c, 0, 54, 64
1, 118444, Note_off_c, 0, 61, 64
1, 118446, Note_on_c, 0, 68, 68
1, 118476, Note_on_c, 0, 52, 52
1, 118506, Note_off_c, 0, 66, 64
1, 118582, Note_off_c, 0, 68, 64
1, 118658, Note_off_c, 0, 52, 64
1, 118708, Note_on_c, 0, 68, 68
1, 118712, Note_on_c, 0, 58, 42
1, 118714, Note_on_c, 0, 64, 54
1, 118730, Note_on_c, 0, 42, 31
1, 118796, Note_off_c, 0, 64, 64
1, 118822, Control_c, 0, 64, 0
1, 118998, Note_on_c, 0, 64, 18
1, 119144, Control_c, 0, 64, 127
1, 119234, Note_on_c, 0, 48, 22
1, 119280, Note_off_c, 0, 42, 64
1, 119460, Note_off_c, 0, 48, 64
1, 119460, Note_on_c, 0, 49, 40
1, 119600, Note_off_c, 0, 49, 64
1, 119662, Note_on_c, 0, 52, 52
1, 119826, Note_off_c, 0, 52, 64
1, 119842, Note_on_c, 0, 51, 46
1, 120006, Note_on_c, 0, 54, 68
1, 120038, Note_off_c, 0, 51, 64
1, 120086, Note_off_c, 0, 64, 64
1, 120136, Note_off_c, 0, 54, 64
1, 120196, Note_on_c, 0, 52, 67
1, 120274, Note_off_c, 0, 58, 64
1, 120344, Note_off_c, 0, 52, 64
1, 120418, Note_on_c, 0, 66, 63
1, 120434, Note_on_c, 0, 63, 48
1, 120434, Note_on_c, 0, 56, 36
1, 120588, Control_c, 0, 64, 0
1, 120604, Note_off_c, 0, 68, 64
1, 120774, Control_c, 0, 64, 127
1, 120804, Note_on_c, 0, 49, 46
1, 120930, Note_off_c, 0, 56, 64
1, 121036, Note_on_c, 0, 51, 47
1, 121048, Note_off_c, 0, 49, 64
1, 121258, Note_on_c, 0, 54, 48
1, 121258, Note_on_c, 0, 64, 81
1, 121264, Note_on_c, 0, 61, 52
1, 121280, Note_off_c, 0, 51, 64
1, 121288, Note_off_c, 0, 63, 64
1, 121366, Note_off_c, 0, 66, 64
1, 121426, Note_off_c, 0, 54, 64
1, 121458, Note_on_c, 0, 52, 62
1, 121586, Note_off_c, 0, 52, 64
1, 121632, Note_on_c, 0, 56, 51
1, 121666, Note_off_c, 0, 64, 64
1, 121822, Note_on_c, 0, 54, 58
1, 121825, Note_off_c, 0, 56, 64
1, 121878, Note_off_c, 0, 54, 64
1, 121998, Note_on_c, 0, 57, 47
1, 122036, Note_on_c, 0, 73, 79
1, 122056, Note_on_c, 0, 52, 26
1, 122070, Note_on_c, 0, 66, 22
1, 122080, Control_c, 0, 64, 0
1, 122094, Note_off_c, 0, 61, 64
1, 122228, Note_on_c, 0, 51, 62
1, 122258, Note_off_c, 0, 52, 64
1, 122308, Control_c, 0, 64, 127
1, 122428, Note_off_c, 0, 51, 64
1, 122434, Note_on_c, 0, 49, 62
1, 122592, Note_off_c, 0, 49, 64
1, 122638, Note_on_c, 0, 52, 61
1, 122826, Note_off_c, 0, 52, 64
1, 122876, Note_on_c, 0, 51, 45
1, 122888, Note_on_c, 0, 71, 87
1, 122894, Control_c, 0, 64, 0
1, 122994, Note_off_c, 0, 73, 64
1, 123054, Note_on_c, 0, 49, 50
1, 123062, Note_off_c, 0, 51, 64
1, 123108, Control_c, 0, 64, 127
1, 123222, Note_off_c, 0, 49, 64
1, 123258, Note_on_c, 0, 47, 47
1, 123332, Note_off_c, 0, 66, 64
1, 123352, Note_off_c, 0, 71, 64
1, 123354, Note_off_c, 0, 47, 64
1, 123426, Note_on_c, 0, 51, 57
1, 123428, Note_off_c, 0, 57, 64
1, 123532, Note_off_c, 0, 51, 64
1, 123636, Note_on_c, 0, 64, 79
1, 123642, Note_on_c, 0, 49, 44
1, 123648, Note_on_c, 0, 57, 27
1, 123822, Note_on_c, 0, 47, 48
1, 123828, Note_off_c, 0, 49, 64
1, 123830, Control_c, 0, 64, 0
1, 124000, Note_off_c, 0, 47, 64
1, 124008, Note_on_c, 0, 46, 44
1, 124016, Control_c, 0, 64, 127
1, 124176, Note_off_c, 0, 46, 64
1, 124206, Note_on_c, 0, 49, 54
1, 124272, Note_off_c, 0, 49, 64
1, 124394, Note_on_c, 0, 47, 45
1, 124446, Note_on_c, 0, 66, 57
1, 124456, Note_on_c, 0, 63, 44
1, 124506, Control_c, 0, 64, 0
1, 124524, Note_off_c, 0, 64, 64
1, 124656, Note_off_c, 0, 57, 64
1, 124674, Note_on_c, 0, 42, 35
1, 124690, Control_c, 0, 64, 127
1, 124750, Note_off_c, 0, 47, 64
1, 124854, Note_off_c, 0, 66, 64
1, 124908, Note_off_c, 0, 42, 64
1, 124952, Note_on_c, 0, 68, 52
1, 124968, Note_on_c, 0, 37, 33
1, 125106, Note_off_c, 0, 37, 64
1, 125170, Note_off_c, 0, 63, 64
1, 125210, Note_off_c, 0, 68, 64
1, 125226, Note_on_c, 0, 69, 49
1, 125232, Note_on_c, 0, 35, 45
1, 125304, Note_off_c, 0, 35, 64
1, 125386, Note_off_c, 0, 69, 64
1, 125600, Note_on_c, 0, 69, 38
1, 125615, Note_on_c, 0, 61, 36
1, 125628, Control_c, 0, 64, 0
1, 125632, Note_on_c, 0, 64, 35
1, 125638, Note_on_c, 0, 28, 36
1, 125996, Control_c, 0, 64, 127
1, 126134, Note_off_c, 0, 28, 64
1, 126192, Note_off_c, 0, 61, 64
1, 126368, Note_on_c, 0, 68, 42
1, 126398, Note_on_c, 0, 59, 30
1, 126484, Note_off_c, 0, 69, 64
1, 126634, Note_on_c, 0, 47, 31
1, 126898, Note_on_c, 0, 51, 42
1, 127090, Note_off_c, 0, 47, 64
1, 127092, Note_off_c, 0, 51, 64
1, 127095, Note_on_c, 0, 49, 44
1, 127282, Note_off_c, 0, 49, 64
1, 127306, Note_on_c, 0, 52, 54
1, 127432, Note_off_c, 0, 59, 64
1, 127438, Note_off_c, 0, 64, 64
1, 127462, Note_on_c, 0, 51, 53
1, 127474, Note_off_c, 0, 52, 64
1, 127628, Note_off_c, 0, 68, 64
1, 127654, Note_on_c, 0, 54, 72
1, 127724, Note_off_c, 0, 51, 64
1, 127838, Note_on_c, 0, 52, 80
1, 127862, Note_off_c, 0, 54, 64
1, 128002, Note_on_c, 0, 64, 89
1, 128020, Note_off_c, 0, 52, 64
1, 128026, Note_on_c, 0, 56, 55
1, 128226, Note_on_c, 0, 54, 62
1, 128266, Note_off_c, 0, 56, 64
1, 128354, Note_on_c, 0, 68, 68
1, 128454, Note_off_c, 0, 54, 64
1, 128466, Note_on_c, 0, 57, 49
1, 128538, Note_on_c, 0, 76, 79
1, 128548, Control_c, 0, 64, 0
1, 128824, Control_c, 0, 64, 127
1, 128856, Note_on_c, 0, 56, 57
1, 128884, Note_off_c, 0, 57, 64
1, 128920, Note_off_c, 0, 64, 64
1, 128982, Note_off_c, 0, 76, 64
1, 129050, Note_off_c, 0, 68, 64
1, 129062, Note_on_c, 0, 54, 69
1, 129065, Note_off_c, 0, 56, 64
1, 129246, Note_on_c, 0, 76, 91
1, 129258, Note_off_c, 0, 54, 64
1, 129290, Note_on_c, 0, 52, 60
1, 129372, Note_off_c, 0, 76, 64
1, 129388, Note_on_c, 0, 64, 51
1, 129450, Note_on_c, 0, 68, 54
1, 129452, Note_off_c, 0, 52, 64
1, 129558, Note_on_c, 0, 76, 87
1, 129560, Note_on_c, 0, 51, 62
1, 129638, Control_c, 0, 64, 0
1, 129884, Control_c, 0, 64, 127
1, 129980, Note_off_c, 0, 64, 64
1, 130024, Note_on_c, 0, 37, 49
1, 130050, Note_off_c, 0, 51, 64
1, 130076, Note_off_c, 0, 68, 64
1, 130292, Note_on_c, 0, 44, 64
1, 130328, Note_off_c, 0, 37, 64
1, 130536, Note_off_c, 0, 44, 64
1, 130564, Note_on_c, 0, 51, 50
1, 130564, Note_on_c, 0, 78, 77
1, 130592, Note_off_c, 0, 76, 64
1, 130818, Note_off_c, 0, 78, 64
1, 130884, Note_on_c, 0, 76, 66
1, 130902, Note_on_c, 0, 49, 38
1, 130924, Note_off_c, 0, 51, 64
1, 131092, Note_off_c, 0, 49, 64
1, 131144, Note_on_c, 0, 73, 61
1, 131146, Note_off_c, 0, 76, 64
1, 131174, Note_on_c, 0, 52, 45
1, 131364, Note_off_c, 0, 52, 64
1, 131374, Note_off_c, 0, 73, 64
1, 131374, Note_on_c, 0, 68, 65
1, 131382, Note_on_c, 0, 51, 47
1, 131432, Note_off_c, 0, 68, 64
1, 131644, Note_on_c, 0, 54, 49
1, 131662, Note_on_c, 0, 68, 58
1, 131665, Note_on_c, 0, 61, 48
1, 131808, Note_off_c, 0, 51, 64
1, 131906, Note_on_c, 0, 52, 66
1, 131912, Note_off_c, 0, 54, 64
1, 132044, Note_off_c, 0, 52, 64
1, 132102, Note_on_c, 0, 66, 70
1, 132120, Note_on_c, 0, 57, 45
1, 132228, Note_off_c, 0, 68, 64
1, 132326, Note_off_c, 0, 57, 64
1, 132332, Note_off_c, 0, 61, 64
1, 132334, Note_on_c, 0, 56, 54
1, 132334, Note_on_c, 0, 64, 81
1, 132416, Note_off_c, 0, 66, 64
1, 132536, Note_on_c, 0, 63, 78
1, 132546, Note_off_c, 0, 56, 64
1, 132550, Note_on_c, 0, 61, 53
1, 132566, Note_on_c, 0, 55, 45
1, 132578, Note_off_c, 0, 64, 64
1, 132742, Note_off_c, 0, 55, 64
1, 132772, Note_on_c, 0, 56, 56
1, 132772, Note_on_c, 0, 64, 84
1, 132852, Note_off_c, 0, 63, 64
1, 132926, Control_c, 0, 64, 0
1, 132998, Note_on_c, 0, 66, 62
1, 133016, Note_on_c, 0, 52, 58
1, 133034, Note_off_c, 0, 56, 64
1, 133048, Note_off_c, 0, 64, 64
1, 133080, Control_c, 0, 64, 127
1, 133102, Note_off_c, 0, 61, 64
1, 133250, Note_off_c, 0, 52, 64
1, 133284, Note_on_c, 0, 67, 65
1, 133294, Note_off_c, 0, 66, 64
1, 133294, Note_on_c, 0, 64, 51
1, 133297, Note_on_c, 0, 49, 42
1, 133301, Note_on_c, 0, 57, 41
1, 133364, Note_off_c, 0, 57, 64
1, 133420, Note_off_c, 0, 64, 64
1, 133540, Note_off_c, 0, 67, 64
1, 133540, Note_on_c, 0, 60, 44
1, 133596, Note_off_c, 0, 49, 64
1, 133614, Note_on_c, 0, 63, 51
1, 133614, Note_on_c, 0, 44, 36
1, 133664, Control_c, 0, 64, 0
1, 133708, Note_on_c, 0, 67, 47
1, 133970, Note_on_c, 0, 51, 44
1, 133986, Control_c, 0, 64, 127
1, 134010, Note_off_c, 0, 60, 64
1, 134010, Note_off_c, 0, 44, 64
1, 134182, Note_on_c, 0, 56, 48
1, 134198, Note_off_c, 0, 63, 64
1, 134242, Note_on_c, 0, 68, 30
1, 134286, Note_off_c, 0, 67, 64
1, 134338, Note_off_c, 0, 51, 64
1, 134356, Note_off_c, 0, 56, 64
1, 134398, Note_on_c, 0, 60, 46
1, 134508, Note_off_c, 0, 68, 64
1, 134592, Note_off_c, 0, 60, 64
1, 134618, Note_on_c, 0, 61, 50
1, 134632, Note_on_c, 0, 55, 41
1, 134846, Note_on_c, 0, 64, 61
1, 134894, Control_c, 0, 64, 0
1, 135062, Control_c, 0, 64, 127
1, 135082, Note_on_c, 0, 69, 42
1, 135108, Note_off_c, 0, 61, 64
1, 135152, Note_off_c, 0, 64, 64
1, 135164, Note_off_c, 0, 55, 64
1, 135300, Note_off_c, 0, 69, 64
1, 135302, Note_on_c, 0, 73, 47
1, 135320, Note_on_c, 0, 76, 54
1, 135406, Note_off_c, 0, 73, 64
1, 135415, Note_off_c, 0, 76, 64
1, 135532, Note_on_c, 0, 72, 47
1, 135544, Note_on_c, 0, 75, 57
1, 135547, Note_on_c, 0, 44, 43
1, 135616, Control_c, 0, 64, 0
1, 135740, Note_on_c, 0, 51, 61
1, 135784, Control_c, 0, 64, 127
1, 135786, Note_off_c, 0, 44, 64
1, 135908, Note_off_c, 0, 75, 64
1, 135924, Note_on_c, 0, 56, 58
1, 135926, Note_on_c, 0, 63, 58
1, 135932, Note_on_c, 0, 68, 52
1, 135988, Note_off_c, 0, 72, 64
1, 136004, Note_off_c, 0, 51, 64
1, 136056, Note_off_c, 0, 63, 64
1, 136080, Note_off_c, 0, 56, 64
1, 136120, Note_on_c, 0, 60, 68
1, 136166, Note_off_c, 0, 68, 64
1, 136290, Note_off_c, 0, 60, 64
1, 136322, Note_on_c, 0, 55, 79
1, 136322, Note_on_c, 0, 61, 79
1, 136384, Control_c, 0, 64, 0
1, 136518, Note_on_c, 0, 64, 92
1, 136546, Note_off_c, 0, 55, 64
1, 136568, Control_c, 0, 64, 127
1, 136596, Note_off_c, 0, 61, 64
1, 136742, Note_on_c, 0, 69, 76
1, 136818, Note_off_c, 0, 64, 64
1, 136968, Note_on_c, 0, 76, 85
1, 136976, Note_on_c, 0, 73, 69
1, 137066, Note_off_c, 0, 69, 64
1, 137108, Note_off_c, 0, 76, 64
1, 137212, Note_on_c, 0, 32, 84
1, 137220, Note_on_c, 0, 75, 86
1, 137254, Note_on_c, 0, 72, 68
1, 137308, Note_off_c, 0, 73, 64
1, 137428, Control_c, 0, 64, 0
1, 137566, Note_on_c, 0, 44, 88
1, 137628, Control_c, 0, 64, 127
1, 137640, Note_off_c, 0, 32, 64
1, 137676, Note_off_c, 0, 72, 64
1, 137688, Note_off_c, 0, 44, 64
1, 137712, Note_off_c, 0, 75, 64
1, 137866, Note_on_c, 0, 51, 93
1, 138102, Note_on_c, 0, 63, 93
1, 138122, Note_on_c, 0, 60, 80
1, 138148, Note_off_c, 0, 51, 64
1, 138222, Note_off_c, 0, 60, 64
1, 138302, Note_off_c, 0, 63, 64
1, 138328, Note_on_c, 0, 66, 86
1, 138448, Note_off_c, 0, 66, 64
1, 138552, Note_on_c, 0, 69, 89
1, 138752, Note_off_c, 0, 69, 64
1, 138874, Note_on_c, 0, 72, 100
1, 139010, Note_off_c, 0, 72, 64
1, 139354, Note_on_c, 0, 81, 99
1, 139485, Note_off_c, 0, 81, 64
1, 139552, Note_on_c, 0, 81, 84
1, 139974, Note_on_c, 0, 75, 78
1, 140058, Note_off_c, 0, 81, 64
1, 140320, Note_on_c, 0, 78, 76
1, 140402, Note_off_c, 0, 75, 64
1, 140558, Note_off_c, 0, 78, 64
1, 140590, Note_on_c, 0, 69, 59
1, 140824, Note_off_c, 0, 69, 64
1, 140834, Note_on_c, 0, 75, 62
1, 141052, Note_on_c, 0, 66, 49
1, 141094, Note_off_c, 0, 75, 64
1, 141274, Note_on_c, 0, 69, 41
1, 141290, Note_off_c, 0, 66, 64
1, 141448, Note_off_c, 0, 69, 64
1, 141516, Note_on_c, 0, 61, 59
1, 141838, Note_on_c, 0, 64, 73
1, 141862, Note_off_c, 0, 61, 64
1, 141900, Control_c, 0, 64, 0
1, 142110, Note_on_c, 0, 54, 39
1, 142118, Note_on_c, 0, 57, 36
1, 142146, Control_c, 0, 64, 127
1, 142236, Note_off_c, 0, 57, 64
1, 142256, Note_off_c, 0, 54, 64
1, 142330, Note_on_c, 0, 63, 68
1, 142392, Note_off_c, 0, 64, 64
1, 142528, Note_on_c, 0, 61, 67
1, 142540, Note_on_c, 0, 54, 48
1, 142558, Note_off_c, 0, 63, 64
1, 142586, Note_on_c, 0, 57, 18
1, 142702, Note_off_c, 0, 57, 64
1, 142748, Note_off_c, 0, 54, 64
1, 142782, Note_on_c, 0, 60, 63
1, 142798, Note_on_c, 0, 39, 45
1, 142800, Note_off_c, 0, 61, 64
1, 142884, Control_c, 0, 64, 0
1, 143014, Note_on_c, 0, 54, 46
1, 143016, Note_on_c, 0, 57, 48
1, 143128, Control_c, 0, 64, 127
1, 143206, Note_off_c, 0, 54, 64
1, 143211, Note_off_c, 0, 57, 64
1, 143218, Note_on_c, 0, 61, 63
1, 143248, Note_on_c, 0, 37, 56
1, 143258, Note_off_c, 0, 39, 64
1, 143282, Note_off_c, 0, 60, 64
1, 143344, Control_c, 0, 64, 0
1, 143424, Note_on_c, 0, 63, 69
1, 143434, Note_on_c, 0, 54, 51
1, 143446, Note_on_c, 0, 57, 37
1, 143458, Note_off_c, 0, 61, 64
1, 143512, Control_c, 0, 64, 127
1, 143517, Note_off_c, 0, 57, 64
1, 143590, Note_off_c, 0, 63, 64
1, 143706, Note_on_c, 0, 63, 36
1, 143728, Note_on_c, 0, 56, 42
1, 143736, Note_off_c, 0, 37, 64
1, 143739, Note_on_c, 0, 36, 55
1, 143756, Note_off_c, 0, 54, 64
1, 143790, Control_c, 0, 64, 0
1, 144024, Note_on_c, 0, 44, 39
1, 144042, Note_on_c, 0, 54, 43
1, 144046, Note_off_c, 0, 56, 64
1, 144112, Control_c, 0, 64, 127
1, 144270, Note_off_c, 0, 44, 64
1, 144320, Note_off_c, 0, 54, 64
1, 144328, Note_on_c, 0, 55, 58
1, 144412, Note_off_c, 0, 63, 64
1, 144560, Note_on_c, 0, 56, 65
1, 144564, Note_on_c, 0, 44, 42
1, 144578, Note_on_c, 0, 54, 47
1, 144581, Note_off_c, 0, 55, 64
1, 144642, Note_off_c, 0, 36, 64
1, 144706, Note_off_c, 0, 44, 64
1, 144776, Note_on_c, 0, 32, 41
1, 144784, Note_on_c, 0, 58, 55
1, 144790, Note_off_c, 0, 54, 64
1, 144854, Note_off_c, 0, 56, 64
1, 144984, Note_on_c, 0, 44, 65
1, 144992, Note_on_c, 0, 54, 55
1, 144992, Note_on_c, 0, 60, 68
1, 145004, Note_off_c, 0, 58, 64
1, 145010, Note_off_c, 0, 32, 64
1, 145106, Note_off_c, 0, 54, 64
1, 145118, Note_off_c, 0, 44, 64
1, 145186, Note_on_c, 0, 45, 76
1, 145188, Note_on_c, 0, 61, 79
1, 145218, Note_off_c, 0, 60, 64
1, 145378, Note_on_c, 0, 63, 84
1, 145390, Note_on_c, 0, 54, 44
1, 145404, Note_on_c, 0, 44, 73
1, 145407, Note_on_c, 0, 60, 38
1, 145424, Note_off_c, 0, 45, 64
1, 145440, Note_off_c, 0, 61, 64
1, 145472, Note_off_c, 0, 60, 64
1, 145474, Note_off_c, 0, 54, 64
1, 145604, Note_on_c, 0, 37, 64
1, 145606, Note_on_c, 0, 64, 81
1, 145632, Note_off_c, 0, 44, 64
1, 145650, Control_c, 0, 64, 0
1, 145670, Note_off_c, 0, 63, 64
1, 145862, Note_on_c, 0, 61, 58
1, 145868, Note_on_c, 0, 52, 44
1, 145870, Note_on_c, 0, 44, 56
1, 145926, Control_c, 0, 64, 127
1, 145988, Note_off_c, 0, 52, 64
1, 145996, Note_off_c, 0, 37, 64
1, 146086, Note_off_c, 0, 44, 64
1, 146094, Note_on_c, 0, 63, 78
1, 146097, Note_off_c, 0, 64, 64
1, 146106, Note_on_c, 0, 48, 47
1, 146164, Note_off_c, 0, 61, 64
1, 146286, Note_off_c, 0, 63, 64
1, 146302, Note_off_c, 0, 48, 64
1, 146312, Note_on_c, 0, 64, 88
1, 146315, Note_on_c, 0, 61, 66
1, 146318, Note_on_c, 0, 49, 67
1, 146336, Note_on_c, 0, 52, 32
1, 146364, Note_off_c, 0, 61, 64
1, 146402, Note_off_c, 0, 52, 64
1, 146420, Note_off_c, 0, 64, 64
1, 146502, Note_on_c, 0, 42, 67
1, 146504, Note_on_c, 0, 66, 65
1, 146516, Note_off_c, 0, 49, 64
1, 146540, Control_c, 0, 64, 0
1, 146702, Note_on_c, 0, 68, 77
1, 146702, Note_on_c, 0, 49, 66
1, 146720, Note_on_c, 0, 57, 44
1, 146720, Note_on_c, 0, 61, 47
1, 146734, Note_off_c, 0, 66, 64
1, 146768, Note_off_c, 0, 42, 64
1, 146786, Control_c, 0, 64, 127
1, 146870, Note_off_c, 0, 57, 64
1, 146904, Note_off_c, 0, 61, 64
1, 146918, Note_off_c, 0, 49, 64
1, 146918, Note_on_c, 0, 56, 83
1, 146926, Note_on_c, 0, 64, 82
1, 146980, Note_off_c, 0, 68, 64
1, 147074, Note_off_c, 0, 56, 64
1, 147110, Note_on_c, 0, 66, 80
1, 147126, Note_on_c, 0, 54, 68
1, 147126, Note_on_c, 0, 57, 54
1, 147138, Note_on_c, 0, 61, 44
1, 147168, Note_off_c, 0, 54, 64
1, 147174, Note_off_c, 0, 64, 64
1, 147190, Note_off_c, 0, 57, 64
1, 147198, Note_off_c, 0, 61, 64
1, 147308, Control_c, 0, 64, 0
1, 147344, Note_on_c, 0, 37, 83
1, 147346, Note_on_c, 0, 68, 79
1, 147396, Note_off_c, 0, 66, 64
1, 147490, Note_off_c, 0, 37, 64
1, 147492, Control_c, 0, 64, 127
1, 147598, Note_on_c, 0, 56, 70
1, 147604, Note_on_c, 0, 61, 47
1, 147604, Note_on_c, 0, 64, 62
1, 147746, Note_off_c, 0, 61, 64
1, 147828, Note_off_c, 0, 64, 64
1, 147862, Note_on_c, 0, 54, 84
1, 147876, Note_off_c, 0, 56, 64
1, 148066, Note_on_c, 0, 56, 63
1, 148082, Note_on_c, 0, 52, 80
1, 148092, Note_on_c, 0, 64, 59
1, 148096, Note_off_c, 0, 54, 64
1, 148096, Note_on_c, 0, 61, 43
1, 148156, Note_off_c, 0, 61, 64
1, 148162, Note_off_c, 0, 56, 64
1, 148172, Note_off_c, 0, 64, 64
1, 148222, Note_off_c, 0, 68, 64
1, 148332, Note_on_c, 0, 71, 56
1, 148352, Note_on_c, 0, 51, 59
1, 148382, Note_off_c, 0, 52, 64
1, 148460, Control_c, 0, 64, 0
1, 148644, Note_on_c, 0, 66, 34
1, 148646, Note_on_c, 0, 49, 47
1, 148649, Note_on_c, 0, 63, 37
1, 148654, Note_on_c, 0, 57, 28
1, 148656, Note_on_c, 0, 59, 22
1, 148676, Note_off_c, 0, 51, 64
1, 148784, Control_c, 0, 64, 127
1, 148860, Note_off_c, 0, 49, 64
1, 148872, Note_off_c, 0, 63, 64
1, 148900, Note_off_c, 0, 57, 64
1, 148902, Note_on_c, 0, 47, 55
1, 148908, Note_off_c, 0, 59, 64
1, 149130, Note_on_c, 0, 63, 52
1, 149132, Note_on_c, 0, 42, 46
1, 149132, Note_on_c, 0, 57, 42
1, 149136, Note_on_c, 0, 59, 30
1, 149184, Note_off_c, 0, 66, 64
1, 149282, Note_off_c, 0, 42, 64
1, 149334, Note_off_c, 0, 47, 64
1, 149352, Control_c, 0, 64, 0
1, 149392, Note_on_c, 0, 35, 52
1, 149510, Note_on_c, 0, 68, 74
1, 149564, Note_off_c, 0, 57, 64
1, 149570, Note_off_c, 0, 35, 64
1, 149572, Note_off_c, 0, 59, 64
1, 149598, Control_c, 0, 64, 127
1, 149610, Note_off_c, 0, 63, 64
1, 149626, Note_off_c, 0, 71, 64
1, 149820, Note_on_c, 0, 57, 44
1, 149826, Note_on_c, 0, 59, 36
1, 149848, Note_on_c, 0, 52, 59
1, 150092, Note_on_c, 0, 66, 62
1, 150108, Note_off_c, 0, 52, 64
1, 150108, Note_on_c, 0, 51, 58
1, 150136, Note_off_c, 0, 57, 64
1, 150138, Note_off_c, 0, 59, 64
1, 150198, Note_off_c, 0, 68, 64
1, 150326, Note_off_c, 0, 51, 64
1, 150332, Note_on_c, 0, 56, 72
1, 150334, Note_on_c, 0, 64, 76
1, 150350, Note_on_c, 0, 57, 32
1, 150358, Note_on_c, 0, 59, 26
1, 150440, Note_off_c, 0, 66, 64
1, 150448, Note_off_c, 0, 56, 64
1, 150534, Note_off_c, 0, 59, 64
1, 150542, Note_off_c, 0, 57, 64
1, 150556, Note_on_c, 0, 63, 78
1, 150594, Note_on_c, 0, 56, 66
1, 150662, Note_off_c, 0, 64, 64
1, 150796, Note_on_c, 0, 57, 60
1, 150799, Note_on_c, 0, 59, 49
1, 150994, Note_on_c, 0, 64, 85
1, 151002, Note_off_c, 0, 57, 64
1, 151008, Note_off_c, 0, 59, 64
1, 151012, Note_on_c, 0, 54, 69
1, 151024, Note_off_c, 0, 56, 64
1, 151066, Note_off_c, 0, 63, 64
1, 151206, Note_on_c, 0, 66, 72
1, 151222, Note_on_c, 0, 57, 57
1, 151228, Note_on_c, 0, 59, 44
1, 151234, Note_off_c, 0, 64, 64
1, 151244, Note_on_c, 0, 52, 63
1, 151262, Note_off_c, 0, 54, 64
1, 151286, Note_off_c, 0, 59, 64
1, 151310, Note_off_c, 0, 57, 64
1, 151342, Note_off_c, 0, 66, 64
1, 151460, Note_on_c, 0, 66, 50
1, 151488, Note_off_c, 0, 52, 64
1, 151514, Note_on_c, 0, 51, 57
1, 151534, Control_c, 0, 64, 0
1, 151750, Control_c, 0, 64, 127
1, 151758, Note_on_c, 0, 59, 72
1, 151766, Note_on_c, 0, 57, 34
1, 151800, Note_off_c, 0, 66, 64
1, 151948, Note_off_c, 0, 57, 64
1, 151986, Note_on_c, 0, 61, 75
1, 152006, Note_on_c, 0, 52, 77
1, 152022, Note_off_c, 0, 51, 64
1, 152032, Note_off_c, 0, 59, 64
1, 152156, Note_off_c, 0, 52, 64
1, 152198, Note_on_c, 0, 59, 76
1, 152206, Note_on_c, 0, 54, 75
1, 152206, Note_on_c, 0, 57, 55
1, 152216, Note_off_c, 0, 61, 64
1, 152272, Note_off_c, 0, 54, 64
1, 152410, Note_on_c, 0, 61, 81
1, 152420, Note_on_c, 0, 54, 71
1, 152470, Note_off_c, 0, 57, 64
1, 152478, Note_off_c, 0, 59, 64
1, 152618, Note_on_c, 0, 63, 86
1, 152628, Note_on_c, 0, 57, 57
1, 152631, Note_off_c, 0, 54, 64
1, 152634, Note_on_c, 0, 47, 55
1, 152636, Note_on_c, 0, 59, 49
1, 152700, Note_off_c, 0, 61, 64
1, 152722, Note_off_c, 0, 59, 64
1, 152796, Note_off_c, 0, 57, 64
1, 152810, Note_off_c, 0, 47, 64
1, 152824, Note_on_c, 0, 49, 66
1, 152827, Note_on_c, 0, 64, 91
1, 152862, Note_off_c, 0, 63, 64
1, 153024, Note_on_c, 0, 66, 81
1, 153029, Note_on_c, 0, 47, 60
1, 153038, Note_on_c, 0, 63, 56
1, 153052, Note_off_c, 0, 49, 64
1, 153055, Note_off_c, 0, 64, 64
1, 153070, Note_on_c, 0, 57, 24
1, 153074, Note_off_c, 0, 47, 64
1, 153140, Note_off_c, 0, 57, 64
1, 153148, Note_off_c, 0, 63, 64
1, 153190, Note_on_c, 0, 40, 75
1, 153194, Control_c, 0, 64, 0
1, 153260, Note_on_c, 0, 68, 79
1, 153294, Note_off_c, 0, 66, 64
1, 153476, Note_on_c, 0, 56, 57
1, 153498, Note_on_c, 0, 47, 62
1, 153498, Note_on_c, 0, 62, 66
1, 153562, Control_c, 0, 64, 127
1, 153602, Note_off_c, 0, 40, 64
1, 153670, Note_off_c, 0, 56, 64
1, 153750, Note_off_c, 0, 68, 64
1, 153750, Note_on_c, 0, 67, 81
1, 153760, Note_on_c, 0, 52, 70
1, 153806, Note_off_c, 0, 62, 64
1, 153856, Note_off_c, 0, 47, 64
1, 153928, Note_off_c, 0, 67, 64
1, 153928, Note_off_c, 0, 52, 64
1, 153974, Note_on_c, 0, 68, 83
1, 153984, Note_on_c, 0, 56, 58
1, 153986, Note_on_c, 0, 40, 78
1, 153994, Note_on_c, 0, 62, 48
1, 154032, Note_off_c, 0, 56, 64
1, 154032, Note_off_c, 0, 40, 64
1, 154040, Note_off_c, 0, 62, 64
1, 154110, Note_off_c, 0, 68, 64
1, 154176, Control_c, 0, 64, 0
1, 154188, Note_on_c, 0, 70, 83
1, 154192, Note_on_c, 0, 39, 78
1, 154306, Note_off_c, 0, 39, 64
1, 154330, Control_c, 0, 64, 127
1, 154402, Note_on_c, 0, 71, 89
1, 154418, Note_on_c, 0, 56, 53
1, 154428, Note_on_c, 0, 61, 35
1, 154436, Note_on_c, 0, 63, 43
1, 154470, Note_off_c, 0, 70, 64
1, 154508, Note_off_c, 0, 63, 64
1, 154514, Note_off_c, 0, 61, 64
1, 154570, Note_off_c, 0, 56, 64
1, 154612, Note_on_c, 0, 68, 81
1, 154628, Note_on_c, 0, 53, 93
1, 154676, Note_off_c, 0, 71, 64
1, 154798, Note_off_c, 0, 53, 64
1, 154836, Note_on_c, 0, 70, 81
1, 154864, Note_on_c, 0, 61, 45
1, 154872, Note_on_c, 0, 55, 67
1, 154880, Note_on_c, 0, 63, 23
1, 154940, Note_off_c, 0, 68, 64
1, 154950, Note_off_c, 0, 63, 64
1, 154956, Note_off_c, 0, 61, 64
1, 154994, Note_off_c, 0, 55, 64
1, 155080, Note_on_c, 0, 44, 76
1, 155130, Control_c, 0, 64, 0
1, 155150, Note_on_c, 0, 71, 100
1, 155218, Note_off_c, 0, 70, 64
1, 155314, Control_c, 0, 64, 127
1, 155344, Note_off_c, 0, 44, 64
1, 155422, Note_on_c, 0, 68, 64
1, 155430, Note_on_c, 0, 59, 73
1, 155444, Note_on_c, 0, 63, 41
1, 155520, Note_off_c, 0, 63, 64
1, 155592, Note_off_c, 0, 59, 64
1, 155594, Note_off_c, 0, 68, 64
1, 155662, Note_on_c, 0, 58, 69
1, 155844, Note_off_c, 0, 58, 64
1, 155854, Note_on_c, 0, 68, 61
1, 155857, Note_off_c, 0, 71, 64
1, 155864, Note_on_c, 0, 56, 75
1, 155888, Note_on_c, 0, 63, 17
1, 155906, Note_off_c, 0, 68, 64
1, 155946, Note_off_c, 0, 63, 64
1, 156108, Note_on_c, 0, 55, 62
1, 156124, Note_off_c, 0, 56, 64
1, 156174, Control_c, 0, 64, 0
1, 156182, Note_on_c, 0, 75, 82
1, 156374, Control_c, 0, 64, 127
1, 156458, Note_off_c, 0, 55, 64
1, 156510, Note_off_c, 0, 75, 64
1, 156544, Note_on_c, 0, 52, 54
1, 156550, Note_on_c, 0, 70, 37
1, 156558, Note_on_c, 0, 61, 34
1, 156576, Note_on_c, 0, 67, 26
1, 156616, Note_off_c, 0, 52, 64
1, 156672, Note_off_c, 0, 67, 64
1, 156676, Note_off_c, 0, 61, 64
1, 156772, Note_off_c, 0, 70, 64
1, 156792, Note_on_c, 0, 51, 55
1, 156958, Note_off_c, 0, 51, 64
1, 156996, Note_on_c, 0, 39, 54
1, 156996, Note_on_c, 0, 61, 57
1, 157004, Note_on_c, 0, 70, 48
1, 157072, Note_off_c, 0, 61, 64
1, 157094, Note_off_c, 0, 70, 64
1, 157144, Note_off_c, 0, 39, 64
1, 157206, Note_on_c, 0, 71, 92
1, 157222, Note_on_c, 0, 44, 63
1, 157326, Control_c, 0, 64, 0
1, 157446, Note_on_c, 0, 59, 45
1, 157448, Note_on_c, 0, 51, 54
1, 157448, Note_on_c, 0, 63, 56
1, 157542, Control_c, 0, 64, 127
1, 157622, Note_off_c, 0, 63, 64
1, 157646, Note_off_c, 0, 59, 64
1, 157666, Note_on_c, 0, 70, 76
1, 157674, Note_off_c, 0, 51, 64
1, 157752, Note_off_c, 0, 71, 64
1, 157880, Note_off_c, 0, 70, 64
1, 157894, Note_on_c, 0, 68, 77
1, 157910, Note_on_c, 0, 59, 54
1, 157913, Note_on_c, 0, 51, 53
1, 157924, Note_on_c, 0, 63, 44
1, 157966, Note_off_c, 0, 59, 64
1, 157980, Note_off_c, 0, 63, 64
1, 158024, Note_off_c, 0, 51, 64
1, 158088, Note_off_c, 0, 44, 64
1, 158132, Note_on_c, 0, 70, 73
1, 158156, Note_on_c, 0, 39, 41
1, 158168, Note_off_c, 0, 68, 64
1, 158202, Control_c, 0, 64, 0
1, 158360, Note_on_c, 0, 61, 45
1, 158364, Note_on_c, 0, 51, 53
1, 158368, Note_on_c, 0, 63, 45
1, 158418, Control_c, 0, 64, 127
1, 158494, Note_off_c, 0, 39, 64
1, 158526, Note_off_c, 0, 70, 64
1, 158564, Note_off_c, 0, 61, 64
1, 158582, Note_off_c, 0, 51, 64
1, 158608, Note_off_c, 0, 63, 64
1, 158630, Note_on_c, 0, 71, 76
1, 158880, Note_on_c, 0, 67, 79
1, 158886, Note_on_c, 0, 61, 38
1, 158898, Note_off_c, 0, 71, 64
1, 158912, Note_on_c, 0, 51, 44
1, 158938, Note_on_c, 0, 63, 9
1, 158992, Note_off_c, 0, 63, 64
1, 159058, Note_off_c, 0, 61, 64
1, 159058, Note_off_c, 0, 51, 64
1, 159096, Note_on_c, 0, 68, 75
1, 159120, Note_on_c, 0, 44, 61
1, 159160, Note_off_c, 0, 67, 64
1, 159292, Note_on_c, 0, 59, 46
1, 159294, Control_c, 0, 64, 0
1, 159300, Note_on_c, 0, 63, 55
1, 159330, Note_on_c, 0, 51, 51
1, 159426, Note_off_c, 0, 51, 64
1, 159440, Note_off_c, 0, 59, 64
1, 159446, Note_on_c, 0, 54, 71
1, 159462, Control_c, 0, 64, 127
1, 159470, Note_off_c, 0, 63, 64
1, 159522, Note_on_c, 0, 52, 73
1, 159562, Note_off_c, 0, 54, 64
1, 159616, Control_c, 0, 64, 0
1, 159730, Note_on_c, 0, 51, 61
1, 159733, Note_on_c, 0, 63, 63
1, 159738, Note_on_c, 0, 59, 50
1, 159754, Note_off_c, 0, 52, 64
1, 159760, Note_off_c, 0, 44, 64
1, 159784, Control_c, 0, 64, 127
1, 159912, Note_off_c, 0, 59, 64
1, 159944, Note_on_c, 0, 70, 58
1, 159958, Note_off_c, 0, 51, 64
1, 159980, Note_off_c, 0, 63, 64
1, 159996, Note_on_c, 0, 50, 49
1, 160016, Note_off_c, 0, 68, 64
1, 160076, Control_c, 0, 64, 0
1, 160214, Note_on_c, 0, 61, 29
1, 160220, Note_off_c, 0, 50, 64
1, 160228, Note_on_c, 0, 67, 35
1, 160232, Note_on_c, 0, 63, 37
1, 160246, Note_on_c, 0, 51, 34
1, 160292, Control_c, 0, 64, 127
1, 160460, Note_off_c, 0, 63, 64
1, 160462, Control_c, 0, 64, 0
1, 160474, Note_off_c, 0, 51, 64
1, 160492, Note_on_c, 0, 39, 47
1, 160528, Note_off_c, 0, 61, 64
1, 160644, Control_c, 0, 64, 127
1, 160738, Note_on_c, 0, 61, 33
1, 160748, Note_on_c, 0, 51, 41
1, 160764, Note_on_c, 0, 63, 35
1, 160790, Note_off_c, 0, 67, 64
1, 160824, Note_off_c, 0, 39, 64
1, 160894, Note_off_c, 0, 61, 64
1, 160920, Note_off_c, 0, 51, 64
1, 160940, Note_off_c, 0, 70, 64
1, 161008, Note_on_c, 0, 71, 68
1, 161008, Note_on_c, 0, 44, 47
1, 161020, Note_off_c, 0, 63, 64
1, 161044, Control_c, 0, 64, 0
1, 161292, Note_on_c, 0, 63, 41
1, 161300, Note_on_c, 0, 59, 32
1, 161306, Control_c, 0, 64, 127
1, 161314, Note_on_c, 0, 51, 30
1, 161404, Note_off_c, 0, 71, 64
1, 161460, Note_off_c, 0, 59, 64
1, 161476, Note_off_c, 0, 63, 64
1, 161496, Note_off_c, 0, 51, 64
1, 161562, Note_on_c, 0, 70, 60
1, 161714, Note_off_c, 0, 70, 64
1, 161802, Note_on_c, 0, 68, 60
1, 161812, Note_on_c, 0, 59, 41
1, 161820, Note_on_c, 0, 63, 40
1, 161838, Note_on_c, 0, 51, 21
1, 161866, Note_off_c, 0, 59, 64
1, 161869, Note_off_c, 0, 63, 64
1, 161918, Note_off_c, 0, 68, 64
1, 161942, Note_off_c, 0, 51, 64
1, 161996, Note_off_c, 0, 44, 64
1, 162038, Note_on_c, 0, 70, 59
1, 162064, Note_on_c, 0, 39, 26
1, 162274, Control_c, 0, 64, 0
1, 162282, Note_on_c, 0, 73, 48
1, 162284, Note_on_c, 0, 61, 47
1, 162288, Note_on_c, 0, 51, 38
1, 162290, Note_on_c, 0, 63, 12
1, 162318, Note_off_c, 0, 70, 64
1, 162582, Control_c, 0, 64, 127
1, 162592, Note_on_c, 0, 71, 64
1, 162632, Note_off_c, 0, 51, 64
1, 162678, Note_off_c, 0, 73, 64
1, 162714, Note_off_c, 0, 63, 64
1, 162722, Note_off_c, 0, 61, 64
1, 162876, Note_off_c, 0, 71, 64
1, 162902, Note_on_c, 0, 67, 46
1, 162904, Note_on_c, 0, 61, 37
1, 162906, Note_on_c, 0, 51, 35
1, 162972, Note_off_c, 0, 67, 64
1, 163060, Note_off_c, 0, 51, 64
1, 163158, Note_off_c, 0, 61, 64
1, 163170, Note_on_c, 0, 68, 48
1, 163200, Note_on_c, 0, 44, 41
1, 163214, Note_off_c, 0, 39, 64
1, 163304, Control_c, 0, 64, 0
1, 163396, Note_on_c, 0, 63, 47
1, 163410, Note_on_c, 0, 59, 34
1, 163416, Note_on_c, 0, 51, 34
1, 163496, Note_off_c, 0, 59, 64
1, 163502, Control_c, 0, 64, 127
1, 163510, Note_off_c, 0, 63, 64
1, 163570, Note_off_c, 0, 68, 64
1, 163584, Note_off_c, 0, 51, 64
1, 163638, Note_on_c, 0, 71, 64
1, 163641, Note_on_c, 0, 39, 48
1, 163688, Note_off_c, 0, 44, 64
1, 163856, Note_on_c, 0, 61, 44
1, 163861, Note_on_c, 0, 67, 65
1, 163864, Note_on_c, 0, 51, 58
1, 163892, Note_on_c, 0, 63, 25
1, 163974, Note_off_c, 0, 63, 64
1, 164064, Note_off_c, 0, 51, 64
1, 164086, Note_on_c, 0, 44, 65
1, 164092, Note_on_c, 0, 68, 67
1, 164096, Note_off_c, 0, 61, 64
1, 164118, Note_off_c, 0, 71, 64
1, 164134, Control_c, 0, 64, 0
1, 164154, Note_off_c, 0, 39, 64
1, 164168, Note_off_c, 0, 67, 64
1, 164298, Note_on_c, 0, 63, 56
1, 164298, Note_on_c, 0, 59, 48
1, 164332, Note_on_c, 0, 51, 56
1, 164332, Control_c, 0, 64, 127
1, 164356, Note_off_c, 0, 59, 64
1, 164386, Note_off_c, 0, 63, 64
1, 164440, Note_off_c, 0, 68, 64
1, 164486, Note_off_c, 0, 51, 64
1, 164524, Note_on_c, 0, 71, 75
1, 164536, Note_on_c, 0, 39, 70
1, 164588, Note_off_c, 0, 44, 64
1, 164670, Control_c, 0, 64, 0
1, 164738, Note_on_c, 0, 67, 71
1, 164742, Note_on_c, 0, 61, 50
1, 164748, Note_on_c, 0, 63, 54
1, 164764, Note_on_c, 0, 51, 70
1, 164808, Note_off_c, 0, 71, 64
1, 164886, Control_c, 0, 64, 127
1, 164960, Note_on_c, 0, 68, 71
1, 164972, Note_off_c, 0, 63, 64
1, 164974, Note_on_c, 0, 44, 64
1, 164978, Control_c, 0, 64, 0
1, 164986, Note_off_c, 0, 39, 64
1, 164988, Note_off_c, 0, 51, 64
1, 165012, Note_off_c, 0, 61, 64
1, 165038, Note_off_c, 0, 67, 64
1, 165166, Note_on_c, 0, 59, 41
1, 165172, Note_on_c, 0, 63, 56
1, 165188, Note_on_c, 0, 51, 46
1, 165192, Control_c, 0, 64, 127
1, 165224, Note_off_c, 0, 59, 64
1, 165232, Note_off_c, 0, 63, 64
1, 165254, Note_off_c, 0, 68, 64
1, 165274, Note_off_c, 0, 51, 64
1, 165384, Note_on_c, 0, 69, 62
1, 165410, Note_on_c, 0, 37, 46
1, 165456, Note_off_c, 0, 44, 64
1, 165564, Control_c, 0, 64, 0
1, 165604, Note_on_c, 0, 65, 56
1, 165606, Note_on_c, 0, 59, 41
1, 165610, Note_on_c, 0, 49, 45
1, 165613, Note_on_c, 0, 61, 32
1, 165694, Note_off_c, 0, 69, 64
1, 165742, Note_off_c, 0, 61, 64
1, 165778, Control_c, 0, 64, 127
1, 165820, Note_off_c, 0, 49, 64
1, 165842, Note_on_c, 0, 66, 53
1, 165856, Note_on_c, 0, 42, 38
1, 165862, Note_off_c, 0, 59, 64
1, 165876, Note_off_c, 0, 37, 64
1, 165894, Note_off_c, 0, 65, 64
1, 165930, Control_c, 0, 64, 0
1, 166054, Note_on_c, 0, 57, 41
1, 166057, Note_on_c, 0, 61, 47
1, 166076, Note_on_c, 0, 49, 29
1, 166146, Control_c, 0, 64, 127
1, 166192, Note_off_c, 0, 57, 64
1, 166200, Note_off_c, 0, 61, 64
1, 166228, Note_off_c, 0, 49, 64
1, 166282, Note_on_c, 0, 69, 45
1, 166298, Note_on_c, 0, 37, 30
1, 166310, Note_off_c, 0, 66, 64
1, 166362, Note_off_c, 0, 42, 64
1, 166504, Note_on_c, 0, 65, 50
1, 166514, Note_on_c, 0, 49, 39
1, 166532, Note_off_c, 0, 69, 64
1, 166532, Note_on_c, 0, 61, 28
1, 166538, Note_on_c, 0, 59, 17
1, 166606, Control_c, 0, 64, 0
1, 166722, Note_off_c, 0, 49, 64
1, 166736, Note_on_c, 0, 66, 44
1, 166756, Note_off_c, 0, 61, 64
1, 166756, Note_on_c, 0, 42, 34
1, 166772, Note_off_c, 0, 59, 64
1, 166782, Note_off_c, 0, 65, 64
1, 166806, Control_c, 0, 64, 127
1, 166812, Note_off_c, 0, 37, 64
1, 166946, Control_c, 0, 64, 0
1, 166970, Note_on_c, 0, 61, 38
1, 166972, Note_on_c, 0, 57, 25
1, 166975, Note_on_c, 0, 49, 36
1, 167096, Note_off_c, 0, 57, 64
1, 167114, Control_c, 0, 64, 127
1, 167142, Note_off_c, 0, 49, 64
1, 167156, Note_off_c, 0, 61, 64
1, 167220, Note_on_c, 0, 69, 38
1, 167246, Note_on_c, 0, 37, 27
1, 167256, Note_off_c, 0, 66, 64
1, 167282, Note_off_c, 0, 42, 64
1, 167330, Control_c, 0, 64, 0
1, 167480, Note_on_c, 0, 59, 30
1, 167486, Note_on_c, 0, 65, 41
1, 167494, Note_on_c, 0, 61, 26
1, 167498, Control_c, 0, 64, 127
1, 167498, Note_on_c, 0, 49, 29
1, 167502, Note_off_c, 0, 69, 64
1, 167704, Note_off_c, 0, 49, 64
1, 167712, Note_off_c, 0, 61, 64
1, 167736, Note_off_c, 0, 59, 64
1, 167744, Control_c, 0, 64, 0
1, 167754, Note_on_c, 0, 66, 40
1, 167766, Note_on_c, 0, 42, 28
1, 167798, Note_off_c, 0, 65, 64
1, 167801, Note_off_c, 0, 37, 64
1, 167974, Control_c, 0, 64, 127
1, 167994, Note_on_c, 0, 57, 20
1, 167994, Note_on_c, 0, 61, 42
1, 168012, Note_on_c, 0, 49, 26
1, 168116, Note_off_c, 0, 49, 64
1, 168150, Note_off_c, 0, 57, 64
1, 168152, Note_off_c, 0, 61, 64
1, 168340, Note_off_c, 0, 42, 64
1, 168348, Note_on_c, 0, 67, 36
1, 168358, Control_c, 0, 64, 0
1, 168366, Note_on_c, 0, 35, 39
1, 168396, Note_off_c, 0, 66, 64
1, 168572, Control_c, 0, 64, 127
1, 168661, Note_off_c, 0, 35, 64
1, 168738, Note_on_c, 0, 63, 44
1, 168758, Note_on_c, 0, 57, 22
1, 168808, Note_on_c, 0, 47, 6
1, 168852, Note_off_c, 0, 67, 64
1, 168866, Note_off_c, 0, 47, 64
1, 168870, Note_off_c, 0, 57, 64
1, 169268, Note_on_c, 0, 64, 39
1, 169274, Note_on_c, 0, 55, 24
1, 169274, Note_on_c, 0, 60, 22
1, 169277, Note_off_c, 0, 63, 64
1, 169277, Control_c, 0, 64, 0
1, 169288, Note_on_c, 0, 34, 23
1, 169588, Control_c, 0, 64, 127
1, 169602, Note_off_c, 0, 34, 64
1, 169622, Note_on_c, 0, 46, 42
1, 169676, Note_off_c, 0, 46, 64
1, 169708, Note_off_c, 0, 55, 64
1, 169864, Note_on_c, 0, 52, 58
1, 169994, Note_off_c, 0, 60, 64
1, 169994, Note_off_c, 0, 52, 64
1, 170072, Note_on_c, 0, 55, 67
1, 170078, Note_off_c, 0, 64, 64
1, 170214, Note_off_c, 0, 55, 64
1, 170280, Note_on_c, 0, 54, 62
1, 170289, Note_on_c, 0, 51, 48
1, 170494, Control_c, 0, 64, 0
1, 170500, Note_on_c, 0, 57, 65
1, 170678, Control_c, 0, 64, 127
1, 170740, Note_on_c, 0, 60, 72
1, 170756, Note_off_c, 0, 54, 64
1, 170816, Note_off_c, 0, 51, 64
1, 170910, Note_off_c, 0, 57, 64
1, 170966, Note_on_c, 0, 66, 55
1, 170969, Note_on_c, 0, 63, 63
1, 171010, Note_off_c, 0, 60, 64
1, 171220, Note_off_c, 0, 66, 64
1, 171298, Note_on_c, 0, 67, 62
1, 171304, Note_on_c, 0, 64, 50
1, 171318, Note_on_c, 0, 34, 51
1, 171340, Note_off_c, 0, 63, 64
1, 171340, Control_c, 0, 64, 0
1, 171626, Note_on_c, 0, 46, 48
1, 171646, Control_c, 0, 64, 127
1, 171664, Note_off_c, 0, 34, 64
1, 171706, Note_off_c, 0, 46, 64
1, 171902, Note_on_c, 0, 55, 52
1, 171902, Note_on_c, 0, 52, 53
1, 171905, Note_on_c, 0, 60, 58
1, 171958, Note_off_c, 0, 55, 64
1, 172048, Note_off_c, 0, 52, 64
1, 172088, Note_off_c, 0, 64, 64
1, 172106, Note_off_c, 0, 60, 64
1, 172148, Note_on_c, 0, 55, 70
1, 172220, Note_off_c, 0, 67, 64
1, 172310, Note_off_c, 0, 55, 64
1, 172364, Note_on_c, 0, 54, 78
1, 172378, Note_on_c, 0, 51, 66
1, 172586, Note_on_c, 0, 57, 78
1, 172598, Control_c, 0, 64, 0
1, 172752, Control_c, 0, 64, 127
1, 172794, Note_on_c, 0, 60, 87
1, 172796, Note_off_c, 0, 54, 64
1, 172836, Note_off_c, 0, 51, 64
1, 172994, Note_on_c, 0, 66, 78
1, 173006, Note_on_c, 0, 63, 73
1, 173158, Note_off_c, 0, 60, 64
1, 173180, Note_off_c, 0, 66, 64
1, 173208, Note_off_c, 0, 57, 64
1, 173236, Note_off_c, 0, 63, 64
1, 173246, Note_on_c, 0, 34, 83
1, 173258, Note_on_c, 0, 67, 85
1, 173258, Note_on_c, 0, 64, 80
1, 173336, Control_c, 0, 64, 0
1, 173524, Note_on_c, 0, 46, 78
1, 173536, Control_c, 0, 64, 127
1, 173558, Note_off_c, 0, 34, 64
1, 173628, Note_off_c, 0, 46, 64
1, 173744, Note_off_c, 0, 67, 64
1, 173744, Note_on_c, 0, 60, 81
1, 173764, Note_on_c, 0, 52, 78
1, 173782, Note_off_c, 0, 64, 64
1, 173860, Note_off_c, 0, 60, 64
1, 173962, Note_on_c, 0, 55, 91
1, 174212, Note_on_c, 0, 60, 91
1, 174438, Note_on_c, 0, 64, 94
1, 174482, Note_off_c, 0, 52, 64
1, 174498, Note_off_c, 0, 60, 64
1, 174540, Note_off_c, 0, 55, 64
1, 174710, Note_on_c, 0, 67, 90
1, 175008, Note_on_c, 0, 76, 85
1, 175200, Note_off_c, 0, 76, 64
1, 175370, Note_on_c, 0, 75, 74
1, 175392, Note_on_c, 0, 35, 90
1, 175742, Note_off_c, 0, 75, 64
1, 175748, Note_on_c, 0, 74, 82
1, 175810, Control_c, 0, 64, 0
1, 175994, Control_c, 0, 64, 127
1, 176040, Note_on_c, 0, 73, 78
1, 176104, Note_off_c, 0, 74, 64
1, 176288, Note_on_c, 0, 36, 71
1, 176298, Note_on_c, 0, 72, 80
1, 176306, Note_off_c, 0, 35, 64
1, 176324, Note_off_c, 0, 73, 64
1, 176490, Note_off_c, 0, 67, 64
1, 176526, Note_off_c, 0, 64, 64
1, 176534, Note_off_c, 0, 72, 64
1, 176544, Note_on_c, 0, 37, 81
1, 176544, Note_on_c, 0, 71, 82
1, 176574, Note_off_c, 0, 36, 64
1, 176584, Note_off_c, 0, 71, 64
1, 176786, Note_on_c, 0, 38, 81
1, 176791, Note_on_c, 0, 70, 77
1, 176798, Note_off_c, 0, 37, 64
1, 176798, Note_on_c, 0, 59, 70
1, 176801, Note_on_c, 0, 65, 52
1, 177094, Note_off_c, 0, 70, 64
1, 177102, Note_on_c, 0, 39, 72
1, 177104, Note_off_c, 0, 38, 64
1, 177114, Note_on_c, 0, 69, 71
1, 177132, Control_c, 0, 64, 0
1, 177214, Note_on_c, 0, 40, 89
1, 177228, Note_off_c, 0, 39, 64
1, 177292, Note_on_c, 0, 39, 67
1, 177320, Note_off_c, 0, 40, 64
1, 177332, Control_c, 0, 64, 127
1, 177338, Note_off_c, 0, 59, 64
1, 177382, Note_on_c, 0, 40, 91
1, 177402, Note_off_c, 0, 39, 64
1, 177460, Note_off_c, 0, 40, 64
1, 177462, Note_on_c, 0, 39, 69
1, 177470, Note_off_c, 0, 65, 64
1, 177494, Note_on_c, 0, 68, 64
1, 177502, Note_on_c, 0, 66, 54
1, 177508, Note_on_c, 0, 60, 48
1, 177538, Note_on_c, 0, 40, 92
1, 177546, Control_c, 0, 64, 0
1, 177548, Note_off_c, 0, 39, 64
1, 177562, Note_off_c, 0, 69, 64
1, 177612, Note_on_c, 0, 39, 72
1, 177626, Note_off_c, 0, 40, 64
1, 177712, Note_on_c, 0, 38, 76
1, 177730, Note_off_c, 0, 39, 64
1, 177730, Control_c, 0, 64, 127
1, 177830, Note_on_c, 0, 39, 58
1, 177860, Note_off_c, 0, 38, 64
1, 177863, Note_off_c, 0, 68, 64
1, 177882, Note_off_c, 0, 66, 64
1, 178016, Note_off_c, 0, 39, 64
1, 178054, Note_on_c, 0, 40, 85
1, 178120, Note_off_c, 0, 60, 64
1, 178156, Note_on_c, 0, 67, 75
1, 178284, Control_c, 0, 64, 0
1, 178532, Note_on_c, 0, 48, 45
1, 178536, Note_on_c, 0, 55, 37
1, 178552, Note_on_c, 0, 60, 44
1, 178684, Control_c, 0, 64, 127
1, 178774, Note_off_c, 0, 55, 64
1, 178830, Note_off_c, 0, 48, 64
1, 178862, Note_on_c, 0, 66, 73
1, 178934, Note_off_c, 0, 67, 64
1, 178948, Note_off_c, 0, 60, 64
1, 179044, Note_off_c, 0, 66, 64
1, 179158, Note_on_c, 0, 64, 84
1, 179174, Note_on_c, 0, 48, 49
1, 179180, Note_on_c, 0, 55, 55
1, 179184, Note_on_c, 0, 60, 49
1, 179258, Note_off_c, 0, 55, 64
1, 179280, Note_off_c, 0, 60, 64
1, 179356, Note_off_c, 0, 48, 64
1, 179412, Note_on_c, 0, 63, 86
1, 179414, Note_on_c, 0, 43, 81
1, 179472, Note_off_c, 0, 64, 64
1, 179488, Note_off_c, 0, 40, 64
1, 179560, Control_c, 0, 64, 0
1, 179650, Note_on_c, 0, 48, 55
1, 179656, Note_on_c, 0, 57, 59
1, 179658, Note_on_c, 0, 60, 64
1, 179760, Control_c, 0, 64, 127
1, 179880, Note_on_c, 0, 64, 94
1, 179882, Note_on_c, 0, 42, 73
1, 179916, Note_off_c, 0, 43, 64
1, 179924, Note_off_c, 0, 60, 64
1, 179936, Note_off_c, 0, 57, 64
1, 179978, Note_off_c, 0, 63, 64
1, 180108, Note_on_c, 0, 57, 51
1, 180110, Note_on_c, 0, 66, 77
1, 180112, Note_on_c, 0, 60, 65
1, 180114, Note_on_c, 0, 40, 92
1, 180126, Note_off_c, 0, 42, 64
1, 180196, Note_off_c, 0, 64, 64
1, 180232, Note_off_c, 0, 60, 64
1, 180300, Note_off_c, 0, 66, 64
1, 180372, Note_on_c, 0, 66, 56
1, 180388, Note_on_c, 0, 39, 78
1, 180391, Note_on_c, 0, 59, 61
1, 180424, Note_off_c, 0, 48, 64
1, 180452, Note_off_c, 0, 40, 64
1, 180466, Control_c, 0, 64, 0
1, 180472, Note_off_c, 0, 57, 64
1, 180634, Note_on_c, 0, 47, 63
1, 180644, Note_on_c, 0, 57, 51
1, 180742, Control_c, 0, 64, 127
1, 180832, Note_off_c, 0, 39, 64
1, 180860, Note_off_c, 0, 59, 64
1, 180866, Note_on_c, 0, 60, 83
1, 180869, Note_on_c, 0, 40, 85
1, 180914, Note_off_c, 0, 57, 64
1, 180922, Note_off_c, 0, 66, 64
1, 180992, Note_off_c, 0, 47, 64
1, 181088, Note_on_c, 0, 42, 74
1, 181096, Note_off_c, 0, 40, 64
1, 181104, Note_on_c, 0, 57, 68
1, 181106, Note_on_c, 0, 59, 84
1, 181140, Note_off_c, 0, 60, 64
1, 181182, Note_off_c, 0, 42, 64
1, 181390, Note_on_c, 0, 61, 80
1, 181404, Note_on_c, 0, 42, 50
1, 181418, Control_c, 0, 64, 0
1, 181452, Note_off_c, 0, 57, 64
1, 181526, Note_off_c, 0, 59, 64
1, 181602, Control_c, 0, 64, 127
1, 181640, Note_on_c, 0, 63, 88
1, 181648, Note_on_c, 0, 47, 51
1, 181656, Note_on_c, 0, 57, 42
1, 181738, Note_off_c, 0, 61, 64
1, 181796, Note_off_c, 0, 42, 64
1, 181810, Note_off_c, 0, 57, 64
1, 181862, Note_on_c, 0, 64, 91
1, 181866, Note_on_c, 0, 36, 70
1, 181888, Note_off_c, 0, 63, 64
1, 181976, Note_off_c, 0, 47, 64
1, 181986, Note_off_c, 0, 36, 64
1, 182072, Note_on_c, 0, 66, 78
1, 182075, Note_on_c, 0, 47, 48
1, 182088, Note_on_c, 0, 35, 77
1, 182102, Note_off_c, 0, 64, 64
1, 182102, Note_on_c, 0, 63, 61
1, 182110, Note_on_c, 0, 57, 34
1, 182124, Note_off_c, 0, 35, 64
1, 182140, Note_off_c, 0, 47, 64
1, 182204, Note_off_c, 0, 57, 64
1, 182288, Note_off_c, 0, 63, 64
1, 182310, Control_c, 0, 64, 0
1, 182326, Note_on_c, 0, 40, 91
1, 182326, Note_on_c, 0, 67, 84
1, 182396, Note_off_c, 0, 66, 64
1, 182464, Note_off_c, 0, 40, 64
1, 182494, Control_c, 0, 64, 127
1, 182558, Note_on_c, 0, 57, 65
1, 182561, Note_on_c, 0, 64, 78
1, 182578, Note_on_c, 0, 59, 39
1, 182630, Note_off_c, 0, 67, 64
1, 182700, Note_off_c, 0, 57, 64
1, 182730, Note_off_c, 0, 59, 64
1, 182760, Note_on_c, 0, 66, 78
1, 182766, Note_on_c, 0, 54, 70
1, 182840, Note_off_c, 0, 64, 64
1, 182918, Note_off_c, 0, 54, 64
1, 182968, Note_on_c, 0, 52, 89
1, 182974, Note_on_c, 0, 67, 86
1, 182988, Note_on_c, 0, 59, 58
1, 183012, Note_on_c, 0, 64, 27
1, 183046, Note_off_c, 0, 59, 64
1, 183070, Note_off_c, 0, 66, 64
1, 183073, Note_off_c, 0, 64, 64
1, 183134, Note_off_c, 0, 52, 64
1, 183186, Control_c, 0, 64, 0
1, 183204, Note_on_c, 0, 69, 79
1, 183208, Note_on_c, 0, 45, 79
1, 183236, Note_off_c, 0, 67, 64
1, 183344, Note_off_c, 0, 45, 64
1, 183354, Control_c, 0, 64, 127
1, 183416, Note_on_c, 0, 71, 84
1, 183448, Note_on_c, 0, 60, 72
1, 183462, Note_on_c, 0, 64, 46
1, 183518, Note_off_c, 0, 64, 64
1, 183554, Note_off_c, 0, 60, 64
1, 183636, Note_off_c, 0, 69, 64
1, 183638, Note_off_c, 0, 71, 64
1, 183644, Note_on_c, 0, 67, 96
1, 183674, Note_on_c, 0, 59, 72
1, 183774, Note_off_c, 0, 59, 64
1, 183872, Note_on_c, 0, 57, 73
1, 183872, Note_on_c, 0, 69, 78
1, 183892, Note_on_c, 0, 60, 63
1, 183910, Note_off_c, 0, 57, 64
1, 183918, Note_on_c, 0, 64, 31
1, 183940, Note_off_c, 0, 67, 64
1, 183952, Note_off_c, 0, 60, 64
1, 183976, Note_off_c, 0, 64, 64
1, 184168, Control_c, 0, 64, 0
1, 184170, Note_on_c, 0, 71, 93
1, 184186, Note_on_c, 0, 40, 91
1, 184238, Note_off_c, 0, 69, 64
1, 184320, Note_off_c, 0, 40, 64
1, 184354, Control_c, 0, 64, 127
1, 184438, Note_on_c, 0, 67, 65
1, 184462, Note_on_c, 0, 59, 72
1, 184468, Note_on_c, 0, 64, 47
1, 184534, Note_off_c, 0, 64, 64
1, 184584, Note_off_c, 0, 59, 64
1, 184587, Note_off_c, 0, 67, 64
1, 184670, Note_on_c, 0, 57, 77
1, 184824, Note_off_c, 0, 57, 64
1, 184856, Note_on_c, 0, 59, 55
1, 184856, Note_on_c, 0, 67, 59
1, 184859, Note_on_c, 0, 55, 84
1, 184892, Note_on_c, 0, 64, 21
1, 184902, Note_off_c, 0, 59, 64
1, 184906, Note_off_c, 0, 67, 64
1, 184932, Note_off_c, 0, 71, 64
1, 184956, Note_off_c, 0, 64, 64
1, 185042, Note_on_c, 0, 70, 9
1, 185094, Note_off_c, 0, 70, 64
1, 185128, Note_on_c, 0, 54, 62
1, 185158, Note_on_c, 0, 74, 94
1, 185186, Note_off_c, 0, 55, 64
1, 185198, Control_c, 0, 64, 0
1, 185480, Note_on_c, 0, 52, 69
1, 185496, Note_off_c, 0, 54, 64
1, 185496, Note_on_c, 0, 60, 35
1, 185496, Note_on_c, 0, 69, 36
1, 185502, Note_on_c, 0, 66, 23
1, 185598, Control_c, 0, 64, 127
1, 185704, Control_c, 0, 64, 0
1, 185734, Note_off_c, 0, 52, 64
1, 185758, Note_on_c, 0, 50, 63
1, 185844, Note_off_c, 0, 60, 64
1, 185850, Note_off_c, 0, 66, 64
1, 185890, Control_c, 0, 64, 127
1, 185968, Note_off_c, 0, 74, 64
1, 185984, Note_on_c, 0, 66, 41
1, 185986, Note_off_c, 0, 50, 64
1, 185994, Note_on_c, 0, 45, 40
1, 186010, Note_on_c, 0, 60, 43
1, 186056, Note_off_c, 0, 69, 64
1, 186110, Note_off_c, 0, 45, 64
1, 186226, Note_on_c, 0, 38, 37
1, 186322, Note_on_c, 0, 71, 81
1, 186402, Note_off_c, 0, 60, 64
1, 186446, Note_off_c, 0, 38, 64
1, 186486, Note_off_c, 0, 66, 64
1, 186676, Note_on_c, 0, 55, 77
1, 186694, Note_on_c, 0, 62, 31
1, 186694, Note_on_c, 0, 60, 37
1, 186950, Note_on_c, 0, 69, 61
1, 186970, Note_on_c, 0, 54, 78
1, 186974, Note_off_c, 0, 55, 64
1, 187006, Note_off_c, 0, 60, 64
1, 187018, Note_off_c, 0, 62, 64
1, 187160, Note_off_c, 0, 54, 64
1, 187174, Note_on_c, 0, 67, 74
1, 187188, Note_off_c, 0, 71, 64
1, 187198, Note_on_c, 0, 60, 36
1, 187200, Note_on_c, 0, 62, 25
1, 187202, Note_on_c, 0, 59, 66
1, 187286, Note_off_c, 0, 69, 64
1, 187289, Note_off_c, 0, 59, 64
1, 187418, Note_on_c, 0, 66, 65
1, 187466, Note_off_c, 0, 60, 64
1, 187466, Note_off_c, 0, 62, 64
1, 187480, Note_on_c, 0, 59, 79
1, 187554, Note_off_c, 0, 67, 64
1, 187626, Control_c, 0, 64, 0
1, 187680, Note_on_c, 0, 60, 57
1, 187686, Note_on_c, 0, 62, 54
1, 187794, Control_c, 0, 64, 127
1, 187882, Note_on_c, 0, 67, 79
1, 187916, Note_on_c, 0, 57, 55
1, 187930, Note_off_c, 0, 59, 64
1, 187998, Note_off_c, 0, 60, 64
1, 188000, Note_off_c, 0, 66, 64
1, 188000, Note_off_c, 0, 62, 64
1, 188102, Note_on_c, 0, 69, 75
1, 188124, Note_on_c, 0, 55, 68
1, 188126, Note_on_c, 0, 60, 34
1, 188128, Note_on_c, 0, 62, 23
1, 188144, Note_off_c, 0, 57, 64
1, 188162, Note_off_c, 0, 67, 64
1, 188196, Note_off_c, 0, 62, 64
1, 188206, Note_off_c, 0, 60, 64
1, 188250, Note_off_c, 0, 69, 64
1, 188366, Note_on_c, 0, 69, 50
1, 188420, Note_off_c, 0, 55, 64
1, 188442, Note_on_c, 0, 54, 53
1, 188486, Control_c, 0, 64, 0
1, 188654, Note_on_c, 0, 60, 48
1, 188662, Note_on_c, 0, 62, 66
1, 188686, Control_c, 0, 64, 127
1, 188742, Note_off_c, 0, 69, 64
1, 188824, Note_off_c, 0, 60, 64
1, 188894, Note_on_c, 0, 64, 77
1, 188904, Note_off_c, 0, 54, 64
1, 188920, Note_on_c, 0, 55, 51
1, 188956, Note_off_c, 0, 62, 64
1, 189096, Note_off_c, 0, 55, 64
1, 189108, Note_on_c, 0, 62, 81
1, 189130, Note_on_c, 0, 57, 62
1, 189130, Note_on_c, 0, 60, 43
1, 189148, Note_off_c, 0, 64, 64
1, 189176, Note_off_c, 0, 57, 64
1, 189332, Note_on_c, 0, 64, 85
1, 189340, Note_on_c, 0, 57, 66
1, 189392, Note_off_c, 0, 60, 64
1, 189414, Note_off_c, 0, 62, 64
1, 189544, Note_on_c, 0, 66, 76
1, 189560, Note_on_c, 0, 60, 56
1, 189566, Note_on_c, 0, 50, 67
1, 189566, Note_on_c, 0, 62, 48
1, 189612, Note_off_c, 0, 64, 64
1, 189662, Note_off_c, 0, 62, 64
1, 189728, Note_off_c, 0, 50, 64
1, 189772, Note_on_c, 0, 67, 87
1, 189775, Note_on_c, 0, 52, 70
1, 189780, Note_off_c, 0, 60, 64
1, 189820, Note_off_c, 0, 66, 64
1, 189904, Note_off_c, 0, 67, 64
1, 189964, Note_off_c, 0, 57, 64
1, 189976, Note_on_c, 0, 69, 85
1, 189992, Note_on_c, 0, 50, 66
1, 190004, Note_on_c, 0, 60, 49
1, 190014, Note_on_c, 0, 66, 40
1, 190032, Note_on_c, 0, 62, 32
1, 190036, Note_off_c, 0, 52, 64
1, 190074, Note_off_c, 0, 60, 64
1, 190104, Note_off_c, 0, 66, 64
1, 190104, Note_off_c, 0, 62, 64
1, 190120, Note_off_c, 0, 50, 64
1, 190144, Note_on_c, 0, 43, 70
1, 190176, Control_c, 0, 64, 0
1, 190214, Note_on_c, 0, 71, 91
1, 190228, Note_off_c, 0, 69, 64
1, 190350, Note_off_c, 0, 43, 64
1, 190376, Control_c, 0, 64, 127
1, 190436, Note_on_c, 0, 67, 67
1, 190436, Note_on_c, 0, 62, 52
1, 190446, Note_on_c, 0, 59, 63
1, 190592, Note_off_c, 0, 71, 64
1, 190592, Note_off_c, 0, 59, 64
1, 190620, Note_off_c, 0, 62, 64
1, 190623, Note_off_c, 0, 67, 64
1, 190678, Note_on_c, 0, 70, 79
1, 190684, Note_on_c, 0, 57, 68
1, 190822, Note_off_c, 0, 70, 64
1, 190846, Note_off_c, 0, 57, 64
1, 190878, Note_on_c, 0, 71, 97
1, 190880, Note_on_c, 0, 59, 74
1, 190896, Note_on_c, 0, 64, 68
1, 190896, Note_on_c, 0, 55, 73
1, 190920, Note_off_c, 0, 59, 64
1, 190936, Note_off_c, 0, 64, 64
1, 191000, Note_off_c, 0, 71, 64
1, 191096, Note_on_c, 0, 73, 89
1, 191104, Note_off_c, 0, 55, 64
1, 191106, Note_on_c, 0, 54, 81
1, 191326, Note_on_c, 0, 74, 94
1, 191326, Note_on_c, 0, 53, 98
1, 191330, Control_c, 0, 64, 0
1, 191336, Note_on_c, 0, 70, 48
1, 191338, Note_off_c, 0, 54, 64
1, 191341, Note_on_c, 0, 64, 67
1, 191410, Note_off_c, 0, 73, 64
1, 191468, Note_off_c, 0, 53, 64
1, 191512, Control_c, 0, 64, 127
1, 191540, Note_off_c, 0, 70, 64
1, 191550, Note_on_c, 0, 54, 80
1, 191553, Note_on_c, 0, 71, 98
1, 191578, Note_off_c, 0, 64, 64
1, 191620, Note_off_c, 0, 74, 64
1, 191712, Note_off_c, 0, 54, 64
1, 191790, Note_on_c, 0, 42, 65
1, 191793, Note_off_c, 0, 71, 64
1, 191798, Note_on_c, 0, 73, 86
1, 191830, Note_off_c, 0, 42, 64
1, 191830, Note_on_c, 0, 64, 56
1, 191833, Note_on_c, 0, 70, 39
1, 191886, Note_off_c, 0, 64, 64
1, 191918, Note_off_c, 0, 70, 64
1, 192066, Control_c, 0, 64, 0
1, 192076, Note_on_c, 0, 35, 91
1, 192084, Note_on_c, 0, 74, 100
1, 192136, Note_off_c, 0, 73, 64
1, 192208, Note_off_c, 0, 35, 64
1, 192250, Control_c, 0, 64, 127
1, 192364, Note_on_c, 0, 71, 59
1, 192369, Note_on_c, 0, 62, 78
1, 192392, Note_on_c, 0, 66, 26
1, 192456, Note_off_c, 0, 71, 64
1, 192474, Note_off_c, 0, 66, 64
1, 192554, Note_off_c, 0, 62, 64
1, 192626, Note_on_c, 0, 61, 81
1, 192836, Note_off_c, 0, 61, 64
1, 192836, Note_on_c, 0, 62, 49
1, 192839, Note_on_c, 0, 71, 65
1, 192842, Note_off_c, 0, 74, 64
1, 192854, Note_on_c, 0, 59, 79
1, 192854, Note_on_c, 0, 66, 29
1, 192886, Note_off_c, 0, 71, 64
1, 192889, Note_off_c, 0, 62, 64
1, 192926, Note_off_c, 0, 66, 64
1, 193102, Note_on_c, 0, 58, 51
1, 193172, Note_off_c, 0, 59, 64
1, 193212, Note_on_c, 0, 78, 92
1, 193266, Control_c, 0, 64, 0
1, 193434, Control_c, 0, 64, 127
1, 193500, Note_off_c, 0, 78, 64
1, 193546, Note_off_c, 0, 58, 64
1, 193576, Note_on_c, 0, 55, 39
1, 193582, Note_on_c, 0, 73, 46
1, 193586, Note_on_c, 0, 70, 42
1, 193590, Note_on_c, 0, 64, 42
1, 193646, Note_off_c, 0, 55, 64
1, 193666, Note_off_c, 0, 64, 64
1, 193702, Note_off_c, 0, 70, 64
1, 193734, Note_off_c, 0, 73, 64
1, 193826, Note_on_c, 0, 54, 75
1, 193959, Note_off_c, 0, 54, 64
1, 194044, Note_on_c, 0, 70, 57
1, 194046, Note_on_c, 0, 73, 66
1, 194048, Note_on_c, 0, 42, 60
1, 194054, Note_on_c, 0, 64, 63
1, 194104, Note_off_c, 0, 64, 64
1, 194126, Note_off_c, 0, 70, 64
1, 194170, Note_off_c, 0, 73, 64
1, 194204, Note_off_c, 0, 42, 64
1, 194266, Note_on_c, 0, 74, 98
1, 194274, Note_on_c, 0, 47, 67
1, 194340, Control_c, 0, 64, 0
1, 194506, Note_on_c, 0, 54, 65
1, 194506, Note_on_c, 0, 62, 58
1, 194509, Note_on_c, 0, 66, 41
1, 194570, Control_c, 0, 64, 127
1, 194758, Note_on_c, 0, 73, 72
1, 194788, Note_off_c, 0, 54, 64
1, 194818, Note_off_c, 0, 62, 64
1, 194840, Note_off_c, 0, 66, 64
1, 194843, Note_off_c, 0, 74, 64
1, 194992, Note_on_c, 0, 54, 57
1, 194994, Note_off_c, 0, 73, 64
1, 194996, Note_on_c, 0, 71, 88
1, 195102, Note_off_c, 0, 47, 64
1, 195144, Note_off_c, 0, 54, 64
1, 195154, Note_off_c, 0, 71, 64
1, 195240, Note_on_c, 0, 42, 33
1, 195248, Note_on_c, 0, 73, 75
1, 195416, Control_c, 0, 64, 0
1, 195472, Note_on_c, 0, 66, 42
1, 195480, Note_on_c, 0, 64, 54
1, 195486, Note_on_c, 0, 54, 54
1, 195616, Control_c, 0, 64, 127
1, 195642, Note_off_c, 0, 54, 64
1, 195666, Note_off_c, 0, 64, 64
1, 195702, Note_off_c, 0, 73, 64
1, 195712, Note_on_c, 0, 74, 78
1, 195744, Note_off_c, 0, 42, 64
1, 195760, Note_off_c, 0, 66, 64
1, 195940, Note_on_c, 0, 70, 75
1, 195966, Note_on_c, 0, 54, 44
1, 196024, Note_off_c, 0, 74, 64
1, 196058, Note_off_c, 0, 54, 64
1, 196152, Note_on_c, 0, 47, 57
1, 196176, Note_on_c, 0, 71, 84
1, 196214, Control_c, 0, 64, 0
1, 196258, Note_off_c, 0, 70, 64
1, 196388, Note_on_c, 0, 62, 43
1, 196396, Note_on_c, 0, 66, 40
1, 196406, Note_on_c, 0, 54, 73
1, 196446, Control_c, 0, 64, 127
1, 196630, Note_off_c, 0, 54, 64
1, 196678, Note_on_c, 0, 57, 45
1, 196710, Note_off_c, 0, 62, 64
1, 196730, Note_on_c, 0, 55, 76
1, 196762, Note_off_c, 0, 57, 64
1, 196784, Control_c, 0, 64, 0
1, 196796, Note_off_c, 0, 66, 64
1, 196922, Note_off_c, 0, 47, 64
1, 196952, Control_c, 0, 64, 127
1, 197016, Note_on_c, 0, 66, 41
1, 197028, Note_on_c, 0, 54, 66
1, 197028, Note_on_c, 0, 62, 41
1, 197042, Note_off_c, 0, 55, 64
1, 197208, Note_off_c, 0, 62, 64
1, 197252, Note_off_c, 0, 54, 64
1, 197278, Note_off_c, 0, 66, 64
1, 197288, Note_on_c, 0, 73, 74
1, 197324, Note_on_c, 0, 53, 60
1, 197352, Control_c, 0, 64, 0
1, 197362, Note_off_c, 0, 71, 64
1, 197536, Control_c, 0, 64, 127
1, 197544, Note_on_c, 0, 64, 31
1, 197546, Note_off_c, 0, 53, 64
1, 197546, Note_on_c, 0, 70, 49
1, 197556, Note_on_c, 0, 66, 27
1, 197568, Note_on_c, 0, 54, 53
1, 197768, Control_c, 0, 64, 0
1, 197771, Note_off_c, 0, 54, 64
1, 197784, Note_on_c, 0, 42, 44
1, 197856, Note_off_c, 0, 64, 64
1, 197868, Note_off_c, 0, 66, 64
1, 197936, Control_c, 0, 64, 127
1, 198022, Note_on_c, 0, 54, 46
1, 198034, Note_on_c, 0, 64, 36
1, 198054, Note_on_c, 0, 66, 21
1, 198128, Note_off_c, 0, 54, 64
1, 198188, Note_off_c, 0, 73, 64
1, 198242, Note_off_c, 0, 64, 64
1, 198274, Note_off_c, 0, 66, 64
1, 198310, Note_off_c, 0, 42, 64
1, 198312, Note_on_c, 0, 47, 26
1, 198366, Note_on_c, 0, 74, 70
1, 198438, Note_off_c, 0, 70, 64
1, 198446, Control_c, 0, 64, 0
1, 198640, Note_on_c, 0, 54, 30
1, 198662, Note_on_c, 0, 66, 26
1, 198666, Note_on_c, 0, 62, 36
1, 198704, Control_c, 0, 64, 127
1, 198894, Note_off_c, 0, 54, 64
1, 198964, Note_on_c, 0, 73, 57
1, 198970, Note_off_c, 0, 62, 64
1, 199034, Note_off_c, 0, 74, 64
1, 199037, Note_off_c, 0, 66, 64
1, 199228, Note_on_c, 0, 71, 68
1, 199238, Note_on_c, 0, 54, 36
1, 199238, Note_on_c, 0, 62, 35
1, 199241, Note_on_c, 0, 66, 35
1, 199302, Note_off_c, 0, 73, 64
1, 199324, Note_off_c, 0, 54, 64
1, 199326, Note_off_c, 0, 66, 64
1, 199330, Note_off_c, 0, 62, 64
1, 199358, Note_off_c, 0, 47, 64
1, 199472, Control_c, 0, 64, 0
1, 199484, Note_on_c, 0, 73, 60
1, 199512, Note_on_c, 0, 42, 25
1, 199552, Note_off_c, 0, 71, 64
1, 199673, Control_c, 0, 64, 127
1, 199736, Note_on_c, 0, 54, 35
1, 199742, Note_on_c, 0, 76, 50
1, 199750, Note_on_c, 0, 64, 28
1, 199788, Note_off_c, 0, 73, 64
1, 199788, Note_on_c, 0, 66, 3
1, 199860, Note_off_c, 0, 76, 64
1, 199946, Note_off_c, 0, 54, 64
1, 199996, Note_on_c, 0, 74, 51
1, 200038, Note_off_c, 0, 64, 64
1, 200062, Note_off_c, 0, 66, 64
1, 200270, Note_on_c, 0, 70, 33
1, 200278, Note_on_c, 0, 54, 32
1, 200282, Note_off_c, 0, 74, 64
1, 200296, Note_on_c, 0, 66, 9
1, 200320, Note_on_c, 0, 64, 18
1, 200392, Note_off_c, 0, 54, 64
1, 200436, Note_off_c, 0, 64, 64
1, 200468, Note_off_c, 0, 66, 64
1, 200612, Note_on_c, 0, 71, 45
1, 200624, Note_on_c, 0, 47, 28
1, 200648, Note_off_c, 0, 42, 64
1, 200656, Control_c, 0, 64, 0
1, 200668, Note_off_c, 0, 70, 64
1, 200906, Note_on_c, 0, 66, 28
1, 200920, Note_on_c, 0, 54, 31
1, 200923, Note_on_c, 0, 62, 27
1, 200978, Control_c, 0, 64, 127
1, 201024, Note_off_c, 0, 62, 64
1, 201029, Note_off_c, 0, 54, 64
1, 201088, Note_off_c, 0, 66, 64
1, 201100, Note_off_c, 0, 71, 64
1, 201124, Note_off_c, 0, 47, 64
1, 201230, Note_on_c, 0, 74, 61
1, 201246, Note_on_c, 0, 42, 36
1, 201482, Note_on_c, 0, 70, 53
1, 201486, Note_on_c, 0, 54, 47
1, 201538, Note_on_c, 0, 64, 13
1, 201548, Note_off_c, 0, 74, 64
1, 201560, Note_on_c, 0, 66, 6
1, 201584, Note_off_c, 0, 54, 64
1, 201648, Note_off_c, 0, 64, 64
1, 201656, Note_off_c, 0, 66, 64
1, 201728, Note_on_c, 0, 71, 78
1, 201736, Note_on_c, 0, 47, 56
1, 201792, Note_off_c, 0, 42, 64
1, 201818, Note_off_c, 0, 70, 64
1, 201930, Control_c, 0, 64, 0
1, 201962, Note_on_c, 0, 66, 42
1, 201962, Note_on_c, 0, 54, 49
1, 201970, Note_on_c, 0, 62, 41
1, 202064, Note_off_c, 0, 62, 64
1, 202084, Control_c, 0, 64, 127
1, 202112, Note_off_c, 0, 54, 64
1, 202131, Note_off_c, 0, 66, 64
1, 202188, Note_off_c, 0, 47, 64
1, 202188, Note_on_c, 0, 74, 80
1, 202208, Note_on_c, 0, 42, 47
1, 202254, Note_off_c, 0, 71, 64
1, 202254, Control_c, 0, 64, 0
1, 202404, Note_on_c, 0, 70, 56
1, 202408, Note_on_c, 0, 64, 52
1, 202420, Note_on_c, 0, 54, 59
1, 202422, Note_on_c, 0, 66, 33
1, 202424, Control_c, 0, 64, 127
1, 202464, Note_off_c, 0, 74, 64
1, 202574, Note_off_c, 0, 66, 64
1, 202594, Note_off_c, 0, 54, 64
1, 202650, Note_off_c, 0, 64, 64
1, 202658, Note_on_c, 0, 71, 81
1, 202668, Note_off_c, 0, 42, 64
1, 202670, Note_on_c, 0, 47, 52
1, 202730, Control_c, 0, 64, 0
1, 202736, Note_off_c, 0, 70, 64
1, 202870, Note_on_c, 0, 54, 49
1, 202873, Note_on_c, 0, 66, 46
1, 202884, Note_on_c, 0, 62, 43
1, 202914, Control_c, 0, 64, 127
1, 202944, Note_off_c, 0, 62, 64
1, 202948, Note_off_c, 0, 54, 64
1, 202994, Note_off_c, 0, 71, 64
1, 203010, Note_off_c, 0, 66, 64
1, 203092, Note_off_c, 0, 47, 64
1, 203098, Note_on_c, 0, 72, 68
1, 203114, Note_on_c, 0, 40, 63
1, 203160, Control_c, 0, 64, 0
1, 203324, Note_on_c, 0, 62, 53
1, 203329, Note_on_c, 0, 68, 58
1, 203350, Note_on_c, 0, 52, 57
1, 203390, Control_c, 0, 64, 127
1, 203402, Note_off_c, 0, 72, 64
1, 203510, Note_off_c, 0, 52, 64
1, 203564, Note_on_c, 0, 69, 57
1, 203572, Note_on_c, 0, 45, 49
1, 203580, Note_off_c, 0, 40, 64
1, 203600, Note_off_c, 0, 68, 64
1, 203626, Note_off_c, 0, 62, 64
1, 203728, Control_c, 0, 64, 0
1, 203782, Note_on_c, 0, 60, 48
1, 203808, Note_on_c, 0, 52, 41
1, 203900, Note_off_c, 0, 60, 64
1, 203926, Note_off_c, 0, 52, 64
1, 203944, Control_c, 0, 64, 127
1, 204022, Note_on_c, 0, 72, 58
1, 204046, Note_on_c, 0, 40, 54
1, 204054, Note_off_c, 0, 45, 64
1, 204086, Note_off_c, 0, 69, 64
1, 204128, Control_c, 0, 64, 0
1, 204228, Note_on_c, 0, 68, 47
1, 204244, Note_on_c, 0, 62, 35
1, 204270, Note_on_c, 0, 52, 50
1, 204276, Note_off_c, 0, 72, 64
1, 204344, Control_c, 0, 64, 127
1, 204424, Note_off_c, 0, 52, 64
1, 204472, Note_on_c, 0, 69, 40
1, 204482, Note_off_c, 0, 62, 64
1, 204482, Note_on_c, 0, 45, 35
1, 204486, Note_off_c, 0, 40, 64
1, 204496, Control_c, 0, 64, 0
1, 204528, Note_off_c, 0, 68, 64
1, 204708, Note_on_c, 0, 60, 25
1, 204728, Control_c, 0, 64, 127
1, 204740, Note_on_c, 0, 52, 28
1, 204790, Note_off_c, 0, 60, 64
1, 204826, Note_off_c, 0, 52, 64
1, 204936, Note_on_c, 0, 72, 38
1, 204952, Note_off_c, 0, 45, 64
1, 204958, Note_on_c, 0, 40, 38
1, 204988, Control_c, 0, 64, 0
1, 205004, Note_off_c, 0, 69, 64
1, 205166, Note_on_c, 0, 62, 22
1, 205174, Note_on_c, 0, 68, 36
1, 205190, Note_on_c, 0, 52, 32
1, 205218, Control_c, 0, 64, 127
1, 205260, Note_off_c, 0, 72, 64
1, 205310, Note_off_c, 0, 52, 64
1, 205426, Note_on_c, 0, 69, 35
1, 205434, Note_off_c, 0, 40, 64
1, 205440, Note_on_c, 0, 45, 26
1, 205456, Note_off_c, 0, 62, 64
1, 205466, Control_c, 0, 64, 0
1, 205484, Note_off_c, 0, 68, 64
1, 205700, Note_on_c, 0, 60, 31
1, 205738, Note_on_c, 0, 52, 25
1, 205742, Control_c, 0, 64, 127
1, 205828, Note_off_c, 0, 60, 64
1, 205862, Note_off_c, 0, 52, 64
1, 206022, Note_on_c, 0, 72, 37
1, 206048, Control_c, 0, 64, 0
1, 206052, Note_on_c, 0, 40, 38
1, 206088, Note_off_c, 0, 69, 64
1, 206094, Note_off_c, 0, 45, 64
1, 206234, Control_c, 0, 64, 127
1, 206346, Note_off_c, 0, 40, 64
1, 206366, Note_on_c, 0, 68, 30
1, 206398, Note_on_c, 0, 62, 25
1, 206404, Note_off_c, 0, 72, 64
1, 206424, Note_on_c, 0, 52, 25
1, 206492, Note_off_c, 0, 52, 64
1, 206598, Note_off_c, 0, 62, 64
1, 206880, Note_on_c, 0, 69, 23
1, 206900, Note_on_c, 0, 60, 23
1, 206918, Note_on_c, 0, 39, 36
1, 206934, Note_off_c, 0, 68, 64
1, 206940, Control_c, 0, 64, 0
1, 207216, Control_c, 0, 64, 127
1, 207306, Note_on_c, 0, 48, 24
1, 207316, Note_off_c, 0, 39, 64
1, 207508, Note_off_c, 0, 48, 64
1, 207638, Note_on_c, 0, 53, 55
1, 207752, Note_off_c, 0, 53, 64
1, 207912, Note_on_c, 0, 57, 31
1, 208016, Note_off_c, 0, 60, 64
1, 208096, Note_off_c, 0, 57, 64
1, 208112, Note_off_c, 0, 69, 64
1, 208170, Note_on_c, 0, 59, 46
1, 208170, Note_on_c, 0, 56, 34
1, 208246, Control_c, 0, 64, 0
1, 208412, Note_on_c, 0, 62, 54
1, 208430, Control_c, 0, 64, 127
1, 208522, Note_off_c, 0, 59, 64
1, 208618, Note_off_c, 0, 56, 64
1, 208636, Note_off_c, 0, 62, 64
1, 208654, Note_on_c, 0, 65, 40
1, 208842, Note_off_c, 0, 65, 64
1, 208874, Note_on_c, 0, 68, 43
1, 208884, Note_on_c, 0, 71, 63
1, 209006, Note_off_c, 0, 68, 64
1, 209028, Note_off_c, 0, 71, 64
1, 209162, Note_on_c, 0, 72, 60
1, 209164, Note_on_c, 0, 69, 48
1, 209182, Note_on_c, 0, 39, 48
1, 209198, Control_c, 0, 64, 0
1, 209442, Note_on_c, 0, 48, 50
1, 209444, Control_c, 0, 64, 127
1, 209492, Note_off_c, 0, 39, 64
1, 209604, Note_off_c, 0, 48, 64
1, 209684, Note_on_c, 0, 53, 81
1, 209696, Note_on_c, 0, 65, 41
1, 209698, Note_on_c, 0, 60, 40
1, 209808, Note_off_c, 0, 53, 64
1, 209896, Note_on_c, 0, 57, 65
1, 209934, Note_off_c, 0, 60, 64
1, 210026, Note_off_c, 0, 72, 64
1, 210054, Note_off_c, 0, 65, 64
1, 210096, Note_off_c, 0, 69, 64
1, 210114, Note_off_c, 0, 57, 64
1, 210124, Note_on_c, 0, 59, 68
1, 210124, Note_on_c, 0, 56, 55
1, 210212, Control_c, 0, 64, 0
1, 210346, Note_on_c, 0, 62, 84
1, 210354, Note_off_c, 0, 59, 64
1, 210382, Control_c, 0, 64, 127
1, 210412, Note_off_c, 0, 56, 64
1, 210576, Note_on_c, 0, 65, 74
1, 210646, Note_off_c, 0, 62, 64
1, 210792, Note_on_c, 0, 68, 65
1, 210796, Note_on_c, 0, 71, 85
1, 210858, Note_off_c, 0, 65, 64
1, 210948, Note_off_c, 0, 71, 64
1, 211028, Note_on_c, 0, 39, 58
1, 211108, Note_on_c, 0, 72, 70
1, 211118, Note_on_c, 0, 69, 60
1, 211156, Note_off_c, 0, 68, 64
1, 211180, Control_c, 0, 64, 0
1, 211348, Note_on_c, 0, 48, 58
1, 211364, Control_c, 0, 64, 127
1, 211402, Note_off_c, 0, 39, 64
1, 211542, Note_off_c, 0, 48, 64
1, 211608, Note_on_c, 0, 53, 85
1, 211796, Note_off_c, 0, 53, 64
1, 211826, Note_on_c, 0, 57, 60
1, 211870, Note_off_c, 0, 72, 64
1, 212088, Note_on_c, 0, 60, 83
1, 212116, Note_off_c, 0, 57, 64
1, 212120, Note_off_c, 0, 69, 64
1, 212298, Note_off_c, 0, 60, 64
1, 212370, Note_on_c, 0, 65, 85
1, 212660, Note_on_c, 0, 69, 74
1, 212686, Note_off_c, 0, 65, 64
1, 212972, Note_off_c, 0, 69, 64
1, 212984, Note_on_c, 0, 81, 81
1, 213346, Note_on_c, 0, 77, 76
1, 213524, Note_off_c, 0, 81, 64
1, 213680, Note_on_c, 0, 72, 71
1, 213730, Note_off_c, 0, 77, 64
1, 213956, Note_off_c, 0, 72, 64
1, 213978, Note_on_c, 0, 69, 54
1, 214236, Note_on_c, 0, 65, 54
1, 214242, Note_off_c, 0, 69, 64
1, 214524, Note_on_c, 0, 60, 59
1, 214526, Note_off_c, 0, 65, 64
1, 214848, Note_on_c, 0, 53, 78
1, 215162, Note_off_c, 0, 53, 64
1, 215216, Note_on_c, 0, 48, 56
1, 215290, Note_off_c, 0, 60, 64
1, 215344, Control_c, 0, 64, 0
1, 215498, Control_c, 0, 64, 127
1, 215658, Note_on_c, 0, 36, 54
1, 215790, Note_off_c, 0, 48, 64
1, 215912, Control_c, 0, 64, 0
1, 216052, Control_c, 0, 64, 127
1, 216336, Note_on_c, 0, 68, 65
1, 216342, Note_off_c, 0, 36, 64
1, 216364, Note_on_c, 0, 35, 36
1, 216406, Control_c, 0, 64, 0
1, 216728, Control_c, 0, 64, 127
1, 216782, Note_off_c, 0, 35, 64
1, 217320, Note_on_c, 0, 61, 43
1, 217384, Note_on_c, 0, 56, 16
1, 217392, Note_on_c, 0, 52, 19
1, 217646, Note_off_c, 0, 56, 64
1, 217680, Note_off_c, 0, 52, 64
1, 217710, Note_off_c, 0, 61, 64
1, 217720, Note_on_c, 0, 69, 61
1, 217890, Note_off_c, 0, 68, 64
1, 217958, Note_on_c, 0, 47, 4
1, 218064, Note_on_c, 0, 56, 19
1, 218164, Note_off_c, 0, 47, 64
1, 218214, Note_on_c, 0, 71, 74
1, 218262, Note_on_c, 0, 59, 28
1, 218280, Control_c, 0, 64, 0
1, 218286, Note_on_c, 0, 47, 12
1, 218342, Note_off_c, 0, 69, 64
1, 218448, Control_c, 0, 64, 127
1, 218468, Note_off_c, 0, 47, 64
1, 218540, Note_off_c, 0, 56, 64
1, 218562, Note_off_c, 0, 59, 64
1, 218584, Note_on_c, 0, 75, 78
1, 218658, Note_off_c, 0, 71, 64
1, 218912, Note_on_c, 0, 68, 36
1, 218944, Note_on_c, 0, 59, 20
1, 218974, Note_on_c, 0, 76, 63
1, 218988, Note_on_c, 0, 64, 9
1, 219022, Note_off_c, 0, 75, 64
1, 219048, Control_c, 0, 64, 0
1, 219170, Control_c, 0, 64, 127
1, 219192, Note_off_c, 0, 68, 64
1, 219216, Note_off_c, 0, 64, 64
1, 219260, Note_off_c, 0, 59, 64
1, 219356, Note_on_c, 0, 73, 47
1, 219468, Note_off_c, 0, 76, 64
1, 219698, Note_off_c, 0, 73, 64
1, 219858, Note_on_c, 0, 71, 51
1, 219878, Control_c, 0, 64, 0
1, 219904, Note_on_c, 0, 35, 20
1, 220108, Control_c, 0, 64, 127
1, 220160, Note_off_c, 0, 35, 64
1, 220672, Note_on_c, 0, 54, 30
1, 220682, Note_on_c, 0, 63, 33
1, 220730, Note_on_c, 0, 59, 16
1, 220864, Note_off_c, 0, 59, 64
1, 220938, Note_off_c, 0, 63, 64
1, 220960, Note_off_c, 0, 54, 64
1, 221404, Note_on_c, 0, 66, 44
1, 221432, Note_on_c, 0, 59, 23
1, 221434, Note_on_c, 0, 54, 17
1, 221456, Note_on_c, 0, 51, 27
1, 221612, Note_off_c, 0, 71, 64
1, 221690, Note_off_c, 0, 59, 64
1, 221704, Note_off_c, 0, 54, 64
1, 221706, Note_off_c, 0, 51, 64
1, 222158, Note_on_c, 0, 62, 22
1, 222164, Note_on_c, 0, 54, 26
1, 222180, Note_on_c, 0, 50, 19
1, 222182, Control_c, 0, 64, 0
1, 222412, Control_c, 0, 64, 127
1, 222458, Note_off_c, 0, 62, 64
1, 222542, Note_off_c, 0, 54, 64
1, 222542, Note_off_c, 0, 50, 64
1, 222862, Note_on_c, 0, 45, 20
1, 222874, Note_on_c, 0, 33, 19
1, 222942, Note_off_c, 0, 45, 64
1, 222984, Note_off_c, 0, 33, 64
1, 223678, Note_on_c, 0, 59, 23
1, 223688, Note_on_c, 0, 54, 19
1, 223774, Note_on_c, 0, 50, 5
1, 223896, Note_off_c, 0, 50, 64
1, 224038, Note_off_c, 0, 66, 64
1, 224078, Note_off_c, 0, 54, 64
1, 224124, Note_on_c, 0, 67, 42
1, 224164, Note_off_c, 0, 59, 64
1, 224510, Note_on_c, 0, 69, 35
1, 224536, Note_on_c, 0, 54, 29
1, 224539, Note_on_c, 0, 45, 21
1, 224548, Note_on_c, 0, 57, 23
1, 224564, Control_c, 0, 64, 0
1, 224584, Note_off_c, 0, 67, 64
1, 224752, Note_off_c, 0, 45, 64
1, 224764, Control_c, 0, 64, 127
1, 224786, Note_off_c, 0, 54, 64
1, 224800, Note_off_c, 0, 57, 64
1, 224846, Note_on_c, 0, 73, 43
1, 224908, Note_off_c, 0, 69, 64
1, 225192, Note_on_c, 0, 74, 51
1, 225216, Note_on_c, 0, 66, 14
1, 225242, Note_off_c, 0, 73, 64
1, 225272, Note_on_c, 0, 57, 15
1, 225298, Note_on_c, 0, 62, 5
1, 225340, Note_off_c, 0, 66, 64
1, 225360, Note_off_c, 0, 57, 64
1, 225376, Note_off_c, 0, 62, 64
1, 225570, Note_on_c, 0, 71, 59
1, 225746, Note_off_c, 0, 74, 64
1, 225930, Note_off_c, 0, 71, 64
1, 226100, Control_c, 0, 64, 0
1, 226110, Note_on_c, 0, 69, 46
1, 226120, Note_on_c, 0, 33, 34
1, 226342, Note_off_c, 0, 33, 64
1, 226347, Control_c, 0, 64, 127
1, 226984, Note_on_c, 0, 61, 28
1, 227016, Note_on_c, 0, 57, 12
1, 227016, Note_on_c, 0, 52, 26
1, 227108, Note_off_c, 0, 52, 64
1, 227118, Note_off_c, 0, 57, 64
1, 227230, Note_off_c, 0, 61, 64
1, 227662, Note_on_c, 0, 64, 56
1, 227684, Note_on_c, 0, 57, 24
1, 227690, Note_on_c, 0, 49, 23
1, 227732, Note_on_c, 0, 52, 24
1, 227792, Note_off_c, 0, 69, 64
1, 227952, Note_off_c, 0, 52, 64
1, 227992, Note_off_c, 0, 57, 64
1, 228002, Note_off_c, 0, 49, 64
1, 228366, Note_on_c, 0, 60, 41
1, 228374, Note_on_c, 0, 48, 23
1, 228396, Note_on_c, 0, 52, 39
1, 228496, Control_c, 0, 64, 0
1, 228634, Control_c, 0, 64, 127
1, 228742, Note_on_c, 0, 66, 64
1, 228752, Note_off_c, 0, 60, 64
1, 228844, Note_off_c, 0, 48, 64
1, 228844, Note_off_c, 0, 52, 64
1, 228926, Note_off_c, 0, 64, 64
1, 229224, Note_on_c, 0, 63, 75
1, 229248, Note_on_c, 0, 45, 28
1, 229256, Note_on_c, 0, 33, 33
1, 229280, Control_c, 0, 64, 0
1, 229436, Note_off_c, 0, 66, 64
1, 229512, Control_c, 0, 64, 127
1, 229518, Note_off_c, 0, 33, 64
1, 229592, Note_off_c, 0, 45, 64
1, 229928, Note_on_c, 0, 60, 43
1, 229930, Note_on_c, 0, 54, 48
1, 229940, Note_on_c, 0, 51, 41
1, 230202, Note_off_c, 0, 60, 64
1, 230318, Note_off_c, 0, 54, 64
1, 230370, Note_off_c, 0, 51, 64
1, 230590, Note_on_c, 0, 44, 59
1, 230593, Note_on_c, 0, 32, 54
1, 230910, Note_on_c, 0, 65, 66
1, 230990, Note_off_c, 0, 63, 64
1, 231090, Note_off_c, 0, 44, 64
1, 231246, Note_off_c, 0, 32, 64
1, 231248, Note_on_c, 0, 66, 69
1, 231258, Note_on_c, 0, 42, 51
1, 231262, Note_on_c, 0, 30, 52
1, 231382, Note_off_c, 0, 65, 64
1, 231552, Note_on_c, 0, 67, 84
1, 231602, Control_c, 0, 64, 0
1, 231646, Note_off_c, 0, 66, 64
1, 231692, Control_c, 0, 64, 127
1, 231798, Note_off_c, 0, 30, 64
1, 231802, Note_off_c, 0, 42, 64
1, 231864, Note_on_c, 0, 68, 79
1, 231870, Note_on_c, 0, 29, 52
1, 231878, Note_on_c, 0, 41, 59
1, 231908, Control_c, 0, 64, 0
1, 231984, Note_off_c, 0, 67, 64
1, 232136, Note_off_c, 0, 29, 64
1, 232200, Control_c, 0, 64, 127
1, 232218, Note_off_c, 0, 41, 64
1, 232610, Note_on_c, 0, 61, 83
1, 232624, Note_on_c, 0, 59, 48
1, 232636, Note_on_c, 0, 49, 40
1, 232638, Note_on_c, 0, 56, 40
1, 232780, Note_off_c, 0, 68, 64
1, 232812, Note_off_c, 0, 59, 64
1, 232904, Note_off_c, 0, 56, 64
1, 232980, Note_off_c, 0, 49, 64
1, 233272, Note_on_c, 0, 69, 79
1, 233274, Note_on_c, 0, 42, 57
1, 233290, Note_on_c, 0, 30, 69
1, 233338, Control_c, 0, 64, 0
1, 233410, Note_off_c, 0, 61, 64
1, 233516, Note_off_c, 0, 30, 64
1, 233552, Control_c, 0, 64, 127
1, 233576, Note_off_c, 0, 42, 64
1, 233896, Note_on_c, 0, 57, 66
1, 233899, Note_on_c, 0, 49, 59
1, 233904, Note_on_c, 0, 54, 59
1, 234026, Note_off_c, 0, 57, 64
1, 234130, Note_off_c, 0, 54, 64
1, 234164, Note_off_c, 0, 49, 64
1, 234508, Note_on_c, 0, 71, 99
1, 234522, Note_on_c, 0, 44, 76
1, 234528, Note_on_c, 0, 32, 78
1, 234582, Control_c, 0, 64, 0
1, 234640, Note_off_c, 0, 69, 64
1, 234798, Note_off_c, 0, 32, 64
1, 234828, Control_c, 0, 64, 127
1, 234850, Note_off_c, 0, 44, 64
1, 235120, Note_on_c, 0, 64, 101
1, 235130, Note_on_c, 0, 62, 76
1, 235146, Note_on_c, 0, 52, 68
1, 235150, Note_on_c, 0, 59, 64
1, 235232, Note_off_c, 0, 71, 64
1, 235254, Note_off_c, 0, 62, 64
1, 235318, Note_off_c, 0, 59, 64
1, 235356, Note_off_c, 0, 52, 64
1, 235696, Note_on_c, 0, 73, 96
1, 235712, Note_on_c, 0, 45, 67
1, 235712, Note_on_c, 0, 33, 72
1, 235750, Control_c, 0, 64, 0
1, 235764, Note_off_c, 0, 64, 64
1, 235946, Note_off_c, 0, 33, 64
1, 235980, Control_c, 0, 64, 127
1, 236004, Note_off_c, 0, 45, 64
1, 236324, Note_on_c, 0, 61, 86
1, 236338, Note_on_c, 0, 57, 63
1, 236338, Note_on_c, 0, 52, 85
1, 236500, Note_off_c, 0, 61, 64
1, 236572, Note_off_c, 0, 57, 64
1, 236622, Note_off_c, 0, 52, 64
1, 236948, Note_on_c, 0, 48, 74
1, 236958, Note_on_c, 0, 36, 75
1, 236964, Control_c, 0, 64, 0
1, 236974, Note_on_c, 0, 75, 90
1, 237020, Note_off_c, 0, 73, 64
1, 237116, Control_c, 0, 64, 127
1, 237122, Note_off_c, 0, 75, 64
1, 237384, Note_on_c, 0, 55, 88
1, 237496, Note_on_c, 0, 56, 80
1, 237512, Note_off_c, 0, 55, 64
1, 237532, Note_off_c, 0, 56, 64
1, 237564, Note_off_c, 0, 36, 64
1, 237568, Note_off_c, 0, 48, 64
1, 237596, Note_on_c, 0, 60, 88
1, 237692, Note_on_c, 0, 63, 89
1, 237706, Note_off_c, 0, 60, 64
1, 237782, Note_on_c, 0, 68, 83
1, 237808, Note_off_c, 0, 63, 64
1, 237824, Note_off_c, 0, 68, 64
1, 237894, Note_on_c, 0, 68, 77
1, 238000, Note_on_c, 0, 56, 65
1, 238008, Note_off_c, 0, 68, 64
1, 238060, Note_on_c, 0, 63, 67
1, 238142, Note_on_c, 0, 68, 81
1, 238160, Note_on_c, 0, 80, 106
1, 238546, Note_off_c, 0, 68, 64
1, 238654, Note_off_c, 0, 63, 64
1, 238718, Note_off_c, 0, 80, 64
1, 238720, Note_off_c, 0, 56, 64
1, 238828, Note_on_c, 0, 78, 92
1, 238982, Note_off_c, 0, 78, 64
1, 239034, Note_on_c, 0, 78, 98
1, 239042, Note_on_c, 0, 49, 64
1, 239050, Note_on_c, 0, 37, 76
1, 239144, Control_c, 0, 64, 0
1, 239328, Note_off_c, 0, 37, 64
1, 239330, Control_c, 0, 64, 127
1, 239376, Note_off_c, 0, 49, 64
1, 239694, Note_on_c, 0, 76, 92
1, 239696, Note_on_c, 0, 64, 83
1, 239702, Note_on_c, 0, 61, 67
1, 239702, Note_on_c, 0, 52, 78
1, 239714, Note_on_c, 0, 56, 48
1, 239804, Note_off_c, 0, 64, 64
1, 239836, Note_off_c, 0, 52, 64
1, 239874, Note_off_c, 0, 61, 64
1, 239916, Note_off_c, 0, 56, 64
1, 239919, Note_off_c, 0, 78, 64
1, 240262, Note_off_c, 0, 76, 64
1, 240316, Note_on_c, 0, 75, 84
1, 240476, Note_off_c, 0, 75, 64
1, 240524, Note_on_c, 0, 75, 93
1, 240540, Note_on_c, 0, 45, 66
1, 240542, Note_on_c, 0, 33, 75
1, 240574, Control_c, 0, 64, 0
1, 240804, Control_c, 0, 64, 127
1, 240812, Note_off_c, 0, 33, 64
1, 240914, Note_off_c, 0, 45, 64
1, 241232, Note_on_c, 0, 54, 67
1, 241235, Note_on_c, 0, 64, 63
1, 241248, Note_on_c, 0, 61, 58
1, 241334, Note_off_c, 0, 61, 64
1, 241342, Note_off_c, 0, 54, 64
1, 241344, Note_off_c, 0, 64, 64
1, 241666, Note_on_c, 0, 73, 83
1, 241776, Note_off_c, 0, 75, 64
1, 242110, Note_on_c, 0, 72, 84
1, 242218, Note_off_c, 0, 73, 64
1, 242474, Note_on_c, 0, 73, 84
1, 242574, Note_off_c, 0, 72, 64
1, 242808, Note_on_c, 0, 75, 67
1, 242936, Note_off_c, 0, 73, 64
1, 242986, Control_c, 0, 64, 0
1, 243156, Control_c, 0, 64, 127
1, 243202, Note_on_c, 0, 76, 60
1, 243262, Note_off_c, 0, 75, 64
1, 243324, Control_c, 0, 64, 0
1, 243478, Control_c, 0, 64, 127
1, 243600, Note_off_c, 0, 76, 64
1, 243732, Note_on_c, 0, 76, 43
1, 243774, Note_on_c, 0, 37, 14
1, 243780, Note_on_c, 0, 49, 14
1, 244040, Note_off_c, 0, 37, 64
1, 244066, Note_off_c, 0, 49, 64
1, 244586, Note_on_c, 0, 69, 35
1, 244600, Note_on_c, 0, 64, 15
1, 244608, Note_on_c, 0, 57, 12
1, 244618, Note_on_c, 0, 52, 21
1, 244716, Note_off_c, 0, 76, 64
1, 244866, Note_off_c, 0, 64, 64
1, 244944, Note_off_c, 0, 57, 64
1, 244982, Note_off_c, 0, 52, 64
1, 245292, Note_on_c, 0, 47, 34
1, 245306, Note_on_c, 0, 35, 26
1, 245336, Control_c, 0, 64, 0
1, 245568, Control_c, 0, 64, 127
1, 245598, Note_off_c, 0, 35, 64
1, 245664, Note_on_c, 0, 68, 58
1, 245686, Note_off_c, 0, 47, 64
1, 245716, Note_off_c, 0, 69, 64
1, 246146, Note_on_c, 0, 71, 72
1, 246152, Note_on_c, 0, 64, 37
1, 246168, Note_on_c, 0, 59, 31
1, 246183, Note_on_c, 0, 52, 19
1, 246212, Note_off_c, 0, 68, 64
1, 246380, Note_off_c, 0, 64, 64
1, 246434, Note_off_c, 0, 59, 64
1, 246478, Note_off_c, 0, 52, 64
1, 246484, Note_on_c, 0, 69, 59
1, 246566, Note_off_c, 0, 71, 64
1, 246716, Note_on_c, 0, 68, 73
1, 246736, Note_off_c, 0, 69, 64
1, 246816, Note_off_c, 0, 68, 64
1, 246892, Note_on_c, 0, 68, 64
1, 246892, Note_on_c, 0, 46, 34
1, 246906, Note_on_c, 0, 34, 36
1, 246980, Control_c, 0, 64, 0
1, 247164, Note_off_c, 0, 34, 64
1, 247164, Control_c, 0, 64, 127
1, 247172, Note_off_c, 0, 68, 64
1, 247226, Note_on_c, 0, 61, 77
1, 247229, Note_off_c, 0, 46, 64
1, 247358, Note_off_c, 0, 61, 64
1, 247578, Note_on_c, 0, 68, 77
1, 247590, Note_on_c, 0, 64, 47
1, 247594, Note_on_c, 0, 54, 39
1, 247596, Note_on_c, 0, 61, 41
1, 247864, Note_off_c, 0, 68, 64
1, 247868, Note_on_c, 0, 66, 76
1, 248110, Note_off_c, 0, 66, 64
1, 248110, Note_on_c, 0, 73, 73
1, 248326, Note_on_c, 0, 80, 81
1, 248338, Note_off_c, 0, 73, 64
1, 248390, Note_off_c, 0, 80, 64
1, 248518, Note_on_c, 0, 78, 88
1, 248676, Note_off_c, 0, 78, 64
1, 248702, Note_off_c, 0, 64, 64
1, 248702, Note_on_c, 0, 85, 86
1, 248782, Note_off_c, 0, 61, 64
1, 248860, Note_off_c, 0, 54, 64
1, 248878, Note_on_c, 0, 92, 81
1, 248918, Note_off_c, 0, 85, 64
1, 249080, Note_on_c, 0, 90, 81
1, 249132, Note_off_c, 0, 92, 64
1, 249270, Note_on_c, 0, 85, 83
1, 249296, Note_off_c, 0, 90, 64
1, 249460, Note_off_c, 0, 85, 64
1, 249464, Note_on_c, 0, 30, 28
1, 249470, Note_on_c, 0, 80, 60
1, 249470, Control_c, 0, 64, 0
1, 249484, Note_on_c, 0, 42, 33
1, 249640, Control_c, 0, 64, 127
1, 249643, Note_off_c, 0, 30, 64
1, 249678, Note_off_c, 0, 42, 64
1, 249678, Note_on_c, 0, 78, 65
1, 249708, Note_off_c, 0, 80, 64
1, 249896, Note_off_c, 0, 78, 64
1, 249904, Note_on_c, 0, 76, 41
1, 250094, Note_off_c, 0, 76, 64
1, 250108, Note_on_c, 0, 73, 41
1, 250142, Note_on_c, 0, 58, 16
1, 250146, Note_on_c, 0, 64, 29
1, 250146, Note_on_c, 0, 54, 31
1, 250298, Note_off_c, 0, 73, 64
1, 250308, Note_off_c, 0, 64, 64
1, 250350, Note_on_c, 0, 68, 42
1, 250378, Note_off_c, 0, 54, 64
1, 250390, Note_off_c, 0, 58, 64
1, 250558, Note_off_c, 0, 68, 64
1, 250566, Note_on_c, 0, 66, 46
1, 250696, Note_off_c, 0, 66, 64
1, 250712, Note_on_c, 0, 68, 41
1, 250776, Note_on_c, 0, 66, 40
1, 250780, Note_off_c, 0, 68, 64
1, 250852, Note_on_c, 0, 68, 52
1, 250860, Note_off_c, 0, 66, 64
1, 250874, Note_on_c, 0, 47, 21
1, 250891, Note_on_c, 0, 35, 26
1, 250912, Note_off_c, 0, 68, 64
1, 250940, Note_on_c, 0, 66, 33
1, 250946, Control_c, 0, 64, 0
1, 250982, Note_on_c, 0, 68, 53
1, 251012, Note_off_c, 0, 66, 64
1, 251052, Note_on_c, 0, 66, 28
1, 251054, Note_off_c, 0, 68, 64
1, 251118, Note_off_c, 0, 66, 64
1, 251122, Note_on_c, 0, 68, 57
1, 251174, Note_off_c, 0, 68, 64
1, 251182, Note_on_c, 0, 66, 52
1, 251252, Control_c, 0, 64, 127
1, 251272, Note_off_c, 0, 66, 64
1, 251280, Note_off_c, 0, 35, 64
1, 251280, Note_on_c, 0, 68, 33
1, 251344, Note_on_c, 0, 66, 46
1, 251362, Note_off_c, 0, 47, 64
1, 251376, Note_off_c, 0, 68, 64
1, 251472, Note_on_c, 0, 65, 49
1, 251476, Note_off_c, 0, 66, 64
1, 251612, Note_off_c, 0, 65, 64
1, 251624, Note_on_c, 0, 66, 47
1, 251848, Note_on_c, 0, 63, 28
1, 251876, Note_on_c, 0, 57, 14
1, 251897, Note_off_c, 0, 66, 64
1, 251924, Note_on_c, 0, 68, 39
1, 252052, Control_c, 0, 64, 0
1, 252190, Control_c, 0, 64, 127
1, 252226, Note_off_c, 0, 68, 64
1, 252246, Note_off_c, 0, 63, 64
1, 252292, Note_off_c, 0, 57, 64
1, 252610, Note_on_c, 0, 59, 39
1, 253038, Note_on_c, 0, 56, 24
1, 253060, Note_on_c, 0, 64, 47
1, 253074, Note_off_c, 0, 59, 64
1, 253112, Control_c, 0, 64, 0
1, 253115, Note_on_c, 0, 40, 36
1, 253574, Control_c, 0, 64, 127
1, 253710, Note_on_c, 0, 49, 33
1, 253712, Note_off_c, 0, 40, 64
1, 253962, Note_on_c, 0, 46, 33
1, 253980, Note_off_c, 0, 49, 64
1, 254110, Control_c, 0, 64, 0
1, 254158, Note_off_c, 0, 46, 64
1, 254168, Note_on_c, 0, 49, 41
1, 254248, Control_c, 0, 64, 127
1, 254310, Control_c, 0, 64, 0
1, 254356, Note_on_c, 0, 47, 56
1, 254374, Note_off_c, 0, 49, 64
1, 254494, Control_c, 0, 64, 127
1, 254526, Note_off_c, 0, 47, 64
1, 254548, Note_on_c, 0, 52, 68
1, 254602, Control_c, 0, 64, 0
1, 254720, Note_on_c, 0, 51, 51
1, 254740, Control_c, 0, 64, 127
1, 254756, Note_off_c, 0, 52, 64
1, 254832, Control_c, 0, 64, 0
1, 254912, Note_off_c, 0, 56, 64
1, 254912, Note_on_c, 0, 54, 72
1, 254966, Note_off_c, 0, 51, 64
1, 255002, Control_c, 0, 64, 127
1, 255096, Note_on_c, 0, 52, 76
1, 255106, Note_off_c, 0, 54, 64
1, 255200, Control_c, 0, 64, 0
1, 255272, Note_on_c, 0, 56, 56
1, 255278, Note_off_c, 0, 52, 64
1, 255448, Control_c, 0, 64, 127
1, 255464, Note_on_c, 0, 55, 61
1, 255494, Note_off_c, 0, 64, 64
1, 255494, Note_off_c, 0, 56, 64
1, 255640, Note_off_c, 0, 55, 64
1, 255672, Note_on_c, 0, 57, 32
1, 255714, Note_on_c, 0, 64, 78
1, 255738, Control_c, 0, 64, 0
1, 255922, Note_off_c, 0, 57, 64
1, 255922, Note_on_c, 0, 56, 47
1, 255954, Control_c, 0, 64, 127
1, 256060, Note_off_c, 0, 56, 64
1, 256068, Note_off_c, 0, 64, 64
1, 256118, Note_on_c, 0, 54, 55
1, 256224, Note_off_c, 0, 54, 64
1, 256308, Note_on_c, 0, 66, 70
1, 256356, Note_on_c, 0, 52, 50
1, 256424, Note_off_c, 0, 52, 64
1, 256658, Note_on_c, 0, 68, 53
1, 256678, Note_on_c, 0, 56, 29
1, 256690, Note_on_c, 0, 51, 32
1, 256708, Note_on_c, 0, 64, 42
1, 256738, Control_c, 0, 64, 0
1, 256784, Note_off_c, 0, 66, 64
1, 257118, Note_on_c, 0, 37, 25
1, 257168, Control_c, 0, 64, 127
1, 257298, Note_off_c, 0, 51, 64
1, 257354, Note_on_c, 0, 44, 38
1, 257360, Note_off_c, 0, 37, 64
1, 257504, Note_off_c, 0, 44, 64
1, 257568, Note_on_c, 0, 49, 35
1, 257770, Note_off_c, 0, 49, 64
1, 257784, Note_on_c, 0, 48, 39
1, 257798, Control_c, 0, 64, 0
1, 257920, Control_c, 0, 64, 127
1, 257966, Note_on_c, 0, 51, 45
1, 258002, Note_off_c, 0, 48, 64
1, 258028, Control_c, 0, 64, 0
1, 258110, Note_off_c, 0, 51, 64
1, 258130, Note_on_c, 0, 49, 49
1, 258182, Control_c, 0, 64, 127
1, 258260, Control_c, 0, 64, 0
1, 258294, Note_off_c, 0, 49, 64
1, 258330, Note_on_c, 0, 52, 48
1, 258428, Control_c, 0, 64, 127
1, 258460, Note_off_c, 0, 56, 64
1, 258504, Note_on_c, 0, 51, 47
1, 258512, Note_off_c, 0, 52, 64
1, 258700, Note_on_c, 0, 54, 57
1, 258748, Note_off_c, 0, 51, 64
1, 258810, Note_off_c, 0, 64, 64
1, 258886, Note_on_c, 0, 52, 60
1, 258896, Note_off_c, 0, 54, 64
1, 259058, Note_off_c, 0, 52, 64
1, 259130, Note_on_c, 0, 57, 36
1, 259160, Note_on_c, 0, 64, 65
1, 259174, Note_on_c, 0, 61, 25
1, 259304, Control_c, 0, 64, 0
1, 259356, Note_off_c, 0, 68, 64
1, 259440, Note_on_c, 0, 56, 42
1, 259456, Note_off_c, 0, 57, 64
1, 259488, Control_c, 0, 64, 127
1, 259674, Note_on_c, 0, 66, 59
1, 259698, Note_off_c, 0, 56, 64
1, 259698, Note_on_c, 0, 54, 38
1, 259718, Note_off_c, 0, 64, 64
1, 259750, Note_off_c, 0, 61, 64
1, 259872, Note_off_c, 0, 66, 64
1, 259966, Note_off_c, 0, 54, 64
1, 260038, Note_on_c, 0, 52, 38
1, 260158, Note_on_c, 0, 68, 62
1, 260182, Note_on_c, 0, 59, 43
1, 260228, Note_on_c, 0, 64, 7
1, 260246, Note_off_c, 0, 59, 64
1, 260268, Note_off_c, 0, 52, 64
1, 260294, Note_off_c, 0, 64, 64
1, 260318, Note_off_c, 0, 68, 64
1, 260412, Note_on_c, 0, 68, 31
1, 260432, Note_on_c, 0, 58, 38
1, 260442, Note_on_c, 0, 64, 18
1, 260462, Note_on_c, 0, 42, 26
1, 260624, Control_c, 0, 64, 0
1, 260860, Note_on_c, 0, 48, 24
1, 260870, Control_c, 0, 64, 127
1, 261038, Note_off_c, 0, 48, 64
1, 261062, Note_on_c, 0, 49, 37
1, 261178, Note_off_c, 0, 42, 64
1, 261190, Note_off_c, 0, 49, 64
1, 261260, Note_on_c, 0, 52, 48
1, 261414, Note_on_c, 0, 51, 46
1, 261424, Note_off_c, 0, 52, 64
1, 261586, Note_on_c, 0, 54, 66
1, 261634, Note_off_c, 0, 51, 64
1, 261710, Note_off_c, 0, 58, 64
1, 261744, Note_off_c, 0, 54, 64
1, 261776, Note_on_c, 0, 52, 62
1, 261864, Note_off_c, 0, 64, 64
1, 261944, Note_off_c, 0, 52, 64
1, 262012, Note_on_c, 0, 63, 62
1, 262014, Note_on_c, 0, 66, 61
1, 262028, Note_on_c, 0, 56, 35
1, 262148, Note_off_c, 0, 68, 64
1, 262422, Note_on_c, 0, 49, 49
1, 262546, Control_c, 0, 64, 0
1, 262612, Note_on_c, 0, 51, 59
1, 262676, Note_off_c, 0, 56, 64
1, 262716, Control_c, 0, 64, 127
1, 262792, Note_on_c, 0, 54, 66
1, 262878, Note_off_c, 0, 51, 64
1, 262942, Note_off_c, 0, 54, 64
1, 262954, Note_on_c, 0, 52, 71
1, 263062, Note_off_c, 0, 49, 64
1, 263084, Note_off_c, 0, 52, 64
1, 263098, Note_off_c, 0, 63, 64
1, 263130, Note_on_c, 0, 56, 58
1, 263133, Note_on_c, 0, 64, 85
1, 263136, Note_on_c, 0, 61, 53
1, 263182, Note_off_c, 0, 66, 64
1, 263290, Note_off_c, 0, 64, 64
1, 263322, Note_on_c, 0, 54, 57
1, 263364, Note_off_c, 0, 56, 64
1, 263384, Note_off_c, 0, 54, 64
1, 263480, Note_on_c, 0, 57, 51
1, 263522, Note_on_c, 0, 73, 75
1, 263542, Note_on_c, 0, 52, 32
1, 263545, Control_c, 0, 64, 0
1, 263556, Note_on_c, 0, 66, 36
1, 263630, Note_off_c, 0, 61, 64
1, 263738, Note_on_c, 0, 51, 54
1, 263754, Note_off_c, 0, 52, 64
1, 263836, Control_c, 0, 64, 127
1, 263934, Note_off_c, 0, 51, 64
1, 263956, Note_on_c, 0, 49, 51
1, 264134, Note_off_c, 0, 49, 64
1, 264166, Note_on_c, 0, 52, 55
1, 264378, Note_off_c, 0, 52, 64
1, 264424, Note_on_c, 0, 51, 41
1, 264452, Note_on_c, 0, 71, 79
1, 264550, Note_off_c, 0, 73, 64
1, 264620, Control_c, 0, 64, 0
1, 264642, Note_on_c, 0, 49, 49
1, 264674, Note_off_c, 0, 51, 64
1, 264790, Control_c, 0, 64, 127
1, 264830, Note_off_c, 0, 49, 64
1, 264836, Note_on_c, 0, 47, 48
1, 264916, Note_off_c, 0, 66, 64
1, 264926, Note_off_c, 0, 47, 64
1, 264936, Note_off_c, 0, 71, 64
1, 265018, Note_on_c, 0, 51, 50
1, 265032, Note_off_c, 0, 57, 64
1, 265144, Note_off_c, 0, 51, 64
1, 265206, Note_on_c, 0, 57, 48
1, 265216, Note_on_c, 0, 64, 74
1, 265224, Note_on_c, 0, 49, 39
1, 265390, Note_off_c, 0, 49, 64
1, 265404, Note_on_c, 0, 47, 49
1, 265434, Control_c, 0, 64, 0
1, 265592, Note_off_c, 0, 47, 64
1, 265608, Note_on_c, 0, 46, 38
1, 265618, Control_c, 0, 64, 127
1, 265780, Note_off_c, 0, 46, 64
1, 265836, Note_on_c, 0, 49, 34
1, 265916, Note_off_c, 0, 49, 64
1, 266070, Note_on_c, 0, 47, 21
1, 266130, Note_on_c, 0, 66, 50
1, 266156, Control_c, 0, 64, 0
1, 266158, Note_on_c, 0, 63, 40
1, 266206, Note_off_c, 0, 64, 64
1, 266356, Control_c, 0, 64, 127
1, 266389, Note_on_c, 0, 42, 26
1, 266450, Note_off_c, 0, 57, 64
1, 266524, Note_off_c, 0, 47, 64
1, 266638, Note_off_c, 0, 42, 64
1, 266646, Note_on_c, 0, 68, 48
1, 266676, Note_on_c, 0, 37, 19
1, 266762, Note_off_c, 0, 63, 64
1, 266842, Note_off_c, 0, 68, 64
1, 266876, Note_off_c, 0, 37, 64
1, 266950, Note_off_c, 0, 66, 64
1, 266990, Note_on_c, 0, 71, 52
1, 267054, Note_on_c, 0, 35, 41
1, 267062, Note_on_c, 0, 69, 34
1, 267068, Note_off_c, 0, 71, 64
1, 267130, Note_off_c, 0, 35, 64
1, 267260, Note_off_c, 0, 69, 64
1, 267450, Note_on_c, 0, 69, 31
1, 267464, Note_on_c, 0, 61, 32
1, 267488, Note_on_c, 0, 64, 29
1, 267512, Note_on_c, 0, 28, 24
1, 267538, Control_c, 0, 64, 0
1, 267878, Control_c, 0, 64, 127
1, 268106, Note_off_c, 0, 61, 64
1, 268112, Note_off_c, 0, 28, 64
1, 268252, Note_off_c, 0, 64, 64
1, 268255, Note_on_c, 0, 68, 36
1, 268290, Note_on_c, 0, 59, 26
1, 268328, Note_off_c, 0, 69, 64
1, 268536, Note_on_c, 0, 47, 22
1, 268764, Note_on_c, 0, 51, 28
1, 268767, Note_off_c, 0, 47, 64
1, 268874, Note_off_c, 0, 51, 64
1, 268948, Note_on_c, 0, 49, 30
1, 269028, Note_off_c, 0, 59, 64
1, 269090, Note_off_c, 0, 49, 64
1, 269154, Note_on_c, 0, 52, 47
1, 269318, Note_off_c, 0, 52, 64
1, 269326, Note_on_c, 0, 51, 50
1, 269458, Note_off_c, 0, 68, 64
1, 269538, Note_on_c, 0, 54, 64
1, 269600, Note_off_c, 0, 51, 64
1, 269718, Note_on_c, 0, 61, 60
1, 269724, Note_off_c, 0, 54, 64
1, 269746, Note_on_c, 0, 52, 58
1, 269920, Note_off_c, 0, 52, 64
1, 269922, Note_on_c, 0, 56, 42
1, 269928, Note_on_c, 0, 64, 73
1, 269962, Note_off_c, 0, 61, 64
1, 270126, Note_on_c, 0, 63, 78
1, 270128, Note_on_c, 0, 54, 61
1, 270168, Note_off_c, 0, 64, 64
1, 270194, Note_off_c, 0, 56, 64
1, 270346, Note_off_c, 0, 54, 64
1, 270358, Note_on_c, 0, 57, 45
1, 270404, Note_on_c, 0, 66, 65
1, 270412, Control_c, 0, 64, 0
1, 270458, Note_off_c, 0, 63, 64
1, 270566, Control_c, 0, 64, 127
1, 270640, Note_on_c, 0, 64, 78
1, 270644, Note_off_c, 0, 66, 64
1, 270650, Note_on_c, 0, 56, 47
1, 270662, Note_off_c, 0, 57, 64
1, 270682, Note_off_c, 0, 64, 64
1, 270754, Note_on_c, 0, 64, 73
1, 270892, Note_on_c, 0, 68, 56
1, 270930, Note_off_c, 0, 56, 64
1, 270940, Note_on_c, 0, 54, 55
1, 271058, Control_c, 0, 64, 0
1, 271092, Note_on_c, 0, 76, 79
1, 271182, Note_off_c, 0, 64, 64
1, 271242, Control_c, 0, 64, 127
1, 271302, Note_off_c, 0, 68, 64
1, 271312, Note_off_c, 0, 76, 64
1, 271334, Note_off_c, 0, 54, 64
1, 271410, Note_on_c, 0, 52, 56
1, 271512, Note_on_c, 0, 76, 94
1, 271596, Note_off_c, 0, 76, 64
1, 271610, Note_off_c, 0, 52, 64
1, 271636, Note_on_c, 0, 64, 45
1, 271704, Note_on_c, 0, 68, 50
1, 271776, Note_on_c, 0, 51, 60
1, 271842, Note_on_c, 0, 76, 85
1, 271948, Control_c, 0, 64, 0
1, 272150, Control_c, 0, 64, 127
1, 272274, Note_on_c, 0, 37, 44
1, 272302, Control_c, 0, 64, 0
1, 272422, Note_off_c, 0, 64, 64
1, 272456, Control_c, 0, 64, 127
1, 272484, Note_off_c, 0, 68, 64
1, 272494, Note_off_c, 0, 51, 64
1, 272554, Note_on_c, 0, 44, 50
1, 272616, Note_off_c, 0, 37, 64
1, 272794, Note_off_c, 0, 44, 64
1, 272836, Note_on_c, 0, 51, 41
1, 272842, Note_on_c, 0, 78, 73
1, 272860, Note_off_c, 0, 76, 64
1, 272954, Note_off_c, 0, 78, 64
1, 273144, Note_off_c, 0, 51, 64
1, 273156, Note_on_c, 0, 49, 40
1, 273158, Note_on_c, 0, 76, 76
1, 273394, Note_off_c, 0, 49, 64
1, 273422, Note_on_c, 0, 73, 67
1, 273432, Note_on_c, 0, 52, 64
1, 273494, Note_off_c, 0, 76, 64
1, 273668, Note_on_c, 0, 68, 77
1, 273674, Note_off_c, 0, 73, 64
1, 273688, Note_off_c, 0, 52, 64
1, 273691, Note_on_c, 0, 51, 55
1, 273724, Note_off_c, 0, 68, 64
1, 273996, Note_on_c, 0, 68, 67
1, 274004, Note_on_c, 0, 54, 49
1, 274026, Note_on_c, 0, 60, 39
1, 274150, Note_off_c, 0, 51, 64
1, 274292, Note_on_c, 0, 61, 72
1, 274318, Note_off_c, 0, 54, 64
1, 274318, Note_on_c, 0, 52, 63
1, 274364, Note_off_c, 0, 60, 64
1, 274556, Note_on_c, 0, 64, 76
1, 274556, Note_on_c, 0, 56, 51
1, 274580, Note_off_c, 0, 52, 64
1, 274606, Note_off_c, 0, 61, 64
1, 274788, Note_on_c, 0, 63, 78
1, 274788, Note_on_c, 0, 54, 61
1, 274806, Note_off_c, 0, 64, 64
1, 274890, Note_off_c, 0, 56, 64
1, 275004, Note_on_c, 0, 61, 59
1, 275012, Note_on_c, 0, 66, 57
1, 275018, Note_off_c, 0, 54, 64
1, 275032, Note_on_c, 0, 57, 41
1, 275048, Note_off_c, 0, 63, 64
1, 275068, Control_c, 0, 64, 0
1, 275132, Note_off_c, 0, 68, 64
1, 275276, Note_on_c, 0, 64, 65
1, 275276, Note_on_c, 0, 56, 44
1, 275282, Control_c, 0, 64, 127
1, 275296, Note_off_c, 0, 57, 64
1, 275314, Note_off_c, 0, 66, 64
1, 275528, Note_on_c, 0, 66, 52
1, 275548, Note_off_c, 0, 64, 64
1, 275552, Note_off_c, 0, 56, 64
1, 275552, Note_on_c, 0, 54, 47
1, 275762, Note_off_c, 0, 54, 64
1, 275778, Note_off_c, 0, 66, 64
1, 275781, Note_on_c, 0, 68, 61
1, 275842, Note_on_c, 0, 52, 38
1, 275850, Note_off_c, 0, 61, 64
1, 275924, Note_on_c, 0, 59, 56
1, 275956, Note_off_c, 0, 68, 64
1, 276000, Note_off_c, 0, 59, 64
1, 276090, Note_on_c, 0, 59, 59
1, 276152, Note_off_c, 0, 52, 64
1, 276186, Note_on_c, 0, 42, 29
1, 276244, Note_on_c, 0, 64, 54
1, 276374, Control_c, 0, 64, 0
1, 276382, Note_on_c, 0, 68, 55
1, 276666, Control_c, 0, 64, 127
1, 276762, Note_on_c, 0, 48, 24
1, 276814, Note_on_c, 0, 58, 38
1, 276836, Control_c, 0, 64, 0
1, 276886, Note_off_c, 0, 59, 64
1, 277038, Note_on_c, 0, 49, 42
1, 277040, Note_off_c, 0, 48, 64
1, 277128, Control_c, 0, 64, 127
1, 277224, Note_off_c, 0, 42, 64
1, 277258, Note_off_c, 0, 49, 64
1, 277261, Note_off_c, 0, 64, 64
1, 277286, Note_on_c, 0, 52, 47
1, 277468, Note_off_c, 0, 52, 64
1, 277490, Note_on_c, 0, 51, 38
1, 277714, Note_on_c, 0, 70, 46
1, 277722, Note_on_c, 0, 54, 48
1, 277742, Note_off_c, 0, 68, 64
1, 277752, Note_off_c, 0, 51, 64
1, 277926, Note_off_c, 0, 54, 64
1, 277958, Note_on_c, 0, 52, 48
1, 277958, Note_on_c, 0, 68, 60
1, 278216, Note_off_c, 0, 58, 64
1, 278242, Note_off_c, 0, 70, 64
1, 278242, Note_on_c, 0, 66, 48
1, 278248, Note_on_c, 0, 56, 44
1, 278256, Note_off_c, 0, 52, 64
1, 278256, Note_on_c, 0, 63, 44
1, 278472, Note_off_c, 0, 68, 64
1, 278686, Note_on_c, 0, 49, 40
1, 278910, Note_on_c, 0, 51, 51
1, 278938, Note_off_c, 0, 56, 64
1, 279122, Note_on_c, 0, 54, 64
1, 279200, Note_off_c, 0, 63, 64
1, 279212, Note_off_c, 0, 51, 64
1, 279318, Note_off_c, 0, 54, 64
1, 279342, Note_on_c, 0, 52, 58
1, 279350, Note_off_c, 0, 49, 64
1, 279502, Note_off_c, 0, 52, 64
1, 279548, Note_on_c, 0, 56, 47
1, 279548, Note_on_c, 0, 64, 75
1, 279554, Note_on_c, 0, 61, 61
1, 279702, Note_off_c, 0, 66, 64
1, 279802, Note_off_c, 0, 56, 64
1, 279812, Note_on_c, 0, 54, 62
1, 279882, Note_off_c, 0, 61, 64
1, 279990, Note_off_c, 0, 54, 64
1, 280120, Note_on_c, 0, 66, 64
1, 280128, Note_on_c, 0, 57, 50
1, 280140, Note_on_c, 0, 60, 55
1, 280148, Note_on_c, 0, 52, 66
1, 280200, Control_c, 0, 64, 0
1, 280302, Note_off_c, 0, 64, 64
1, 280438, Note_on_c, 0, 51, 59
1, 280466, Note_off_c, 0, 52, 64
1, 280476, Control_c, 0, 64, 127
1, 280708, Control_c, 0, 64, 0
1, 280732, Note_on_c, 0, 50, 71
1, 280740, Note_off_c, 0, 51, 64
1, 280922, Control_c, 0, 64, 127
1, 280990, Note_on_c, 0, 51, 69
1, 280998, Note_off_c, 0, 50, 64
1, 281068, Note_off_c, 0, 57, 64
1, 281094, Note_off_c, 0, 66, 64
1, 281222, Note_off_c, 0, 51, 64
1, 281224, Note_on_c, 0, 68, 73
1, 281238, Note_on_c, 0, 65, 52
1, 281238, Note_on_c, 0, 59, 58
1, 281250, Note_on_c, 0, 50, 52
1, 281306, Note_off_c, 0, 60, 64
1, 281322, Control_c, 0, 64, 0
1, 281506, Note_on_c, 0, 49, 55
1, 281534, Note_off_c, 0, 50, 64
1, 281568, Control_c, 0, 64, 127
1, 281780, Note_off_c, 0, 49, 64
1, 281782, Control_c, 0, 64, 0
1, 281784, Note_on_c, 0, 48, 45
1, 282014, Control_c, 0, 64, 127
1, 282108, Note_off_c, 0, 48, 64
1, 282110, Note_on_c, 0, 49, 45
1, 282146, Note_off_c, 0, 68, 64
1, 282164, Note_off_c, 0, 59, 64
1, 282428, Note_on_c, 0, 69, 48
1, 282442, Note_off_c, 0, 49, 64
1, 282442, Note_on_c, 0, 57, 33
1, 282444, Control_c, 0, 64, 0
1, 282446, Note_on_c, 0, 64, 49
1, 282470, Note_on_c, 0, 48, 31
1, 282486, Note_off_c, 0, 65, 64
1, 282720, Control_c, 0, 64, 127
1, 282782, Control_c, 0, 64, 0
1, 282782, Note_on_c, 0, 41, 34
1, 282785, Note_on_c, 0, 65, 40
1, 282794, Note_off_c, 0, 48, 64
1, 282822, Note_off_c, 0, 64, 64
1, 282980, Control_c, 0, 64, 127
1, 283170, Note_off_c, 0, 41, 64
1, 283170, Note_on_c, 0, 60, 30
1, 283176, Note_on_c, 0, 45, 25
1, 283274, Control_c, 0, 64, 0
1, 283306, Note_off_c, 0, 65, 64
1, 283458, Control_c, 0, 64, 127
1, 283604, Note_on_c, 0, 64, 36
1, 283624, Note_off_c, 0, 45, 64
1, 283632, Note_on_c, 0, 36, 22
1, 283740, Note_off_c, 0, 60, 64
1, 283874, Note_off_c, 0, 57, 64
1, 284192, Note_off_c, 0, 36, 64
1, 284218, Note_on_c, 0, 63, 29
1, 284226, Control_c, 0, 64, 0
1, 284242, Note_on_c, 0, 57, 17
1, 284284, Note_on_c, 0, 35, 23
1, 284329, Note_off_c, 0, 64, 64
1, 284518, Control_c, 0, 64, 127
1, 284560, Note_off_c, 0, 57, 64
1, 284674, Note_off_c, 0, 69, 64
1, 284692, Note_off_c, 0, 63, 64
1, 284998, Note_off_c, 0, 35, 64
1, 285022, Note_on_c, 0, 47, 7
1, 285098, Note_on_c, 0, 73, 39
1, 285378, Note_off_c, 0, 47, 64
1, 285682, Note_on_c, 0, 54, 26
1, 286540, Note_off_c, 0, 54, 64
1, 286572, Note_on_c, 0, 57, 14
1, 286766, Note_off_c, 0, 57, 64
1, 286784, Note_on_c, 0, 63, 41
1, 287020, Note_off_c, 0, 73, 64
1, 287202, Note_off_c, 0, 63, 64
1, 287554, Note_on_c, 0, 56, 28
1, 287724, Note_on_c, 0, 28, 16
1, 288086, Note_on_c, 0, 63, 42
1, 288572, Note_on_c, 0, 40, 31
1, 288604, Control_c, 0, 64, 0
1, 288730, Note_off_c, 0, 28, 64
1, 288742, Control_c, 0, 64, 127
1, 289140, Note_on_c, 0, 47, 29
1, 289520, Note_off_c, 0, 40, 64
1, 289586, Note_on_c, 0, 52, 39
1, 289594, Note_off_c, 0, 56, 64
1, 289606, Note_off_c, 0, 47, 64
1, 289992, Note_on_c, 0, 56, 39
1, 290072, Note_off_c, 0, 52, 64
1, 290364, Note_on_c, 0, 59, 44
1, 290510, Note_off_c, 0, 63, 64
1, 290754, Note_on_c, 0, 64, 53
1, 290836, Note_off_c, 0, 59, 64
1, 291202, Note_on_c, 0, 66, 43
1, 291274, Note_off_c, 0, 64, 64
1, 291558, Note_on_c, 0, 69, 32
1, 291600, Note_off_c, 0, 66, 64
1, 291868, Note_on_c, 0, 68, 43
1, 291886, Note_off_c, 0, 69, 64
1, 292150, Note_off_c, 0, 68, 64
1, 292174, Note_on_c, 0, 73, 36
1, 292458, Note_off_c, 0, 73, 64
1, 292478, Note_on_c, 0, 71, 46
1, 292566, Note_off_c, 0, 71, 64
1, 292786, Note_on_c, 0, 76, 34
1, 292830, Note_off_c, 0, 56, 64
1, 293082, Note_on_c, 0, 78, 50
1, 293124, Note_off_c, 0, 76, 64
1, 293382, Note_on_c, 0, 80, 49
1, 293406, Note_off_c, 0, 78, 64
1, 293688, Note_off_c, 0, 80, 64
1, 293706, Note_on_c, 0, 83, 60
1, 294294, Note_off_c, 0, 83, 64
1, 294316, Note_on_c, 0, 92, 31
1, 295524, Note_off_c, 0, 92, 64
1, 296290, Note_on_c, 0, 71, 89
1, 297174, Note_off_c, 0, 71, 64
1, 297254, Note_on_c, 0, 71, 87
1, 298272, Note_off_c, 0, 71, 64
1, 298374, Note_on_c, 0, 71, 72
1, 298562, Control_c, 0, 64, 0
1, 299006, Control_c, 0, 64, 127
1, 299678, Note_on_c, 0, 47, 19
1, 299744, Note_on_c, 0, 54, 36
1, 299846, Note_on_c, 0, 59, 30
1, 299864, Note_on_c, 0, 63, 45
1, 300678, Note_on_c, 0, 69, 42
1, 300912, Note_off_c, 0, 71, 64
1, 301156, Note_on_c, 0, 68, 59
1, 301170, Note_off_c, 0, 69, 64
1, 301258, Note_off_c, 0, 63, 64
1, 301394, Note_off_c, 0, 59, 64
1, 301440, Note_off_c, 0, 54, 64
1, 301446, Note_off_c, 0, 68, 64
1, 301666, Note_on_c, 0, 68, 51
1, 301692, Note_on_c, 0, 59, 32
1, 301694, Note_on_c, 0, 64, 36
1, 301728, Note_on_c, 0, 52, 37
1, 301830, Note_off_c, 0, 47, 64
1, 301972, Control_c, 0, 64, 0
1, 302510, Control_c, 0, 64, 127
1, 303158, Note_off_c, 0, 68, 64
1, 303200, Note_off_c, 0, 59, 64
1, 303364, Note_off_c, 0, 64, 64
1, 303612, Note_off_c, 0, 52, 64
1, 303686, Note_on_c, 0, 68, 68
1, 303702, Note_on_c, 0, 61, 46
1, 303705, Note_on_c, 0, 57, 39
1, 303716, Note_on_c, 0, 45, 41
1, 304230, Control_c, 0, 64, 0
1, 304370, Control_c, 0, 64, 127
1, 304492, Note_off_c, 0, 57, 64
1, 304556, Note_off_c, 0, 68, 64
1, 304572, Note_off_c, 0, 61, 64
1, 305104, Note_on_c, 0, 68, 71
1, 305146, Note_off_c, 0, 45, 64
1, 305268, Note_on_c, 0, 40, 79
1, 305362, Note_on_c, 0, 52, 67
1, 305492, Note_on_c, 0, 56, 70
1, 305518, Note_off_c, 0, 68, 64
1, 305634, Note_on_c, 0, 61, 79
1, 305694, Note_off_c, 0, 52, 64
1, 305974, Note_on_c, 0, 68, 76
1, 306322, Note_on_c, 0, 52, 2
1, 308236, Note_on_c, 0, 59, 46
1, 308380, Control_c, 0, 64, 0
1, 308420, Note_off_c, 0, 61, 64
1, 308580, Control_c, 0, 64, 127
1, 308668, Note_off_c, 0, 68, 64
1, 308748, Note_on_c, 0, 68, 32
1, 309226, Note_off_c, 0, 68, 64
1, 309606, Note_on_c, 0, 66, 30
1, 310580, Note_off_c, 0, 66, 64
1, 311572, Note_on_c, 0, 64, 28
1, 311796, Note_off_c, 0, 64, 64
1, 312082, Note_on_c, 0, 64, 34
1, 312494, Note_off_c, 0, 59, 64
1, 312538, Note_off_c, 0, 56, 64
1, 313074, Note_off_c, 0, 52, 64
1, 314770, Note_on_c, 0, 52, 2
1, 314842, Note_on_c, 0, 47, 2
1, 315274, Note_off_c, 0, 52, 64
1, 315370, Note_off_c, 0, 47, 64
1, 315518, Note_off_c, 0, 40, 64
1, 315778, Note_off_c, 0, 64, 64
1, 318720, Control_c, 0, 64, 0
1, 318720, End_track
0, 0, End_of_file
