0, 0, Header, 0, 1, 480
1, 0, Start_track
1, 0, SMPTE_offset, 96, 0, 0, 0, 0
1, 0, Time_signature, 4, 2, 24, 8
1, 0, Key_signature, 0, "major"
1, 0, Tempo, 500000
1, 0, Control_c, 0, 64, 127
1, 0, Control_c, 0, 64, 0
1, 0, Control_c, 0, 64, 127
1, 0, Note_on_c, 0, 37, 36
1, 210, Note_off_c, 0, 37, 64
1, 570, Note_on_c, 0, 65, 17
1, 804, Note_off_c, 0, 65, 64
1, 894, Note_on_c, 0, 56, 21
1, 1152, Note_on_c, 0, 65, 36
1, 1242, Note_off_c, 0, 56, 64
1, 1352, Note_off_c, 0, 65, 64
1, 1410, Note_on_c, 0, 61, 35
1, 1580, Note_off_c, 0, 61, 64
1, 1678, Note_on_c, 0, 53, 51
1, 1732, Note_off_c, 0, 53, 64
1, 1944, Note_on_c, 0, 49, 42
1, 2048, Note_off_c, 0, 49, 64
1, 2202, Note_on_c, 0, 65, 39
1, 2294, Note_off_c, 0, 65, 64
1, 2488, Note_on_c, 0, 56, 28
1, 2622, Note_off_c, 0, 56, 64
1, 2784, Note_on_c, 0, 65, 22
1, 2904, Note_off_c, 0, 65, 64
1, 3074, Note_on_c, 0, 61, 23
1, 3180, Note_off_c, 0, 61, 64
1, 3382, Note_on_c, 0, 53, 34
1, 3442, Note_off_c, 0, 53, 64
1, 3760, Note_on_c, 0, 77, 85
1, 3778, Note_on_c, 0, 49, 22
1, 3854, Note_off_c, 0, 49, 64
1, 4138, Note_on_c, 0, 65, 10
1, 4318, Note_off_c, 0, 65, 64
1, 4420, Note_on_c, 0, 56, 20
1, 4614, Note_off_c, 0, 56, 64
1, 4736, Note_on_c, 0, 65, 23
1, 4838, Note_off_c, 0, 65, 64
1, 4990, Note_on_c, 0, 61, 25
1, 5102, Note_off_c, 0, 61, 64
1, 5292, Note_on_c, 0, 53, 26
1, 5354, Note_off_c, 0, 53, 64
1, 5636, Note_on_c, 0, 75, 61
1, 5680, Note_on_c, 0, 49, 24
1, 5754, Note_off_c, 0, 49, 64
1, 5894, Note_off_c, 0, 77, 64
1, 6076, Note_on_c, 0, 65, 15
1, 6170, Note_off_c, 0, 65, 64
1, 6360, Note_on_c, 0, 73, 44
1, 6390, Note_on_c, 0, 56, 22
1, 6546, Note_off_c, 0, 56, 64
1, 6566, Note_off_c, 0, 75, 64
1, 6678, Note_on_c, 0, 65, 9
1, 6802, Note_off_c, 0, 65, 64
1, 6920, Note_on_c, 0, 61, 23
1, 7042, Note_off_c, 0, 61, 64
1, 7260, Note_on_c, 0, 65, 34
1, 7304, Note_on_c, 0, 53, 14
1, 7402, Note_off_c, 0, 53, 64
1, 7626, Note_on_c, 0, 68, 43
1, 7632, Note_off_c, 0, 65, 64
1, 7652, Note_on_c, 0, 49, 27
1, 7736, Note_off_c, 0, 49, 64
1, 7784, Note_off_c, 0, 73, 64
1, 7978, Note_on_c, 0, 65, 22
1, 8126, Note_off_c, 0, 65, 64
1, 8244, Note_on_c, 0, 56, 19
1, 8496, Note_off_c, 0, 56, 64
1, 8542, Note_on_c, 0, 65, 16
1, 8644, Note_off_c, 0, 65, 64
1, 8814, Note_on_c, 0, 61, 31
1, 8902, Note_off_c, 0, 61, 64
1, 9102, Note_on_c, 0, 53, 35
1, 9166, Note_off_c, 0, 53, 64
1, 9392, Note_on_c, 0, 49, 30
1, 9496, Note_off_c, 0, 49, 64
1, 9652, Note_on_c, 0, 65, 42
1, 9774, Note_off_c, 0, 65, 64
1, 9882, Note_on_c, 0, 73, 72
1, 9912, Note_on_c, 0, 56, 28
1, 9952, Note_off_c, 0, 68, 64
1, 10010, Note_off_c, 0, 56, 64
1, 10144, Note_on_c, 0, 65, 31
1, 10260, Note_off_c, 0, 65, 64
1, 10364, Note_on_c, 0, 77, 91
1, 10392, Note_on_c, 0, 61, 37
1, 10436, Note_off_c, 0, 73, 64
1, 10474, Note_off_c, 0, 61, 64
1, 10666, Note_on_c, 0, 53, 33
1, 10732, Note_off_c, 0, 53, 64
1, 10988, Note_on_c, 0, 82, 76
1, 11016, Note_on_c, 0, 49, 31
1, 11078, Note_off_c, 0, 77, 64
1, 11086, Control_c, 0, 64, 0
1, 11258, Note_off_c, 0, 49, 64
1, 11270, Control_c, 0, 64, 127
1, 11396, Note_on_c, 0, 65, 19
1, 11486, Note_off_c, 0, 65, 64
1, 11684, Note_on_c, 0, 56, 24
1, 11780, Note_off_c, 0, 56, 64
1, 11966, Note_on_c, 0, 65, 28
1, 12114, Note_off_c, 0, 65, 64
1, 12248, Note_on_c, 0, 61, 26
1, 12414, Note_off_c, 0, 61, 64
1, 12552, Note_on_c, 0, 53, 34
1, 12624, Note_off_c, 0, 53, 64
1, 12856, Note_on_c, 0, 49, 37
1, 13014, Note_off_c, 0, 49, 64
1, 13194, Note_on_c, 0, 80, 70
1, 13214, Note_on_c, 0, 65, 28
1, 13352, Note_off_c, 0, 65, 64
1, 13356, Note_off_c, 0, 82, 64
1, 13600, Note_on_c, 0, 76, 67
1, 13636, Note_on_c, 0, 56, 21
1, 13730, Note_off_c, 0, 56, 64
1, 13750, Note_off_c, 0, 80, 64
1, 13918, Note_on_c, 0, 77, 78
1, 13942, Note_on_c, 0, 65, 23
1, 13974, Note_off_c, 0, 76, 64
1, 14044, Note_off_c, 0, 65, 64
1, 14180, Note_off_c, 0, 77, 64
1, 14183, Note_on_c, 0, 72, 77
1, 14202, Note_on_c, 0, 61, 33
1, 14282, Note_off_c, 0, 61, 64
1, 14464, Note_on_c, 0, 73, 81
1, 14494, Note_on_c, 0, 53, 48
1, 14514, Note_off_c, 0, 72, 64
1, 14552, Note_off_c, 0, 53, 64
1, 14818, Note_on_c, 0, 69, 78
1, 14832, Note_on_c, 0, 37, 40
1, 14850, Control_c, 0, 64, 0
1, 14908, Note_off_c, 0, 73, 64
1, 15022, Note_off_c, 0, 37, 64
1, 15050, Control_c, 0, 64, 127
1, 15216, Note_on_c, 0, 66, 32
1, 15452, Note_off_c, 0, 66, 64
1, 15536, Note_on_c, 0, 57, 28
1, 15790, Note_off_c, 0, 57, 64
1, 15798, Note_on_c, 0, 66, 24
1, 15980, Note_off_c, 0, 66, 64
1, 16082, Note_on_c, 0, 63, 22
1, 16166, Note_off_c, 0, 63, 64
1, 16330, Note_on_c, 0, 54, 31
1, 16404, Note_off_c, 0, 54, 64
1, 16600, Note_on_c, 0, 49, 40
1, 16676, Note_off_c, 0, 49, 64
1, 16856, Note_on_c, 0, 66, 33
1, 17012, Note_off_c, 0, 66, 64
1, 17146, Note_on_c, 0, 57, 19
1, 17336, Note_off_c, 0, 57, 64
1, 17392, Note_on_c, 0, 66, 25
1, 17554, Note_off_c, 0, 66, 64
1, 17706, Note_on_c, 0, 63, 17
1, 17790, Note_off_c, 0, 63, 64
1, 18000, Note_on_c, 0, 54, 24
1, 18070, Note_off_c, 0, 54, 64
1, 18380, Note_on_c, 0, 70, 34
1, 18388, Note_on_c, 0, 49, 30
1, 18414, Control_c, 0, 64, 0
1, 18432, Note_off_c, 0, 69, 64
1, 18590, Note_off_c, 0, 49, 64
1, 18614, Control_c, 0, 64, 127
1, 18726, Note_on_c, 0, 66, 26
1, 18888, Note_off_c, 0, 66, 64
1, 19030, Note_on_c, 0, 58, 14
1, 19212, Note_off_c, 0, 58, 64
1, 19282, Note_on_c, 0, 66, 16
1, 19422, Note_off_c, 0, 66, 64
1, 19530, Note_on_c, 0, 63, 31
1, 19606, Note_off_c, 0, 63, 64
1, 19792, Note_on_c, 0, 54, 26
1, 19866, Note_off_c, 0, 70, 64
1, 19904, Note_off_c, 0, 54, 64
1, 20068, Note_on_c, 0, 49, 44
1, 20144, Note_off_c, 0, 49, 64
1, 20356, Note_on_c, 0, 84, 86
1, 20356, Note_on_c, 0, 66, 33
1, 20568, Note_off_c, 0, 66, 64
1, 20760, Note_on_c, 0, 82, 83
1, 20806, Note_on_c, 0, 58, 20
1, 20854, Note_off_c, 0, 84, 64
1, 21082, Note_on_c, 0, 77, 88
1, 21096, Note_on_c, 0, 66, 27
1, 21124, Note_off_c, 0, 82, 64
1, 21248, Note_off_c, 0, 66, 64
1, 21278, Note_off_c, 0, 58, 64
1, 21364, Note_on_c, 0, 80, 90
1, 21388, Note_on_c, 0, 63, 41
1, 21438, Note_off_c, 0, 77, 64
1, 21444, Note_off_c, 0, 63, 64
1, 21660, Note_on_c, 0, 78, 84
1, 21668, Note_on_c, 0, 54, 53
1, 21764, Note_off_c, 0, 54, 64
1, 21778, Note_off_c, 0, 80, 64
1, 22090, Note_on_c, 0, 48, 59
1, 22092, Note_on_c, 0, 77, 85
1, 22118, Control_c, 0, 64, 0
1, 22172, Note_off_c, 0, 78, 64
1, 22332, Note_off_c, 0, 48, 64
1, 22332, Control_c, 0, 64, 127
1, 22508, Note_on_c, 0, 66, 26
1, 22690, Note_off_c, 0, 66, 64
1, 22798, Note_on_c, 0, 57, 36
1, 23050, Note_on_c, 0, 66, 39
1, 23100, Note_off_c, 0, 57, 64
1, 23154, Note_off_c, 0, 66, 64
1, 23262, Note_on_c, 0, 75, 62
1, 23288, Note_on_c, 0, 63, 34
1, 23356, Note_off_c, 0, 63, 64
1, 23500, Note_off_c, 0, 77, 64
1, 23540, Note_on_c, 0, 54, 61
1, 23638, Note_off_c, 0, 54, 64
1, 23822, Note_on_c, 0, 46, 71
1, 23854, Control_c, 0, 64, 0
1, 24028, Note_on_c, 0, 77, 79
1, 24038, Control_c, 0, 64, 127
1, 24060, Note_off_c, 0, 46, 64
1, 24094, Note_off_c, 0, 75, 64
1, 24188, Note_on_c, 0, 66, 55
1, 24228, Note_on_c, 0, 75, 79
1, 24288, Note_off_c, 0, 77, 64
1, 24334, Note_on_c, 0, 74, 92
1, 24358, Note_off_c, 0, 75, 64
1, 24394, Note_off_c, 0, 66, 64
1, 24428, Note_on_c, 0, 75, 81
1, 24452, Note_on_c, 0, 58, 36
1, 24476, Note_off_c, 0, 74, 64
1, 24540, Note_on_c, 0, 77, 97
1, 24572, Note_off_c, 0, 75, 64
1, 24700, Note_on_c, 0, 66, 49
1, 24898, Note_off_c, 0, 66, 64
1, 24912, Note_on_c, 0, 63, 69
1, 25046, Note_on_c, 0, 78, 92
1, 25062, Note_off_c, 0, 63, 64
1, 25068, Note_off_c, 0, 77, 64
1, 25154, Note_off_c, 0, 78, 64
1, 25178, Note_off_c, 0, 58, 64
1, 25220, Note_on_c, 0, 54, 59
1, 25272, Note_off_c, 0, 54, 64
1, 25304, Note_on_c, 0, 78, 89
1, 25516, Note_on_c, 0, 45, 56
1, 25606, Control_c, 0, 64, 0
1, 25626, Note_on_c, 0, 90, 87
1, 25712, Note_off_c, 0, 78, 64
1, 25834, Note_off_c, 0, 45, 64
1, 25836, Control_c, 0, 64, 127
1, 26004, Note_on_c, 0, 66, 38
1, 26246, Note_off_c, 0, 66, 64
1, 26318, Note_on_c, 0, 57, 35
1, 26576, Note_on_c, 0, 66, 39
1, 26688, Note_on_c, 0, 87, 63
1, 26838, Note_off_c, 0, 90, 64
1, 26838, Note_off_c, 0, 66, 64
1, 26966, Note_on_c, 0, 85, 69
1, 27000, Note_on_c, 0, 61, 27
1, 27014, Note_off_c, 0, 87, 64
1, 27056, Note_off_c, 0, 57, 64
1, 27112, Note_off_c, 0, 61, 64
1, 27128, Note_off_c, 0, 85, 64
1, 27136, Note_on_c, 0, 81, 69
1, 27190, Note_off_c, 0, 81, 64
1, 27268, Note_on_c, 0, 78, 72
1, 27298, Note_on_c, 0, 51, 34
1, 27360, Note_off_c, 0, 51, 64
1, 27392, Note_on_c, 0, 75, 74
1, 27426, Note_off_c, 0, 78, 64
1, 27540, Note_on_c, 0, 72, 77
1, 27564, Note_on_c, 0, 44, 40
1, 27588, Control_c, 0, 64, 0
1, 27591, Note_off_c, 0, 75, 64
1, 27760, Note_off_c, 0, 44, 64
1, 27772, Control_c, 0, 64, 127
1, 27906, Note_on_c, 0, 73, 78
1, 27928, Note_on_c, 0, 66, 35
1, 27984, Note_off_c, 0, 72, 64
1, 28160, Note_off_c, 0, 73, 64
1, 28190, Note_off_c, 0, 66, 64
1, 28262, Note_on_c, 0, 74, 83
1, 28314, Note_on_c, 0, 56, 22
1, 28490, Note_off_c, 0, 74, 64
1, 28576, Note_on_c, 0, 75, 89
1, 28582, Note_on_c, 0, 66, 33
1, 28800, Note_off_c, 0, 75, 64
1, 28830, Note_off_c, 0, 66, 64
1, 28892, Note_on_c, 0, 77, 92
1, 28930, Note_on_c, 0, 60, 28
1, 29020, Note_off_c, 0, 60, 64
1, 29112, Note_off_c, 0, 77, 64
1, 29208, Note_off_c, 0, 56, 64
1, 29248, Note_on_c, 0, 78, 92
1, 29266, Note_on_c, 0, 51, 40
1, 29436, Note_off_c, 0, 51, 64
1, 29508, Note_off_c, 0, 78, 64
1, 29730, Note_on_c, 0, 79, 92
1, 29740, Note_on_c, 0, 37, 75
1, 29800, Control_c, 0, 64, 0
1, 30002, Note_off_c, 0, 37, 64
1, 30016, Control_c, 0, 64, 127
1, 30202, Note_on_c, 0, 64, 54
1, 30542, Note_off_c, 0, 64, 64
1, 30594, Note_on_c, 0, 55, 54
1, 30880, Note_off_c, 0, 55, 64
1, 30896, Note_on_c, 0, 64, 55
1, 31190, Note_off_c, 0, 64, 64
1, 31194, Note_on_c, 0, 58, 44
1, 31488, Note_on_c, 0, 80, 68
1, 31536, Note_off_c, 0, 58, 64
1, 31564, Note_off_c, 0, 79, 64
1, 31662, Note_on_c, 0, 49, 39
1, 31766, Note_off_c, 0, 49, 64
1, 31780, Note_on_c, 0, 82, 51
1, 31790, Note_off_c, 0, 80, 64
1, 31990, Note_on_c, 0, 80, 67
1, 32022, Note_off_c, 0, 82, 64
1, 32116, Note_on_c, 0, 37, 42
1, 32119, Control_c, 0, 64, 0
1, 32198, Note_on_c, 0, 77, 68
1, 32216, Note_off_c, 0, 80, 64
1, 32320, Control_c, 0, 64, 127
1, 32322, Note_off_c, 0, 37, 64
1, 32474, Note_off_c, 0, 77, 64
1, 32578, Note_on_c, 0, 65, 28
1, 32782, Note_off_c, 0, 65, 64
1, 32896, Note_on_c, 0, 56, 30
1, 33200, Note_on_c, 0, 65, 24
1, 33320, Note_off_c, 0, 56, 64
1, 33430, Note_off_c, 0, 65, 64
1, 33562, Note_on_c, 0, 61, 25
1, 33720, Note_off_c, 0, 61, 64
1, 33956, Note_on_c, 0, 53, 49
1, 34026, Note_off_c, 0, 53, 64
1, 34498, Note_on_c, 0, 77, 58
1, 34504, Note_on_c, 0, 46, 27
1, 34505, Note_on_c, 0, 73, 44
1, 34548, Control_c, 0, 64, 0
1, 34764, Control_c, 0, 64, 127
1, 34770, Note_off_c, 0, 46, 64
1, 34928, Note_on_c, 0, 65, 19
1, 35108, Note_off_c, 0, 65, 64
1, 35266, Note_on_c, 0, 78, 64
1, 35274, Note_on_c, 0, 75, 43
1, 35282, Note_off_c, 0, 77, 64
1, 35287, Note_off_c, 0, 73, 64
1, 35302, Note_on_c, 0, 58, 18
1, 35434, Note_off_c, 0, 58, 64
1, 35580, Note_on_c, 0, 65, 27
1, 35682, Note_off_c, 0, 65, 64
1, 35722, Note_off_c, 0, 75, 64
1, 35828, Note_on_c, 0, 61, 39
1, 35916, Note_off_c, 0, 61, 64
1, 36096, Note_on_c, 0, 70, 51
1, 36096, Note_on_c, 0, 73, 56
1, 36128, Note_off_c, 0, 78, 64
1, 36250, Note_off_c, 0, 70, 64
1, 36346, Control_c, 0, 64, 0
1, 36362, Note_on_c, 0, 75, 70
1, 36362, Note_on_c, 0, 46, 41
1, 36370, Note_on_c, 0, 72, 61
1, 36402, Note_off_c, 0, 73, 64
1, 36530, Control_c, 0, 64, 127
1, 36532, Note_off_c, 0, 46, 64
1, 36626, Note_on_c, 0, 65, 49
1, 36688, Note_off_c, 0, 65, 64
1, 36962, Note_off_c, 0, 72, 64
1, 36962, Note_on_c, 0, 77, 82
1, 36962, Note_on_c, 0, 73, 59
1, 36988, Note_on_c, 0, 57, 40
1, 37034, Note_off_c, 0, 75, 64
1, 37236, Note_on_c, 0, 65, 43
1, 37276, Note_off_c, 0, 73, 64
1, 37376, Note_off_c, 0, 65, 64
1, 37472, Note_on_c, 0, 69, 58
1, 37477, Note_on_c, 0, 72, 79
1, 37490, Note_on_c, 0, 63, 48
1, 37498, Note_off_c, 0, 77, 64
1, 37578, Note_off_c, 0, 63, 64
1, 37604, Note_off_c, 0, 57, 64
1, 37752, Note_off_c, 0, 72, 64
1, 37778, Note_on_c, 0, 53, 70
1, 37838, Note_off_c, 0, 53, 64
1, 38020, Note_on_c, 0, 75, 73
1, 38026, Note_on_c, 0, 72, 69
1, 38030, Note_on_c, 0, 46, 54
1, 38036, Control_c, 0, 64, 0
1, 38078, Note_off_c, 0, 69, 64
1, 38214, Note_off_c, 0, 46, 64
1, 38220, Control_c, 0, 64, 127
1, 38302, Note_on_c, 0, 65, 49
1, 38376, Note_off_c, 0, 65, 64
1, 38496, Note_off_c, 0, 72, 64
1, 38512, Note_on_c, 0, 70, 73
1, 38515, Note_on_c, 0, 73, 79
1, 38540, Note_on_c, 0, 58, 35
1, 38550, Note_off_c, 0, 75, 64
1, 38638, Note_off_c, 0, 70, 64
1, 38702, Note_off_c, 0, 73, 64
1, 38790, Note_on_c, 0, 65, 36
1, 38904, Note_on_c, 0, 82, 86
1, 38912, Note_on_c, 0, 73, 70
1, 38962, Note_off_c, 0, 73, 64
1, 39014, Note_off_c, 0, 82, 64
1, 39100, Note_on_c, 0, 82, 59
1, 39118, Note_on_c, 0, 73, 58
1, 39138, Note_on_c, 0, 61, 28
1, 39172, Control_c, 0, 64, 0
1, 39326, Control_c, 0, 64, 127
1, 39346, Note_off_c, 0, 73, 64
1, 39406, Note_on_c, 0, 80, 79
1, 39416, Note_off_c, 0, 65, 64
1, 39416, Note_on_c, 0, 72, 61
1, 39462, Note_off_c, 0, 82, 64
1, 39478, Note_off_c, 0, 72, 64
1, 39482, Note_off_c, 0, 58, 64
1, 39524, Note_off_c, 0, 61, 64
1, 39588, Note_on_c, 0, 53, 52
1, 39640, Note_off_c, 0, 53, 64
1, 39656, Note_on_c, 0, 70, 65
1, 39660, Note_on_c, 0, 78, 78
1, 39698, Note_off_c, 0, 80, 64
1, 39728, Note_off_c, 0, 70, 64
1, 39746, Note_off_c, 0, 78, 64
1, 39834, Note_on_c, 0, 70, 72
1, 39892, Note_on_c, 0, 41, 44
1, 39910, Control_c, 0, 64, 0
1, 39960, Note_on_c, 0, 77, 90
1, 40080, Control_c, 0, 64, 127
1, 40086, Note_off_c, 0, 41, 64
1, 40278, Note_on_c, 0, 65, 38
1, 40380, Note_off_c, 0, 65, 64
1, 40572, Note_on_c, 0, 69, 63
1, 40590, Note_on_c, 0, 60, 47
1, 40600, Note_off_c, 0, 70, 64
1, 40816, Note_on_c, 0, 70, 74
1, 40876, Note_off_c, 0, 69, 64
1, 40924, Note_off_c, 0, 77, 64
1, 40952, Note_on_c, 0, 65, 44
1, 40998, Note_on_c, 0, 71, 92
1, 41018, Note_off_c, 0, 70, 64
1, 41150, Note_off_c, 0, 71, 64
1, 41170, Note_on_c, 0, 63, 49
1, 41230, Note_on_c, 0, 77, 78
1, 41230, Note_on_c, 0, 72, 73
1, 41248, Control_c, 0, 64, 0
1, 41392, Note_off_c, 0, 72, 64
1, 41400, Control_c, 0, 64, 127
1, 41416, Note_off_c, 0, 77, 64
1, 41474, Note_on_c, 0, 77, 86
1, 41482, Note_off_c, 0, 60, 64
1, 41482, Note_on_c, 0, 73, 77
1, 41532, Note_off_c, 0, 65, 64
1, 41540, Note_off_c, 0, 63, 64
1, 41574, Note_off_c, 0, 73, 64
1, 41577, Note_off_c, 0, 77, 64
1, 41608, Note_on_c, 0, 57, 38
1, 41715, Note_on_c, 0, 77, 84
1, 41716, Note_on_c, 0, 75, 77
1, 41732, Note_off_c, 0, 57, 64
1, 41824, Note_off_c, 0, 75, 64
1, 41825, Note_off_c, 0, 77, 64
1, 41980, Note_on_c, 0, 77, 86
1, 41982, Note_on_c, 0, 73, 72
1, 41996, Note_on_c, 0, 46, 51
1, 41999, Control_c, 0, 64, 0
1, 42200, Control_c, 0, 64, 127
1, 42226, Note_off_c, 0, 46, 64
1, 42364, Note_on_c, 0, 65, 31
1, 42530, Note_off_c, 0, 65, 64
1, 42630, Note_on_c, 0, 78, 75
1, 42633, Note_on_c, 0, 75, 67
1, 42650, Note_on_c, 0, 58, 29
1, 42672, Note_off_c, 0, 73, 64
1, 42688, Note_off_c, 0, 77, 64
1, 42896, Note_on_c, 0, 65, 39
1, 43074, Note_off_c, 0, 65, 64
1, 43116, Note_off_c, 0, 75, 64
1, 43144, Note_on_c, 0, 61, 44
1, 43292, Note_on_c, 0, 75, 31
1, 43297, Note_off_c, 0, 61, 64
1, 43324, Note_off_c, 0, 58, 64
1, 43404, Note_on_c, 0, 70, 55
1, 43410, Note_on_c, 0, 73, 57
1, 43414, Note_off_c, 0, 78, 64
1, 43418, Note_on_c, 0, 53, 69
1, 43440, Note_off_c, 0, 75, 64
1, 43460, Note_off_c, 0, 70, 64
1, 43490, Note_off_c, 0, 53, 64
1, 43494, Note_off_c, 0, 73, 64
1, 43628, Note_on_c, 0, 73, 66
1, 43636, Note_on_c, 0, 70, 52
1, 43674, Note_off_c, 0, 73, 64
1, 43692, Note_off_c, 0, 70, 64
1, 43734, Note_on_c, 0, 46, 46
1, 43754, Note_on_c, 0, 77, 76
1, 43758, Note_on_c, 0, 73, 49
1, 43814, Control_c, 0, 64, 0
1, 43998, Control_c, 0, 64, 127
1, 44012, Note_off_c, 0, 46, 64
1, 44132, Note_on_c, 0, 65, 41
1, 44160, Note_off_c, 0, 73, 64
1, 44194, Note_off_c, 0, 77, 64
1, 44234, Note_on_c, 0, 75, 61
1, 44238, Note_off_c, 0, 65, 64
1, 44242, Note_on_c, 0, 72, 56
1, 44276, Note_off_c, 0, 75, 64
1, 44288, Note_off_c, 0, 72, 64
1, 44322, Note_on_c, 0, 77, 67
1, 44342, Note_on_c, 0, 72, 76
1, 44354, Note_on_c, 0, 75, 49
1, 44368, Note_on_c, 0, 57, 30
1, 44434, Note_off_c, 0, 77, 64
1, 44556, Note_on_c, 0, 70, 64
1, 44558, Note_off_c, 0, 72, 64
1, 44568, Note_on_c, 0, 73, 70
1, 44582, Note_off_c, 0, 75, 64
1, 44634, Note_on_c, 0, 65, 33
1, 44666, Note_off_c, 0, 70, 64
1, 44710, Note_on_c, 0, 72, 68
1, 44718, Note_on_c, 0, 75, 75
1, 44734, Note_off_c, 0, 73, 64
1, 44828, Note_on_c, 0, 63, 36
1, 44834, Note_off_c, 0, 72, 64
1, 44842, Control_c, 0, 64, 0
1, 44848, Note_off_c, 0, 75, 64
1, 44878, Note_on_c, 0, 77, 74
1, 44880, Note_on_c, 0, 73, 59
1, 45026, Control_c, 0, 64, 127
1, 45042, Note_off_c, 0, 65, 64
1, 45062, Note_off_c, 0, 63, 64
1, 45064, Note_off_c, 0, 77, 64
1, 45076, Note_off_c, 0, 73, 64
1, 45102, Note_off_c, 0, 57, 64
1, 45230, Note_on_c, 0, 53, 64
1, 45276, Note_off_c, 0, 53, 64
1, 45390, Note_on_c, 0, 72, 64
1, 45396, Note_on_c, 0, 69, 46
1, 45454, Note_off_c, 0, 72, 64
1, 45498, Note_off_c, 0, 69, 64
1, 45550, Control_c, 0, 64, 0
1, 45556, Note_on_c, 0, 75, 76
1, 45556, Note_on_c, 0, 72, 49
1, 45576, Note_on_c, 0, 46, 39
1, 45750, Control_c, 0, 64, 127
1, 45768, Note_off_c, 0, 46, 64
1, 45872, Note_on_c, 0, 65, 47
1, 45974, Note_off_c, 0, 65, 64
1, 46064, Note_off_c, 0, 72, 64
1, 46110, Note_on_c, 0, 73, 69
1, 46114, Note_on_c, 0, 70, 46
1, 46120, Note_on_c, 0, 58, 34
1, 46136, Note_off_c, 0, 75, 64
1, 46270, Note_off_c, 0, 70, 64
1, 46322, Note_off_c, 0, 73, 64
1, 46366, Note_on_c, 0, 65, 47
1, 46642, Note_on_c, 0, 82, 95
1, 46648, Note_on_c, 0, 61, 48
1, 46650, Note_off_c, 0, 65, 64
1, 46654, Note_on_c, 0, 73, 78
1, 46750, Note_off_c, 0, 58, 64
1, 46822, Note_off_c, 0, 61, 64
1, 46924, Note_on_c, 0, 53, 81
1, 47034, Note_off_c, 0, 53, 64
1, 47078, Note_off_c, 0, 73, 64
1, 47224, Note_on_c, 0, 74, 89
1, 47240, Note_on_c, 0, 46, 59
1, 47254, Control_c, 0, 64, 0
1, 47440, Control_c, 0, 64, 127
1, 47443, Note_off_c, 0, 46, 64
1, 47530, Note_off_c, 0, 82, 64
1, 47554, Note_on_c, 0, 83, 113
1, 47560, Note_on_c, 0, 80, 76
1, 47568, Note_on_c, 0, 68, 60
1, 47594, Note_off_c, 0, 74, 64
1, 47758, Note_off_c, 0, 68, 64
1, 47818, Note_off_c, 0, 80, 64
1, 47848, Note_off_c, 0, 83, 64
1, 47906, Note_on_c, 0, 82, 92
1, 47916, Note_on_c, 0, 74, 76
1, 47946, Note_on_c, 0, 58, 28
1, 47978, Note_off_c, 0, 74, 64
1, 48096, Note_off_c, 0, 82, 64
1, 48152, Note_on_c, 0, 81, 98
1, 48158, Note_on_c, 0, 80, 70
1, 48214, Note_off_c, 0, 80, 64
1, 48264, Note_on_c, 0, 68, 40
1, 48294, Note_off_c, 0, 81, 64
1, 48362, Note_on_c, 0, 82, 92
1, 48380, Note_on_c, 0, 74, 80
1, 48426, Note_off_c, 0, 74, 64
1, 48514, Note_on_c, 0, 80, 87
1, 48542, Note_off_c, 0, 82, 64
1, 48628, Note_on_c, 0, 62, 41
1, 48806, Note_on_c, 0, 89, 84
1, 48984, Note_off_c, 0, 68, 64
1, 49012, Note_off_c, 0, 80, 64
1, 49034, Note_off_c, 0, 89, 64
1, 49144, Note_off_c, 0, 62, 64
1, 49314, Note_on_c, 0, 53, 73
1, 49424, Note_off_c, 0, 53, 64
1, 49426, Note_off_c, 0, 58, 64
1, 49524, Note_on_c, 0, 82, 85
1, 49531, Note_on_c, 0, 80, 74
1, 49633, Note_off_c, 0, 80, 64
1, 49670, Note_off_c, 0, 82, 64
1, 49728, Note_on_c, 0, 82, 84
1, 49737, Note_on_c, 0, 78, 82
1, 49744, Note_on_c, 0, 39, 54
1, 49758, Control_c, 0, 64, 0
1, 49928, Control_c, 0, 64, 127
1, 49932, Note_off_c, 0, 39, 64
1, 50096, Note_on_c, 0, 66, 39
1, 50288, Note_off_c, 0, 66, 64
1, 50480, Note_on_c, 0, 83, 107
1, 50488, Note_on_c, 0, 80, 76
1, 50512, Note_on_c, 0, 58, 28
1, 50529, Note_off_c, 0, 78, 64
1, 50592, Note_off_c, 0, 82, 64
1, 50776, Note_on_c, 0, 66, 39
1, 50952, Note_off_c, 0, 66, 64
1, 51062, Note_on_c, 0, 78, 88
1, 51062, Note_on_c, 0, 75, 76
1, 51068, Note_on_c, 0, 63, 36
1, 51086, Note_off_c, 0, 83, 64
1, 51138, Note_off_c, 0, 63, 64
1, 51144, Note_off_c, 0, 80, 64
1, 51214, Note_off_c, 0, 58, 64
1, 51324, Note_on_c, 0, 54, 51
1, 51376, Note_off_c, 0, 54, 64
1, 51382, Note_off_c, 0, 78, 64
1, 51594, Note_on_c, 0, 51, 30
1, 51600, Note_on_c, 0, 82, 64
1, 51604, Control_c, 0, 64, 0
1, 51616, Note_on_c, 0, 78, 44
1, 51644, Note_off_c, 0, 75, 64
1, 51802, Control_c, 0, 64, 127
1, 51832, Note_off_c, 0, 51, 64
1, 51896, Note_on_c, 0, 80, 66
1, 51899, Note_on_c, 0, 77, 50
1, 51910, Note_off_c, 0, 78, 64
1, 51950, Note_off_c, 0, 82, 64
1, 51958, Note_on_c, 0, 68, 35
1, 52078, Note_off_c, 0, 77, 64
1, 52098, Note_off_c, 0, 80, 64
1, 52098, Note_on_c, 0, 82, 63
1, 52106, Note_on_c, 0, 78, 63
1, 52156, Note_off_c, 0, 68, 64
1, 52174, Note_off_c, 0, 78, 64
1, 52262, Note_on_c, 0, 80, 78
1, 52288, Note_on_c, 0, 77, 54
1, 52296, Note_on_c, 0, 58, 22
1, 52330, Note_off_c, 0, 82, 64
1, 52364, Note_off_c, 0, 77, 64
1, 52428, Note_on_c, 0, 78, 80
1, 52436, Note_on_c, 0, 75, 62
1, 52460, Note_off_c, 0, 80, 64
1, 52480, Note_on_c, 0, 68, 42
1, 52492, Note_off_c, 0, 75, 64
1, 52574, Note_on_c, 0, 80, 79
1, 52582, Note_on_c, 0, 77, 80
1, 52614, Note_off_c, 0, 78, 64
1, 52690, Note_off_c, 0, 77, 64
1, 52726, Note_off_c, 0, 80, 64
1, 52752, Note_on_c, 0, 82, 75
1, 52760, Note_on_c, 0, 78, 64
1, 52770, Control_c, 0, 64, 0
1, 52800, Note_on_c, 0, 62, 32
1, 52836, Note_off_c, 0, 68, 64
1, 52878, Control_c, 0, 64, 127
1, 52916, Note_off_c, 0, 62, 64
1, 52938, Note_off_c, 0, 78, 64
1, 52951, Note_off_c, 0, 82, 64
1, 53062, Note_on_c, 0, 53, 68
1, 53122, Note_off_c, 0, 53, 64
1, 53174, Note_off_c, 0, 58, 64
1, 53186, Note_on_c, 0, 74, 76
1, 53186, Note_on_c, 0, 77, 74
1, 53230, Note_off_c, 0, 77, 64
1, 53292, Note_off_c, 0, 74, 64
1, 53324, Note_on_c, 0, 80, 86
1, 53328, Note_on_c, 0, 77, 50
1, 53352, Note_on_c, 0, 51, 47
1, 53600, Control_c, 0, 64, 0
1, 53610, Note_on_c, 0, 66, 47
1, 53800, Control_c, 0, 64, 127
1, 53850, Note_on_c, 0, 75, 67
1, 53852, Note_on_c, 0, 78, 88
1, 53872, Note_off_c, 0, 77, 64
1, 53872, Note_on_c, 0, 58, 37
1, 53892, Note_off_c, 0, 80, 64
1, 53892, Note_off_c, 0, 66, 64
1, 53908, Control_c, 0, 64, 0
1, 54030, Control_c, 0, 64, 127
1, 54044, Note_off_c, 0, 75, 64
1, 54064, Note_off_c, 0, 51, 64
1, 54112, Note_off_c, 0, 78, 64
1, 54164, Note_on_c, 0, 66, 35
1, 54304, Note_on_c, 0, 87, 88
1, 54310, Note_on_c, 0, 78, 76
1, 54340, Note_off_c, 0, 87, 64
1, 54348, Note_off_c, 0, 78, 64
1, 54454, Note_off_c, 0, 66, 64
1, 54462, Note_on_c, 0, 87, 92
1, 54474, Note_on_c, 0, 78, 57
1, 54488, Note_on_c, 0, 63, 39
1, 54558, Note_off_c, 0, 58, 64
1, 54682, Note_off_c, 0, 78, 64
1, 54720, Note_off_c, 0, 63, 64
1, 54790, Note_on_c, 0, 85, 81
1, 54800, Note_on_c, 0, 77, 63
1, 54820, Note_off_c, 0, 87, 64
1, 54844, Note_off_c, 0, 77, 64
1, 54908, Note_on_c, 0, 54, 41
1, 54910, Note_off_c, 0, 85, 64
1, 54990, Note_off_c, 0, 54, 64
1, 55014, Note_on_c, 0, 83, 103
1, 55016, Note_on_c, 0, 75, 70
1, 55066, Note_off_c, 0, 75, 64
1, 55184, Control_c, 0, 64, 0
1, 55214, Note_on_c, 0, 46, 38
1, 55224, Note_on_c, 0, 82, 80
1, 55232, Note_on_c, 0, 74, 73
1, 55236, Note_off_c, 0, 83, 64
1, 55318, Note_off_c, 0, 74, 64
1, 55352, Control_c, 0, 64, 127
1, 55386, Note_off_c, 0, 82, 64
1, 55398, Note_off_c, 0, 46, 64
1, 55442, Note_on_c, 0, 82, 78
1, 55446, Note_on_c, 0, 70, 74
1, 55536, Note_off_c, 0, 70, 64
1, 55568, Note_off_c, 0, 82, 64
1, 55568, Note_on_c, 0, 68, 46
1, 55696, Note_on_c, 0, 82, 85
1, 55702, Note_on_c, 0, 71, 85
1, 55754, Note_off_c, 0, 71, 64
1, 55794, Note_off_c, 0, 82, 64
1, 55834, Note_off_c, 0, 68, 64
1, 55914, Note_on_c, 0, 82, 77
1, 55916, Note_on_c, 0, 72, 78
1, 55944, Note_on_c, 0, 58, 20
1, 55980, Note_off_c, 0, 72, 64
1, 56032, Note_off_c, 0, 82, 64
1, 56106, Note_on_c, 0, 82, 70
1, 56110, Note_on_c, 0, 73, 79
1, 56186, Note_off_c, 0, 73, 64
1, 56202, Note_on_c, 0, 68, 42
1, 56216, Note_off_c, 0, 82, 64
1, 56274, Note_on_c, 0, 82, 79
1, 56277, Note_on_c, 0, 74, 91
1, 56330, Note_off_c, 0, 74, 64
1, 56366, Note_off_c, 0, 82, 64
1, 56382, Note_off_c, 0, 68, 64
1, 56468, Note_on_c, 0, 82, 78
1, 56472, Note_on_c, 0, 75, 88
1, 56498, Note_on_c, 0, 62, 49
1, 56552, Note_off_c, 0, 75, 64
1, 56582, Note_off_c, 0, 82, 64
1, 56684, Note_on_c, 0, 82, 76
1, 56692, Note_on_c, 0, 76, 84
1, 56716, Note_off_c, 0, 62, 64
1, 56752, Note_off_c, 0, 76, 64
1, 56798, Note_off_c, 0, 58, 64
1, 56806, Note_off_c, 0, 82, 64
1, 56826, Note_on_c, 0, 53, 90
1, 56940, Note_on_c, 0, 82, 82
1, 56946, Note_on_c, 0, 77, 91
1, 56996, Note_off_c, 0, 53, 64
1, 57068, Note_off_c, 0, 82, 64
1, 57202, Note_on_c, 0, 82, 84
1, 57208, Note_on_c, 0, 78, 86
1, 57222, Note_on_c, 0, 39, 69
1, 57226, Control_c, 0, 64, 0
1, 57266, Note_off_c, 0, 77, 64
1, 57430, Note_off_c, 0, 39, 64
1, 57442, Control_c, 0, 64, 127
1, 57500, Note_on_c, 0, 83, 106
1, 57500, Note_on_c, 0, 80, 81
1, 57546, Note_off_c, 0, 82, 64
1, 57560, Note_off_c, 0, 78, 64
1, 57584, Note_on_c, 0, 66, 55
1, 57668, Note_off_c, 0, 80, 64
1, 57730, Note_on_c, 0, 82, 86
1, 57735, Note_on_c, 0, 78, 88
1, 57792, Note_off_c, 0, 66, 64
1, 57816, Note_off_c, 0, 83, 64
1, 57852, Note_on_c, 0, 58, 40
1, 57943, Note_off_c, 0, 78, 64
1, 57958, Note_on_c, 0, 80, 88
1, 57964, Note_on_c, 0, 77, 83
1, 58014, Note_off_c, 0, 82, 64
1, 58110, Note_on_c, 0, 66, 43
1, 58138, Note_on_c, 0, 78, 84
1, 58140, Note_on_c, 0, 82, 88
1, 58194, Note_off_c, 0, 80, 64
1, 58200, Note_off_c, 0, 77, 64
1, 58326, Note_on_c, 0, 63, 53
1, 58338, Note_off_c, 0, 78, 64
1, 58352, Note_on_c, 0, 83, 106
1, 58354, Note_on_c, 0, 80, 69
1, 58382, Note_off_c, 0, 82, 64
1, 58410, Control_c, 0, 64, 0
1, 58478, Note_off_c, 0, 58, 64
1, 58548, Control_c, 0, 64, 127
1, 58606, Note_off_c, 0, 66, 64
1, 58614, Note_off_c, 0, 83, 64
1, 58660, Note_off_c, 0, 80, 64
1, 58698, Note_on_c, 0, 54, 48
1, 58734, Note_off_c, 0, 63, 64
1, 58780, Note_off_c, 0, 54, 64
1, 58816, Note_on_c, 0, 78, 80
1, 58828, Note_on_c, 0, 75, 55
1, 58852, Note_off_c, 0, 78, 64
1, 58872, Note_off_c, 0, 75, 64
1, 58934, Note_on_c, 0, 75, 61
1, 58937, Note_on_c, 0, 78, 58
1, 59012, Note_on_c, 0, 51, 38
1, 59030, Note_off_c, 0, 78, 64
1, 59040, Note_off_c, 0, 75, 64
1, 59040, Control_c, 0, 64, 0
1, 59078, Note_on_c, 0, 82, 66
1, 59089, Note_on_c, 0, 78, 54
1, 59238, Control_c, 0, 64, 127
1, 59270, Note_off_c, 0, 51, 64
1, 59343, Note_off_c, 0, 78, 64
1, 59408, Note_on_c, 0, 68, 33
1, 59520, Note_off_c, 0, 82, 64
1, 59590, Note_on_c, 0, 80, 62
1, 59600, Note_on_c, 0, 77, 61
1, 59634, Note_off_c, 0, 80, 64
1, 59640, Note_off_c, 0, 77, 64
1, 59696, Note_off_c, 0, 68, 64
1, 59704, Note_on_c, 0, 80, 58
1, 59704, Note_on_c, 0, 77, 60
1, 59758, Note_on_c, 0, 58, 17
1, 59788, Note_off_c, 0, 80, 64
1, 59788, Note_on_c, 0, 82, 61
1, 59854, Note_on_c, 0, 80, 78
1, 59910, Note_off_c, 0, 82, 64
1, 59996, Note_off_c, 0, 77, 64
1, 60030, Note_on_c, 0, 78, 68
1, 60033, Note_on_c, 0, 75, 52
1, 60054, Note_off_c, 0, 80, 64
1, 60092, Note_on_c, 0, 68, 24
1, 60130, Control_c, 0, 64, 0
1, 60146, Note_off_c, 0, 75, 64
1, 60254, Control_c, 0, 64, 127
1, 60272, Note_off_c, 0, 78, 64
1, 60280, Note_on_c, 0, 80, 70
1, 60286, Note_on_c, 0, 77, 70
1, 60322, Note_off_c, 0, 80, 64
1, 60322, Note_off_c, 0, 77, 64
1, 60398, Note_on_c, 0, 77, 38
1, 60408, Note_on_c, 0, 80, 51
1, 60484, Note_on_c, 0, 62, 18
1, 60498, Control_c, 0, 64, 0
1, 60534, Note_off_c, 0, 77, 64
1, 60592, Note_off_c, 0, 80, 64
1, 60600, Note_on_c, 0, 82, 41
1, 60602, Note_on_c, 0, 78, 59
1, 60664, Note_off_c, 0, 68, 64
1, 60667, Control_c, 0, 64, 127
1, 60750, Note_off_c, 0, 62, 64
1, 60854, Note_off_c, 0, 78, 64
1, 60928, Note_off_c, 0, 82, 64
1, 60942, Note_off_c, 0, 58, 64
1, 60956, Note_on_c, 0, 53, 34
1, 61052, Note_off_c, 0, 53, 64
1, 61102, Note_on_c, 0, 77, 52
1, 61114, Note_on_c, 0, 74, 26
1, 61146, Note_off_c, 0, 77, 64
1, 61204, Note_on_c, 0, 77, 80
1, 61242, Note_off_c, 0, 77, 64
1, 61294, Note_off_c, 0, 74, 64
1, 61326, Note_on_c, 0, 77, 38
1, 61326, Note_on_c, 0, 80, 67
1, 61356, Note_on_c, 0, 51, 28
1, 61406, Control_c, 0, 64, 0
1, 61606, Control_c, 0, 64, 127
1, 61654, Note_on_c, 0, 66, 21
1, 61798, Note_off_c, 0, 77, 64
1, 61812, Note_off_c, 0, 80, 64
1, 61812, Note_off_c, 0, 66, 64
1, 61942, Note_off_c, 0, 51, 64
1, 61958, Note_on_c, 0, 58, 34
1, 62232, Note_on_c, 0, 66, 33
1, 62512, Note_on_c, 0, 78, 61
1, 62515, Note_on_c, 0, 75, 53
1, 62540, Note_off_c, 0, 66, 64
1, 62540, Note_on_c, 0, 63, 29
1, 62643, Note_off_c, 0, 63, 64
1, 62688, Note_off_c, 0, 58, 64
1, 62818, Note_on_c, 0, 54, 49
1, 62882, Note_off_c, 0, 54, 64
1, 63210, Note_on_c, 0, 45, 60
1, 63280, Control_c, 0, 64, 0
1, 63448, Control_c, 0, 64, 127
1, 63466, Note_off_c, 0, 45, 64
1, 63600, Note_on_c, 0, 61, 53
1, 63720, Note_off_c, 0, 78, 64
1, 63796, Note_off_c, 0, 61, 64
1, 63799, Note_off_c, 0, 75, 64
1, 63924, Note_on_c, 0, 78, 85
1, 63944, Note_on_c, 0, 74, 69
1, 63944, Note_on_c, 0, 51, 55
1, 64214, Note_on_c, 0, 61, 57
1, 64248, Note_off_c, 0, 78, 64
1, 64370, Note_off_c, 0, 61, 64
1, 64422, Note_off_c, 0, 51, 64
1, 64456, Note_on_c, 0, 78, 94
1, 64460, Note_on_c, 0, 73, 86
1, 64482, Note_on_c, 0, 54, 65
1, 64510, Note_off_c, 0, 74, 64
1, 64684, Note_off_c, 0, 54, 64
1, 64750, Note_off_c, 0, 78, 64
1, 64754, Note_on_c, 0, 51, 71
1, 64822, Note_off_c, 0, 73, 64
1, 64836, Note_off_c, 0, 51, 64
1, 64994, Note_on_c, 0, 78, 86
1, 64994, Note_on_c, 0, 44, 91
1, 65000, Note_on_c, 0, 72, 80
1, 65062, Control_c, 0, 64, 0
1, 65278, Control_c, 0, 64, 127
1, 65300, Note_off_c, 0, 44, 64
1, 65356, Note_on_c, 0, 60, 57
1, 65538, Note_off_c, 0, 72, 64
1, 65552, Note_off_c, 0, 60, 64
1, 65712, Note_on_c, 0, 51, 65
1, 65802, Note_off_c, 0, 78, 64
1, 65996, Note_on_c, 0, 81, 103
1, 66000, Note_on_c, 0, 60, 52
1, 66000, Note_on_c, 0, 69, 88
1, 66142, Note_off_c, 0, 69, 64
1, 66148, Note_off_c, 0, 81, 64
1, 66260, Note_on_c, 0, 80, 98
1, 66260, Note_on_c, 0, 68, 90
1, 66278, Note_on_c, 0, 54, 57
1, 66340, Note_off_c, 0, 51, 64
1, 66414, Note_off_c, 0, 60, 64
1, 66540, Note_on_c, 0, 51, 65
1, 66588, Note_off_c, 0, 54, 64
1, 66682, Note_off_c, 0, 51, 64
1, 66784, Note_on_c, 0, 45, 78
1, 66860, Control_c, 0, 64, 0
1, 67084, Note_on_c, 0, 57, 54
1, 67138, Control_c, 0, 64, 127
1, 67346, Note_off_c, 0, 80, 64
1, 67360, Note_off_c, 0, 68, 64
1, 67368, Note_off_c, 0, 57, 64
1, 67426, Note_on_c, 0, 78, 94
1, 67432, Note_on_c, 0, 66, 85
1, 67442, Note_on_c, 0, 51, 52
1, 67760, Note_on_c, 0, 57, 45
1, 67848, Note_off_c, 0, 78, 64
1, 67886, Note_off_c, 0, 51, 64
1, 67906, Note_off_c, 0, 66, 64
1, 67990, Note_on_c, 0, 61, 84
1, 67996, Note_on_c, 0, 73, 77
1, 68020, Note_on_c, 0, 54, 46
1, 68296, Note_off_c, 0, 54, 64
1, 68318, Note_on_c, 0, 51, 47
1, 68321, Note_off_c, 0, 45, 64
1, 68410, Note_off_c, 0, 57, 64
1, 68580, Note_off_c, 0, 51, 64
1, 68594, Note_off_c, 0, 61, 64
1, 68616, Note_off_c, 0, 73, 64
1, 68678, Note_on_c, 0, 72, 75
1, 68680, Note_on_c, 0, 60, 68
1, 68708, Note_on_c, 0, 44, 37
1, 68904, Control_c, 0, 64, 0
1, 69032, Note_on_c, 0, 56, 32
1, 69226, Control_c, 0, 64, 127
1, 69294, Note_off_c, 0, 56, 64
1, 69350, Note_on_c, 0, 51, 35
1, 69398, Note_off_c, 0, 44, 64
1, 69660, Note_off_c, 0, 60, 64
1, 69668, Note_on_c, 0, 56, 28
1, 70002, Note_on_c, 0, 68, 57
1, 70042, Note_off_c, 0, 56, 64
1, 70058, Note_on_c, 0, 54, 32
1, 70100, Note_off_c, 0, 51, 64
1, 70103, Note_off_c, 0, 72, 64
1, 70332, Control_c, 0, 64, 0
1, 70356, Note_on_c, 0, 44, 28
1, 70518, Control_c, 0, 64, 127
1, 70598, Note_off_c, 0, 44, 64
1, 70654, Note_off_c, 0, 54, 64
1, 70796, Note_on_c, 0, 69, 44
1, 70818, Note_on_c, 0, 49, 37
1, 70898, Note_off_c, 0, 68, 64
1, 71112, Note_on_c, 0, 71, 72
1, 71162, Note_off_c, 0, 69, 64
1, 71222, Note_on_c, 0, 64, 39
1, 71254, Control_c, 0, 64, 0
1, 71310, Note_on_c, 0, 69, 68
1, 71392, Note_off_c, 0, 71, 64
1, 71424, Control_c, 0, 64, 127
1, 71502, Note_off_c, 0, 64, 64
1, 71528, Note_on_c, 0, 68, 72
1, 71536, Note_on_c, 0, 54, 38
1, 71558, Note_off_c, 0, 69, 64
1, 71810, Note_on_c, 0, 69, 70
1, 71842, Note_on_c, 0, 64, 29
1, 71852, Note_off_c, 0, 68, 64
1, 72146, Control_c, 0, 64, 0
1, 72156, Note_on_c, 0, 57, 20
1, 72278, Note_on_c, 0, 76, 61
1, 72314, Note_off_c, 0, 69, 64
1, 72350, Note_off_c, 0, 54, 64
1, 72484, Control_c, 0, 64, 127
1, 72506, Note_off_c, 0, 64, 64
1, 72528, Note_off_c, 0, 49, 64
1, 72708, Note_off_c, 0, 57, 64
1, 72708, Note_on_c, 0, 49, 32
1, 72958, Note_on_c, 0, 75, 58
1, 73004, Note_off_c, 0, 76, 64
1, 73050, Note_off_c, 0, 75, 64
1, 73122, Note_off_c, 0, 49, 64
1, 73125, Note_on_c, 0, 75, 61
1, 73156, Note_on_c, 0, 48, 26
1, 73314, Control_c, 0, 64, 0
1, 73432, Note_on_c, 0, 63, 49
1, 73604, Control_c, 0, 64, 127
1, 73648, Note_off_c, 0, 63, 64
1, 73706, Note_on_c, 0, 54, 44
1, 73780, Note_off_c, 0, 75, 64
1, 73968, Note_off_c, 0, 54, 64
1, 73976, Note_on_c, 0, 63, 58
1, 74050, Note_on_c, 0, 81, 106
1, 74060, Note_on_c, 0, 69, 88
1, 74118, Note_off_c, 0, 69, 64
1, 74174, Note_off_c, 0, 81, 64
1, 74286, Note_on_c, 0, 80, 100
1, 74286, Note_on_c, 0, 68, 90
1, 74298, Note_on_c, 0, 56, 47
1, 74484, Note_off_c, 0, 63, 64
1, 74582, Note_on_c, 0, 54, 60
1, 74606, Note_off_c, 0, 56, 64
1, 74674, Note_off_c, 0, 54, 64
1, 74734, Note_off_c, 0, 48, 64
1, 74860, Note_on_c, 0, 45, 87
1, 74880, Control_c, 0, 64, 0
1, 75080, Control_c, 0, 64, 127
1, 75110, Note_off_c, 0, 45, 64
1, 75214, Note_on_c, 0, 61, 70
1, 75508, Note_off_c, 0, 68, 64
1, 75542, Note_off_c, 0, 80, 64
1, 75556, Note_off_c, 0, 61, 64
1, 75564, Note_on_c, 0, 51, 78
1, 75738, Note_on_c, 0, 78, 95
1, 75738, Note_on_c, 0, 66, 87
1, 75850, Note_off_c, 0, 66, 64
1, 75886, Note_off_c, 0, 78, 64
1, 75990, Note_on_c, 0, 80, 97
1, 75990, Note_on_c, 0, 68, 90
1, 76026, Note_on_c, 0, 61, 49
1, 76086, Note_off_c, 0, 80, 64
1, 76094, Note_off_c, 0, 68, 64
1, 76178, Note_on_c, 0, 78, 87
1, 76178, Note_on_c, 0, 66, 82
1, 76218, Note_off_c, 0, 78, 64
1, 76224, Note_off_c, 0, 66, 64
1, 76340, Note_on_c, 0, 64, 92
1, 76345, Note_on_c, 0, 76, 51
1, 76362, Note_on_c, 0, 54, 51
1, 76372, Note_off_c, 0, 64, 64
1, 76382, Note_off_c, 0, 51, 64
1, 76395, Note_off_c, 0, 76, 64
1, 76470, Note_on_c, 0, 75, 86
1, 76478, Note_on_c, 0, 63, 81
1, 76529, Note_off_c, 0, 75, 64
1, 76540, Note_off_c, 0, 63, 64
1, 76554, Note_off_c, 0, 61, 64
1, 76616, Note_on_c, 0, 76, 69
1, 76620, Note_on_c, 0, 64, 83
1, 76656, Note_off_c, 0, 76, 64
1, 76656, Note_off_c, 0, 64, 64
1, 76664, Note_on_c, 0, 51, 29
1, 76706, Note_off_c, 0, 54, 64
1, 76742, Note_on_c, 0, 75, 87
1, 76750, Note_on_c, 0, 63, 85
1, 76786, Note_off_c, 0, 75, 64
1, 76824, Note_off_c, 0, 63, 64
1, 76884, Note_off_c, 0, 51, 64
1, 76910, Note_on_c, 0, 60, 91
1, 76910, Note_on_c, 0, 72, 80
1, 76913, Note_on_c, 0, 44, 55
1, 76986, Control_c, 0, 64, 0
1, 77240, Note_on_c, 0, 56, 42
1, 77324, Control_c, 0, 64, 127
1, 77450, Note_off_c, 0, 56, 64
1, 77512, Note_off_c, 0, 72, 64
1, 77526, Note_off_c, 0, 44, 64
1, 77534, Note_on_c, 0, 51, 41
1, 77664, Note_off_c, 0, 60, 64
1, 77812, Note_on_c, 0, 56, 39
1, 77920, Note_off_c, 0, 51, 64
1, 78152, Note_on_c, 0, 54, 40
1, 78180, Note_off_c, 0, 56, 64
1, 78494, Note_off_c, 0, 54, 64
1, 78556, Note_on_c, 0, 68, 54
1, 78576, Note_on_c, 0, 44, 44
1, 78780, Note_off_c, 0, 44, 64
1, 79026, Note_on_c, 0, 69, 62
1, 79048, Note_on_c, 0, 49, 48
1, 79136, Control_c, 0, 64, 0
1, 79200, Note_off_c, 0, 68, 64
1, 79326, Note_on_c, 0, 71, 87
1, 79336, Control_c, 0, 64, 127
1, 79380, Note_off_c, 0, 69, 64
1, 79424, Note_on_c, 0, 64, 41
1, 79522, Note_on_c, 0, 69, 74
1, 79566, Note_off_c, 0, 64, 64
1, 79606, Note_off_c, 0, 71, 64
1, 79706, Note_on_c, 0, 54, 48
1, 79750, Note_on_c, 0, 68, 70
1, 79758, Note_off_c, 0, 69, 64
1, 79948, Note_off_c, 0, 54, 64
1, 79992, Note_on_c, 0, 69, 68
1, 79995, Note_off_c, 0, 68, 64
1, 80034, Note_off_c, 0, 69, 64
1, 80052, Note_on_c, 0, 64, 42
1, 80104, Note_on_c, 0, 69, 47
1, 80290, Control_c, 0, 64, 0
1, 80336, Note_on_c, 0, 57, 34
1, 80478, Note_on_c, 0, 76, 59
1, 80540, Note_off_c, 0, 69, 64
1, 80642, Control_c, 0, 64, 127
1, 80668, Note_off_c, 0, 64, 64
1, 80746, Note_off_c, 0, 49, 64
1, 80788, Note_off_c, 0, 76, 64
1, 80964, Note_off_c, 0, 57, 64
1, 81006, Note_on_c, 0, 49, 35
1, 81300, Note_on_c, 0, 75, 48
1, 81486, Note_off_c, 0, 75, 64
1, 81554, Note_on_c, 0, 75, 54
1, 81580, Note_on_c, 0, 48, 29
1, 81610, Control_c, 0, 64, 0
1, 81628, Note_off_c, 0, 49, 64
1, 81902, Control_c, 0, 64, 127
1, 81942, Note_on_c, 0, 63, 41
1, 82094, Note_off_c, 0, 63, 64
1, 82130, Note_off_c, 0, 48, 64
1, 82236, Note_on_c, 0, 54, 44
1, 82496, Note_on_c, 0, 63, 43
1, 82516, Note_off_c, 0, 54, 64
1, 82656, Note_off_c, 0, 63, 64
1, 82760, Note_on_c, 0, 57, 36
1, 82764, Note_off_c, 0, 75, 64
1, 82948, Note_off_c, 0, 57, 64
1, 83016, Note_on_c, 0, 54, 41
1, 83132, Note_off_c, 0, 54, 64
1, 83298, Note_on_c, 0, 47, 51
1, 83300, Control_c, 0, 64, 0
1, 83380, Note_on_c, 0, 75, 72
1, 83500, Control_c, 0, 64, 127
1, 83518, Note_off_c, 0, 47, 64
1, 83664, Note_on_c, 0, 63, 44
1, 83850, Note_off_c, 0, 63, 64
1, 83924, Note_on_c, 0, 54, 47
1, 84104, Note_off_c, 0, 54, 64
1, 84168, Note_on_c, 0, 63, 50
1, 84306, Note_off_c, 0, 63, 64
1, 84436, Note_on_c, 0, 57, 30
1, 84530, Note_off_c, 0, 57, 64
1, 84668, Note_on_c, 0, 54, 49
1, 84720, Note_off_c, 0, 54, 64
1, 84898, Control_c, 0, 64, 0
1, 84910, Note_on_c, 0, 47, 57
1, 85068, Control_c, 0, 64, 127
1, 85076, Note_off_c, 0, 47, 64
1, 85182, Note_on_c, 0, 63, 57
1, 85322, Note_off_c, 0, 63, 64
1, 85432, Note_on_c, 0, 53, 76
1, 85662, Note_on_c, 0, 63, 55
1, 85796, Note_off_c, 0, 63, 64
1, 85816, Note_off_c, 0, 53, 64
1, 85902, Note_on_c, 0, 56, 43
1, 86114, Note_off_c, 0, 56, 64
1, 86166, Note_on_c, 0, 53, 54
1, 86404, Note_on_c, 0, 47, 47
1, 86466, Control_c, 0, 64, 0
1, 86524, Note_on_c, 0, 74, 76
1, 86586, Note_off_c, 0, 75, 64
1, 86678, Note_off_c, 0, 47, 64
1, 86696, Control_c, 0, 64, 127
1, 86800, Note_on_c, 0, 62, 42
1, 86892, Note_off_c, 0, 62, 64
1, 87072, Note_on_c, 0, 52, 65
1, 87102, Note_off_c, 0, 53, 64
1, 87336, Note_on_c, 0, 62, 41
1, 87418, Control_c, 0, 64, 0
1, 87558, Control_c, 0, 64, 127
1, 87582, Note_on_c, 0, 56, 47
1, 87596, Note_off_c, 0, 62, 64
1, 87606, Note_off_c, 0, 52, 64
1, 87794, Note_off_c, 0, 56, 64
1, 87852, Note_on_c, 0, 52, 48
1, 87898, Note_off_c, 0, 52, 64
1, 88166, Note_on_c, 0, 45, 44
1, 88248, Control_c, 0, 64, 0
1, 88254, Note_on_c, 0, 73, 46
1, 88312, Note_off_c, 0, 74, 64
1, 88454, Note_off_c, 0, 45, 64
1, 88464, Control_c, 0, 64, 127
1, 88610, Note_on_c, 0, 61, 29
1, 88846, Note_off_c, 0, 61, 64
1, 88930, Note_on_c, 0, 52, 30
1, 89184, Note_on_c, 0, 61, 31
1, 89212, Note_off_c, 0, 52, 64
1, 89402, Note_off_c, 0, 61, 64
1, 89482, Note_on_c, 0, 57, 21
1, 89608, Note_off_c, 0, 57, 64
1, 89658, Note_off_c, 0, 73, 64
1, 89794, Note_on_c, 0, 52, 28
1, 89854, Note_off_c, 0, 52, 64
1, 90092, Note_on_c, 0, 45, 37
1, 90154, Control_c, 0, 64, 0
1, 90176, Note_on_c, 0, 73, 55
1, 90350, Note_off_c, 0, 45, 64
1, 90353, Control_c, 0, 64, 127
1, 90516, Note_on_c, 0, 61, 32
1, 90740, Note_off_c, 0, 61, 64
1, 90868, Note_on_c, 0, 51, 35
1, 91134, Note_on_c, 0, 61, 31
1, 91374, Note_off_c, 0, 61, 64
1, 91428, Note_on_c, 0, 54, 36
1, 91446, Note_off_c, 0, 51, 64
1, 91684, Note_on_c, 0, 51, 37
1, 91692, Note_off_c, 0, 54, 64
1, 91964, Note_off_c, 0, 51, 64
1, 91964, Note_on_c, 0, 44, 47
1, 91996, Control_c, 0, 64, 0
1, 92182, Control_c, 0, 64, 127
1, 92198, Note_off_c, 0, 44, 64
1, 92284, Note_on_c, 0, 60, 44
1, 92474, Note_off_c, 0, 60, 64
1, 92688, Note_on_c, 0, 72, 61
1, 92706, Note_on_c, 0, 51, 30
1, 92830, Note_off_c, 0, 73, 64
1, 92996, Control_c, 0, 64, 0
1, 93036, Note_on_c, 0, 60, 34
1, 93118, Control_c, 0, 64, 127
1, 93208, Note_off_c, 0, 72, 64
1, 93376, Note_on_c, 0, 54, 33
1, 93468, Note_off_c, 0, 60, 64
1, 93476, Note_on_c, 0, 70, 36
1, 93584, Note_off_c, 0, 51, 64
1, 93662, Note_off_c, 0, 54, 64
1, 93742, Note_on_c, 0, 49, 23
1, 93844, Note_off_c, 0, 49, 64
1, 94050, Note_on_c, 0, 44, 34
1, 94448, Note_on_c, 0, 68, 57
1, 94484, Note_on_c, 0, 56, 25
1, 94548, Note_off_c, 0, 70, 64
1, 94752, Note_off_c, 0, 68, 64
1, 94902, Note_on_c, 0, 70, 55
1, 94906, Note_off_c, 0, 56, 64
1, 94932, Note_on_c, 0, 48, 26
1, 95252, Note_off_c, 0, 70, 64
1, 95272, Note_on_c, 0, 72, 62
1, 95283, Note_on_c, 0, 56, 30
1, 95302, Control_c, 0, 64, 0
1, 95454, Control_c, 0, 64, 127
1, 95476, Note_off_c, 0, 72, 64
1, 95574, Note_off_c, 0, 56, 64
1, 95584, Note_on_c, 0, 73, 71
1, 95612, Note_on_c, 0, 54, 34
1, 95702, Note_off_c, 0, 44, 64
1, 95798, Note_off_c, 0, 48, 64
1, 95832, Note_off_c, 0, 73, 64
1, 95914, Note_off_c, 0, 54, 64
1, 95942, Note_on_c, 0, 75, 79
1, 95958, Note_on_c, 0, 44, 41
1, 96166, Note_off_c, 0, 44, 64
1, 96370, Note_off_c, 0, 75, 64
1, 96462, Note_on_c, 0, 37, 27
1, 96596, Note_on_c, 0, 77, 75
1, 96654, Control_c, 0, 64, 0
1, 96866, Note_off_c, 0, 37, 64
1, 96884, Control_c, 0, 64, 127
1, 97136, Note_on_c, 0, 65, 16
1, 97362, Note_off_c, 0, 65, 64
1, 97484, Note_on_c, 0, 56, 19
1, 97664, Note_off_c, 0, 56, 64
1, 97800, Note_on_c, 0, 65, 13
1, 97972, Note_off_c, 0, 65, 64
1, 98090, Note_on_c, 0, 61, 18
1, 98214, Note_off_c, 0, 61, 64
1, 98754, Note_on_c, 0, 49, 25
1, 98852, Note_on_c, 0, 75, 45
1, 98864, Note_off_c, 0, 49, 64
1, 99080, Note_off_c, 0, 77, 64
1, 99192, Note_on_c, 0, 65, 12
1, 99360, Note_off_c, 0, 65, 64
1, 99482, Note_on_c, 0, 56, 23
1, 99504, Note_on_c, 0, 73, 39
1, 99662, Note_off_c, 0, 75, 64
1, 99670, Note_off_c, 0, 56, 64
1, 99792, Note_on_c, 0, 65, 15
1, 99904, Note_off_c, 0, 65, 64
1, 100032, Note_on_c, 0, 61, 34
1, 100174, Note_off_c, 0, 61, 64
1, 100366, Note_on_c, 0, 65, 31
1, 100380, Note_on_c, 0, 53, 29
1, 100482, Note_off_c, 0, 53, 64
1, 100702, Note_off_c, 0, 65, 64
1, 100720, Note_on_c, 0, 68, 35
1, 100742, Note_on_c, 0, 49, 22
1, 100828, Note_off_c, 0, 49, 64
1, 100856, Note_off_c, 0, 73, 64
1, 101028, Note_on_c, 0, 65, 30
1, 101114, Note_off_c, 0, 65, 64
1, 101288, Note_on_c, 0, 56, 31
1, 101394, Note_off_c, 0, 56, 64
1, 101558, Note_on_c, 0, 65, 27
1, 101668, Note_off_c, 0, 65, 64
1, 101830, Note_on_c, 0, 61, 24
1, 101936, Note_off_c, 0, 61, 64
1, 102124, Note_on_c, 0, 53, 39
1, 102202, Note_off_c, 0, 53, 64
1, 102446, Note_on_c, 0, 49, 30
1, 102528, Note_off_c, 0, 49, 64
1, 102706, Note_on_c, 0, 65, 42
1, 102790, Note_off_c, 0, 65, 64
1, 102964, Note_on_c, 0, 73, 67
1, 102970, Note_on_c, 0, 56, 31
1, 103058, Note_off_c, 0, 68, 64
1, 103114, Note_off_c, 0, 56, 64
1, 103224, Note_on_c, 0, 65, 29
1, 103434, Note_off_c, 0, 65, 64
1, 103514, Note_on_c, 0, 77, 82
1, 103520, Note_on_c, 0, 61, 24
1, 103586, Note_off_c, 0, 73, 64
1, 103604, Note_off_c, 0, 61, 64
1, 103832, Note_on_c, 0, 53, 42
1, 103910, Note_off_c, 0, 53, 64
1, 104300, Note_on_c, 0, 82, 65
1, 104303, Note_on_c, 0, 49, 33
1, 104306, Control_c, 0, 64, 0
1, 104346, Note_off_c, 0, 77, 64
1, 104504, Control_c, 0, 64, 127
1, 104538, Note_off_c, 0, 49, 64
1, 104690, Note_on_c, 0, 65, 21
1, 104852, Note_off_c, 0, 65, 64
1, 105010, Note_on_c, 0, 56, 25
1, 105116, Note_off_c, 0, 56, 64
1, 105296, Note_on_c, 0, 65, 28
1, 105390, Note_off_c, 0, 65, 64
1, 105572, Note_on_c, 0, 61, 29
1, 105674, Note_off_c, 0, 61, 64
1, 105888, Note_on_c, 0, 53, 23
1, 105960, Note_off_c, 0, 53, 64
1, 106208, Note_on_c, 0, 49, 19
1, 106304, Note_off_c, 0, 49, 64
1, 106582, Note_on_c, 0, 80, 42
1, 106626, Note_on_c, 0, 65, 14
1, 106722, Note_off_c, 0, 65, 64
1, 106764, Note_off_c, 0, 82, 64
1, 106958, Note_on_c, 0, 76, 40
1, 106964, Note_on_c, 0, 56, 28
1, 107012, Note_off_c, 0, 80, 64
1, 107052, Note_off_c, 0, 56, 64
1, 107254, Note_on_c, 0, 77, 51
1, 107262, Note_on_c, 0, 65, 26
1, 107298, Note_off_c, 0, 76, 64
1, 107354, Note_off_c, 0, 65, 64
1, 107474, Note_off_c, 0, 77, 64
1, 107528, Note_on_c, 0, 72, 44
1, 107534, Note_on_c, 0, 61, 27
1, 107622, Note_off_c, 0, 61, 64
1, 107854, Note_on_c, 0, 73, 40
1, 107870, Note_on_c, 0, 53, 48
1, 107906, Note_off_c, 0, 72, 64
1, 107928, Note_off_c, 0, 53, 64
1, 108332, Note_on_c, 0, 37, 32
1, 108336, Note_on_c, 0, 69, 55
1, 108362, Note_off_c, 0, 73, 64
1, 108376, Control_c, 0, 64, 0
1, 108564, Note_off_c, 0, 37, 64
1, 108592, Control_c, 0, 64, 127
1, 108778, Note_on_c, 0, 66, 20
1, 109008, Note_off_c, 0, 66, 64
1, 109110, Note_on_c, 0, 57, 26
1, 109210, Note_off_c, 0, 57, 64
1, 109382, Note_on_c, 0, 66, 32
1, 109628, Note_on_c, 0, 61, 56
1, 109648, Note_off_c, 0, 66, 64
1, 109838, Note_off_c, 0, 61, 64
1, 109918, Note_on_c, 0, 54, 30
1, 109982, Note_off_c, 0, 54, 64
1, 110144, Note_on_c, 0, 49, 42
1, 110216, Note_off_c, 0, 49, 64
1, 110406, Note_on_c, 0, 66, 21
1, 110532, Note_off_c, 0, 66, 64
1, 110702, Note_on_c, 0, 57, 31
1, 110976, Note_on_c, 0, 66, 22
1, 111340, Note_on_c, 0, 62, 40
1, 111388, Control_c, 0, 64, 0
1, 111572, Control_c, 0, 64, 127
1, 111626, Note_off_c, 0, 57, 64
1, 111629, Note_off_c, 0, 66, 64
1, 111682, Note_off_c, 0, 62, 64
1, 111724, Note_on_c, 0, 54, 27
1, 111806, Note_off_c, 0, 54, 64
1, 111998, Note_on_c, 0, 49, 31
1, 112090, Note_on_c, 0, 70, 35
1, 112122, Note_off_c, 0, 49, 64
1, 112150, Note_off_c, 0, 69, 64
1, 112322, Note_on_c, 0, 66, 21
1, 112502, Note_off_c, 0, 66, 64
1, 112612, Note_on_c, 0, 58, 22
1, 112876, Note_on_c, 0, 66, 15
1, 113170, Note_on_c, 0, 63, 39
1, 113232, Control_c, 0, 64, 0
1, 113416, Control_c, 0, 64, 127
1, 113438, Note_off_c, 0, 66, 64
1, 113470, Note_off_c, 0, 63, 64
1, 113480, Note_off_c, 0, 58, 64
1, 113492, Note_on_c, 0, 54, 32
1, 113604, Note_off_c, 0, 54, 64
1, 113664, Note_off_c, 0, 70, 64
1, 113776, Note_on_c, 0, 49, 40
1, 113934, Note_off_c, 0, 49, 64
1, 114160, Note_on_c, 0, 84, 83
1, 114190, Note_on_c, 0, 66, 18
1, 114372, Note_off_c, 0, 66, 64
1, 114538, Note_on_c, 0, 82, 76
1, 114578, Note_on_c, 0, 58, 24
1, 114622, Note_off_c, 0, 84, 64
1, 114834, Note_on_c, 0, 77, 85
1, 114840, Note_on_c, 0, 66, 27
1, 114902, Note_off_c, 0, 82, 64
1, 114934, Note_off_c, 0, 58, 64
1, 114982, Note_off_c, 0, 66, 64
1, 115124, Note_on_c, 0, 80, 84
1, 115148, Note_on_c, 0, 63, 32
1, 115178, Note_off_c, 0, 77, 64
1, 115214, Note_off_c, 0, 63, 64
1, 115400, Note_on_c, 0, 78, 82
1, 115428, Note_on_c, 0, 54, 46
1, 115506, Note_off_c, 0, 54, 64
1, 115522, Note_off_c, 0, 80, 64
1, 115834, Note_on_c, 0, 77, 68
1, 115844, Control_c, 0, 64, 0
1, 115856, Note_on_c, 0, 48, 33
1, 115888, Note_off_c, 0, 78, 64
1, 116058, Control_c, 0, 64, 127
1, 116070, Note_off_c, 0, 48, 64
1, 116270, Note_on_c, 0, 66, 25
1, 116498, Note_off_c, 0, 66, 64
1, 116568, Note_on_c, 0, 57, 35
1, 116812, Note_off_c, 0, 57, 64
1, 116824, Note_on_c, 0, 66, 34
1, 116970, Note_off_c, 0, 66, 64
1, 117078, Note_on_c, 0, 63, 28
1, 117080, Note_on_c, 0, 75, 55
1, 117150, Note_off_c, 0, 63, 64
1, 117320, Note_off_c, 0, 77, 64
1, 117324, Note_on_c, 0, 54, 49
1, 117434, Note_off_c, 0, 54, 64
1, 117616, Note_on_c, 0, 46, 62
1, 117656, Control_c, 0, 64, 0
1, 117842, Control_c, 0, 64, 127
1, 117850, Note_off_c, 0, 46, 64
1, 117944, Note_on_c, 0, 74, 78
1, 117966, Note_on_c, 0, 66, 49
1, 118020, Note_off_c, 0, 75, 64
1, 118208, Note_off_c, 0, 66, 64
1, 118286, Note_on_c, 0, 75, 83
1, 118300, Note_on_c, 0, 58, 39
1, 118348, Note_off_c, 0, 74, 64
1, 118544, Note_on_c, 0, 76, 94
1, 118544, Note_on_c, 0, 66, 41
1, 118618, Note_off_c, 0, 75, 64
1, 118764, Note_on_c, 0, 63, 46
1, 118800, Note_on_c, 0, 77, 89
1, 118842, Note_off_c, 0, 76, 64
1, 118992, Note_off_c, 0, 66, 64
1, 119036, Note_off_c, 0, 77, 64
1, 119076, Note_off_c, 0, 63, 64
1, 119110, Note_on_c, 0, 54, 52
1, 119146, Note_off_c, 0, 58, 64
1, 119180, Note_off_c, 0, 54, 64
1, 119250, Note_on_c, 0, 78, 86
1, 119290, Note_off_c, 0, 78, 64
1, 119382, Note_on_c, 0, 78, 73
1, 119462, Note_on_c, 0, 45, 42
1, 119532, Control_c, 0, 64, 0
1, 119656, Note_on_c, 0, 90, 82
1, 119684, Note_off_c, 0, 78, 64
1, 119794, Control_c, 0, 64, 127
1, 119816, Note_off_c, 0, 45, 64
1, 120006, Note_on_c, 0, 66, 40
1, 120244, Note_off_c, 0, 66, 64
1, 120306, Note_on_c, 0, 57, 29
1, 120558, Note_on_c, 0, 87, 61
1, 120692, Note_on_c, 0, 66, 34
1, 120716, Note_off_c, 0, 90, 64
1, 120730, Note_off_c, 0, 57, 64
1, 120834, Note_on_c, 0, 85, 73
1, 120848, Note_off_c, 0, 66, 64
1, 120898, Note_off_c, 0, 87, 64
1, 121040, Note_on_c, 0, 61, 27
1, 121096, Note_off_c, 0, 85, 64
1, 121104, Note_on_c, 0, 81, 66
1, 121146, Note_off_c, 0, 61, 64
1, 121328, Note_on_c, 0, 78, 61
1, 121350, Note_off_c, 0, 81, 64
1, 121428, Note_on_c, 0, 51, 21
1, 121528, Note_on_c, 0, 75, 66
1, 121560, Note_off_c, 0, 51, 64
1, 121570, Note_off_c, 0, 78, 64
1, 121712, Note_on_c, 0, 44, 45
1, 121774, Control_c, 0, 64, 0
1, 121828, Note_on_c, 0, 72, 55
1, 121850, Note_off_c, 0, 75, 64
1, 121970, Note_off_c, 0, 44, 64
1, 121990, Control_c, 0, 64, 127
1, 122058, Note_off_c, 0, 72, 64
1, 122160, Note_on_c, 0, 66, 26
1, 122312, Note_on_c, 0, 68, 45
1, 122342, Note_off_c, 0, 66, 64
1, 122426, Note_off_c, 0, 68, 64
1, 122494, Note_on_c, 0, 75, 44
1, 122558, Note_on_c, 0, 56, 27
1, 122590, Note_off_c, 0, 75, 64
1, 122668, Note_on_c, 0, 84, 41
1, 122726, Note_off_c, 0, 84, 64
1, 122768, Note_on_c, 0, 69, 61
1, 122824, Note_off_c, 0, 69, 64
1, 122878, Note_on_c, 0, 66, 26
1, 122888, Note_on_c, 0, 76, 71
1, 122968, Note_on_c, 0, 85, 65
1, 122972, Note_off_c, 0, 76, 64
1, 123018, Note_off_c, 0, 85, 64
1, 123052, Note_on_c, 0, 80, 17
1, 123084, Note_on_c, 0, 70, 76
1, 123134, Note_off_c, 0, 80, 64
1, 123150, Note_off_c, 0, 66, 64
1, 123166, Note_off_c, 0, 70, 64
1, 123166, Note_on_c, 0, 60, 42
1, 123200, Note_on_c, 0, 77, 83
1, 123242, Note_off_c, 0, 77, 64
1, 123278, Note_off_c, 0, 60, 64
1, 123294, Note_on_c, 0, 86, 79
1, 123332, Note_off_c, 0, 86, 64
1, 123430, Note_on_c, 0, 71, 85
1, 123478, Note_off_c, 0, 71, 64
1, 123482, Note_on_c, 0, 51, 48
1, 123490, Note_off_c, 0, 56, 64
1, 123534, Note_on_c, 0, 78, 80
1, 123648, Note_on_c, 0, 87, 81
1, 123682, Note_off_c, 0, 51, 64
1, 123718, Note_off_c, 0, 87, 64
1, 123720, Note_off_c, 0, 78, 64
1, 123778, Note_on_c, 0, 72, 79
1, 123864, Note_off_c, 0, 72, 64
1, 123906, Note_on_c, 0, 79, 92
1, 123909, Note_on_c, 0, 37, 56
1, 123942, Control_c, 0, 64, 0
1, 124126, Note_off_c, 0, 37, 64
1, 124140, Control_c, 0, 64, 127
1, 124210, Note_on_c, 0, 88, 91
1, 124528, Note_on_c, 0, 68, 48
1, 124858, Note_off_c, 0, 68, 64
1, 124916, Note_on_c, 0, 56, 58
1, 125178, Note_off_c, 0, 79, 64
1, 125234, Note_on_c, 0, 89, 92
1, 125234, Note_on_c, 0, 68, 44
1, 125237, Note_on_c, 0, 80, 82
1, 125348, Note_off_c, 0, 80, 64
1, 125364, Note_off_c, 0, 88, 64
1, 125384, Note_off_c, 0, 89, 64
1, 125590, Note_on_c, 0, 61, 42
1, 125658, Note_on_c, 0, 80, 73
1, 125664, Note_on_c, 0, 89, 89
1, 125720, Note_off_c, 0, 61, 64
1, 125836, Note_off_c, 0, 68, 64
1, 125930, Note_off_c, 0, 80, 64
1, 125940, Note_on_c, 0, 90, 70
1, 125954, Note_on_c, 0, 82, 53
1, 125960, Note_off_c, 0, 89, 64
1, 126076, Note_off_c, 0, 82, 64
1, 126092, Note_off_c, 0, 90, 64
1, 126102, Note_off_c, 0, 56, 64
1, 126144, Note_on_c, 0, 53, 59
1, 126206, Note_off_c, 0, 53, 64
1, 126306, Note_on_c, 0, 80, 78
1, 126310, Note_on_c, 0, 89, 84
1, 126346, Note_off_c, 0, 80, 64
1, 126349, Note_off_c, 0, 89, 64
1, 126444, Note_on_c, 0, 80, 48
1, 126447, Note_on_c, 0, 89, 48
1, 126534, Note_on_c, 0, 49, 37
1, 126600, Note_off_c, 0, 89, 64
1, 126620, Note_on_c, 0, 85, 78
1, 126623, Note_on_c, 0, 77, 72
1, 126646, Control_c, 0, 64, 0
1, 126678, Note_off_c, 0, 80, 64
1, 126814, Control_c, 0, 64, 127
1, 126819, Note_off_c, 0, 49, 64
1, 126880, Note_off_c, 0, 77, 64
1, 126883, Note_off_c, 0, 85, 64
1, 126980, Note_on_c, 0, 65, 29
1, 127138, Note_off_c, 0, 65, 64
1, 127306, Note_on_c, 0, 56, 31
1, 127590, Note_on_c, 0, 65, 26
1, 127598, Note_off_c, 0, 56, 64
1, 127820, Note_off_c, 0, 65, 64
1, 127840, Note_on_c, 0, 61, 36
1, 128096, Note_off_c, 0, 61, 64
1, 128186, Note_on_c, 0, 56, 26
1, 128250, Note_off_c, 0, 56, 64
1, 128602, Note_on_c, 0, 49, 29
1, 128616, Note_on_c, 0, 76, 27
1, 128856, Note_on_c, 0, 85, 2
1, 128942, Note_on_c, 0, 64, 33
1, 129026, Control_c, 0, 64, 0
1, 129196, Control_c, 0, 64, 127
1, 129200, Note_off_c, 0, 64, 64
1, 129220, Note_on_c, 0, 78, 42
1, 129220, Note_on_c, 0, 86, 59
1, 129258, Note_on_c, 0, 52, 41
1, 129266, Note_off_c, 0, 85, 64
1, 129328, Note_off_c, 0, 49, 64
1, 129348, Note_off_c, 0, 76, 64
1, 129422, Note_off_c, 0, 52, 64
1, 129506, Note_off_c, 0, 86, 64
1, 129514, Note_on_c, 0, 64, 23
1, 129634, Note_off_c, 0, 64, 64
1, 129792, Note_on_c, 0, 73, 47
1, 129795, Note_on_c, 0, 81, 71
1, 129806, Note_on_c, 0, 57, 25
1, 129826, Note_off_c, 0, 78, 64
1, 129982, Note_off_c, 0, 57, 64
1, 129988, Note_off_c, 0, 73, 64
1, 130026, Note_on_c, 0, 52, 54
1, 130186, Note_off_c, 0, 52, 64
1, 130218, Note_on_c, 0, 85, 76
1, 130223, Note_off_c, 0, 81, 64
1, 130231, Note_on_c, 0, 76, 52
1, 130254, Note_on_c, 0, 50, 39
1, 130272, Control_c, 0, 64, 0
1, 130386, Note_off_c, 0, 85, 64
1, 130410, Control_c, 0, 64, 127
1, 130418, Note_on_c, 0, 83, 78
1, 130422, Note_off_c, 0, 76, 64
1, 130460, Note_on_c, 0, 85, 62
1, 130462, Note_off_c, 0, 83, 64
1, 130522, Note_on_c, 0, 83, 103
1, 130538, Note_on_c, 0, 64, 35
1, 130544, Note_on_c, 0, 74, 57
1, 130606, Note_off_c, 0, 74, 64
1, 130618, Note_off_c, 0, 85, 64
1, 130710, Note_off_c, 0, 64, 64
1, 130762, Note_on_c, 0, 73, 68
1, 130770, Note_on_c, 0, 82, 75
1, 130794, Note_on_c, 0, 52, 36
1, 130808, Note_off_c, 0, 83, 64
1, 130898, Note_off_c, 0, 73, 64
1, 130994, Note_on_c, 0, 83, 103
1, 130997, Note_on_c, 0, 74, 76
1, 131028, Note_on_c, 0, 64, 36
1, 131050, Note_off_c, 0, 74, 64
1, 131074, Note_off_c, 0, 82, 64
1, 131174, Note_off_c, 0, 52, 64
1, 131256, Note_on_c, 0, 56, 38
1, 131270, Note_on_c, 0, 85, 74
1, 131276, Note_on_c, 0, 76, 49
1, 131278, Note_off_c, 0, 83, 64
1, 131316, Control_c, 0, 64, 0
1, 131394, Note_off_c, 0, 64, 64
1, 131456, Note_off_c, 0, 76, 64
1, 131468, Note_off_c, 0, 85, 64
1, 131486, Control_c, 0, 64, 127
1, 131538, Note_off_c, 0, 50, 64
1, 131574, Note_on_c, 0, 52, 48
1, 131658, Note_off_c, 0, 52, 64
1, 131672, Note_on_c, 0, 80, 69
1, 131676, Note_on_c, 0, 71, 58
1, 131748, Note_off_c, 0, 71, 64
1, 131752, Note_off_c, 0, 56, 64
1, 131874, Note_on_c, 0, 49, 31
1, 131928, Note_on_c, 0, 83, 93
1, 131936, Note_on_c, 0, 74, 43
1, 131946, Control_c, 0, 64, 0
1, 131952, Note_off_c, 0, 80, 64
1, 132132, Control_c, 0, 64, 127
1, 132146, Note_off_c, 0, 49, 64
1, 132168, Note_off_c, 0, 74, 64
1, 132170, Note_off_c, 0, 83, 64
1, 132226, Note_on_c, 0, 64, 35
1, 132340, Note_off_c, 0, 64, 64
1, 132492, Note_on_c, 0, 52, 50
1, 132720, Note_off_c, 0, 52, 64
1, 132732, Note_on_c, 0, 64, 45
1, 132834, Note_on_c, 0, 81, 79
1, 132838, Note_on_c, 0, 73, 70
1, 132908, Note_off_c, 0, 73, 64
1, 132928, Note_off_c, 0, 81, 64
1, 133006, Note_off_c, 0, 64, 64
1, 133064, Note_on_c, 0, 81, 68
1, 133076, Note_on_c, 0, 73, 57
1, 133092, Note_on_c, 0, 57, 32
1, 133138, Note_off_c, 0, 73, 64
1, 133266, Note_off_c, 0, 81, 64
1, 133330, Note_off_c, 0, 57, 64
1, 133330, Note_on_c, 0, 80, 62
1, 133333, Note_on_c, 0, 73, 58
1, 133398, Note_off_c, 0, 73, 64
1, 133476, Note_on_c, 0, 52, 31
1, 133481, Note_off_c, 0, 80, 64
1, 133542, Note_off_c, 0, 52, 64
1, 133570, Note_on_c, 0, 73, 53
1, 133570, Note_on_c, 0, 78, 58
1, 133684, Note_off_c, 0, 73, 64
1, 133696, Note_off_c, 0, 78, 64
1, 133838, Note_on_c, 0, 44, 36
1, 133882, Control_c, 0, 64, 0
1, 133914, Note_on_c, 0, 76, 59
1, 133918, Note_on_c, 0, 74, 60
1, 134094, Note_off_c, 0, 44, 64
1, 134098, Control_c, 0, 64, 127
1, 134266, Note_on_c, 0, 64, 38
1, 134406, Note_off_c, 0, 64, 64
1, 134564, Note_on_c, 0, 52, 45
1, 134598, Note_off_c, 0, 74, 64
1, 134632, Note_off_c, 0, 76, 64
1, 134748, Note_off_c, 0, 52, 64
1, 134858, Note_on_c, 0, 76, 65
1, 134860, Note_on_c, 0, 70, 57
1, 134902, Note_on_c, 0, 64, 39
1, 134984, Note_off_c, 0, 76, 64
1, 135042, Note_off_c, 0, 70, 64
1, 135072, Note_off_c, 0, 64, 64
1, 135170, Note_on_c, 0, 76, 73
1, 135173, Note_on_c, 0, 71, 80
1, 135186, Note_on_c, 0, 62, 47
1, 135250, Note_off_c, 0, 62, 64
1, 135256, Note_off_c, 0, 71, 64
1, 135300, Note_off_c, 0, 76, 64
1, 135438, Note_on_c, 0, 76, 81
1, 135442, Note_on_c, 0, 72, 81
1, 135452, Note_on_c, 0, 52, 53
1, 135500, Note_off_c, 0, 52, 64
1, 135558, Note_off_c, 0, 72, 64
1, 135584, Note_off_c, 0, 76, 64
1, 135712, Control_c, 0, 64, 0
1, 135712, Note_on_c, 0, 73, 72
1, 135713, Note_on_c, 0, 76, 81
1, 135734, Note_on_c, 0, 45, 42
1, 135870, Note_off_c, 0, 45, 64
1, 135896, Control_c, 0, 64, 127
1, 136008, Note_on_c, 0, 64, 52
1, 136082, Note_off_c, 0, 64, 64
1, 136258, Note_on_c, 0, 57, 40
1, 136504, Note_off_c, 0, 57, 64
1, 136528, Note_on_c, 0, 64, 46
1, 136730, Note_off_c, 0, 64, 64
1, 136778, Note_on_c, 0, 78, 65
1, 136784, Note_on_c, 0, 74, 60
1, 136787, Note_on_c, 0, 61, 38
1, 136790, Note_off_c, 0, 73, 64
1, 136819, Note_off_c, 0, 76, 64
1, 136982, Note_off_c, 0, 61, 64
1, 137114, Note_on_c, 0, 52, 49
1, 137124, Note_off_c, 0, 78, 64
1, 137140, Note_off_c, 0, 74, 64
1, 137162, Note_off_c, 0, 52, 64
1, 137182, Note_on_c, 0, 69, 49
1, 137186, Note_on_c, 0, 73, 51
1, 137242, Note_off_c, 0, 69, 64
1, 137282, Note_off_c, 0, 73, 64
1, 137406, Note_on_c, 0, 73, 56
1, 137416, Note_on_c, 0, 68, 53
1, 137460, Note_off_c, 0, 73, 64
1, 137478, Note_on_c, 0, 40, 58
1, 137508, Control_c, 0, 64, 0
1, 137632, Note_on_c, 0, 76, 64
1, 137637, Note_on_c, 0, 73, 52
1, 137668, Note_off_c, 0, 68, 64
1, 137692, Control_c, 0, 64, 127
1, 137748, Note_off_c, 0, 40, 64
1, 137944, Note_on_c, 0, 64, 46
1, 137953, Note_off_c, 0, 73, 64
1, 137958, Note_off_c, 0, 76, 64
1, 138014, Note_off_c, 0, 64, 64
1, 138032, Note_on_c, 0, 74, 68
1, 138034, Note_on_c, 0, 71, 66
1, 138069, Note_off_c, 0, 74, 64
1, 138078, Note_off_c, 0, 71, 64
1, 138158, Note_on_c, 0, 74, 59
1, 138161, Note_on_c, 0, 71, 56
1, 138186, Note_on_c, 0, 56, 38
1, 138228, Note_off_c, 0, 74, 64
1, 138244, Note_on_c, 0, 76, 63
1, 138308, Note_on_c, 0, 74, 71
1, 138354, Note_off_c, 0, 76, 64
1, 138396, Note_off_c, 0, 71, 64
1, 138446, Note_off_c, 0, 74, 64
1, 138452, Note_on_c, 0, 70, 43
1, 138454, Note_on_c, 0, 73, 64
1, 138478, Note_on_c, 0, 64, 44
1, 138532, Note_off_c, 0, 70, 64
1, 138594, Note_on_c, 0, 74, 64
1, 138600, Note_off_c, 0, 73, 64
1, 138600, Note_on_c, 0, 71, 51
1, 138634, Note_off_c, 0, 74, 64
1, 138654, Note_off_c, 0, 71, 64
1, 138728, Note_on_c, 0, 71, 56
1, 138728, Note_on_c, 0, 74, 42
1, 138768, Control_c, 0, 64, 0
1, 138776, Note_on_c, 0, 62, 34
1, 138828, Note_off_c, 0, 71, 64
1, 138860, Note_off_c, 0, 74, 64
1, 138906, Note_off_c, 0, 64, 64
1, 138922, Control_c, 0, 64, 127
1, 138922, Note_on_c, 0, 76, 48
1, 138924, Note_on_c, 0, 73, 42
1, 138988, Note_off_c, 0, 62, 64
1, 139094, Note_off_c, 0, 76, 64
1, 139128, Note_off_c, 0, 73, 64
1, 139148, Note_on_c, 0, 52, 33
1, 139194, Note_off_c, 0, 56, 64
1, 139210, Note_off_c, 0, 52, 64
1, 139312, Note_on_c, 0, 71, 63
1, 139317, Note_on_c, 0, 68, 36
1, 139378, Note_off_c, 0, 71, 64
1, 139379, Note_off_c, 0, 68, 64
1, 139506, Control_c, 0, 64, 0
1, 139524, Note_on_c, 0, 74, 70
1, 139530, Note_on_c, 0, 71, 49
1, 139538, Note_on_c, 0, 45, 28
1, 139706, Control_c, 0, 64, 127
1, 139714, Note_off_c, 0, 45, 64
1, 139842, Note_on_c, 0, 64, 54
1, 139976, Note_off_c, 0, 71, 64
1, 140078, Note_off_c, 0, 64, 64
1, 140088, Note_on_c, 0, 73, 73
1, 140091, Note_on_c, 0, 69, 51
1, 140102, Note_on_c, 0, 57, 34
1, 140104, Note_off_c, 0, 74, 64
1, 140394, Note_on_c, 0, 64, 58
1, 140476, Note_off_c, 0, 69, 64
1, 140524, Note_off_c, 0, 73, 64
1, 140722, Note_on_c, 0, 73, 67
1, 140727, Note_on_c, 0, 61, 43
1, 140727, Note_on_c, 0, 81, 84
1, 140766, Note_off_c, 0, 64, 64
1, 140948, Note_off_c, 0, 57, 64
1, 140960, Note_off_c, 0, 61, 64
1, 141036, Note_on_c, 0, 52, 59
1, 141122, Note_off_c, 0, 52, 64
1, 141360, Note_on_c, 0, 39, 82
1, 141382, Control_c, 0, 64, 0
1, 141588, Note_off_c, 0, 39, 64
1, 141596, Control_c, 0, 64, 127
1, 141730, Note_on_c, 0, 66, 57
1, 141842, Note_off_c, 0, 81, 64
1, 141862, Note_off_c, 0, 73, 64
1, 141954, Note_off_c, 0, 66, 64
1, 142078, Note_on_c, 0, 81, 92
1, 142078, Note_on_c, 0, 73, 69
1, 142086, Note_on_c, 0, 57, 46
1, 142348, Note_on_c, 0, 66, 45
1, 142422, Note_off_c, 0, 73, 64
1, 142452, Note_off_c, 0, 81, 64
1, 142520, Note_off_c, 0, 66, 64
1, 142602, Note_on_c, 0, 81, 97
1, 142616, Note_on_c, 0, 73, 67
1, 142616, Note_on_c, 0, 61, 57
1, 142708, Note_off_c, 0, 61, 64
1, 142784, Note_off_c, 0, 73, 64
1, 142800, Note_off_c, 0, 57, 64
1, 142872, Note_on_c, 0, 51, 48
1, 142986, Note_off_c, 0, 51, 64
1, 143172, Note_on_c, 0, 80, 89
1, 143180, Note_on_c, 0, 44, 65
1, 143186, Note_on_c, 0, 73, 57
1, 143216, Note_off_c, 0, 81, 64
1, 143224, Control_c, 0, 64, 0
1, 143402, Note_off_c, 0, 44, 64
1, 143407, Control_c, 0, 64, 127
1, 143528, Note_on_c, 0, 66, 62
1, 143750, Note_off_c, 0, 66, 64
1, 143754, Note_on_c, 0, 81, 88
1, 143758, Note_on_c, 0, 56, 60
1, 143834, Note_off_c, 0, 80, 64
1, 144016, Note_on_c, 0, 66, 49
1, 144234, Note_off_c, 0, 66, 64
1, 144308, Note_on_c, 0, 61, 57
1, 144506, Note_off_c, 0, 61, 64
1, 144596, Note_off_c, 0, 56, 64
1, 144598, Note_on_c, 0, 80, 76
1, 144624, Note_on_c, 0, 51, 37
1, 144632, Note_off_c, 0, 81, 64
1, 144698, Note_off_c, 0, 51, 64
1, 144764, Note_off_c, 0, 80, 64
1, 144864, Note_on_c, 0, 78, 72
1, 144882, Note_on_c, 0, 44, 68
1, 144900, Control_c, 0, 64, 0
1, 144996, Note_off_c, 0, 73, 64
1, 145052, Control_c, 0, 64, 127
1, 145054, Note_off_c, 0, 44, 64
1, 145094, Note_on_c, 0, 75, 73
1, 145178, Note_on_c, 0, 66, 55
1, 145278, Note_on_c, 0, 73, 77
1, 145322, Note_off_c, 0, 75, 64
1, 145362, Note_off_c, 0, 66, 64
1, 145440, Note_on_c, 0, 72, 84
1, 145446, Note_on_c, 0, 56, 48
1, 145458, Note_off_c, 0, 78, 64
1, 145478, Note_off_c, 0, 73, 64
1, 145610, Note_on_c, 0, 76, 87
1, 145688, Note_on_c, 0, 66, 42
1, 145766, Note_on_c, 0, 78, 90
1, 145820, Note_off_c, 0, 76, 64
1, 145836, Control_c, 0, 64, 0
1, 145910, Note_on_c, 0, 80, 90
1, 145934, Note_off_c, 0, 78, 64
1, 145942, Note_on_c, 0, 60, 49
1, 145956, Note_off_c, 0, 66, 64
1, 145974, Control_c, 0, 64, 127
1, 146030, Note_off_c, 0, 60, 64
1, 146032, Note_off_c, 0, 72, 64
1, 146094, Note_off_c, 0, 80, 64
1, 146172, Note_on_c, 0, 51, 65
1, 146212, Note_off_c, 0, 56, 64
1, 146282, Note_off_c, 0, 51, 64
1, 146292, Note_on_c, 0, 72, 87
1, 146294, Note_on_c, 0, 75, 88
1, 146392, Note_off_c, 0, 75, 64
1, 146452, Note_on_c, 0, 44, 70
1, 146458, Note_on_c, 0, 75, 79
1, 146458, Note_on_c, 0, 78, 89
1, 146512, Control_c, 0, 64, 0
1, 146534, Note_off_c, 0, 72, 64
1, 146660, Note_off_c, 0, 44, 64
1, 146680, Control_c, 0, 64, 127
1, 146762, Note_on_c, 0, 64, 67
1, 146936, Note_off_c, 0, 64, 64
1, 147002, Note_on_c, 0, 56, 67
1, 147056, Note_off_c, 0, 75, 64
1, 147098, Note_on_c, 0, 73, 78
1, 147102, Note_off_c, 0, 78, 64
1, 147108, Note_on_c, 0, 76, 88
1, 147222, Note_off_c, 0, 73, 64
1, 147250, Note_off_c, 0, 76, 64
1, 147312, Note_on_c, 0, 64, 77
1, 147428, Note_on_c, 0, 85, 101
1, 147438, Note_on_c, 0, 76, 88
1, 147474, Note_off_c, 0, 76, 64
1, 147524, Note_off_c, 0, 85, 64
1, 147622, Note_on_c, 0, 85, 85
1, 147626, Note_on_c, 0, 76, 79
1, 147634, Note_on_c, 0, 61, 52
1, 147796, Note_off_c, 0, 76, 64
1, 147836, Note_off_c, 0, 85, 64
1, 147852, Note_off_c, 0, 64, 64
1, 147860, Note_on_c, 0, 83, 106
1, 147860, Note_on_c, 0, 80, 80
1, 147946, Note_off_c, 0, 61, 64
1, 147948, Note_off_c, 0, 83, 64
1, 147964, Note_off_c, 0, 80, 64
1, 147984, Note_off_c, 0, 56, 64
1, 148044, Note_on_c, 0, 52, 80
1, 148104, Note_off_c, 0, 52, 64
1, 148188, Note_on_c, 0, 81, 92
1, 148188, Note_on_c, 0, 78, 81
1, 148362, Note_off_c, 0, 78, 64
1, 148402, Note_on_c, 0, 80, 89
1, 148404, Note_on_c, 0, 76, 82
1, 148414, Note_on_c, 0, 32, 86
1, 148428, Note_off_c, 0, 81, 64
1, 148464, Control_c, 0, 64, 0
1, 148618, Note_off_c, 0, 80, 64
1, 148618, Note_off_c, 0, 32, 64
1, 148618, Control_c, 0, 64, 127
1, 148682, Note_on_c, 0, 68, 82
1, 148684, Note_on_c, 0, 80, 81
1, 148754, Note_off_c, 0, 76, 64
1, 148794, Note_off_c, 0, 68, 64
1, 148828, Note_off_c, 0, 80, 64
1, 148836, Note_on_c, 0, 64, 71
1, 148927, Note_on_c, 0, 80, 83
1, 148931, Note_on_c, 0, 69, 85
1, 148978, Note_off_c, 0, 69, 64
1, 149010, Note_off_c, 0, 80, 64
1, 149044, Note_off_c, 0, 64, 64
1, 149130, Note_on_c, 0, 70, 85
1, 149138, Note_on_c, 0, 56, 62
1, 149141, Note_on_c, 0, 80, 93
1, 149236, Note_off_c, 0, 70, 64
1, 149238, Note_off_c, 0, 80, 64
1, 149318, Note_on_c, 0, 80, 88
1, 149326, Note_on_c, 0, 71, 100
1, 149366, Note_off_c, 0, 71, 64
1, 149428, Note_off_c, 0, 80, 64
1, 149442, Note_on_c, 0, 64, 76
1, 149472, Note_on_c, 0, 72, 100
1, 149472, Note_on_c, 0, 80, 103
1, 149530, Note_off_c, 0, 72, 64
1, 149570, Note_off_c, 0, 80, 64
1, 149616, Note_on_c, 0, 80, 100
1, 149616, Note_on_c, 0, 73, 97
1, 149664, Note_off_c, 0, 64, 64
1, 149702, Note_off_c, 0, 80, 64
1, 149714, Note_off_c, 0, 73, 64
1, 149714, Note_on_c, 0, 61, 59
1, 149786, Note_on_c, 0, 80, 88
1, 149794, Note_on_c, 0, 74, 106
1, 149836, Note_off_c, 0, 74, 64
1, 149858, Note_off_c, 0, 56, 64
1, 149861, Note_off_c, 0, 80, 64
1, 149936, Note_on_c, 0, 80, 86
1, 149936, Note_on_c, 0, 75, 97
1, 149958, Note_on_c, 0, 52, 74
1, 149978, Note_off_c, 0, 75, 64
1, 150002, Note_off_c, 0, 61, 64
1, 150034, Note_off_c, 0, 80, 64
1, 150062, Note_on_c, 0, 76, 94
1, 150064, Note_on_c, 0, 80, 69
1, 150096, Note_off_c, 0, 76, 64
1, 150102, Note_off_c, 0, 52, 64
1, 150102, Note_off_c, 0, 80, 64
1, 150180, Note_on_c, 0, 77, 103
1, 150184, Note_on_c, 0, 80, 88
1, 150244, Note_off_c, 0, 77, 64
1, 150244, Note_off_c, 0, 80, 64
1, 150288, Note_on_c, 0, 78, 96
1, 150288, Note_on_c, 0, 80, 103
1, 150296, Note_on_c, 0, 44, 96
1, 150322, Control_c, 0, 64, 0
1, 150490, Note_off_c, 0, 44, 64
1, 150490, Control_c, 0, 64, 127
1, 150576, Note_on_c, 0, 63, 79
1, 150624, Note_off_c, 0, 78, 64
1, 150772, Note_on_c, 0, 83, 110
1, 150777, Note_off_c, 0, 80, 64
1, 150802, Note_on_c, 0, 54, 81
1, 150804, Note_on_c, 0, 78, 92
1, 150808, Note_on_c, 0, 81, 97
1, 150814, Note_off_c, 0, 63, 64
1, 150936, Note_off_c, 0, 83, 64
1, 151030, Note_on_c, 0, 63, 87
1, 151082, Note_off_c, 0, 78, 64
1, 151166, Note_off_c, 0, 81, 64
1, 151202, Note_off_c, 0, 63, 64
1, 151224, Note_on_c, 0, 80, 100
1, 151224, Note_on_c, 0, 78, 90
1, 151234, Note_on_c, 0, 60, 79
1, 151292, Note_off_c, 0, 54, 64
1, 151340, Note_off_c, 0, 78, 64
1, 151364, Note_off_c, 0, 60, 64
1, 151448, Note_on_c, 0, 51, 83
1, 151546, Note_off_c, 0, 51, 64
1, 151688, Note_off_c, 0, 80, 64
1, 151726, Note_on_c, 0, 87, 92
1, 151726, Note_on_c, 0, 78, 86
1, 151734, Note_on_c, 0, 32, 97
1, 151794, Note_off_c, 0, 32, 64
1, 152062, Note_on_c, 0, 63, 83
1, 152100, Note_off_c, 0, 78, 64
1, 152184, Note_off_c, 0, 87, 64
1, 152260, Note_on_c, 0, 80, 97
1, 152264, Note_off_c, 0, 63, 64
1, 152264, Note_on_c, 0, 76, 92
1, 152272, Note_on_c, 0, 54, 90
1, 152492, Note_on_c, 0, 63, 92
1, 152502, Note_off_c, 0, 76, 64
1, 152560, Note_off_c, 0, 80, 64
1, 152626, Note_off_c, 0, 63, 64
1, 152678, Note_on_c, 0, 80, 98
1, 152682, Note_on_c, 0, 75, 87
1, 152684, Note_off_c, 0, 54, 64
1, 152688, Note_on_c, 0, 60, 77
1, 152824, Note_off_c, 0, 60, 64
1, 152880, Note_on_c, 0, 51, 79
1, 152902, Note_off_c, 0, 80, 64
1, 152994, Note_off_c, 0, 51, 64
1, 152997, Note_off_c, 0, 75, 64
1, 153156, Note_on_c, 0, 80, 95
1, 153159, Note_on_c, 0, 45, 100
1, 153164, Note_on_c, 0, 75, 78
1, 153180, Control_c, 0, 64, 0
1, 153380, Control_c, 0, 64, 127
1, 153390, Note_off_c, 0, 45, 64
1, 153486, Note_on_c, 0, 63, 83
1, 153726, Note_off_c, 0, 63, 64
1, 153729, Note_on_c, 0, 54, 84
1, 153942, Note_on_c, 0, 63, 73
1, 154072, Note_off_c, 0, 63, 64
1, 154150, Note_on_c, 0, 78, 91
1, 154164, Note_on_c, 0, 60, 72
1, 154238, Note_off_c, 0, 80, 64
1, 154242, Note_off_c, 0, 54, 64
1, 154272, Note_off_c, 0, 60, 64
1, 154380, Note_on_c, 0, 51, 70
1, 154426, Note_off_c, 0, 51, 64
1, 154652, Note_on_c, 0, 33, 105
1, 154758, Note_off_c, 0, 33, 64
1, 154950, Note_off_c, 0, 78, 64
1, 154976, Note_off_c, 0, 75, 64
1, 154976, Note_on_c, 0, 63, 78
1, 155142, Note_off_c, 0, 63, 64
1, 155170, Note_on_c, 0, 78, 101
1, 155170, Note_on_c, 0, 75, 72
1, 155170, Note_on_c, 0, 72, 96
1, 155176, Note_on_c, 0, 54, 90
1, 155382, Note_on_c, 0, 63, 74
1, 155418, Note_off_c, 0, 72, 64
1, 155442, Note_off_c, 0, 78, 64
1, 155462, Note_off_c, 0, 75, 64
1, 155568, Note_off_c, 0, 63, 64
1, 155574, Note_on_c, 0, 78, 100
1, 155577, Note_on_c, 0, 75, 88
1, 155580, Note_on_c, 0, 71, 101
1, 155586, Note_on_c, 0, 59, 81
1, 155698, Note_off_c, 0, 54, 64
1, 155744, Note_off_c, 0, 71, 64
1, 155770, Note_off_c, 0, 59, 64
1, 155778, Note_on_c, 0, 51, 83
1, 155798, Note_off_c, 0, 75, 64
1, 155802, Note_off_c, 0, 78, 64
1, 155862, Note_off_c, 0, 51, 64
1, 155978, Note_on_c, 0, 78, 101
1, 155980, Note_on_c, 0, 70, 97
1, 155982, Note_on_c, 0, 46, 98
1, 155990, Note_on_c, 0, 75, 83
1, 156008, Control_c, 0, 64, 0
1, 156176, Control_c, 0, 64, 127
1, 156184, Note_off_c, 0, 70, 64
1, 156196, Note_off_c, 0, 46, 64
1, 156214, Note_off_c, 0, 75, 64
1, 156256, Note_on_c, 0, 63, 90
1, 156262, Note_off_c, 0, 78, 64
1, 156340, Note_on_c, 0, 78, 92
1, 156484, Note_off_c, 0, 63, 64
1, 156518, Note_on_c, 0, 54, 91
1, 156614, Note_on_c, 0, 90, 103
1, 156770, Note_off_c, 0, 78, 64
1, 156812, Note_on_c, 0, 63, 73
1, 156968, Note_off_c, 0, 63, 64
1, 157022, Note_on_c, 0, 58, 65
1, 157160, Note_off_c, 0, 54, 64
1, 157212, Note_off_c, 0, 58, 64
1, 157226, Note_on_c, 0, 51, 79
1, 157266, Note_off_c, 0, 51, 64
1, 157444, Note_on_c, 0, 34, 100
1, 157526, Note_off_c, 0, 34, 64
1, 157560, Note_off_c, 0, 90, 64
1, 157694, Note_on_c, 0, 86, 105
1, 157728, Note_on_c, 0, 63, 84
1, 157936, Note_off_c, 0, 63, 64
1, 157962, Note_on_c, 0, 87, 92
1, 157978, Note_on_c, 0, 54, 88
1, 157992, Note_off_c, 0, 86, 64
1, 158140, Note_on_c, 0, 81, 91
1, 158202, Note_off_c, 0, 87, 64
1, 158212, Note_on_c, 0, 63, 87
1, 158298, Note_on_c, 0, 82, 89
1, 158336, Note_off_c, 0, 81, 64
1, 158344, Note_off_c, 0, 63, 64
1, 158372, Note_off_c, 0, 54, 64
1, 158426, Note_on_c, 0, 77, 101
1, 158440, Note_on_c, 0, 58, 63
1, 158450, Note_off_c, 0, 82, 64
1, 158542, Note_on_c, 0, 78, 89
1, 158552, Note_off_c, 0, 77, 64
1, 158604, Note_on_c, 0, 51, 78
1, 158612, Note_off_c, 0, 58, 64
1, 158646, Note_on_c, 0, 73, 20
1, 158660, Note_on_c, 0, 74, 93
1, 158710, Note_off_c, 0, 73, 64
1, 158716, Note_off_c, 0, 51, 64
1, 158736, Note_off_c, 0, 78, 64
1, 158786, Note_off_c, 0, 74, 64
1, 158818, Note_on_c, 0, 75, 92
1, 158818, Note_on_c, 0, 47, 105
1, 158818, Note_on_c, 0, 78, 78
1, 158821, Control_c, 0, 64, 0
1, 158824, Note_on_c, 0, 69, 84
1, 158976, Note_off_c, 0, 47, 64
1, 158986, Note_off_c, 0, 69, 64
1, 158989, Control_c, 0, 64, 127
1, 159032, Note_off_c, 0, 75, 64
1, 159042, Note_off_c, 0, 78, 64
1, 159072, Note_on_c, 0, 63, 95
1, 159134, Note_on_c, 0, 78, 92
1, 159236, Note_off_c, 0, 63, 64
1, 159262, Note_on_c, 0, 54, 89
1, 159284, Note_on_c, 0, 90, 107
1, 159314, Note_on_c, 0, 80, 31
1, 159372, Note_off_c, 0, 78, 64
1, 159380, Note_off_c, 0, 80, 64
1, 159474, Note_on_c, 0, 63, 81
1, 159606, Note_off_c, 0, 63, 64
1, 159650, Note_off_c, 0, 54, 64
1, 159670, Note_on_c, 0, 57, 79
1, 159806, Note_off_c, 0, 57, 64
1, 159868, Note_on_c, 0, 51, 81
1, 159942, Note_off_c, 0, 51, 64
1, 160140, Note_on_c, 0, 35, 111
1, 160232, Note_off_c, 0, 35, 64
1, 160302, Note_off_c, 0, 90, 64
1, 160400, Note_on_c, 0, 86, 104
1, 160442, Note_on_c, 0, 63, 82
1, 160594, Note_off_c, 0, 63, 64
1, 160628, Note_on_c, 0, 87, 96
1, 160656, Note_on_c, 0, 54, 86
1, 160659, Note_off_c, 0, 86, 64
1, 160782, Note_on_c, 0, 80, 94
1, 160850, Note_off_c, 0, 87, 64
1, 160864, Note_on_c, 0, 63, 86
1, 160920, Note_off_c, 0, 80, 64
1, 160920, Note_on_c, 0, 81, 93
1, 160996, Note_off_c, 0, 54, 64
1, 161006, Note_off_c, 0, 63, 64
1, 161050, Note_on_c, 0, 77, 99
1, 161058, Note_off_c, 0, 81, 64
1, 161062, Note_on_c, 0, 57, 70
1, 161148, Note_off_c, 0, 77, 64
1, 161172, Note_on_c, 0, 78, 86
1, 161220, Note_on_c, 0, 51, 83
1, 161240, Note_off_c, 0, 57, 64
1, 161262, Note_on_c, 0, 74, 96
1, 161320, Note_off_c, 0, 78, 64
1, 161320, Note_off_c, 0, 51, 64
1, 161348, Note_off_c, 0, 74, 64
1, 161394, Note_on_c, 0, 48, 100
1, 161416, Note_on_c, 0, 78, 88
1, 161416, Control_c, 0, 64, 0
1, 161419, Note_on_c, 0, 75, 91
1, 161428, Note_on_c, 0, 67, 87
1, 161434, Note_on_c, 0, 69, 76
1, 161488, Note_off_c, 0, 69, 64
1, 161508, Note_off_c, 0, 67, 64
1, 161556, Note_off_c, 0, 48, 64
1, 161580, Control_c, 0, 64, 127
1, 161620, Note_off_c, 0, 75, 64
1, 161626, Note_off_c, 0, 78, 64
1, 161628, Note_on_c, 0, 63, 87
1, 161710, Note_on_c, 0, 78, 88
1, 161828, Note_off_c, 0, 63, 64
1, 161838, Note_on_c, 0, 90, 103
1, 161842, Note_on_c, 0, 54, 79
1, 161988, Note_off_c, 0, 78, 64
1, 162044, Note_on_c, 0, 63, 88
1, 162070, Note_off_c, 0, 90, 64
1, 162232, Note_off_c, 0, 63, 64
1, 162240, Note_on_c, 0, 57, 80
1, 162274, Note_off_c, 0, 54, 64
1, 162438, Note_on_c, 0, 51, 85
1, 162494, Note_off_c, 0, 57, 64
1, 162608, Note_off_c, 0, 51, 64
1, 162620, Note_on_c, 0, 78, 104
1, 162626, Note_on_c, 0, 69, 94
1, 162628, Note_on_c, 0, 49, 84
1, 162628, Note_on_c, 0, 73, 86
1, 162631, Control_c, 0, 64, 0
1, 162750, Note_off_c, 0, 69, 64
1, 162792, Note_off_c, 0, 73, 64
1, 162800, Control_c, 0, 64, 127
1, 162836, Note_off_c, 0, 78, 64
1, 162842, Note_on_c, 0, 61, 88
1, 162924, Note_on_c, 0, 78, 94
1, 162948, Note_off_c, 0, 49, 64
1, 163078, Note_on_c, 0, 90, 103
1, 163086, Note_on_c, 0, 54, 73
1, 163220, Note_off_c, 0, 90, 64
1, 163268, Note_off_c, 0, 78, 64
1, 163294, Note_off_c, 0, 61, 64
1, 163300, Note_on_c, 0, 57, 83
1, 163498, Note_off_c, 0, 54, 64
1, 163502, Note_on_c, 0, 78, 100
1, 163502, Note_on_c, 0, 50, 94
1, 163506, Note_on_c, 0, 69, 87
1, 163506, Control_c, 0, 64, 0
1, 163509, Note_on_c, 0, 72, 87
1, 163526, Note_off_c, 0, 57, 64
1, 163642, Note_off_c, 0, 69, 64
1, 163690, Control_c, 0, 64, 127
1, 163704, Note_off_c, 0, 72, 64
1, 163770, Note_on_c, 0, 60, 79
1, 163776, Note_off_c, 0, 78, 64
1, 163874, Note_on_c, 0, 78, 95
1, 164064, Note_on_c, 0, 54, 67
1, 164160, Note_off_c, 0, 50, 64
1, 164178, Note_on_c, 0, 90, 102
1, 164298, Note_off_c, 0, 78, 64
1, 164486, Note_off_c, 0, 60, 64
1, 164494, Note_on_c, 0, 57, 52
1, 164640, Note_off_c, 0, 54, 64
1, 164882, Note_on_c, 0, 51, 83
1, 164922, Note_off_c, 0, 57, 64
1, 165182, Note_on_c, 0, 89, 91
1, 165322, Note_off_c, 0, 90, 64
1, 165386, Note_on_c, 0, 60, 60
1, 165532, Note_on_c, 0, 88, 94
1, 165564, Control_c, 0, 64, 0
1, 165610, Note_off_c, 0, 89, 64
1, 165726, Note_on_c, 0, 54, 64
1, 165734, Control_c, 0, 64, 127
1, 165826, Note_off_c, 0, 88, 64
1, 165842, Note_on_c, 0, 78, 90
1, 165978, Note_off_c, 0, 60, 64
1, 166098, Note_on_c, 0, 87, 90
1, 166166, Note_off_c, 0, 54, 64
1, 166176, Note_off_c, 0, 78, 64
1, 166178, Note_on_c, 0, 56, 46
1, 166248, Note_off_c, 0, 51, 64
1, 166320, Note_on_c, 0, 86, 93
1, 166384, Note_off_c, 0, 87, 64
1, 166446, Note_on_c, 0, 44, 64
1, 166478, Note_off_c, 0, 56, 64
1, 166536, Note_on_c, 0, 85, 88
1, 166548, Control_c, 0, 64, 0
1, 166606, Note_off_c, 0, 86, 64
1, 166686, Control_c, 0, 64, 127
1, 166708, Note_off_c, 0, 44, 64
1, 166768, Note_on_c, 0, 75, 74
1, 166876, Note_on_c, 0, 66, 38
1, 166994, Note_off_c, 0, 85, 64
1, 167014, Note_on_c, 0, 84, 95
1, 167017, Note_off_c, 0, 75, 64
1, 167180, Note_off_c, 0, 66, 64
1, 167228, Note_on_c, 0, 56, 47
1, 167260, Note_on_c, 0, 82, 81
1, 167324, Note_off_c, 0, 84, 64
1, 167496, Note_on_c, 0, 81, 81
1, 167546, Note_off_c, 0, 82, 64
1, 167614, Note_on_c, 0, 66, 54
1, 167732, Note_on_c, 0, 72, 80
1, 167872, Note_off_c, 0, 81, 64
1, 167942, Note_on_c, 0, 60, 49
1, 168024, Note_on_c, 0, 80, 86
1, 168102, Note_off_c, 0, 72, 64
1, 168276, Note_off_c, 0, 66, 64
1, 168348, Note_off_c, 0, 80, 64
1, 168366, Note_on_c, 0, 79, 94
1, 168478, Note_off_c, 0, 60, 64
1, 168550, Note_on_c, 0, 51, 53
1, 168562, Note_off_c, 0, 56, 64
1, 168614, Note_off_c, 0, 79, 64
1, 168710, Note_off_c, 0, 51, 64
1, 168746, Note_on_c, 0, 78, 87
1, 169142, Note_off_c, 0, 78, 64
1, 169322, Note_on_c, 0, 77, 97
1, 169325, Note_on_c, 0, 37, 81
1, 169422, Control_c, 0, 64, 0
1, 169618, Note_off_c, 0, 37, 64
1, 169652, Control_c, 0, 64, 127
1, 169838, Note_on_c, 0, 65, 47
1, 170148, Note_off_c, 0, 65, 64
1, 170220, Note_on_c, 0, 56, 55
1, 170558, Note_on_c, 0, 65, 51
1, 170694, Note_off_c, 0, 56, 64
1, 170862, Note_on_c, 0, 61, 50
1, 170892, Note_off_c, 0, 65, 64
1, 171160, Note_off_c, 0, 61, 64
1, 171198, Note_on_c, 0, 53, 59
1, 171388, Note_off_c, 0, 53, 64
1, 171588, Note_on_c, 0, 75, 81
1, 171598, Note_on_c, 0, 49, 48
1, 171760, Note_off_c, 0, 49, 64
1, 171926, Note_on_c, 0, 65, 40
1, 171938, Note_off_c, 0, 77, 64
1, 172132, Note_off_c, 0, 65, 64
1, 172162, Note_on_c, 0, 73, 68
1, 172174, Note_on_c, 0, 56, 26
1, 172366, Note_off_c, 0, 75, 64
1, 172468, Note_on_c, 0, 65, 27
1, 172662, Note_off_c, 0, 65, 64
1, 172764, Note_on_c, 0, 61, 33
1, 172782, Note_off_c, 0, 56, 64
1, 172966, Note_off_c, 0, 61, 64
1, 173122, Note_on_c, 0, 65, 49
1, 173162, Note_on_c, 0, 53, 19
1, 173224, Note_off_c, 0, 53, 64
1, 173466, Note_on_c, 0, 68, 55
1, 173470, Note_on_c, 0, 49, 29
1, 173494, Control_c, 0, 64, 0
1, 173497, Note_off_c, 0, 65, 64
1, 173578, Note_off_c, 0, 73, 64
1, 173662, Control_c, 0, 64, 127
1, 173678, Note_off_c, 0, 49, 64
1, 173822, Note_on_c, 0, 65, 26
1, 173972, Note_off_c, 0, 65, 64
1, 174124, Note_on_c, 0, 56, 21
1, 174240, Note_off_c, 0, 56, 64
1, 174404, Note_on_c, 0, 65, 23
1, 174560, Note_off_c, 0, 65, 64
1, 174686, Note_on_c, 0, 61, 20
1, 174878, Note_off_c, 0, 61, 64
1, 174990, Note_on_c, 0, 53, 18
1, 175106, Note_off_c, 0, 53, 64
1, 175328, Note_on_c, 0, 49, 28
1, 175476, Note_off_c, 0, 49, 64
1, 175652, Note_on_c, 0, 65, 32
1, 175740, Note_off_c, 0, 65, 64
1, 175894, Note_on_c, 0, 73, 72
1, 175928, Note_on_c, 0, 56, 28
1, 175992, Note_off_c, 0, 68, 64
1, 176080, Note_off_c, 0, 56, 64
1, 176174, Note_on_c, 0, 65, 25
1, 176276, Note_off_c, 0, 65, 64
1, 176412, Note_on_c, 0, 77, 91
1, 176428, Note_on_c, 0, 61, 36
1, 176482, Note_off_c, 0, 73, 64
1, 176500, Note_off_c, 0, 61, 64
1, 176712, Note_on_c, 0, 53, 39
1, 176780, Note_off_c, 0, 53, 64
1, 177068, Note_on_c, 0, 82, 67
1, 177116, Note_on_c, 0, 49, 29
1, 177136, Control_c, 0, 64, 0
1, 177170, Note_off_c, 0, 77, 64
1, 177304, Control_c, 0, 64, 127
1, 177328, Note_off_c, 0, 49, 64
1, 177454, Note_on_c, 0, 65, 29
1, 177626, Note_off_c, 0, 65, 64
1, 177764, Note_on_c, 0, 56, 20
1, 177966, Note_off_c, 0, 56, 64
1, 178072, Note_on_c, 0, 65, 13
1, 178172, Note_off_c, 0, 65, 64
1, 178324, Note_on_c, 0, 61, 22
1, 178494, Note_off_c, 0, 61, 64
1, 178602, Note_on_c, 0, 53, 45
1, 178660, Note_off_c, 0, 53, 64
1, 178866, Note_on_c, 0, 49, 48
1, 179004, Note_off_c, 0, 49, 64
1, 179164, Note_on_c, 0, 80, 77
1, 179184, Note_on_c, 0, 65, 37
1, 179364, Note_off_c, 0, 82, 64
1, 179364, Note_off_c, 0, 65, 64
1, 179624, Note_on_c, 0, 76, 71
1, 179660, Note_on_c, 0, 56, 32
1, 179770, Note_off_c, 0, 56, 64
1, 179800, Note_off_c, 0, 80, 64
1, 179976, Note_on_c, 0, 77, 81
1, 179994, Note_on_c, 0, 65, 25
1, 180028, Note_off_c, 0, 76, 64
1, 180148, Note_off_c, 0, 65, 64
1, 180260, Note_off_c, 0, 77, 64
1, 180263, Note_on_c, 0, 72, 75
1, 180288, Note_on_c, 0, 61, 32
1, 180370, Note_off_c, 0, 61, 64
1, 180586, Note_on_c, 0, 73, 72
1, 180614, Note_on_c, 0, 53, 43
1, 180642, Note_off_c, 0, 72, 64
1, 180674, Note_off_c, 0, 53, 64
1, 181140, Note_on_c, 0, 71, 79
1, 181160, Note_on_c, 0, 37, 33
1, 181176, Control_c, 0, 64, 0
1, 181180, Note_off_c, 0, 73, 64
1, 181402, Note_off_c, 0, 37, 64
1, 181407, Control_c, 0, 64, 127
1, 181640, Note_on_c, 0, 65, 28
1, 181902, Note_off_c, 0, 65, 64
1, 181962, Note_on_c, 0, 56, 29
1, 182102, Note_off_c, 0, 56, 64
1, 182248, Note_on_c, 0, 65, 22
1, 182370, Note_off_c, 0, 65, 64
1, 182506, Note_on_c, 0, 61, 29
1, 182678, Note_off_c, 0, 61, 64
1, 182768, Note_on_c, 0, 53, 35
1, 182836, Note_off_c, 0, 53, 64
1, 183034, Note_on_c, 0, 49, 38
1, 183126, Note_off_c, 0, 49, 64
1, 183290, Note_on_c, 0, 65, 34
1, 183394, Note_off_c, 0, 65, 64
1, 183566, Note_on_c, 0, 56, 26
1, 183648, Note_off_c, 0, 56, 64
1, 183830, Note_on_c, 0, 65, 25
1, 183940, Note_off_c, 0, 65, 64
1, 184102, Note_on_c, 0, 61, 28
1, 184110, Note_off_c, 0, 71, 64
1, 184210, Note_off_c, 0, 61, 64
1, 184404, Note_on_c, 0, 53, 35
1, 184470, Note_off_c, 0, 53, 64
1, 184839, Note_on_c, 0, 83, 89
1, 184860, Note_on_c, 0, 49, 19
1, 185012, Note_off_c, 0, 49, 64
1, 185198, Note_on_c, 0, 65, 21
1, 185352, Note_off_c, 0, 65, 64
1, 185488, Note_on_c, 0, 56, 20
1, 185688, Note_off_c, 0, 56, 64
1, 185796, Note_on_c, 0, 65, 10
1, 185952, Note_off_c, 0, 65, 64
1, 186076, Note_on_c, 0, 61, 22
1, 186204, Note_off_c, 0, 61, 64
1, 186400, Note_on_c, 0, 53, 25
1, 186480, Note_off_c, 0, 53, 64
1, 186776, Note_on_c, 0, 49, 16
1, 186888, Note_off_c, 0, 49, 64
1, 187062, Note_on_c, 0, 79, 58
1, 187116, Note_off_c, 0, 83, 64
1, 187220, Note_on_c, 0, 65, 12
1, 187326, Note_on_c, 0, 80, 60
1, 187362, Note_off_c, 0, 79, 64
1, 187366, Note_off_c, 0, 65, 64
1, 187498, Note_on_c, 0, 56, 20
1, 187520, Note_on_c, 0, 79, 66
1, 187564, Note_off_c, 0, 80, 64
1, 187650, Note_off_c, 0, 56, 64
1, 187696, Note_on_c, 0, 78, 58
1, 187698, Note_off_c, 0, 79, 64
1, 187784, Note_on_c, 0, 65, 22
1, 187878, Note_off_c, 0, 78, 64
1, 187881, Note_on_c, 0, 79, 62
1, 187922, Note_off_c, 0, 65, 64
1, 188032, Note_off_c, 0, 79, 64
1, 188078, Note_on_c, 0, 61, 25
1, 188104, Note_on_c, 0, 82, 33
1, 188176, Note_off_c, 0, 61, 64
1, 188358, Note_on_c, 0, 80, 40
1, 188414, Note_off_c, 0, 82, 64
1, 188458, Note_off_c, 0, 80, 64
1, 188500, Note_on_c, 0, 53, 39
1, 188572, Note_off_c, 0, 53, 64
1, 188658, Note_on_c, 0, 77, 31
1, 189020, Note_on_c, 0, 75, 45
1, 189030, Note_on_c, 0, 37, 21
1, 189074, Control_c, 0, 64, 0
1, 189104, Note_off_c, 0, 77, 64
1, 189232, Note_off_c, 0, 37, 64
1, 189272, Control_c, 0, 64, 127
1, 189470, Note_on_c, 0, 65, 19
1, 189576, Note_off_c, 0, 65, 64
1, 189758, Note_on_c, 0, 56, 19
1, 189914, Note_off_c, 0, 56, 64
1, 190046, Note_on_c, 0, 65, 17
1, 190156, Note_off_c, 0, 65, 64
1, 190308, Note_on_c, 0, 59, 26
1, 190512, Note_off_c, 0, 59, 64
1, 190630, Note_on_c, 0, 53, 34
1, 190724, Note_off_c, 0, 53, 64
1, 190908, Note_on_c, 0, 73, 41
1, 190930, Note_off_c, 0, 75, 64
1, 190972, Note_on_c, 0, 49, 14
1, 191084, Note_off_c, 0, 73, 64
1, 191096, Note_off_c, 0, 49, 64
1, 191096, Note_on_c, 0, 75, 46
1, 191166, Note_off_c, 0, 75, 64
1, 191230, Note_on_c, 0, 73, 29
1, 191292, Note_off_c, 0, 73, 64
1, 191298, Note_on_c, 0, 65, 24
1, 191318, Note_on_c, 0, 75, 48
1, 191376, Note_off_c, 0, 75, 64
1, 191386, Note_off_c, 0, 65, 64
1, 191414, Note_on_c, 0, 73, 37
1, 191468, Note_off_c, 0, 73, 64
1, 191502, Note_on_c, 0, 75, 42
1, 191552, Note_off_c, 0, 75, 64
1, 191572, Note_on_c, 0, 73, 37
1, 191628, Note_off_c, 0, 73, 64
1, 191634, Note_on_c, 0, 56, 20
1, 191644, Note_on_c, 0, 75, 47
1, 191700, Note_off_c, 0, 75, 64
1, 191704, Note_on_c, 0, 73, 43
1, 191716, Note_off_c, 0, 56, 64
1, 191766, Note_off_c, 0, 73, 64
1, 191774, Note_on_c, 0, 75, 60
1, 191848, Note_on_c, 0, 73, 44
1, 191892, Note_off_c, 0, 75, 64
1, 191916, Note_off_c, 0, 73, 64
1, 191930, Note_on_c, 0, 72, 63
1, 191970, Note_on_c, 0, 65, 21
1, 191982, Note_off_c, 0, 72, 64
1, 192016, Note_on_c, 0, 73, 43
1, 192098, Note_on_c, 0, 75, 66
1, 192104, Note_off_c, 0, 73, 64
1, 192138, Note_off_c, 0, 65, 64
1, 192138, Note_off_c, 0, 75, 64
1, 192190, Note_on_c, 0, 77, 69
1, 192228, Note_off_c, 0, 77, 64
1, 192264, Note_on_c, 0, 78, 70
1, 192308, Note_on_c, 0, 59, 11
1, 192360, Note_on_c, 0, 80, 64
1, 192362, Note_off_c, 0, 78, 64
1, 192378, Note_off_c, 0, 59, 64
1, 192420, Note_off_c, 0, 80, 64
1, 192420, Note_on_c, 0, 82, 62
1, 192464, Note_off_c, 0, 82, 64
1, 192484, Note_on_c, 0, 83, 92
1, 192530, Note_off_c, 0, 83, 64
1, 192572, Note_on_c, 0, 85, 72
1, 192592, Note_on_c, 0, 53, 52
1, 192646, Note_off_c, 0, 53, 64
1, 192648, Note_on_c, 0, 87, 63
1, 192686, Note_off_c, 0, 87, 64
1, 192696, Note_off_c, 0, 85, 64
1, 192742, Note_on_c, 0, 89, 68
1, 192798, Note_off_c, 0, 89, 64
1, 192812, Note_on_c, 0, 90, 72
1, 192906, Note_on_c, 0, 92, 61
1, 192940, Note_off_c, 0, 90, 64
1, 192988, Note_on_c, 0, 49, 37
1, 192993, Note_on_c, 0, 94, 62
1, 193004, Note_off_c, 0, 92, 64
1, 193070, Note_off_c, 0, 94, 64
1, 193096, Note_on_c, 0, 92, 52
1, 193108, Note_off_c, 0, 49, 64
1, 193156, Note_off_c, 0, 92, 64
1, 193198, Note_on_c, 0, 95, 61
1, 193290, Note_off_c, 0, 95, 64
1, 193294, Note_on_c, 0, 91, 59
1, 193346, Note_off_c, 0, 91, 64
1, 193362, Note_on_c, 0, 92, 52
1, 193406, Note_on_c, 0, 65, 30
1, 193456, Note_on_c, 0, 91, 47
1, 193496, Note_off_c, 0, 92, 64
1, 193522, Note_off_c, 0, 91, 64
1, 193554, Note_on_c, 0, 95, 60
1, 193578, Note_off_c, 0, 65, 64
1, 193610, Note_off_c, 0, 95, 64
1, 193630, Note_on_c, 0, 90, 64
1, 193694, Note_off_c, 0, 90, 64
1, 193712, Note_on_c, 0, 56, 32
1, 193714, Note_on_c, 0, 91, 65
1, 193806, Note_on_c, 0, 90, 64
1, 193840, Note_off_c, 0, 91, 64
1, 193902, Note_on_c, 0, 95, 57
1, 193924, Note_off_c, 0, 90, 64
1, 193958, Note_off_c, 0, 95, 64
1, 193966, Note_on_c, 0, 89, 66
1, 194020, Note_off_c, 0, 89, 64
1, 194050, Note_on_c, 0, 90, 62
1, 194052, Note_on_c, 0, 65, 28
1, 194126, Note_on_c, 0, 89, 69
1, 194188, Note_off_c, 0, 90, 64
1, 194226, Note_on_c, 0, 95, 57
1, 194234, Note_off_c, 0, 89, 64
1, 194244, Note_off_c, 0, 65, 64
1, 194274, Note_off_c, 0, 95, 64
1, 194277, Note_on_c, 0, 88, 74
1, 194302, Note_off_c, 0, 56, 64
1, 194320, Note_off_c, 0, 88, 64
1, 194362, Note_on_c, 0, 89, 55
1, 194388, Note_on_c, 0, 59, 15
1, 194430, Note_on_c, 0, 88, 74
1, 194438, Note_off_c, 0, 89, 64
1, 194480, Note_off_c, 0, 88, 64
1, 194510, Note_on_c, 0, 95, 76
1, 194524, Note_off_c, 0, 59, 64
1, 194564, Note_off_c, 0, 95, 64
1, 194592, Note_on_c, 0, 87, 62
1, 194658, Note_off_c, 0, 87, 64
1, 194688, Note_on_c, 0, 88, 41
1, 194691, Note_on_c, 0, 53, 44
1, 194732, Note_on_c, 0, 87, 65
1, 194762, Note_off_c, 0, 88, 64
1, 194792, Note_off_c, 0, 53, 64
1, 194842, Note_off_c, 0, 87, 64
1, 194842, Note_on_c, 0, 95, 67
1, 194894, Note_off_c, 0, 95, 64
1, 194904, Note_on_c, 0, 86, 71
1, 195006, Note_on_c, 0, 49, 34
1, 195022, Note_on_c, 0, 85, 70
1, 195050, Note_off_c, 0, 86, 64
1, 195078, Note_off_c, 0, 85, 64
1, 195094, Note_on_c, 0, 87, 63
1, 195142, Note_off_c, 0, 49, 64
1, 195168, Note_on_c, 0, 85, 57
1, 195216, Note_off_c, 0, 87, 64
1, 195244, Note_on_c, 0, 84, 85
1, 195264, Note_off_c, 0, 85, 64
1, 195320, Note_on_c, 0, 85, 78
1, 195340, Note_on_c, 0, 65, 28
1, 195354, Note_off_c, 0, 84, 64
1, 195392, Note_on_c, 0, 87, 72
1, 195422, Note_off_c, 0, 85, 64
1, 195425, Note_off_c, 0, 87, 64
1, 195472, Note_on_c, 0, 89, 89
1, 195542, Note_off_c, 0, 65, 64
1, 195552, Note_on_c, 0, 90, 80
1, 195584, Note_off_c, 0, 89, 64
1, 195628, Note_on_c, 0, 56, 31
1, 195642, Note_on_c, 0, 92, 76
1, 195690, Note_off_c, 0, 90, 64
1, 195732, Note_on_c, 0, 94, 69
1, 195774, Note_off_c, 0, 94, 64
1, 195777, Note_off_c, 0, 92, 64
1, 195806, Note_on_c, 0, 95, 80
1, 195912, Note_on_c, 0, 97, 65
1, 195964, Note_off_c, 0, 95, 64
1, 196028, Note_off_c, 0, 97, 64
1, 196058, Note_on_c, 0, 101, 45
1, 196070, Note_on_c, 0, 65, 25
1, 196174, Note_off_c, 0, 101, 64
1, 196186, Note_on_c, 0, 99, 51
1, 196276, Note_off_c, 0, 99, 64
1, 196300, Note_on_c, 0, 97, 42
1, 196380, Note_off_c, 0, 97, 64
1, 196404, Note_on_c, 0, 95, 55
1, 196492, Note_on_c, 0, 59, 21
1, 196522, Note_off_c, 0, 95, 64
1, 196526, Note_on_c, 0, 92, 50
1, 196642, Note_on_c, 0, 89, 56
1, 196666, Note_off_c, 0, 92, 64
1, 196774, Note_on_c, 0, 85, 50
1, 196780, Note_off_c, 0, 89, 64
1, 196846, Note_off_c, 0, 85, 64
1, 196896, Note_on_c, 0, 83, 66
1, 197006, Note_on_c, 0, 80, 50
1, 197009, Note_off_c, 0, 65, 64
1, 197028, Note_off_c, 0, 83, 64
1, 197070, Note_on_c, 0, 53, 44
1, 197124, Note_off_c, 0, 56, 64
1, 197156, Note_on_c, 0, 77, 49
1, 197168, Note_off_c, 0, 59, 64
1, 197220, Note_off_c, 0, 80, 64
1, 197286, Note_on_c, 0, 73, 45
1, 197302, Note_off_c, 0, 77, 64
1, 197430, Note_on_c, 0, 71, 78
1, 197442, Note_off_c, 0, 73, 64
1, 197662, Note_off_c, 0, 53, 64
1, 197680, Note_on_c, 0, 70, 62
1, 197710, Note_on_c, 0, 50, 35
1, 197754, Note_off_c, 0, 71, 64
1, 197924, Control_c, 0, 64, 0
1, 198276, Control_c, 0, 64, 127
1, 198318, Note_on_c, 0, 65, 34
1, 198632, Note_off_c, 0, 65, 64
1, 198678, Note_on_c, 0, 56, 23
1, 199028, Note_on_c, 0, 69, 49
1, 199088, Note_on_c, 0, 65, 24
1, 199096, Note_off_c, 0, 70, 64
1, 199246, Note_on_c, 0, 70, 62
1, 199312, Note_off_c, 0, 69, 64
1, 199432, Note_on_c, 0, 58, 20
1, 199432, Note_on_c, 0, 71, 68
1, 199460, Note_off_c, 0, 70, 64
1, 199632, Note_on_c, 0, 70, 64
1, 199668, Note_off_c, 0, 71, 64
1, 199866, Note_on_c, 0, 53, 54
1, 199938, Control_c, 0, 64, 0
1, 199946, Note_on_c, 0, 73, 33
1, 199976, Note_off_c, 0, 70, 64
1, 200152, Control_c, 0, 64, 127
1, 200176, Note_off_c, 0, 65, 64
1, 200182, Note_on_c, 0, 71, 53
1, 200208, Note_off_c, 0, 56, 64
1, 200214, Note_off_c, 0, 50, 64
1, 200220, Note_off_c, 0, 73, 64
1, 200260, Note_off_c, 0, 53, 64
1, 200308, Note_off_c, 0, 71, 64
1, 200332, Note_on_c, 0, 70, 46
1, 200350, Note_off_c, 0, 58, 64
1, 200386, Note_off_c, 0, 70, 64
1, 200466, Note_on_c, 0, 70, 33
1, 200508, Note_on_c, 0, 50, 32
1, 200952, Note_on_c, 0, 65, 23
1, 201028, Control_c, 0, 64, 0
1, 201228, Control_c, 0, 64, 127
1, 201294, Note_on_c, 0, 56, 19
1, 201340, Note_off_c, 0, 65, 64
1, 201522, Note_off_c, 0, 70, 64
1, 201534, Note_off_c, 0, 56, 64
1, 201674, Note_on_c, 0, 65, 9
1, 202002, Note_on_c, 0, 82, 70
1, 202004, Note_on_c, 0, 58, 17
1, 202022, Note_off_c, 0, 65, 64
1, 202142, Note_off_c, 0, 50, 64
1, 202290, Note_off_c, 0, 58, 64
1, 202468, Note_on_c, 0, 53, 37
1, 202682, Note_off_c, 0, 53, 64
1, 202866, Note_on_c, 0, 78, 46
1, 202902, Note_on_c, 0, 51, 36
1, 202980, Control_c, 0, 64, 0
1, 203216, Note_on_c, 0, 66, 30
1, 203226, Control_c, 0, 64, 127
1, 203384, Note_off_c, 0, 66, 64
1, 203452, Note_off_c, 0, 51, 64
1, 203492, Note_on_c, 0, 83, 95
1, 203494, Note_on_c, 0, 80, 59
1, 203504, Note_on_c, 0, 58, 16
1, 203550, Note_off_c, 0, 78, 64
1, 203598, Note_off_c, 0, 82, 64
1, 203754, Note_on_c, 0, 66, 31
1, 203810, Note_off_c, 0, 58, 64
1, 203926, Note_off_c, 0, 66, 64
1, 204026, Note_on_c, 0, 63, 26
1, 204068, Note_on_c, 0, 78, 73
1, 204077, Note_on_c, 0, 75, 55
1, 204081, Note_off_c, 0, 83, 64
1, 204120, Note_off_c, 0, 63, 64
1, 204126, Note_off_c, 0, 80, 64
1, 204195, Note_off_c, 0, 75, 64
1, 204278, Note_on_c, 0, 54, 42
1, 204302, Note_off_c, 0, 78, 64
1, 204332, Note_off_c, 0, 54, 64
1, 204406, Note_on_c, 0, 78, 48
1, 204409, Note_on_c, 0, 75, 53
1, 204476, Note_off_c, 0, 78, 64
1, 204494, Note_on_c, 0, 51, 42
1, 204542, Note_on_c, 0, 82, 62
1, 204553, Note_on_c, 0, 78, 58
1, 204556, Note_off_c, 0, 75, 64
1, 204592, Control_c, 0, 64, 0
1, 204792, Control_c, 0, 64, 127
1, 204804, Note_off_c, 0, 51, 64
1, 204904, Note_on_c, 0, 68, 39
1, 204947, Note_off_c, 0, 78, 64
1, 205024, Note_off_c, 0, 82, 64
1, 205028, Note_on_c, 0, 77, 60
1, 205030, Note_on_c, 0, 80, 60
1, 205070, Note_off_c, 0, 77, 64
1, 205076, Note_off_c, 0, 80, 64
1, 205108, Note_off_c, 0, 68, 64
1, 205158, Note_on_c, 0, 80, 53
1, 205161, Note_on_c, 0, 77, 51
1, 205202, Note_off_c, 0, 80, 64
1, 205202, Note_on_c, 0, 82, 60
1, 205204, Note_on_c, 0, 58, 19
1, 205288, Note_on_c, 0, 80, 52
1, 205320, Note_off_c, 0, 82, 64
1, 205392, Note_off_c, 0, 77, 64
1, 205402, Note_on_c, 0, 75, 61
1, 205434, Note_on_c, 0, 78, 64
1, 205437, Note_on_c, 0, 68, 33
1, 205456, Note_off_c, 0, 80, 64
1, 205498, Note_off_c, 0, 75, 64
1, 205546, Note_on_c, 0, 80, 60
1, 205554, Note_on_c, 0, 77, 57
1, 205560, Control_c, 0, 64, 0
1, 205586, Note_off_c, 0, 78, 64
1, 205608, Note_off_c, 0, 77, 64
1, 205684, Note_off_c, 0, 80, 64
1, 205732, Note_on_c, 0, 82, 59
1, 205735, Note_on_c, 0, 78, 54
1, 205738, Note_on_c, 0, 62, 26
1, 205836, Control_c, 0, 64, 127
1, 205876, Note_off_c, 0, 68, 64
1, 205918, Note_off_c, 0, 78, 64
1, 205926, Note_off_c, 0, 62, 64
1, 205928, Note_off_c, 0, 82, 64
1, 206098, Note_on_c, 0, 53, 49
1, 206114, Note_off_c, 0, 58, 64
1, 206164, Note_off_c, 0, 53, 64
1, 206258, Note_on_c, 0, 74, 56
1, 206260, Note_on_c, 0, 77, 63
1, 206300, Note_off_c, 0, 77, 64
1, 206316, Note_off_c, 0, 74, 64
1, 206400, Note_on_c, 0, 77, 34
1, 206401, Note_on_c, 0, 80, 77
1, 206416, Note_on_c, 0, 51, 44
1, 206666, Control_c, 0, 64, 0
1, 206672, Note_on_c, 0, 66, 25
1, 206912, Control_c, 0, 64, 127
1, 206920, Note_on_c, 0, 78, 75
1, 206922, Note_on_c, 0, 75, 48
1, 206924, Note_off_c, 0, 66, 64
1, 206936, Note_off_c, 0, 77, 64
1, 206939, Note_on_c, 0, 58, 25
1, 206955, Note_off_c, 0, 80, 64
1, 207080, Note_off_c, 0, 51, 64
1, 207082, Note_off_c, 0, 75, 64
1, 207142, Note_off_c, 0, 78, 64
1, 207202, Note_on_c, 0, 66, 38
1, 207348, Note_on_c, 0, 87, 81
1, 207351, Note_on_c, 0, 78, 67
1, 207382, Note_off_c, 0, 87, 64
1, 207391, Note_off_c, 0, 78, 64
1, 207466, Note_on_c, 0, 87, 58
1, 207468, Note_on_c, 0, 78, 42
1, 207512, Note_on_c, 0, 63, 38
1, 207608, Note_off_c, 0, 66, 64
1, 207676, Note_off_c, 0, 78, 64
1, 207724, Note_off_c, 0, 58, 64
1, 207730, Note_off_c, 0, 63, 64
1, 207782, Note_off_c, 0, 87, 64
1, 207790, Note_on_c, 0, 85, 66
1, 207798, Note_on_c, 0, 77, 61
1, 207852, Note_off_c, 0, 77, 64
1, 207904, Note_on_c, 0, 54, 41
1, 207922, Note_off_c, 0, 85, 64
1, 208020, Note_on_c, 0, 83, 100
1, 208024, Note_on_c, 0, 75, 65
1, 208048, Note_off_c, 0, 54, 64
1, 208092, Note_off_c, 0, 75, 64
1, 208234, Note_on_c, 0, 82, 84
1, 208234, Control_c, 0, 64, 0
1, 208237, Note_on_c, 0, 46, 38
1, 208246, Note_on_c, 0, 74, 70
1, 208250, Note_off_c, 0, 83, 64
1, 208312, Note_off_c, 0, 74, 64
1, 208402, Note_off_c, 0, 82, 64
1, 208418, Control_c, 0, 64, 127
1, 208426, Note_off_c, 0, 46, 64
1, 208470, Note_on_c, 0, 82, 73
1, 208478, Note_on_c, 0, 70, 79
1, 208588, Note_off_c, 0, 82, 64
1, 208588, Note_off_c, 0, 70, 64
1, 208591, Note_on_c, 0, 68, 44
1, 208706, Note_on_c, 0, 82, 80
1, 208712, Note_on_c, 0, 71, 84
1, 208760, Note_off_c, 0, 71, 64
1, 208774, Note_off_c, 0, 68, 64
1, 208816, Note_off_c, 0, 82, 64
1, 208910, Note_on_c, 0, 82, 75
1, 208916, Note_on_c, 0, 72, 79
1, 208948, Note_on_c, 0, 58, 25
1, 208972, Note_off_c, 0, 72, 64
1, 209016, Note_off_c, 0, 82, 64
1, 209112, Note_on_c, 0, 82, 72
1, 209114, Note_on_c, 0, 73, 83
1, 209180, Note_on_c, 0, 68, 45
1, 209188, Note_off_c, 0, 73, 64
1, 209230, Note_off_c, 0, 82, 64
1, 209276, Note_on_c, 0, 82, 96
1, 209282, Note_on_c, 0, 74, 91
1, 209334, Note_off_c, 0, 74, 64
1, 209350, Note_off_c, 0, 68, 64
1, 209378, Note_off_c, 0, 82, 64
1, 209454, Note_on_c, 0, 82, 75
1, 209457, Note_on_c, 0, 75, 85
1, 209474, Note_on_c, 0, 62, 33
1, 209582, Note_off_c, 0, 75, 64
1, 209620, Note_off_c, 0, 82, 64
1, 209670, Note_on_c, 0, 82, 87
1, 209670, Note_on_c, 0, 76, 85
1, 209686, Note_off_c, 0, 62, 64
1, 209772, Note_off_c, 0, 76, 64
1, 209790, Note_on_c, 0, 53, 68
1, 209814, Note_off_c, 0, 82, 64
1, 209820, Note_off_c, 0, 58, 64
1, 209888, Note_on_c, 0, 82, 70
1, 209891, Note_off_c, 0, 53, 64
1, 209896, Note_on_c, 0, 77, 89
1, 210066, Note_off_c, 0, 82, 64
1, 210154, Control_c, 0, 64, 0
1, 210156, Note_on_c, 0, 82, 74
1, 210164, Note_on_c, 0, 78, 83
1, 210192, Note_on_c, 0, 39, 64
1, 210256, Note_off_c, 0, 77, 64
1, 210360, Note_off_c, 0, 39, 64
1, 210370, Control_c, 0, 64, 127
1, 210560, Note_on_c, 0, 66, 41
1, 210780, Note_off_c, 0, 66, 64
1, 210822, Note_on_c, 0, 83, 111
1, 210830, Note_on_c, 0, 80, 78
1, 210842, Note_on_c, 0, 58, 33
1, 210878, Note_off_c, 0, 78, 64
1, 210914, Note_off_c, 0, 82, 64
1, 211086, Note_on_c, 0, 66, 50
1, 211200, Note_off_c, 0, 83, 64
1, 211250, Note_off_c, 0, 80, 64
1, 211260, Note_off_c, 0, 66, 64
1, 211314, Note_on_c, 0, 63, 54
1, 211466, Note_on_c, 0, 78, 87
1, 211469, Note_off_c, 0, 63, 64
1, 211472, Note_on_c, 0, 75, 73
1, 211492, Note_off_c, 0, 58, 64
1, 211508, Note_on_c, 0, 54, 55
1, 211522, Note_off_c, 0, 75, 64
1, 211558, Note_off_c, 0, 78, 64
1, 211568, Note_off_c, 0, 54, 64
1, 211628, Note_on_c, 0, 75, 60
1, 211630, Note_on_c, 0, 78, 81
1, 211688, Note_off_c, 0, 75, 64
1, 211698, Note_off_c, 0, 78, 64
1, 211732, Note_on_c, 0, 82, 85
1, 211735, Control_c, 0, 64, 0
1, 211740, Note_on_c, 0, 51, 57
1, 211752, Note_on_c, 0, 78, 79
1, 211968, Control_c, 0, 64, 127
1, 211974, Note_off_c, 0, 51, 64
1, 212062, Note_on_c, 0, 68, 57
1, 212070, Note_off_c, 0, 78, 64
1, 212094, Note_off_c, 0, 82, 64
1, 212192, Note_on_c, 0, 80, 79
1, 212196, Note_on_c, 0, 77, 79
1, 212232, Note_off_c, 0, 77, 64
1, 212236, Note_off_c, 0, 80, 64
1, 212258, Note_off_c, 0, 68, 64
1, 212316, Note_on_c, 0, 77, 52
1, 212317, Note_on_c, 0, 80, 67
1, 212370, Note_on_c, 0, 58, 22
1, 212377, Note_off_c, 0, 80, 64
1, 212382, Note_on_c, 0, 82, 59
1, 212464, Note_on_c, 0, 80, 72
1, 212534, Note_off_c, 0, 82, 64
1, 212624, Note_on_c, 0, 78, 72
1, 212628, Note_off_c, 0, 77, 64
1, 212636, Note_on_c, 0, 75, 55
1, 212664, Note_off_c, 0, 80, 64
1, 212744, Note_on_c, 0, 68, 40
1, 212752, Note_off_c, 0, 75, 64
1, 212804, Note_off_c, 0, 78, 64
1, 212814, Note_on_c, 0, 80, 72
1, 212829, Note_on_c, 0, 77, 64
1, 212860, Note_off_c, 0, 80, 64
1, 212869, Note_off_c, 0, 77, 64
1, 212952, Note_on_c, 0, 77, 43
1, 212957, Note_on_c, 0, 80, 67
1, 213006, Note_on_c, 0, 62, 33
1, 213074, Control_c, 0, 64, 0
1, 213090, Note_off_c, 0, 77, 64
1, 213133, Note_off_c, 0, 80, 64
1, 213138, Note_on_c, 0, 82, 52
1, 213144, Note_on_c, 0, 78, 56
1, 213216, Note_off_c, 0, 68, 64
1, 213242, Control_c, 0, 64, 127
1, 213300, Note_off_c, 0, 62, 64
1, 213346, Note_off_c, 0, 78, 64
1, 213382, Note_off_c, 0, 82, 64
1, 213436, Note_on_c, 0, 53, 50
1, 213570, Note_off_c, 0, 53, 64
1, 213604, Note_on_c, 0, 74, 64
1, 213604, Note_on_c, 0, 77, 63
1, 213616, Note_off_c, 0, 58, 64
1, 213659, Note_off_c, 0, 77, 64
1, 213752, Note_off_c, 0, 74, 64
1, 213774, Note_on_c, 0, 80, 81
1, 213776, Note_on_c, 0, 77, 55
1, 213794, Note_on_c, 0, 51, 43
1, 214072, Control_c, 0, 64, 0
1, 214096, Note_on_c, 0, 66, 46
1, 214288, Control_c, 0, 64, 127
1, 214366, Note_on_c, 0, 78, 78
1, 214368, Note_on_c, 0, 75, 64
1, 214388, Note_off_c, 0, 77, 64
1, 214396, Note_off_c, 0, 66, 64
1, 214406, Note_on_c, 0, 58, 34
1, 214446, Note_off_c, 0, 80, 64
1, 214472, Control_c, 0, 64, 0
1, 214642, Control_c, 0, 64, 127
1, 214648, Note_off_c, 0, 51, 64
1, 214672, Note_off_c, 0, 75, 64
1, 214702, Note_on_c, 0, 66, 38
1, 214724, Note_off_c, 0, 78, 64
1, 215052, Note_on_c, 0, 90, 99
1, 215060, Note_on_c, 0, 82, 83
1, 215072, Note_on_c, 0, 63, 48
1, 215084, Note_off_c, 0, 66, 64
1, 215362, Note_off_c, 0, 63, 64
1, 215410, Note_off_c, 0, 58, 64
1, 215442, Note_on_c, 0, 54, 46
1, 215528, Note_off_c, 0, 54, 64
1, 215808, Note_on_c, 0, 42, 81
1, 216044, Note_off_c, 0, 42, 64
1, 216092, Note_off_c, 0, 82, 64
1, 216122, Note_off_c, 0, 90, 64
1, 216206, Note_on_c, 0, 80, 84
1, 216206, Note_on_c, 0, 89, 98
1, 216222, Note_on_c, 0, 63, 66
1, 216424, Note_off_c, 0, 80, 64
1, 216452, Note_off_c, 0, 89, 64
1, 216530, Note_off_c, 0, 63, 64
1, 216614, Note_on_c, 0, 87, 91
1, 216614, Note_on_c, 0, 78, 81
1, 216617, Note_on_c, 0, 54, 57
1, 216778, Note_off_c, 0, 78, 64
1, 216826, Note_off_c, 0, 87, 64
1, 216896, Note_on_c, 0, 85, 90
1, 216910, Note_on_c, 0, 77, 69
1, 216958, Note_off_c, 0, 77, 64
1, 217016, Note_on_c, 0, 63, 52
1, 217026, Note_off_c, 0, 85, 64
1, 217112, Note_on_c, 0, 84, 101
1, 217120, Note_on_c, 0, 75, 78
1, 217174, Note_off_c, 0, 75, 64
1, 217212, Note_off_c, 0, 84, 64
1, 217216, Note_off_c, 0, 63, 64
1, 217308, Note_on_c, 0, 82, 87
1, 217320, Note_on_c, 0, 73, 68
1, 217323, Note_on_c, 0, 58, 34
1, 217382, Note_off_c, 0, 73, 64
1, 217446, Note_off_c, 0, 82, 64
1, 217500, Note_on_c, 0, 80, 90
1, 217510, Note_on_c, 0, 72, 76
1, 217536, Note_off_c, 0, 54, 64
1, 217539, Note_off_c, 0, 58, 64
1, 217554, Note_off_c, 0, 72, 64
1, 217612, Note_off_c, 0, 80, 64
1, 217628, Note_on_c, 0, 51, 50
1, 217704, Note_on_c, 0, 78, 91
1, 217710, Note_on_c, 0, 70, 76
1, 217782, Note_off_c, 0, 51, 64
1, 217782, Note_off_c, 0, 70, 64
1, 217846, Note_off_c, 0, 78, 64
1, 217970, Note_on_c, 0, 77, 95
1, 217980, Note_on_c, 0, 68, 69
1, 217983, Note_on_c, 0, 44, 78
1, 218022, Control_c, 0, 64, 0
1, 218236, Control_c, 0, 64, 127
1, 218240, Note_off_c, 0, 44, 64
1, 218342, Note_on_c, 0, 61, 52
1, 218476, Note_off_c, 0, 68, 64
1, 218504, Note_off_c, 0, 61, 64
1, 218588, Note_on_c, 0, 78, 94
1, 218594, Note_on_c, 0, 70, 61
1, 218616, Note_on_c, 0, 53, 78
1, 218622, Note_off_c, 0, 77, 64
1, 218874, Note_on_c, 0, 61, 60
1, 218924, Note_off_c, 0, 70, 64
1, 219030, Note_off_c, 0, 61, 64
1, 219107, Note_on_c, 0, 77, 92
1, 219112, Note_on_c, 0, 68, 65
1, 219136, Note_on_c, 0, 56, 67
1, 219148, Note_off_c, 0, 53, 64
1, 219186, Note_off_c, 0, 78, 64
1, 219192, Note_off_c, 0, 56, 64
1, 219386, Note_on_c, 0, 44, 79
1, 219438, Note_off_c, 0, 44, 64
1, 219464, Note_off_c, 0, 68, 64
1, 219638, Note_on_c, 0, 75, 85
1, 219648, Note_on_c, 0, 66, 59
1, 219660, Note_on_c, 0, 46, 67
1, 219732, Note_off_c, 0, 77, 64
1, 219864, Control_c, 0, 64, 0
1, 219916, Note_on_c, 0, 61, 65
1, 220064, Control_c, 0, 64, 127
1, 220102, Note_off_c, 0, 66, 64
1, 220146, Note_on_c, 0, 73, 81
1, 220152, Note_on_c, 0, 65, 65
1, 220168, Note_off_c, 0, 61, 64
1, 220172, Note_on_c, 0, 53, 80
1, 220212, Note_off_c, 0, 75, 64
1, 220402, Note_on_c, 0, 61, 64
1, 220428, Note_off_c, 0, 65, 64
1, 220500, Note_off_c, 0, 61, 64
1, 220570, Note_off_c, 0, 46, 64
1, 220646, Note_on_c, 0, 61, 76
1, 220648, Note_on_c, 0, 65, 89
1, 220652, Note_on_c, 0, 58, 58
1, 220704, Note_off_c, 0, 73, 64
1, 220740, Note_off_c, 0, 58, 64
1, 220848, Note_off_c, 0, 53, 64
1, 220866, Note_off_c, 0, 61, 64
1, 220926, Note_on_c, 0, 46, 57
1, 221064, Note_off_c, 0, 46, 64
1, 221210, Note_on_c, 0, 68, 79
1, 221210, Note_on_c, 0, 61, 63
1, 221228, Note_on_c, 0, 41, 83
1, 221280, Note_off_c, 0, 65, 64
1, 221294, Control_c, 0, 64, 0
1, 221498, Note_on_c, 0, 56, 53
1, 221586, Control_c, 0, 64, 127
1, 221676, Note_off_c, 0, 56, 64
1, 221768, Note_on_c, 0, 49, 57
1, 221814, Note_off_c, 0, 41, 64
1, 222010, Note_off_c, 0, 49, 64
1, 222010, Note_on_c, 0, 56, 53
1, 222216, Note_off_c, 0, 56, 64
1, 222286, Note_on_c, 0, 49, 62
1, 222460, Note_off_c, 0, 49, 64
1, 222536, Note_off_c, 0, 61, 64
1, 222552, Note_on_c, 0, 41, 69
1, 222598, Note_off_c, 0, 68, 64
1, 222654, Note_off_c, 0, 41, 64
1, 222878, Note_on_c, 0, 70, 82
1, 222882, Note_on_c, 0, 61, 81
1, 222882, Note_on_c, 0, 63, 78
1, 222888, Note_on_c, 0, 42, 79
1, 222908, Control_c, 0, 64, 0
1, 223106, Control_c, 0, 64, 127
1, 223108, Note_off_c, 0, 42, 64
1, 223194, Note_on_c, 0, 58, 63
1, 223444, Note_off_c, 0, 58, 64
1, 223470, Note_on_c, 0, 49, 64
1, 223724, Note_on_c, 0, 58, 54
1, 223924, Note_off_c, 0, 58, 64
1, 224020, Note_on_c, 0, 51, 61
1, 224084, Note_off_c, 0, 51, 64
1, 224112, Note_off_c, 0, 49, 64
1, 224256, Note_off_c, 0, 63, 64
1, 224314, Note_on_c, 0, 42, 70
1, 224348, Note_off_c, 0, 70, 64
1, 224366, Note_off_c, 0, 61, 64
1, 224420, Note_off_c, 0, 42, 64
1, 224722, Note_on_c, 0, 56, 76
1, 224730, Note_on_c, 0, 63, 94
1, 224730, Note_on_c, 0, 61, 79
1, 224740, Note_on_c, 0, 32, 86
1, 224750, Control_c, 0, 64, 0
1, 224946, Note_off_c, 0, 56, 64
1, 224960, Note_off_c, 0, 32, 64
1, 224980, Control_c, 0, 64, 127
1, 224990, Note_off_c, 0, 61, 64
1, 225196, Note_on_c, 0, 61, 68
1, 225334, Note_off_c, 0, 61, 64
1, 225512, Note_on_c, 0, 51, 69
1, 225652, Note_on_c, 0, 68, 77
1, 225720, Note_off_c, 0, 63, 64
1, 225848, Note_on_c, 0, 73, 67
1, 225848, Note_on_c, 0, 61, 65
1, 225870, Note_off_c, 0, 68, 64
1, 225946, Note_off_c, 0, 73, 64
1, 225982, Note_on_c, 0, 75, 88
1, 226128, Note_on_c, 0, 80, 83
1, 226160, Note_on_c, 0, 56, 52
1, 226163, Note_off_c, 0, 75, 64
1, 226186, Note_off_c, 0, 51, 64
1, 226218, Note_off_c, 0, 61, 64
1, 226260, Note_on_c, 0, 85, 78
1, 226270, Note_off_c, 0, 80, 64
1, 226326, Note_off_c, 0, 85, 64
1, 226376, Note_on_c, 0, 87, 87
1, 226402, Note_on_c, 0, 51, 53
1, 226422, Note_off_c, 0, 56, 64
1, 226488, Note_on_c, 0, 92, 75
1, 226550, Note_off_c, 0, 87, 64
1, 226598, Note_on_c, 0, 97, 81
1, 226620, Note_off_c, 0, 51, 64
1, 226648, Note_off_c, 0, 92, 64
1, 226704, Note_on_c, 0, 44, 76
1, 226712, Note_on_c, 0, 99, 90
1, 226738, Note_off_c, 0, 97, 64
1, 226844, Note_off_c, 0, 44, 64
1, 226986, Note_on_c, 0, 61, 53
1, 227246, Note_off_c, 0, 61, 64
1, 227342, Note_on_c, 0, 51, 41
1, 227614, Note_on_c, 0, 97, 54
1, 227666, Note_off_c, 0, 99, 64
1, 227752, Note_on_c, 0, 61, 38
1, 227840, Note_on_c, 0, 92, 56
1, 227848, Note_off_c, 0, 97, 64
1, 227954, Note_off_c, 0, 51, 64
1, 227980, Note_off_c, 0, 92, 64
1, 228000, Note_on_c, 0, 87, 62
1, 228068, Note_off_c, 0, 87, 64
1, 228098, Note_off_c, 0, 61, 64
1, 228114, Note_on_c, 0, 56, 31
1, 228132, Note_on_c, 0, 85, 74
1, 228278, Note_on_c, 0, 80, 70
1, 228288, Note_off_c, 0, 85, 64
1, 228340, Note_off_c, 0, 80, 64
1, 228370, Note_off_c, 0, 56, 64
1, 228404, Note_on_c, 0, 75, 75
1, 228452, Note_on_c, 0, 51, 29
1, 228464, Note_off_c, 0, 75, 64
1, 228524, Note_off_c, 0, 51, 64
1, 228527, Note_on_c, 0, 73, 68
1, 228670, Note_on_c, 0, 68, 69
1, 228710, Note_off_c, 0, 73, 64
1, 228780, Note_on_c, 0, 32, 57
1, 228806, Note_off_c, 0, 68, 64
1, 228832, Note_off_c, 0, 32, 64
1, 228864, Note_on_c, 0, 63, 92
1, 228954, Note_off_c, 0, 63, 64
1, 229252, Note_on_c, 0, 61, 48
1, 229480, Note_off_c, 0, 61, 64
1, 229560, Note_on_c, 0, 51, 39
1, 229794, Note_on_c, 0, 61, 41
1, 230034, Note_off_c, 0, 51, 64
1, 230096, Note_on_c, 0, 54, 52
1, 230170, Note_off_c, 0, 61, 64
1, 230384, Note_off_c, 0, 54, 64
1, 230424, Note_on_c, 0, 51, 62
1, 230544, Note_off_c, 0, 51, 64
1, 230756, Note_on_c, 0, 65, 86
1, 230760, Note_on_c, 0, 68, 74
1, 230764, Note_on_c, 0, 56, 67
1, 230782, Note_on_c, 0, 44, 52
1, 230790, Control_c, 0, 64, 0
1, 231004, Control_c, 0, 64, 127
1, 231012, Note_off_c, 0, 44, 64
1, 231024, Note_off_c, 0, 56, 64
1, 231148, Note_on_c, 0, 60, 40
1, 231184, Note_off_c, 0, 68, 64
1, 231188, Note_off_c, 0, 65, 64
1, 231382, Note_off_c, 0, 60, 64
1, 231520, Note_on_c, 0, 51, 44
1, 231976, Note_on_c, 0, 63, 92
1, 232002, Note_on_c, 0, 60, 44
1, 232504, Note_off_c, 0, 60, 64
1, 232592, Note_on_c, 0, 65, 82
1, 232600, Note_on_c, 0, 54, 53
1, 232680, Note_off_c, 0, 63, 64
1, 232962, Note_off_c, 0, 54, 64
1, 232968, Note_on_c, 0, 63, 90
1, 233008, Note_off_c, 0, 65, 64
1, 233052, Note_off_c, 0, 51, 64
1, 233100, Note_on_c, 0, 44, 56
1, 233236, Note_off_c, 0, 44, 64
1, 233282, Note_on_c, 0, 61, 82
1, 233308, Note_off_c, 0, 63, 64
1, 233576, Note_off_c, 0, 61, 64
1, 233896, Note_on_c, 0, 61, 78
1, 233896, Note_on_c, 0, 53, 79
1, 233897, Note_on_c, 0, 37, 70
1, 233954, Control_c, 0, 64, 0
1, 234168, Note_off_c, 0, 53, 64
1, 234200, Control_c, 0, 64, 127
1, 234267, Note_off_c, 0, 37, 64
1, 234448, Note_off_c, 0, 61, 64
1, 234662, Note_on_c, 0, 65, 32
1, 234998, Note_off_c, 0, 65, 64
1, 235072, Note_on_c, 0, 56, 33
1, 235430, Note_on_c, 0, 65, 30
1, 235730, Note_off_c, 0, 56, 64
1, 235746, Note_on_c, 0, 61, 29
1, 235840, Note_off_c, 0, 65, 64
1, 236122, Note_off_c, 0, 61, 64
1, 236180, Note_on_c, 0, 53, 34
1, 236556, Note_off_c, 0, 53, 64
1, 236646, Note_on_c, 0, 85, 70
1, 236670, Note_on_c, 0, 49, 38
1, 236920, Control_c, 0, 64, 0
1, 237010, Note_on_c, 0, 64, 43
1, 237134, Control_c, 0, 64, 127
1, 237238, Note_off_c, 0, 64, 64
1, 237328, Note_on_c, 0, 58, 24
1, 237340, Note_on_c, 0, 79, 75
1, 237416, Note_off_c, 0, 49, 64
1, 237506, Note_off_c, 0, 85, 64
1, 237620, Note_on_c, 0, 64, 42
1, 237674, Note_off_c, 0, 58, 64
1, 237856, Note_off_c, 0, 64, 64
1, 237926, Note_on_c, 0, 61, 40
1, 237998, Note_off_c, 0, 61, 64
1, 238068, Note_off_c, 0, 79, 64
1, 238216, Note_on_c, 0, 55, 39
1, 238274, Note_off_c, 0, 55, 64
1, 238486, Note_on_c, 0, 84, 80
1, 238486, Note_on_c, 0, 49, 31
1, 238750, Note_on_c, 0, 63, 39
1, 239032, Note_on_c, 0, 57, 28
1, 239052, Note_off_c, 0, 63, 64
1, 239086, Note_on_c, 0, 78, 60
1, 239148, Control_c, 0, 64, 0
1, 239238, Note_off_c, 0, 84, 64
1, 239348, Control_c, 0, 64, 127
1, 239362, Note_on_c, 0, 63, 35
1, 239396, Note_off_c, 0, 49, 64
1, 239426, Note_off_c, 0, 57, 64
1, 239692, Note_on_c, 0, 60, 35
1, 239742, Note_off_c, 0, 63, 64
1, 239932, Note_off_c, 0, 78, 64
1, 239980, Note_off_c, 0, 60, 64
1, 240012, Note_on_c, 0, 54, 40
1, 240120, Note_off_c, 0, 54, 64
1, 240270, Note_on_c, 0, 83, 90
1, 240302, Note_on_c, 0, 49, 34
1, 240594, Note_on_c, 0, 62, 37
1, 240792, Note_off_c, 0, 62, 64
1, 240840, Note_on_c, 0, 56, 29
1, 240860, Note_on_c, 0, 77, 66
1, 240884, Control_c, 0, 64, 0
1, 240980, Note_off_c, 0, 83, 64
1, 241114, Control_c, 0, 64, 127
1, 241116, Note_off_c, 0, 49, 64
1, 241144, Note_on_c, 0, 62, 35
1, 241348, Note_off_c, 0, 62, 64
1, 241374, Note_off_c, 0, 56, 64
1, 241436, Note_on_c, 0, 59, 20
1, 241462, Note_off_c, 0, 77, 64
1, 241514, Note_off_c, 0, 59, 64
1, 241712, Note_on_c, 0, 53, 47
1, 241858, Note_off_c, 0, 53, 64
1, 242026, Note_on_c, 0, 82, 58
1, 242056, Note_on_c, 0, 49, 31
1, 242222, Control_c, 0, 64, 0
1, 242314, Note_on_c, 0, 61, 36
1, 242450, Control_c, 0, 64, 127
1, 242569, Note_off_c, 0, 61, 64
1, 242606, Note_on_c, 0, 55, 25
1, 242640, Note_on_c, 0, 76, 37
1, 242776, Note_off_c, 0, 82, 64
1, 242860, Note_off_c, 0, 49, 64
1, 242863, Note_on_c, 0, 61, 28
1, 242876, Note_off_c, 0, 55, 64
1, 243068, Note_off_c, 0, 61, 64
1, 243172, Note_on_c, 0, 58, 18
1, 243352, Note_off_c, 0, 58, 64
1, 243380, Note_off_c, 0, 76, 64
1, 243526, Note_on_c, 0, 52, 30
1, 243754, Note_off_c, 0, 52, 64
1, 243846, Note_on_c, 0, 81, 50
1, 243878, Note_on_c, 0, 49, 29
1, 243988, Control_c, 0, 64, 0
1, 244140, Note_on_c, 0, 61, 32
1, 244218, Control_c, 0, 64, 127
1, 244396, Note_off_c, 0, 61, 64
1, 244444, Note_on_c, 0, 54, 31
1, 244470, Note_on_c, 0, 75, 48
1, 244604, Note_off_c, 0, 81, 64
1, 244708, Note_off_c, 0, 49, 64
1, 244714, Note_on_c, 0, 61, 30
1, 244900, Note_off_c, 0, 61, 64
1, 245056, Note_on_c, 0, 57, 20
1, 245072, Note_off_c, 0, 54, 64
1, 245420, Note_off_c, 0, 57, 64
1, 245428, Note_off_c, 0, 75, 64
1, 245468, Note_on_c, 0, 51, 27
1, 245824, Note_on_c, 0, 80, 49
1, 245836, Note_off_c, 0, 51, 64
1, 245850, Note_on_c, 0, 49, 28
1, 245924, Control_c, 0, 64, 0
1, 246178, Note_on_c, 0, 60, 22
1, 246200, Control_c, 0, 64, 127
1, 246382, Note_off_c, 0, 60, 64
1, 246462, Note_on_c, 0, 54, 20
1, 246474, Note_off_c, 0, 49, 64
1, 246766, Note_on_c, 0, 60, 18
1, 246776, Note_off_c, 0, 54, 64
1, 247052, Note_on_c, 0, 68, 40
1, 247068, Note_on_c, 0, 56, 22
1, 247148, Note_off_c, 0, 60, 64
1, 247234, Note_off_c, 0, 68, 64
1, 247370, Note_on_c, 0, 70, 42
1, 247378, Note_off_c, 0, 56, 64
1, 247418, Note_on_c, 0, 51, 20
1, 247502, Note_off_c, 0, 70, 64
1, 247666, Note_on_c, 0, 72, 56
1, 247688, Note_on_c, 0, 49, 25
1, 247702, Note_off_c, 0, 51, 64
1, 247828, Note_off_c, 0, 72, 64
1, 247928, Note_on_c, 0, 73, 57
1, 247980, Note_on_c, 0, 60, 27
1, 248098, Note_off_c, 0, 73, 64
1, 248128, Note_off_c, 0, 60, 64
1, 248242, Note_on_c, 0, 74, 52
1, 248256, Note_on_c, 0, 54, 26
1, 248392, Note_off_c, 0, 74, 64
1, 248552, Note_on_c, 0, 75, 45
1, 248590, Note_on_c, 0, 60, 27
1, 248756, Note_off_c, 0, 75, 64
1, 248922, Note_on_c, 0, 77, 36
1, 248922, Note_on_c, 0, 56, 25
1, 248982, Control_c, 0, 64, 0
1, 248996, Note_off_c, 0, 54, 64
1, 249142, Note_off_c, 0, 60, 64
1, 249145, Note_off_c, 0, 77, 64
1, 249150, Control_c, 0, 64, 127
1, 249228, Note_off_c, 0, 56, 64
1, 249258, Note_off_c, 0, 49, 64
1, 249302, Note_on_c, 0, 78, 43
1, 249326, Note_on_c, 0, 51, 23
1, 249438, Note_off_c, 0, 51, 64
1, 249548, Note_off_c, 0, 78, 64
1, 249826, Control_c, 0, 64, 0
1, 249840, Note_on_c, 0, 77, 40
1, 249842, Note_on_c, 0, 37, 28
1, 250048, Note_off_c, 0, 37, 64
1, 250058, Control_c, 0, 64, 127
1, 250338, Note_on_c, 0, 65, 19
1, 250530, Note_off_c, 0, 65, 64
1, 250654, Note_on_c, 0, 56, 23
1, 250834, Note_off_c, 0, 56, 64
1, 250930, Note_on_c, 0, 65, 28
1, 251182, Note_off_c, 0, 65, 64
1, 251212, Note_on_c, 0, 61, 33
1, 251332, Note_off_c, 0, 61, 64
1, 251532, Note_on_c, 0, 53, 33
1, 251616, Note_off_c, 0, 53, 64
1, 251842, Note_off_c, 0, 77, 64
1, 251884, Note_on_c, 0, 49, 38
1, 251996, Note_off_c, 0, 80, 64
1, 252178, Control_c, 0, 64, 0
1, 252212, Note_on_c, 0, 64, 43
1, 252392, Control_c, 0, 64, 127
1, 252426, Note_off_c, 0, 64, 64
1, 252434, Note_on_c, 0, 85, 65
1, 252472, Note_on_c, 0, 58, 25
1, 252526, Note_off_c, 0, 49, 64
1, 252668, Note_off_c, 0, 58, 64
1, 252760, Note_on_c, 0, 64, 33
1, 252974, Note_on_c, 0, 94, 48
1, 253050, Note_off_c, 0, 94, 64
1, 253156, Note_on_c, 0, 61, 22
1, 253212, Note_off_c, 0, 64, 64
1, 253215, Note_on_c, 0, 79, 60
1, 253272, Note_off_c, 0, 61, 64
1, 253484, Note_on_c, 0, 55, 29
1, 253564, Note_off_c, 0, 55, 64
1, 253738, Note_on_c, 0, 49, 43
1, 253822, Note_off_c, 0, 79, 64
1, 253934, Note_off_c, 0, 85, 64
1, 254030, Note_on_c, 0, 63, 49
1, 254306, Note_on_c, 0, 84, 84
1, 254336, Note_off_c, 0, 63, 64
1, 254344, Control_c, 0, 64, 0
1, 254350, Note_on_c, 0, 57, 36
1, 254528, Control_c, 0, 64, 127
1, 254614, Note_off_c, 0, 49, 64
1, 254638, Note_off_c, 0, 84, 64
1, 254648, Note_off_c, 0, 57, 64
1, 254648, Note_on_c, 0, 63, 39
1, 254790, Note_on_c, 0, 93, 59
1, 254842, Note_off_c, 0, 93, 64
1, 254930, Note_on_c, 0, 78, 68
1, 254966, Note_on_c, 0, 60, 18
1, 255148, Note_off_c, 0, 60, 64
1, 255228, Note_on_c, 0, 54, 33
1, 255348, Note_off_c, 0, 78, 64
1, 255388, Note_off_c, 0, 63, 64
1, 255416, Note_off_c, 0, 54, 64
1, 255526, Note_on_c, 0, 49, 50
1, 255804, Control_c, 0, 64, 0
1, 255840, Note_on_c, 0, 62, 47
1, 256018, Control_c, 0, 64, 127
1, 256070, Note_off_c, 0, 62, 64
1, 256176, Note_on_c, 0, 83, 94
1, 256196, Note_on_c, 0, 56, 30
1, 256288, Note_off_c, 0, 49, 64
1, 256436, Note_off_c, 0, 56, 64
1, 256446, Note_off_c, 0, 83, 64
1, 256480, Note_on_c, 0, 62, 34
1, 256610, Note_on_c, 0, 92, 55
1, 256664, Note_off_c, 0, 92, 64
1, 256778, Note_on_c, 0, 59, 14
1, 256784, Note_on_c, 0, 77, 40
1, 256868, Note_off_c, 0, 59, 64
1, 257016, Note_off_c, 0, 62, 64
1, 257082, Note_on_c, 0, 53, 46
1, 257158, Note_off_c, 0, 53, 64
1, 257308, Note_off_c, 0, 77, 64
1, 257354, Note_on_c, 0, 49, 45
1, 257570, Control_c, 0, 64, 0
1, 257608, Note_on_c, 0, 61, 34
1, 257848, Control_c, 0, 64, 127
1, 257888, Note_off_c, 0, 61, 64
1, 257906, Note_on_c, 0, 55, 32
1, 257966, Note_on_c, 0, 82, 42
1, 258040, Note_off_c, 0, 49, 64
1, 258040, Note_off_c, 0, 55, 64
1, 258168, Note_off_c, 0, 82, 64
1, 258272, Note_on_c, 0, 61, 26
1, 258476, Note_on_c, 0, 91, 46
1, 258532, Note_off_c, 0, 91, 64
1, 258674, Note_on_c, 0, 58, 13
1, 258732, Note_on_c, 0, 76, 26
1, 258838, Note_off_c, 0, 61, 64
1, 258846, Note_off_c, 0, 58, 64
1, 259038, Note_on_c, 0, 52, 26
1, 259112, Note_off_c, 0, 52, 64
1, 259140, Note_off_c, 0, 76, 64
1, 259312, Note_on_c, 0, 49, 32
1, 259584, Note_on_c, 0, 61, 32
1, 259894, Note_off_c, 0, 61, 64
1, 259897, Note_on_c, 0, 54, 36
1, 259897, Note_on_c, 0, 81, 39
1, 259952, Control_c, 0, 64, 0
1, 260168, Control_c, 0, 64, 127
1, 260244, Note_on_c, 0, 61, 26
1, 260268, Note_off_c, 0, 81, 64
1, 260382, Note_on_c, 0, 90, 65
1, 260428, Note_off_c, 0, 90, 64
1, 260596, Note_off_c, 0, 54, 64
1, 260596, Note_off_c, 0, 61, 64
1, 260616, Note_off_c, 0, 49, 64
1, 260622, Note_on_c, 0, 57, 9
1, 260622, Note_on_c, 0, 75, 55
1, 260848, Note_off_c, 0, 57, 64
1, 260892, Note_off_c, 0, 75, 64
1, 261022, Note_on_c, 0, 51, 30
1, 261370, Note_off_c, 0, 51, 64
1, 261470, Note_on_c, 0, 80, 73
1, 261478, Note_on_c, 0, 49, 29
1, 261704, Control_c, 0, 64, 0
1, 261820, Note_on_c, 0, 60, 28
1, 261934, Control_c, 0, 64, 127
1, 262066, Note_off_c, 0, 60, 64
1, 262112, Note_on_c, 0, 54, 27
1, 262146, Note_off_c, 0, 49, 64
1, 262364, Note_off_c, 0, 54, 64
1, 262410, Note_on_c, 0, 60, 21
1, 262662, Note_off_c, 0, 60, 64
1, 262698, Note_on_c, 0, 56, 20
1, 262928, Note_off_c, 0, 56, 64
1, 263036, Note_on_c, 0, 51, 16
1, 263338, Note_off_c, 0, 51, 64
1, 263364, Note_on_c, 0, 49, 21
1, 263730, Note_on_c, 0, 79, 47
1, 263766, Note_on_c, 0, 60, 20
1, 263770, Note_off_c, 0, 49, 64
1, 263928, Note_off_c, 0, 60, 64
1, 263952, Note_off_c, 0, 79, 64
1, 264092, Note_on_c, 0, 78, 50
1, 264104, Note_on_c, 0, 54, 31
1, 264262, Note_off_c, 0, 54, 64
1, 264270, Note_off_c, 0, 78, 64
1, 264406, Note_on_c, 0, 77, 48
1, 264432, Note_on_c, 0, 60, 20
1, 264584, Note_off_c, 0, 77, 64
1, 264696, Note_off_c, 0, 60, 64
1, 264750, Note_on_c, 0, 75, 38
1, 264764, Note_on_c, 0, 56, 20
1, 264912, Note_off_c, 0, 75, 64
1, 264994, Note_off_c, 0, 56, 64
1, 265172, Note_on_c, 0, 77, 41
1, 265186, Note_on_c, 0, 51, 24
1, 265314, Note_off_c, 0, 51, 64
1, 265684, Control_c, 0, 64, 0
1, 265710, Note_on_c, 0, 73, 29
1, 265726, Note_on_c, 0, 37, 29
1, 265750, Note_off_c, 0, 77, 64
1, 265922, Note_off_c, 0, 37, 64
1, 265930, Control_c, 0, 64, 127
1, 266148, Note_on_c, 0, 61, 18
1, 266446, Note_off_c, 0, 61, 64
1, 266490, Note_on_c, 0, 49, 18
1, 266718, Note_off_c, 0, 49, 64
1, 266758, Note_on_c, 0, 61, 33
1, 266946, Note_off_c, 0, 61, 64
1, 267120, Note_on_c, 0, 53, 28
1, 267266, Note_off_c, 0, 53, 64
1, 267400, Note_on_c, 0, 44, 32
1, 267528, Note_off_c, 0, 44, 64
1, 267732, Note_on_c, 0, 77, 59
1, 267735, Note_on_c, 0, 37, 38
1, 267867, Note_off_c, 0, 37, 64
1, 268054, Note_off_c, 0, 80, 64
1, 268076, Note_on_c, 0, 61, 25
1, 268076, Note_on_c, 0, 78, 70
1, 268186, Note_off_c, 0, 77, 64
1, 268256, Note_off_c, 0, 61, 64
1, 268394, Note_on_c, 0, 79, 85
1, 268410, Note_on_c, 0, 49, 19
1, 268496, Note_off_c, 0, 78, 64
1, 268688, Note_on_c, 0, 61, 31
1, 268696, Note_on_c, 0, 80, 81
1, 268748, Note_off_c, 0, 79, 64
1, 269068, Note_on_c, 0, 84, 68
1, 269094, Note_off_c, 0, 80, 64
1, 269110, Control_c, 0, 64, 0
1, 269122, Note_on_c, 0, 53, 44
1, 269236, Note_off_c, 0, 61, 64
1, 269294, Control_c, 0, 64, 127
1, 269358, Note_off_c, 0, 49, 64
1, 269430, Note_off_c, 0, 53, 64
1, 269492, Note_on_c, 0, 82, 66
1, 269514, Note_on_c, 0, 44, 33
1, 269600, Note_off_c, 0, 84, 64
1, 269644, Note_off_c, 0, 44, 64
1, 269768, Note_off_c, 0, 73, 64
1, 269860, Note_on_c, 0, 80, 70
1, 269860, Note_on_c, 0, 72, 62
1, 269866, Note_on_c, 0, 37, 37
1, 269878, Control_c, 0, 64, 0
1, 269936, Note_off_c, 0, 82, 64
1, 270062, Control_c, 0, 64, 127
1, 270084, Note_off_c, 0, 37, 64
1, 270268, Note_on_c, 0, 73, 74
1, 270306, Note_on_c, 0, 60, 38
1, 270370, Note_off_c, 0, 72, 64
1, 270470, Note_off_c, 0, 60, 64
1, 270600, Note_on_c, 0, 74, 81
1, 270624, Note_on_c, 0, 51, 33
1, 270656, Note_off_c, 0, 73, 64
1, 270898, Note_on_c, 0, 75, 70
1, 270930, Note_on_c, 0, 60, 21
1, 270966, Note_off_c, 0, 74, 64
1, 271090, Note_off_c, 0, 60, 64
1, 271210, Note_on_c, 0, 78, 62
1, 271230, Note_on_c, 0, 54, 33
1, 271292, Note_off_c, 0, 75, 64
1, 271338, Control_c, 0, 64, 0
1, 271490, Control_c, 0, 64, 127
1, 271560, Note_off_c, 0, 54, 64
1, 271586, Note_on_c, 0, 44, 26
1, 271586, Note_on_c, 0, 77, 53
1, 271638, Note_off_c, 0, 51, 64
1, 271694, Note_off_c, 0, 78, 64
1, 271768, Note_off_c, 0, 44, 64
1, 272002, Note_on_c, 0, 75, 41
1, 272014, Note_on_c, 0, 37, 31
1, 272044, Control_c, 0, 64, 0
1, 272080, Note_off_c, 0, 77, 64
1, 272214, Note_off_c, 0, 37, 64
1, 272214, Control_c, 0, 64, 127
1, 272416, Note_on_c, 0, 79, 63
1, 272432, Note_on_c, 0, 60, 26
1, 272532, Note_off_c, 0, 80, 64
1, 272604, Note_off_c, 0, 60, 64
1, 272758, Note_on_c, 0, 78, 62
1, 272790, Note_off_c, 0, 79, 64
1, 272798, Note_on_c, 0, 51, 31
1, 273058, Note_off_c, 0, 78, 64
1, 273064, Note_on_c, 0, 77, 52
1, 273126, Note_on_c, 0, 60, 12
1, 273140, Note_off_c, 0, 75, 64
1, 273336, Note_off_c, 0, 60, 64
1, 273376, Note_on_c, 0, 68, 61
1, 273392, Note_on_c, 0, 75, 43
1, 273404, Note_off_c, 0, 77, 64
1, 273416, Note_on_c, 0, 54, 28
1, 273620, Note_off_c, 0, 54, 64
1, 273764, Note_off_c, 0, 51, 64
1, 273782, Note_on_c, 0, 77, 45
1, 273785, Note_off_c, 0, 68, 64
1, 273790, Note_on_c, 0, 44, 26
1, 273852, Note_off_c, 0, 75, 64
1, 273884, Note_off_c, 0, 44, 64
1, 274216, Note_on_c, 0, 37, 28
1, 274278, Note_on_c, 0, 69, 63
1, 274298, Note_on_c, 0, 73, 38
1, 274346, Note_off_c, 0, 77, 64
1, 274395, Control_c, 0, 64, 0
1, 274610, Control_c, 0, 64, 127
1, 274622, Note_off_c, 0, 37, 64
1, 274864, Note_on_c, 0, 68, 55
1, 274890, Note_on_c, 0, 61, 22
1, 275000, Note_off_c, 0, 69, 64
1, 275168, Note_off_c, 0, 61, 64
1, 275236, Note_on_c, 0, 49, 20
1, 275334, Note_on_c, 0, 67, 49
1, 275390, Note_off_c, 0, 68, 64
1, 275590, Note_on_c, 0, 61, 22
1, 275702, Note_on_c, 0, 68, 48
1, 275764, Note_off_c, 0, 67, 64
1, 275942, Note_on_c, 0, 53, 53
1, 276032, Note_on_c, 0, 72, 27
1, 276086, Control_c, 0, 64, 0
1, 276130, Note_on_c, 0, 70, 50
1, 276134, Note_off_c, 0, 68, 64
1, 276232, Note_off_c, 0, 72, 64
1, 276238, Control_c, 0, 64, 127
1, 276318, Note_off_c, 0, 61, 64
1, 276452, Note_off_c, 0, 53, 64
1, 276488, Note_on_c, 0, 44, 46
1, 276536, Note_off_c, 0, 49, 64
1, 276556, Note_on_c, 0, 68, 58
1, 276618, Note_off_c, 0, 44, 64
1, 276684, Note_off_c, 0, 70, 64
1, 276736, Note_off_c, 0, 73, 64
1, 276788, Note_off_c, 0, 68, 64
1, 276876, Note_on_c, 0, 37, 35
1, 276964, Note_on_c, 0, 77, 72
1, 276970, Note_on_c, 0, 68, 49
1, 277022, Control_c, 0, 64, 0
1, 277156, Note_off_c, 0, 37, 64
1, 277160, Control_c, 0, 64, 127
1, 277328, Note_on_c, 0, 78, 81
1, 277354, Note_on_c, 0, 61, 39
1, 277372, Note_off_c, 0, 77, 64
1, 277526, Note_off_c, 0, 68, 64
1, 277634, Note_off_c, 0, 61, 64
1, 277656, Note_on_c, 0, 79, 87
1, 277674, Note_on_c, 0, 49, 24
1, 277722, Note_off_c, 0, 78, 64
1, 277924, Note_off_c, 0, 49, 64
1, 277956, Note_on_c, 0, 80, 73
1, 277964, Note_on_c, 0, 61, 31
1, 278018, Note_off_c, 0, 79, 64
1, 278192, Note_off_c, 0, 61, 64
1, 278312, Note_on_c, 0, 84, 73
1, 278384, Note_off_c, 0, 80, 64
1, 278506, Note_on_c, 0, 53, 2
1, 278582, Note_off_c, 0, 53, 64
1, 278744, Note_on_c, 0, 44, 23
1, 278754, Note_on_c, 0, 82, 58
1, 278816, Note_off_c, 0, 44, 64
1, 278874, Note_off_c, 0, 84, 64
1, 279120, Note_on_c, 0, 80, 59
1, 279123, Note_on_c, 0, 37, 33
1, 279127, Control_c, 0, 64, 0
1, 279146, Note_on_c, 0, 72, 36
1, 279160, Note_off_c, 0, 82, 64
1, 279312, Note_off_c, 0, 37, 64
1, 279328, Control_c, 0, 64, 127
1, 279512, Note_on_c, 0, 73, 46
1, 279546, Note_on_c, 0, 60, 21
1, 279592, Note_off_c, 0, 72, 64
1, 279710, Note_off_c, 0, 60, 64
1, 279836, Note_on_c, 0, 74, 53
1, 279844, Note_on_c, 0, 51, 20
1, 279894, Note_off_c, 0, 73, 64
1, 280128, Note_on_c, 0, 75, 45
1, 280156, Note_on_c, 0, 60, 19
1, 280170, Note_off_c, 0, 74, 64
1, 280338, Note_off_c, 0, 60, 64
1, 280450, Note_on_c, 0, 78, 38
1, 280462, Note_on_c, 0, 54, 35
1, 280508, Note_off_c, 0, 75, 64
1, 280630, Note_off_c, 0, 54, 64
1, 280712, Note_off_c, 0, 51, 64
1, 280818, Note_on_c, 0, 44, 26
1, 280828, Note_on_c, 0, 77, 38
1, 280918, Note_off_c, 0, 44, 64
1, 280921, Note_off_c, 0, 78, 64
1, 281262, Note_on_c, 0, 37, 28
1, 281266, Note_on_c, 0, 75, 34
1, 281278, Control_c, 0, 64, 0
1, 281292, Note_off_c, 0, 77, 64
1, 281448, Control_c, 0, 64, 127
1, 281456, Note_off_c, 0, 37, 64
1, 281720, Note_on_c, 0, 79, 43
1, 281740, Note_on_c, 0, 60, 15
1, 281838, Note_off_c, 0, 80, 64
1, 281904, Note_off_c, 0, 60, 64
1, 282074, Note_on_c, 0, 78, 46
1, 282080, Note_off_c, 0, 79, 64
1, 282106, Note_on_c, 0, 51, 23
1, 282346, Note_off_c, 0, 78, 64
1, 282372, Note_on_c, 0, 77, 41
1, 282406, Note_on_c, 0, 60, 26
1, 282442, Note_off_c, 0, 75, 64
1, 282602, Note_off_c, 0, 60, 64
1, 282704, Note_on_c, 0, 68, 40
1, 282718, Note_on_c, 0, 75, 36
1, 282734, Note_off_c, 0, 77, 64
1, 282740, Note_on_c, 0, 54, 31
1, 282932, Note_off_c, 0, 54, 64
1, 283066, Note_off_c, 0, 51, 64
1, 283112, Note_on_c, 0, 77, 49
1, 283118, Note_off_c, 0, 68, 64
1, 283128, Note_on_c, 0, 44, 22
1, 283156, Note_off_c, 0, 75, 64
1, 283226, Note_off_c, 0, 44, 64
1, 283420, Note_off_c, 0, 77, 64
1, 283580, Note_on_c, 0, 37, 20
1, 283654, Note_on_c, 0, 65, 36
1, 283654, Note_on_c, 0, 73, 44
1, 283676, Control_c, 0, 64, 0
1, 283874, Note_off_c, 0, 37, 64
1, 283890, Control_c, 0, 64, 127
1, 284100, Note_on_c, 0, 61, 28
1, 284380, Note_off_c, 0, 61, 64
1, 284444, Note_on_c, 0, 49, 13
1, 284698, Note_off_c, 0, 49, 64
1, 284706, Note_on_c, 0, 61, 24
1, 284902, Note_off_c, 0, 61, 64
1, 285068, Note_on_c, 0, 53, 35
1, 285144, Note_off_c, 0, 53, 64
1, 285364, Note_on_c, 0, 44, 28
1, 285492, Note_off_c, 0, 44, 64
1, 285702, Note_on_c, 0, 37, 39
1, 285786, Note_off_c, 0, 37, 64
1, 286042, Note_on_c, 0, 61, 37
1, 286254, Note_off_c, 0, 61, 64
1, 286396, Note_on_c, 0, 49, 23
1, 286680, Note_off_c, 0, 49, 64
1, 286726, Note_on_c, 0, 61, 16
1, 286894, Note_off_c, 0, 61, 64
1, 287170, Note_on_c, 0, 53, 23
1, 287258, Note_off_c, 0, 53, 64
1, 287554, Note_off_c, 0, 65, 64
1, 287572, Note_on_c, 0, 44, 26
1, 287648, Note_off_c, 0, 73, 64
1, 287698, Note_off_c, 0, 44, 64
1, 287978, Note_on_c, 0, 77, 51
1, 287983, Note_on_c, 0, 68, 39
1, 287988, Note_on_c, 0, 37, 30
1, 288088, Note_off_c, 0, 37, 64
1, 288135, Note_off_c, 0, 68, 64
1, 288468, Note_on_c, 0, 78, 62
1, 288470, Note_on_c, 0, 70, 37
1, 288502, Note_on_c, 0, 61, 17
1, 288505, Note_off_c, 0, 77, 64
1, 288654, Note_off_c, 0, 70, 64
1, 288654, Note_off_c, 0, 61, 64
1, 288840, Note_on_c, 0, 80, 63
1, 288850, Note_on_c, 0, 72, 32
1, 288872, Note_on_c, 0, 49, 21
1, 288874, Note_off_c, 0, 78, 64
1, 288946, Note_off_c, 0, 72, 64
1, 289086, Note_off_c, 0, 49, 64
1, 289164, Note_on_c, 0, 82, 58
1, 289170, Note_off_c, 0, 80, 64
1, 289176, Note_on_c, 0, 73, 43
1, 289220, Note_on_c, 0, 61, 25
1, 289268, Note_off_c, 0, 73, 64
1, 289336, Note_off_c, 0, 61, 64
1, 289446, Note_on_c, 0, 84, 77
1, 289451, Note_on_c, 0, 75, 38
1, 289472, Note_off_c, 0, 82, 64
1, 289521, Note_off_c, 0, 75, 64
1, 289634, Note_on_c, 0, 53, 20
1, 289720, Note_off_c, 0, 53, 64
1, 289740, Note_on_c, 0, 85, 69
1, 289752, Note_off_c, 0, 84, 64
1, 289756, Note_on_c, 0, 77, 54
1, 289832, Note_off_c, 0, 77, 64
1, 289908, Note_on_c, 0, 44, 34
1, 290030, Note_on_c, 0, 87, 53
1, 290034, Note_on_c, 0, 78, 43
1, 290052, Note_off_c, 0, 44, 64
1, 290086, Note_off_c, 0, 85, 64
1, 290114, Note_off_c, 0, 78, 64
1, 290306, Note_on_c, 0, 89, 58
1, 290314, Note_on_c, 0, 80, 38
1, 290318, Note_off_c, 0, 87, 64
1, 290342, Note_on_c, 0, 37, 30
1, 290392, Note_off_c, 0, 80, 64
1, 290405, Note_off_c, 0, 37, 64
1, 290596, Note_on_c, 0, 90, 54
1, 290596, Note_on_c, 0, 82, 38
1, 290600, Note_off_c, 0, 89, 64
1, 290684, Note_off_c, 0, 82, 64
1, 290732, Note_on_c, 0, 61, 28
1, 290910, Note_off_c, 0, 61, 64
1, 290910, Note_on_c, 0, 92, 44
1, 290918, Note_on_c, 0, 84, 35
1, 290942, Note_off_c, 0, 90, 64
1, 290992, Note_off_c, 0, 84, 64
1, 291082, Note_off_c, 0, 92, 64
1, 291092, Note_on_c, 0, 49, 24
1, 291234, Note_on_c, 0, 94, 45
1, 291244, Note_on_c, 0, 85, 40
1, 291298, Note_off_c, 0, 49, 64
1, 291324, Note_off_c, 0, 85, 64
1, 291414, Note_on_c, 0, 61, 30
1, 291470, Note_off_c, 0, 94, 64
1, 291566, Note_on_c, 0, 96, 43
1, 291566, Note_on_c, 0, 87, 27
1, 291592, Note_off_c, 0, 61, 64
1, 291680, Note_off_c, 0, 87, 64
1, 291858, Note_on_c, 0, 53, 28
1, 291910, Note_off_c, 0, 96, 64
1, 291936, Note_off_c, 0, 53, 64
1, 291938, Note_on_c, 0, 97, 27
1, 291950, Note_on_c, 0, 89, 30
1, 292044, Note_off_c, 0, 89, 64
1, 292306, Note_on_c, 0, 44, 22
1, 292392, Note_on_c, 0, 99, 30
1, 292400, Note_off_c, 0, 97, 64
1, 292402, Note_on_c, 0, 90, 17
1, 292530, Note_off_c, 0, 44, 64
1, 292586, Note_off_c, 0, 90, 64
1, 293350, Note_on_c, 0, 101, 28
1, 293350, Note_on_c, 0, 92, 20
1, 293356, Note_on_c, 0, 37, 17
1, 293386, Note_off_c, 0, 99, 64
1, 294158, Note_off_c, 0, 101, 64
1, 294274, Note_off_c, 0, 37, 64
1, 294314, Note_off_c, 0, 92, 64
1, 295424, Note_on_c, 0, 56, 25
1, 295426, Note_on_c, 0, 44, 23
1, 295427, Note_on_c, 0, 68, 25
1, 295432, Note_on_c, 0, 77, 54
1, 295738, Control_c, 0, 64, 0
1, 296444, Control_c, 0, 64, 127
1, 296998, Note_off_c, 0, 68, 64
1, 298538, Note_on_c, 0, 49, 20
1, 298540, Note_on_c, 0, 73, 21
1, 298541, Note_on_c, 0, 65, 12
1, 298656, Note_off_c, 0, 44, 64
1, 298908, Note_off_c, 0, 77, 64
1, 299472, Control_c, 0, 64, 0
1, 299702, Control_c, 0, 64, 127
1, 303264, Note_off_c, 0, 65, 64
1, 303276, Note_off_c, 0, 56, 64
1, 303316, Note_off_c, 0, 73, 64
1, 303326, Note_off_c, 0, 49, 64
1, 303650, Control_c, 0, 64, 0
1, 305280, Control_c, 0, 64, 0
1, 305280, End_track
0, 0, End_of_file
