0, 0, Header, 1, 3, 48
1, 0, Start_track
1, 0, Time_signature, 4, 2, 24, 8
1, 0, Key_signature, -4, "major"
1, 0, Tempo, 500000
1, 0, Marker_t, "Chopin  Nocturne in Fmin Op.55.No.1."
1, 144, Tempo, 1333333
1, 192, Tempo, 1111111
1, 240, Tempo, 869565
1, 288, Tempo, 821918
1, 336, Tempo, 800000
1, 384, Tempo, 1000000
1, 420, Tempo, 800000
1, 432, Tempo, 983607
1, 468, Tempo, 769231
1, 480, Tempo, 895522
1, 528, Tempo, 923077
1, 672, Tempo, 800000
1, 720, Tempo, 821918
1, 768, Tempo, 869565
1, 804, Tempo, 800000
1, 816, Tempo, 952381
1, 848, Tempo, 697674
1, 852, Tempo, 1071429
1, 864, Tempo, 845070
1, 912, Tempo, 895522
1, 1008, Tempo, 821918
1, 1056, Tempo, 789474
1, 1104, Tempo, 800000
1, 1152, Tempo, 789474
1, 1200, Tempo, 800000
1, 1248, Tempo, 1071429
1, 1256, Tempo, 697674
1, 1262, Tempo, 731707
1, 1267, Tempo, 714286
1, 1272, Tempo, 731707
1, 1276, Tempo, 769231
1, 1280, Tempo, 845070
1, 1284, Tempo, 1071429
1, 1290, Tempo, 1818182
1, 1296, Tempo, 895522
1, 1332, Tempo, 769231
1, 1344, Tempo, 821918
1, 1392, Tempo, 666667
1, 1420, Tempo, 800000
1, 1430, Tempo, 1818182
1, 1440, Tempo, 845070
1, 1488, Tempo, 895522
1, 1524, Tempo, 1621622
1, 1532, Tempo, 800000
1, 1536, Tempo, 845070
1, 1584, Tempo, 895522
1, 1680, Tempo, 923077
1, 1728, Tempo, 895522
1, 1776, Tempo, 845070
1, 1824, Tempo, 789474
1, 1872, Tempo, 821918
1, 1920, Tempo, 895522
1, 1956, Tempo, 750000
1, 1968, Tempo, 983607
1, 2004, Tempo, 800000
1, 2016, Tempo, 821918
1, 2064, Tempo, 800000
1, 2112, Tempo, 845070
1, 2208, Tempo, 769231
1, 2256, Tempo, 821918
1, 2340, Tempo, 800000
1, 2352, Tempo, 1071429
1, 2382, Tempo, 645161
1, 2388, Tempo, 1250000
1, 2400, Tempo, 821918
1, 2544, Tempo, 789474
1, 2592, Tempo, 731707
1, 2640, Tempo, 769231
1, 2688, Tempo, 750000
1, 2736, Tempo, 666667
1, 2760, Tempo, 895522
1, 2768, Tempo, 845070
1, 2776, Tempo, 1071429
1, 2784, Tempo, 1000000
1, 2790, Tempo, 821918
1, 2795, Tempo, 731707
1, 2800, Tempo, 681818
1, 2815, Tempo, 697674
1, 2820, Tempo, 869565
1, 2832, Tempo, 895522
1, 2836, Tempo, 923077
1, 2840, Tempo, 1621622
1, 2845, Tempo, 1463415
1, 2852, Tempo, 1153846
1, 2866, Tempo, 952381
1, 2873, Tempo, 1621622
1, 2880, Tempo, 800000
1, 2928, Tempo, 731707
1, 2958, Tempo, 1071429
1, 2970, Tempo, 3333333
1, 2976, Tempo, 895522
1, 3024, Tempo, 983607
1, 3060, Tempo, 1250000
1, 3068, Tempo, 2307692
1, 3072, Tempo, 983607
1, 3120, Tempo, 800000
1, 3168, Tempo, 769231
1, 3216, Tempo, 789474
1, 3264, Tempo, 714286
1, 3312, Tempo, 666667
1, 3336, Tempo, 750000
1, 3360, Tempo, 659341
1, 3384, Tempo, 666667
1, 3408, Tempo, 645161
1, 3432, Tempo, 731707
1, 3456, Tempo, 714286
1, 3504, Tempo, 666667
1, 3552, Tempo, 659341
1, 3600, Tempo, 681818
1, 3648, Tempo, 631579
1, 3696, Tempo, 645161
1, 3720, Tempo, 697674
1, 3744, Tempo, 659341
1, 3780, Tempo, 952381
1, 3792, Tempo, 659341
1, 3816, Tempo, 845070
1, 3840, Tempo, 697674
1, 3888, Tempo, 845070
1, 3936, Tempo, 750000
1, 3984, Tempo, 800000
1, 4020, Tempo, 923077
1, 4032, Tempo, 731707
1, 4128, Tempo, 750000
1, 4176, Tempo, 769231
1, 4212, Tempo, 845070
1, 4224, Tempo, 714286
1, 4272, Tempo, 697674
1, 4320, Tempo, 789474
1, 4362, Tempo, 800000
1, 4368, Tempo, 845070
1, 4404, Tempo, 1071429
1, 4416, Tempo, 789474
1, 4464, Tempo, 769231
1, 4512, Tempo, 845070
1, 4554, Tempo, 1000000
1, 4560, Tempo, 1071429
1, 4596, Tempo, 2000000
1, 4608, Tempo, 923077
1, 4656, Tempo, 952381
1, 4704, Tempo, 1250000
1, 4752, Tempo, 1463415
1, 4800, Tempo, 1250000
1, 4848, Tempo, 923077
1, 4896, Tempo, 821918
1, 4944, Tempo, 845070
1, 4992, Tempo, 895522
1, 5028, Tempo, 750000
1, 5040, Tempo, 983607
1, 5076, Tempo, 923077
1, 5088, Tempo, 869565
1, 5136, Tempo, 895522
1, 5184, Tempo, 845070
1, 5232, Tempo, 1153846
1, 5248, Tempo, 800000
1, 5264, Tempo, 789474
1, 5280, Tempo, 800000
1, 5296, Tempo, 681818
1, 5312, Tempo, 659341
1, 5328, Tempo, 681818
1, 5344, Tempo, 697674
1, 5360, Tempo, 769231
1, 5376, Tempo, 731707
1, 5392, Tempo, 750000
1, 5408, Tempo, 869565
1, 5424, Tempo, 845070
1, 5440, Tempo, 789474
1, 5456, Tempo, 1111111
1, 5472, Tempo, 821918
1, 5520, Tempo, 800000
1, 5568, Tempo, 845070
1, 5616, Tempo, 769231
1, 5664, Tempo, 714286
1, 5712, Tempo, 750000
1, 5760, Tempo, 769231
1, 5808, Tempo, 731707
1, 5832, Tempo, 895522
1, 5840, Tempo, 845070
1, 5848, Tempo, 1153846
1, 5856, Tempo, 1000000
1, 5862, Tempo, 821918
1, 5867, Tempo, 731707
1, 5872, Tempo, 681818
1, 5887, Tempo, 697674
1, 5892, Tempo, 869565
1, 5904, Tempo, 895522
1, 5908, Tempo, 923077
1, 5912, Tempo, 1071429
1, 5926, Tempo, 983607
1, 5935, Tempo, 1000000
1, 5943, Tempo, 1333333
1, 5952, Tempo, 769231
1, 6000, Tempo, 372671
1, 6030, Tempo, 1153846
1, 6036, Tempo, 1250000
1, 6042, Tempo, 3333333
1, 6048, Tempo, 821918
1, 6096, Tempo, 952381
1, 6132, Tempo, 1071429
1, 6140, Tempo, 1935484
1, 6144, Tempo, 800000
1, 6192, Tempo, 821918
1, 6240, Tempo, 750000
1, 6288, Tempo, 895522
1, 6336, Tempo, 821918
1, 6384, Tempo, 666667
1, 6408, Tempo, 731707
1, 6432, Tempo, 666667
1, 6456, Tempo, 697674
1, 6480, Tempo, 631579
1, 6504, Tempo, 821918
1, 6528, Tempo, 714286
1, 6576, Tempo, 681818
1, 6624, Tempo, 645161
1, 6672, Tempo, 697674
1, 6720, Tempo, 618557
1, 6768, Tempo, 666667
1, 6792, Tempo, 731707
1, 6816, Tempo, 681818
1, 6852, Tempo, 845070
1, 6864, Tempo, 659341
1, 6888, Tempo, 800000
1, 6912, Tempo, 697674
1, 6960, Tempo, 869565
1, 7008, Tempo, 789474
1, 7056, Tempo, 769231
1, 7092, Tempo, 800000
1, 7104, Tempo, 731707
1, 7152, Tempo, 769231
1, 7200, Tempo, 731707
1, 7284, Tempo, 800000
1, 7296, Tempo, 714286
1, 7392, Tempo, 845070
1, 7434, Tempo, 800000
1, 7440, Tempo, 952381
1, 7476, Tempo, 1250000
1, 7488, Tempo, 769231
1, 7536, Tempo, 789474
1, 7584, Tempo, 895522
1, 7626, Tempo, 1000000
1, 7632, Tempo, 1034483
1, 7668, Tempo, 1818182
1, 7680, Tempo, 983607
1, 7776, Tempo, 1153846
1, 7824, Tempo, 1333333
1, 7872, Tempo, 1200000
1, 7920, Tempo, 952381
1, 7968, Tempo, 800000
1, 8016, Tempo, 845070
1, 8064, Tempo, 952381
1, 8100, Tempo, 697674
1, 8112, Tempo, 1034483
1, 8142, Tempo, 500000
1, 8148, Tempo, 895522
1, 8160, Tempo, 845070
1, 8256, Tempo, 869565
1, 8304, Tempo, 1153846
1, 8320, Tempo, 845070
1, 8336, Tempo, 1000000
1, 8352, Tempo, 895522
1, 8368, Tempo, 697674
1, 8384, Tempo, 731707
1, 8400, Tempo, 666667
1, 8416, Tempo, 714286
1, 8432, Tempo, 769231
1, 8448, Tempo, 731707
1, 8464, Tempo, 750000
1, 8480, Tempo, 800000
1, 8496, Tempo, 1153846
1, 8508, Tempo, 1304348
1, 8520, Tempo, 1714286
1, 8528, Tempo, 571429
1, 8532, Tempo, 1621622
1, 8544, Tempo, 845070
1, 8592, Tempo, 789474
1, 8688, Tempo, 750000
1, 8736, Tempo, 681818
1, 8784, Tempo, 714286
1, 8832, Tempo, 697674
1, 8880, Tempo, 535714
1, 8904, Tempo, 845070
1, 8912, Tempo, 821918
1, 8920, Tempo, 1071429
1, 8928, Tempo, 1000000
1, 8934, Tempo, 821918
1, 8939, Tempo, 731707
1, 8944, Tempo, 681818
1, 8959, Tempo, 697674
1, 8964, Tempo, 869565
1, 8976, Tempo, 895522
1, 8980, Tempo, 923077
1, 8984, Tempo, 2000000
1, 8988, Tempo, 1621622
1, 8994, Tempo, 1333333
1, 9000, Tempo, 1304348
1, 9006, Tempo, 1333333
1, 9012, Tempo, 1463415
1, 9018, Tempo, 1818182
1, 9024, Tempo, 697674
1, 9072, Tempo, 333333
1, 9102, Tempo, 1153846
1, 9108, Tempo, 1071429
1, 9114, Tempo, 3333333
1, 9120, Tempo, 895522
1, 9168, Tempo, 1000000
1, 9204, Tempo, 1818182
1, 9216, Tempo, 800000
1, 9264, Tempo, 666667
1, 9280, Tempo, 444444
1, 9296, Tempo, 400000
1, 9312, Tempo, 392157
1, 9328, Tempo, 382166
1, 9344, Tempo, 377358
1, 9360, Tempo, 382166
1, 9376, Tempo, 410959
1, 9392, Tempo, 357143
1, 9408, Tempo, 555556
1, 9456, Tempo, 465116
1, 9552, Tempo, 434783
1, 9600, Tempo, 458015
1, 9648, Tempo, 410959
1, 9664, Tempo, 372671
1, 9680, Tempo, 357143
1, 9696, Tempo, 352941
1, 9712, Tempo, 348837
1, 9728, Tempo, 344828
1, 9760, Tempo, 352941
1, 9776, Tempo, 372671
1, 9792, Tempo, 487805
1, 9840, Tempo, 441176
1, 9936, Tempo, 458015
1, 9978, Tempo, 645161
1, 9984, Tempo, 472441
1, 10020, Tempo, 434783
1, 10032, Tempo, 480000
1, 10080, Tempo, 392157
1, 10096, Tempo, 368098
1, 10112, Tempo, 363636
1, 10144, Tempo, 382166
1, 10160, Tempo, 372671
1, 10176, Tempo, 458015
1, 10224, Tempo, 422535
1, 10320, Tempo, 428571
1, 10368, Tempo, 434783
1, 10416, Tempo, 392157
1, 10432, Tempo, 377358
1, 10448, Tempo, 372671
1, 10464, Tempo, 368098
1, 10496, Tempo, 377358
1, 10512, Tempo, 392157
1, 10528, Tempo, 434783
1, 10544, Tempo, 731707
1, 10560, Tempo, 566038
1, 10608, Tempo, 480000
1, 10704, Tempo, 517241
1, 10738, Tempo, 697674
1, 10744, Tempo, 320856
1, 10748, Tempo, 357143
1, 10752, Tempo, 495868
1, 10788, Tempo, 517241
1, 10800, Tempo, 952381
1, 10848, Tempo, 618557
1, 10896, Tempo, 923077
1, 10944, Tempo, 1000000
1, 10960, Tempo, 594059
1, 10976, Tempo, 535714
1, 10992, Tempo, 571429
1, 11040, Tempo, 769231
1, 11056, Tempo, 535714
1, 11072, Tempo, 500000
1, 11088, Tempo, 487805
1, 11104, Tempo, 495868
1, 11120, Tempo, 555556
1, 11136, Tempo, 458015
1, 11152, Tempo, 434783
1, 11168, Tempo, 444444
1, 11184, Tempo, 472441
1, 11232, Tempo, 444444
1, 11248, Tempo, 422535
1, 11264, Tempo, 434783
1, 11280, Tempo, 500000
1, 11328, Tempo, 458015
1, 11344, Tempo, 434783
1, 11360, Tempo, 441176
1, 11376, Tempo, 444444
1, 11424, Tempo, 458015
1, 11440, Tempo, 428571
1, 11456, Tempo, 422535
1, 11472, Tempo, 400000
1, 11488, Tempo, 405405
1, 11504, Tempo, 434783
1, 11520, Tempo, 422535
1, 11536, Tempo, 410959
1, 11552, Tempo, 422535
1, 11568, Tempo, 410959
1, 11632, Tempo, 405405
1, 11648, Tempo, 416667
1, 11664, Tempo, 618557
1, 11712, Tempo, 535714
1, 11728, Tempo, 400000
1, 11744, Tempo, 392157
1, 11760, Tempo, 397351
1, 11808, Tempo, 422535
1, 11824, Tempo, 382166
1, 11840, Tempo, 392157
1, 11856, Tempo, 363636
1, 11872, Tempo, 372671
1, 11888, Tempo, 400000
1, 11904, Tempo, 392157
1, 11920, Tempo, 363636
1, 11936, Tempo, 372671
1, 11952, Tempo, 405405
1, 12000, Tempo, 361446
1, 12016, Tempo, 348837
1, 12032, Tempo, 352941
1, 12048, Tempo, 392157
1, 12096, Tempo, 372671
1, 12112, Tempo, 361446
1, 12128, Tempo, 363636
1, 12144, Tempo, 382166
1, 12192, Tempo, 405405
1, 12208, Tempo, 372671
1, 12224, Tempo, 392157
1, 12240, Tempo, 352941
1, 12256, Tempo, 357143
1, 12272, Tempo, 400000
1, 12288, Tempo, 392157
1, 12304, Tempo, 377358
1, 12320, Tempo, 444444
1, 12336, Tempo, 465116
1, 12384, Tempo, 472441
1, 12400, Tempo, 422535
1, 12416, Tempo, 535714
1, 12432, Tempo, 697674
1, 12480, Tempo, 952381
1, 12496, Tempo, 582524
1, 12512, Tempo, 458015
1, 12528, Tempo, 410959
1, 12576, Tempo, 382166
1, 12592, Tempo, 363636
1, 12608, Tempo, 372671
1, 12624, Tempo, 392157
1, 12648, Tempo, 333333
1, 12672, Tempo, 382166
1, 12688, Tempo, 357143
1, 12704, Tempo, 361446
1, 12720, Tempo, 357143
1, 12784, Tempo, 348837
1, 12800, Tempo, 352941
1, 12816, Tempo, 348837
1, 12864, Tempo, 357143
1, 12880, Tempo, 348837
1, 12896, Tempo, 352941
1, 12912, Tempo, 372671
1, 12960, Tempo, 344828
1, 12976, Tempo, 337079
1, 12992, Tempo, 340909
1, 13008, Tempo, 327869
1, 13056, Tempo, 344828
1, 13072, Tempo, 337079
1, 13088, Tempo, 344828
1, 13104, Tempo, 382166
1, 13152, Tempo, 372671
1, 13168, Tempo, 357143
1, 13184, Tempo, 400000
1, 13200, Tempo, 487805
1, 13224, Tempo, 895522
1, 13248, Tempo, 1000000
1, 13296, Tempo, 1153846
1, 13308, Tempo, 697674
1, 13320, Tempo, 645161
1, 13332, Tempo, 571429
1, 13344, Tempo, 517241
1, 13356, Tempo, 487805
1, 13368, Tempo, 500000
1, 13380, Tempo, 535714
1, 13392, Tempo, 555556
1, 13404, Tempo, 545455
1, 13416, Tempo, 555556
1, 13428, Tempo, 571429
1, 13440, Tempo, 594059
1, 13452, Tempo, 606061
1, 13464, Tempo, 618557
1, 13476, Tempo, 659341
1, 13488, Tempo, 645161
1, 13500, Tempo, 659341
1, 13512, Tempo, 681818
1, 13524, Tempo, 750000
1, 13536, Tempo, 800000
1, 13548, Tempo, 869565
1, 13560, Tempo, 952381
1, 13572, Tempo, 1250000
1, 13584, Tempo, 1304348
1, 13596, Tempo, 1395349
1, 13608, Tempo, 1333333
1, 13620, Tempo, 2000000
1, 13632, Tempo, 1071429
1, 13656, Tempo, 697674
1, 13680, Tempo, 800000
1, 13704, Tempo, 681818
1, 13728, Tempo, 800000
1, 13752, Tempo, 895522
1, 13776, Tempo, 1071429
1, 13800, Tempo, 1714286
1, 13824, Tempo, 1153846
1, 13872, Tempo, 1250000
1, 13896, Tempo, 1621622
1, 13920, Tempo, 1818182
1, 13944, Tempo, 2307692
1, 13968, Tempo, 1714286
1, 14016, Time_signature, 12, 3, 12, 8
1, 14016, Tempo, 3333333
1, 14064, Tempo, 3750000
1, 14112, Tempo, 1395349
1, 14160, Tempo, 1000000
1, 14208, Tempo, 952381
1, 14256, Tempo, 1000000
1, 14304, Time_signature, 4, 2, 24, 8
1, 14340, Tempo, 769231
1, 14352, Tempo, 1111111
1, 14388, Tempo, 1071429
1, 14400, Tempo, 952381
1, 14448, Tempo, 1000000
1, 14544, Tempo, 1153846
1, 14560, Tempo, 845070
1, 14576, Tempo, 895522
1, 14592, Tempo, 845070
1, 14608, Tempo, 769231
1, 14624, Tempo, 789474
1, 14640, Tempo, 750000
1, 14656, Tempo, 731707
1, 14672, Tempo, 800000
1, 14688, Tempo, 769231
1, 14704, Tempo, 731707
1, 14720, Tempo, 845070
1, 14736, Tempo, 895522
1, 14768, Tempo, 1250000
1, 14784, Tempo, 983607
1, 14880, Tempo, 1111111
1, 14928, Tempo, 1250000
1, 14944, Tempo, 895522
1, 14960, Tempo, 1000000
1, 14976, Tempo, 869565
1, 14992, Tempo, 800000
1, 15008, Tempo, 789474
1, 15024, Tempo, 714286
1, 15040, Tempo, 666667
1, 15056, Tempo, 731707
1, 15072, Tempo, 666667
1, 15088, Tempo, 566038
1, 15104, Tempo, 582524
1, 15120, Tempo, 571429
1, 15136, Tempo, 545455
1, 15152, Tempo, 555556
1, 15168, Tempo, 535714
1, 15184, Tempo, 500000
1, 15200, Tempo, 508475
1, 15232, Tempo, 517241
1, 15248, Tempo, 535714
1, 15264, Tempo, 508475
1, 15280, Tempo, 480000
1, 15296, Tempo, 465116
1, 15312, Tempo, 458015
1, 15328, Tempo, 444444
1, 15344, Tempo, 458015
1, 15360, Tempo, 451128
1, 15376, Tempo, 428571
1, 15392, Tempo, 441176
1, 15408, Tempo, 434783
1, 15424, Tempo, 428571
1, 15440, Tempo, 458015
1, 15456, Tempo, 434783
1, 15472, Tempo, 410959
1, 15488, Tempo, 400000
1, 15504, Tempo, 397351
1, 15520, Tempo, 382166
1, 15536, Tempo, 387097
1, 15552, Tempo, 392157
1, 15568, Tempo, 382166
1, 15584, Tempo, 377358
1, 15616, Tempo, 387097
1, 15632, Tempo, 400000
1, 15648, Tempo, 410959
1, 15664, Tempo, 444444
1, 15680, Tempo, 571429
1, 15696, Tempo, 458015
1, 15712, Tempo, 410959
1, 15728, Tempo, 416667
1, 15744, Tempo, 405405
1, 15760, Tempo, 392157
1, 15776, Tempo, 397351
1, 15792, Tempo, 392157
1, 15808, Tempo, 372671
1, 15824, Tempo, 382166
1, 15840, Tempo, 377358
1, 15856, Tempo, 363636
1, 15872, Tempo, 368098
1, 15888, Tempo, 363636
1, 15904, Tempo, 357143
1, 15920, Tempo, 363636
1, 15936, Tempo, 368098
1, 15952, Tempo, 361446
1, 15968, Tempo, 372671
1, 15984, Tempo, 382166
1, 16000, Tempo, 387097
1, 16016, Tempo, 434783
1, 16032, Tempo, 410959
1, 16048, Tempo, 372671
1, 16064, Tempo, 377358
1, 16080, Tempo, 368098
1, 16096, Tempo, 382166
1, 16112, Tempo, 410959
1, 16128, Tempo, 377358
1, 16144, Tempo, 361446
1, 16160, Tempo, 377358
1, 16176, Tempo, 392157
1, 16192, Tempo, 410959
1, 16208, Tempo, 400000
1, 16224, Tempo, 392157
1, 16240, Tempo, 400000
1, 16256, Tempo, 444444
1, 16272, Tempo, 458015
1, 16288, Tempo, 517241
1, 16304, Tempo, 800000
1, 16320, Tempo, 535714
1, 16336, Tempo, 571429
1, 16352, Tempo, 645161
1, 16368, Tempo, 594059
1, 16400, Tempo, 800000
1, 16416, Tempo, 535714
1, 16432, Tempo, 422535
1, 16448, Tempo, 487805
1, 16480, Tempo, 416667
1, 16496, Tempo, 422535
1, 16512, Tempo, 416667
1, 16528, Tempo, 400000
1, 16544, Tempo, 410959
1, 16576, Tempo, 434783
1, 16592, Tempo, 487805
1, 16608, Tempo, 434783
1, 16624, Tempo, 400000
1, 16640, Tempo, 392157
1, 16656, Tempo, 410959
1, 16672, Tempo, 416667
1, 16688, Tempo, 458015
1, 16704, Tempo, 410959
1, 16720, Tempo, 400000
1, 16736, Tempo, 397351
1, 16768, Tempo, 410959
1, 16784, Tempo, 458015
1, 16816, Tempo, 444444
1, 16832, Tempo, 410959
1, 16848, Tempo, 400000
1, 16864, Tempo, 405405
1, 16880, Tempo, 410959
1, 16896, Tempo, 416667
1, 16912, Tempo, 422535
1, 16928, Tempo, 444444
1, 16944, Tempo, 451128
1, 16960, Tempo, 535714
1, 16976, Tempo, 895522
1, 16992, Tempo, 555556
1, 17008, Tempo, 458015
1, 17024, Tempo, 434783
1, 17040, Tempo, 416667
1, 17056, Tempo, 422535
1, 17072, Tempo, 458015
1, 17088, Tempo, 500000
1, 17104, Tempo, 472441
1, 17120, Tempo, 517241
1, 17136, Tempo, 535714
1, 17152, Tempo, 555556
1, 17168, Tempo, 800000
1, 17200, Tempo, 517241
1, 17216, Tempo, 458015
1, 17232, Tempo, 444444
1, 17248, Tempo, 458015
1, 17264, Tempo, 487805
1, 17280, Tempo, 500000
1, 17296, Tempo, 400000
1, 17312, Tempo, 372671
1, 17328, Tempo, 340909
1, 17344, Tempo, 327869
1, 17360, Tempo, 333333
1, 17376, Tempo, 320856
1, 17392, Tempo, 303030
1, 17408, Tempo, 291262
1, 17424, Tempo, 288462
1, 17440, Tempo, 291262
1, 17456, Tempo, 297030
1, 17472, Tempo, 291262
1, 17488, Tempo, 285714
1, 17504, Tempo, 284360
1, 17536, Tempo, 285714
1, 17552, Tempo, 288462
1, 17568, Tempo, 285714
1, 17584, Tempo, 279070
1, 17600, Tempo, 276498
1, 17632, Tempo, 279070
1, 17648, Tempo, 307692
1, 17664, Tempo, 285714
1, 17680, Tempo, 269058
1, 17696, Tempo, 265487
1, 17712, Tempo, 263158
1, 17744, Tempo, 271493
1, 17760, Tempo, 291262
1, 17776, Tempo, 266667
1, 17792, Tempo, 263158
1, 17808, Tempo, 260870
1, 17824, Tempo, 263158
1, 17840, Tempo, 271493
1, 17856, Tempo, 276498
1, 17872, Tempo, 269058
1, 17888, Tempo, 266667
1, 17904, Tempo, 271493
1, 17920, Tempo, 281690
1, 17936, Tempo, 303030
1, 17952, Tempo, 291262
1, 17968, Tempo, 276498
1, 17984, Tempo, 265487
1, 18000, Tempo, 263158
1, 18016, Tempo, 265487
1, 18032, Tempo, 269058
1, 18048, Tempo, 273973
1, 18064, Tempo, 269058
1, 18080, Tempo, 263158
1, 18096, Tempo, 260870
1, 18112, Tempo, 263158
1, 18128, Tempo, 271493
1, 18160, Tempo, 266667
1, 18176, Tempo, 260870
1, 18192, Tempo, 256410
1, 18208, Tempo, 258621
1, 18224, Tempo, 269058
1, 18240, Tempo, 276498
1, 18256, Tempo, 265487
1, 18272, Tempo, 263158
1, 18288, Tempo, 266667
1, 18304, Tempo, 276498
1, 18320, Tempo, 281690
1, 18336, Tempo, 320856
1, 18352, Tempo, 291262
1, 18368, Tempo, 279070
1, 18384, Tempo, 284360
1, 18400, Tempo, 291262
1, 18416, Tempo, 307692
1, 18432, Tempo, 327869
1, 18448, Tempo, 320856
1, 18464, Tempo, 307692
1, 18480, Tempo, 317460
1, 18496, Tempo, 333333
1, 18512, Tempo, 357143
1, 18528, Tempo, 382166
1, 18544, Tempo, 357143
1, 18560, Tempo, 348837
1, 18576, Tempo, 357143
1, 18592, Tempo, 422535
1, 18608, Tempo, 458015
1, 18624, Tempo, 472441
1, 18640, Tempo, 434783
1, 18656, Tempo, 500000
1, 18672, Tempo, 571429
1, 18688, Tempo, 645161
1, 18704, Tempo, 1463415
1, 18720, Tempo, 895522
1, 18816, Tempo, 1250000
1, 18912, Tempo, 895522
1, 19008, Tempo, 1250000
1, 19068, Tempo, 697674
1, 19074, Tempo, 555556
1, 19080, Tempo, 535714
1, 19086, Tempo, 526316
1, 19092, Tempo, 535714
1, 19098, Tempo, 645161
1, 19104, Tempo, 769231
1, 19260, Tempo, 800000
1, 19266, Tempo, 606061
1, 19272, Tempo, 582524
1, 19278, Tempo, 571429
1, 19284, Tempo, 594059
1, 19290, Tempo, 645161
1, 19296, Tempo, 800000
1, 19356, Tempo, 845070
1, 19362, Tempo, 681818
1, 19368, Tempo, 659341
1, 19380, Tempo, 666667
1, 19386, Tempo, 800000
1, 19392, Tempo, 1333333
1, 19446, Tempo, 1714286
1, 19452, Tempo, 1304348
1, 19458, Tempo, 1153846
1, 19464, Tempo, 1250000
1, 19470, Tempo, 1333333
1, 19476, Tempo, 1818182
1, 19488, Tempo, 2142857
1, 19488, End_track
2, 0, Start_track
2, 0, MIDI_port, 0
2, 0, Title_t, "Piano L"
2, 0, Control_c, 0, 0, 0
2, 0, Control_c, 0, 32, 0
2, 0, Program_c, 0, 0
2, 0, Control_c, 0, 7, 127
2, 0, Control_c, 0, 10, 50
2, 16, Control_c, 0, 91, 90
2, 38, Control_c, 0, 93, 80
2, 144, Note_on_c, 0, 72, 40
2, 192, Control_c, 0, 64, 127
2, 240, Note_on_c, 0, 72, 0
2, 240, Note_on_c, 0, 77, 36
2, 288, Note_on_c, 0, 77, 0
2, 288, Note_on_c, 0, 75, 40
2, 290, Control_c, 0, 64, 0
2, 296, Control_c, 0, 64, 127
2, 336, Note_on_c, 0, 75, 0
2, 336, Note_on_c, 0, 73, 46
2, 384, Note_on_c, 0, 73, 0
2, 384, Note_on_c, 0, 72, 40
2, 384, Control_c, 0, 64, 127
2, 386, Control_c, 0, 64, 0
2, 392, Control_c, 0, 64, 127
2, 420, Note_on_c, 0, 72, 0
2, 420, Note_on_c, 0, 71, 30
2, 432, Note_on_c, 0, 71, 0
2, 432, Note_on_c, 0, 72, 30
2, 468, Note_on_c, 0, 72, 0
2, 468, Note_on_c, 0, 73, 32
2, 480, Note_on_c, 0, 73, 0
2, 480, Note_on_c, 0, 72, 34
2, 482, Control_c, 0, 64, 0
2, 488, Control_c, 0, 64, 127
2, 576, Control_c, 0, 64, 127
2, 578, Control_c, 0, 64, 0
2, 584, Control_c, 0, 64, 127
2, 624, Note_on_c, 0, 72, 0
2, 624, Note_on_c, 0, 77, 38
2, 672, Note_on_c, 0, 77, 0
2, 672, Note_on_c, 0, 75, 42
2, 674, Control_c, 0, 64, 0
2, 680, Control_c, 0, 64, 127
2, 720, Note_on_c, 0, 75, 0
2, 720, Note_on_c, 0, 73, 46
2, 768, Note_on_c, 0, 73, 0
2, 768, Note_on_c, 0, 72, 40
2, 768, Control_c, 0, 64, 127
2, 770, Control_c, 0, 64, 0
2, 776, Control_c, 0, 64, 127
2, 804, Note_on_c, 0, 72, 0
2, 804, Note_on_c, 0, 71, 35
2, 816, Note_on_c, 0, 71, 0
2, 816, Note_on_c, 0, 72, 35
2, 848, Note_on_c, 0, 72, 0
2, 848, Note_on_c, 0, 75, 32
2, 852, Note_on_c, 0, 75, 0
2, 852, Note_on_c, 0, 73, 32
2, 864, Note_on_c, 0, 73, 0
2, 864, Note_on_c, 0, 72, 34
2, 866, Control_c, 0, 64, 0
2, 872, Control_c, 0, 64, 127
2, 960, Control_c, 0, 64, 127
2, 962, Control_c, 0, 64, 0
2, 968, Control_c, 0, 64, 127
2, 1008, Note_on_c, 0, 72, 0
2, 1008, Note_on_c, 0, 77, 42
2, 1056, Note_on_c, 0, 77, 0
2, 1056, Note_on_c, 0, 75, 54
2, 1058, Control_c, 0, 64, 0
2, 1064, Control_c, 0, 64, 127
2, 1104, Note_on_c, 0, 75, 0
2, 1104, Note_on_c, 0, 73, 56
2, 1152, Note_on_c, 0, 73, 0
2, 1152, Note_on_c, 0, 72, 54
2, 1152, Control_c, 0, 64, 127
2, 1154, Control_c, 0, 64, 0
2, 1160, Control_c, 0, 64, 127
2, 1248, Note_on_c, 0, 72, 0
2, 1248, Note_on_c, 0, 70, 38
2, 1250, Control_c, 0, 64, 0
2, 1256, Note_on_c, 0, 72, 36
2, 1256, Control_c, 0, 64, 127
2, 1257, Note_on_c, 0, 70, 0
2, 1262, Note_on_c, 0, 70, 39
2, 1263, Note_on_c, 0, 72, 0
2, 1267, Note_on_c, 0, 72, 41
2, 1268, Note_on_c, 0, 70, 0
2, 1272, Note_on_c, 0, 70, 42
2, 1273, Note_on_c, 0, 72, 0
2, 1276, Note_on_c, 0, 72, 42
2, 1277, Note_on_c, 0, 70, 0
2, 1280, Note_on_c, 0, 70, 42
2, 1281, Note_on_c, 0, 72, 0
2, 1284, Note_on_c, 0, 69, 48
2, 1285, Note_on_c, 0, 70, 0
2, 1290, Note_on_c, 0, 70, 54
2, 1291, Note_on_c, 0, 69, 0
2, 1296, Note_on_c, 0, 70, 0
2, 1296, Note_on_c, 0, 72, 50
2, 1332, Note_on_c, 0, 72, 0
2, 1332, Note_on_c, 0, 73, 48
2, 1344, Note_on_c, 0, 73, 0
2, 1344, Note_on_c, 0, 68, 44
2, 1344, Control_c, 0, 64, 127
2, 1346, Control_c, 0, 64, 0
2, 1352, Control_c, 0, 64, 127
2, 1420, Note_on_c, 0, 68, 0
2, 1420, Note_on_c, 0, 58, 32
2, 1430, Note_on_c, 0, 64, 29
2, 1440, Note_on_c, 0, 68, 37
2, 1442, Control_c, 0, 64, 0
2, 1448, Control_c, 0, 64, 127
2, 1488, Note_on_c, 0, 68, 0
2, 1488, Note_on_c, 0, 67, 32
2, 1510, Note_on_c, 0, 64, 0
2, 1510, Note_on_c, 0, 58, 0
2, 1524, Note_on_c, 0, 67, 0
2, 1524, Note_on_c, 0, 65, 30
2, 1532, Note_on_c, 0, 56, 24
2, 1536, Note_on_c, 0, 65, 0
2, 1536, Note_on_c, 0, 65, 32
2, 1536, Control_c, 0, 64, 127
2, 1538, Note_on_c, 0, 56, 0
2, 1538, Control_c, 0, 64, 0
2, 1544, Control_c, 0, 64, 127
2, 1630, Note_on_c, 0, 65, 0
2, 1632, Note_on_c, 0, 72, 40
2, 1634, Control_c, 0, 64, 0
2, 1640, Control_c, 0, 64, 127
2, 1678, Note_on_c, 0, 72, 0
2, 1680, Note_on_c, 0, 72, 40
2, 1728, Control_c, 0, 64, 127
2, 1730, Control_c, 0, 64, 0
2, 1736, Control_c, 0, 64, 127
2, 1776, Note_on_c, 0, 72, 0
2, 1776, Note_on_c, 0, 77, 38
2, 1824, Note_on_c, 0, 77, 0
2, 1824, Note_on_c, 0, 75, 42
2, 1826, Control_c, 0, 64, 0
2, 1832, Control_c, 0, 64, 127
2, 1872, Note_on_c, 0, 75, 0
2, 1872, Note_on_c, 0, 73, 46
2, 1920, Note_on_c, 0, 73, 0
2, 1920, Note_on_c, 0, 72, 40
2, 1920, Control_c, 0, 64, 127
2, 1922, Control_c, 0, 64, 0
2, 1928, Control_c, 0, 64, 127
2, 1956, Note_on_c, 0, 72, 0
2, 1956, Note_on_c, 0, 71, 36
2, 1968, Note_on_c, 0, 71, 0
2, 1968, Note_on_c, 0, 72, 36
2, 2004, Note_on_c, 0, 72, 0
2, 2004, Note_on_c, 0, 73, 33
2, 2016, Note_on_c, 0, 73, 0
2, 2016, Note_on_c, 0, 72, 33
2, 2018, Control_c, 0, 64, 0
2, 2024, Control_c, 0, 64, 127
2, 2112, Control_c, 0, 64, 127
2, 2114, Control_c, 0, 64, 0
2, 2120, Control_c, 0, 64, 127
2, 2160, Note_on_c, 0, 72, 0
2, 2160, Note_on_c, 0, 77, 46
2, 2208, Note_on_c, 0, 77, 0
2, 2208, Note_on_c, 0, 75, 46
2, 2210, Control_c, 0, 64, 0
2, 2216, Control_c, 0, 64, 127
2, 2256, Note_on_c, 0, 75, 0
2, 2256, Note_on_c, 0, 73, 48
2, 2304, Note_on_c, 0, 73, 0
2, 2304, Note_on_c, 0, 72, 44
2, 2304, Control_c, 0, 64, 127
2, 2306, Control_c, 0, 64, 0
2, 2312, Control_c, 0, 64, 127
2, 2340, Note_on_c, 0, 72, 0
2, 2340, Note_on_c, 0, 71, 41
2, 2352, Note_on_c, 0, 71, 0
2, 2352, Note_on_c, 0, 72, 40
2, 2382, Note_on_c, 0, 72, 0
2, 2382, Note_on_c, 0, 75, 38
2, 2388, Note_on_c, 0, 75, 0
2, 2388, Note_on_c, 0, 73, 38
2, 2400, Note_on_c, 0, 73, 0
2, 2400, Note_on_c, 0, 72, 36
2, 2402, Control_c, 0, 64, 0
2, 2408, Control_c, 0, 64, 127
2, 2496, Control_c, 0, 64, 127
2, 2498, Control_c, 0, 64, 0
2, 2504, Control_c, 0, 64, 127
2, 2544, Note_on_c, 0, 72, 0
2, 2544, Note_on_c, 0, 77, 46
2, 2592, Note_on_c, 0, 77, 0
2, 2592, Note_on_c, 0, 75, 54
2, 2594, Control_c, 0, 64, 0
2, 2600, Control_c, 0, 64, 127
2, 2640, Note_on_c, 0, 75, 0
2, 2640, Note_on_c, 0, 73, 56
2, 2688, Note_on_c, 0, 73, 0
2, 2688, Note_on_c, 0, 72, 54
2, 2688, Control_c, 0, 64, 127
2, 2690, Control_c, 0, 64, 0
2, 2696, Control_c, 0, 64, 127
2, 2760, Note_on_c, 0, 72, 0
2, 2760, Note_on_c, 0, 69, 40
2, 2768, Note_on_c, 0, 69, 0
2, 2768, Note_on_c, 0, 70, 40
2, 2776, Note_on_c, 0, 70, 0
2, 2776, Note_on_c, 0, 72, 42
2, 2784, Note_on_c, 0, 72, 0
2, 2784, Note_on_c, 0, 70, 40
2, 2786, Control_c, 0, 64, 0
2, 2790, Note_on_c, 0, 72, 35
2, 2791, Note_on_c, 0, 70, 0
2, 2792, Control_c, 0, 64, 127
2, 2795, Note_on_c, 0, 70, 39
2, 2796, Note_on_c, 0, 72, 0
2, 2800, Note_on_c, 0, 72, 41
2, 2801, Note_on_c, 0, 70, 0
2, 2805, Note_on_c, 0, 70, 42
2, 2806, Note_on_c, 0, 72, 0
2, 2810, Note_on_c, 0, 72, 42
2, 2811, Note_on_c, 0, 70, 0
2, 2815, Note_on_c, 0, 70, 42
2, 2816, Note_on_c, 0, 72, 0
2, 2820, Note_on_c, 0, 72, 42
2, 2821, Note_on_c, 0, 70, 0
2, 2824, Note_on_c, 0, 70, 42
2, 2825, Note_on_c, 0, 72, 0
2, 2828, Note_on_c, 0, 72, 42
2, 2829, Note_on_c, 0, 70, 0
2, 2832, Note_on_c, 0, 70, 42
2, 2833, Note_on_c, 0, 72, 0
2, 2836, Note_on_c, 0, 72, 40
2, 2837, Note_on_c, 0, 70, 0
2, 2840, Note_on_c, 0, 70, 36
2, 2841, Note_on_c, 0, 72, 0
2, 2845, Note_on_c, 0, 70, 0
2, 2845, Note_on_c, 0, 69, 39
2, 2852, Note_on_c, 0, 69, 0
2, 2852, Note_on_c, 0, 70, 42
2, 2859, Note_on_c, 0, 70, 0
2, 2859, Note_on_c, 0, 72, 45
2, 2866, Note_on_c, 0, 72, 0
2, 2866, Note_on_c, 0, 75, 48
2, 2873, Note_on_c, 0, 75, 0
2, 2873, Note_on_c, 0, 73, 42
2, 2880, Note_on_c, 0, 73, 0
2, 2880, Note_on_c, 0, 68, 46
2, 2880, Control_c, 0, 64, 127
2, 2882, Control_c, 0, 64, 0
2, 2888, Control_c, 0, 64, 127
2, 2958, Note_on_c, 0, 68, 0
2, 2958, Note_on_c, 0, 58, 35
2, 2962, Note_on_c, 0, 58, 0
2, 2964, Note_on_c, 0, 58, 35
2, 2970, Note_on_c, 0, 64, 37
2, 2976, Note_on_c, 0, 68, 42
2, 2978, Control_c, 0, 64, 0
2, 2984, Control_c, 0, 64, 127
2, 3024, Note_on_c, 0, 68, 0
2, 3024, Note_on_c, 0, 67, 37
2, 3042, Note_on_c, 0, 64, 0
2, 3042, Note_on_c, 0, 58, 0
2, 3060, Note_on_c, 0, 67, 0
2, 3060, Note_on_c, 0, 65, 36
2, 3068, Note_on_c, 0, 65, 0
2, 3068, Note_on_c, 0, 56, 28
2, 3072, Note_on_c, 0, 65, 35
2, 3072, Control_c, 0, 64, 127
2, 3074, Note_on_c, 0, 56, 0
2, 3074, Control_c, 0, 64, 0
2, 3080, Control_c, 0, 64, 127
2, 3162, Note_on_c, 0, 65, 0
2, 3168, Note_on_c, 0, 68, 48
2, 3170, Control_c, 0, 64, 0
2, 3176, Control_c, 0, 64, 127
2, 3216, Note_on_c, 0, 68, 0
2, 3216, Note_on_c, 0, 68, 49
2, 3218, Control_c, 0, 64, 0
2, 3224, Control_c, 0, 64, 127
2, 3264, Note_on_c, 0, 68, 0
2, 3264, Note_on_c, 0, 70, 48
2, 3264, Control_c, 0, 64, 127
2, 3266, Control_c, 0, 64, 0
2, 3272, Control_c, 0, 64, 127
2, 3312, Note_on_c, 0, 70, 0
2, 3312, Note_on_c, 0, 62, 46
2, 3314, Control_c, 0, 64, 0
2, 3320, Control_c, 0, 64, 127
2, 3336, Note_on_c, 0, 62, 0
2, 3336, Note_on_c, 0, 63, 47
2, 3360, Note_on_c, 0, 63, 0
2, 3360, Note_on_c, 0, 65, 50
2, 3362, Control_c, 0, 64, 0
2, 3368, Control_c, 0, 64, 127
2, 3384, Note_on_c, 0, 65, 0
2, 3384, Note_on_c, 0, 63, 49
2, 3408, Note_on_c, 0, 63, 0
2, 3408, Note_on_c, 0, 68, 54
2, 3432, Note_on_c, 0, 68, 0
2, 3432, Note_on_c, 0, 70, 55
2, 3456, Note_on_c, 0, 70, 0
2, 3456, Note_on_c, 0, 72, 54
2, 3456, Control_c, 0, 64, 127
2, 3458, Control_c, 0, 64, 0
2, 3464, Control_c, 0, 64, 127
2, 3546, Note_on_c, 0, 72, 0
2, 3552, Note_on_c, 0, 72, 59
2, 3554, Control_c, 0, 64, 0
2, 3560, Control_c, 0, 64, 127
2, 3596, Note_on_c, 0, 72, 0
2, 3600, Note_on_c, 0, 72, 62
2, 3648, Note_on_c, 0, 72, 0
2, 3648, Note_on_c, 0, 74, 63
2, 3648, Control_c, 0, 64, 127
2, 3650, Control_c, 0, 64, 0
2, 3656, Control_c, 0, 64, 127
2, 3696, Note_on_c, 0, 74, 0
2, 3696, Note_on_c, 0, 66, 65
2, 3720, Note_on_c, 0, 66, 0
2, 3720, Note_on_c, 0, 67, 65
2, 3744, Note_on_c, 0, 67, 0
2, 3744, Note_on_c, 0, 68, 64
2, 3746, Control_c, 0, 64, 0
2, 3752, Control_c, 0, 64, 127
2, 3780, Note_on_c, 0, 68, 0
2, 3780, Note_on_c, 0, 67, 66
2, 3792, Note_on_c, 0, 67, 0
2, 3792, Note_on_c, 0, 72, 70
2, 3816, Note_on_c, 0, 72, 0
2, 3816, Note_on_c, 0, 74, 68
2, 3840, Note_on_c, 0, 74, 0
2, 3840, Note_on_c, 0, 76, 64
2, 3840, Control_c, 0, 64, 127
2, 3842, Control_c, 0, 64, 0
2, 3848, Control_c, 0, 64, 127
2, 3936, Note_on_c, 0, 76, 0
2, 3936, Note_on_c, 0, 77, 66
2, 3938, Control_c, 0, 64, 0
2, 3944, Control_c, 0, 64, 127
2, 3984, Note_on_c, 0, 77, 0
2, 3984, Note_on_c, 0, 75, 70
2, 3986, Control_c, 0, 64, 0
2, 3992, Control_c, 0, 64, 127
2, 4020, Note_on_c, 0, 75, 0
2, 4020, Note_on_c, 0, 73, 66
2, 4032, Note_on_c, 0, 73, 0
2, 4032, Note_on_c, 0, 73, 57
2, 4032, Control_c, 0, 64, 127
2, 4034, Control_c, 0, 64, 0
2, 4040, Control_c, 0, 64, 127
2, 4080, Note_on_c, 0, 73, 0
2, 4080, Note_on_c, 0, 72, 55
2, 4082, Control_c, 0, 64, 0
2, 4088, Control_c, 0, 64, 127
2, 4128, Note_on_c, 0, 72, 0
2, 4128, Note_on_c, 0, 73, 60
2, 4130, Control_c, 0, 64, 0
2, 4136, Control_c, 0, 64, 127
2, 4176, Note_on_c, 0, 73, 0
2, 4176, Note_on_c, 0, 72, 56
2, 4178, Control_c, 0, 64, 0
2, 4184, Control_c, 0, 64, 127
2, 4212, Note_on_c, 0, 72, 0
2, 4212, Note_on_c, 0, 70, 47
2, 4224, Note_on_c, 0, 70, 0
2, 4224, Note_on_c, 0, 70, 47
2, 4224, Control_c, 0, 64, 127
2, 4226, Control_c, 0, 64, 0
2, 4272, Note_on_c, 0, 70, 0
2, 4272, Note_on_c, 0, 68, 44
2, 4320, Note_on_c, 0, 68, 0
2, 4320, Note_on_c, 0, 67, 48
2, 4362, Note_on_c, 0, 67, 0
2, 4362, Note_on_c, 0, 70, 44
2, 4368, Note_on_c, 0, 70, 0
2, 4368, Note_on_c, 0, 68, 43
2, 4404, Note_on_c, 0, 68, 0
2, 4404, Note_on_c, 0, 67, 45
2, 4416, Note_on_c, 0, 67, 0
2, 4416, Note_on_c, 0, 67, 40
2, 4416, Control_c, 0, 64, 0
2, 4464, Note_on_c, 0, 67, 0
2, 4464, Note_on_c, 0, 67, 38
2, 4512, Note_on_c, 0, 67, 0
2, 4512, Note_on_c, 0, 67, 37
2, 4554, Note_on_c, 0, 67, 0
2, 4554, Note_on_c, 0, 70, 36
2, 4560, Note_on_c, 0, 70, 0
2, 4560, Note_on_c, 0, 68, 36
2, 4596, Note_on_c, 0, 68, 0
2, 4596, Note_on_c, 0, 67, 32
2, 4608, Note_on_c, 0, 67, 0
2, 4608, Note_on_c, 0, 67, 30
2, 4608, Control_c, 0, 64, 0
2, 4656, Note_on_c, 0, 67, 0
2, 4656, Note_on_c, 0, 72, 38
2, 4664, Control_c, 0, 64, 127
2, 4698, Note_on_c, 0, 72, 0
2, 4704, Note_on_c, 0, 72, 41
2, 4740, Note_on_c, 0, 72, 0
2, 4752, Note_on_c, 0, 72, 40
2, 4754, Control_c, 0, 64, 0
2, 4760, Control_c, 0, 64, 127
2, 4800, Control_c, 0, 64, 127
2, 4802, Control_c, 0, 64, 0
2, 4808, Control_c, 0, 64, 127
2, 4848, Note_on_c, 0, 72, 0
2, 4848, Note_on_c, 0, 77, 38
2, 4896, Note_on_c, 0, 77, 0
2, 4896, Note_on_c, 0, 75, 44
2, 4898, Control_c, 0, 64, 0
2, 4904, Control_c, 0, 64, 127
2, 4944, Note_on_c, 0, 75, 0
2, 4944, Note_on_c, 0, 73, 46
2, 4992, Note_on_c, 0, 73, 0
2, 4992, Note_on_c, 0, 72, 40
2, 4992, Control_c, 0, 64, 127
2, 4994, Control_c, 0, 64, 0
2, 5000, Control_c, 0, 64, 127
2, 5028, Note_on_c, 0, 72, 0
2, 5028, Note_on_c, 0, 71, 38
2, 5040, Note_on_c, 0, 71, 0
2, 5040, Note_on_c, 0, 72, 38
2, 5076, Note_on_c, 0, 72, 0
2, 5076, Note_on_c, 0, 73, 36
2, 5088, Note_on_c, 0, 73, 0
2, 5088, Note_on_c, 0, 72, 35
2, 5090, Control_c, 0, 64, 0
2, 5096, Control_c, 0, 64, 127
2, 5184, Control_c, 0, 64, 127
2, 5186, Control_c, 0, 64, 0
2, 5192, Control_c, 0, 64, 127
2, 5232, Note_on_c, 0, 72, 0
2, 5232, Note_on_c, 0, 76, 38
2, 5248, Note_on_c, 0, 76, 0
2, 5248, Note_on_c, 0, 79, 43
2, 5264, Note_on_c, 0, 79, 0
2, 5264, Note_on_c, 0, 77, 44
2, 5280, Note_on_c, 0, 77, 0
2, 5280, Note_on_c, 0, 75, 40
2, 5282, Control_c, 0, 64, 0
2, 5288, Control_c, 0, 64, 127
2, 5296, Note_on_c, 0, 75, 0
2, 5296, Note_on_c, 0, 63, 40
2, 5312, Note_on_c, 0, 63, 0
2, 5312, Note_on_c, 0, 70, 48
2, 5328, Note_on_c, 0, 70, 0
2, 5328, Note_on_c, 0, 72, 52
2, 5344, Note_on_c, 0, 72, 0
2, 5344, Note_on_c, 0, 75, 52
2, 5360, Note_on_c, 0, 75, 0
2, 5360, Note_on_c, 0, 73, 52
2, 5376, Note_on_c, 0, 73, 0
2, 5376, Note_on_c, 0, 72, 54
2, 5376, Control_c, 0, 64, 127
2, 5378, Control_c, 0, 64, 0
2, 5384, Control_c, 0, 64, 127
2, 5392, Note_on_c, 0, 72, 0
2, 5392, Note_on_c, 0, 60, 46
2, 5408, Note_on_c, 0, 60, 0
2, 5408, Note_on_c, 0, 63, 48
2, 5424, Note_on_c, 0, 63, 0
2, 5424, Note_on_c, 0, 68, 40
2, 5440, Note_on_c, 0, 68, 0
2, 5440, Note_on_c, 0, 71, 39
2, 5456, Note_on_c, 0, 71, 0
2, 5456, Note_on_c, 0, 73, 44
2, 5472, Note_on_c, 0, 73, 0
2, 5472, Note_on_c, 0, 72, 40
2, 5474, Control_c, 0, 64, 0
2, 5480, Control_c, 0, 64, 127
2, 5568, Control_c, 0, 64, 127
2, 5570, Control_c, 0, 64, 0
2, 5576, Control_c, 0, 64, 127
2, 5616, Note_on_c, 0, 72, 0
2, 5616, Note_on_c, 0, 77, 50
2, 5664, Note_on_c, 0, 77, 0
2, 5664, Note_on_c, 0, 75, 53
2, 5666, Control_c, 0, 64, 0
2, 5672, Control_c, 0, 64, 127
2, 5712, Note_on_c, 0, 75, 0
2, 5712, Note_on_c, 0, 73, 58
2, 5760, Note_on_c, 0, 73, 0
2, 5760, Note_on_c, 0, 72, 50
2, 5760, Control_c, 0, 64, 127
2, 5762, Control_c, 0, 64, 0
2, 5768, Control_c, 0, 64, 127
2, 5832, Note_on_c, 0, 72, 0
2, 5832, Note_on_c, 0, 69, 44
2, 5840, Note_on_c, 0, 69, 0
2, 5840, Note_on_c, 0, 70, 45
2, 5848, Note_on_c, 0, 70, 0
2, 5848, Note_on_c, 0, 72, 42
2, 5856, Note_on_c, 0, 72, 0
2, 5856, Note_on_c, 0, 70, 38
2, 5858, Control_c, 0, 64, 0
2, 5862, Note_on_c, 0, 70, 0
2, 5862, Note_on_c, 0, 72, 41
2, 5864, Control_c, 0, 64, 127
2, 5867, Note_on_c, 0, 72, 0
2, 5867, Note_on_c, 0, 70, 44
2, 5872, Note_on_c, 0, 70, 0
2, 5872, Note_on_c, 0, 72, 45
2, 5877, Note_on_c, 0, 72, 0
2, 5877, Note_on_c, 0, 70, 46
2, 5882, Note_on_c, 0, 70, 0
2, 5882, Note_on_c, 0, 72, 47
2, 5887, Note_on_c, 0, 72, 0
2, 5887, Note_on_c, 0, 70, 47
2, 5892, Note_on_c, 0, 70, 0
2, 5892, Note_on_c, 0, 72, 47
2, 5896, Note_on_c, 0, 72, 0
2, 5896, Note_on_c, 0, 70, 47
2, 5900, Note_on_c, 0, 70, 0
2, 5900, Note_on_c, 0, 72, 47
2, 5904, Note_on_c, 0, 72, 0
2, 5904, Note_on_c, 0, 70, 46
2, 5908, Note_on_c, 0, 70, 0
2, 5908, Note_on_c, 0, 72, 44
2, 5912, Note_on_c, 0, 72, 0
2, 5912, Note_on_c, 0, 70, 42
2, 5917, Note_on_c, 0, 70, 0
2, 5917, Note_on_c, 0, 69, 45
2, 5926, Note_on_c, 0, 69, 0
2, 5926, Note_on_c, 0, 70, 48
2, 5935, Note_on_c, 0, 70, 0
2, 5935, Note_on_c, 0, 72, 47
2, 5943, Note_on_c, 0, 72, 0
2, 5943, Note_on_c, 0, 73, 42
2, 5952, Note_on_c, 0, 73, 0
2, 5952, Note_on_c, 0, 68, 44
2, 5952, Control_c, 0, 64, 127
2, 5954, Control_c, 0, 64, 0
2, 5960, Control_c, 0, 64, 127
2, 6030, Note_on_c, 0, 68, 0
2, 6030, Note_on_c, 0, 58, 40
2, 6034, Note_on_c, 0, 58, 0
2, 6036, Note_on_c, 0, 58, 38
2, 6042, Note_on_c, 0, 64, 40
2, 6048, Note_on_c, 0, 68, 46
2, 6050, Control_c, 0, 64, 0
2, 6056, Control_c, 0, 64, 127
2, 6096, Note_on_c, 0, 68, 0
2, 6096, Note_on_c, 0, 67, 38
2, 6114, Note_on_c, 0, 64, 0
2, 6114, Note_on_c, 0, 58, 0
2, 6132, Note_on_c, 0, 67, 0
2, 6132, Note_on_c, 0, 65, 37
2, 6140, Note_on_c, 0, 65, 0
2, 6140, Note_on_c, 0, 56, 26
2, 6144, Note_on_c, 0, 65, 40
2, 6144, Control_c, 0, 64, 127
2, 6146, Note_on_c, 0, 56, 0
2, 6146, Control_c, 0, 64, 0
2, 6152, Control_c, 0, 64, 127
2, 6234, Note_on_c, 0, 65, 0
2, 6240, Note_on_c, 0, 68, 43
2, 6242, Control_c, 0, 64, 0
2, 6248, Control_c, 0, 64, 127
2, 6288, Note_on_c, 0, 68, 0
2, 6288, Note_on_c, 0, 68, 48
2, 6290, Control_c, 0, 64, 0
2, 6296, Control_c, 0, 64, 127
2, 6336, Note_on_c, 0, 68, 0
2, 6336, Note_on_c, 0, 70, 44
2, 6336, Control_c, 0, 64, 127
2, 6338, Control_c, 0, 64, 0
2, 6344, Control_c, 0, 64, 127
2, 6384, Note_on_c, 0, 70, 0
2, 6384, Note_on_c, 0, 62, 40
2, 6386, Control_c, 0, 64, 0
2, 6392, Control_c, 0, 64, 127
2, 6408, Note_on_c, 0, 62, 0
2, 6408, Note_on_c, 0, 63, 42
2, 6432, Note_on_c, 0, 63, 0
2, 6432, Note_on_c, 0, 65, 46
2, 6434, Control_c, 0, 64, 0
2, 6440, Control_c, 0, 64, 127
2, 6456, Note_on_c, 0, 65, 0
2, 6456, Note_on_c, 0, 63, 46
2, 6480, Note_on_c, 0, 63, 0
2, 6480, Note_on_c, 0, 68, 50
2, 6504, Note_on_c, 0, 68, 0
2, 6504, Note_on_c, 0, 70, 52
2, 6528, Note_on_c, 0, 70, 0
2, 6528, Note_on_c, 0, 72, 52
2, 6528, Control_c, 0, 64, 127
2, 6530, Control_c, 0, 64, 0
2, 6536, Control_c, 0, 64, 127
2, 6618, Note_on_c, 0, 72, 0
2, 6624, Note_on_c, 0, 72, 56
2, 6626, Control_c, 0, 64, 0
2, 6632, Control_c, 0, 64, 127
2, 6668, Note_on_c, 0, 72, 0
2, 6672, Note_on_c, 0, 72, 62
2, 6720, Note_on_c, 0, 72, 0
2, 6720, Note_on_c, 0, 74, 60
2, 6720, Control_c, 0, 64, 127
2, 6722, Control_c, 0, 64, 0
2, 6728, Control_c, 0, 64, 127
2, 6768, Note_on_c, 0, 74, 0
2, 6768, Note_on_c, 0, 66, 62
2, 6792, Note_on_c, 0, 66, 0
2, 6792, Note_on_c, 0, 67, 64
2, 6816, Note_on_c, 0, 67, 0
2, 6816, Note_on_c, 0, 68, 60
2, 6818, Control_c, 0, 64, 0
2, 6824, Control_c, 0, 64, 127
2, 6852, Note_on_c, 0, 68, 0
2, 6852, Note_on_c, 0, 67, 68
2, 6864, Note_on_c, 0, 67, 0
2, 6864, Note_on_c, 0, 72, 67
2, 6888, Note_on_c, 0, 72, 0
2, 6888, Note_on_c, 0, 74, 68
2, 6912, Note_on_c, 0, 74, 0
2, 6912, Note_on_c, 0, 76, 66
2, 6912, Control_c, 0, 64, 127
2, 6914, Control_c, 0, 64, 0
2, 6920, Control_c, 0, 64, 127
2, 7008, Note_on_c, 0, 76, 0
2, 7008, Note_on_c, 0, 77, 64
2, 7010, Control_c, 0, 64, 0
2, 7016, Control_c, 0, 64, 127
2, 7056, Note_on_c, 0, 77, 0
2, 7056, Note_on_c, 0, 75, 60
2, 7058, Control_c, 0, 64, 0
2, 7064, Control_c, 0, 64, 127
2, 7090, Note_on_c, 0, 75, 0
2, 7092, Note_on_c, 0, 73, 55
2, 7104, Note_on_c, 0, 73, 0
2, 7104, Note_on_c, 0, 73, 54
2, 7104, Control_c, 0, 64, 127
2, 7106, Control_c, 0, 64, 0
2, 7112, Control_c, 0, 64, 127
2, 7152, Note_on_c, 0, 73, 0
2, 7152, Note_on_c, 0, 72, 53
2, 7154, Control_c, 0, 64, 0
2, 7160, Control_c, 0, 64, 127
2, 7200, Note_on_c, 0, 72, 0
2, 7200, Note_on_c, 0, 73, 50
2, 7202, Control_c, 0, 64, 0
2, 7208, Control_c, 0, 64, 127
2, 7248, Note_on_c, 0, 73, 0
2, 7248, Note_on_c, 0, 72, 49
2, 7250, Control_c, 0, 64, 0
2, 7256, Control_c, 0, 64, 127
2, 7284, Note_on_c, 0, 72, 0
2, 7284, Note_on_c, 0, 70, 46
2, 7296, Note_on_c, 0, 70, 0
2, 7296, Note_on_c, 0, 70, 48
2, 7296, Control_c, 0, 64, 127
2, 7298, Control_c, 0, 64, 0
2, 7344, Note_on_c, 0, 70, 0
2, 7344, Note_on_c, 0, 68, 44
2, 7392, Note_on_c, 0, 68, 0
2, 7392, Note_on_c, 0, 67, 49
2, 7434, Note_on_c, 0, 67, 0
2, 7434, Note_on_c, 0, 70, 40
2, 7440, Note_on_c, 0, 70, 0
2, 7440, Note_on_c, 0, 68, 40
2, 7476, Note_on_c, 0, 68, 0
2, 7476, Note_on_c, 0, 67, 38
2, 7488, Note_on_c, 0, 67, 0
2, 7488, Note_on_c, 0, 67, 38
2, 7488, Control_c, 0, 64, 0
2, 7536, Note_on_c, 0, 67, 0
2, 7536, Note_on_c, 0, 67, 38
2, 7582, Note_on_c, 0, 67, 0
2, 7584, Note_on_c, 0, 67, 37
2, 7626, Note_on_c, 0, 67, 0
2, 7626, Note_on_c, 0, 70, 34
2, 7632, Note_on_c, 0, 70, 0
2, 7632, Note_on_c, 0, 68, 34
2, 7668, Note_on_c, 0, 68, 0
2, 7668, Note_on_c, 0, 67, 32
2, 7680, Note_on_c, 0, 67, 0
2, 7680, Note_on_c, 0, 67, 30
2, 7680, Control_c, 0, 64, 0
2, 7728, Note_on_c, 0, 67, 0
2, 7728, Note_on_c, 0, 72, 40
2, 7736, Control_c, 0, 64, 127
2, 7776, Note_on_c, 0, 72, 0
2, 7776, Note_on_c, 0, 72, 41
2, 7822, Note_on_c, 0, 72, 0
2, 7824, Note_on_c, 0, 72, 39
2, 7826, Control_c, 0, 64, 0
2, 7832, Control_c, 0, 64, 127
2, 7872, Control_c, 0, 64, 127
2, 7874, Control_c, 0, 64, 0
2, 7880, Control_c, 0, 64, 127
2, 7920, Note_on_c, 0, 72, 0
2, 7920, Note_on_c, 0, 77, 39
2, 7968, Note_on_c, 0, 77, 0
2, 7968, Note_on_c, 0, 75, 43
2, 7970, Control_c, 0, 64, 0
2, 7976, Control_c, 0, 64, 127
2, 8016, Note_on_c, 0, 75, 0
2, 8016, Note_on_c, 0, 73, 42
2, 8064, Note_on_c, 0, 73, 0
2, 8064, Note_on_c, 0, 72, 40
2, 8064, Control_c, 0, 64, 127
2, 8066, Control_c, 0, 64, 0
2, 8072, Control_c, 0, 64, 127
2, 8100, Note_on_c, 0, 72, 0
2, 8100, Note_on_c, 0, 71, 38
2, 8112, Note_on_c, 0, 71, 0
2, 8112, Note_on_c, 0, 72, 38
2, 8142, Note_on_c, 0, 72, 0
2, 8142, Note_on_c, 0, 75, 36
2, 8148, Note_on_c, 0, 75, 0
2, 8148, Note_on_c, 0, 73, 36
2, 8160, Note_on_c, 0, 73, 0
2, 8160, Note_on_c, 0, 72, 35
2, 8162, Control_c, 0, 64, 0
2, 8168, Control_c, 0, 64, 127
2, 8256, Control_c, 0, 64, 127
2, 8258, Control_c, 0, 64, 0
2, 8264, Control_c, 0, 64, 127
2, 8304, Note_on_c, 0, 72, 0
2, 8304, Note_on_c, 0, 76, 36
2, 8320, Note_on_c, 0, 76, 0
2, 8320, Note_on_c, 0, 79, 42
2, 8336, Note_on_c, 0, 79, 0
2, 8336, Note_on_c, 0, 77, 44
2, 8352, Note_on_c, 0, 77, 0
2, 8352, Note_on_c, 0, 75, 40
2, 8354, Control_c, 0, 64, 0
2, 8360, Control_c, 0, 64, 127
2, 8368, Note_on_c, 0, 75, 0
2, 8368, Note_on_c, 0, 63, 40
2, 8384, Note_on_c, 0, 63, 0
2, 8384, Note_on_c, 0, 70, 44
2, 8400, Note_on_c, 0, 70, 0
2, 8400, Note_on_c, 0, 72, 46
2, 8416, Note_on_c, 0, 72, 0
2, 8416, Note_on_c, 0, 75, 48
2, 8432, Note_on_c, 0, 75, 0
2, 8432, Note_on_c, 0, 73, 47
2, 8448, Note_on_c, 0, 73, 0
2, 8448, Note_on_c, 0, 72, 46
2, 8448, Control_c, 0, 64, 127
2, 8450, Control_c, 0, 64, 0
2, 8456, Control_c, 0, 64, 127
2, 8464, Note_on_c, 0, 72, 0
2, 8464, Note_on_c, 0, 60, 40
2, 8480, Note_on_c, 0, 60, 0
2, 8480, Note_on_c, 0, 63, 42
2, 8496, Note_on_c, 0, 63, 0
2, 8496, Note_on_c, 0, 68, 40
2, 8508, Note_on_c, 0, 68, 0
2, 8508, Note_on_c, 0, 71, 43
2, 8520, Note_on_c, 0, 71, 0
2, 8520, Note_on_c, 0, 73, 42
2, 8528, Note_on_c, 0, 73, 0
2, 8528, Note_on_c, 0, 75, 41
2, 8532, Note_on_c, 0, 75, 0
2, 8532, Note_on_c, 0, 73, 42
2, 8544, Note_on_c, 0, 73, 0
2, 8544, Note_on_c, 0, 72, 38
2, 8546, Control_c, 0, 64, 0
2, 8552, Control_c, 0, 64, 127
2, 8640, Control_c, 0, 64, 127
2, 8642, Control_c, 0, 64, 0
2, 8648, Control_c, 0, 64, 127
2, 8688, Note_on_c, 0, 72, 0
2, 8688, Note_on_c, 0, 77, 52
2, 8736, Note_on_c, 0, 77, 0
2, 8736, Note_on_c, 0, 75, 59
2, 8738, Control_c, 0, 64, 0
2, 8744, Control_c, 0, 64, 127
2, 8784, Note_on_c, 0, 75, 0
2, 8784, Note_on_c, 0, 73, 58
2, 8832, Note_on_c, 0, 73, 0
2, 8832, Note_on_c, 0, 72, 55
2, 8832, Control_c, 0, 64, 127
2, 8834, Control_c, 0, 64, 0
2, 8840, Control_c, 0, 64, 127
2, 8904, Note_on_c, 0, 72, 0
2, 8904, Note_on_c, 0, 69, 45
2, 8912, Note_on_c, 0, 69, 0
2, 8912, Note_on_c, 0, 70, 48
2, 8920, Note_on_c, 0, 70, 0
2, 8920, Note_on_c, 0, 72, 46
2, 8928, Note_on_c, 0, 72, 0
2, 8928, Note_on_c, 0, 70, 42
2, 8930, Control_c, 0, 64, 0
2, 8934, Note_on_c, 0, 70, 0
2, 8934, Note_on_c, 0, 72, 43
2, 8936, Control_c, 0, 64, 127
2, 8939, Note_on_c, 0, 72, 0
2, 8939, Note_on_c, 0, 70, 46
2, 8944, Note_on_c, 0, 70, 0
2, 8944, Note_on_c, 0, 72, 47
2, 8949, Note_on_c, 0, 72, 0
2, 8949, Note_on_c, 0, 70, 49
2, 8954, Note_on_c, 0, 70, 0
2, 8954, Note_on_c, 0, 72, 50
2, 8959, Note_on_c, 0, 72, 0
2, 8959, Note_on_c, 0, 70, 51
2, 8964, Note_on_c, 0, 70, 0
2, 8964, Note_on_c, 0, 72, 51
2, 8968, Note_on_c, 0, 72, 0
2, 8968, Note_on_c, 0, 70, 51
2, 8972, Note_on_c, 0, 70, 0
2, 8972, Note_on_c, 0, 72, 50
2, 8976, Note_on_c, 0, 72, 0
2, 8976, Note_on_c, 0, 70, 49
2, 8980, Note_on_c, 0, 70, 0
2, 8980, Note_on_c, 0, 72, 48
2, 8984, Note_on_c, 0, 72, 0
2, 8984, Note_on_c, 0, 70, 46
2, 8988, Note_on_c, 0, 70, 0
2, 8988, Note_on_c, 0, 69, 49
2, 8992, Note_on_c, 0, 69, 0
2, 8994, Note_on_c, 0, 70, 51
2, 8998, Note_on_c, 0, 70, 0
2, 9000, Note_on_c, 0, 71, 53
2, 9004, Note_on_c, 0, 71, 0
2, 9006, Note_on_c, 0, 72, 53
2, 9010, Note_on_c, 0, 72, 0
2, 9012, Note_on_c, 0, 75, 55
2, 9016, Note_on_c, 0, 75, 0
2, 9018, Note_on_c, 0, 73, 54
2, 9022, Note_on_c, 0, 73, 0
2, 9024, Note_on_c, 0, 68, 40
2, 9024, Control_c, 0, 64, 127
2, 9026, Control_c, 0, 64, 0
2, 9032, Control_c, 0, 64, 127
2, 9100, Note_on_c, 0, 68, 0
2, 9102, Note_on_c, 0, 58, 46
2, 9106, Note_on_c, 0, 58, 0
2, 9108, Note_on_c, 0, 58, 46
2, 9114, Note_on_c, 0, 64, 47
2, 9120, Note_on_c, 0, 68, 48
2, 9122, Control_c, 0, 64, 0
2, 9128, Control_c, 0, 64, 127
2, 9168, Note_on_c, 0, 68, 0
2, 9168, Note_on_c, 0, 67, 52
2, 9186, Note_on_c, 0, 64, 0
2, 9186, Note_on_c, 0, 58, 0
2, 9204, Note_on_c, 0, 67, 0
2, 9204, Note_on_c, 0, 65, 54
2, 9216, Note_on_c, 0, 65, 0
2, 9216, Note_on_c, 0, 56, 50
2, 9216, Note_on_c, 0, 65, 56
2, 9216, Control_c, 0, 64, 127
2, 9218, Control_c, 0, 64, 0
2, 9224, Control_c, 0, 64, 127
2, 9262, Note_on_c, 0, 65, 0
2, 9262, Note_on_c, 0, 56, 0
2, 9264, Note_on_c, 0, 59, 60
2, 9266, Control_c, 0, 64, 0
2, 9280, Note_on_c, 0, 59, 0
2, 9280, Note_on_c, 0, 60, 63
2, 9296, Note_on_c, 0, 60, 0
2, 9296, Note_on_c, 0, 61, 65
2, 9312, Note_on_c, 0, 61, 0
2, 9312, Note_on_c, 0, 60, 64
2, 9328, Note_on_c, 0, 60, 0
2, 9328, Note_on_c, 0, 55, 74
2, 9344, Note_on_c, 0, 55, 0
2, 9344, Note_on_c, 0, 58, 72
2, 9360, Note_on_c, 0, 58, 0
2, 9360, Note_on_c, 0, 56, 73
2, 9376, Note_on_c, 0, 56, 0
2, 9376, Note_on_c, 0, 52, 78
2, 9392, Note_on_c, 0, 52, 0
2, 9392, Note_on_c, 0, 55, 76
2, 9408, Note_on_c, 0, 55, 0
2, 9408, Note_on_c, 0, 53, 85
2, 9408, Control_c, 0, 64, 0
2, 9416, Control_c, 0, 64, 127
2, 9420, Note_on_c, 0, 53, 0
2, 9456, Note_on_c, 0, 68, 78
2, 9456, Note_on_c, 0, 77, 88
2, 9552, Note_on_c, 0, 77, 0
2, 9552, Note_on_c, 0, 68, 0
2, 9552, Note_on_c, 0, 67, 72
2, 9552, Note_on_c, 0, 70, 74
2, 9552, Note_on_c, 0, 77, 84
2, 9554, Control_c, 0, 64, 0
2, 9560, Control_c, 0, 64, 127
2, 9600, Note_on_c, 0, 77, 0
2, 9600, Note_on_c, 0, 70, 0
2, 9600, Note_on_c, 0, 67, 0
2, 9600, Note_on_c, 0, 68, 70
2, 9600, Note_on_c, 0, 72, 72
2, 9600, Note_on_c, 0, 77, 82
2, 9600, Control_c, 0, 64, 127
2, 9602, Control_c, 0, 64, 0
2, 9608, Control_c, 0, 64, 127
2, 9646, Note_on_c, 0, 77, 0
2, 9646, Note_on_c, 0, 72, 0
2, 9646, Note_on_c, 0, 68, 0
2, 9648, Note_on_c, 0, 59, 69
2, 9650, Control_c, 0, 64, 0
2, 9664, Note_on_c, 0, 59, 0
2, 9664, Note_on_c, 0, 60, 72
2, 9680, Note_on_c, 0, 60, 0
2, 9680, Note_on_c, 0, 61, 73
2, 9696, Note_on_c, 0, 61, 0
2, 9696, Note_on_c, 0, 60, 71
2, 9712, Note_on_c, 0, 60, 0
2, 9712, Note_on_c, 0, 55, 71
2, 9728, Note_on_c, 0, 55, 0
2, 9728, Note_on_c, 0, 58, 75
2, 9744, Note_on_c, 0, 58, 0
2, 9744, Note_on_c, 0, 56, 73
2, 9760, Note_on_c, 0, 56, 0
2, 9760, Note_on_c, 0, 52, 76
2, 9776, Note_on_c, 0, 52, 0
2, 9776, Note_on_c, 0, 53, 78
2, 9792, Note_on_c, 0, 53, 0
2, 9792, Note_on_c, 0, 55, 88
2, 9792, Control_c, 0, 64, 0
2, 9800, Control_c, 0, 64, 127
2, 9804, Note_on_c, 0, 55, 0
2, 9840, Note_on_c, 0, 63, 72
2, 9840, Note_on_c, 0, 67, 74
2, 9840, Note_on_c, 0, 75, 84
2, 9936, Note_on_c, 0, 75, 0
2, 9936, Note_on_c, 0, 67, 0
2, 9936, Note_on_c, 0, 63, 0
2, 9936, Note_on_c, 0, 65, 66
2, 9936, Note_on_c, 0, 67, 70
2, 9936, Note_on_c, 0, 74, 78
2, 9938, Control_c, 0, 64, 0
2, 9944, Control_c, 0, 64, 127
2, 9978, Note_on_c, 0, 74, 0
2, 9978, Note_on_c, 0, 67, 0
2, 9978, Note_on_c, 0, 65, 0
2, 9978, Note_on_c, 0, 74, 70
2, 9984, Note_on_c, 0, 74, 0
2, 9984, Note_on_c, 0, 63, 62
2, 9984, Note_on_c, 0, 67, 64
2, 9984, Note_on_c, 0, 72, 72
2, 9984, Control_c, 0, 64, 127
2, 9986, Control_c, 0, 64, 0
2, 10020, Note_on_c, 0, 72, 0
2, 10020, Note_on_c, 0, 67, 0
2, 10020, Note_on_c, 0, 63, 0
2, 10020, Note_on_c, 0, 65, 60
2, 10020, Note_on_c, 0, 67, 62
2, 10020, Note_on_c, 0, 71, 70
2, 10032, Note_on_c, 0, 71, 0
2, 10032, Note_on_c, 0, 67, 0
2, 10032, Note_on_c, 0, 65, 0
2, 10032, Note_on_c, 0, 63, 60
2, 10032, Note_on_c, 0, 67, 62
2, 10032, Note_on_c, 0, 72, 70
2, 10040, Control_c, 0, 64, 127
2, 10078, Note_on_c, 0, 72, 0
2, 10078, Note_on_c, 0, 67, 0
2, 10078, Note_on_c, 0, 63, 0
2, 10080, Note_on_c, 0, 54, 73
2, 10082, Control_c, 0, 64, 0
2, 10096, Note_on_c, 0, 54, 0
2, 10096, Note_on_c, 0, 55, 75
2, 10112, Note_on_c, 0, 55, 0
2, 10112, Note_on_c, 0, 56, 77
2, 10128, Note_on_c, 0, 56, 0
2, 10128, Note_on_c, 0, 55, 75
2, 10144, Note_on_c, 0, 55, 0
2, 10144, Note_on_c, 0, 50, 77
2, 10160, Note_on_c, 0, 50, 0
2, 10160, Note_on_c, 0, 51, 79
2, 10176, Note_on_c, 0, 51, 0
2, 10176, Note_on_c, 0, 48, 87
2, 10176, Control_c, 0, 64, 0
2, 10184, Control_c, 0, 64, 127
2, 10188, Note_on_c, 0, 48, 0
2, 10224, Note_on_c, 0, 63, 76
2, 10224, Note_on_c, 0, 72, 86
2, 10320, Note_on_c, 0, 72, 0
2, 10320, Note_on_c, 0, 63, 0
2, 10320, Note_on_c, 0, 62, 70
2, 10320, Note_on_c, 0, 65, 72
2, 10320, Note_on_c, 0, 72, 82
2, 10322, Control_c, 0, 64, 0
2, 10328, Control_c, 0, 64, 127
2, 10368, Note_on_c, 0, 72, 0
2, 10368, Note_on_c, 0, 65, 0
2, 10368, Note_on_c, 0, 62, 0
2, 10368, Note_on_c, 0, 63, 68
2, 10368, Note_on_c, 0, 67, 70
2, 10368, Note_on_c, 0, 72, 80
2, 10368, Control_c, 0, 64, 127
2, 10370, Control_c, 0, 64, 0
2, 10376, Control_c, 0, 64, 127
2, 10414, Note_on_c, 0, 72, 0
2, 10414, Note_on_c, 0, 67, 0
2, 10414, Note_on_c, 0, 63, 0
2, 10416, Note_on_c, 0, 54, 68
2, 10418, Control_c, 0, 64, 0
2, 10432, Note_on_c, 0, 54, 0
2, 10432, Note_on_c, 0, 55, 71
2, 10448, Note_on_c, 0, 55, 0
2, 10448, Note_on_c, 0, 56, 72
2, 10464, Note_on_c, 0, 56, 0
2, 10464, Note_on_c, 0, 55, 70
2, 10480, Note_on_c, 0, 55, 0
2, 10480, Note_on_c, 0, 50, 70
2, 10496, Note_on_c, 0, 50, 0
2, 10496, Note_on_c, 0, 53, 74
2, 10512, Note_on_c, 0, 53, 0
2, 10512, Note_on_c, 0, 51, 76
2, 10528, Note_on_c, 0, 51, 0
2, 10528, Note_on_c, 0, 47, 86
2, 10544, Note_on_c, 0, 47, 0
2, 10544, Note_on_c, 0, 48, 85
2, 10560, Note_on_c, 0, 48, 0
2, 10560, Note_on_c, 0, 50, 86
2, 10560, Control_c, 0, 64, 0
2, 10568, Control_c, 0, 64, 127
2, 10572, Note_on_c, 0, 50, 0
2, 10608, Note_on_c, 0, 58, 74
2, 10608, Note_on_c, 0, 62, 76
2, 10608, Note_on_c, 0, 70, 86
2, 10704, Note_on_c, 0, 70, 0
2, 10704, Note_on_c, 0, 62, 0
2, 10704, Note_on_c, 0, 58, 0
2, 10704, Note_on_c, 0, 60, 64
2, 10704, Note_on_c, 0, 62, 68
2, 10704, Note_on_c, 0, 69, 76
2, 10706, Control_c, 0, 64, 0
2, 10712, Control_c, 0, 64, 127
2, 10738, Note_on_c, 0, 69, 0
2, 10738, Note_on_c, 0, 62, 0
2, 10738, Note_on_c, 0, 60, 0
2, 10738, Note_on_c, 0, 69, 76
2, 10744, Note_on_c, 0, 69, 0
2, 10744, Note_on_c, 0, 58, 64
2, 10748, Note_on_c, 0, 62, 64
2, 10752, Note_on_c, 0, 67, 70
2, 10752, Control_c, 0, 64, 127
2, 10754, Control_c, 0, 64, 0
2, 10788, Note_on_c, 0, 67, 0
2, 10788, Note_on_c, 0, 62, 0
2, 10788, Note_on_c, 0, 58, 0
2, 10788, Note_on_c, 0, 60, 60
2, 10788, Note_on_c, 0, 62, 60
2, 10788, Note_on_c, 0, 66, 66
2, 10800, Note_on_c, 0, 66, 0
2, 10800, Note_on_c, 0, 62, 0
2, 10800, Note_on_c, 0, 60, 0
2, 10800, Note_on_c, 0, 58, 66
2, 10800, Note_on_c, 0, 62, 66
2, 10800, Note_on_c, 0, 67, 76
2, 10808, Control_c, 0, 64, 127
2, 10836, Note_on_c, 0, 67, 0
2, 10836, Note_on_c, 0, 62, 0
2, 10836, Note_on_c, 0, 58, 0
2, 10838, Control_c, 0, 64, 0
2, 10848, Note_on_c, 0, 67, 46
2, 10896, Note_on_c, 0, 67, 0
2, 10896, Note_on_c, 0, 67, 52
2, 10944, Note_on_c, 0, 67, 0
2, 10944, Note_on_c, 0, 73, 56
2, 10944, Control_c, 0, 64, 0
2, 10952, Control_c, 0, 64, 127
2, 11040, Note_on_c, 0, 73, 0
2, 11040, Note_on_c, 0, 72, 46
2, 11042, Control_c, 0, 64, 0
2, 11048, Control_c, 0, 64, 127
2, 11056, Note_on_c, 0, 72, 0
2, 11056, Note_on_c, 0, 73, 51
2, 11072, Note_on_c, 0, 73, 0
2, 11072, Note_on_c, 0, 72, 55
2, 11088, Note_on_c, 0, 72, 0
2, 11088, Note_on_c, 0, 73, 56
2, 11104, Note_on_c, 0, 73, 0
2, 11104, Note_on_c, 0, 75, 55
2, 11120, Note_on_c, 0, 75, 0
2, 11120, Note_on_c, 0, 73, 54
2, 11136, Note_on_c, 0, 73, 0
2, 11136, Note_on_c, 0, 70, 44
2, 11136, Note_on_c, 0, 72, 52
2, 11136, Control_c, 0, 64, 127
2, 11138, Control_c, 0, 64, 0
2, 11144, Control_c, 0, 64, 127
2, 11182, Note_on_c, 0, 70, 0
2, 11184, Note_on_c, 0, 72, 0
2, 11184, Note_on_c, 0, 68, 49
2, 11184, Note_on_c, 0, 77, 52
2, 11230, Note_on_c, 0, 68, 0
2, 11232, Note_on_c, 0, 77, 0
2, 11232, Note_on_c, 0, 67, 46
2, 11232, Note_on_c, 0, 77, 52
2, 11234, Control_c, 0, 64, 0
2, 11240, Control_c, 0, 64, 127
2, 11278, Note_on_c, 0, 67, 0
2, 11280, Note_on_c, 0, 65, 42
2, 11326, Note_on_c, 0, 65, 0
2, 11326, Note_on_c, 0, 77, 0
2, 11328, Note_on_c, 0, 65, 48
2, 11328, Note_on_c, 0, 73, 58
2, 11328, Control_c, 0, 64, 127
2, 11330, Control_c, 0, 64, 0
2, 11336, Control_c, 0, 64, 127
2, 11422, Note_on_c, 0, 65, 0
2, 11424, Note_on_c, 0, 73, 0
2, 11424, Note_on_c, 0, 64, 40
2, 11424, Note_on_c, 0, 72, 54
2, 11426, Control_c, 0, 64, 0
2, 11432, Control_c, 0, 64, 127
2, 11440, Note_on_c, 0, 72, 0
2, 11440, Note_on_c, 0, 73, 60
2, 11456, Note_on_c, 0, 73, 0
2, 11456, Note_on_c, 0, 72, 64
2, 11472, Note_on_c, 0, 72, 0
2, 11472, Note_on_c, 0, 73, 66
2, 11488, Note_on_c, 0, 73, 0
2, 11488, Note_on_c, 0, 75, 65
2, 11504, Note_on_c, 0, 75, 0
2, 11504, Note_on_c, 0, 73, 64
2, 11518, Note_on_c, 0, 64, 0
2, 11520, Note_on_c, 0, 73, 0
2, 11520, Note_on_c, 0, 67, 46
2, 11520, Note_on_c, 0, 72, 66
2, 11520, Control_c, 0, 64, 127
2, 11522, Control_c, 0, 64, 0
2, 11528, Control_c, 0, 64, 127
2, 11568, Note_on_c, 0, 72, 0
2, 11568, Note_on_c, 0, 77, 68
2, 11614, Note_on_c, 0, 67, 0
2, 11616, Note_on_c, 0, 77, 0
2, 11616, Note_on_c, 0, 65, 40
2, 11616, Note_on_c, 0, 77, 66
2, 11618, Control_c, 0, 64, 0
2, 11624, Control_c, 0, 64, 127
2, 11710, Note_on_c, 0, 77, 0
2, 11710, Note_on_c, 0, 65, 0
2, 11712, Note_on_c, 0, 75, 62
2, 11712, Note_on_c, 0, 78, 72
2, 11712, Control_c, 0, 64, 127
2, 11714, Control_c, 0, 64, 0
2, 11720, Control_c, 0, 64, 127
2, 11808, Note_on_c, 0, 78, 0
2, 11808, Note_on_c, 0, 77, 68
2, 11810, Control_c, 0, 64, 0
2, 11816, Control_c, 0, 64, 127
2, 11824, Note_on_c, 0, 77, 0
2, 11824, Note_on_c, 0, 78, 71
2, 11840, Note_on_c, 0, 78, 0
2, 11840, Note_on_c, 0, 77, 74
2, 11856, Note_on_c, 0, 77, 0
2, 11856, Note_on_c, 0, 78, 75
2, 11872, Note_on_c, 0, 78, 0
2, 11872, Note_on_c, 0, 80, 76
2, 11888, Note_on_c, 0, 80, 0
2, 11888, Note_on_c, 0, 78, 74
2, 11904, Note_on_c, 0, 78, 0
2, 11904, Note_on_c, 0, 77, 73
2, 11904, Control_c, 0, 64, 127
2, 11906, Control_c, 0, 64, 0
2, 11912, Control_c, 0, 64, 127
2, 11950, Note_on_c, 0, 75, 0
2, 11952, Note_on_c, 0, 77, 0
2, 11952, Note_on_c, 0, 73, 56
2, 11952, Note_on_c, 0, 82, 78
2, 11998, Note_on_c, 0, 73, 0
2, 12000, Note_on_c, 0, 82, 0
2, 12000, Note_on_c, 0, 72, 55
2, 12000, Note_on_c, 0, 82, 76
2, 12002, Control_c, 0, 64, 0
2, 12008, Control_c, 0, 64, 127
2, 12046, Note_on_c, 0, 72, 0
2, 12048, Note_on_c, 0, 70, 53
2, 12094, Note_on_c, 0, 70, 0
2, 12094, Note_on_c, 0, 82, 0
2, 12096, Note_on_c, 0, 70, 64
2, 12096, Note_on_c, 0, 78, 86
2, 12096, Control_c, 0, 64, 127
2, 12098, Control_c, 0, 64, 0
2, 12104, Control_c, 0, 64, 127
2, 12190, Note_on_c, 0, 70, 0
2, 12192, Note_on_c, 0, 78, 0
2, 12192, Note_on_c, 0, 69, 56
2, 12192, Note_on_c, 0, 77, 72
2, 12194, Control_c, 0, 64, 0
2, 12200, Control_c, 0, 64, 127
2, 12208, Note_on_c, 0, 77, 0
2, 12208, Note_on_c, 0, 78, 75
2, 12224, Note_on_c, 0, 78, 0
2, 12224, Note_on_c, 0, 77, 79
2, 12240, Note_on_c, 0, 77, 0
2, 12240, Note_on_c, 0, 78, 80
2, 12256, Note_on_c, 0, 78, 0
2, 12256, Note_on_c, 0, 80, 80
2, 12272, Note_on_c, 0, 80, 0
2, 12272, Note_on_c, 0, 78, 78
2, 12286, Note_on_c, 0, 69, 0
2, 12288, Note_on_c, 0, 78, 0
2, 12288, Note_on_c, 0, 72, 62
2, 12288, Note_on_c, 0, 77, 78
2, 12288, Control_c, 0, 64, 127
2, 12290, Control_c, 0, 64, 0
2, 12296, Control_c, 0, 64, 127
2, 12336, Note_on_c, 0, 77, 0
2, 12336, Note_on_c, 0, 82, 88
2, 12382, Note_on_c, 0, 72, 0
2, 12384, Note_on_c, 0, 82, 0
2, 12384, Note_on_c, 0, 70, 78
2, 12384, Note_on_c, 0, 82, 90
2, 12386, Control_c, 0, 64, 0
2, 12392, Control_c, 0, 64, 127
2, 12478, Note_on_c, 0, 82, 0
2, 12478, Note_on_c, 0, 70, 0
2, 12480, Note_on_c, 0, 70, 80
2, 12480, Note_on_c, 0, 73, 82
2, 12480, Note_on_c, 0, 82, 98
2, 12480, Control_c, 0, 64, 127
2, 12482, Control_c, 0, 64, 0
2, 12488, Control_c, 0, 64, 127
2, 12576, Note_on_c, 0, 82, 0
2, 12576, Note_on_c, 0, 80, 90
2, 12578, Control_c, 0, 64, 0
2, 12584, Control_c, 0, 64, 127
2, 12648, Note_on_c, 0, 80, 0
2, 12648, Note_on_c, 0, 78, 84
2, 12670, Note_on_c, 0, 73, 0
2, 12670, Note_on_c, 0, 70, 0
2, 12672, Note_on_c, 0, 78, 0
2, 12672, Note_on_c, 0, 66, 84
2, 12672, Note_on_c, 0, 70, 70
2, 12672, Note_on_c, 0, 78, 94
2, 12672, Control_c, 0, 64, 127
2, 12674, Control_c, 0, 64, 0
2, 12680, Control_c, 0, 64, 127
2, 12768, Note_on_c, 0, 78, 0
2, 12768, Note_on_c, 0, 66, 0
2, 12768, Note_on_c, 0, 65, 72
2, 12768, Note_on_c, 0, 77, 80
2, 12770, Control_c, 0, 64, 0
2, 12776, Control_c, 0, 64, 127
2, 12862, Note_on_c, 0, 70, 0
2, 12864, Note_on_c, 0, 77, 0
2, 12864, Note_on_c, 0, 65, 0
2, 12864, Note_on_c, 0, 65, 70
2, 12864, Note_on_c, 0, 70, 70
2, 12864, Note_on_c, 0, 77, 78
2, 12864, Control_c, 0, 64, 127
2, 12866, Control_c, 0, 64, 0
2, 12872, Control_c, 0, 64, 127
2, 12960, Note_on_c, 0, 77, 0
2, 12960, Note_on_c, 0, 65, 0
2, 12960, Note_on_c, 0, 64, 70
2, 12960, Note_on_c, 0, 76, 78
2, 12962, Control_c, 0, 64, 0
2, 12968, Control_c, 0, 64, 127
2, 13056, Control_c, 0, 64, 127
2, 13150, Note_on_c, 0, 70, 0
2, 13152, Note_on_c, 0, 76, 0
2, 13152, Note_on_c, 0, 64, 0
2, 13152, Note_on_c, 0, 64, 78
2, 13152, Note_on_c, 0, 70, 72
2, 13152, Note_on_c, 0, 76, 86
2, 13202, Control_c, 0, 64, 0
2, 13224, Note_on_c, 0, 76, 0
2, 13224, Note_on_c, 0, 64, 0
2, 13224, Note_on_c, 0, 65, 80
2, 13224, Note_on_c, 0, 77, 88
2, 13246, Note_on_c, 0, 70, 0
2, 13248, Note_on_c, 0, 77, 0
2, 13248, Note_on_c, 0, 65, 0
2, 13248, Note_on_c, 0, 65, 84
2, 13248, Note_on_c, 0, 68, 86
2, 13248, Note_on_c, 0, 77, 94
2, 13248, Control_c, 0, 64, 0
2, 13294, Note_on_c, 0, 77, 0
2, 13294, Note_on_c, 0, 68, 0
2, 13294, Note_on_c, 0, 65, 0
2, 13296, Note_on_c, 0, 89, 83
2, 13308, Note_on_c, 0, 89, 0
2, 13308, Note_on_c, 0, 87, 82
2, 13320, Note_on_c, 0, 87, 0
2, 13320, Note_on_c, 0, 85, 80
2, 13332, Note_on_c, 0, 85, 0
2, 13332, Note_on_c, 0, 84, 82
2, 13344, Note_on_c, 0, 84, 0
2, 13344, Note_on_c, 0, 83, 81
2, 13356, Note_on_c, 0, 83, 0
2, 13356, Note_on_c, 0, 80, 80
2, 13368, Note_on_c, 0, 80, 0
2, 13368, Note_on_c, 0, 79, 78
2, 13380, Note_on_c, 0, 79, 0
2, 13380, Note_on_c, 0, 77, 76
2, 13392, Note_on_c, 0, 77, 0
2, 13392, Note_on_c, 0, 76, 74
2, 13404, Note_on_c, 0, 76, 0
2, 13404, Note_on_c, 0, 77, 76
2, 13416, Note_on_c, 0, 77, 0
2, 13416, Note_on_c, 0, 75, 74
2, 13428, Note_on_c, 0, 75, 0
2, 13428, Note_on_c, 0, 73, 72
2, 13440, Note_on_c, 0, 73, 0
2, 13440, Note_on_c, 0, 72, 71
2, 13440, Control_c, 0, 64, 0
2, 13452, Note_on_c, 0, 72, 0
2, 13452, Note_on_c, 0, 71, 70
2, 13464, Note_on_c, 0, 71, 0
2, 13464, Note_on_c, 0, 68, 68
2, 13476, Note_on_c, 0, 68, 0
2, 13476, Note_on_c, 0, 67, 66
2, 13488, Note_on_c, 0, 67, 0
2, 13488, Note_on_c, 0, 70, 70
2, 13500, Note_on_c, 0, 70, 0
2, 13500, Note_on_c, 0, 68, 68
2, 13512, Note_on_c, 0, 68, 0
2, 13512, Note_on_c, 0, 67, 66
2, 13524, Note_on_c, 0, 67, 0
2, 13524, Note_on_c, 0, 65, 64
2, 13536, Note_on_c, 0, 65, 0
2, 13536, Note_on_c, 0, 64, 63
2, 13548, Note_on_c, 0, 64, 0
2, 13548, Note_on_c, 0, 65, 64
2, 13560, Note_on_c, 0, 65, 0
2, 13560, Note_on_c, 0, 63, 60
2, 13572, Note_on_c, 0, 63, 0
2, 13572, Note_on_c, 0, 61, 57
2, 13584, Note_on_c, 0, 61, 0
2, 13584, Note_on_c, 0, 60, 54
2, 13596, Note_on_c, 0, 60, 0
2, 13596, Note_on_c, 0, 61, 52
2, 13608, Note_on_c, 0, 61, 0
2, 13608, Note_on_c, 0, 56, 51
2, 13620, Note_on_c, 0, 56, 0
2, 13620, Note_on_c, 0, 58, 46
2, 13632, Note_on_c, 0, 58, 0
2, 13632, Note_on_c, 0, 60, 48
2, 13632, Control_c, 0, 64, 0
2, 13656, Note_on_c, 0, 52, 30
2, 13656, Note_on_c, 0, 55, 32
2, 13680, Note_on_c, 0, 60, 0
2, 13680, Note_on_c, 0, 61, 56
2, 13704, Note_on_c, 0, 55, 0
2, 13704, Note_on_c, 0, 52, 0
2, 13704, Note_on_c, 0, 53, 45
2, 13704, Note_on_c, 0, 56, 47
2, 13728, Note_on_c, 0, 61, 0
2, 13728, Note_on_c, 0, 65, 67
2, 13752, Note_on_c, 0, 56, 0
2, 13752, Note_on_c, 0, 53, 0
2, 13752, Note_on_c, 0, 56, 43
2, 13752, Note_on_c, 0, 62, 45
2, 13776, Note_on_c, 0, 65, 0
2, 13776, Note_on_c, 0, 64, 52
2, 13800, Note_on_c, 0, 62, 0
2, 13800, Note_on_c, 0, 56, 0
2, 13800, Note_on_c, 0, 56, 32
2, 13800, Note_on_c, 0, 62, 34
2, 13824, Note_on_c, 0, 64, 0
2, 13824, Note_on_c, 0, 64, 42
2, 13824, Control_c, 0, 64, 0
2, 13848, Note_on_c, 0, 62, 0
2, 13848, Note_on_c, 0, 56, 0
2, 13848, Note_on_c, 0, 55, 32
2, 13848, Note_on_c, 0, 61, 34
2, 13872, Note_on_c, 0, 64, 0
2, 13872, Note_on_c, 0, 65, 44
2, 13896, Note_on_c, 0, 61, 0
2, 13896, Note_on_c, 0, 55, 0
2, 13896, Note_on_c, 0, 53, 26
2, 13896, Note_on_c, 0, 60, 28
2, 13920, Note_on_c, 0, 65, 0
2, 13920, Note_on_c, 0, 68, 38
2, 13944, Note_on_c, 0, 60, 0
2, 13944, Note_on_c, 0, 53, 0
2, 13944, Note_on_c, 0, 59, 24
2, 13944, Note_on_c, 0, 65, 26
2, 13968, Note_on_c, 0, 68, 0
2, 13968, Note_on_c, 0, 67, 32
2, 13976, Control_c, 0, 64, 127
2, 13992, Note_on_c, 0, 65, 0
2, 13992, Note_on_c, 0, 59, 0
2, 14016, Note_on_c, 0, 58, 16
2, 14016, Note_on_c, 0, 64, 18
2, 14040, Note_on_c, 0, 67, 0
2, 14064, Note_on_c, 0, 64, 0
2, 14064, Note_on_c, 0, 58, 0
2, 14064, Note_on_c, 0, 72, 36
2, 14112, Control_c, 0, 64, 127
2, 14114, Control_c, 0, 64, 0
2, 14120, Control_c, 0, 64, 127
2, 14160, Note_on_c, 0, 72, 0
2, 14160, Note_on_c, 0, 77, 36
2, 14208, Note_on_c, 0, 77, 0
2, 14208, Note_on_c, 0, 75, 40
2, 14210, Control_c, 0, 64, 0
2, 14216, Control_c, 0, 64, 127
2, 14256, Note_on_c, 0, 75, 0
2, 14256, Note_on_c, 0, 73, 46
2, 14304, Note_on_c, 0, 73, 0
2, 14304, Note_on_c, 0, 72, 40
2, 14304, Control_c, 0, 64, 127
2, 14306, Control_c, 0, 64, 0
2, 14312, Control_c, 0, 64, 127
2, 14340, Note_on_c, 0, 72, 0
2, 14340, Note_on_c, 0, 71, 30
2, 14352, Note_on_c, 0, 71, 0
2, 14352, Note_on_c, 0, 72, 30
2, 14388, Note_on_c, 0, 72, 0
2, 14388, Note_on_c, 0, 73, 32
2, 14400, Note_on_c, 0, 73, 0
2, 14400, Note_on_c, 0, 72, 34
2, 14402, Control_c, 0, 64, 0
2, 14408, Control_c, 0, 64, 127
2, 14496, Control_c, 0, 64, 127
2, 14498, Control_c, 0, 64, 0
2, 14504, Control_c, 0, 64, 127
2, 14544, Note_on_c, 0, 72, 0
2, 14544, Note_on_c, 0, 76, 38
2, 14560, Note_on_c, 0, 76, 0
2, 14560, Note_on_c, 0, 79, 43
2, 14576, Note_on_c, 0, 79, 0
2, 14576, Note_on_c, 0, 77, 44
2, 14592, Note_on_c, 0, 77, 0
2, 14592, Note_on_c, 0, 75, 40
2, 14594, Control_c, 0, 64, 0
2, 14600, Control_c, 0, 64, 127
2, 14608, Note_on_c, 0, 75, 0
2, 14608, Note_on_c, 0, 63, 40
2, 14624, Note_on_c, 0, 63, 0
2, 14624, Note_on_c, 0, 70, 44
2, 14640, Note_on_c, 0, 70, 0
2, 14640, Note_on_c, 0, 72, 46
2, 14656, Note_on_c, 0, 72, 0
2, 14656, Note_on_c, 0, 75, 50
2, 14672, Note_on_c, 0, 75, 0
2, 14672, Note_on_c, 0, 73, 48
2, 14688, Note_on_c, 0, 73, 0
2, 14688, Note_on_c, 0, 72, 46
2, 14688, Control_c, 0, 64, 127
2, 14690, Control_c, 0, 64, 0
2, 14696, Control_c, 0, 64, 127
2, 14704, Note_on_c, 0, 72, 0
2, 14704, Note_on_c, 0, 60, 40
2, 14720, Note_on_c, 0, 60, 0
2, 14720, Note_on_c, 0, 63, 42
2, 14736, Note_on_c, 0, 63, 0
2, 14736, Note_on_c, 0, 68, 40
2, 14752, Note_on_c, 0, 68, 0
2, 14752, Note_on_c, 0, 71, 39
2, 14768, Note_on_c, 0, 71, 0
2, 14768, Note_on_c, 0, 73, 36
2, 14784, Note_on_c, 0, 73, 0
2, 14784, Note_on_c, 0, 72, 34
2, 14786, Control_c, 0, 64, 0
2, 14792, Control_c, 0, 64, 127
2, 14880, Control_c, 0, 64, 127
2, 14882, Control_c, 0, 64, 0
2, 14888, Control_c, 0, 64, 127
2, 14926, Note_on_c, 0, 72, 0
2, 14928, Note_on_c, 0, 77, 32
2, 14944, Note_on_c, 0, 77, 0
2, 14944, Note_on_c, 0, 89, 38
2, 14960, Note_on_c, 0, 89, 0
2, 14960, Note_on_c, 0, 77, 34
2, 14976, Note_on_c, 0, 77, 0
2, 14976, Note_on_c, 0, 88, 41
2, 14978, Control_c, 0, 64, 0
2, 14984, Control_c, 0, 64, 127
2, 14992, Note_on_c, 0, 88, 0
2, 14992, Note_on_c, 0, 79, 35
2, 15008, Note_on_c, 0, 79, 0
2, 15008, Note_on_c, 0, 88, 44
2, 15024, Note_on_c, 0, 88, 0
2, 15024, Note_on_c, 0, 80, 40
2, 15040, Note_on_c, 0, 80, 0
2, 15040, Note_on_c, 0, 87, 44
2, 15056, Note_on_c, 0, 87, 0
2, 15056, Note_on_c, 0, 81, 38
2, 15072, Note_on_c, 0, 81, 0
2, 15072, Note_on_c, 0, 86, 43
2, 15072, Control_c, 0, 64, 127
2, 15074, Control_c, 0, 64, 0
2, 15080, Control_c, 0, 64, 127
2, 15088, Note_on_c, 0, 86, 0
2, 15088, Note_on_c, 0, 82, 38
2, 15104, Note_on_c, 0, 82, 0
2, 15104, Note_on_c, 0, 86, 45
2, 15120, Note_on_c, 0, 86, 0
2, 15120, Note_on_c, 0, 85, 46
2, 15136, Note_on_c, 0, 85, 0
2, 15136, Note_on_c, 0, 73, 41
2, 15152, Note_on_c, 0, 73, 0
2, 15152, Note_on_c, 0, 85, 48
2, 15168, Note_on_c, 0, 85, 0
2, 15168, Note_on_c, 0, 84, 50
2, 15170, Control_c, 0, 64, 0
2, 15176, Control_c, 0, 64, 127
2, 15184, Note_on_c, 0, 84, 0
2, 15184, Note_on_c, 0, 74, 45
2, 15200, Note_on_c, 0, 74, 0
2, 15200, Note_on_c, 0, 84, 50
2, 15216, Note_on_c, 0, 84, 0
2, 15216, Note_on_c, 0, 75, 46
2, 15232, Note_on_c, 0, 75, 0
2, 15232, Note_on_c, 0, 82, 51
2, 15248, Note_on_c, 0, 82, 0
2, 15248, Note_on_c, 0, 76, 47
2, 15264, Note_on_c, 0, 76, 0
2, 15264, Note_on_c, 0, 81, 51
2, 15264, Control_c, 0, 64, 127
2, 15266, Control_c, 0, 64, 0
2, 15272, Control_c, 0, 64, 127
2, 15280, Note_on_c, 0, 81, 0
2, 15280, Note_on_c, 0, 77, 48
2, 15296, Note_on_c, 0, 77, 0
2, 15296, Note_on_c, 0, 81, 50
2, 15312, Note_on_c, 0, 81, 0
2, 15312, Note_on_c, 0, 80, 50
2, 15328, Note_on_c, 0, 80, 0
2, 15328, Note_on_c, 0, 68, 42
2, 15344, Note_on_c, 0, 68, 0
2, 15344, Note_on_c, 0, 80, 49
2, 15360, Note_on_c, 0, 80, 0
2, 15360, Note_on_c, 0, 79, 50
2, 15362, Control_c, 0, 64, 0
2, 15368, Control_c, 0, 64, 127
2, 15376, Note_on_c, 0, 79, 0
2, 15376, Note_on_c, 0, 73, 45
2, 15392, Note_on_c, 0, 73, 0
2, 15392, Note_on_c, 0, 79, 48
2, 15408, Note_on_c, 0, 79, 0
2, 15408, Note_on_c, 0, 78, 50
2, 15424, Note_on_c, 0, 78, 0
2, 15424, Note_on_c, 0, 66, 44
2, 15440, Note_on_c, 0, 66, 0
2, 15440, Note_on_c, 0, 78, 50
2, 15456, Note_on_c, 0, 78, 0
2, 15456, Note_on_c, 0, 77, 48
2, 15456, Control_c, 0, 64, 127
2, 15458, Control_c, 0, 64, 0
2, 15464, Control_c, 0, 64, 127
2, 15472, Note_on_c, 0, 77, 0
2, 15472, Note_on_c, 0, 65, 40
2, 15488, Note_on_c, 0, 65, 0
2, 15488, Note_on_c, 0, 68, 44
2, 15504, Note_on_c, 0, 68, 0
2, 15504, Note_on_c, 0, 72, 46
2, 15520, Note_on_c, 0, 72, 0
2, 15520, Note_on_c, 0, 75, 51
2, 15536, Note_on_c, 0, 75, 0
2, 15536, Note_on_c, 0, 73, 50
2, 15552, Note_on_c, 0, 73, 0
2, 15552, Note_on_c, 0, 72, 48
2, 15554, Control_c, 0, 64, 0
2, 15560, Control_c, 0, 64, 127
2, 15568, Note_on_c, 0, 72, 0
2, 15568, Note_on_c, 0, 64, 43
2, 15584, Note_on_c, 0, 64, 0
2, 15584, Note_on_c, 0, 67, 46
2, 15600, Note_on_c, 0, 67, 0
2, 15600, Note_on_c, 0, 71, 48
2, 15616, Note_on_c, 0, 71, 0
2, 15616, Note_on_c, 0, 72, 49
2, 15632, Note_on_c, 0, 72, 0
2, 15632, Note_on_c, 0, 70, 46
2, 15648, Note_on_c, 0, 70, 0
2, 15648, Note_on_c, 0, 69, 40
2, 15648, Control_c, 0, 64, 127
2, 15650, Control_c, 0, 64, 0
2, 15656, Control_c, 0, 64, 127
2, 15664, Note_on_c, 0, 69, 0
2, 15664, Note_on_c, 0, 68, 38
2, 15680, Note_on_c, 0, 68, 0
2, 15680, Note_on_c, 0, 65, 37
2, 15696, Note_on_c, 0, 65, 0
2, 15696, Note_on_c, 0, 77, 43
2, 15712, Note_on_c, 0, 77, 0
2, 15712, Note_on_c, 0, 65, 42
2, 15728, Note_on_c, 0, 65, 0
2, 15728, Note_on_c, 0, 77, 46
2, 15744, Note_on_c, 0, 77, 0
2, 15744, Note_on_c, 0, 67, 42
2, 15746, Control_c, 0, 64, 0
2, 15752, Control_c, 0, 64, 127
2, 15760, Note_on_c, 0, 67, 0
2, 15760, Note_on_c, 0, 76, 49
2, 15776, Note_on_c, 0, 76, 0
2, 15776, Note_on_c, 0, 68, 46
2, 15792, Note_on_c, 0, 68, 0
2, 15792, Note_on_c, 0, 75, 51
2, 15808, Note_on_c, 0, 75, 0
2, 15808, Note_on_c, 0, 69, 47
2, 15824, Note_on_c, 0, 69, 0
2, 15824, Note_on_c, 0, 75, 51
2, 15840, Note_on_c, 0, 75, 0
2, 15840, Note_on_c, 0, 74, 52
2, 15840, Control_c, 0, 64, 127
2, 15842, Control_c, 0, 64, 0
2, 15848, Control_c, 0, 64, 127
2, 15856, Note_on_c, 0, 74, 0
2, 15856, Note_on_c, 0, 70, 48
2, 15872, Note_on_c, 0, 70, 0
2, 15872, Note_on_c, 0, 74, 51
2, 15888, Note_on_c, 0, 74, 0
2, 15888, Note_on_c, 0, 73, 53
2, 15904, Note_on_c, 0, 73, 0
2, 15904, Note_on_c, 0, 61, 43
2, 15920, Note_on_c, 0, 61, 0
2, 15920, Note_on_c, 0, 73, 52
2, 15936, Note_on_c, 0, 73, 0
2, 15936, Note_on_c, 0, 62, 44
2, 15938, Control_c, 0, 64, 0
2, 15944, Control_c, 0, 64, 127
2, 15952, Note_on_c, 0, 62, 0
2, 15952, Note_on_c, 0, 72, 52
2, 15968, Note_on_c, 0, 72, 0
2, 15968, Note_on_c, 0, 63, 45
2, 15984, Note_on_c, 0, 63, 0
2, 15984, Note_on_c, 0, 70, 52
2, 16000, Note_on_c, 0, 70, 0
2, 16000, Note_on_c, 0, 64, 46
2, 16016, Note_on_c, 0, 64, 0
2, 16016, Note_on_c, 0, 70, 52
2, 16032, Note_on_c, 0, 70, 0
2, 16032, Note_on_c, 0, 69, 53
2, 16032, Control_c, 0, 64, 127
2, 16034, Control_c, 0, 64, 0
2, 16040, Control_c, 0, 64, 127
2, 16048, Note_on_c, 0, 69, 0
2, 16048, Note_on_c, 0, 65, 48
2, 16064, Note_on_c, 0, 65, 0
2, 16064, Note_on_c, 0, 69, 51
2, 16080, Note_on_c, 0, 69, 0
2, 16080, Note_on_c, 0, 68, 52
2, 16082, Control_c, 0, 64, 0
2, 16088, Control_c, 0, 64, 127
2, 16096, Note_on_c, 0, 68, 0
2, 16096, Note_on_c, 0, 61, 42
2, 16112, Note_on_c, 0, 61, 0
2, 16112, Note_on_c, 0, 68, 50
2, 16128, Note_on_c, 0, 68, 0
2, 16128, Note_on_c, 0, 66, 51
2, 16130, Control_c, 0, 64, 0
2, 16136, Control_c, 0, 64, 127
2, 16144, Note_on_c, 0, 66, 0
2, 16144, Note_on_c, 0, 61, 43
2, 16160, Note_on_c, 0, 61, 0
2, 16160, Note_on_c, 0, 66, 49
2, 16176, Note_on_c, 0, 66, 0
2, 16176, Note_on_c, 0, 65, 48
2, 16178, Control_c, 0, 64, 0
2, 16184, Control_c, 0, 64, 127
2, 16192, Note_on_c, 0, 65, 0
2, 16192, Note_on_c, 0, 61, 44
2, 16208, Note_on_c, 0, 61, 0
2, 16208, Note_on_c, 0, 65, 46
2, 16224, Note_on_c, 0, 65, 0
2, 16224, Note_on_c, 0, 66, 48
2, 16224, Control_c, 0, 64, 127
2, 16226, Control_c, 0, 64, 0
2, 16232, Control_c, 0, 64, 127
2, 16240, Note_on_c, 0, 66, 0
2, 16240, Note_on_c, 0, 61, 44
2, 16256, Note_on_c, 0, 61, 0
2, 16256, Note_on_c, 0, 66, 46
2, 16272, Note_on_c, 0, 66, 0
2, 16272, Note_on_c, 0, 65, 45
2, 16274, Control_c, 0, 64, 0
2, 16280, Control_c, 0, 64, 127
2, 16288, Note_on_c, 0, 65, 0
2, 16288, Note_on_c, 0, 61, 42
2, 16304, Note_on_c, 0, 61, 0
2, 16304, Note_on_c, 0, 65, 46
2, 16320, Note_on_c, 0, 65, 0
2, 16320, Note_on_c, 0, 72, 48
2, 16322, Control_c, 0, 64, 0
2, 16328, Control_c, 0, 64, 127
2, 16336, Note_on_c, 0, 60, 38
2, 16352, Note_on_c, 0, 65, 39
2, 16368, Note_on_c, 0, 65, 0
2, 16368, Note_on_c, 0, 72, 0
2, 16368, Note_on_c, 0, 64, 40
2, 16370, Control_c, 0, 64, 0
2, 16376, Control_c, 0, 64, 127
2, 16384, Note_on_c, 0, 60, 0
2, 16384, Note_on_c, 0, 58, 35
2, 16400, Note_on_c, 0, 58, 0
2, 16400, Note_on_c, 0, 60, 34
2, 16416, Note_on_c, 0, 60, 0
2, 16416, Note_on_c, 0, 64, 0
2, 16416, Note_on_c, 0, 65, 34
2, 16416, Control_c, 0, 64, 127
2, 16418, Control_c, 0, 64, 0
2, 16424, Control_c, 0, 64, 127
2, 16432, Note_on_c, 0, 65, 0
2, 16432, Note_on_c, 0, 56, 30
2, 16448, Note_on_c, 0, 56, 0
2, 16448, Note_on_c, 0, 60, 34
2, 16464, Note_on_c, 0, 60, 0
2, 16464, Note_on_c, 0, 57, 32
2, 16466, Control_c, 0, 64, 0
2, 16472, Control_c, 0, 64, 127
2, 16480, Note_on_c, 0, 57, 0
2, 16480, Note_on_c, 0, 60, 38
2, 16496, Note_on_c, 0, 60, 0
2, 16496, Note_on_c, 0, 63, 43
2, 16512, Note_on_c, 0, 63, 0
2, 16512, Note_on_c, 0, 66, 44
2, 16514, Control_c, 0, 64, 0
2, 16520, Control_c, 0, 64, 127
2, 16528, Note_on_c, 0, 66, 0
2, 16528, Note_on_c, 0, 69, 47
2, 16544, Note_on_c, 0, 69, 0
2, 16544, Note_on_c, 0, 72, 51
2, 16560, Note_on_c, 0, 72, 0
2, 16560, Note_on_c, 0, 75, 55
2, 16562, Control_c, 0, 64, 0
2, 16568, Control_c, 0, 64, 127
2, 16576, Note_on_c, 0, 75, 0
2, 16576, Note_on_c, 0, 78, 58
2, 16592, Note_on_c, 0, 78, 0
2, 16592, Note_on_c, 0, 81, 60
2, 16608, Note_on_c, 0, 81, 0
2, 16608, Note_on_c, 0, 90, 68
2, 16608, Control_c, 0, 64, 127
2, 16610, Control_c, 0, 64, 0
2, 16616, Control_c, 0, 64, 127
2, 16624, Note_on_c, 0, 90, 0
2, 16624, Note_on_c, 0, 84, 60
2, 16640, Note_on_c, 0, 84, 0
2, 16640, Note_on_c, 0, 87, 58
2, 16656, Note_on_c, 0, 87, 0
2, 16656, Note_on_c, 0, 81, 55
2, 16672, Note_on_c, 0, 81, 0
2, 16672, Note_on_c, 0, 78, 54
2, 16688, Note_on_c, 0, 78, 0
2, 16688, Note_on_c, 0, 72, 52
2, 16704, Note_on_c, 0, 72, 0
2, 16704, Note_on_c, 0, 75, 53
2, 16706, Control_c, 0, 64, 0
2, 16720, Note_on_c, 0, 75, 0
2, 16720, Note_on_c, 0, 69, 48
2, 16736, Note_on_c, 0, 69, 0
2, 16736, Note_on_c, 0, 66, 47
2, 16752, Note_on_c, 0, 66, 0
2, 16752, Note_on_c, 0, 60, 42
2, 16768, Note_on_c, 0, 60, 0
2, 16768, Note_on_c, 0, 63, 44
2, 16784, Note_on_c, 0, 63, 0
2, 16784, Note_on_c, 0, 57, 46
2, 16800, Note_on_c, 0, 57, 0
2, 16800, Note_on_c, 0, 58, 46
2, 16800, Control_c, 0, 64, 0
2, 16808, Control_c, 0, 64, 127
2, 16816, Note_on_c, 0, 58, 0
2, 16816, Note_on_c, 0, 53, 42
2, 16832, Note_on_c, 0, 53, 0
2, 16832, Note_on_c, 0, 55, 44
2, 16848, Note_on_c, 0, 55, 0
2, 16848, Note_on_c, 0, 58, 47
2, 16864, Note_on_c, 0, 58, 0
2, 16864, Note_on_c, 0, 61, 49
2, 16880, Note_on_c, 0, 61, 0
2, 16880, Note_on_c, 0, 65, 52
2, 16896, Note_on_c, 0, 65, 0
2, 16896, Note_on_c, 0, 67, 54
2, 16898, Control_c, 0, 64, 0
2, 16912, Note_on_c, 0, 67, 0
2, 16912, Note_on_c, 0, 70, 55
2, 16928, Note_on_c, 0, 70, 0
2, 16928, Note_on_c, 0, 73, 58
2, 16944, Note_on_c, 0, 73, 0
2, 16944, Note_on_c, 0, 77, 62
2, 16960, Note_on_c, 0, 77, 0
2, 16960, Note_on_c, 0, 79, 64
2, 16976, Note_on_c, 0, 79, 0
2, 16976, Note_on_c, 0, 82, 60
2, 16992, Note_on_c, 0, 82, 0
2, 16992, Note_on_c, 0, 85, 43
2, 16992, Control_c, 0, 64, 0
2, 17000, Control_c, 0, 64, 127
2, 17008, Note_on_c, 0, 85, 0
2, 17008, Note_on_c, 0, 79, 42
2, 17024, Note_on_c, 0, 79, 0
2, 17024, Note_on_c, 0, 82, 44
2, 17040, Note_on_c, 0, 82, 0
2, 17040, Note_on_c, 0, 76, 43
2, 17056, Note_on_c, 0, 76, 0
2, 17056, Note_on_c, 0, 73, 41
2, 17072, Note_on_c, 0, 73, 0
2, 17072, Note_on_c, 0, 67, 38
2, 17088, Note_on_c, 0, 67, 0
2, 17088, Note_on_c, 0, 70, 42
2, 17104, Note_on_c, 0, 70, 0
2, 17104, Note_on_c, 0, 64, 40
2, 17120, Note_on_c, 0, 64, 0
2, 17120, Note_on_c, 0, 61, 39
2, 17136, Note_on_c, 0, 61, 0
2, 17136, Note_on_c, 0, 55, 34
2, 17152, Note_on_c, 0, 55, 0
2, 17152, Note_on_c, 0, 58, 35
2, 17168, Note_on_c, 0, 58, 0
2, 17168, Note_on_c, 0, 52, 33
2, 17184, Note_on_c, 0, 52, 0
2, 17184, Note_on_c, 0, 53, 42
2, 17184, Control_c, 0, 64, 0
2, 17200, Note_on_c, 0, 53, 0
2, 17200, Note_on_c, 0, 57, 36
2, 17216, Note_on_c, 0, 57, 0
2, 17216, Note_on_c, 0, 60, 38
2, 17232, Note_on_c, 0, 60, 0
2, 17232, Note_on_c, 0, 65, 40
2, 17248, Note_on_c, 0, 65, 0
2, 17248, Note_on_c, 0, 58, 36
2, 17264, Note_on_c, 0, 58, 0
2, 17264, Note_on_c, 0, 60, 38
2, 17280, Note_on_c, 0, 60, 0
2, 17296, Note_on_c, 0, 60, 38
2, 17312, Note_on_c, 0, 60, 0
2, 17312, Note_on_c, 0, 65, 40
2, 17328, Note_on_c, 0, 65, 0
2, 17328, Note_on_c, 0, 69, 42
2, 17344, Note_on_c, 0, 69, 0
2, 17344, Note_on_c, 0, 62, 40
2, 17360, Note_on_c, 0, 62, 0
2, 17360, Note_on_c, 0, 65, 41
2, 17376, Note_on_c, 0, 65, 0
2, 17376, Note_on_c, 0, 60, 44
2, 17376, Control_c, 0, 64, 0
2, 17392, Note_on_c, 0, 60, 0
2, 17392, Note_on_c, 0, 65, 40
2, 17408, Note_on_c, 0, 65, 0
2, 17408, Note_on_c, 0, 69, 42
2, 17424, Note_on_c, 0, 69, 0
2, 17424, Note_on_c, 0, 72, 44
2, 17440, Note_on_c, 0, 72, 0
2, 17440, Note_on_c, 0, 67, 40
2, 17456, Note_on_c, 0, 67, 0
2, 17456, Note_on_c, 0, 69, 42
2, 17472, Note_on_c, 0, 69, 0
2, 17472, Note_on_c, 0, 65, 44
2, 17488, Note_on_c, 0, 65, 0
2, 17488, Note_on_c, 0, 69, 40
2, 17504, Note_on_c, 0, 69, 0
2, 17504, Note_on_c, 0, 72, 42
2, 17520, Note_on_c, 0, 72, 0
2, 17520, Note_on_c, 0, 77, 44
2, 17536, Note_on_c, 0, 77, 0
2, 17536, Note_on_c, 0, 70, 40
2, 17552, Note_on_c, 0, 70, 0
2, 17552, Note_on_c, 0, 72, 42
2, 17568, Note_on_c, 0, 72, 0
2, 17568, Note_on_c, 0, 69, 46
2, 17568, Control_c, 0, 64, 0
2, 17584, Note_on_c, 0, 69, 0
2, 17584, Note_on_c, 0, 72, 42
2, 17600, Note_on_c, 0, 72, 0
2, 17600, Note_on_c, 0, 77, 44
2, 17616, Note_on_c, 0, 77, 0
2, 17616, Note_on_c, 0, 81, 46
2, 17632, Note_on_c, 0, 81, 0
2, 17632, Note_on_c, 0, 74, 42
2, 17648, Note_on_c, 0, 74, 0
2, 17648, Note_on_c, 0, 77, 44
2, 17664, Note_on_c, 0, 77, 0
2, 17664, Note_on_c, 0, 72, 47
2, 17680, Note_on_c, 0, 72, 0
2, 17680, Note_on_c, 0, 77, 43
2, 17696, Note_on_c, 0, 77, 0
2, 17696, Note_on_c, 0, 81, 45
2, 17712, Note_on_c, 0, 81, 0
2, 17712, Note_on_c, 0, 84, 47
2, 17728, Note_on_c, 0, 84, 0
2, 17728, Note_on_c, 0, 79, 43
2, 17744, Note_on_c, 0, 79, 0
2, 17744, Note_on_c, 0, 81, 45
2, 17760, Note_on_c, 0, 81, 0
2, 17760, Note_on_c, 0, 77, 48
2, 17760, Control_c, 0, 64, 0
2, 17776, Note_on_c, 0, 77, 0
2, 17776, Note_on_c, 0, 81, 44
2, 17792, Note_on_c, 0, 81, 0
2, 17792, Note_on_c, 0, 84, 46
2, 17808, Note_on_c, 0, 84, 0
2, 17808, Note_on_c, 0, 89, 49
2, 17824, Note_on_c, 0, 89, 0
2, 17824, Note_on_c, 0, 82, 45
2, 17840, Note_on_c, 0, 82, 0
2, 17840, Note_on_c, 0, 84, 47
2, 17856, Note_on_c, 0, 84, 0
2, 17856, Note_on_c, 0, 81, 51
2, 17864, Control_c, 0, 64, 127
2, 17872, Note_on_c, 0, 81, 0
2, 17872, Note_on_c, 0, 84, 47
2, 17888, Note_on_c, 0, 84, 0
2, 17888, Note_on_c, 0, 89, 49
2, 17904, Note_on_c, 0, 89, 0
2, 17904, Note_on_c, 0, 93, 52
2, 17920, Note_on_c, 0, 93, 0
2, 17920, Note_on_c, 0, 86, 48
2, 17936, Note_on_c, 0, 86, 0
2, 17936, Note_on_c, 0, 89, 50
2, 17952, Note_on_c, 0, 89, 0
2, 17952, Note_on_c, 0, 84, 52
2, 17952, Control_c, 0, 64, 127
2, 17968, Note_on_c, 0, 84, 0
2, 17968, Note_on_c, 0, 89, 48
2, 17984, Note_on_c, 0, 89, 0
2, 17984, Note_on_c, 0, 93, 51
2, 18000, Note_on_c, 0, 93, 0
2, 18000, Note_on_c, 0, 96, 54
2, 18016, Note_on_c, 0, 96, 0
2, 18016, Note_on_c, 0, 91, 51
2, 18032, Note_on_c, 0, 91, 0
2, 18032, Note_on_c, 0, 93, 54
2, 18048, Note_on_c, 0, 93, 0
2, 18048, Note_on_c, 0, 89, 49
2, 18064, Note_on_c, 0, 89, 0
2, 18064, Note_on_c, 0, 93, 52
2, 18080, Note_on_c, 0, 93, 0
2, 18080, Note_on_c, 0, 96, 56
2, 18096, Note_on_c, 0, 96, 0
2, 18096, Note_on_c, 0, 101, 60
2, 18112, Note_on_c, 0, 101, 0
2, 18112, Note_on_c, 0, 91, 52
2, 18128, Note_on_c, 0, 91, 0
2, 18128, Note_on_c, 0, 93, 55
2, 18144, Note_on_c, 0, 93, 0
2, 18144, Note_on_c, 0, 89, 50
2, 18144, Control_c, 0, 64, 127
2, 18160, Note_on_c, 0, 89, 0
2, 18160, Note_on_c, 0, 93, 53
2, 18176, Note_on_c, 0, 93, 0
2, 18176, Note_on_c, 0, 96, 57
2, 18192, Note_on_c, 0, 96, 0
2, 18192, Note_on_c, 0, 101, 62
2, 18208, Note_on_c, 0, 101, 0
2, 18208, Note_on_c, 0, 91, 54
2, 18224, Note_on_c, 0, 91, 0
2, 18224, Note_on_c, 0, 93, 57
2, 18240, Note_on_c, 0, 93, 0
2, 18240, Note_on_c, 0, 89, 51
2, 18256, Note_on_c, 0, 89, 0
2, 18256, Note_on_c, 0, 93, 54
2, 18272, Note_on_c, 0, 93, 0
2, 18272, Note_on_c, 0, 96, 58
2, 18288, Note_on_c, 0, 96, 0
2, 18288, Note_on_c, 0, 101, 63
2, 18304, Note_on_c, 0, 101, 0
2, 18304, Note_on_c, 0, 91, 55
2, 18320, Note_on_c, 0, 91, 0
2, 18320, Note_on_c, 0, 93, 58
2, 18336, Note_on_c, 0, 93, 0
2, 18336, Note_on_c, 0, 89, 52
2, 18336, Control_c, 0, 64, 127
2, 18352, Note_on_c, 0, 89, 0
2, 18352, Note_on_c, 0, 93, 55
2, 18368, Note_on_c, 0, 93, 0
2, 18368, Note_on_c, 0, 96, 59
2, 18384, Note_on_c, 0, 96, 0
2, 18384, Note_on_c, 0, 101, 61
2, 18400, Note_on_c, 0, 101, 0
2, 18400, Note_on_c, 0, 91, 53
2, 18416, Note_on_c, 0, 91, 0
2, 18416, Note_on_c, 0, 93, 56
2, 18432, Note_on_c, 0, 93, 0
2, 18432, Note_on_c, 0, 89, 49
2, 18448, Note_on_c, 0, 89, 0
2, 18448, Note_on_c, 0, 93, 52
2, 18464, Note_on_c, 0, 93, 0
2, 18464, Note_on_c, 0, 96, 56
2, 18480, Note_on_c, 0, 96, 0
2, 18480, Note_on_c, 0, 101, 58
2, 18496, Note_on_c, 0, 101, 0
2, 18496, Note_on_c, 0, 91, 47
2, 18512, Note_on_c, 0, 91, 0
2, 18512, Note_on_c, 0, 93, 50
2, 18528, Note_on_c, 0, 93, 0
2, 18528, Note_on_c, 0, 89, 46
2, 18528, Control_c, 0, 64, 127
2, 18544, Note_on_c, 0, 89, 0
2, 18544, Note_on_c, 0, 93, 48
2, 18560, Note_on_c, 0, 93, 0
2, 18560, Note_on_c, 0, 96, 49
2, 18576, Note_on_c, 0, 96, 0
2, 18576, Note_on_c, 0, 101, 52
2, 18592, Note_on_c, 0, 101, 0
2, 18592, Note_on_c, 0, 91, 44
2, 18608, Note_on_c, 0, 91, 0
2, 18608, Note_on_c, 0, 93, 46
2, 18624, Note_on_c, 0, 93, 0
2, 18624, Note_on_c, 0, 89, 43
2, 18640, Note_on_c, 0, 89, 0
2, 18640, Note_on_c, 0, 93, 44
2, 18656, Note_on_c, 0, 93, 0
2, 18656, Note_on_c, 0, 96, 43
2, 18672, Note_on_c, 0, 96, 0
2, 18672, Note_on_c, 0, 101, 42
2, 18688, Note_on_c, 0, 101, 0
2, 18688, Note_on_c, 0, 91, 38
2, 18704, Note_on_c, 0, 91, 0
2, 18704, Note_on_c, 0, 93, 36
2, 18720, Note_on_c, 0, 93, 0
2, 18720, Note_on_c, 0, 89, 34
2, 18720, Control_c, 0, 64, 127
2, 18766, Note_on_c, 0, 89, 0
2, 18818, Control_c, 0, 64, 0
2, 18912, Note_on_c, 0, 61, 44
2, 18912, Note_on_c, 0, 65, 48
2, 18912, Note_on_c, 0, 67, 52
2, 18912, Note_on_c, 0, 73, 62
2, 18912, Control_c, 0, 64, 0
2, 18920, Control_c, 0, 64, 127
2, 19008, Note_on_c, 0, 73, 0
2, 19008, Note_on_c, 0, 61, 0
2, 19008, Note_on_c, 0, 65, 0
2, 19008, Note_on_c, 0, 67, 0
2, 19008, Note_on_c, 0, 58, 38
2, 19008, Note_on_c, 0, 64, 42
2, 19008, Note_on_c, 0, 72, 56
2, 19010, Control_c, 0, 64, 0
2, 19016, Control_c, 0, 64, 127
2, 19066, Note_on_c, 0, 72, 0
2, 19066, Note_on_c, 0, 64, 0
2, 19066, Note_on_c, 0, 58, 0
2, 19068, Note_on_c, 0, 41, 36
2, 19074, Note_on_c, 0, 48, 42
2, 19076, Control_c, 0, 64, 0
2, 19080, Note_on_c, 0, 53, 44
2, 19082, Control_c, 0, 64, 127
2, 19086, Note_on_c, 0, 57, 46
2, 19092, Note_on_c, 0, 60, 44
2, 19098, Note_on_c, 0, 65, 42
2, 19104, Note_on_c, 0, 69, 53
2, 19104, Control_c, 0, 64, 127
2, 19258, Note_on_c, 0, 69, 0
2, 19258, Note_on_c, 0, 60, 0
2, 19258, Note_on_c, 0, 48, 0
2, 19258, Note_on_c, 0, 53, 0
2, 19258, Note_on_c, 0, 41, 0
2, 19258, Note_on_c, 0, 65, 0
2, 19258, Note_on_c, 0, 57, 0
2, 19260, Note_on_c, 0, 41, 56
2, 19266, Note_on_c, 0, 48, 55
2, 19272, Note_on_c, 0, 53, 58
2, 19278, Note_on_c, 0, 57, 59
2, 19284, Note_on_c, 0, 60, 60
2, 19290, Note_on_c, 0, 65, 59
2, 19296, Note_on_c, 0, 69, 68
2, 19296, Control_c, 0, 64, 127
2, 19354, Note_on_c, 0, 69, 0
2, 19354, Note_on_c, 0, 60, 0
2, 19354, Note_on_c, 0, 48, 0
2, 19354, Note_on_c, 0, 53, 0
2, 19354, Note_on_c, 0, 41, 0
2, 19354, Note_on_c, 0, 65, 0
2, 19354, Note_on_c, 0, 57, 0
2, 19356, Note_on_c, 0, 41, 46
2, 19362, Note_on_c, 0, 48, 44
2, 19368, Note_on_c, 0, 53, 43
2, 19374, Note_on_c, 0, 57, 43
2, 19380, Note_on_c, 0, 60, 42
2, 19386, Note_on_c, 0, 65, 41
2, 19392, Note_on_c, 0, 69, 49
2, 19444, Note_on_c, 0, 69, 0
2, 19444, Note_on_c, 0, 60, 0
2, 19444, Note_on_c, 0, 48, 0
2, 19444, Note_on_c, 0, 53, 0
2, 19444, Note_on_c, 0, 41, 0
2, 19444, Note_on_c, 0, 65, 0
2, 19444, Note_on_c, 0, 57, 0
2, 19446, Note_on_c, 0, 41, 34
2, 19452, Note_on_c, 0, 48, 32
2, 19458, Note_on_c, 0, 53, 34
2, 19464, Note_on_c, 0, 57, 33
2, 19470, Note_on_c, 0, 60, 32
2, 19476, Note_on_c, 0, 65, 30
2, 19488, Note_on_c, 0, 69, 32
2, 19488, Control_c, 0, 64, 127
2, 19648, Note_on_c, 0, 69, 0
2, 19648, Note_on_c, 0, 60, 0
2, 19648, Note_on_c, 0, 48, 0
2, 19648, Note_on_c, 0, 53, 0
2, 19648, Note_on_c, 0, 41, 0
2, 19648, Note_on_c, 0, 65, 0
2, 19648, Note_on_c, 0, 57, 0
2, 19648, Control_c, 0, 64, 0
2, 19648, End_track
3, 0, Start_track
3, 0, MIDI_port, 0
3, 0, Title_t, "Piano R"
3, 0, Control_c, 0, 0, 0
3, 0, Control_c, 0, 32, 0
3, 0, Program_c, 0, 0
3, 0, Control_c, 0, 7, 127
3, 0, Control_c, 0, 10, 70
3, 36, Control_c, 0, 91, 90
3, 62, Control_c, 0, 93, 80
3, 192, Note_on_c, 0, 41, 24
3, 192, Control_c, 0, 64, 127
3, 216, Note_on_c, 0, 41, 0
3, 240, Note_on_c, 0, 56, 18
3, 240, Note_on_c, 0, 60, 21
3, 240, Note_on_c, 0, 65, 24
3, 264, Note_on_c, 0, 65, 0
3, 264, Note_on_c, 0, 60, 0
3, 264, Note_on_c, 0, 56, 0
3, 288, Note_on_c, 0, 43, 28
3, 290, Control_c, 0, 64, 0
3, 296, Control_c, 0, 64, 127
3, 312, Note_on_c, 0, 43, 0
3, 336, Note_on_c, 0, 51, 18
3, 336, Note_on_c, 0, 58, 22
3, 336, Note_on_c, 0, 63, 26
3, 360, Note_on_c, 0, 63, 0
3, 360, Note_on_c, 0, 58, 0
3, 360, Note_on_c, 0, 51, 0
3, 384, Note_on_c, 0, 44, 26
3, 384, Control_c, 0, 64, 127
3, 386, Control_c, 0, 64, 0
3, 392, Control_c, 0, 64, 127
3, 408, Note_on_c, 0, 44, 0
3, 432, Note_on_c, 0, 60, 18
3, 432, Note_on_c, 0, 68, 22
3, 456, Note_on_c, 0, 68, 0
3, 456, Note_on_c, 0, 60, 0
3, 480, Note_on_c, 0, 40, 22
3, 482, Control_c, 0, 64, 0
3, 488, Control_c, 0, 64, 127
3, 504, Note_on_c, 0, 40, 0
3, 528, Note_on_c, 0, 58, 14
3, 528, Note_on_c, 0, 60, 15
3, 528, Note_on_c, 0, 67, 16
3, 552, Note_on_c, 0, 67, 0
3, 552, Note_on_c, 0, 60, 0
3, 552, Note_on_c, 0, 58, 0
3, 576, Note_on_c, 0, 41, 28
3, 576, Control_c, 0, 64, 127
3, 578, Control_c, 0, 64, 0
3, 584, Control_c, 0, 64, 127
3, 600, Note_on_c, 0, 41, 0
3, 624, Note_on_c, 0, 56, 20
3, 624, Note_on_c, 0, 60, 24
3, 624, Note_on_c, 0, 65, 28
3, 648, Note_on_c, 0, 65, 0
3, 648, Note_on_c, 0, 60, 0
3, 648, Note_on_c, 0, 56, 0
3, 672, Note_on_c, 0, 43, 30
3, 674, Control_c, 0, 64, 0
3, 680, Control_c, 0, 64, 127
3, 696, Note_on_c, 0, 43, 0
3, 720, Note_on_c, 0, 51, 20
3, 720, Note_on_c, 0, 58, 22
3, 720, Note_on_c, 0, 63, 24
3, 744, Note_on_c, 0, 63, 0
3, 744, Note_on_c, 0, 58, 0
3, 744, Note_on_c, 0, 51, 0
3, 768, Note_on_c, 0, 44, 26
3, 768, Control_c, 0, 64, 127
3, 770, Control_c, 0, 64, 0
3, 776, Control_c, 0, 64, 127
3, 792, Note_on_c, 0, 44, 0
3, 816, Note_on_c, 0, 60, 20
3, 816, Note_on_c, 0, 68, 24
3, 840, Note_on_c, 0, 68, 0
3, 840, Note_on_c, 0, 60, 0
3, 864, Note_on_c, 0, 40, 22
3, 866, Control_c, 0, 64, 0
3, 872, Control_c, 0, 64, 127
3, 888, Note_on_c, 0, 40, 0
3, 912, Note_on_c, 0, 58, 14
3, 912, Note_on_c, 0, 60, 15
3, 912, Note_on_c, 0, 67, 16
3, 936, Note_on_c, 0, 67, 0
3, 936, Note_on_c, 0, 60, 0
3, 936, Note_on_c, 0, 58, 0
3, 960, Note_on_c, 0, 41, 30
3, 960, Control_c, 0, 64, 127
3, 962, Control_c, 0, 64, 0
3, 968, Control_c, 0, 64, 127
3, 984, Note_on_c, 0, 41, 0
3, 1008, Note_on_c, 0, 56, 18
3, 1008, Note_on_c, 0, 60, 22
3, 1008, Note_on_c, 0, 65, 26
3, 1032, Note_on_c, 0, 65, 0
3, 1032, Note_on_c, 0, 60, 0
3, 1032, Note_on_c, 0, 56, 0
3, 1056, Note_on_c, 0, 43, 32
3, 1058, Control_c, 0, 64, 0
3, 1064, Control_c, 0, 64, 127
3, 1080, Note_on_c, 0, 43, 0
3, 1104, Note_on_c, 0, 51, 20
3, 1104, Note_on_c, 0, 58, 24
3, 1104, Note_on_c, 0, 63, 28
3, 1128, Note_on_c, 0, 63, 0
3, 1128, Note_on_c, 0, 58, 0
3, 1128, Note_on_c, 0, 51, 0
3, 1152, Note_on_c, 0, 44, 30
3, 1152, Control_c, 0, 64, 127
3, 1154, Control_c, 0, 64, 0
3, 1160, Control_c, 0, 64, 127
3, 1176, Note_on_c, 0, 44, 0
3, 1200, Note_on_c, 0, 60, 29
3, 1200, Note_on_c, 0, 68, 30
3, 1224, Note_on_c, 0, 68, 0
3, 1224, Note_on_c, 0, 60, 0
3, 1248, Note_on_c, 0, 46, 28
3, 1250, Control_c, 0, 64, 0
3, 1256, Control_c, 0, 64, 127
3, 1272, Note_on_c, 0, 46, 0
3, 1296, Note_on_c, 0, 54, 22
3, 1296, Note_on_c, 0, 61, 23
3, 1296, Note_on_c, 0, 66, 20
3, 1320, Note_on_c, 0, 66, 0
3, 1320, Note_on_c, 0, 61, 0
3, 1320, Note_on_c, 0, 54, 0
3, 1344, Note_on_c, 0, 48, 26
3, 1344, Control_c, 0, 64, 127
3, 1346, Control_c, 0, 64, 0
3, 1352, Control_c, 0, 64, 127
3, 1368, Note_on_c, 0, 48, 0
3, 1392, Note_on_c, 0, 56, 18
3, 1392, Note_on_c, 0, 60, 22
3, 1392, Note_on_c, 0, 65, 26
3, 1416, Note_on_c, 0, 65, 0
3, 1416, Note_on_c, 0, 60, 0
3, 1416, Note_on_c, 0, 56, 0
3, 1440, Note_on_c, 0, 36, 22
3, 1442, Control_c, 0, 64, 0
3, 1448, Control_c, 0, 64, 127
3, 1464, Note_on_c, 0, 36, 0
3, 1488, Note_on_c, 0, 48, 20
3, 1488, Note_on_c, 0, 60, 24
3, 1512, Note_on_c, 0, 60, 0
3, 1512, Note_on_c, 0, 48, 0
3, 1536, Note_on_c, 0, 41, 26
3, 1536, Control_c, 0, 64, 127
3, 1538, Control_c, 0, 64, 0
3, 1544, Control_c, 0, 64, 127
3, 1560, Note_on_c, 0, 41, 0
3, 1584, Note_on_c, 0, 56, 18
3, 1584, Note_on_c, 0, 60, 22
3, 1608, Note_on_c, 0, 60, 0
3, 1608, Note_on_c, 0, 56, 0
3, 1632, Note_on_c, 0, 41, 26
3, 1634, Control_c, 0, 64, 0
3, 1640, Control_c, 0, 64, 127
3, 1656, Note_on_c, 0, 41, 0
3, 1680, Note_on_c, 0, 55, 20
3, 1680, Note_on_c, 0, 64, 20
3, 1704, Note_on_c, 0, 64, 0
3, 1704, Note_on_c, 0, 55, 0
3, 1728, Note_on_c, 0, 41, 24
3, 1728, Control_c, 0, 64, 127
3, 1730, Control_c, 0, 64, 0
3, 1736, Control_c, 0, 64, 127
3, 1752, Note_on_c, 0, 41, 0
3, 1776, Note_on_c, 0, 56, 18
3, 1776, Note_on_c, 0, 60, 21
3, 1776, Note_on_c, 0, 65, 24
3, 1800, Note_on_c, 0, 65, 0
3, 1800, Note_on_c, 0, 60, 0
3, 1800, Note_on_c, 0, 56, 0
3, 1824, Note_on_c, 0, 43, 28
3, 1826, Control_c, 0, 64, 0
3, 1832, Control_c, 0, 64, 127
3, 1848, Note_on_c, 0, 43, 0
3, 1872, Note_on_c, 0, 51, 18
3, 1872, Note_on_c, 0, 58, 22
3, 1872, Note_on_c, 0, 63, 26
3, 1896, Note_on_c, 0, 63, 0
3, 1896, Note_on_c, 0, 58, 0
3, 1896, Note_on_c, 0, 51, 0
3, 1920, Note_on_c, 0, 44, 26
3, 1920, Control_c, 0, 64, 127
3, 1922, Control_c, 0, 64, 0
3, 1928, Control_c, 0, 64, 127
3, 1944, Note_on_c, 0, 44, 0
3, 1968, Note_on_c, 0, 60, 20
3, 1968, Note_on_c, 0, 68, 24
3, 1992, Note_on_c, 0, 68, 0
3, 1992, Note_on_c, 0, 60, 0
3, 2016, Note_on_c, 0, 40, 22
3, 2018, Control_c, 0, 64, 0
3, 2024, Control_c, 0, 64, 127
3, 2040, Note_on_c, 0, 40, 0
3, 2064, Note_on_c, 0, 58, 14
3, 2064, Note_on_c, 0, 60, 16
3, 2064, Note_on_c, 0, 67, 18
3, 2088, Note_on_c, 0, 67, 0
3, 2088, Note_on_c, 0, 60, 0
3, 2088, Note_on_c, 0, 58, 0
3, 2112, Note_on_c, 0, 41, 28
3, 2112, Control_c, 0, 64, 127
3, 2114, Control_c, 0, 64, 0
3, 2120, Control_c, 0, 64, 127
3, 2136, Note_on_c, 0, 41, 0
3, 2160, Note_on_c, 0, 56, 20
3, 2160, Note_on_c, 0, 60, 24
3, 2160, Note_on_c, 0, 65, 28
3, 2184, Note_on_c, 0, 65, 0
3, 2184, Note_on_c, 0, 60, 0
3, 2184, Note_on_c, 0, 56, 0
3, 2208, Note_on_c, 0, 43, 30
3, 2210, Control_c, 0, 64, 0
3, 2216, Control_c, 0, 64, 127
3, 2232, Note_on_c, 0, 43, 0
3, 2256, Note_on_c, 0, 51, 20
3, 2256, Note_on_c, 0, 58, 22
3, 2256, Note_on_c, 0, 63, 24
3, 2280, Note_on_c, 0, 63, 0
3, 2280, Note_on_c, 0, 58, 0
3, 2280, Note_on_c, 0, 51, 0
3, 2304, Note_on_c, 0, 44, 26
3, 2304, Control_c, 0, 64, 127
3, 2306, Control_c, 0, 64, 0
3, 2312, Control_c, 0, 64, 127
3, 2328, Note_on_c, 0, 44, 0
3, 2352, Note_on_c, 0, 60, 20
3, 2352, Note_on_c, 0, 68, 24
3, 2376, Note_on_c, 0, 68, 0
3, 2376, Note_on_c, 0, 60, 0
3, 2400, Note_on_c, 0, 40, 22
3, 2402, Control_c, 0, 64, 0
3, 2408, Control_c, 0, 64, 127
3, 2424, Note_on_c, 0, 40, 0
3, 2448, Note_on_c, 0, 58, 18
3, 2448, Note_on_c, 0, 60, 21
3, 2448, Note_on_c, 0, 67, 24
3, 2472, Note_on_c, 0, 67, 0
3, 2472, Note_on_c, 0, 60, 0
3, 2472, Note_on_c, 0, 58, 0
3, 2496, Note_on_c, 0, 41, 30
3, 2496, Control_c, 0, 64, 127
3, 2498, Control_c, 0, 64, 0
3, 2504, Control_c, 0, 64, 127
3, 2520, Note_on_c, 0, 41, 0
3, 2544, Note_on_c, 0, 56, 18
3, 2544, Note_on_c, 0, 60, 22
3, 2544, Note_on_c, 0, 65, 26
3, 2568, Note_on_c, 0, 65, 0
3, 2568, Note_on_c, 0, 60, 0
3, 2568, Note_on_c, 0, 56, 0
3, 2592, Note_on_c, 0, 43, 32
3, 2594, Control_c, 0, 64, 0
3, 2600, Control_c, 0, 64, 127
3, 2616, Note_on_c, 0, 43, 0
3, 2640, Note_on_c, 0, 51, 20
3, 2640, Note_on_c, 0, 58, 24
3, 2640, Note_on_c, 0, 63, 28
3, 2664, Note_on_c, 0, 63, 0
3, 2664, Note_on_c, 0, 58, 0
3, 2664, Note_on_c, 0, 51, 0
3, 2688, Note_on_c, 0, 44, 30
3, 2688, Control_c, 0, 64, 127
3, 2690, Control_c, 0, 64, 0
3, 2696, Control_c, 0, 64, 127
3, 2712, Note_on_c, 0, 44, 0
3, 2736, Note_on_c, 0, 60, 29
3, 2736, Note_on_c, 0, 68, 30
3, 2760, Note_on_c, 0, 68, 0
3, 2760, Note_on_c, 0, 60, 0
3, 2784, Note_on_c, 0, 46, 28
3, 2786, Control_c, 0, 64, 0
3, 2792, Control_c, 0, 64, 127
3, 2808, Note_on_c, 0, 46, 0
3, 2832, Note_on_c, 0, 54, 22
3, 2832, Note_on_c, 0, 61, 23
3, 2832, Note_on_c, 0, 66, 20
3, 2856, Note_on_c, 0, 66, 0
3, 2856, Note_on_c, 0, 61, 0
3, 2856, Note_on_c, 0, 54, 0
3, 2880, Note_on_c, 0, 48, 26
3, 2880, Control_c, 0, 64, 127
3, 2882, Control_c, 0, 64, 0
3, 2888, Control_c, 0, 64, 127
3, 2904, Note_on_c, 0, 48, 0
3, 2928, Note_on_c, 0, 56, 18
3, 2928, Note_on_c, 0, 60, 22
3, 2928, Note_on_c, 0, 65, 26
3, 2952, Note_on_c, 0, 65, 0
3, 2952, Note_on_c, 0, 60, 0
3, 2952, Note_on_c, 0, 56, 0
3, 2976, Note_on_c, 0, 36, 22
3, 2978, Control_c, 0, 64, 0
3, 2984, Control_c, 0, 64, 127
3, 3000, Note_on_c, 0, 36, 0
3, 3024, Note_on_c, 0, 48, 20
3, 3024, Note_on_c, 0, 60, 24
3, 3048, Note_on_c, 0, 60, 0
3, 3048, Note_on_c, 0, 48, 0
3, 3072, Note_on_c, 0, 41, 26
3, 3072, Control_c, 0, 64, 127
3, 3074, Control_c, 0, 64, 0
3, 3080, Control_c, 0, 64, 127
3, 3096, Note_on_c, 0, 41, 0
3, 3120, Note_on_c, 0, 56, 18
3, 3120, Note_on_c, 0, 60, 22
3, 3168, Note_on_c, 0, 53, 26
3, 3170, Control_c, 0, 64, 0
3, 3176, Control_c, 0, 64, 127
3, 3192, Note_on_c, 0, 53, 0
3, 3216, Note_on_c, 0, 60, 0
3, 3216, Note_on_c, 0, 56, 0
3, 3216, Note_on_c, 0, 52, 26
3, 3216, Note_on_c, 0, 56, 28
3, 3216, Note_on_c, 0, 62, 30
3, 3218, Control_c, 0, 64, 0
3, 3224, Control_c, 0, 64, 127
3, 3262, Note_on_c, 0, 62, 0
3, 3262, Note_on_c, 0, 56, 0
3, 3262, Note_on_c, 0, 52, 0
3, 3264, Note_on_c, 0, 51, 30
3, 3264, Control_c, 0, 64, 127
3, 3266, Control_c, 0, 64, 0
3, 3272, Control_c, 0, 64, 127
3, 3312, Note_on_c, 0, 56, 23
3, 3312, Note_on_c, 0, 61, 26
3, 3314, Control_c, 0, 64, 0
3, 3320, Control_c, 0, 64, 127
3, 3336, Note_on_c, 0, 61, 0
3, 3336, Note_on_c, 0, 56, 0
3, 3354, Note_on_c, 0, 51, 0
3, 3360, Note_on_c, 0, 39, 36
3, 3362, Control_c, 0, 64, 0
3, 3368, Control_c, 0, 64, 127
3, 3384, Note_on_c, 0, 39, 0
3, 3408, Note_on_c, 0, 55, 23
3, 3408, Note_on_c, 0, 61, 26
3, 3432, Note_on_c, 0, 61, 0
3, 3432, Note_on_c, 0, 55, 0
3, 3456, Note_on_c, 0, 44, 30
3, 3456, Control_c, 0, 64, 127
3, 3458, Control_c, 0, 64, 0
3, 3464, Control_c, 0, 64, 127
3, 3480, Note_on_c, 0, 44, 0
3, 3504, Note_on_c, 0, 51, 26
3, 3504, Note_on_c, 0, 56, 30
3, 3504, Note_on_c, 0, 60, 34
3, 3528, Note_on_c, 0, 60, 0
3, 3528, Note_on_c, 0, 56, 0
3, 3528, Note_on_c, 0, 51, 0
3, 3552, Note_on_c, 0, 44, 34
3, 3554, Control_c, 0, 64, 0
3, 3560, Control_c, 0, 64, 127
3, 3576, Note_on_c, 0, 44, 0
3, 3600, Note_on_c, 0, 50, 30
3, 3600, Note_on_c, 0, 53, 32
3, 3600, Note_on_c, 0, 60, 34
3, 3624, Note_on_c, 0, 60, 0
3, 3624, Note_on_c, 0, 53, 0
3, 3624, Note_on_c, 0, 50, 0
3, 3648, Note_on_c, 0, 43, 37
3, 3648, Control_c, 0, 64, 127
3, 3650, Control_c, 0, 64, 0
3, 3656, Control_c, 0, 64, 127
3, 3672, Note_on_c, 0, 43, 0
3, 3696, Note_on_c, 0, 50, 28
3, 3696, Note_on_c, 0, 53, 30
3, 3696, Note_on_c, 0, 60, 32
3, 3720, Note_on_c, 0, 60, 0
3, 3720, Note_on_c, 0, 53, 0
3, 3720, Note_on_c, 0, 50, 0
3, 3744, Note_on_c, 0, 43, 38
3, 3746, Control_c, 0, 64, 0
3, 3752, Control_c, 0, 64, 127
3, 3768, Note_on_c, 0, 43, 0
3, 3792, Note_on_c, 0, 50, 22
3, 3792, Note_on_c, 0, 53, 26
3, 3792, Note_on_c, 0, 59, 30
3, 3816, Note_on_c, 0, 59, 0
3, 3816, Note_on_c, 0, 53, 0
3, 3816, Note_on_c, 0, 50, 0
3, 3840, Note_on_c, 0, 36, 33
3, 3840, Control_c, 0, 64, 127
3, 3842, Control_c, 0, 64, 0
3, 3848, Control_c, 0, 64, 127
3, 3864, Note_on_c, 0, 36, 0
3, 3888, Note_on_c, 0, 58, 30
3, 3888, Note_on_c, 0, 60, 31
3, 3888, Note_on_c, 0, 67, 37
3, 3912, Note_on_c, 0, 67, 0
3, 3912, Note_on_c, 0, 60, 0
3, 3912, Note_on_c, 0, 58, 0
3, 3936, Note_on_c, 0, 48, 29
3, 3938, Control_c, 0, 64, 0
3, 3944, Control_c, 0, 64, 127
3, 3960, Note_on_c, 0, 48, 0
3, 3984, Note_on_c, 0, 56, 22
3, 3984, Note_on_c, 0, 60, 25
3, 3984, Note_on_c, 0, 68, 28
3, 3986, Control_c, 0, 64, 0
3, 3992, Control_c, 0, 64, 127
3, 4008, Note_on_c, 0, 68, 0
3, 4008, Note_on_c, 0, 60, 0
3, 4008, Note_on_c, 0, 56, 0
3, 4032, Note_on_c, 0, 48, 26
3, 4032, Control_c, 0, 64, 127
3, 4034, Control_c, 0, 64, 0
3, 4040, Control_c, 0, 64, 127
3, 4056, Note_on_c, 0, 48, 0
3, 4080, Note_on_c, 0, 55, 24
3, 4080, Note_on_c, 0, 63, 27
3, 4082, Control_c, 0, 64, 0
3, 4088, Control_c, 0, 64, 127
3, 4104, Note_on_c, 0, 63, 0
3, 4104, Note_on_c, 0, 55, 0
3, 4128, Note_on_c, 0, 48, 26
3, 4130, Control_c, 0, 64, 0
3, 4136, Control_c, 0, 64, 127
3, 4152, Note_on_c, 0, 48, 0
3, 4176, Note_on_c, 0, 53, 20
3, 4176, Note_on_c, 0, 56, 23
3, 4176, Note_on_c, 0, 65, 26
3, 4178, Control_c, 0, 64, 0
3, 4184, Control_c, 0, 64, 127
3, 4200, Note_on_c, 0, 65, 0
3, 4200, Note_on_c, 0, 56, 0
3, 4200, Note_on_c, 0, 53, 0
3, 4224, Note_on_c, 0, 48, 24
3, 4224, Control_c, 0, 64, 127
3, 4226, Control_c, 0, 64, 0
3, 4272, Note_on_c, 0, 51, 22
3, 4272, Note_on_c, 0, 60, 26
3, 4314, Note_on_c, 0, 48, 0
3, 4320, Note_on_c, 0, 60, 0
3, 4320, Note_on_c, 0, 51, 0
3, 4320, Note_on_c, 0, 48, 24
3, 4368, Note_on_c, 0, 49, 20
3, 4368, Note_on_c, 0, 53, 22
3, 4368, Note_on_c, 0, 59, 24
3, 4410, Note_on_c, 0, 48, 0
3, 4416, Note_on_c, 0, 49, 0
3, 4416, Note_on_c, 0, 53, 0
3, 4416, Note_on_c, 0, 59, 0
3, 4416, Note_on_c, 0, 48, 22
3, 4416, Control_c, 0, 64, 0
3, 4464, Note_on_c, 0, 52, 20
3, 4464, Note_on_c, 0, 60, 24
3, 4506, Note_on_c, 0, 48, 0
3, 4512, Note_on_c, 0, 60, 0
3, 4512, Note_on_c, 0, 52, 0
3, 4512, Note_on_c, 0, 48, 20
3, 4560, Note_on_c, 0, 49, 16
3, 4560, Note_on_c, 0, 53, 18
3, 4560, Note_on_c, 0, 59, 20
3, 4602, Note_on_c, 0, 48, 0
3, 4608, Note_on_c, 0, 49, 0
3, 4608, Note_on_c, 0, 48, 16
3, 4608, Control_c, 0, 64, 0
3, 4650, Note_on_c, 0, 53, 0
3, 4650, Note_on_c, 0, 59, 0
3, 4656, Note_on_c, 0, 52, 18
3, 4656, Note_on_c, 0, 58, 20
3, 4664, Control_c, 0, 64, 127
3, 4746, Note_on_c, 0, 58, 0
3, 4746, Note_on_c, 0, 52, 0
3, 4746, Note_on_c, 0, 48, 0
3, 4754, Control_c, 0, 64, 0
3, 4760, Control_c, 0, 64, 127
3, 4800, Note_on_c, 0, 41, 26
3, 4800, Control_c, 0, 64, 127
3, 4802, Control_c, 0, 64, 0
3, 4808, Control_c, 0, 64, 127
3, 4824, Note_on_c, 0, 41, 0
3, 4848, Note_on_c, 0, 56, 16
3, 4848, Note_on_c, 0, 60, 19
3, 4848, Note_on_c, 0, 65, 22
3, 4872, Note_on_c, 0, 65, 0
3, 4872, Note_on_c, 0, 60, 0
3, 4872, Note_on_c, 0, 56, 0
3, 4896, Note_on_c, 0, 43, 26
3, 4898, Control_c, 0, 64, 0
3, 4904, Control_c, 0, 64, 127
3, 4920, Note_on_c, 0, 43, 0
3, 4944, Note_on_c, 0, 51, 20
3, 4944, Note_on_c, 0, 58, 22
3, 4944, Note_on_c, 0, 63, 24
3, 4968, Note_on_c, 0, 63, 0
3, 4968, Note_on_c, 0, 58, 0
3, 4968, Note_on_c, 0, 51, 0
3, 4992, Note_on_c, 0, 44, 27
3, 4992, Control_c, 0, 64, 127
3, 4994, Control_c, 0, 64, 0
3, 5000, Control_c, 0, 64, 127
3, 5016, Note_on_c, 0, 44, 0
3, 5040, Note_on_c, 0, 60, 24
3, 5040, Note_on_c, 0, 68, 28
3, 5064, Note_on_c, 0, 68, 0
3, 5064, Note_on_c, 0, 60, 0
3, 5088, Note_on_c, 0, 40, 26
3, 5090, Control_c, 0, 64, 0
3, 5096, Control_c, 0, 64, 127
3, 5112, Note_on_c, 0, 40, 0
3, 5136, Note_on_c, 0, 58, 20
3, 5136, Note_on_c, 0, 60, 21
3, 5136, Note_on_c, 0, 67, 26
3, 5160, Note_on_c, 0, 67, 0
3, 5160, Note_on_c, 0, 60, 0
3, 5160, Note_on_c, 0, 58, 0
3, 5184, Note_on_c, 0, 41, 28
3, 5184, Control_c, 0, 64, 127
3, 5186, Control_c, 0, 64, 0
3, 5192, Control_c, 0, 64, 127
3, 5208, Note_on_c, 0, 41, 0
3, 5232, Note_on_c, 0, 56, 20
3, 5232, Note_on_c, 0, 60, 22
3, 5232, Note_on_c, 0, 65, 26
3, 5256, Note_on_c, 0, 65, 0
3, 5256, Note_on_c, 0, 60, 0
3, 5256, Note_on_c, 0, 56, 0
3, 5280, Note_on_c, 0, 43, 29
3, 5282, Control_c, 0, 64, 0
3, 5288, Control_c, 0, 64, 127
3, 5304, Note_on_c, 0, 43, 0
3, 5328, Note_on_c, 0, 51, 24
3, 5328, Note_on_c, 0, 58, 28
3, 5328, Note_on_c, 0, 63, 32
3, 5352, Note_on_c, 0, 63, 0
3, 5352, Note_on_c, 0, 58, 0
3, 5352, Note_on_c, 0, 51, 0
3, 5376, Note_on_c, 0, 44, 30
3, 5376, Control_c, 0, 64, 127
3, 5378, Control_c, 0, 64, 0
3, 5384, Control_c, 0, 64, 127
3, 5400, Note_on_c, 0, 44, 0
3, 5424, Note_on_c, 0, 51, 22
3, 5424, Note_on_c, 0, 56, 26
3, 5424, Note_on_c, 0, 63, 30
3, 5448, Note_on_c, 0, 63, 0
3, 5448, Note_on_c, 0, 56, 0
3, 5448, Note_on_c, 0, 51, 0
3, 5472, Note_on_c, 0, 40, 28
3, 5474, Control_c, 0, 64, 0
3, 5480, Control_c, 0, 64, 127
3, 5496, Note_on_c, 0, 40, 0
3, 5520, Note_on_c, 0, 58, 20
3, 5520, Note_on_c, 0, 60, 22
3, 5520, Note_on_c, 0, 67, 25
3, 5544, Note_on_c, 0, 67, 0
3, 5544, Note_on_c, 0, 60, 0
3, 5544, Note_on_c, 0, 58, 0
3, 5568, Note_on_c, 0, 41, 34
3, 5568, Control_c, 0, 64, 127
3, 5570, Control_c, 0, 64, 0
3, 5576, Control_c, 0, 64, 127
3, 5592, Note_on_c, 0, 41, 0
3, 5616, Note_on_c, 0, 56, 22
3, 5616, Note_on_c, 0, 60, 26
3, 5616, Note_on_c, 0, 65, 30
3, 5640, Note_on_c, 0, 65, 0
3, 5640, Note_on_c, 0, 60, 0
3, 5640, Note_on_c, 0, 56, 0
3, 5664, Note_on_c, 0, 43, 32
3, 5666, Control_c, 0, 64, 0
3, 5672, Control_c, 0, 64, 127
3, 5688, Note_on_c, 0, 43, 0
3, 5712, Note_on_c, 0, 51, 22
3, 5712, Note_on_c, 0, 58, 26
3, 5712, Note_on_c, 0, 63, 30
3, 5736, Note_on_c, 0, 63, 0
3, 5736, Note_on_c, 0, 58, 0
3, 5736, Note_on_c, 0, 51, 0
3, 5760, Note_on_c, 0, 44, 34
3, 5760, Control_c, 0, 64, 127
3, 5762, Control_c, 0, 64, 0
3, 5768, Control_c, 0, 64, 127
3, 5784, Note_on_c, 0, 44, 0
3, 5808, Note_on_c, 0, 51, 22
3, 5808, Note_on_c, 0, 56, 26
3, 5808, Note_on_c, 0, 60, 30
3, 5808, Note_on_c, 0, 63, 32
3, 5832, Note_on_c, 0, 63, 0
3, 5832, Note_on_c, 0, 51, 0
3, 5832, Note_on_c, 0, 56, 0
3, 5832, Note_on_c, 0, 60, 0
3, 5856, Note_on_c, 0, 46, 30
3, 5858, Control_c, 0, 64, 0
3, 5864, Control_c, 0, 64, 127
3, 5880, Note_on_c, 0, 46, 0
3, 5904, Note_on_c, 0, 54, 24
3, 5904, Note_on_c, 0, 61, 26
3, 5904, Note_on_c, 0, 66, 28
3, 5928, Note_on_c, 0, 66, 0
3, 5928, Note_on_c, 0, 61, 0
3, 5928, Note_on_c, 0, 54, 0
3, 5952, Note_on_c, 0, 48, 28
3, 5952, Control_c, 0, 64, 127
3, 5954, Control_c, 0, 64, 0
3, 5960, Control_c, 0, 64, 127
3, 5976, Note_on_c, 0, 48, 0
3, 6000, Note_on_c, 0, 56, 24
3, 6000, Note_on_c, 0, 60, 25
3, 6000, Note_on_c, 0, 65, 28
3, 6024, Note_on_c, 0, 65, 0
3, 6024, Note_on_c, 0, 60, 0
3, 6024, Note_on_c, 0, 56, 0
3, 6048, Note_on_c, 0, 36, 22
3, 6050, Control_c, 0, 64, 0
3, 6056, Control_c, 0, 64, 127
3, 6072, Note_on_c, 0, 36, 0
3, 6096, Note_on_c, 0, 48, 24
3, 6096, Note_on_c, 0, 60, 28
3, 6120, Note_on_c, 0, 60, 0
3, 6120, Note_on_c, 0, 48, 0
3, 6144, Note_on_c, 0, 41, 26
3, 6144, Control_c, 0, 64, 127
3, 6146, Control_c, 0, 64, 0
3, 6152, Control_c, 0, 64, 127
3, 6168, Note_on_c, 0, 41, 0
3, 6192, Note_on_c, 0, 56, 18
3, 6192, Note_on_c, 0, 60, 22
3, 6240, Note_on_c, 0, 53, 26
3, 6242, Control_c, 0, 64, 0
3, 6248, Control_c, 0, 64, 127
3, 6264, Note_on_c, 0, 53, 0
3, 6288, Note_on_c, 0, 60, 0
3, 6288, Note_on_c, 0, 56, 0
3, 6288, Note_on_c, 0, 52, 26
3, 6288, Note_on_c, 0, 56, 28
3, 6288, Note_on_c, 0, 62, 30
3, 6290, Control_c, 0, 64, 0
3, 6296, Control_c, 0, 64, 127
3, 6334, Note_on_c, 0, 62, 0
3, 6334, Note_on_c, 0, 56, 0
3, 6334, Note_on_c, 0, 52, 0
3, 6336, Note_on_c, 0, 51, 30
3, 6336, Control_c, 0, 64, 127
3, 6338, Control_c, 0, 64, 0
3, 6344, Control_c, 0, 64, 127
3, 6384, Note_on_c, 0, 56, 23
3, 6384, Note_on_c, 0, 61, 26
3, 6386, Control_c, 0, 64, 0
3, 6392, Control_c, 0, 64, 127
3, 6408, Note_on_c, 0, 61, 0
3, 6408, Note_on_c, 0, 56, 0
3, 6426, Note_on_c, 0, 51, 0
3, 6432, Note_on_c, 0, 39, 36
3, 6434, Control_c, 0, 64, 0
3, 6440, Control_c, 0, 64, 127
3, 6456, Note_on_c, 0, 39, 0
3, 6480, Note_on_c, 0, 55, 23
3, 6480, Note_on_c, 0, 61, 26
3, 6504, Note_on_c, 0, 61, 0
3, 6504, Note_on_c, 0, 55, 0
3, 6528, Note_on_c, 0, 44, 30
3, 6528, Control_c, 0, 64, 127
3, 6530, Control_c, 0, 64, 0
3, 6536, Control_c, 0, 64, 127
3, 6552, Note_on_c, 0, 44, 0
3, 6576, Note_on_c, 0, 51, 26
3, 6576, Note_on_c, 0, 56, 30
3, 6576, Note_on_c, 0, 60, 34
3, 6600, Note_on_c, 0, 60, 0
3, 6600, Note_on_c, 0, 56, 0
3, 6600, Note_on_c, 0, 51, 0
3, 6624, Note_on_c, 0, 44, 34
3, 6626, Control_c, 0, 64, 0
3, 6632, Control_c, 0, 64, 127
3, 6648, Note_on_c, 0, 44, 0
3, 6672, Note_on_c, 0, 50, 30
3, 6672, Note_on_c, 0, 53, 32
3, 6672, Note_on_c, 0, 60, 34
3, 6696, Note_on_c, 0, 60, 0
3, 6696, Note_on_c, 0, 53, 0
3, 6696, Note_on_c, 0, 50, 0
3, 6720, Note_on_c, 0, 43, 37
3, 6720, Control_c, 0, 64, 127
3, 6722, Control_c, 0, 64, 0
3, 6728, Control_c, 0, 64, 127
3, 6744, Note_on_c, 0, 43, 0
3, 6768, Note_on_c, 0, 50, 28
3, 6768, Note_on_c, 0, 53, 30
3, 6768, Note_on_c, 0, 60, 32
3, 6792, Note_on_c, 0, 60, 0
3, 6792, Note_on_c, 0, 53, 0
3, 6792, Note_on_c, 0, 50, 0
3, 6816, Note_on_c, 0, 43, 38
3, 6818, Control_c, 0, 64, 0
3, 6824, Control_c, 0, 64, 127
3, 6840, Note_on_c, 0, 43, 0
3, 6864, Note_on_c, 0, 50, 22
3, 6864, Note_on_c, 0, 53, 26
3, 6864, Note_on_c, 0, 59, 30
3, 6888, Note_on_c, 0, 59, 0
3, 6888, Note_on_c, 0, 53, 0
3, 6888, Note_on_c, 0, 50, 0
3, 6912, Note_on_c, 0, 36, 33
3, 6912, Control_c, 0, 64, 127
3, 6914, Control_c, 0, 64, 0
3, 6920, Control_c, 0, 64, 127
3, 6936, Note_on_c, 0, 36, 0
3, 6960, Note_on_c, 0, 58, 30
3, 6960, Note_on_c, 0, 60, 31
3, 6960, Note_on_c, 0, 67, 37
3, 6984, Note_on_c, 0, 67, 0
3, 6984, Note_on_c, 0, 60, 0
3, 6984, Note_on_c, 0, 58, 0
3, 7008, Note_on_c, 0, 48, 29
3, 7010, Control_c, 0, 64, 0
3, 7016, Control_c, 0, 64, 127
3, 7032, Note_on_c, 0, 48, 0
3, 7056, Note_on_c, 0, 56, 22
3, 7056, Note_on_c, 0, 60, 25
3, 7056, Note_on_c, 0, 68, 28
3, 7058, Control_c, 0, 64, 0
3, 7064, Control_c, 0, 64, 127
3, 7080, Note_on_c, 0, 68, 0
3, 7080, Note_on_c, 0, 60, 0
3, 7080, Note_on_c, 0, 56, 0
3, 7104, Note_on_c, 0, 48, 26
3, 7104, Control_c, 0, 64, 127
3, 7106, Control_c, 0, 64, 0
3, 7112, Control_c, 0, 64, 127
3, 7128, Note_on_c, 0, 48, 0
3, 7152, Note_on_c, 0, 55, 24
3, 7152, Note_on_c, 0, 63, 27
3, 7154, Control_c, 0, 64, 0
3, 7160, Control_c, 0, 64, 127
3, 7176, Note_on_c, 0, 63, 0
3, 7176, Note_on_c, 0, 55, 0
3, 7200, Note_on_c, 0, 48, 26
3, 7202, Control_c, 0, 64, 0
3, 7208, Control_c, 0, 64, 127
3, 7224, Note_on_c, 0, 48, 0
3, 7248, Note_on_c, 0, 53, 20
3, 7248, Note_on_c, 0, 56, 23
3, 7248, Note_on_c, 0, 65, 26
3, 7250, Control_c, 0, 64, 0
3, 7256, Control_c, 0, 64, 127
3, 7272, Note_on_c, 0, 65, 0
3, 7272, Note_on_c, 0, 56, 0
3, 7272, Note_on_c, 0, 53, 0
3, 7296, Note_on_c, 0, 48, 24
3, 7296, Control_c, 0, 64, 127
3, 7298, Control_c, 0, 64, 0
3, 7344, Note_on_c, 0, 51, 22
3, 7344, Note_on_c, 0, 60, 26
3, 7386, Note_on_c, 0, 48, 0
3, 7392, Note_on_c, 0, 60, 0
3, 7392, Note_on_c, 0, 51, 0
3, 7392, Note_on_c, 0, 48, 24
3, 7440, Note_on_c, 0, 49, 20
3, 7440, Note_on_c, 0, 53, 22
3, 7440, Note_on_c, 0, 59, 24
3, 7482, Note_on_c, 0, 48, 0
3, 7488, Note_on_c, 0, 49, 0
3, 7488, Note_on_c, 0, 53, 0
3, 7488, Note_on_c, 0, 59, 0
3, 7488, Note_on_c, 0, 48, 22
3, 7488, Control_c, 0, 64, 0
3, 7536, Note_on_c, 0, 52, 20
3, 7536, Note_on_c, 0, 60, 24
3, 7578, Note_on_c, 0, 48, 0
3, 7584, Note_on_c, 0, 60, 0
3, 7584, Note_on_c, 0, 52, 0
3, 7584, Note_on_c, 0, 48, 20
3, 7632, Note_on_c, 0, 49, 16
3, 7632, Note_on_c, 0, 53, 18
3, 7632, Note_on_c, 0, 59, 20
3, 7674, Note_on_c, 0, 48, 0
3, 7680, Note_on_c, 0, 49, 0
3, 7680, Note_on_c, 0, 48, 16
3, 7680, Control_c, 0, 64, 0
3, 7722, Note_on_c, 0, 53, 0
3, 7722, Note_on_c, 0, 59, 0
3, 7728, Note_on_c, 0, 52, 18
3, 7728, Note_on_c, 0, 58, 20
3, 7736, Control_c, 0, 64, 127
3, 7818, Note_on_c, 0, 58, 0
3, 7818, Note_on_c, 0, 52, 0
3, 7818, Note_on_c, 0, 48, 0
3, 7826, Control_c, 0, 64, 0
3, 7832, Control_c, 0, 64, 127
3, 7872, Note_on_c, 0, 41, 28
3, 7872, Control_c, 0, 64, 127
3, 7874, Control_c, 0, 64, 0
3, 7880, Control_c, 0, 64, 127
3, 7896, Note_on_c, 0, 41, 0
3, 7920, Note_on_c, 0, 56, 18
3, 7920, Note_on_c, 0, 60, 21
3, 7920, Note_on_c, 0, 65, 24
3, 7944, Note_on_c, 0, 65, 0
3, 7944, Note_on_c, 0, 60, 0
3, 7944, Note_on_c, 0, 56, 0
3, 7968, Note_on_c, 0, 43, 28
3, 7970, Control_c, 0, 64, 0
3, 7976, Control_c, 0, 64, 127
3, 7992, Note_on_c, 0, 43, 0
3, 8016, Note_on_c, 0, 51, 22
3, 8016, Note_on_c, 0, 58, 24
3, 8016, Note_on_c, 0, 63, 26
3, 8040, Note_on_c, 0, 63, 0
3, 8040, Note_on_c, 0, 58, 0
3, 8040, Note_on_c, 0, 51, 0
3, 8064, Note_on_c, 0, 44, 29
3, 8064, Control_c, 0, 64, 127
3, 8066, Control_c, 0, 64, 0
3, 8072, Control_c, 0, 64, 127
3, 8088, Note_on_c, 0, 44, 0
3, 8112, Note_on_c, 0, 60, 26
3, 8112, Note_on_c, 0, 68, 30
3, 8136, Note_on_c, 0, 68, 0
3, 8136, Note_on_c, 0, 60, 0
3, 8160, Note_on_c, 0, 40, 28
3, 8162, Control_c, 0, 64, 0
3, 8168, Control_c, 0, 64, 127
3, 8184, Note_on_c, 0, 40, 0
3, 8208, Note_on_c, 0, 58, 22
3, 8208, Note_on_c, 0, 60, 23
3, 8208, Note_on_c, 0, 67, 28
3, 8232, Note_on_c, 0, 67, 0
3, 8232, Note_on_c, 0, 60, 0
3, 8232, Note_on_c, 0, 58, 0
3, 8256, Note_on_c, 0, 41, 30
3, 8256, Control_c, 0, 64, 127
3, 8258, Control_c, 0, 64, 0
3, 8264, Control_c, 0, 64, 127
3, 8280, Note_on_c, 0, 41, 0
3, 8304, Note_on_c, 0, 56, 22
3, 8304, Note_on_c, 0, 60, 24
3, 8304, Note_on_c, 0, 65, 28
3, 8328, Note_on_c, 0, 65, 0
3, 8328, Note_on_c, 0, 60, 0
3, 8328, Note_on_c, 0, 56, 0
3, 8352, Note_on_c, 0, 43, 31
3, 8354, Control_c, 0, 64, 0
3, 8360, Control_c, 0, 64, 127
3, 8376, Note_on_c, 0, 43, 0
3, 8400, Note_on_c, 0, 51, 26
3, 8400, Note_on_c, 0, 58, 30
3, 8400, Note_on_c, 0, 63, 34
3, 8424, Note_on_c, 0, 63, 0
3, 8424, Note_on_c, 0, 58, 0
3, 8424, Note_on_c, 0, 51, 0
3, 8448, Note_on_c, 0, 44, 32
3, 8448, Control_c, 0, 64, 127
3, 8450, Control_c, 0, 64, 0
3, 8456, Control_c, 0, 64, 127
3, 8472, Note_on_c, 0, 44, 0
3, 8496, Note_on_c, 0, 51, 24
3, 8496, Note_on_c, 0, 56, 28
3, 8496, Note_on_c, 0, 63, 32
3, 8520, Note_on_c, 0, 63, 0
3, 8520, Note_on_c, 0, 56, 0
3, 8520, Note_on_c, 0, 51, 0
3, 8544, Note_on_c, 0, 40, 30
3, 8546, Control_c, 0, 64, 0
3, 8552, Control_c, 0, 64, 127
3, 8568, Note_on_c, 0, 40, 0
3, 8592, Note_on_c, 0, 58, 22
3, 8592, Note_on_c, 0, 60, 24
3, 8592, Note_on_c, 0, 67, 27
3, 8616, Note_on_c, 0, 67, 0
3, 8616, Note_on_c, 0, 60, 0
3, 8616, Note_on_c, 0, 58, 0
3, 8640, Note_on_c, 0, 41, 42
3, 8640, Control_c, 0, 64, 127
3, 8642, Control_c, 0, 64, 0
3, 8648, Control_c, 0, 64, 127
3, 8664, Note_on_c, 0, 41, 0
3, 8688, Note_on_c, 0, 56, 24
3, 8688, Note_on_c, 0, 60, 28
3, 8688, Note_on_c, 0, 65, 32
3, 8712, Note_on_c, 0, 65, 0
3, 8712, Note_on_c, 0, 60, 0
3, 8712, Note_on_c, 0, 56, 0
3, 8736, Note_on_c, 0, 43, 44
3, 8738, Control_c, 0, 64, 0
3, 8744, Control_c, 0, 64, 127
3, 8760, Note_on_c, 0, 43, 0
3, 8784, Note_on_c, 0, 51, 24
3, 8784, Note_on_c, 0, 58, 28
3, 8784, Note_on_c, 0, 63, 32
3, 8808, Note_on_c, 0, 63, 0
3, 8808, Note_on_c, 0, 58, 0
3, 8808, Note_on_c, 0, 51, 0
3, 8832, Note_on_c, 0, 44, 38
3, 8832, Control_c, 0, 64, 127
3, 8834, Control_c, 0, 64, 0
3, 8840, Control_c, 0, 64, 127
3, 8856, Note_on_c, 0, 44, 0
3, 8880, Note_on_c, 0, 51, 24
3, 8880, Note_on_c, 0, 56, 28
3, 8880, Note_on_c, 0, 60, 32
3, 8880, Note_on_c, 0, 63, 34
3, 8904, Note_on_c, 0, 63, 0
3, 8904, Note_on_c, 0, 51, 0
3, 8904, Note_on_c, 0, 56, 0
3, 8904, Note_on_c, 0, 60, 0
3, 8928, Note_on_c, 0, 46, 40
3, 8930, Control_c, 0, 64, 0
3, 8936, Control_c, 0, 64, 127
3, 8952, Note_on_c, 0, 46, 0
3, 8976, Note_on_c, 0, 54, 26
3, 8976, Note_on_c, 0, 61, 28
3, 8976, Note_on_c, 0, 66, 30
3, 9000, Note_on_c, 0, 66, 0
3, 9000, Note_on_c, 0, 61, 0
3, 9000, Note_on_c, 0, 54, 0
3, 9024, Note_on_c, 0, 48, 38
3, 9024, Control_c, 0, 64, 127
3, 9026, Control_c, 0, 64, 0
3, 9032, Control_c, 0, 64, 127
3, 9048, Note_on_c, 0, 48, 0
3, 9072, Note_on_c, 0, 56, 32
3, 9072, Note_on_c, 0, 60, 36
3, 9072, Note_on_c, 0, 65, 40
3, 9096, Note_on_c, 0, 65, 0
3, 9096, Note_on_c, 0, 60, 0
3, 9096, Note_on_c, 0, 56, 0
3, 9120, Note_on_c, 0, 36, 36
3, 9122, Control_c, 0, 64, 0
3, 9128, Control_c, 0, 64, 127
3, 9144, Note_on_c, 0, 36, 0
3, 9168, Note_on_c, 0, 48, 30
3, 9168, Note_on_c, 0, 60, 40
3, 9192, Note_on_c, 0, 60, 0
3, 9192, Note_on_c, 0, 48, 0
3, 9216, Note_on_c, 0, 53, 50
3, 9216, Note_on_c, 0, 60, 48
3, 9216, Control_c, 0, 64, 127
3, 9218, Control_c, 0, 64, 0
3, 9224, Control_c, 0, 64, 127
3, 9262, Note_on_c, 0, 60, 0
3, 9262, Note_on_c, 0, 53, 0
3, 9264, Note_on_c, 0, 47, 52
3, 9266, Control_c, 0, 64, 0
3, 9280, Note_on_c, 0, 47, 0
3, 9280, Note_on_c, 0, 48, 55
3, 9296, Note_on_c, 0, 48, 0
3, 9296, Note_on_c, 0, 49, 57
3, 9312, Note_on_c, 0, 49, 0
3, 9312, Note_on_c, 0, 48, 56
3, 9328, Note_on_c, 0, 48, 0
3, 9328, Note_on_c, 0, 43, 66
3, 9344, Note_on_c, 0, 43, 0
3, 9344, Note_on_c, 0, 46, 64
3, 9360, Note_on_c, 0, 46, 0
3, 9360, Note_on_c, 0, 44, 65
3, 9376, Note_on_c, 0, 44, 0
3, 9376, Note_on_c, 0, 40, 70
3, 9392, Note_on_c, 0, 40, 0
3, 9392, Note_on_c, 0, 43, 68
3, 9408, Note_on_c, 0, 43, 0
3, 9408, Note_on_c, 0, 41, 76
3, 9408, Control_c, 0, 64, 0
3, 9416, Control_c, 0, 64, 127
3, 9420, Note_on_c, 0, 41, 0
3, 9456, Note_on_c, 0, 53, 68
3, 9456, Note_on_c, 0, 60, 72
3, 9456, Note_on_c, 0, 65, 76
3, 9552, Note_on_c, 0, 65, 0
3, 9552, Note_on_c, 0, 60, 0
3, 9552, Note_on_c, 0, 53, 0
3, 9552, Note_on_c, 0, 53, 64
3, 9552, Note_on_c, 0, 61, 68
3, 9552, Note_on_c, 0, 65, 72
3, 9554, Control_c, 0, 64, 0
3, 9560, Control_c, 0, 64, 127
3, 9600, Note_on_c, 0, 65, 0
3, 9600, Note_on_c, 0, 61, 0
3, 9600, Note_on_c, 0, 53, 0
3, 9600, Note_on_c, 0, 53, 62
3, 9600, Note_on_c, 0, 60, 66
3, 9600, Note_on_c, 0, 65, 70
3, 9600, Control_c, 0, 64, 127
3, 9602, Control_c, 0, 64, 0
3, 9608, Control_c, 0, 64, 127
3, 9646, Note_on_c, 0, 65, 0
3, 9646, Note_on_c, 0, 60, 0
3, 9646, Note_on_c, 0, 53, 0
3, 9648, Note_on_c, 0, 47, 60
3, 9650, Control_c, 0, 64, 0
3, 9664, Note_on_c, 0, 47, 0
3, 9664, Note_on_c, 0, 48, 63
3, 9680, Note_on_c, 0, 48, 0
3, 9680, Note_on_c, 0, 49, 64
3, 9696, Note_on_c, 0, 49, 0
3, 9696, Note_on_c, 0, 48, 62
3, 9712, Note_on_c, 0, 48, 0
3, 9712, Note_on_c, 0, 43, 62
3, 9728, Note_on_c, 0, 43, 0
3, 9728, Note_on_c, 0, 46, 66
3, 9744, Note_on_c, 0, 46, 0
3, 9744, Note_on_c, 0, 44, 64
3, 9760, Note_on_c, 0, 44, 0
3, 9760, Note_on_c, 0, 40, 66
3, 9776, Note_on_c, 0, 40, 0
3, 9776, Note_on_c, 0, 41, 68
3, 9792, Note_on_c, 0, 41, 0
3, 9792, Note_on_c, 0, 43, 83
3, 9792, Control_c, 0, 64, 0
3, 9800, Control_c, 0, 64, 127
3, 9804, Note_on_c, 0, 43, 0
3, 9840, Note_on_c, 0, 55, 72
3, 9840, Note_on_c, 0, 60, 72
3, 9936, Note_on_c, 0, 60, 0
3, 9936, Note_on_c, 0, 55, 0
3, 9936, Note_on_c, 0, 55, 64
3, 9936, Note_on_c, 0, 59, 64
3, 9938, Control_c, 0, 64, 0
3, 9944, Control_c, 0, 64, 127
3, 9984, Note_on_c, 0, 59, 0
3, 9984, Note_on_c, 0, 55, 0
3, 9984, Note_on_c, 0, 48, 56
3, 9984, Note_on_c, 0, 55, 56
3, 9984, Note_on_c, 0, 60, 60
3, 9984, Control_c, 0, 64, 127
3, 9986, Control_c, 0, 64, 0
3, 10020, Note_on_c, 0, 60, 0
3, 10020, Note_on_c, 0, 55, 0
3, 10020, Note_on_c, 0, 48, 0
3, 10020, Note_on_c, 0, 48, 48
3, 10020, Note_on_c, 0, 55, 48
3, 10020, Note_on_c, 0, 62, 62
3, 10032, Note_on_c, 0, 62, 0
3, 10032, Note_on_c, 0, 55, 0
3, 10032, Note_on_c, 0, 48, 0
3, 10032, Note_on_c, 0, 48, 58
3, 10032, Note_on_c, 0, 55, 58
3, 10032, Note_on_c, 0, 60, 63
3, 10040, Control_c, 0, 64, 127
3, 10078, Note_on_c, 0, 60, 0
3, 10078, Note_on_c, 0, 55, 0
3, 10078, Note_on_c, 0, 48, 0
3, 10080, Note_on_c, 0, 42, 63
3, 10082, Control_c, 0, 64, 0
3, 10096, Note_on_c, 0, 42, 0
3, 10096, Note_on_c, 0, 43, 65
3, 10112, Note_on_c, 0, 43, 0
3, 10112, Note_on_c, 0, 44, 67
3, 10128, Note_on_c, 0, 44, 0
3, 10128, Note_on_c, 0, 43, 65
3, 10144, Note_on_c, 0, 43, 0
3, 10144, Note_on_c, 0, 38, 67
3, 10160, Note_on_c, 0, 38, 0
3, 10160, Note_on_c, 0, 39, 69
3, 10176, Note_on_c, 0, 39, 0
3, 10176, Note_on_c, 0, 36, 81
3, 10176, Control_c, 0, 64, 0
3, 10184, Control_c, 0, 64, 127
3, 10188, Note_on_c, 0, 36, 0
3, 10224, Note_on_c, 0, 48, 66
3, 10224, Note_on_c, 0, 55, 70
3, 10224, Note_on_c, 0, 60, 74
3, 10320, Note_on_c, 0, 60, 0
3, 10320, Note_on_c, 0, 55, 0
3, 10320, Note_on_c, 0, 48, 0
3, 10320, Note_on_c, 0, 48, 62
3, 10320, Note_on_c, 0, 56, 66
3, 10320, Note_on_c, 0, 60, 70
3, 10322, Control_c, 0, 64, 0
3, 10328, Control_c, 0, 64, 127
3, 10368, Note_on_c, 0, 60, 0
3, 10368, Note_on_c, 0, 56, 0
3, 10368, Note_on_c, 0, 48, 0
3, 10368, Note_on_c, 0, 48, 60
3, 10368, Note_on_c, 0, 55, 64
3, 10368, Note_on_c, 0, 60, 68
3, 10368, Control_c, 0, 64, 127
3, 10370, Control_c, 0, 64, 0
3, 10376, Control_c, 0, 64, 127
3, 10414, Note_on_c, 0, 60, 0
3, 10414, Note_on_c, 0, 55, 0
3, 10414, Note_on_c, 0, 48, 0
3, 10416, Note_on_c, 0, 42, 59
3, 10418, Control_c, 0, 64, 0
3, 10432, Note_on_c, 0, 42, 0
3, 10432, Note_on_c, 0, 43, 62
3, 10448, Note_on_c, 0, 43, 0
3, 10448, Note_on_c, 0, 44, 63
3, 10464, Note_on_c, 0, 44, 0
3, 10464, Note_on_c, 0, 43, 61
3, 10480, Note_on_c, 0, 43, 0
3, 10480, Note_on_c, 0, 38, 61
3, 10496, Note_on_c, 0, 38, 0
3, 10496, Note_on_c, 0, 41, 65
3, 10512, Note_on_c, 0, 41, 0
3, 10512, Note_on_c, 0, 39, 67
3, 10528, Note_on_c, 0, 39, 0
3, 10528, Note_on_c, 0, 35, 77
3, 10544, Note_on_c, 0, 35, 0
3, 10544, Note_on_c, 0, 36, 76
3, 10560, Note_on_c, 0, 36, 0
3, 10560, Note_on_c, 0, 38, 82
3, 10560, Control_c, 0, 64, 0
3, 10568, Control_c, 0, 64, 127
3, 10572, Note_on_c, 0, 38, 0
3, 10608, Note_on_c, 0, 50, 72
3, 10608, Note_on_c, 0, 55, 72
3, 10704, Note_on_c, 0, 55, 0
3, 10704, Note_on_c, 0, 50, 0
3, 10704, Note_on_c, 0, 50, 62
3, 10704, Note_on_c, 0, 54, 62
3, 10706, Control_c, 0, 64, 0
3, 10712, Control_c, 0, 64, 127
3, 10752, Note_on_c, 0, 54, 0
3, 10752, Note_on_c, 0, 50, 0
3, 10752, Note_on_c, 0, 43, 62
3, 10752, Note_on_c, 0, 50, 58
3, 10752, Note_on_c, 0, 55, 62
3, 10752, Control_c, 0, 64, 127
3, 10754, Control_c, 0, 64, 0
3, 10788, Note_on_c, 0, 55, 0
3, 10788, Note_on_c, 0, 50, 0
3, 10788, Note_on_c, 0, 43, 0
3, 10788, Note_on_c, 0, 43, 62
3, 10788, Note_on_c, 0, 50, 58
3, 10788, Note_on_c, 0, 57, 62
3, 10800, Note_on_c, 0, 57, 0
3, 10800, Note_on_c, 0, 50, 0
3, 10800, Note_on_c, 0, 43, 0
3, 10800, Note_on_c, 0, 43, 66
3, 10800, Note_on_c, 0, 50, 64
3, 10800, Note_on_c, 0, 58, 66
3, 10808, Control_c, 0, 64, 127
3, 10836, Note_on_c, 0, 58, 0
3, 10836, Note_on_c, 0, 50, 0
3, 10836, Note_on_c, 0, 43, 0
3, 10838, Control_c, 0, 64, 0
3, 10944, Note_on_c, 0, 40, 32
3, 10944, Control_c, 0, 64, 0
3, 10952, Control_c, 0, 64, 127
3, 10960, Note_on_c, 0, 40, 0
3, 10960, Note_on_c, 0, 49, 30
3, 10976, Note_on_c, 0, 49, 0
3, 10976, Note_on_c, 0, 46, 28
3, 10992, Note_on_c, 0, 46, 0
3, 10992, Note_on_c, 0, 55, 30
3, 11038, Note_on_c, 0, 55, 0
3, 11040, Note_on_c, 0, 40, 34
3, 11042, Control_c, 0, 64, 0
3, 11048, Control_c, 0, 64, 127
3, 11056, Note_on_c, 0, 40, 0
3, 11056, Note_on_c, 0, 49, 32
3, 11072, Note_on_c, 0, 49, 0
3, 11072, Note_on_c, 0, 46, 30
3, 11088, Note_on_c, 0, 46, 0
3, 11088, Note_on_c, 0, 55, 32
3, 11134, Note_on_c, 0, 55, 0
3, 11136, Note_on_c, 0, 41, 33
3, 11136, Control_c, 0, 64, 127
3, 11138, Control_c, 0, 64, 0
3, 11144, Control_c, 0, 64, 127
3, 11152, Note_on_c, 0, 41, 0
3, 11152, Note_on_c, 0, 48, 32
3, 11168, Note_on_c, 0, 48, 0
3, 11168, Note_on_c, 0, 44, 30
3, 11184, Note_on_c, 0, 44, 0
3, 11184, Note_on_c, 0, 56, 32
3, 11230, Note_on_c, 0, 56, 0
3, 11232, Note_on_c, 0, 44, 35
3, 11234, Control_c, 0, 64, 0
3, 11240, Control_c, 0, 64, 127
3, 11248, Note_on_c, 0, 44, 0
3, 11248, Note_on_c, 0, 53, 36
3, 11264, Note_on_c, 0, 53, 0
3, 11264, Note_on_c, 0, 48, 35
3, 11280, Note_on_c, 0, 48, 0
3, 11280, Note_on_c, 0, 60, 40
3, 11326, Note_on_c, 0, 60, 0
3, 11328, Note_on_c, 0, 43, 41
3, 11328, Control_c, 0, 64, 127
3, 11330, Control_c, 0, 64, 0
3, 11336, Control_c, 0, 64, 127
3, 11344, Note_on_c, 0, 43, 0
3, 11344, Note_on_c, 0, 53, 41
3, 11360, Note_on_c, 0, 53, 0
3, 11360, Note_on_c, 0, 49, 39
3, 11376, Note_on_c, 0, 49, 0
3, 11376, Note_on_c, 0, 58, 44
3, 11422, Note_on_c, 0, 58, 0
3, 11424, Note_on_c, 0, 43, 43
3, 11426, Control_c, 0, 64, 0
3, 11432, Control_c, 0, 64, 127
3, 11440, Note_on_c, 0, 43, 0
3, 11440, Note_on_c, 0, 52, 44
3, 11456, Note_on_c, 0, 52, 0
3, 11456, Note_on_c, 0, 48, 43
3, 11472, Note_on_c, 0, 48, 0
3, 11472, Note_on_c, 0, 58, 46
3, 11518, Note_on_c, 0, 58, 0
3, 11520, Note_on_c, 0, 44, 44
3, 11520, Control_c, 0, 64, 127
3, 11522, Control_c, 0, 64, 0
3, 11528, Control_c, 0, 64, 127
3, 11536, Note_on_c, 0, 44, 0
3, 11536, Note_on_c, 0, 55, 46
3, 11552, Note_on_c, 0, 55, 0
3, 11552, Note_on_c, 0, 48, 45
3, 11568, Note_on_c, 0, 48, 0
3, 11568, Note_on_c, 0, 60, 50
3, 11614, Note_on_c, 0, 60, 0
3, 11616, Note_on_c, 0, 44, 44
3, 11618, Control_c, 0, 64, 0
3, 11624, Control_c, 0, 64, 127
3, 11632, Note_on_c, 0, 44, 0
3, 11632, Note_on_c, 0, 53, 46
3, 11648, Note_on_c, 0, 53, 0
3, 11648, Note_on_c, 0, 48, 45
3, 11664, Note_on_c, 0, 48, 0
3, 11664, Note_on_c, 0, 60, 58
3, 11710, Note_on_c, 0, 60, 0
3, 11712, Note_on_c, 0, 45, 52
3, 11712, Control_c, 0, 64, 127
3, 11714, Control_c, 0, 64, 0
3, 11720, Control_c, 0, 64, 127
3, 11728, Note_on_c, 0, 45, 0
3, 11728, Note_on_c, 0, 54, 50
3, 11744, Note_on_c, 0, 54, 0
3, 11744, Note_on_c, 0, 51, 48
3, 11760, Note_on_c, 0, 51, 0
3, 11760, Note_on_c, 0, 60, 54
3, 11806, Note_on_c, 0, 60, 0
3, 11808, Note_on_c, 0, 45, 52
3, 11810, Control_c, 0, 64, 0
3, 11816, Control_c, 0, 64, 127
3, 11824, Note_on_c, 0, 45, 0
3, 11824, Note_on_c, 0, 54, 52
3, 11840, Note_on_c, 0, 54, 0
3, 11840, Note_on_c, 0, 51, 50
3, 11856, Note_on_c, 0, 51, 0
3, 11856, Note_on_c, 0, 60, 56
3, 11902, Note_on_c, 0, 60, 0
3, 11904, Note_on_c, 0, 46, 53
3, 11904, Control_c, 0, 64, 127
3, 11906, Control_c, 0, 64, 0
3, 11912, Control_c, 0, 64, 127
3, 11920, Note_on_c, 0, 46, 0
3, 11920, Note_on_c, 0, 53, 57
3, 11936, Note_on_c, 0, 53, 0
3, 11936, Note_on_c, 0, 49, 55
3, 11952, Note_on_c, 0, 49, 0
3, 11952, Note_on_c, 0, 61, 61
3, 11998, Note_on_c, 0, 61, 0
3, 12000, Note_on_c, 0, 49, 55
3, 12002, Control_c, 0, 64, 0
3, 12008, Control_c, 0, 64, 127
3, 12016, Note_on_c, 0, 49, 0
3, 12016, Note_on_c, 0, 58, 58
3, 12032, Note_on_c, 0, 58, 0
3, 12032, Note_on_c, 0, 53, 56
3, 12048, Note_on_c, 0, 53, 0
3, 12048, Note_on_c, 0, 65, 60
3, 12094, Note_on_c, 0, 65, 0
3, 12096, Note_on_c, 0, 48, 57
3, 12096, Control_c, 0, 64, 127
3, 12098, Control_c, 0, 64, 0
3, 12104, Control_c, 0, 64, 127
3, 12112, Note_on_c, 0, 48, 0
3, 12112, Note_on_c, 0, 58, 60
3, 12128, Note_on_c, 0, 58, 0
3, 12128, Note_on_c, 0, 54, 56
3, 12144, Note_on_c, 0, 54, 0
3, 12144, Note_on_c, 0, 63, 61
3, 12190, Note_on_c, 0, 63, 0
3, 12192, Note_on_c, 0, 48, 59
3, 12194, Control_c, 0, 64, 0
3, 12200, Control_c, 0, 64, 127
3, 12208, Note_on_c, 0, 48, 0
3, 12208, Note_on_c, 0, 57, 62
3, 12224, Note_on_c, 0, 57, 0
3, 12224, Note_on_c, 0, 53, 58
3, 12240, Note_on_c, 0, 53, 0
3, 12240, Note_on_c, 0, 63, 64
3, 12286, Note_on_c, 0, 63, 0
3, 12288, Note_on_c, 0, 49, 63
3, 12288, Control_c, 0, 64, 127
3, 12290, Control_c, 0, 64, 0
3, 12296, Control_c, 0, 64, 127
3, 12304, Note_on_c, 0, 49, 0
3, 12304, Note_on_c, 0, 60, 67
3, 12320, Note_on_c, 0, 60, 0
3, 12320, Note_on_c, 0, 53, 63
3, 12336, Note_on_c, 0, 53, 0
3, 12336, Note_on_c, 0, 65, 69
3, 12382, Note_on_c, 0, 65, 0
3, 12384, Note_on_c, 0, 49, 66
3, 12386, Control_c, 0, 64, 0
3, 12392, Control_c, 0, 64, 127
3, 12400, Note_on_c, 0, 49, 0
3, 12400, Note_on_c, 0, 58, 70
3, 12416, Note_on_c, 0, 58, 0
3, 12416, Note_on_c, 0, 53, 66
3, 12432, Note_on_c, 0, 53, 0
3, 12432, Note_on_c, 0, 65, 84
3, 12478, Note_on_c, 0, 65, 0
3, 12480, Note_on_c, 0, 37, 62
3, 12480, Control_c, 0, 64, 127
3, 12482, Control_c, 0, 64, 0
3, 12488, Control_c, 0, 64, 127
3, 12496, Note_on_c, 0, 37, 0
3, 12496, Note_on_c, 0, 58, 62
3, 12512, Note_on_c, 0, 58, 0
3, 12512, Note_on_c, 0, 54, 58
3, 12528, Note_on_c, 0, 54, 0
3, 12528, Note_on_c, 0, 66, 66
3, 12574, Note_on_c, 0, 66, 0
3, 12576, Note_on_c, 0, 49, 58
3, 12578, Control_c, 0, 64, 0
3, 12584, Control_c, 0, 64, 127
3, 12592, Note_on_c, 0, 49, 0
3, 12592, Note_on_c, 0, 58, 60
3, 12608, Note_on_c, 0, 58, 0
3, 12608, Note_on_c, 0, 54, 56
3, 12624, Note_on_c, 0, 54, 0
3, 12624, Note_on_c, 0, 66, 60
3, 12670, Note_on_c, 0, 66, 0
3, 12672, Note_on_c, 0, 49, 54
3, 12672, Control_c, 0, 64, 127
3, 12674, Control_c, 0, 64, 0
3, 12680, Control_c, 0, 64, 127
3, 12688, Note_on_c, 0, 49, 0
3, 12688, Note_on_c, 0, 58, 58
3, 12704, Note_on_c, 0, 58, 0
3, 12704, Note_on_c, 0, 54, 56
3, 12720, Note_on_c, 0, 54, 0
3, 12720, Note_on_c, 0, 61, 58
3, 12766, Note_on_c, 0, 61, 0
3, 12768, Note_on_c, 0, 49, 52
3, 12770, Control_c, 0, 64, 0
3, 12776, Control_c, 0, 64, 127
3, 12784, Note_on_c, 0, 49, 0
3, 12784, Note_on_c, 0, 58, 56
3, 12800, Note_on_c, 0, 58, 0
3, 12800, Note_on_c, 0, 54, 54
3, 12816, Note_on_c, 0, 54, 0
3, 12816, Note_on_c, 0, 61, 56
3, 12862, Note_on_c, 0, 61, 0
3, 12864, Note_on_c, 0, 49, 58
3, 12864, Control_c, 0, 64, 127
3, 12866, Control_c, 0, 64, 0
3, 12872, Control_c, 0, 64, 127
3, 12880, Note_on_c, 0, 49, 0
3, 12880, Note_on_c, 0, 58, 62
3, 12896, Note_on_c, 0, 58, 0
3, 12896, Note_on_c, 0, 55, 58
3, 12912, Note_on_c, 0, 55, 0
3, 12912, Note_on_c, 0, 61, 62
3, 12958, Note_on_c, 0, 61, 0
3, 12960, Note_on_c, 0, 49, 54
3, 12962, Control_c, 0, 64, 0
3, 12968, Control_c, 0, 64, 127
3, 12976, Note_on_c, 0, 49, 0
3, 12976, Note_on_c, 0, 58, 57
3, 12992, Note_on_c, 0, 58, 0
3, 12992, Note_on_c, 0, 55, 52
3, 13008, Note_on_c, 0, 55, 0
3, 13008, Note_on_c, 0, 61, 56
3, 13054, Note_on_c, 0, 61, 0
3, 13056, Note_on_c, 0, 49, 52
3, 13056, Control_c, 0, 64, 127
3, 13072, Note_on_c, 0, 49, 0
3, 13072, Note_on_c, 0, 58, 56
3, 13088, Note_on_c, 0, 58, 0
3, 13088, Note_on_c, 0, 55, 55
3, 13104, Note_on_c, 0, 55, 0
3, 13104, Note_on_c, 0, 61, 59
3, 13150, Note_on_c, 0, 61, 0
3, 13152, Note_on_c, 0, 49, 56
3, 13168, Note_on_c, 0, 49, 0
3, 13168, Note_on_c, 0, 58, 60
3, 13184, Note_on_c, 0, 58, 0
3, 13184, Note_on_c, 0, 55, 59
3, 13200, Note_on_c, 0, 55, 0
3, 13200, Note_on_c, 0, 61, 66
3, 13202, Control_c, 0, 64, 0
3, 13246, Note_on_c, 0, 61, 0
3, 13248, Note_on_c, 0, 49, 72
3, 13248, Note_on_c, 0, 56, 76
3, 13248, Note_on_c, 0, 59, 80
3, 13248, Control_c, 0, 64, 0
3, 13294, Note_on_c, 0, 59, 0
3, 13294, Note_on_c, 0, 56, 0
3, 13294, Note_on_c, 0, 49, 0
3, 13440, Control_c, 0, 64, 0
3, 13632, Control_c, 0, 64, 0
3, 13656, Note_on_c, 0, 48, 30
3, 13704, Note_on_c, 0, 48, 0
3, 13704, Note_on_c, 0, 47, 32
3, 13752, Note_on_c, 0, 47, 0
3, 13752, Note_on_c, 0, 46, 33
3, 13800, Note_on_c, 0, 46, 0
3, 13800, Note_on_c, 0, 40, 26
3, 13824, Control_c, 0, 64, 0
3, 13848, Note_on_c, 0, 40, 0
3, 13848, Note_on_c, 0, 45, 26
3, 13896, Note_on_c, 0, 45, 0
3, 13896, Note_on_c, 0, 44, 24
3, 13944, Note_on_c, 0, 44, 0
3, 13944, Note_on_c, 0, 43, 20
3, 13976, Control_c, 0, 64, 127
3, 14016, Note_on_c, 0, 43, 0
3, 14016, Note_on_c, 0, 36, 18
3, 14062, Note_on_c, 0, 36, 0
3, 14112, Note_on_c, 0, 41, 24
3, 14112, Control_c, 0, 64, 127
3, 14114, Control_c, 0, 64, 0
3, 14120, Control_c, 0, 64, 127
3, 14136, Note_on_c, 0, 41, 0
3, 14160, Note_on_c, 0, 56, 18
3, 14160, Note_on_c, 0, 60, 21
3, 14160, Note_on_c, 0, 65, 24
3, 14184, Note_on_c, 0, 65, 0
3, 14184, Note_on_c, 0, 60, 0
3, 14184, Note_on_c, 0, 56, 0
3, 14208, Note_on_c, 0, 43, 28
3, 14210, Control_c, 0, 64, 0
3, 14216, Control_c, 0, 64, 127
3, 14232, Note_on_c, 0, 43, 0
3, 14256, Note_on_c, 0, 51, 18
3, 14256, Note_on_c, 0, 58, 22
3, 14256, Note_on_c, 0, 63, 26
3, 14280, Note_on_c, 0, 63, 0
3, 14280, Note_on_c, 0, 58, 0
3, 14280, Note_on_c, 0, 51, 0
3, 14304, Note_on_c, 0, 44, 27
3, 14304, Control_c, 0, 64, 127
3, 14306, Control_c, 0, 64, 0
3, 14312, Control_c, 0, 64, 127
3, 14328, Note_on_c, 0, 44, 0
3, 14352, Note_on_c, 0, 60, 24
3, 14352, Note_on_c, 0, 68, 28
3, 14376, Note_on_c, 0, 68, 0
3, 14376, Note_on_c, 0, 60, 0
3, 14400, Note_on_c, 0, 40, 26
3, 14402, Control_c, 0, 64, 0
3, 14408, Control_c, 0, 64, 127
3, 14424, Note_on_c, 0, 40, 0
3, 14448, Note_on_c, 0, 58, 20
3, 14448, Note_on_c, 0, 60, 21
3, 14448, Note_on_c, 0, 67, 26
3, 14472, Note_on_c, 0, 67, 0
3, 14472, Note_on_c, 0, 60, 0
3, 14472, Note_on_c, 0, 58, 0
3, 14496, Note_on_c, 0, 41, 28
3, 14496, Control_c, 0, 64, 127
3, 14498, Control_c, 0, 64, 0
3, 14504, Control_c, 0, 64, 127
3, 14520, Note_on_c, 0, 41, 0
3, 14544, Note_on_c, 0, 56, 16
3, 14544, Note_on_c, 0, 60, 21
3, 14544, Note_on_c, 0, 65, 24
3, 14568, Note_on_c, 0, 65, 0
3, 14568, Note_on_c, 0, 60, 0
3, 14568, Note_on_c, 0, 56, 0
3, 14592, Note_on_c, 0, 43, 29
3, 14594, Control_c, 0, 64, 0
3, 14600, Control_c, 0, 64, 127
3, 14616, Note_on_c, 0, 43, 0
3, 14640, Note_on_c, 0, 51, 22
3, 14640, Note_on_c, 0, 58, 28
3, 14640, Note_on_c, 0, 63, 30
3, 14664, Note_on_c, 0, 63, 0
3, 14664, Note_on_c, 0, 58, 0
3, 14664, Note_on_c, 0, 51, 0
3, 14688, Note_on_c, 0, 44, 28
3, 14688, Control_c, 0, 64, 127
3, 14690, Control_c, 0, 64, 0
3, 14696, Control_c, 0, 64, 127
3, 14712, Note_on_c, 0, 44, 0
3, 14736, Note_on_c, 0, 51, 20
3, 14736, Note_on_c, 0, 56, 23
3, 14736, Note_on_c, 0, 63, 26
3, 14760, Note_on_c, 0, 63, 0
3, 14760, Note_on_c, 0, 56, 0
3, 14760, Note_on_c, 0, 51, 0
3, 14784, Note_on_c, 0, 40, 28
3, 14786, Control_c, 0, 64, 0
3, 14792, Control_c, 0, 64, 127
3, 14808, Note_on_c, 0, 40, 0
3, 14832, Note_on_c, 0, 58, 20
3, 14832, Note_on_c, 0, 60, 22
3, 14832, Note_on_c, 0, 67, 25
3, 14856, Note_on_c, 0, 67, 0
3, 14856, Note_on_c, 0, 60, 0
3, 14856, Note_on_c, 0, 58, 0
3, 14880, Note_on_c, 0, 41, 30
3, 14880, Control_c, 0, 64, 127
3, 14882, Control_c, 0, 64, 0
3, 14888, Control_c, 0, 64, 127
3, 14904, Note_on_c, 0, 41, 0
3, 14928, Note_on_c, 0, 60, 24
3, 14928, Note_on_c, 0, 68, 28
3, 14952, Note_on_c, 0, 68, 0
3, 14952, Note_on_c, 0, 60, 0
3, 14976, Note_on_c, 0, 53, 32
3, 14978, Control_c, 0, 64, 0
3, 14984, Control_c, 0, 64, 127
3, 15000, Note_on_c, 0, 53, 0
3, 15024, Note_on_c, 0, 60, 26
3, 15024, Note_on_c, 0, 65, 30
3, 15024, Note_on_c, 0, 72, 34
3, 15048, Note_on_c, 0, 72, 0
3, 15048, Note_on_c, 0, 65, 0
3, 15048, Note_on_c, 0, 60, 0
3, 15072, Note_on_c, 0, 46, 32
3, 15072, Control_c, 0, 64, 127
3, 15074, Control_c, 0, 64, 0
3, 15080, Control_c, 0, 64, 127
3, 15096, Note_on_c, 0, 46, 0
3, 15120, Note_on_c, 0, 61, 22
3, 15120, Note_on_c, 0, 65, 26
3, 15120, Note_on_c, 0, 70, 30
3, 15144, Note_on_c, 0, 70, 0
3, 15144, Note_on_c, 0, 65, 0
3, 15144, Note_on_c, 0, 61, 0
3, 15168, Note_on_c, 0, 48, 33
3, 15170, Control_c, 0, 64, 0
3, 15176, Control_c, 0, 64, 127
3, 15192, Note_on_c, 0, 48, 0
3, 15216, Note_on_c, 0, 60, 24
3, 15216, Note_on_c, 0, 67, 28
3, 15216, Note_on_c, 0, 70, 32
3, 15240, Note_on_c, 0, 70, 0
3, 15240, Note_on_c, 0, 67, 0
3, 15240, Note_on_c, 0, 60, 0
3, 15264, Note_on_c, 0, 49, 34
3, 15264, Control_c, 0, 64, 127
3, 15266, Control_c, 0, 64, 0
3, 15272, Control_c, 0, 64, 127
3, 15288, Note_on_c, 0, 49, 0
3, 15312, Note_on_c, 0, 56, 28
3, 15312, Note_on_c, 0, 61, 32
3, 15312, Note_on_c, 0, 65, 36
3, 15336, Note_on_c, 0, 65, 0
3, 15336, Note_on_c, 0, 61, 0
3, 15336, Note_on_c, 0, 56, 0
3, 15360, Note_on_c, 0, 46, 34
3, 15362, Control_c, 0, 64, 0
3, 15368, Control_c, 0, 64, 127
3, 15384, Note_on_c, 0, 46, 0
3, 15408, Note_on_c, 0, 58, 26
3, 15408, Note_on_c, 0, 61, 30
3, 15432, Note_on_c, 0, 61, 0
3, 15432, Note_on_c, 0, 58, 0
3, 15456, Note_on_c, 0, 48, 32
3, 15456, Control_c, 0, 64, 127
3, 15458, Control_c, 0, 64, 0
3, 15464, Control_c, 0, 64, 127
3, 15480, Note_on_c, 0, 48, 0
3, 15504, Note_on_c, 0, 56, 30
3, 15504, Note_on_c, 0, 60, 34
3, 15528, Note_on_c, 0, 60, 0
3, 15528, Note_on_c, 0, 56, 0
3, 15552, Note_on_c, 0, 36, 30
3, 15554, Control_c, 0, 64, 0
3, 15560, Control_c, 0, 64, 127
3, 15576, Note_on_c, 0, 36, 0
3, 15600, Note_on_c, 0, 55, 28
3, 15600, Note_on_c, 0, 60, 32
3, 15624, Note_on_c, 0, 60, 0
3, 15624, Note_on_c, 0, 55, 0
3, 15648, Note_on_c, 0, 41, 30
3, 15648, Control_c, 0, 64, 127
3, 15650, Control_c, 0, 64, 0
3, 15656, Control_c, 0, 64, 127
3, 15672, Note_on_c, 0, 41, 0
3, 15696, Note_on_c, 0, 48, 24
3, 15696, Note_on_c, 0, 56, 28
3, 15696, Note_on_c, 0, 60, 32
3, 15720, Note_on_c, 0, 60, 0
3, 15720, Note_on_c, 0, 56, 0
3, 15720, Note_on_c, 0, 48, 0
3, 15744, Note_on_c, 0, 41, 33
3, 15746, Control_c, 0, 64, 0
3, 15752, Control_c, 0, 64, 127
3, 15768, Note_on_c, 0, 41, 0
3, 15792, Note_on_c, 0, 53, 28
3, 15792, Note_on_c, 0, 60, 32
3, 15792, Note_on_c, 0, 65, 36
3, 15816, Note_on_c, 0, 65, 0
3, 15816, Note_on_c, 0, 60, 0
3, 15816, Note_on_c, 0, 53, 0
3, 15840, Note_on_c, 0, 46, 34
3, 15840, Control_c, 0, 64, 127
3, 15842, Control_c, 0, 64, 0
3, 15848, Control_c, 0, 64, 127
3, 15864, Note_on_c, 0, 46, 0
3, 15888, Note_on_c, 0, 53, 28
3, 15888, Note_on_c, 0, 58, 32
3, 15888, Note_on_c, 0, 65, 36
3, 15912, Note_on_c, 0, 65, 0
3, 15912, Note_on_c, 0, 58, 0
3, 15912, Note_on_c, 0, 53, 0
3, 15936, Note_on_c, 0, 48, 35
3, 15938, Control_c, 0, 64, 0
3, 15944, Control_c, 0, 64, 127
3, 15960, Note_on_c, 0, 48, 0
3, 15984, Note_on_c, 0, 55, 28
3, 15984, Note_on_c, 0, 60, 32
3, 16008, Note_on_c, 0, 60, 0
3, 16008, Note_on_c, 0, 55, 0
3, 16032, Note_on_c, 0, 37, 32
3, 16032, Control_c, 0, 64, 127
3, 16034, Control_c, 0, 64, 0
3, 16040, Control_c, 0, 64, 127
3, 16056, Note_on_c, 0, 37, 0
3, 16080, Note_on_c, 0, 49, 30
3, 16080, Note_on_c, 0, 56, 36
3, 16082, Control_c, 0, 64, 0
3, 16088, Control_c, 0, 64, 127
3, 16128, Note_on_c, 0, 56, 0
3, 16128, Note_on_c, 0, 49, 0
3, 16128, Note_on_c, 0, 46, 32
3, 16128, Note_on_c, 0, 58, 39
3, 16130, Control_c, 0, 64, 0
3, 16136, Control_c, 0, 64, 127
3, 16176, Note_on_c, 0, 58, 0
3, 16176, Note_on_c, 0, 46, 0
3, 16176, Note_on_c, 0, 47, 30
3, 16176, Note_on_c, 0, 56, 37
3, 16178, Control_c, 0, 64, 0
3, 16184, Control_c, 0, 64, 127
3, 16224, Note_on_c, 0, 56, 0
3, 16224, Note_on_c, 0, 47, 0
3, 16224, Note_on_c, 0, 46, 32
3, 16224, Note_on_c, 0, 58, 40
3, 16224, Control_c, 0, 64, 127
3, 16226, Control_c, 0, 64, 0
3, 16232, Control_c, 0, 64, 127
3, 16272, Note_on_c, 0, 58, 0
3, 16272, Note_on_c, 0, 46, 0
3, 16272, Note_on_c, 0, 47, 30
3, 16272, Note_on_c, 0, 56, 38
3, 16274, Control_c, 0, 64, 0
3, 16280, Control_c, 0, 64, 127
3, 16320, Note_on_c, 0, 56, 0
3, 16320, Note_on_c, 0, 47, 0
3, 16320, Note_on_c, 0, 48, 28
3, 16320, Note_on_c, 0, 56, 30
3, 16322, Control_c, 0, 64, 0
3, 16328, Control_c, 0, 64, 127
3, 16368, Note_on_c, 0, 56, 0
3, 16368, Note_on_c, 0, 48, 0
3, 16368, Note_on_c, 0, 48, 24
3, 16368, Note_on_c, 0, 55, 28
3, 16370, Control_c, 0, 64, 0
3, 16376, Control_c, 0, 64, 127
3, 16414, Note_on_c, 0, 55, 0
3, 16416, Note_on_c, 0, 41, 40
3, 16416, Control_c, 0, 64, 127
3, 16418, Control_c, 0, 64, 0
3, 16424, Control_c, 0, 64, 127
3, 16462, Note_on_c, 0, 48, 0
3, 16464, Note_on_c, 0, 54, 43
3, 16466, Control_c, 0, 64, 0
3, 16472, Control_c, 0, 64, 127
3, 16512, Note_on_c, 0, 54, 0
3, 16512, Note_on_c, 0, 53, 46
3, 16514, Control_c, 0, 64, 0
3, 16520, Control_c, 0, 64, 127
3, 16560, Note_on_c, 0, 53, 0
3, 16560, Note_on_c, 0, 51, 48
3, 16562, Control_c, 0, 64, 0
3, 16568, Control_c, 0, 64, 127
3, 16608, Note_on_c, 0, 51, 0
3, 16608, Note_on_c, 0, 51, 46
3, 16608, Control_c, 0, 64, 127
3, 16610, Control_c, 0, 64, 0
3, 16616, Control_c, 0, 64, 127
3, 16704, Note_on_c, 0, 51, 0
3, 16704, Note_on_c, 0, 53, 48
3, 16706, Control_c, 0, 64, 0
3, 16752, Note_on_c, 0, 53, 0
3, 16752, Note_on_c, 0, 51, 52
3, 16800, Note_on_c, 0, 51, 0
3, 16800, Note_on_c, 0, 49, 52
3, 16800, Control_c, 0, 64, 0
3, 16808, Control_c, 0, 64, 127
3, 16896, Note_on_c, 0, 49, 0
3, 16896, Note_on_c, 0, 48, 50
3, 16898, Control_c, 0, 64, 0
3, 16968, Note_on_c, 0, 48, 0
3, 16968, Note_on_c, 0, 46, 48
3, 16990, Note_on_c, 0, 46, 0
3, 16992, Note_on_c, 0, 46, 36
3, 16992, Control_c, 0, 64, 0
3, 17000, Control_c, 0, 64, 127
3, 17088, Note_on_c, 0, 46, 0
3, 17088, Note_on_c, 0, 49, 26
3, 17182, Note_on_c, 0, 49, 0
3, 17182, Note_on_c, 0, 41, 0
3, 17184, Note_on_c, 0, 41, 40
3, 17184, Note_on_c, 0, 48, 36
3, 17184, Control_c, 0, 64, 0
3, 17280, Note_on_c, 0, 57, 48
3, 17376, Control_c, 0, 64, 0
3, 17568, Control_c, 0, 64, 0
3, 17760, Control_c, 0, 64, 0
3, 17864, Control_c, 0, 64, 127
3, 17952, Control_c, 0, 64, 127
3, 18144, Control_c, 0, 64, 127
3, 18336, Control_c, 0, 64, 127
3, 18528, Control_c, 0, 64, 127
3, 18720, Control_c, 0, 64, 127
3, 18766, Note_on_c, 0, 57, 0
3, 18766, Note_on_c, 0, 48, 0
3, 18766, Note_on_c, 0, 41, 0
3, 18818, Control_c, 0, 64, 0
3, 18912, Note_on_c, 0, 34, 44
3, 18912, Note_on_c, 0, 46, 40
3, 18912, Control_c, 0, 64, 0
3, 18920, Control_c, 0, 64, 127
3, 19008, Note_on_c, 0, 46, 0
3, 19008, Note_on_c, 0, 34, 0
3, 19008, Note_on_c, 0, 36, 40
3, 19008, Note_on_c, 0, 48, 36
3, 19010, Control_c, 0, 64, 0
3, 19016, Control_c, 0, 64, 127
3, 19066, Note_on_c, 0, 48, 0
3, 19066, Note_on_c, 0, 36, 0
3, 19076, Control_c, 0, 64, 0
3, 19082, Control_c, 0, 64, 127
3, 19104, Control_c, 0, 64, 127
3, 19296, Control_c, 0, 64, 127
3, 19488, Control_c, 0, 64, 127
3, 19648, Control_c, 0, 64, 0
3, 19648, End_track
0, 0, End_of_file
