0, 0, Header, 1, 2, 120
1, 0, Start_track
1, 0, Time_signature, 4, 2, 24, 8
1, 0, Key_signature, 0, "major"
1, 0, Tempo, 600000
1, 0, Marker_t, "Chopin - Nocturne Op.9,1"
1, 0, Marker_t, "Copyright © 1998 by Andy Delmenico"
1, 0, Marker_t, "Chopin - Nocturne Op.9,1 played by Andreas Delmenico (30.7.1998)\012"
1, 480, Marker_t, "Chopin - Nocturne Op.9,1 played by Andreas Delmenico (30.7.1998)"
1, 480, End_track
2, 0, Start_track
2, 0, MIDI_port, 0
2, 0, Title_t, "Chopin - Nocturne Op.9,1"
2, 0, Program_c, 0, 0
2, 343, Note_on_c, 0, 82, 67
2, 463, Note_on_c, 0, 84, 78
2, 542, Note_on_c, 0, 85, 70
2, 545, Note_on_c, 0, 84, 0
2, 565, Note_on_c, 0, 82, 0
2, 611, Note_on_c, 0, 81, 68
2, 613, Note_on_c, 0, 85, 0
2, 679, Note_on_c, 0, 82, 62
2, 685, Note_on_c, 0, 81, 0
2, 765, Note_on_c, 0, 78, 50
2, 772, Note_on_c, 0, 82, 0
2, 833, Note_on_c, 0, 46, 43
2, 844, Note_on_c, 0, 78, 0
2, 852, Note_on_c, 0, 77, 52
2, 911, Note_on_c, 0, 46, 0
2, 947, Note_on_c, 0, 53, 45
2, 968, Note_on_c, 0, 77, 0
2, 991, Note_on_c, 0, 53, 0
2, 1030, Note_on_c, 0, 61, 43
2, 1030, Note_on_c, 0, 77, 85
2, 1057, Note_on_c, 0, 61, 0
2, 1098, Note_on_c, 0, 58, 50
2, 1102, Note_on_c, 0, 77, 0
2, 1167, Note_on_c, 0, 77, 83
2, 1167, Note_on_c, 0, 65, 49
2, 1185, Note_on_c, 0, 65, 0
2, 1191, Note_on_c, 0, 58, 0
2, 1245, Note_on_c, 0, 53, 46
2, 1255, Note_on_c, 0, 77, 0
2, 1256, Note_on_c, 0, 53, 0
2, 1326, Note_on_c, 0, 77, 74
2, 1328, Note_on_c, 0, 46, 51
2, 1391, Note_on_c, 0, 46, 0
2, 1427, Note_on_c, 0, 53, 45
2, 1445, Note_on_c, 0, 53, 0
2, 1491, Note_on_c, 0, 77, 0
2, 1500, Note_on_c, 0, 63, 43
2, 1500, Note_on_c, 0, 78, 53
2, 1532, Note_on_c, 0, 63, 0
2, 1568, Note_on_c, 0, 77, 72
2, 1573, Note_on_c, 0, 57, 51
2, 1576, Note_on_c, 0, 78, 0
2, 1616, Note_on_c, 0, 57, 0
2, 1618, Note_on_c, 0, 77, 0
2, 1634, Note_on_c, 0, 65, 53
2, 1634, Note_on_c, 0, 75, 73
2, 1651, Note_on_c, 0, 65, 0
2, 1689, Note_on_c, 0, 75, 0
2, 1694, Note_on_c, 0, 72, 66
2, 1695, Note_on_c, 0, 53, 42
2, 1707, Note_on_c, 0, 53, 0
2, 1742, Note_on_c, 0, 72, 0
2, 1755, Note_on_c, 0, 73, 70
2, 1762, Note_on_c, 0, 46, 49
2, 1797, Note_on_c, 0, 46, 0
2, 1821, Note_on_c, 0, 73, 0
2, 1834, Note_on_c, 0, 53, 51
2, 1886, Note_on_c, 0, 53, 0
2, 1906, Note_on_c, 0, 61, 43
2, 1937, Note_on_c, 0, 61, 0
2, 1975, Note_on_c, 0, 58, 49
2, 2058, Note_on_c, 0, 70, 70
2, 2064, Note_on_c, 0, 65, 40
2, 2075, Note_on_c, 0, 70, 0
2, 2077, Note_on_c, 0, 65, 0
2, 2083, Note_on_c, 0, 58, 0
2, 2144, Note_on_c, 0, 53, 51
2, 2157, Note_on_c, 0, 53, 0
2, 2228, Note_on_c, 0, 46, 59
2, 2228, Control_c, 0, 64, 60
2, 2236, Note_on_c, 0, 82, 63
2, 2241, Control_c, 0, 64, 0
2, 2280, Control_c, 0, 64, 109
2, 2292, Control_c, 0, 64, 127
2, 2310, Note_on_c, 0, 84, 66
2, 2314, Note_on_c, 0, 46, 0
2, 2327, Note_on_c, 0, 53, 49
2, 2367, Note_on_c, 0, 85, 88
2, 2372, Note_on_c, 0, 84, 0
2, 2381, Note_on_c, 0, 53, 0
2, 2382, Note_on_c, 0, 82, 0
2, 2399, Note_on_c, 0, 61, 50
2, 2406, Note_on_c, 0, 81, 83
2, 2410, Note_on_c, 0, 85, 0
2, 2431, Note_on_c, 0, 61, 0
2, 2438, Note_on_c, 0, 82, 75
2, 2442, Note_on_c, 0, 81, 0
2, 2454, Note_on_c, 0, 58, 58
2, 2470, Note_on_c, 0, 81, 64
2, 2472, Note_on_c, 0, 82, 0
2, 2506, Note_on_c, 0, 81, 0
2, 2507, Note_on_c, 0, 80, 73
2, 2513, Note_on_c, 0, 65, 45
2, 2539, Note_on_c, 0, 65, 0
2, 2546, Note_on_c, 0, 80, 0
2, 2546, Note_on_c, 0, 81, 61
2, 2550, Note_on_c, 0, 58, 0
2, 2581, Note_on_c, 0, 81, 0
2, 2584, Note_on_c, 0, 84, 63
2, 2601, Note_on_c, 0, 53, 51
2, 2628, Note_on_c, 0, 82, 73
2, 2632, Note_on_c, 0, 84, 0
2, 2634, Note_on_c, 0, 53, 0
2, 2667, Note_on_c, 0, 78, 70
2, 2671, Note_on_c, 0, 82, 0
2, 2694, Note_on_c, 0, 46, 60
2, 2702, Control_c, 0, 64, 49
2, 2703, Note_on_c, 0, 78, 0
2, 2706, Note_on_c, 0, 77, 88
2, 2715, Control_c, 0, 64, 26
2, 2728, Control_c, 0, 64, 124
2, 2732, Note_on_c, 0, 46, 0
2, 2739, Note_on_c, 0, 78, 70
2, 2742, Control_c, 0, 64, 127
2, 2744, Note_on_c, 0, 77, 0
2, 2766, Note_on_c, 0, 53, 55
2, 2771, Note_on_c, 0, 77, 64
2, 2773, Note_on_c, 0, 78, 0
2, 2793, Note_on_c, 0, 76, 78
2, 2796, Note_on_c, 0, 77, 0
2, 2815, Note_on_c, 0, 77, 70
2, 2816, Note_on_c, 0, 53, 0
2, 2821, Note_on_c, 0, 76, 0
2, 2826, Note_on_c, 0, 61, 54
2, 2846, Note_on_c, 0, 77, 0
2, 2855, Note_on_c, 0, 82, 73
2, 2858, Note_on_c, 0, 61, 0
2, 2883, Note_on_c, 0, 58, 54
2, 2888, Note_on_c, 0, 81, 83
2, 2890, Note_on_c, 0, 82, 0
2, 2916, Note_on_c, 0, 81, 0
2, 2916, Note_on_c, 0, 80, 80
2, 2936, Note_on_c, 0, 65, 55
2, 2943, Note_on_c, 0, 80, 0
2, 2945, Note_on_c, 0, 79, 78
2, 2956, Note_on_c, 0, 65, 0
2, 2959, Note_on_c, 0, 58, 0
2, 2967, Note_on_c, 0, 79, 0
2, 2967, Note_on_c, 0, 78, 80
2, 2982, Note_on_c, 0, 53, 81
2, 2989, Note_on_c, 0, 77, 83
2, 2990, Note_on_c, 0, 78, 0
2, 3002, Note_on_c, 0, 53, 0
2, 3008, Note_on_c, 0, 76, 88
2, 3011, Note_on_c, 0, 77, 0
2, 3032, Note_on_c, 0, 75, 90
2, 3033, Note_on_c, 0, 76, 0
2, 3037, Note_on_c, 0, 46, 90
2, 3062, Note_on_c, 0, 46, 0
2, 3062, Note_on_c, 0, 75, 0
2, 3065, Note_on_c, 0, 74, 88
2, 3088, Note_on_c, 0, 73, 82
2, 3091, Note_on_c, 0, 74, 0
2, 3100, Note_on_c, 0, 53, 82
2, 3117, Note_on_c, 0, 73, 0
2, 3119, Note_on_c, 0, 72, 80
2, 3142, Note_on_c, 0, 73, 65
2, 3148, Note_on_c, 0, 72, 0
2, 3156, Note_on_c, 0, 53, 0
2, 3170, Note_on_c, 0, 63, 57
2, 3172, Note_on_c, 0, 73, 0
2, 3175, Note_on_c, 0, 72, 68
2, 3200, Note_on_c, 0, 63, 0
2, 3205, Note_on_c, 0, 72, 0
2, 3206, Note_on_c, 0, 71, 70
2, 3231, Note_on_c, 0, 57, 53
2, 3250, Note_on_c, 0, 71, 0
2, 3253, Note_on_c, 0, 72, 70
2, 3296, Note_on_c, 0, 72, 0
2, 3301, Note_on_c, 0, 65, 52
2, 3306, Note_on_c, 0, 77, 76
2, 3322, Note_on_c, 0, 57, 0
2, 3331, Note_on_c, 0, 65, 0
2, 3359, Note_on_c, 0, 76, 70
2, 3374, Note_on_c, 0, 77, 0
2, 3394, Note_on_c, 0, 53, 61
2, 3415, Note_on_c, 0, 53, 0
2, 3415, Note_on_c, 0, 75, 80
2, 3417, Note_on_c, 0, 76, 0
2, 3470, Note_on_c, 0, 75, 0
2, 3470, Control_c, 0, 64, 123
2, 3476, Note_on_c, 0, 73, 75
2, 3478, Note_on_c, 0, 46, 53
2, 3493, Control_c, 0, 64, 0
2, 3518, Control_c, 0, 64, 48
2, 3532, Control_c, 0, 64, 127
2, 3563, Note_on_c, 0, 46, 0
2, 3582, Note_on_c, 0, 73, 0
2, 3586, Note_on_c, 0, 53, 52
2, 3633, Note_on_c, 0, 53, 0
2, 3659, Note_on_c, 0, 61, 48
2, 3684, Note_on_c, 0, 61, 0
2, 3721, Note_on_c, 0, 58, 49
2, 3788, Note_on_c, 0, 65, 45
2, 3788, Note_on_c, 0, 70, 88
2, 3803, Note_on_c, 0, 70, 0
2, 3805, Note_on_c, 0, 65, 0
2, 3816, Note_on_c, 0, 58, 0
2, 3861, Note_on_c, 0, 53, 50
2, 3873, Note_on_c, 0, 53, 0
2, 3938, Control_c, 0, 64, 65
2, 3939, Note_on_c, 0, 46, 59
2, 3943, Note_on_c, 0, 82, 80
2, 3962, Control_c, 0, 64, 0
2, 3974, Control_c, 0, 64, 16
2, 3987, Control_c, 0, 64, 126
2, 3999, Control_c, 0, 64, 127
2, 4020, Note_on_c, 0, 46, 0
2, 4031, Note_on_c, 0, 53, 56
2, 4039, Note_on_c, 0, 82, 0
2, 4082, Note_on_c, 0, 53, 0
2, 4104, Note_on_c, 0, 82, 88
2, 4104, Note_on_c, 0, 61, 51
2, 4137, Note_on_c, 0, 61, 0
2, 4154, Note_on_c, 0, 82, 0
2, 4168, Note_on_c, 0, 58, 57
2, 4228, Note_on_c, 0, 82, 94
2, 4230, Note_on_c, 0, 65, 57
2, 4246, Note_on_c, 0, 65, 0
2, 4258, Note_on_c, 0, 58, 0
2, 4296, Note_on_c, 0, 53, 68
2, 4307, Note_on_c, 0, 53, 0
2, 4326, Note_on_c, 0, 82, 0
2, 4398, Control_c, 0, 64, 63
2, 4400, Note_on_c, 0, 37, 63
2, 4402, Note_on_c, 0, 80, 91
2, 4410, Control_c, 0, 64, 0
2, 4422, Control_c, 0, 64, 35
2, 4430, Note_on_c, 0, 37, 0
2, 4435, Control_c, 0, 64, 127
2, 4499, Note_on_c, 0, 53, 49
2, 4553, Note_on_c, 0, 53, 0
2, 4571, Note_on_c, 0, 61, 62
2, 4599, Note_on_c, 0, 61, 0
2, 4628, Note_on_c, 0, 56, 60
2, 4632, Note_on_c, 0, 80, 0
2, 4691, Note_on_c, 0, 65, 60
2, 4714, Note_on_c, 0, 65, 0
2, 4719, Note_on_c, 0, 56, 0
2, 4748, Note_on_c, 0, 53, 68
2, 4761, Note_on_c, 0, 53, 0
2, 4820, Note_on_c, 0, 42, 62
2, 4820, Control_c, 0, 64, 101
2, 4824, Note_on_c, 0, 73, 91
2, 4833, Control_c, 0, 64, 5
2, 4846, Control_c, 0, 64, 0
2, 4858, Control_c, 0, 64, 67
2, 4871, Control_c, 0, 64, 127
2, 4879, Note_on_c, 0, 42, 0
2, 4896, Note_on_c, 0, 49, 48
2, 4950, Note_on_c, 0, 73, 0
2, 4962, Note_on_c, 0, 49, 0
2, 4971, Note_on_c, 0, 58, 50
2, 4971, Note_on_c, 0, 70, 78
2, 5006, Note_on_c, 0, 58, 0
2, 5020, Note_on_c, 0, 70, 0
2, 5027, Note_on_c, 0, 54, 65
2, 5029, Note_on_c, 0, 72, 78
2, 5078, Note_on_c, 0, 73, 107
2, 5081, Note_on_c, 0, 72, 0
2, 5081, Note_on_c, 0, 61, 67
2, 5098, Note_on_c, 0, 61, 0
2, 5099, Note_on_c, 0, 54, 0
2, 5100, Note_on_c, 0, 73, 0
2, 5131, Note_on_c, 0, 49, 73
2, 5138, Note_on_c, 0, 78, 97
2, 5145, Note_on_c, 0, 49, 0
2, 5197, Note_on_c, 0, 78, 0
2, 5200, Note_on_c, 0, 37, 70
2, 5201, Note_on_c, 0, 77, 88
2, 5206, Control_c, 0, 64, 66
2, 5217, Control_c, 0, 64, 0
2, 5230, Control_c, 0, 64, 3
2, 5235, Note_on_c, 0, 37, 0
2, 5242, Control_c, 0, 64, 109
2, 5255, Control_c, 0, 64, 127
2, 5275, Note_on_c, 0, 49, 59
2, 5332, Note_on_c, 0, 49, 0
2, 5345, Note_on_c, 0, 56, 51
2, 5352, Note_on_c, 0, 77, 0
2, 5376, Note_on_c, 0, 56, 0
2, 5408, Note_on_c, 0, 53, 57
2, 5469, Note_on_c, 0, 61, 62
2, 5483, Note_on_c, 0, 53, 0
2, 5496, Note_on_c, 0, 61, 0
2, 5531, Note_on_c, 0, 49, 67
2, 5546, Note_on_c, 0, 49, 0
2, 5601, Note_on_c, 0, 42, 70
2, 5610, Note_on_c, 0, 75, 91
2, 5615, Control_c, 0, 64, 92
2, 5628, Control_c, 0, 64, 2
2, 5640, Control_c, 0, 64, 0
2, 5652, Control_c, 0, 64, 4
2, 5664, Control_c, 0, 64, 111
2, 5678, Control_c, 0, 64, 127
2, 5681, Note_on_c, 0, 42, 0
2, 5690, Note_on_c, 0, 49, 54
2, 5742, Note_on_c, 0, 49, 0
2, 5758, Note_on_c, 0, 57, 48
2, 5762, Note_on_c, 0, 77, 83
2, 5769, Note_on_c, 0, 75, 0
2, 5792, Note_on_c, 0, 57, 0
2, 5816, Note_on_c, 0, 54, 59
2, 5819, Note_on_c, 0, 75, 91
2, 5832, Note_on_c, 0, 77, 0
2, 5874, Note_on_c, 0, 63, 68
2, 5874, Note_on_c, 0, 73, 100
2, 5884, Note_on_c, 0, 54, 0
2, 5888, Note_on_c, 0, 63, 0
2, 5890, Note_on_c, 0, 75, 0
2, 5923, Note_on_c, 0, 73, 0
2, 5936, Note_on_c, 0, 49, 73
2, 5939, Note_on_c, 0, 69, 80
2, 5956, Note_on_c, 0, 49, 0
2, 6011, Note_on_c, 0, 69, 0
2, 6020, Note_on_c, 0, 37, 80
2, 6023, Note_on_c, 0, 68, 78
2, 6026, Control_c, 0, 64, 65
2, 6037, Control_c, 0, 64, 0
2, 6050, Control_c, 0, 64, 8
2, 6054, Note_on_c, 0, 37, 0
2, 6062, Control_c, 0, 64, 114
2, 6075, Control_c, 0, 64, 127
2, 6108, Note_on_c, 0, 49, 62
2, 6141, Note_on_c, 0, 68, 0
2, 6146, Note_on_c, 0, 49, 0
2, 6178, Note_on_c, 0, 56, 46
2, 6211, Note_on_c, 0, 56, 0
2, 6243, Note_on_c, 0, 53, 52
2, 6312, Note_on_c, 0, 61, 62
2, 6315, Note_on_c, 0, 73, 83
2, 6317, Note_on_c, 0, 53, 0
2, 6337, Note_on_c, 0, 61, 0
2, 6386, Note_on_c, 0, 49, 61
2, 6397, Note_on_c, 0, 49, 0
2, 6422, Note_on_c, 0, 73, 0
2, 6471, Note_on_c, 0, 42, 58
2, 6474, Note_on_c, 0, 75, 78
2, 6478, Control_c, 0, 64, 67
2, 6487, Control_c, 0, 64, 0
2, 6513, Control_c, 0, 64, 35
2, 6525, Control_c, 0, 64, 127
2, 6537, Note_on_c, 0, 42, 0
2, 6553, Note_on_c, 0, 49, 47
2, 6602, Note_on_c, 0, 49, 0
2, 6626, Note_on_c, 0, 77, 78
2, 6626, Note_on_c, 0, 57, 39
2, 6630, Note_on_c, 0, 75, 0
2, 6660, Note_on_c, 0, 57, 0
2, 6698, Note_on_c, 0, 75, 86
2, 6701, Note_on_c, 0, 54, 47
2, 6710, Note_on_c, 0, 77, 0
2, 6768, Note_on_c, 0, 54, 0
2, 6768, Note_on_c, 0, 63, 60
2, 6775, Note_on_c, 0, 73, 86
2, 6782, Note_on_c, 0, 75, 0
2, 6784, Note_on_c, 0, 63, 0
2, 6854, Note_on_c, 0, 48, 58
2, 6856, Note_on_c, 0, 75, 80
2, 6858, Note_on_c, 0, 73, 0
2, 6873, Note_on_c, 0, 48, 0
2, 6950, Note_on_c, 0, 41, 58
2, 6952, Note_on_c, 0, 77, 83
2, 6955, Note_on_c, 0, 75, 0
2, 6956, Control_c, 0, 64, 51
2, 6968, Control_c, 0, 64, 0
2, 6981, Control_c, 0, 64, 22
2, 6994, Control_c, 0, 64, 127
2, 7047, Note_on_c, 0, 41, 0
2, 7047, Note_on_c, 0, 48, 55
2, 7107, Note_on_c, 0, 48, 0
2, 7125, Note_on_c, 0, 57, 52
2, 7166, Note_on_c, 0, 57, 0
2, 7188, Note_on_c, 0, 53, 49
2, 7205, Note_on_c, 0, 53, 0
2, 7272, Note_on_c, 0, 63, 55
2, 7296, Note_on_c, 0, 77, 0
2, 7302, Note_on_c, 0, 63, 0
2, 7372, Note_on_c, 0, 57, 50
2, 7384, Note_on_c, 0, 57, 0
2, 7480, Control_c, 0, 64, 126
2, 7485, Note_on_c, 0, 46, 47
2, 7488, Note_on_c, 0, 82, 73
2, 7493, Control_c, 0, 64, 29
2, 7506, Control_c, 0, 64, 0
2, 7519, Control_c, 0, 64, 25
2, 7531, Control_c, 0, 64, 127
2, 7574, Note_on_c, 0, 46, 0
2, 7608, Note_on_c, 0, 84, 80
2, 7611, Note_on_c, 0, 53, 54
2, 7675, Note_on_c, 0, 53, 0
2, 7688, Note_on_c, 0, 85, 88
2, 7690, Note_on_c, 0, 84, 0
2, 7695, Note_on_c, 0, 61, 56
2, 7721, Note_on_c, 0, 82, 0
2, 7729, Note_on_c, 0, 61, 0
2, 7754, Note_on_c, 0, 85, 0
2, 7759, Note_on_c, 0, 81, 85
2, 7761, Note_on_c, 0, 58, 57
2, 7809, Note_on_c, 0, 81, 0
2, 7825, Note_on_c, 0, 84, 74
2, 7831, Note_on_c, 0, 65, 54
2, 7844, Note_on_c, 0, 82, 94
2, 7850, Note_on_c, 0, 65, 0
2, 7858, Note_on_c, 0, 58, 0
2, 7858, Note_on_c, 0, 84, 0
2, 7938, Note_on_c, 0, 53, 42
2, 7940, Note_on_c, 0, 78, 86
2, 7945, Note_on_c, 0, 82, 0
2, 7956, Note_on_c, 0, 53, 0
2, 8043, Note_on_c, 0, 46, 47
2, 8046, Control_c, 0, 64, 79
2, 8048, Note_on_c, 0, 77, 64
2, 8049, Note_on_c, 0, 78, 0
2, 8057, Control_c, 0, 64, 0
2, 8083, Control_c, 0, 64, 89
2, 8096, Control_c, 0, 64, 127
2, 8119, Note_on_c, 0, 46, 0
2, 8136, Note_on_c, 0, 53, 48
2, 8156, Note_on_c, 0, 77, 0
2, 8184, Note_on_c, 0, 53, 0
2, 8210, Note_on_c, 0, 77, 88
2, 8214, Note_on_c, 0, 61, 50
2, 8247, Note_on_c, 0, 61, 0
2, 8280, Note_on_c, 0, 58, 54
2, 8282, Note_on_c, 0, 77, 0
2, 8344, Note_on_c, 0, 77, 93
2, 8347, Note_on_c, 0, 65, 54
2, 8361, Note_on_c, 0, 65, 0
2, 8376, Note_on_c, 0, 58, 0
2, 8410, Note_on_c, 0, 53, 54
2, 8422, Note_on_c, 0, 53, 0
2, 8425, Note_on_c, 0, 77, 0
2, 8479, Control_c, 0, 64, 110
2, 8483, Note_on_c, 0, 46, 52
2, 8486, Note_on_c, 0, 77, 83
2, 8492, Control_c, 0, 64, 7
2, 8506, Control_c, 0, 64, 0
2, 8517, Control_c, 0, 64, 79
2, 8530, Control_c, 0, 64, 127
2, 8542, Note_on_c, 0, 46, 0
2, 8570, Note_on_c, 0, 53, 43
2, 8601, Note_on_c, 0, 53, 0
2, 8653, Note_on_c, 0, 78, 78
2, 8654, Note_on_c, 0, 63, 46
2, 8661, Note_on_c, 0, 77, 0
2, 8688, Note_on_c, 0, 63, 0
2, 8727, Note_on_c, 0, 77, 88
2, 8733, Note_on_c, 0, 57, 46
2, 8738, Note_on_c, 0, 78, 0
2, 8777, Note_on_c, 0, 77, 0
2, 8788, Note_on_c, 0, 75, 78
2, 8789, Note_on_c, 0, 65, 59
2, 8806, Note_on_c, 0, 57, 0
2, 8808, Note_on_c, 0, 65, 0
2, 8843, Note_on_c, 0, 53, 59
2, 8845, Note_on_c, 0, 75, 0
2, 8845, Note_on_c, 0, 72, 74
2, 8855, Note_on_c, 0, 53, 0
2, 8902, Control_c, 0, 64, 97
2, 8907, Note_on_c, 0, 46, 65
2, 8913, Note_on_c, 0, 72, 0
2, 8913, Note_on_c, 0, 73, 83
2, 8917, Control_c, 0, 64, 2
2, 8927, Control_c, 0, 64, 0
2, 8941, Control_c, 0, 64, 58
2, 8954, Control_c, 0, 64, 127
2, 8956, Note_on_c, 0, 46, 0
2, 8989, Note_on_c, 0, 53, 57
2, 8996, Note_on_c, 0, 73, 0
2, 9041, Note_on_c, 0, 53, 0
2, 9060, Note_on_c, 0, 61, 50
2, 9090, Note_on_c, 0, 61, 0
2, 9122, Note_on_c, 0, 58, 52
2, 9210, Note_on_c, 0, 65, 52
2, 9211, Note_on_c, 0, 70, 80
2, 9229, Note_on_c, 0, 70, 0
2, 9229, Note_on_c, 0, 65, 0
2, 9233, Note_on_c, 0, 58, 0
2, 9295, Note_on_c, 0, 53, 58
2, 9307, Note_on_c, 0, 53, 0
2, 9370, Control_c, 0, 64, 117
2, 9376, Note_on_c, 0, 46, 63
2, 9379, Note_on_c, 0, 82, 86
2, 9386, Control_c, 0, 64, 11
2, 9396, Control_c, 0, 64, 0
2, 9408, Control_c, 0, 64, 4
2, 9421, Control_c, 0, 64, 117
2, 9434, Control_c, 0, 64, 127
2, 9443, Note_on_c, 0, 84, 80
2, 9447, Note_on_c, 0, 46, 0
2, 9482, Note_on_c, 0, 53, 56
2, 9506, Note_on_c, 0, 85, 86
2, 9512, Note_on_c, 0, 84, 0
2, 9530, Note_on_c, 0, 82, 0
2, 9536, Note_on_c, 0, 53, 0
2, 9543, Note_on_c, 0, 81, 88
2, 9549, Note_on_c, 0, 61, 55
2, 9550, Note_on_c, 0, 85, 0
2, 9578, Note_on_c, 0, 82, 78
2, 9580, Note_on_c, 0, 81, 0
2, 9582, Note_on_c, 0, 61, 0
2, 9602, Note_on_c, 0, 58, 56
2, 9611, Note_on_c, 0, 81, 72
2, 9612, Note_on_c, 0, 82, 0
2, 9645, Note_on_c, 0, 81, 0
2, 9645, Note_on_c, 0, 80, 83
2, 9665, Note_on_c, 0, 65, 50
2, 9682, Note_on_c, 0, 80, 0
2, 9683, Note_on_c, 0, 81, 76
2, 9690, Note_on_c, 0, 65, 0
2, 9697, Note_on_c, 0, 58, 0
2, 9724, Note_on_c, 0, 81, 0
2, 9726, Note_on_c, 0, 84, 74
2, 9755, Note_on_c, 0, 53, 53
2, 9776, Note_on_c, 0, 82, 75
2, 9790, Note_on_c, 0, 53, 0
2, 9790, Note_on_c, 0, 84, 0
2, 9827, Note_on_c, 0, 78, 68
2, 9836, Note_on_c, 0, 82, 0
2, 9863, Control_c, 0, 64, 119
2, 9875, Control_c, 0, 64, 19
2, 9889, Control_c, 0, 64, 0
2, 9893, Note_on_c, 0, 46, 57
2, 9898, Note_on_c, 0, 77, 85
2, 9901, Control_c, 0, 64, 91
2, 9904, Note_on_c, 0, 78, 0
2, 9914, Control_c, 0, 64, 127
2, 9918, Note_on_c, 0, 77, 0
2, 9973, Note_on_c, 0, 101, 66
2, 9977, Note_on_c, 0, 46, 0
2, 10011, Note_on_c, 0, 53, 61
2, 10041, Note_on_c, 0, 100, 98
2, 10048, Note_on_c, 0, 101, 0
2, 10078, Note_on_c, 0, 53, 0
2, 10090, Note_on_c, 0, 99, 94
2, 10092, Note_on_c, 0, 61, 58
2, 10096, Note_on_c, 0, 100, 0
2, 10126, Note_on_c, 0, 61, 0
2, 10132, Note_on_c, 0, 97, 86
2, 10142, Note_on_c, 0, 99, 0
2, 10151, Note_on_c, 0, 58, 61
2, 10169, Note_on_c, 0, 96, 83
2, 10173, Note_on_c, 0, 97, 0
2, 10207, Note_on_c, 0, 96, 0
2, 10207, Note_on_c, 0, 65, 61
2, 10208, Note_on_c, 0, 94, 94
2, 10230, Note_on_c, 0, 65, 0
2, 10237, Note_on_c, 0, 58, 0
2, 10246, Note_on_c, 0, 90, 83
2, 10260, Note_on_c, 0, 94, 0
2, 10261, Note_on_c, 0, 53, 70
2, 10284, Note_on_c, 0, 53, 0
2, 10287, Note_on_c, 0, 90, 0
2, 10287, Note_on_c, 0, 89, 98
2, 10322, Note_on_c, 0, 46, 75
2, 10329, Note_on_c, 0, 89, 0
2, 10329, Note_on_c, 0, 88, 72
2, 10359, Note_on_c, 0, 46, 0
2, 10366, Note_on_c, 0, 88, 0
2, 10369, Note_on_c, 0, 87, 86
2, 10394, Note_on_c, 0, 53, 54
2, 10410, Note_on_c, 0, 85, 88
2, 10418, Note_on_c, 0, 87, 0
2, 10451, Note_on_c, 0, 53, 0
2, 10452, Note_on_c, 0, 84, 90
2, 10454, Note_on_c, 0, 85, 0
2, 10462, Note_on_c, 0, 63, 62
2, 10482, Note_on_c, 0, 84, 0
2, 10492, Note_on_c, 0, 63, 0
2, 10499, Note_on_c, 0, 82, 86
2, 10524, Note_on_c, 0, 57, 58
2, 10546, Note_on_c, 0, 81, 90
2, 10548, Note_on_c, 0, 82, 0
2, 10581, Note_on_c, 0, 81, 0
2, 10591, Note_on_c, 0, 65, 60
2, 10596, Note_on_c, 0, 78, 83
2, 10616, Note_on_c, 0, 57, 0
2, 10618, Note_on_c, 0, 65, 0
2, 10643, Note_on_c, 0, 78, 0
2, 10644, Note_on_c, 0, 77, 83
2, 10666, Note_on_c, 0, 77, 0
2, 10675, Note_on_c, 0, 53, 72
2, 10697, Note_on_c, 0, 53, 0
2, 10697, Note_on_c, 0, 72, 78
2, 10739, Note_on_c, 0, 72, 0
2, 10761, Note_on_c, 0, 46, 62
2, 10764, Note_on_c, 0, 73, 67
2, 10769, Control_c, 0, 64, 98
2, 10780, Control_c, 0, 64, 3
2, 10793, Control_c, 0, 64, 0
2, 10806, Control_c, 0, 64, 12
2, 10817, Control_c, 0, 64, 120
2, 10830, Control_c, 0, 64, 127
2, 10843, Note_on_c, 0, 46, 0
2, 10851, Note_on_c, 0, 53, 52
2, 10862, Note_on_c, 0, 73, 0
2, 10904, Note_on_c, 0, 53, 0
2, 10928, Note_on_c, 0, 61, 49
2, 10956, Note_on_c, 0, 61, 0
2, 10991, Note_on_c, 0, 58, 53
2, 11078, Note_on_c, 0, 70, 86
2, 11079, Note_on_c, 0, 65, 48
2, 11094, Note_on_c, 0, 70, 0
2, 11096, Note_on_c, 0, 65, 0
2, 11100, Note_on_c, 0, 58, 0
2, 11158, Note_on_c, 0, 53, 53
2, 11169, Note_on_c, 0, 53, 0
2, 11239, Note_on_c, 0, 46, 46
2, 11240, Control_c, 0, 64, 108
2, 11242, Note_on_c, 0, 82, 86
2, 11253, Control_c, 0, 64, 1
2, 11265, Control_c, 0, 64, 0
2, 11291, Control_c, 0, 64, 91
2, 11304, Control_c, 0, 64, 127
2, 11322, Note_on_c, 0, 46, 0
2, 11336, Note_on_c, 0, 53, 55
2, 11357, Note_on_c, 0, 82, 0
2, 11395, Note_on_c, 0, 53, 0
2, 11415, Note_on_c, 0, 82, 88
2, 11417, Note_on_c, 0, 61, 56
2, 11448, Note_on_c, 0, 61, 0
2, 11475, Note_on_c, 0, 82, 0
2, 11482, Note_on_c, 0, 58, 58
2, 11544, Note_on_c, 0, 82, 91
2, 11544, Note_on_c, 0, 65, 52
2, 11559, Note_on_c, 0, 65, 0
2, 11568, Note_on_c, 0, 58, 0
2, 11606, Note_on_c, 0, 53, 58
2, 11617, Note_on_c, 0, 53, 0
2, 11623, Note_on_c, 0, 82, 0
2, 11675, Note_on_c, 0, 46, 73
2, 11677, Control_c, 0, 64, 96
2, 11677, Note_on_c, 0, 82, 86
2, 11689, Control_c, 0, 64, 2
2, 11702, Control_c, 0, 64, 14
2, 11714, Control_c, 0, 64, 120
2, 11717, Note_on_c, 0, 46, 0
2, 11727, Control_c, 0, 64, 127
2, 11746, Note_on_c, 0, 53, 70
2, 11773, Note_on_c, 0, 53, 0
2, 11818, Note_on_c, 0, 62, 64
2, 11851, Note_on_c, 0, 62, 0
2, 11883, Note_on_c, 0, 58, 67
2, 11912, Note_on_c, 0, 58, 0
2, 11959, Note_on_c, 0, 82, 0
2, 11959, Note_on_c, 0, 68, 68
2, 11959, Note_on_c, 0, 74, 98
2, 11982, Note_on_c, 0, 74, 0
2, 11986, Note_on_c, 0, 68, 0
2, 12034, Note_on_c, 0, 58, 63
2, 12045, Note_on_c, 0, 58, 0
2, 12107, Note_on_c, 0, 77, 86
2, 12112, Control_c, 0, 64, 73
2, 12112, Note_on_c, 0, 51, 65
2, 12123, Note_on_c, 0, 75, 82
2, 12128, Control_c, 0, 64, 18
2, 12130, Note_on_c, 0, 77, 0
2, 12140, Control_c, 0, 64, 118
2, 12145, Note_on_c, 0, 75, 0
2, 12146, Note_on_c, 0, 77, 88
2, 12153, Control_c, 0, 64, 127
2, 12163, Note_on_c, 0, 75, 85
2, 12166, Note_on_c, 0, 77, 0
2, 12181, Note_on_c, 0, 54, 56
2, 12184, Note_on_c, 0, 75, 0
2, 12185, Note_on_c, 0, 77, 78
2, 12197, Note_on_c, 0, 75, 88
2, 12198, Note_on_c, 0, 77, 0
2, 12206, Note_on_c, 0, 51, 0
2, 12216, Note_on_c, 0, 77, 107
2, 12224, Note_on_c, 0, 75, 0
2, 12232, Note_on_c, 0, 75, 65
2, 12239, Note_on_c, 0, 77, 0
2, 12243, Note_on_c, 0, 75, 0
2, 12250, Note_on_c, 0, 63, 86
2, 12251, Note_on_c, 0, 74, 94
2, 12253, Note_on_c, 0, 54, 0
2, 12297, Note_on_c, 0, 63, 0
2, 12301, Note_on_c, 0, 74, 0
2, 12321, Note_on_c, 0, 58, 80
2, 12321, Note_on_c, 0, 75, 97
2, 12376, Note_on_c, 0, 58, 0
2, 12396, Note_on_c, 0, 75, 0
2, 12398, Note_on_c, 0, 78, 107
2, 12400, Note_on_c, 0, 66, 75
2, 12436, Note_on_c, 0, 66, 0
2, 12460, Note_on_c, 0, 78, 0
2, 12487, Note_on_c, 0, 63, 83
2, 12496, Note_on_c, 0, 63, 0
2, 12539, Note_on_c, 0, 77, 95
2, 12569, Note_on_c, 0, 77, 0
2, 12582, Control_c, 0, 64, 126
2, 12589, Note_on_c, 0, 48, 56
2, 12592, Note_on_c, 0, 77, 74
2, 12602, Control_c, 0, 64, 23
2, 12614, Control_c, 0, 64, 0
2, 12627, Control_c, 0, 64, 52
2, 12640, Control_c, 0, 64, 127
2, 12669, Note_on_c, 0, 48, 0
2, 12670, Note_on_c, 0, 55, 58
2, 12718, Note_on_c, 0, 55, 0
2, 12732, Note_on_c, 0, 64, 70
2, 12766, Note_on_c, 0, 64, 0
2, 12796, Note_on_c, 0, 60, 56
2, 12819, Note_on_c, 0, 60, 0
2, 12862, Note_on_c, 0, 76, 93
2, 12868, Note_on_c, 0, 70, 63
2, 12870, Note_on_c, 0, 77, 0
2, 12874, Note_on_c, 0, 76, 0
2, 12896, Note_on_c, 0, 70, 0
2, 12940, Note_on_c, 0, 64, 74
2, 12953, Note_on_c, 0, 64, 0
2, 13002, Control_c, 0, 64, 121
2, 13009, Note_on_c, 0, 53, 61
2, 13015, Control_c, 0, 64, 21
2, 13022, Note_on_c, 0, 77, 74
2, 13028, Control_c, 0, 64, 2
2, 13040, Control_c, 0, 64, 101
2, 13047, Note_on_c, 0, 77, 0
2, 13049, Note_on_c, 0, 78, 86
2, 13053, Control_c, 0, 64, 127
2, 13067, Note_on_c, 0, 77, 88
2, 13077, Note_on_c, 0, 78, 0
2, 13088, Note_on_c, 0, 60, 61
2, 13095, Note_on_c, 0, 76, 90
2, 13101, Note_on_c, 0, 53, 0
2, 13104, Note_on_c, 0, 77, 0
2, 13111, Note_on_c, 0, 60, 0
2, 13172, Note_on_c, 0, 69, 78
2, 13208, Note_on_c, 0, 69, 0
2, 13216, Note_on_c, 0, 77, 93
2, 13226, Note_on_c, 0, 76, 0
2, 13244, Note_on_c, 0, 63, 78
2, 13260, Note_on_c, 0, 77, 0
2, 13270, Note_on_c, 0, 79, 85
2, 13315, Note_on_c, 0, 79, 0
2, 13315, Note_on_c, 0, 81, 98
2, 13317, Note_on_c, 0, 72, 60
2, 13347, Note_on_c, 0, 72, 0
2, 13347, Note_on_c, 0, 63, 0
2, 13362, Note_on_c, 0, 82, 100
2, 13384, Note_on_c, 0, 81, 0
2, 13392, Note_on_c, 0, 65, 85
2, 13413, Note_on_c, 0, 84, 101
2, 13414, Note_on_c, 0, 65, 0
2, 13468, Note_on_c, 0, 84, 0
2, 13476, Control_c, 0, 64, 102
2, 13477, Note_on_c, 0, 82, 0
2, 13477, Note_on_c, 0, 46, 83
2, 13478, Note_on_c, 0, 85, 111
2, 13492, Control_c, 0, 64, 0
2, 13518, Control_c, 0, 64, 103
2, 13530, Control_c, 0, 64, 127
2, 13550, Note_on_c, 0, 46, 0
2, 13566, Note_on_c, 0, 53, 48
2, 13583, Note_on_c, 0, 85, 0
2, 13617, Note_on_c, 0, 53, 0
2, 13634, Note_on_c, 0, 61, 65
2, 13664, Note_on_c, 0, 61, 0
2, 13692, Note_on_c, 0, 58, 63
2, 13753, Note_on_c, 0, 58, 0
2, 13754, Note_on_c, 0, 51, 73
2, 13758, Note_on_c, 0, 82, 94
2, 13762, Control_c, 0, 64, 85
2, 13774, Control_c, 0, 64, 1
2, 13786, Control_c, 0, 64, 27
2, 13794, Note_on_c, 0, 51, 0
2, 13799, Control_c, 0, 64, 127
2, 13807, Note_on_c, 0, 78, 83
2, 13822, Note_on_c, 0, 82, 0
2, 13830, Note_on_c, 0, 66, 80
2, 13836, Note_on_c, 0, 78, 0
2, 13848, Note_on_c, 0, 66, 0
2, 13854, Note_on_c, 0, 70, 86
2, 13896, Note_on_c, 0, 70, 0
2, 13914, Control_c, 0, 64, 107
2, 13914, Note_on_c, 0, 41, 83
2, 13918, Note_on_c, 0, 73, 91
2, 13927, Control_c, 0, 64, 4
2, 13940, Control_c, 0, 64, 0
2, 13952, Control_c, 0, 64, 5
2, 13965, Control_c, 0, 64, 117
2, 13979, Control_c, 0, 64, 127
2, 14006, Note_on_c, 0, 41, 0
2, 14009, Note_on_c, 0, 53, 54
2, 14046, Note_on_c, 0, 53, 0
2, 14076, Note_on_c, 0, 58, 50
2, 14148, Note_on_c, 0, 58, 0
2, 14148, Note_on_c, 0, 65, 57
2, 14174, Note_on_c, 0, 65, 0
2, 14224, Note_on_c, 0, 63, 67
2, 14234, Note_on_c, 0, 73, 0
2, 14235, Control_c, 0, 64, 101
2, 14235, Note_on_c, 0, 72, 72
2, 14248, Control_c, 0, 64, 3
2, 14260, Control_c, 0, 64, 0
2, 14273, Control_c, 0, 64, 8
2, 14286, Control_c, 0, 64, 122
2, 14299, Control_c, 0, 64, 127
2, 14322, Note_on_c, 0, 63, 0
2, 14334, Note_on_c, 0, 57, 45
2, 14354, Note_on_c, 0, 57, 0
2, 14370, Note_on_c, 0, 72, 0
2, 14380, Note_on_c, 0, 70, 88
2, 14403, Note_on_c, 0, 70, 0
2, 14446, Note_on_c, 0, 46, 61
2, 14478, Control_c, 0, 64, 54
2, 14490, Control_c, 0, 64, 0
2, 14503, Note_on_c, 0, 89, 76
2, 14504, Control_c, 0, 64, 45
2, 14517, Control_c, 0, 64, 127
2, 14533, Note_on_c, 0, 89, 0
2, 14539, Note_on_c, 0, 46, 0
2, 14543, Note_on_c, 0, 53, 63
2, 14603, Note_on_c, 0, 53, 0
2, 14614, Note_on_c, 0, 61, 67
2, 14642, Note_on_c, 0, 61, 0
2, 14673, Note_on_c, 0, 58, 70
2, 14675, Note_on_c, 0, 85, 94
2, 14731, Note_on_c, 0, 58, 0
2, 14742, Note_on_c, 0, 51, 75
2, 14743, Note_on_c, 0, 82, 80
2, 14747, Control_c, 0, 64, 78
2, 14760, Control_c, 0, 64, 0
2, 14773, Control_c, 0, 64, 24
2, 14778, Note_on_c, 0, 51, 0
2, 14786, Control_c, 0, 64, 127
2, 14789, Note_on_c, 0, 78, 91
2, 14796, Note_on_c, 0, 85, 0
2, 14802, Note_on_c, 0, 82, 0
2, 14816, Note_on_c, 0, 78, 0
2, 14819, Note_on_c, 0, 66, 75
2, 14832, Note_on_c, 0, 66, 0
2, 14843, Note_on_c, 0, 70, 80
2, 14883, Note_on_c, 0, 70, 0
2, 14902, Note_on_c, 0, 73, 88
2, 14903, Note_on_c, 0, 41, 61
2, 14913, Control_c, 0, 64, 33
2, 14926, Control_c, 0, 64, 0
2, 14940, Control_c, 0, 64, 5
2, 14951, Control_c, 0, 64, 120
2, 14964, Control_c, 0, 64, 127
2, 14988, Note_on_c, 0, 41, 0
2, 14989, Note_on_c, 0, 53, 53
2, 15032, Note_on_c, 0, 53, 0
2, 15061, Note_on_c, 0, 58, 39
2, 15136, Note_on_c, 0, 65, 52
2, 15138, Note_on_c, 0, 58, 0
2, 15167, Note_on_c, 0, 65, 0
2, 15221, Note_on_c, 0, 63, 58
2, 15232, Note_on_c, 0, 73, 0
2, 15233, Note_on_c, 0, 72, 68
2, 15260, Control_c, 0, 64, 53
2, 15272, Control_c, 0, 64, 0
2, 15285, Control_c, 0, 64, 42
2, 15298, Control_c, 0, 64, 127
2, 15311, Note_on_c, 0, 63, 0
2, 15331, Note_on_c, 0, 57, 64
2, 15357, Note_on_c, 0, 57, 0
2, 15370, Note_on_c, 0, 72, 0
2, 15380, Note_on_c, 0, 70, 91
2, 15406, Note_on_c, 0, 70, 0
2, 15454, Note_on_c, 0, 42, 63
2, 15478, Control_c, 0, 64, 96
2, 15490, Control_c, 0, 64, 5
2, 15503, Control_c, 0, 64, 63
2, 15516, Control_c, 0, 64, 127
2, 15516, Note_on_c, 0, 97, 107
2, 15553, Note_on_c, 0, 97, 0
2, 15554, Note_on_c, 0, 42, 0
2, 15558, Note_on_c, 0, 49, 58
2, 15631, Note_on_c, 0, 49, 0
2, 15654, Note_on_c, 0, 94, 104
2, 15656, Note_on_c, 0, 54, 63
2, 15720, Note_on_c, 0, 54, 0
2, 15722, Note_on_c, 0, 90, 91
2, 15738, Note_on_c, 0, 94, 0
2, 15756, Note_on_c, 0, 58, 58
2, 15758, Note_on_c, 0, 90, 0
2, 15782, Note_on_c, 0, 85, 104
2, 15803, Note_on_c, 0, 85, 0
2, 15837, Note_on_c, 0, 58, 0
2, 15843, Note_on_c, 0, 64, 59
2, 15846, Note_on_c, 0, 82, 91
2, 15862, Note_on_c, 0, 64, 0
2, 15892, Note_on_c, 0, 78, 88
2, 15899, Note_on_c, 0, 82, 0
2, 15907, Note_on_c, 0, 54, 59
2, 15912, Note_on_c, 0, 78, 0
2, 15920, Note_on_c, 0, 54, 0
2, 15943, Note_on_c, 0, 70, 78
2, 15969, Note_on_c, 0, 70, 0
2, 16000, Note_on_c, 0, 51, 58
2, 16002, Note_on_c, 0, 71, 80
2, 16020, Control_c, 0, 64, 92
2, 16032, Control_c, 0, 64, 2
2, 16045, Control_c, 0, 64, 4
2, 16057, Control_c, 0, 64, 110
2, 16070, Control_c, 0, 64, 127
2, 16080, Note_on_c, 0, 54, 48
2, 16089, Note_on_c, 0, 71, 0
2, 16123, Note_on_c, 0, 51, 0
2, 16138, Note_on_c, 0, 54, 0
2, 16150, Note_on_c, 0, 59, 54
2, 16181, Note_on_c, 0, 59, 0
2, 16224, Note_on_c, 0, 63, 57
2, 16258, Note_on_c, 0, 63, 0
2, 16304, Note_on_c, 0, 53, 47
2, 16308, Note_on_c, 0, 69, 68
2, 16314, Control_c, 0, 64, 47
2, 16326, Control_c, 0, 64, 0
2, 16339, Control_c, 0, 64, 8
2, 16352, Control_c, 0, 64, 117
2, 16364, Control_c, 0, 64, 127
2, 16390, Note_on_c, 0, 63, 60
2, 16391, Note_on_c, 0, 53, 0
2, 16400, Note_on_c, 0, 63, 0
2, 16424, Note_on_c, 0, 69, 0
2, 16480, Control_c, 0, 64, 115
2, 16489, Note_on_c, 0, 46, 55
2, 16493, Note_on_c, 0, 70, 67
2, 16493, Control_c, 0, 64, 16
2, 16506, Control_c, 0, 64, 0
2, 16518, Control_c, 0, 64, 66
2, 16531, Control_c, 0, 64, 127
2, 16562, Note_on_c, 0, 46, 0
2, 16602, Note_on_c, 0, 53, 44
2, 16653, Note_on_c, 0, 53, 0
2, 16677, Note_on_c, 0, 61, 57
2, 16707, Note_on_c, 0, 61, 0
2, 16743, Note_on_c, 0, 58, 57
2, 16801, Note_on_c, 0, 58, 0
2, 16808, Note_on_c, 0, 65, 60
2, 16840, Note_on_c, 0, 70, 0
2, 16842, Note_on_c, 0, 65, 0
2, 16880, Note_on_c, 0, 61, 60
2, 16910, Note_on_c, 0, 61, 0
2, 16942, Note_on_c, 0, 58, 62
2, 16969, Note_on_c, 0, 58, 0
2, 17002, Note_on_c, 0, 53, 66
2, 17038, Note_on_c, 0, 53, 0
2, 17080, Note_on_c, 0, 49, 61
2, 17108, Control_c, 0, 64, 126
2, 17120, Control_c, 0, 64, 78
2, 17133, Control_c, 0, 64, 103
2, 17135, Note_on_c, 0, 49, 0
2, 17145, Control_c, 0, 64, 127
2, 17146, Note_on_c, 0, 46, 62
2, 17194, Note_on_c, 0, 46, 0
2, 17233, Note_on_c, 0, 41, 56
2, 17261, Note_on_c, 0, 41, 0
2, 17326, Note_on_c, 0, 39, 65
2, 17339, Note_on_c, 0, 39, 0
2, 17453, Note_on_c, 0, 37, 62
2, 17467, Control_c, 0, 64, 41
2, 17467, Note_on_c, 0, 65, 52
2, 17479, Note_on_c, 0, 77, 64
2, 17480, Control_c, 0, 64, 0
2, 17505, Control_c, 0, 64, 89
2, 17518, Control_c, 0, 64, 127
2, 17554, Note_on_c, 0, 37, 0
2, 17567, Note_on_c, 0, 44, 58
2, 17633, Note_on_c, 0, 49, 59
2, 17640, Note_on_c, 0, 44, 0
2, 17660, Note_on_c, 0, 49, 0
2, 17669, Note_on_c, 0, 77, 0
2, 17685, Note_on_c, 0, 65, 0
2, 17685, Note_on_c, 0, 56, 58
2, 17698, Note_on_c, 0, 56, 0
2, 17736, Note_on_c, 0, 49, 63
2, 17768, Note_on_c, 0, 49, 0
2, 17788, Note_on_c, 0, 44, 62
2, 17826, Control_c, 0, 64, 84
2, 17827, Note_on_c, 0, 44, 0
2, 17839, Control_c, 0, 64, 0
2, 17839, Note_on_c, 0, 76, 64
2, 17841, Note_on_c, 0, 64, 68
2, 17841, Note_on_c, 0, 37, 60
2, 17853, Control_c, 0, 64, 2
2, 17866, Control_c, 0, 64, 112
2, 17879, Control_c, 0, 64, 127
2, 17896, Note_on_c, 0, 37, 0
2, 17896, Note_on_c, 0, 44, 62
2, 17928, Note_on_c, 0, 76, 0
2, 17941, Note_on_c, 0, 64, 0
2, 17951, Note_on_c, 0, 44, 0
2, 17951, Note_on_c, 0, 49, 65
2, 17992, Note_on_c, 0, 49, 0
2, 18000, Note_on_c, 0, 55, 55
2, 18017, Note_on_c, 0, 55, 0
2, 18050, Note_on_c, 0, 49, 62
2, 18067, Note_on_c, 0, 49, 0
2, 18099, Note_on_c, 0, 44, 62
2, 18136, Note_on_c, 0, 44, 0
2, 18136, Control_c, 0, 64, 86
2, 18148, Control_c, 0, 64, 1
2, 18152, Note_on_c, 0, 37, 59
2, 18153, Note_on_c, 0, 63, 91
2, 18155, Note_on_c, 0, 75, 86
2, 18164, Control_c, 0, 64, 49
2, 18176, Note_on_c, 0, 75, 0
2, 18177, Control_c, 0, 64, 127
2, 18178, Note_on_c, 0, 63, 0
2, 18204, Note_on_c, 0, 37, 0
2, 18204, Note_on_c, 0, 44, 61
2, 18219, Note_on_c, 0, 77, 83
2, 18221, Note_on_c, 0, 65, 68
2, 18238, Note_on_c, 0, 65, 0
2, 18239, Note_on_c, 0, 77, 0
2, 18250, Note_on_c, 0, 44, 0
2, 18282, Note_on_c, 0, 63, 97
2, 18284, Note_on_c, 0, 75, 88
2, 18285, Note_on_c, 0, 48, 57
2, 18308, Note_on_c, 0, 75, 0
2, 18308, Note_on_c, 0, 63, 0
2, 18336, Note_on_c, 0, 48, 0
2, 18339, Note_on_c, 0, 54, 70
2, 18355, Note_on_c, 0, 54, 0
2, 18384, Note_on_c, 0, 72, 76
2, 18385, Note_on_c, 0, 60, 72
2, 18386, Note_on_c, 0, 48, 70
2, 18407, Note_on_c, 0, 60, 0
2, 18409, Note_on_c, 0, 72, 0
2, 18410, Note_on_c, 0, 48, 0
2, 18433, Note_on_c, 0, 44, 62
2, 18473, Note_on_c, 0, 44, 0
2, 18475, Control_c, 0, 64, 121
2, 18481, Note_on_c, 0, 37, 62
2, 18486, Note_on_c, 0, 70, 91
2, 18486, Note_on_c, 0, 58, 83
2, 18496, Control_c, 0, 64, 12
2, 18507, Control_c, 0, 64, 0
2, 18520, Control_c, 0, 64, 106
2, 18524, Note_on_c, 0, 44, 68
2, 18527, Note_on_c, 0, 70, 0
2, 18527, Note_on_c, 0, 37, 0
2, 18533, Control_c, 0, 64, 127
2, 18534, Note_on_c, 0, 58, 0
2, 18563, Note_on_c, 0, 44, 0
2, 18577, Note_on_c, 0, 56, 97
2, 18577, Note_on_c, 0, 68, 91
2, 18588, Note_on_c, 0, 48, 61
2, 18596, Note_on_c, 0, 56, 0
2, 18599, Note_on_c, 0, 68, 0
2, 18625, Note_on_c, 0, 54, 63
2, 18627, Note_on_c, 0, 48, 0
2, 18637, Note_on_c, 0, 54, 0
2, 18659, Note_on_c, 0, 48, 60
2, 18686, Note_on_c, 0, 48, 0
2, 18700, Note_on_c, 0, 44, 73
2, 18735, Note_on_c, 0, 44, 0
2, 18744, Control_c, 0, 64, 126
2, 18752, Note_on_c, 0, 37, 56
2, 18753, Note_on_c, 0, 58, 78
2, 18755, Note_on_c, 0, 70, 83
2, 18766, Control_c, 0, 64, 16
2, 18779, Control_c, 0, 64, 0
2, 18792, Control_c, 0, 64, 104
2, 18794, Note_on_c, 0, 44, 68
2, 18799, Note_on_c, 0, 37, 0
2, 18804, Note_on_c, 0, 58, 0
2, 18805, Control_c, 0, 64, 127
2, 18810, Note_on_c, 0, 70, 0
2, 18830, Note_on_c, 0, 44, 0
2, 18845, Note_on_c, 0, 72, 88
2, 18846, Note_on_c, 0, 60, 85
2, 18848, Note_on_c, 0, 48, 64
2, 18864, Note_on_c, 0, 60, 0
2, 18865, Note_on_c, 0, 72, 0
2, 18889, Note_on_c, 0, 54, 62
2, 18893, Note_on_c, 0, 48, 0
2, 18901, Note_on_c, 0, 54, 0
2, 18926, Note_on_c, 0, 48, 50
2, 18954, Note_on_c, 0, 48, 0
2, 18969, Note_on_c, 0, 44, 68
2, 19003, Note_on_c, 0, 44, 0
2, 19005, Control_c, 0, 64, 122
2, 19018, Note_on_c, 0, 61, 91
2, 19018, Control_c, 0, 64, 37
2, 19020, Note_on_c, 0, 73, 86
2, 19022, Note_on_c, 0, 37, 56
2, 19036, Control_c, 0, 64, 0
2, 19048, Control_c, 0, 64, 98
2, 19061, Control_c, 0, 64, 127
2, 19065, Note_on_c, 0, 37, 0
2, 19065, Note_on_c, 0, 44, 75
2, 19072, Note_on_c, 0, 61, 0
2, 19077, Note_on_c, 0, 73, 0
2, 19101, Note_on_c, 0, 44, 0
2, 19115, Note_on_c, 0, 63, 104
2, 19116, Note_on_c, 0, 75, 94
2, 19120, Note_on_c, 0, 48, 59
2, 19134, Note_on_c, 0, 75, 0
2, 19136, Note_on_c, 0, 63, 0
2, 19158, Note_on_c, 0, 54, 75
2, 19160, Note_on_c, 0, 48, 0
2, 19179, Note_on_c, 0, 54, 0
2, 19196, Note_on_c, 0, 48, 80
2, 19229, Note_on_c, 0, 48, 0
2, 19245, Note_on_c, 0, 44, 80
2, 19276, Note_on_c, 0, 44, 0
2, 19291, Note_on_c, 0, 37, 68
2, 19291, Control_c, 0, 64, 49
2, 19297, Note_on_c, 0, 65, 85
2, 19298, Note_on_c, 0, 77, 90
2, 19314, Control_c, 0, 64, 14
2, 19326, Control_c, 0, 64, 112
2, 19327, Note_on_c, 0, 65, 0
2, 19335, Note_on_c, 0, 77, 0
2, 19338, Control_c, 0, 64, 127
2, 19348, Note_on_c, 0, 44, 83
2, 19350, Note_on_c, 0, 66, 104
2, 19350, Note_on_c, 0, 78, 94
2, 19355, Note_on_c, 0, 37, 0
2, 19358, Note_on_c, 0, 66, 0
2, 19361, Note_on_c, 0, 78, 0
2, 19381, Note_on_c, 0, 44, 0
2, 19404, Note_on_c, 0, 82, 111
2, 19405, Note_on_c, 0, 70, 107
2, 19407, Note_on_c, 0, 51, 83
2, 19432, Note_on_c, 0, 70, 0
2, 19436, Note_on_c, 0, 82, 0
2, 19452, Note_on_c, 0, 51, 0
2, 19458, Note_on_c, 0, 56, 86
2, 19494, Note_on_c, 0, 56, 0
2, 19520, Note_on_c, 0, 68, 100
2, 19521, Note_on_c, 0, 80, 104
2, 19524, Note_on_c, 0, 48, 52
2, 19541, Note_on_c, 0, 80, 0
2, 19542, Note_on_c, 0, 68, 0
2, 19551, Note_on_c, 0, 48, 0
2, 19581, Note_on_c, 0, 44, 75
2, 19628, Note_on_c, 0, 44, 0
2, 19650, Note_on_c, 0, 37, 59
2, 19654, Control_c, 0, 64, 67
2, 19656, Note_on_c, 0, 65, 85
2, 19657, Note_on_c, 0, 77, 74
2, 19672, Control_c, 0, 64, 0
2, 19685, Control_c, 0, 64, 9
2, 19698, Control_c, 0, 64, 107
2, 19710, Control_c, 0, 64, 127
2, 19712, Note_on_c, 0, 44, 67
2, 19713, Note_on_c, 0, 37, 0
2, 19775, Note_on_c, 0, 49, 70
2, 19782, Note_on_c, 0, 44, 0
2, 19801, Note_on_c, 0, 49, 0
2, 19817, Note_on_c, 0, 77, 0
2, 19820, Note_on_c, 0, 56, 70
2, 19829, Note_on_c, 0, 65, 0
2, 19837, Note_on_c, 0, 56, 0
2, 19864, Note_on_c, 0, 49, 80
2, 19892, Note_on_c, 0, 49, 0
2, 19908, Note_on_c, 0, 44, 70
2, 19942, Control_c, 0, 64, 124
2, 19949, Note_on_c, 0, 44, 0
2, 19953, Note_on_c, 0, 37, 73
2, 19954, Note_on_c, 0, 65, 72
2, 19955, Note_on_c, 0, 77, 80
2, 19968, Control_c, 0, 64, 25
2, 19980, Control_c, 0, 64, 68
2, 19993, Control_c, 0, 64, 127
2, 19998, Note_on_c, 0, 77, 0
2, 19998, Note_on_c, 0, 37, 0
2, 20000, Note_on_c, 0, 44, 70
2, 20009, Note_on_c, 0, 65, 0
2, 20049, Note_on_c, 0, 49, 65
2, 20060, Note_on_c, 0, 44, 0
2, 20079, Note_on_c, 0, 49, 0
2, 20091, Note_on_c, 0, 56, 78
2, 20111, Note_on_c, 0, 56, 0
2, 20132, Note_on_c, 0, 49, 86
2, 20163, Note_on_c, 0, 49, 0
2, 20172, Note_on_c, 0, 44, 70
2, 20206, Note_on_c, 0, 44, 0
2, 20216, Note_on_c, 0, 37, 70
2, 20220, Note_on_c, 0, 64, 90
2, 20221, Note_on_c, 0, 76, 90
2, 20228, Control_c, 0, 64, 95
2, 20236, Control_c, 0, 64, 0
2, 20249, Control_c, 0, 64, 43
2, 20262, Control_c, 0, 64, 127
2, 20270, Note_on_c, 0, 45, 80
2, 20273, Note_on_c, 0, 37, 0
2, 20307, Note_on_c, 0, 45, 0
2, 20314, Note_on_c, 0, 49, 78
2, 20360, Note_on_c, 0, 55, 88
2, 20363, Note_on_c, 0, 49, 0
2, 20381, Note_on_c, 0, 55, 0
2, 20401, Note_on_c, 0, 49, 80
2, 20439, Note_on_c, 0, 49, 0
2, 20446, Note_on_c, 0, 45, 93
2, 20465, Note_on_c, 0, 76, 0
2, 20466, Note_on_c, 0, 64, 0
2, 20470, Note_on_c, 0, 45, 0
2, 20479, Control_c, 0, 64, 126
2, 20487, Note_on_c, 0, 38, 60
2, 20499, Control_c, 0, 64, 31
2, 20506, Note_on_c, 0, 62, 101
2, 20507, Note_on_c, 0, 74, 83
2, 20522, Control_c, 0, 64, 87
2, 20526, Note_on_c, 0, 62, 0
2, 20529, Note_on_c, 0, 74, 0
2, 20534, Control_c, 0, 64, 127
2, 20559, Note_on_c, 0, 45, 58
2, 20568, Note_on_c, 0, 64, 83
2, 20568, Note_on_c, 0, 76, 88
2, 20582, Note_on_c, 0, 76, 0
2, 20585, Note_on_c, 0, 64, 0
2, 20592, Note_on_c, 0, 38, 0
2, 20608, Note_on_c, 0, 45, 0
2, 20613, Note_on_c, 0, 50, 64
2, 20621, Note_on_c, 0, 74, 104
2, 20624, Note_on_c, 0, 62, 74
2, 20638, Note_on_c, 0, 62, 0
2, 20642, Note_on_c, 0, 74, 0
2, 20664, Note_on_c, 0, 54, 80
2, 20666, Note_on_c, 0, 50, 0
2, 20693, Note_on_c, 0, 54, 0
2, 20714, Note_on_c, 0, 69, 95
2, 20714, Note_on_c, 0, 57, 98
2, 20715, Note_on_c, 0, 50, 59
2, 20724, Note_on_c, 0, 57, 0
2, 20724, Note_on_c, 0, 69, 0
2, 20738, Note_on_c, 0, 50, 0
2, 20760, Note_on_c, 0, 45, 78
2, 20790, Note_on_c, 0, 45, 0
2, 20793, Control_c, 0, 64, 119
2, 20806, Note_on_c, 0, 71, 95
2, 20806, Note_on_c, 0, 59, 95
2, 20807, Note_on_c, 0, 38, 66
2, 20815, Control_c, 0, 64, 13
2, 20826, Control_c, 0, 64, 0
2, 20838, Control_c, 0, 64, 102
2, 20851, Control_c, 0, 64, 127
2, 20858, Note_on_c, 0, 43, 70
2, 20866, Note_on_c, 0, 38, 0
2, 20890, Note_on_c, 0, 43, 0
2, 20899, Note_on_c, 0, 50, 68
2, 20928, Note_on_c, 0, 50, 0
2, 20936, Note_on_c, 0, 55, 64
2, 20961, Note_on_c, 0, 55, 0
2, 20985, Note_on_c, 0, 59, 0
2, 20986, Note_on_c, 0, 50, 78
2, 20989, Note_on_c, 0, 71, 0
2, 21008, Note_on_c, 0, 50, 0
2, 21026, Note_on_c, 0, 43, 74
2, 21053, Note_on_c, 0, 43, 0
2, 21060, Control_c, 0, 64, 41
2, 21067, Note_on_c, 0, 38, 76
2, 21071, Note_on_c, 0, 62, 104
2, 21072, Note_on_c, 0, 74, 93
2, 21079, Control_c, 0, 64, 33
2, 21089, Note_on_c, 0, 62, 0
2, 21091, Note_on_c, 0, 74, 0
2, 21091, Control_c, 0, 64, 127
2, 21120, Note_on_c, 0, 76, 107
2, 21121, Note_on_c, 0, 64, 93
2, 21122, Note_on_c, 0, 45, 72
2, 21137, Note_on_c, 0, 64, 0
2, 21137, Note_on_c, 0, 38, 0
2, 21137, Note_on_c, 0, 76, 0
2, 21164, Note_on_c, 0, 45, 0
2, 21167, Note_on_c, 0, 74, 107
2, 21168, Note_on_c, 0, 62, 104
2, 21172, Note_on_c, 0, 50, 61
2, 21184, Note_on_c, 0, 62, 0
2, 21185, Note_on_c, 0, 74, 0
2, 21198, Note_on_c, 0, 50, 0
2, 21214, Note_on_c, 0, 54, 83
2, 21244, Note_on_c, 0, 54, 0
2, 21260, Note_on_c, 0, 69, 98
2, 21260, Note_on_c, 0, 57, 93
2, 21264, Note_on_c, 0, 50, 59
2, 21269, Note_on_c, 0, 57, 0
2, 21270, Note_on_c, 0, 69, 0
2, 21285, Note_on_c, 0, 50, 0
2, 21304, Note_on_c, 0, 45, 68
2, 21323, Note_on_c, 0, 45, 0
2, 21355, Note_on_c, 0, 43, 70
2, 21357, Note_on_c, 0, 58, 104
2, 21358, Note_on_c, 0, 70, 88
2, 21366, Control_c, 0, 64, 84
2, 21377, Control_c, 0, 64, 0
2, 21401, Control_c, 0, 64, 110
2, 21415, Note_on_c, 0, 49, 73
2, 21415, Control_c, 0, 64, 127
2, 21421, Note_on_c, 0, 43, 0
2, 21422, Note_on_c, 0, 58, 0
2, 21430, Note_on_c, 0, 70, 0
2, 21449, Note_on_c, 0, 49, 0
2, 21452, Note_on_c, 0, 52, 74
2, 21496, Note_on_c, 0, 52, 0
2, 21502, Note_on_c, 0, 58, 78
2, 21523, Note_on_c, 0, 58, 0
2, 21545, Note_on_c, 0, 52, 95
2, 21573, Note_on_c, 0, 52, 0
2, 21584, Note_on_c, 0, 49, 83
2, 21610, Note_on_c, 0, 49, 0
2, 21632, Note_on_c, 0, 60, 85
2, 21632, Note_on_c, 0, 44, 62
2, 21632, Note_on_c, 0, 72, 85
2, 21642, Control_c, 0, 64, 84
2, 21652, Control_c, 0, 64, 0
2, 21664, Control_c, 0, 64, 9
2, 21678, Control_c, 0, 64, 125
2, 21682, Note_on_c, 0, 51, 80
2, 21690, Control_c, 0, 64, 127
2, 21692, Note_on_c, 0, 44, 0
2, 21728, Note_on_c, 0, 54, 83
2, 21752, Note_on_c, 0, 51, 0
2, 21766, Note_on_c, 0, 54, 0
2, 21774, Note_on_c, 0, 57, 83
2, 21803, Note_on_c, 0, 57, 0
2, 21814, Note_on_c, 0, 56, 97
2, 21826, Note_on_c, 0, 56, 0
2, 21836, Note_on_c, 0, 60, 0
2, 21841, Note_on_c, 0, 72, 0
2, 21864, Note_on_c, 0, 44, 91
2, 21902, Note_on_c, 0, 44, 0
2, 21915, Note_on_c, 0, 37, 70
2, 21921, Control_c, 0, 64, 55
2, 21921, Note_on_c, 0, 61, 97
2, 21921, Note_on_c, 0, 73, 100
2, 21937, Control_c, 0, 64, 0
2, 21950, Control_c, 0, 64, 43
2, 21963, Control_c, 0, 64, 127
2, 21977, Note_on_c, 0, 44, 80
2, 21981, Note_on_c, 0, 37, 0
2, 21990, Note_on_c, 0, 61, 0
2, 21999, Note_on_c, 0, 73, 0
2, 22033, Note_on_c, 0, 49, 78
2, 22049, Note_on_c, 0, 44, 0
2, 22073, Note_on_c, 0, 49, 0
2, 22080, Note_on_c, 0, 56, 78
2, 22103, Note_on_c, 0, 56, 0
2, 22128, Note_on_c, 0, 49, 83
2, 22155, Note_on_c, 0, 49, 0
2, 22175, Note_on_c, 0, 44, 70
2, 22221, Note_on_c, 0, 44, 0
2, 22230, Note_on_c, 0, 37, 73
2, 22234, Control_c, 0, 64, 117
2, 22244, Control_c, 0, 64, 28
2, 22245, Note_on_c, 0, 65, 88
2, 22249, Note_on_c, 0, 77, 72
2, 22257, Control_c, 0, 64, 0
2, 22270, Control_c, 0, 64, 12
2, 22282, Control_c, 0, 64, 122
2, 22296, Control_c, 0, 64, 127
2, 22296, Note_on_c, 0, 44, 78
2, 22299, Note_on_c, 0, 37, 0
2, 22345, Note_on_c, 0, 49, 75
2, 22357, Note_on_c, 0, 44, 0
2, 22362, Note_on_c, 0, 77, 0
2, 22378, Note_on_c, 0, 65, 0
2, 22380, Note_on_c, 0, 49, 0
2, 22389, Note_on_c, 0, 56, 75
2, 22411, Note_on_c, 0, 56, 0
2, 22433, Note_on_c, 0, 49, 67
2, 22462, Note_on_c, 0, 49, 0
2, 22478, Note_on_c, 0, 44, 73
2, 22514, Note_on_c, 0, 44, 0
2, 22521, Note_on_c, 0, 37, 67
2, 22524, Note_on_c, 0, 64, 85
2, 22524, Note_on_c, 0, 76, 88
2, 22528, Control_c, 0, 64, 39
2, 22539, Control_c, 0, 64, 0
2, 22552, Control_c, 0, 64, 15
2, 22565, Control_c, 0, 64, 127
2, 22571, Note_on_c, 0, 44, 75
2, 22574, Note_on_c, 0, 37, 0
2, 22618, Note_on_c, 0, 49, 88
2, 22630, Note_on_c, 0, 44, 0
2, 22659, Note_on_c, 0, 76, 0
2, 22661, Note_on_c, 0, 55, 78
2, 22662, Note_on_c, 0, 64, 0
2, 22662, Note_on_c, 0, 49, 0
2, 22689, Note_on_c, 0, 55, 0
2, 22708, Note_on_c, 0, 49, 88
2, 22738, Note_on_c, 0, 49, 0
2, 22754, Note_on_c, 0, 44, 68
2, 22789, Note_on_c, 0, 44, 0
2, 22802, Note_on_c, 0, 37, 62
2, 22806, Note_on_c, 0, 63, 107
2, 22806, Note_on_c, 0, 75, 107
2, 22811, Control_c, 0, 64, 45
2, 22820, Control_c, 0, 64, 0
2, 22834, Control_c, 0, 64, 15
2, 22840, Note_on_c, 0, 63, 0
2, 22846, Control_c, 0, 64, 127
2, 22847, Note_on_c, 0, 75, 0
2, 22851, Note_on_c, 0, 44, 75
2, 22857, Note_on_c, 0, 37, 0
2, 22864, Note_on_c, 0, 77, 95
2, 22865, Note_on_c, 0, 65, 90
2, 22876, Note_on_c, 0, 77, 0
2, 22884, Note_on_c, 0, 65, 0
2, 22891, Note_on_c, 0, 44, 0
2, 22917, Note_on_c, 0, 63, 111
2, 22918, Note_on_c, 0, 48, 60
2, 22918, Note_on_c, 0, 75, 97
2, 22938, Note_on_c, 0, 63, 0
2, 22939, Note_on_c, 0, 75, 0
2, 22964, Note_on_c, 0, 54, 91
2, 22970, Note_on_c, 0, 48, 0
2, 22987, Note_on_c, 0, 54, 0
2, 23008, Note_on_c, 0, 48, 63
2, 23010, Note_on_c, 0, 60, 104
2, 23012, Note_on_c, 0, 72, 90
2, 23031, Note_on_c, 0, 60, 0
2, 23032, Note_on_c, 0, 72, 0
2, 23035, Note_on_c, 0, 48, 0
2, 23055, Note_on_c, 0, 44, 83
2, 23096, Control_c, 0, 64, 43
2, 23100, Note_on_c, 0, 44, 0
2, 23101, Note_on_c, 0, 37, 78
2, 23106, Note_on_c, 0, 58, 104
2, 23106, Note_on_c, 0, 70, 100
2, 23116, Control_c, 0, 64, 0
2, 23128, Control_c, 0, 64, 78
2, 23141, Control_c, 0, 64, 127
2, 23150, Note_on_c, 0, 44, 68
2, 23158, Note_on_c, 0, 37, 0
2, 23166, Note_on_c, 0, 70, 0
2, 23170, Note_on_c, 0, 58, 0
2, 23186, Note_on_c, 0, 44, 0
2, 23202, Note_on_c, 0, 56, 100
2, 23203, Note_on_c, 0, 68, 91
2, 23208, Note_on_c, 0, 48, 64
2, 23223, Note_on_c, 0, 56, 0
2, 23227, Note_on_c, 0, 68, 0
2, 23252, Note_on_c, 0, 54, 86
2, 23258, Note_on_c, 0, 48, 0
2, 23269, Note_on_c, 0, 54, 0
2, 23291, Note_on_c, 0, 48, 57
2, 23316, Note_on_c, 0, 48, 0
2, 23339, Note_on_c, 0, 44, 88
2, 23369, Control_c, 0, 64, 126
2, 23371, Note_on_c, 0, 44, 0
2, 23382, Control_c, 0, 64, 22
2, 23388, Note_on_c, 0, 58, 83
2, 23389, Note_on_c, 0, 37, 63
2, 23389, Note_on_c, 0, 70, 83
2, 23402, Control_c, 0, 64, 0
2, 23413, Control_c, 0, 64, 53
2, 23426, Control_c, 0, 64, 127
2, 23432, Note_on_c, 0, 44, 88
2, 23434, Note_on_c, 0, 58, 0
2, 23438, Note_on_c, 0, 37, 0
2, 23439, Note_on_c, 0, 70, 0
2, 23469, Note_on_c, 0, 44, 0
2, 23481, Note_on_c, 0, 60, 104
2, 23481, Note_on_c, 0, 72, 98
2, 23487, Note_on_c, 0, 48, 58
2, 23500, Note_on_c, 0, 60, 0
2, 23502, Note_on_c, 0, 72, 0
2, 23523, Note_on_c, 0, 54, 78
2, 23527, Note_on_c, 0, 48, 0
2, 23546, Note_on_c, 0, 54, 0
2, 23560, Note_on_c, 0, 48, 66
2, 23593, Note_on_c, 0, 48, 0
2, 23603, Note_on_c, 0, 44, 97
2, 23637, Control_c, 0, 64, 126
2, 23638, Note_on_c, 0, 44, 0
2, 23649, Note_on_c, 0, 37, 75
2, 23650, Note_on_c, 0, 61, 100
2, 23650, Note_on_c, 0, 73, 107
2, 23659, Control_c, 0, 64, 27
2, 23672, Control_c, 0, 64, 25
2, 23686, Control_c, 0, 64, 127
2, 23692, Note_on_c, 0, 44, 88
2, 23697, Note_on_c, 0, 61, 0
2, 23697, Note_on_c, 0, 37, 0
2, 23704, Note_on_c, 0, 73, 0
2, 23728, Note_on_c, 0, 44, 0
2, 23736, Note_on_c, 0, 63, 121
2, 23738, Note_on_c, 0, 75, 114
2, 23742, Note_on_c, 0, 48, 76
2, 23755, Note_on_c, 0, 63, 0
2, 23758, Note_on_c, 0, 75, 0
2, 23782, Note_on_c, 0, 54, 100
2, 23783, Note_on_c, 0, 48, 0
2, 23804, Note_on_c, 0, 54, 0
2, 23818, Note_on_c, 0, 48, 74
2, 23850, Note_on_c, 0, 48, 0
2, 23861, Note_on_c, 0, 44, 114
2, 23897, Note_on_c, 0, 44, 0
2, 23906, Note_on_c, 0, 37, 88
2, 23909, Note_on_c, 0, 65, 107
2, 23909, Note_on_c, 0, 77, 104
2, 23917, Control_c, 0, 64, 66
2, 23929, Control_c, 0, 64, 14
2, 23942, Control_c, 0, 64, 124
2, 23947, Note_on_c, 0, 65, 0
2, 23951, Note_on_c, 0, 44, 100
2, 23955, Note_on_c, 0, 77, 0
2, 23956, Control_c, 0, 64, 127
2, 23963, Note_on_c, 0, 37, 0
2, 23963, Note_on_c, 0, 78, 121
2, 23964, Note_on_c, 0, 66, 117
2, 23977, Note_on_c, 0, 66, 0
2, 23983, Note_on_c, 0, 78, 0
2, 23987, Note_on_c, 0, 44, 0
2, 24012, Note_on_c, 0, 51, 100
2, 24020, Note_on_c, 0, 82, 125
2, 24020, Note_on_c, 0, 70, 125
2, 24058, Note_on_c, 0, 51, 0
2, 24060, Note_on_c, 0, 56, 94
2, 24078, Note_on_c, 0, 82, 0
2, 24081, Note_on_c, 0, 70, 0
2, 24099, Note_on_c, 0, 56, 0
2, 24127, Note_on_c, 0, 48, 64
2, 24130, Note_on_c, 0, 68, 121
2, 24130, Note_on_c, 0, 80, 121
2, 24158, Note_on_c, 0, 48, 0
2, 24165, Note_on_c, 0, 80, 0
2, 24165, Note_on_c, 0, 68, 0
2, 24186, Note_on_c, 0, 44, 91
2, 24222, Note_on_c, 0, 80, 108
2, 24225, Note_on_c, 0, 68, 107
2, 24238, Note_on_c, 0, 44, 0
2, 24259, Note_on_c, 0, 80, 0
2, 24262, Note_on_c, 0, 68, 0
2, 24265, Note_on_c, 0, 37, 78
2, 24273, Note_on_c, 0, 77, 104
2, 24274, Note_on_c, 0, 65, 107
2, 24286, Control_c, 0, 64, 33
2, 24298, Control_c, 0, 64, 0
2, 24311, Control_c, 0, 64, 44
2, 24323, Control_c, 0, 64, 127
2, 24330, Note_on_c, 0, 44, 80
2, 24335, Note_on_c, 0, 37, 0
2, 24381, Note_on_c, 0, 49, 80
2, 24387, Note_on_c, 0, 44, 0
2, 24412, Note_on_c, 0, 49, 0
2, 24422, Note_on_c, 0, 56, 86
2, 24432, Note_on_c, 0, 77, 0
2, 24445, Note_on_c, 0, 56, 0
2, 24446, Note_on_c, 0, 65, 0
2, 24466, Note_on_c, 0, 49, 80
2, 24499, Note_on_c, 0, 49, 0
2, 24510, Note_on_c, 0, 44, 75
2, 24551, Note_on_c, 0, 44, 0
2, 24555, Control_c, 0, 64, 88
2, 24556, Note_on_c, 0, 37, 75
2, 24562, Note_on_c, 0, 77, 93
2, 24563, Note_on_c, 0, 65, 85
2, 24570, Control_c, 0, 64, 0
2, 24582, Control_c, 0, 64, 10
2, 24595, Control_c, 0, 64, 122
2, 24608, Control_c, 0, 64, 127
2, 24611, Note_on_c, 0, 44, 78
2, 24612, Note_on_c, 0, 37, 0
2, 24618, Note_on_c, 0, 77, 0
2, 24628, Note_on_c, 0, 65, 0
2, 24659, Note_on_c, 0, 49, 80
2, 24668, Note_on_c, 0, 44, 0
2, 24691, Note_on_c, 0, 49, 0
2, 24702, Note_on_c, 0, 56, 75
2, 24725, Note_on_c, 0, 56, 0
2, 24749, Note_on_c, 0, 49, 83
2, 24775, Note_on_c, 0, 49, 0
2, 24792, Note_on_c, 0, 44, 78
2, 24826, Note_on_c, 0, 44, 0
2, 24843, Note_on_c, 0, 37, 59
2, 24844, Note_on_c, 0, 64, 88
2, 24844, Note_on_c, 0, 76, 85
2, 24850, Control_c, 0, 64, 68
2, 24862, Control_c, 0, 64, 0
2, 24874, Control_c, 0, 64, 39
2, 24885, Note_on_c, 0, 37, 0
2, 24887, Control_c, 0, 64, 127
2, 24899, Note_on_c, 0, 45, 78
2, 24938, Note_on_c, 0, 45, 0
2, 24948, Note_on_c, 0, 49, 51
2, 24960, Note_on_c, 0, 49, 0
2, 25000, Note_on_c, 0, 55, 76
2, 25033, Note_on_c, 0, 55, 0
2, 25051, Note_on_c, 0, 49, 86
2, 25091, Note_on_c, 0, 49, 0
2, 25102, Note_on_c, 0, 45, 80
2, 25111, Note_on_c, 0, 76, 0
2, 25117, Note_on_c, 0, 64, 0
2, 25125, Note_on_c, 0, 45, 0
2, 25148, Note_on_c, 0, 38, 61
2, 25153, Control_c, 0, 64, 66
2, 25162, Note_on_c, 0, 62, 101
2, 25164, Note_on_c, 0, 74, 80
2, 25170, Control_c, 0, 64, 0
2, 25181, Control_c, 0, 64, 98
2, 25182, Note_on_c, 0, 62, 0
2, 25186, Note_on_c, 0, 74, 0
2, 25194, Control_c, 0, 64, 127
2, 25212, Note_on_c, 0, 45, 66
2, 25222, Note_on_c, 0, 76, 93
2, 25222, Note_on_c, 0, 64, 88
2, 25237, Note_on_c, 0, 76, 0
2, 25239, Note_on_c, 0, 64, 0
2, 25254, Note_on_c, 0, 38, 0
2, 25261, Note_on_c, 0, 45, 0
2, 25265, Note_on_c, 0, 50, 70
2, 25276, Note_on_c, 0, 62, 101
2, 25277, Note_on_c, 0, 74, 98
2, 25290, Note_on_c, 0, 62, 0
2, 25293, Note_on_c, 0, 74, 0
2, 25312, Note_on_c, 0, 50, 0
2, 25319, Note_on_c, 0, 54, 65
2, 25350, Note_on_c, 0, 54, 0
2, 25371, Note_on_c, 0, 50, 72
2, 25371, Note_on_c, 0, 57, 107
2, 25374, Note_on_c, 0, 69, 85
2, 25382, Note_on_c, 0, 57, 0
2, 25383, Note_on_c, 0, 69, 0
2, 25391, Note_on_c, 0, 50, 0
2, 25420, Note_on_c, 0, 45, 76
2, 25453, Note_on_c, 0, 45, 0
2, 25460, Control_c, 0, 64, 59
2, 25470, Note_on_c, 0, 38, 78
2, 25473, Note_on_c, 0, 71, 85
2, 25474, Note_on_c, 0, 59, 83
2, 25483, Control_c, 0, 64, 10
2, 25495, Control_c, 0, 64, 127
2, 25526, Note_on_c, 0, 43, 63
2, 25541, Note_on_c, 0, 38, 0
2, 25562, Note_on_c, 0, 43, 0
2, 25573, Note_on_c, 0, 50, 70
2, 25599, Note_on_c, 0, 50, 0
2, 25616, Note_on_c, 0, 55, 70
2, 25643, Note_on_c, 0, 55, 0
2, 25664, Note_on_c, 0, 50, 88
2, 25685, Note_on_c, 0, 59, 0
2, 25688, Note_on_c, 0, 50, 0
2, 25690, Note_on_c, 0, 71, 0
2, 25712, Note_on_c, 0, 43, 70
2, 25736, Note_on_c, 0, 43, 0
2, 25751, Control_c, 0, 64, 69
2, 25756, Note_on_c, 0, 38, 76
2, 25762, Note_on_c, 0, 62, 107
2, 25763, Note_on_c, 0, 74, 101
2, 25773, Control_c, 0, 64, 1
2, 25781, Note_on_c, 0, 62, 0
2, 25784, Note_on_c, 0, 74, 0
2, 25786, Control_c, 0, 64, 127
2, 25812, Note_on_c, 0, 45, 59
2, 25814, Note_on_c, 0, 76, 98
2, 25814, Note_on_c, 0, 64, 90
2, 25833, Note_on_c, 0, 64, 0
2, 25833, Note_on_c, 0, 76, 0
2, 25849, Note_on_c, 0, 38, 0
2, 25863, Note_on_c, 0, 45, 0
2, 25865, Note_on_c, 0, 62, 107
2, 25865, Note_on_c, 0, 50, 80
2, 25866, Note_on_c, 0, 74, 98
2, 25881, Note_on_c, 0, 74, 0
2, 25883, Note_on_c, 0, 62, 0
2, 25904, Note_on_c, 0, 50, 0
2, 25916, Note_on_c, 0, 54, 80
2, 25944, Note_on_c, 0, 54, 0
2, 25960, Note_on_c, 0, 57, 107
2, 25962, Note_on_c, 0, 69, 90
2, 25966, Note_on_c, 0, 50, 78
2, 25971, Note_on_c, 0, 57, 0
2, 25972, Note_on_c, 0, 69, 0
2, 25986, Note_on_c, 0, 50, 0
2, 26008, Note_on_c, 0, 45, 93
2, 26027, Note_on_c, 0, 45, 0
2, 26064, Note_on_c, 0, 58, 94
2, 26065, Note_on_c, 0, 70, 80
2, 26067, Note_on_c, 0, 43, 49
2, 26068, Note_on_c, 0, 45, 56
2, 26076, Control_c, 0, 64, 78
2, 26088, Control_c, 0, 64, 0
2, 26100, Control_c, 0, 64, 8
2, 26106, Note_on_c, 0, 45, 0
2, 26113, Control_c, 0, 64, 127
2, 26122, Note_on_c, 0, 49, 65
2, 26128, Note_on_c, 0, 43, 0
2, 26143, Note_on_c, 0, 58, 0
2, 26146, Note_on_c, 0, 70, 0
2, 26160, Note_on_c, 0, 49, 0
2, 26166, Note_on_c, 0, 52, 78
2, 26201, Note_on_c, 0, 52, 0
2, 26209, Note_on_c, 0, 58, 83
2, 26232, Note_on_c, 0, 58, 0
2, 26253, Note_on_c, 0, 52, 101
2, 26287, Note_on_c, 0, 52, 0
2, 26293, Note_on_c, 0, 49, 94
2, 26320, Note_on_c, 0, 49, 0
2, 26336, Note_on_c, 0, 44, 75
2, 26338, Control_c, 0, 64, 106
2, 26341, Note_on_c, 0, 60, 93
2, 26341, Note_on_c, 0, 72, 88
2, 26356, Control_c, 0, 64, 0
2, 26370, Control_c, 0, 64, 4
2, 26382, Control_c, 0, 64, 126
2, 26384, Note_on_c, 0, 51, 91
2, 26391, Note_on_c, 0, 44, 0
2, 26395, Control_c, 0, 64, 127
2, 26431, Note_on_c, 0, 54, 97
2, 26459, Note_on_c, 0, 51, 0
2, 26469, Note_on_c, 0, 54, 0
2, 26478, Note_on_c, 0, 57, 101
2, 26511, Note_on_c, 0, 57, 0
2, 26524, Note_on_c, 0, 56, 100
2, 26536, Note_on_c, 0, 56, 0
2, 26558, Note_on_c, 0, 72, 0
2, 26558, Note_on_c, 0, 60, 0
2, 26573, Note_on_c, 0, 44, 111
2, 26611, Note_on_c, 0, 44, 0
2, 26626, Note_on_c, 0, 37, 86
2, 26633, Note_on_c, 0, 61, 121
2, 26634, Note_on_c, 0, 73, 114
2, 26648, Control_c, 0, 64, 56
2, 26661, Control_c, 0, 64, 0
2, 26674, Control_c, 0, 64, 31
2, 26686, Control_c, 0, 64, 127
2, 26689, Note_on_c, 0, 44, 104
2, 26696, Note_on_c, 0, 37, 0
2, 26740, Note_on_c, 0, 49, 107
2, 26762, Note_on_c, 0, 44, 0
2, 26765, Note_on_c, 0, 61, 0
2, 26767, Note_on_c, 0, 73, 0
2, 26786, Note_on_c, 0, 49, 0
2, 26792, Note_on_c, 0, 56, 114
2, 26823, Note_on_c, 0, 56, 0
2, 26851, Note_on_c, 0, 49, 121
2, 26881, Note_on_c, 0, 49, 0
2, 26907, Note_on_c, 0, 46, 117
2, 26930, Note_on_c, 0, 46, 0
2, 26972, Note_on_c, 0, 44, 75
2, 26984, Control_c, 0, 64, 67
2, 26995, Note_on_c, 0, 63, 111
2, 26998, Note_on_c, 0, 75, 100
2, 27004, Control_c, 0, 64, 0
2, 27016, Control_c, 0, 64, 20
2, 27029, Control_c, 0, 64, 127
2, 27052, Note_on_c, 0, 51, 75
2, 27056, Note_on_c, 0, 44, 0
2, 27086, Note_on_c, 0, 63, 0
2, 27096, Note_on_c, 0, 75, 0
2, 27101, Note_on_c, 0, 56, 86
2, 27127, Note_on_c, 0, 51, 0
2, 27140, Note_on_c, 0, 56, 0
2, 27140, Note_on_c, 0, 60, 68
2, 27167, Note_on_c, 0, 60, 0
2, 27185, Note_on_c, 0, 56, 83
2, 27212, Note_on_c, 0, 56, 0
2, 27224, Note_on_c, 0, 51, 80
2, 27255, Note_on_c, 0, 51, 0
2, 27266, Note_on_c, 0, 44, 60
2, 27272, Control_c, 0, 64, 43
2, 27273, Note_on_c, 0, 77, 90
2, 27273, Note_on_c, 0, 65, 85
2, 27285, Control_c, 0, 64, 0
2, 27298, Control_c, 0, 64, 41
2, 27305, Note_on_c, 0, 44, 0
2, 27306, Note_on_c, 0, 65, 0
2, 27306, Note_on_c, 0, 77, 0
2, 27311, Control_c, 0, 64, 127
2, 27314, Note_on_c, 0, 50, 85
2, 27367, Note_on_c, 0, 53, 76
2, 27375, Note_on_c, 0, 50, 0
2, 27406, Note_on_c, 0, 58, 91
2, 27413, Note_on_c, 0, 53, 0
2, 27431, Note_on_c, 0, 58, 0
2, 27447, Note_on_c, 0, 53, 98
2, 27477, Note_on_c, 0, 53, 0
2, 27485, Note_on_c, 0, 50, 98
2, 27502, Note_on_c, 0, 50, 0
2, 27527, Note_on_c, 0, 42, 114
2, 27528, Control_c, 0, 64, 95
2, 27533, Note_on_c, 0, 78, 114
2, 27534, Note_on_c, 0, 66, 111
2, 27544, Control_c, 0, 64, 2
2, 27558, Control_c, 0, 64, 18
2, 27568, Note_on_c, 0, 78, 0
2, 27570, Control_c, 0, 64, 127
2, 27572, Note_on_c, 0, 66, 0
2, 27579, Note_on_c, 0, 46, 97
2, 27586, Note_on_c, 0, 42, 0
2, 27618, Note_on_c, 0, 77, 113
2, 27619, Note_on_c, 0, 65, 110
2, 27622, Note_on_c, 0, 51, 107
2, 27634, Note_on_c, 0, 65, 0
2, 27634, Note_on_c, 0, 46, 0
2, 27635, Note_on_c, 0, 77, 0
2, 27656, Note_on_c, 0, 51, 0
2, 27658, Note_on_c, 0, 58, 100
2, 27664, Note_on_c, 0, 66, 125
2, 27664, Note_on_c, 0, 78, 121
2, 27676, Note_on_c, 0, 66, 0
2, 27678, Note_on_c, 0, 58, 0
2, 27680, Note_on_c, 0, 78, 0
2, 27698, Note_on_c, 0, 51, 97
2, 27704, Note_on_c, 0, 68, 127
2, 27704, Note_on_c, 0, 80, 127
2, 27716, Note_on_c, 0, 80, 0
2, 27717, Note_on_c, 0, 68, 0
2, 27726, Note_on_c, 0, 51, 0
2, 27736, Note_on_c, 0, 46, 94
2, 27745, Note_on_c, 0, 82, 125
2, 27745, Note_on_c, 0, 70, 125
2, 27760, Note_on_c, 0, 70, 0
2, 27766, Note_on_c, 0, 82, 0
2, 27773, Note_on_c, 0, 46, 0
2, 27778, Control_c, 0, 64, 95
2, 27780, Note_on_c, 0, 42, 74
2, 27789, Note_on_c, 0, 70, 127
2, 27790, Note_on_c, 0, 82, 114
2, 27798, Control_c, 0, 64, 0
2, 27811, Control_c, 0, 64, 79
2, 27821, Note_on_c, 0, 82, 0
2, 27824, Note_on_c, 0, 70, 0
2, 27824, Control_c, 0, 64, 127
2, 27835, Note_on_c, 0, 42, 0
2, 27839, Note_on_c, 0, 48, 55
2, 27885, Note_on_c, 0, 63, 125
2, 27886, Note_on_c, 0, 75, 114
2, 27892, Note_on_c, 0, 51, 91
2, 27898, Note_on_c, 0, 75, 0
2, 27898, Note_on_c, 0, 48, 0
2, 27899, Note_on_c, 0, 63, 0
2, 27927, Note_on_c, 0, 51, 0
2, 27936, Note_on_c, 0, 56, 97
2, 27965, Note_on_c, 0, 56, 0
2, 27978, Note_on_c, 0, 51, 88
2, 27981, Note_on_c, 0, 68, 121
2, 27983, Note_on_c, 0, 80, 121
2, 28017, Note_on_c, 0, 51, 0
2, 28024, Note_on_c, 0, 48, 95
2, 28044, Note_on_c, 0, 48, 0
2, 28053, Note_on_c, 0, 80, 0
2, 28053, Note_on_c, 0, 68, 0
2, 28073, Control_c, 0, 64, 126
2, 28076, Note_on_c, 0, 41, 98
2, 28091, Note_on_c, 0, 68, 114
2, 28092, Note_on_c, 0, 80, 111
2, 28092, Control_c, 0, 64, 4
2, 28108, Control_c, 0, 64, 8
2, 28121, Control_c, 0, 64, 120
2, 28134, Control_c, 0, 64, 127
2, 28134, Note_on_c, 0, 44, 78
2, 28143, Note_on_c, 0, 68, 0
2, 28149, Note_on_c, 0, 80, 0
2, 28153, Note_on_c, 0, 41, 0
2, 28180, Note_on_c, 0, 49, 88
2, 28181, Note_on_c, 0, 82, 111
2, 28183, Note_on_c, 0, 70, 114
2, 28188, Note_on_c, 0, 44, 0
2, 28194, Note_on_c, 0, 82, 0
2, 28202, Note_on_c, 0, 70, 0
2, 28209, Note_on_c, 0, 49, 0
2, 28219, Note_on_c, 0, 56, 97
2, 28226, Note_on_c, 0, 68, 117
2, 28227, Note_on_c, 0, 80, 114
2, 28234, Note_on_c, 0, 80, 0
2, 28240, Note_on_c, 0, 56, 0
2, 28243, Note_on_c, 0, 68, 0
2, 28259, Note_on_c, 0, 49, 83
2, 28270, Note_on_c, 0, 66, 100
2, 28271, Note_on_c, 0, 78, 86
2, 28279, Note_on_c, 0, 66, 0
2, 28280, Note_on_c, 0, 78, 0
2, 28293, Note_on_c, 0, 49, 0
2, 28297, Note_on_c, 0, 44, 100
2, 28305, Note_on_c, 0, 77, 116
2, 28306, Note_on_c, 0, 65, 107
2, 28322, Note_on_c, 0, 65, 0
2, 28322, Note_on_c, 0, 77, 0
2, 28339, Control_c, 0, 64, 109
2, 28343, Note_on_c, 0, 37, 88
2, 28346, Note_on_c, 0, 44, 0
2, 28350, Note_on_c, 0, 65, 116
2, 28350, Note_on_c, 0, 77, 107
2, 28362, Control_c, 0, 64, 9
2, 28374, Control_c, 0, 64, 97
2, 28375, Note_on_c, 0, 65, 0
2, 28379, Note_on_c, 0, 77, 0
2, 28387, Control_c, 0, 64, 127
2, 28391, Note_on_c, 0, 44, 88
2, 28398, Note_on_c, 0, 37, 0
2, 28431, Note_on_c, 0, 78, 114
2, 28432, Note_on_c, 0, 66, 114
2, 28436, Note_on_c, 0, 49, 91
2, 28443, Note_on_c, 0, 78, 0
2, 28445, Note_on_c, 0, 66, 0
2, 28446, Note_on_c, 0, 44, 0
2, 28465, Note_on_c, 0, 49, 0
2, 28475, Note_on_c, 0, 77, 104
2, 28475, Note_on_c, 0, 65, 104
2, 28475, Note_on_c, 0, 56, 88
2, 28489, Note_on_c, 0, 77, 0
2, 28492, Note_on_c, 0, 65, 0
2, 28493, Note_on_c, 0, 56, 0
2, 28514, Note_on_c, 0, 49, 94
2, 28519, Note_on_c, 0, 75, 107
2, 28519, Note_on_c, 0, 63, 117
2, 28531, Note_on_c, 0, 75, 0
2, 28538, Note_on_c, 0, 63, 0
2, 28544, Note_on_c, 0, 49, 0
2, 28558, Note_on_c, 0, 44, 94
2, 28564, Note_on_c, 0, 73, 114
2, 28564, Note_on_c, 0, 61, 114
2, 28576, Note_on_c, 0, 61, 0
2, 28582, Note_on_c, 0, 73, 0
2, 28596, Note_on_c, 0, 44, 0
2, 28604, Note_on_c, 0, 37, 86
2, 28609, Note_on_c, 0, 75, 114
2, 28609, Control_c, 0, 64, 121
2, 28611, Note_on_c, 0, 63, 107
2, 28630, Control_c, 0, 64, 0
2, 28642, Note_on_c, 0, 37, 0
2, 28642, Control_c, 0, 64, 9
2, 28654, Control_c, 0, 64, 110
2, 28660, Note_on_c, 0, 46, 83
2, 28669, Control_c, 0, 64, 127
2, 28706, Note_on_c, 0, 51, 80
2, 28719, Note_on_c, 0, 46, 0
2, 28749, Note_on_c, 0, 51, 0
2, 28751, Note_on_c, 0, 55, 78
2, 28779, Note_on_c, 0, 55, 0
2, 28793, Note_on_c, 0, 51, 91
2, 28820, Note_on_c, 0, 51, 0
2, 28836, Note_on_c, 0, 46, 86
2, 28857, Note_on_c, 0, 46, 0
2, 28887, Note_on_c, 0, 37, 94
2, 28887, Control_c, 0, 64, 71
2, 28900, Control_c, 0, 64, 0
2, 28908, Note_on_c, 0, 63, 0
2, 28912, Control_c, 0, 64, 41
2, 28913, Note_on_c, 0, 75, 0
2, 28915, Note_on_c, 0, 37, 0
2, 28925, Control_c, 0, 64, 127
2, 28947, Note_on_c, 0, 45, 80
2, 29004, Note_on_c, 0, 48, 80
2, 29006, Note_on_c, 0, 45, 0
2, 29050, Note_on_c, 0, 48, 0
2, 29050, Note_on_c, 0, 54, 80
2, 29078, Note_on_c, 0, 54, 0
2, 29100, Note_on_c, 0, 48, 78
2, 29105, Note_on_c, 0, 76, 98
2, 29105, Note_on_c, 0, 64, 104
2, 29128, Note_on_c, 0, 64, 0
2, 29130, Note_on_c, 0, 76, 0
2, 29136, Note_on_c, 0, 48, 0
2, 29164, Note_on_c, 0, 44, 94
2, 29210, Note_on_c, 0, 44, 0
2, 29229, Note_on_c, 0, 37, 60
2, 29233, Note_on_c, 0, 65, 98
2, 29236, Note_on_c, 0, 77, 85
2, 29245, Control_c, 0, 64, 43
2, 29256, Control_c, 0, 64, 0
2, 29269, Control_c, 0, 64, 5
2, 29281, Control_c, 0, 64, 108
2, 29289, Note_on_c, 0, 44, 78
2, 29294, Control_c, 0, 64, 127
2, 29297, Note_on_c, 0, 37, 0
2, 29330, Note_on_c, 0, 77, 0
2, 29341, Note_on_c, 0, 65, 0
2, 29341, Note_on_c, 0, 49, 75
2, 29361, Note_on_c, 0, 44, 0
2, 29379, Note_on_c, 0, 49, 0
2, 29389, Note_on_c, 0, 56, 86
2, 29408, Note_on_c, 0, 56, 0
2, 29436, Note_on_c, 0, 49, 86
2, 29462, Note_on_c, 0, 49, 0
2, 29476, Note_on_c, 0, 44, 75
2, 29515, Note_on_c, 0, 44, 0
2, 29523, Note_on_c, 0, 37, 63
2, 29528, Control_c, 0, 64, 111
2, 29530, Note_on_c, 0, 64, 93
2, 29531, Note_on_c, 0, 76, 83
2, 29540, Control_c, 0, 64, 7
2, 29553, Control_c, 0, 64, 0
2, 29566, Control_c, 0, 64, 95
2, 29575, Note_on_c, 0, 45, 83
2, 29578, Note_on_c, 0, 37, 0
2, 29578, Control_c, 0, 64, 127
2, 29614, Note_on_c, 0, 45, 0
2, 29622, Note_on_c, 0, 49, 75
2, 29669, Note_on_c, 0, 55, 78
2, 29676, Note_on_c, 0, 49, 0
2, 29693, Note_on_c, 0, 55, 0
2, 29714, Note_on_c, 0, 49, 73
2, 29748, Note_on_c, 0, 49, 0
2, 29759, Note_on_c, 0, 45, 78
2, 29763, Note_on_c, 0, 76, 0
2, 29765, Note_on_c, 0, 64, 0
2, 29784, Note_on_c, 0, 45, 0
2, 29803, Note_on_c, 0, 38, 60
2, 29809, Control_c, 0, 64, 52
2, 29817, Note_on_c, 0, 62, 88
2, 29818, Note_on_c, 0, 74, 83
2, 29825, Control_c, 0, 64, 0
2, 29838, Control_c, 0, 64, 105
2, 29845, Note_on_c, 0, 74, 0
2, 29845, Note_on_c, 0, 62, 0
2, 29851, Control_c, 0, 64, 127
2, 29870, Note_on_c, 0, 45, 61
2, 29875, Note_on_c, 0, 64, 83
2, 29876, Note_on_c, 0, 76, 74
2, 29887, Note_on_c, 0, 76, 0
2, 29892, Note_on_c, 0, 64, 0
2, 29906, Note_on_c, 0, 38, 0
2, 29923, Note_on_c, 0, 45, 0
2, 29924, Note_on_c, 0, 50, 64
2, 29932, Note_on_c, 0, 74, 78
2, 29932, Note_on_c, 0, 62, 83
2, 29947, Note_on_c, 0, 74, 0
2, 29948, Note_on_c, 0, 62, 0
2, 29968, Note_on_c, 0, 50, 0
2, 29976, Note_on_c, 0, 54, 75
2, 30008, Note_on_c, 0, 54, 0
2, 30028, Note_on_c, 0, 50, 78
2, 30030, Note_on_c, 0, 57, 85
2, 30032, Note_on_c, 0, 69, 61
2, 30040, Note_on_c, 0, 57, 0
2, 30044, Note_on_c, 0, 69, 0
2, 30050, Note_on_c, 0, 50, 0
2, 30076, Note_on_c, 0, 45, 74
2, 30106, Note_on_c, 0, 45, 0
2, 30116, Control_c, 0, 64, 120
2, 30126, Note_on_c, 0, 38, 64
2, 30128, Note_on_c, 0, 59, 83
2, 30128, Note_on_c, 0, 71, 85
2, 30133, Control_c, 0, 64, 29
2, 30145, Control_c, 0, 64, 0
2, 30158, Control_c, 0, 64, 86
2, 30171, Control_c, 0, 64, 127
2, 30180, Note_on_c, 0, 43, 56
2, 30193, Note_on_c, 0, 38, 0
2, 30218, Note_on_c, 0, 43, 0
2, 30224, Note_on_c, 0, 50, 66
2, 30261, Note_on_c, 0, 50, 0
2, 30269, Note_on_c, 0, 55, 74
2, 30302, Note_on_c, 0, 55, 0
2, 30314, Note_on_c, 0, 59, 0
2, 30318, Note_on_c, 0, 50, 93
2, 30319, Note_on_c, 0, 71, 0
2, 30344, Note_on_c, 0, 50, 0
2, 30367, Note_on_c, 0, 43, 76
2, 30393, Note_on_c, 0, 43, 0
2, 30411, Note_on_c, 0, 74, 107
2, 30411, Control_c, 0, 64, 42
2, 30412, Note_on_c, 0, 38, 76
2, 30412, Note_on_c, 0, 62, 104
2, 30427, Control_c, 0, 64, 1
2, 30440, Note_on_c, 0, 62, 0
2, 30440, Control_c, 0, 64, 111
2, 30448, Note_on_c, 0, 74, 0
2, 30453, Control_c, 0, 64, 127
2, 30464, Note_on_c, 0, 45, 74
2, 30470, Note_on_c, 0, 76, 107
2, 30471, Note_on_c, 0, 64, 95
2, 30488, Note_on_c, 0, 64, 0
2, 30488, Note_on_c, 0, 76, 0
2, 30490, Note_on_c, 0, 38, 0
2, 30514, Note_on_c, 0, 45, 0
2, 30518, Note_on_c, 0, 50, 70
2, 30526, Note_on_c, 0, 74, 98
2, 30527, Note_on_c, 0, 62, 95
2, 30545, Note_on_c, 0, 62, 0
2, 30545, Note_on_c, 0, 74, 0
2, 30555, Note_on_c, 0, 50, 0
2, 30572, Note_on_c, 0, 54, 78
2, 30598, Note_on_c, 0, 54, 0
2, 30622, Note_on_c, 0, 50, 80
2, 30631, Note_on_c, 0, 57, 93
2, 30631, Note_on_c, 0, 69, 88
2, 30641, Note_on_c, 0, 69, 0
2, 30641, Note_on_c, 0, 57, 0
2, 30648, Note_on_c, 0, 50, 0
2, 30677, Note_on_c, 0, 45, 90
2, 30697, Note_on_c, 0, 45, 0
2, 30734, Control_c, 0, 64, 126
2, 30737, Note_on_c, 0, 70, 91
2, 30738, Note_on_c, 0, 43, 72
2, 30739, Note_on_c, 0, 58, 83
2, 30750, Control_c, 0, 64, 18
2, 30763, Control_c, 0, 64, 0
2, 30775, Control_c, 0, 64, 27
2, 30789, Control_c, 0, 64, 127
2, 30798, Note_on_c, 0, 49, 65
2, 30806, Note_on_c, 0, 43, 0
2, 30816, Note_on_c, 0, 58, 0
2, 30823, Note_on_c, 0, 70, 0
2, 30832, Note_on_c, 0, 49, 0
2, 30846, Note_on_c, 0, 52, 88
2, 30872, Note_on_c, 0, 52, 0
2, 30892, Note_on_c, 0, 58, 83
2, 30914, Note_on_c, 0, 58, 0
2, 30939, Note_on_c, 0, 52, 78
2, 30969, Note_on_c, 0, 52, 0
2, 30980, Note_on_c, 0, 49, 83
2, 31012, Note_on_c, 0, 49, 0
2, 31025, Note_on_c, 0, 44, 65
2, 31025, Control_c, 0, 64, 122
2, 31027, Note_on_c, 0, 60, 90
2, 31029, Note_on_c, 0, 72, 76
2, 31039, Control_c, 0, 64, 22
2, 31051, Control_c, 0, 64, 0
2, 31064, Control_c, 0, 64, 35
2, 31077, Control_c, 0, 64, 127
2, 31079, Note_on_c, 0, 51, 80
2, 31088, Note_on_c, 0, 44, 0
2, 31130, Note_on_c, 0, 54, 80
2, 31161, Note_on_c, 0, 51, 0
2, 31175, Note_on_c, 0, 54, 0
2, 31182, Note_on_c, 0, 57, 95
2, 31220, Note_on_c, 0, 57, 0
2, 31234, Note_on_c, 0, 56, 97
2, 31248, Note_on_c, 0, 56, 0
2, 31268, Note_on_c, 0, 72, 0
2, 31272, Note_on_c, 0, 60, 0
2, 31286, Note_on_c, 0, 44, 91
2, 31324, Note_on_c, 0, 44, 0
2, 31344, Note_on_c, 0, 37, 73
2, 31348, Note_on_c, 0, 61, 97
2, 31350, Note_on_c, 0, 73, 88
2, 31354, Control_c, 0, 64, 114
2, 31366, Control_c, 0, 64, 11
2, 31378, Control_c, 0, 64, 0
2, 31391, Control_c, 0, 64, 62
2, 31404, Control_c, 0, 64, 127
2, 31408, Note_on_c, 0, 44, 86
2, 31411, Note_on_c, 0, 37, 0
2, 31460, Note_on_c, 0, 49, 88
2, 31477, Note_on_c, 0, 44, 0
2, 31490, Note_on_c, 0, 73, 0
2, 31492, Note_on_c, 0, 61, 0
2, 31499, Note_on_c, 0, 49, 0
2, 31511, Note_on_c, 0, 56, 83
2, 31537, Note_on_c, 0, 56, 0
2, 31560, Note_on_c, 0, 49, 94
2, 31591, Note_on_c, 0, 49, 0
2, 31609, Note_on_c, 0, 46, 94
2, 31629, Note_on_c, 0, 46, 0
2, 31654, Note_on_c, 0, 44, 73
2, 31660, Control_c, 0, 64, 96
2, 31661, Note_on_c, 0, 75, 100
2, 31661, Note_on_c, 0, 63, 97
2, 31672, Control_c, 0, 64, 0
2, 31698, Control_c, 0, 64, 109
2, 31711, Control_c, 0, 64, 127
2, 31718, Note_on_c, 0, 51, 83
2, 31722, Note_on_c, 0, 44, 0
2, 31767, Note_on_c, 0, 63, 0
2, 31769, Note_on_c, 0, 56, 80
2, 31777, Note_on_c, 0, 75, 0
2, 31781, Note_on_c, 0, 51, 0
2, 31814, Note_on_c, 0, 60, 80
2, 31816, Note_on_c, 0, 56, 0
2, 31844, Note_on_c, 0, 60, 0
2, 31860, Note_on_c, 0, 56, 94
2, 31884, Note_on_c, 0, 56, 0
2, 31901, Note_on_c, 0, 51, 75
2, 31927, Note_on_c, 0, 51, 0
2, 31942, Control_c, 0, 64, 117
2, 31944, Note_on_c, 0, 44, 60
2, 31948, Note_on_c, 0, 65, 101
2, 31952, Note_on_c, 0, 77, 78
2, 31956, Control_c, 0, 64, 9
2, 31968, Control_c, 0, 64, 3
2, 31974, Note_on_c, 0, 44, 0
2, 31980, Control_c, 0, 64, 120
2, 31993, Control_c, 0, 64, 127
2, 31994, Note_on_c, 0, 50, 88
2, 31995, Note_on_c, 0, 77, 0
2, 31997, Note_on_c, 0, 65, 0
2, 32054, Note_on_c, 0, 53, 74
2, 32062, Note_on_c, 0, 50, 0
2, 32090, Note_on_c, 0, 53, 0
2, 32091, Note_on_c, 0, 58, 88
2, 32119, Note_on_c, 0, 58, 0
2, 32135, Note_on_c, 0, 53, 90
2, 32166, Note_on_c, 0, 53, 0
2, 32172, Note_on_c, 0, 50, 93
2, 32191, Note_on_c, 0, 50, 0
2, 32222, Note_on_c, 0, 78, 107
2, 32222, Note_on_c, 0, 66, 107
2, 32224, Note_on_c, 0, 42, 100
2, 32231, Control_c, 0, 64, 84
2, 32242, Control_c, 0, 64, 0
2, 32255, Control_c, 0, 64, 72
2, 32269, Control_c, 0, 64, 127
2, 32270, Note_on_c, 0, 46, 91
2, 32276, Note_on_c, 0, 42, 0
2, 32279, Note_on_c, 0, 78, 0
2, 32279, Note_on_c, 0, 66, 0
2, 32314, Note_on_c, 0, 51, 100
2, 32316, Note_on_c, 0, 65, 104
2, 32317, Note_on_c, 0, 77, 101
2, 32332, Note_on_c, 0, 46, 0
2, 32335, Note_on_c, 0, 77, 0
2, 32335, Note_on_c, 0, 65, 0
2, 32351, Note_on_c, 0, 51, 0
2, 32354, Note_on_c, 0, 58, 86
2, 32361, Note_on_c, 0, 78, 117
2, 32361, Note_on_c, 0, 66, 114
2, 32376, Note_on_c, 0, 58, 0
2, 32378, Note_on_c, 0, 66, 0
2, 32381, Note_on_c, 0, 78, 0
2, 32395, Note_on_c, 0, 51, 100
2, 32403, Note_on_c, 0, 68, 121
2, 32404, Note_on_c, 0, 80, 117
2, 32418, Note_on_c, 0, 80, 0
2, 32423, Note_on_c, 0, 68, 0
2, 32427, Note_on_c, 0, 51, 0
2, 32434, Note_on_c, 0, 46, 88
2, 32444, Note_on_c, 0, 82, 121
2, 32446, Note_on_c, 0, 70, 111
2, 32462, Note_on_c, 0, 82, 0
2, 32463, Note_on_c, 0, 70, 0
2, 32475, Note_on_c, 0, 46, 0
2, 32480, Note_on_c, 0, 42, 91
2, 32488, Note_on_c, 0, 70, 125
2, 32490, Note_on_c, 0, 82, 117
2, 32500, Control_c, 0, 64, 46
2, 32511, Control_c, 0, 64, 14
2, 32525, Control_c, 0, 64, 126
2, 32526, Note_on_c, 0, 42, 0
2, 32538, Note_on_c, 0, 48, 85
2, 32538, Control_c, 0, 64, 127
2, 32539, Note_on_c, 0, 82, 0
2, 32542, Note_on_c, 0, 70, 0
2, 32587, Note_on_c, 0, 63, 125
2, 32588, Note_on_c, 0, 75, 114
2, 32596, Note_on_c, 0, 51, 88
2, 32598, Note_on_c, 0, 48, 0
2, 32599, Note_on_c, 0, 63, 0
2, 32604, Note_on_c, 0, 75, 0
2, 32629, Note_on_c, 0, 51, 0
2, 32639, Note_on_c, 0, 56, 91
2, 32667, Note_on_c, 0, 56, 0
2, 32680, Note_on_c, 0, 51, 94
2, 32686, Note_on_c, 0, 68, 117
2, 32687, Note_on_c, 0, 80, 114
2, 32722, Note_on_c, 0, 51, 0
2, 32727, Note_on_c, 0, 48, 93
2, 32751, Note_on_c, 0, 48, 0
2, 32757, Note_on_c, 0, 80, 0
2, 32757, Note_on_c, 0, 68, 0
2, 32775, Control_c, 0, 64, 118
2, 32778, Note_on_c, 0, 41, 90
2, 32786, Note_on_c, 0, 68, 121
2, 32788, Note_on_c, 0, 80, 114
2, 32797, Control_c, 0, 64, 0
2, 32810, Control_c, 0, 64, 53
2, 32823, Control_c, 0, 64, 127
2, 32831, Note_on_c, 0, 44, 80
2, 32842, Note_on_c, 0, 68, 0
2, 32846, Note_on_c, 0, 41, 0
2, 32846, Note_on_c, 0, 80, 0
2, 32870, Note_on_c, 0, 49, 97
2, 32877, Note_on_c, 0, 82, 107
2, 32877, Note_on_c, 0, 70, 114
2, 32883, Note_on_c, 0, 44, 0
2, 32895, Note_on_c, 0, 70, 0
2, 32895, Note_on_c, 0, 82, 0
2, 32906, Note_on_c, 0, 49, 0
2, 32910, Note_on_c, 0, 56, 94
2, 32924, Note_on_c, 0, 80, 111
2, 32924, Note_on_c, 0, 68, 114
2, 32934, Note_on_c, 0, 56, 0
2, 32937, Note_on_c, 0, 80, 0
2, 32941, Note_on_c, 0, 68, 0
2, 32954, Note_on_c, 0, 49, 86
2, 32967, Note_on_c, 0, 66, 117
2, 32967, Note_on_c, 0, 78, 114
2, 32986, Note_on_c, 0, 78, 0
2, 32986, Note_on_c, 0, 49, 0
2, 32987, Note_on_c, 0, 66, 0
2, 32989, Note_on_c, 0, 44, 86
2, 33008, Note_on_c, 0, 77, 101
2, 33008, Note_on_c, 0, 65, 104
2, 33024, Note_on_c, 0, 65, 0
2, 33024, Note_on_c, 0, 77, 0
2, 33038, Note_on_c, 0, 44, 0
2, 33038, Note_on_c, 0, 37, 88
2, 33044, Control_c, 0, 64, 63
2, 33054, Note_on_c, 0, 77, 113
2, 33054, Note_on_c, 0, 65, 123
2, 33060, Control_c, 0, 64, 0
2, 33075, Control_c, 0, 64, 33
2, 33088, Control_c, 0, 64, 127
2, 33091, Note_on_c, 0, 44, 83
2, 33096, Note_on_c, 0, 37, 0
2, 33101, Note_on_c, 0, 65, 0
2, 33102, Note_on_c, 0, 77, 0
2, 33136, Note_on_c, 0, 49, 97
2, 33140, Note_on_c, 0, 66, 114
2, 33140, Note_on_c, 0, 78, 114
2, 33149, Note_on_c, 0, 44, 0
2, 33154, Note_on_c, 0, 78, 0
2, 33157, Note_on_c, 0, 66, 0
2, 33170, Note_on_c, 0, 49, 0
2, 33177, Note_on_c, 0, 56, 97
2, 33182, Note_on_c, 0, 65, 107
2, 33183, Note_on_c, 0, 77, 104
2, 33198, Note_on_c, 0, 77, 0
2, 33199, Note_on_c, 0, 65, 0
2, 33200, Note_on_c, 0, 56, 0
2, 33220, Note_on_c, 0, 49, 94
2, 33229, Note_on_c, 0, 63, 121
2, 33229, Note_on_c, 0, 75, 117
2, 33244, Note_on_c, 0, 75, 0
2, 33246, Note_on_c, 0, 63, 0
2, 33256, Note_on_c, 0, 49, 0
2, 33266, Note_on_c, 0, 44, 86
2, 33275, Note_on_c, 0, 73, 111
2, 33275, Note_on_c, 0, 61, 117
2, 33293, Note_on_c, 0, 61, 0
2, 33294, Note_on_c, 0, 73, 0
2, 33319, Note_on_c, 0, 44, 0
2, 33320, Note_on_c, 0, 37, 86
2, 33324, Note_on_c, 0, 63, 104
2, 33324, Note_on_c, 0, 75, 107
2, 33338, Control_c, 0, 64, 19
2, 33351, Control_c, 0, 64, 10
2, 33364, Note_on_c, 0, 37, 0
2, 33364, Control_c, 0, 64, 127
2, 33379, Note_on_c, 0, 46, 100
2, 33432, Note_on_c, 0, 51, 97
2, 33452, Note_on_c, 0, 46, 0
2, 33472, Note_on_c, 0, 51, 0
2, 33475, Note_on_c, 0, 55, 88
2, 33505, Note_on_c, 0, 55, 0
2, 33520, Note_on_c, 0, 51, 100
2, 33546, Note_on_c, 0, 51, 0
2, 33559, Note_on_c, 0, 46, 91
2, 33583, Note_on_c, 0, 46, 0
2, 33607, Control_c, 0, 64, 71
2, 33607, Note_on_c, 0, 37, 91
2, 33623, Control_c, 0, 64, 0
2, 33636, Control_c, 0, 64, 74
2, 33637, Note_on_c, 0, 37, 0
2, 33649, Control_c, 0, 64, 127
2, 33650, Note_on_c, 0, 75, 0
2, 33650, Note_on_c, 0, 63, 0
2, 33656, Note_on_c, 0, 45, 95
2, 33702, Note_on_c, 0, 45, 0
2, 33708, Note_on_c, 0, 48, 90
2, 33744, Note_on_c, 0, 48, 0
2, 33763, Note_on_c, 0, 54, 91
2, 33767, Note_on_c, 0, 48, 46
2, 33780, Note_on_c, 0, 48, 0
2, 33793, Note_on_c, 0, 54, 0
2, 33821, Note_on_c, 0, 48, 70
2, 33824, Note_on_c, 0, 64, 110
2, 33826, Note_on_c, 0, 76, 93
2, 33857, Note_on_c, 0, 48, 0
2, 33860, Note_on_c, 0, 64, 0
2, 33863, Note_on_c, 0, 76, 0
2, 33891, Note_on_c, 0, 44, 104
2, 33946, Note_on_c, 0, 44, 0
2, 33971, Note_on_c, 0, 37, 78
2, 33976, Note_on_c, 0, 65, 98
2, 33981, Control_c, 0, 64, 70
2, 33983, Note_on_c, 0, 77, 76
2, 33995, Control_c, 0, 64, 0
2, 34020, Control_c, 0, 64, 13
2, 34033, Control_c, 0, 64, 127
2, 34044, Note_on_c, 0, 44, 70
2, 34051, Note_on_c, 0, 37, 0
2, 34092, Note_on_c, 0, 49, 88
2, 34098, Note_on_c, 0, 77, 0
2, 34112, Note_on_c, 0, 65, 0
2, 34115, Note_on_c, 0, 44, 0
2, 34125, Note_on_c, 0, 49, 0
2, 34144, Note_on_c, 0, 56, 83
2, 34162, Note_on_c, 0, 56, 0
2, 34191, Note_on_c, 0, 49, 78
2, 34217, Note_on_c, 0, 49, 0
2, 34234, Note_on_c, 0, 44, 73
2, 34268, Note_on_c, 0, 44, 0
2, 34277, Control_c, 0, 64, 126
2, 34282, Note_on_c, 0, 37, 73
2, 34287, Note_on_c, 0, 64, 85
2, 34289, Note_on_c, 0, 76, 76
2, 34294, Control_c, 0, 64, 34
2, 34306, Control_c, 0, 64, 0
2, 34318, Control_c, 0, 64, 93
2, 34331, Control_c, 0, 64, 127
2, 34338, Note_on_c, 0, 37, 0
2, 34338, Note_on_c, 0, 45, 78
2, 34371, Note_on_c, 0, 45, 0
2, 34384, Note_on_c, 0, 49, 61
2, 34432, Note_on_c, 0, 49, 0
2, 34432, Note_on_c, 0, 55, 66
2, 34455, Note_on_c, 0, 55, 0
2, 34482, Note_on_c, 0, 49, 68
2, 34518, Note_on_c, 0, 49, 0
2, 34523, Note_on_c, 0, 76, 0
2, 34528, Note_on_c, 0, 64, 0
2, 34528, Note_on_c, 0, 45, 70
2, 34549, Note_on_c, 0, 45, 0
2, 34570, Note_on_c, 0, 38, 40
2, 34578, Control_c, 0, 64, 35
2, 34585, Note_on_c, 0, 74, 76
2, 34586, Note_on_c, 0, 62, 70
2, 34594, Control_c, 0, 64, 23
2, 34606, Control_c, 0, 64, 127
2, 34607, Note_on_c, 0, 62, 0
2, 34608, Note_on_c, 0, 74, 0
2, 34639, Note_on_c, 0, 45, 58
2, 34647, Note_on_c, 0, 76, 80
2, 34647, Note_on_c, 0, 64, 76
2, 34664, Note_on_c, 0, 76, 0
2, 34665, Note_on_c, 0, 38, 0
2, 34666, Note_on_c, 0, 64, 0
2, 34684, Note_on_c, 0, 45, 0
2, 34690, Note_on_c, 0, 50, 68
2, 34702, Note_on_c, 0, 74, 98
2, 34704, Note_on_c, 0, 62, 83
2, 34722, Note_on_c, 0, 62, 0
2, 34722, Note_on_c, 0, 74, 0
2, 34746, Note_on_c, 0, 50, 0
2, 34747, Note_on_c, 0, 54, 68
2, 34780, Note_on_c, 0, 54, 0
2, 34795, Note_on_c, 0, 50, 76
2, 34798, Note_on_c, 0, 57, 101
2, 34802, Note_on_c, 0, 69, 60
2, 34809, Note_on_c, 0, 57, 0
2, 34814, Note_on_c, 0, 69, 0
2, 34819, Note_on_c, 0, 50, 0
2, 34849, Note_on_c, 0, 45, 74
2, 34879, Note_on_c, 0, 45, 0
2, 34894, Note_on_c, 0, 38, 74
2, 34898, Note_on_c, 0, 71, 83
2, 34898, Note_on_c, 0, 59, 88
2, 34904, Control_c, 0, 64, 81
2, 34914, Control_c, 0, 64, 0
2, 34927, Control_c, 0, 64, 30
2, 34939, Control_c, 0, 64, 127
2, 34953, Note_on_c, 0, 43, 63
2, 34960, Note_on_c, 0, 38, 0
2, 34991, Note_on_c, 0, 43, 0
2, 34998, Note_on_c, 0, 50, 78
2, 35032, Note_on_c, 0, 50, 0
2, 35043, Note_on_c, 0, 55, 68
2, 35071, Note_on_c, 0, 55, 0
2, 35092, Note_on_c, 0, 50, 85
2, 35112, Note_on_c, 0, 59, 0
2, 35118, Note_on_c, 0, 50, 0
2, 35118, Note_on_c, 0, 71, 0
2, 35136, Note_on_c, 0, 43, 76
2, 35167, Note_on_c, 0, 43, 0
2, 35182, Control_c, 0, 64, 123
2, 35183, Note_on_c, 0, 38, 70
2, 35188, Note_on_c, 0, 62, 98
2, 35189, Note_on_c, 0, 74, 101
2, 35205, Control_c, 0, 64, 0
2, 35217, Note_on_c, 0, 62, 0
2, 35218, Control_c, 0, 64, 57
2, 35222, Note_on_c, 0, 74, 0
2, 35230, Control_c, 0, 64, 127
2, 35242, Note_on_c, 0, 45, 72
2, 35249, Note_on_c, 0, 76, 98
2, 35250, Note_on_c, 0, 64, 83
2, 35266, Note_on_c, 0, 76, 0
2, 35268, Note_on_c, 0, 64, 0
2, 35272, Note_on_c, 0, 38, 0
2, 35292, Note_on_c, 0, 45, 0
2, 35296, Note_on_c, 0, 50, 70
2, 35302, Note_on_c, 0, 74, 95
2, 35302, Note_on_c, 0, 62, 93
2, 35320, Note_on_c, 0, 62, 0
2, 35321, Note_on_c, 0, 74, 0
2, 35342, Note_on_c, 0, 50, 0
2, 35351, Note_on_c, 0, 54, 75
2, 35382, Note_on_c, 0, 54, 0
2, 35403, Note_on_c, 0, 50, 80
2, 35405, Note_on_c, 0, 57, 95
2, 35406, Note_on_c, 0, 69, 76
2, 35415, Note_on_c, 0, 57, 0
2, 35419, Note_on_c, 0, 69, 0
2, 35428, Note_on_c, 0, 50, 0
2, 35452, Note_on_c, 0, 45, 85
2, 35472, Note_on_c, 0, 45, 0
2, 35506, Control_c, 0, 64, 118
2, 35510, Note_on_c, 0, 43, 74
2, 35511, Note_on_c, 0, 58, 80
2, 35512, Note_on_c, 0, 70, 75
2, 35526, Control_c, 0, 64, 0
2, 35564, Control_c, 0, 64, 114
2, 35565, Note_on_c, 0, 49, 70
2, 35577, Control_c, 0, 64, 127
2, 35579, Note_on_c, 0, 43, 0
2, 35606, Note_on_c, 0, 58, 0
2, 35608, Note_on_c, 0, 49, 0
2, 35612, Note_on_c, 0, 70, 0
2, 35615, Note_on_c, 0, 52, 74
2, 35652, Note_on_c, 0, 52, 0
2, 35670, Note_on_c, 0, 58, 75
2, 35690, Note_on_c, 0, 58, 0
2, 35719, Note_on_c, 0, 52, 70
2, 35752, Note_on_c, 0, 52, 0
2, 35771, Note_on_c, 0, 49, 75
2, 35799, Note_on_c, 0, 49, 0
2, 35820, Control_c, 0, 64, 125
2, 35825, Note_on_c, 0, 44, 62
2, 35825, Note_on_c, 0, 72, 64
2, 35826, Note_on_c, 0, 60, 59
2, 35836, Control_c, 0, 64, 17
2, 35849, Control_c, 0, 64, 0
2, 35862, Control_c, 0, 64, 66
2, 35875, Control_c, 0, 64, 127
2, 35878, Note_on_c, 0, 51, 78
2, 35885, Note_on_c, 0, 44, 0
2, 35935, Note_on_c, 0, 54, 67
2, 35959, Note_on_c, 0, 51, 0
2, 35980, Note_on_c, 0, 54, 0
2, 35994, Note_on_c, 0, 57, 80
2, 36024, Note_on_c, 0, 57, 0
2, 36052, Note_on_c, 0, 56, 88
2, 36065, Note_on_c, 0, 56, 0
2, 36083, Note_on_c, 0, 60, 0
2, 36085, Note_on_c, 0, 72, 0
2, 36115, Note_on_c, 0, 44, 78
2, 36150, Note_on_c, 0, 44, 0
2, 36185, Note_on_c, 0, 37, 56
2, 36195, Note_on_c, 0, 61, 80
2, 36195, Control_c, 0, 64, 58
2, 36197, Note_on_c, 0, 73, 83
2, 36211, Control_c, 0, 64, 0
2, 36223, Control_c, 0, 64, 48
2, 36236, Control_c, 0, 64, 127
2, 36258, Note_on_c, 0, 44, 67
2, 36259, Note_on_c, 0, 37, 0
2, 36293, Note_on_c, 0, 61, 0
2, 36303, Note_on_c, 0, 73, 0
2, 36316, Note_on_c, 0, 49, 70
2, 36336, Note_on_c, 0, 44, 0
2, 36355, Note_on_c, 0, 49, 0
2, 36375, Note_on_c, 0, 56, 67
2, 36400, Note_on_c, 0, 56, 0
2, 36427, Note_on_c, 0, 49, 75
2, 36455, Note_on_c, 0, 49, 0
2, 36480, Note_on_c, 0, 44, 73
2, 36522, Note_on_c, 0, 44, 0
2, 36532, Note_on_c, 0, 77, 93
2, 36532, Note_on_c, 0, 65, 85
2, 36535, Note_on_c, 0, 71, 72
2, 36536, Note_on_c, 0, 37, 67
2, 36547, Control_c, 0, 64, 28
2, 36560, Control_c, 0, 64, 0
2, 36573, Control_c, 0, 64, 44
2, 36586, Control_c, 0, 64, 127
2, 36594, Note_on_c, 0, 44, 70
2, 36603, Note_on_c, 0, 37, 0
2, 36651, Note_on_c, 0, 49, 75
2, 36670, Note_on_c, 0, 44, 0
2, 36698, Note_on_c, 0, 49, 0
2, 36700, Note_on_c, 0, 56, 68
2, 36725, Note_on_c, 0, 56, 0
2, 36747, Note_on_c, 0, 49, 80
2, 36747, Note_on_c, 0, 75, 114
2, 36751, Note_on_c, 0, 77, 0
2, 36778, Note_on_c, 0, 49, 0
2, 36778, Note_on_c, 0, 75, 0
2, 36794, Note_on_c, 0, 77, 104
2, 36794, Note_on_c, 0, 44, 86
2, 36820, Note_on_c, 0, 77, 0
2, 36820, Note_on_c, 0, 65, 0
2, 36829, Note_on_c, 0, 71, 0
2, 36831, Note_on_c, 0, 44, 0
2, 36842, Control_c, 0, 64, 122
2, 36844, Note_on_c, 0, 65, 70
2, 36845, Note_on_c, 0, 71, 101
2, 36846, Note_on_c, 0, 75, 114
2, 36847, Note_on_c, 0, 37, 70
2, 36864, Control_c, 0, 64, 0
2, 36877, Control_c, 0, 64, 73
2, 36890, Control_c, 0, 64, 127
2, 36899, Note_on_c, 0, 44, 78
2, 36900, Note_on_c, 0, 37, 0
2, 36950, Note_on_c, 0, 49, 83
2, 36966, Note_on_c, 0, 44, 0
2, 36982, Note_on_c, 0, 49, 0
2, 37000, Note_on_c, 0, 56, 70
2, 37017, Note_on_c, 0, 65, 0
2, 37023, Note_on_c, 0, 56, 0
2, 37028, Note_on_c, 0, 71, 0
2, 37029, Note_on_c, 0, 75, 0
2, 37043, Note_on_c, 0, 73, 125
2, 37044, Note_on_c, 0, 49, 86
2, 37066, Note_on_c, 0, 73, 0
2, 37074, Note_on_c, 0, 49, 0
2, 37092, Note_on_c, 0, 44, 83
2, 37129, Note_on_c, 0, 44, 0
2, 37149, Note_on_c, 0, 37, 83
2, 37149, Note_on_c, 0, 71, 98
2, 37152, Note_on_c, 0, 80, 104
2, 37163, Control_c, 0, 64, 35
2, 37176, Control_c, 0, 64, 0
2, 37188, Control_c, 0, 64, 48
2, 37200, Control_c, 0, 64, 127
2, 37210, Note_on_c, 0, 37, 0
2, 37210, Note_on_c, 0, 44, 78
2, 37260, Note_on_c, 0, 49, 88
2, 37268, Note_on_c, 0, 44, 0
2, 37277, Note_on_c, 0, 80, 0
2, 37278, Note_on_c, 0, 71, 0
2, 37294, Note_on_c, 0, 49, 0
2, 37300, Note_on_c, 0, 73, 121
2, 37300, Note_on_c, 0, 82, 111
2, 37304, Note_on_c, 0, 56, 80
2, 37321, Note_on_c, 0, 73, 0
2, 37325, Note_on_c, 0, 56, 0
2, 37325, Note_on_c, 0, 82, 0
2, 37346, Note_on_c, 0, 49, 88
2, 37348, Note_on_c, 0, 71, 98
2, 37350, Note_on_c, 0, 80, 111
2, 37371, Note_on_c, 0, 71, 0
2, 37373, Note_on_c, 0, 80, 0
2, 37375, Note_on_c, 0, 49, 0
2, 37396, Note_on_c, 0, 44, 91
2, 37396, Note_on_c, 0, 82, 107
2, 37397, Note_on_c, 0, 73, 121
2, 37415, Note_on_c, 0, 82, 0
2, 37416, Note_on_c, 0, 73, 0
2, 37433, Note_on_c, 0, 44, 0
2, 37441, Note_on_c, 0, 37, 78
2, 37442, Note_on_c, 0, 80, 117
2, 37442, Note_on_c, 0, 71, 101
2, 37454, Control_c, 0, 64, 34
2, 37466, Control_c, 0, 64, 21
2, 37479, Control_c, 0, 64, 127
2, 37494, Note_on_c, 0, 44, 80
2, 37497, Note_on_c, 0, 37, 0
2, 37499, Note_on_c, 0, 80, 0
2, 37509, Note_on_c, 0, 71, 0
2, 37539, Note_on_c, 0, 49, 83
2, 37551, Note_on_c, 0, 44, 0
2, 37577, Note_on_c, 0, 49, 0
2, 37586, Note_on_c, 0, 56, 83
2, 37608, Note_on_c, 0, 56, 0
2, 37628, Note_on_c, 0, 49, 91
2, 37661, Note_on_c, 0, 49, 0
2, 37674, Note_on_c, 0, 44, 83
2, 37712, Note_on_c, 0, 44, 0
2, 37716, Control_c, 0, 64, 105
2, 37719, Note_on_c, 0, 37, 78
2, 37721, Note_on_c, 0, 71, 88
2, 37721, Note_on_c, 0, 65, 93
2, 37721, Note_on_c, 0, 77, 95
2, 37732, Control_c, 0, 64, 6
2, 37745, Control_c, 0, 64, 0
2, 37758, Control_c, 0, 64, 63
2, 37771, Control_c, 0, 64, 127
2, 37772, Note_on_c, 0, 44, 78
2, 37775, Note_on_c, 0, 37, 0
2, 37821, Note_on_c, 0, 49, 83
2, 37835, Note_on_c, 0, 44, 0
2, 37854, Note_on_c, 0, 49, 0
2, 37865, Note_on_c, 0, 56, 78
2, 37892, Note_on_c, 0, 56, 0
2, 37909, Note_on_c, 0, 77, 0
2, 37913, Note_on_c, 0, 75, 107
2, 37913, Note_on_c, 0, 49, 86
2, 37944, Note_on_c, 0, 49, 0
2, 37948, Note_on_c, 0, 75, 0
2, 37958, Note_on_c, 0, 44, 86
2, 37960, Note_on_c, 0, 77, 101
2, 37992, Note_on_c, 0, 77, 0
2, 38001, Note_on_c, 0, 44, 0
2, 38007, Note_on_c, 0, 75, 121
2, 38011, Note_on_c, 0, 37, 80
2, 38017, Control_c, 0, 64, 50
2, 38030, Control_c, 0, 64, 22
2, 38043, Control_c, 0, 64, 127
2, 38052, Note_on_c, 0, 37, 0
2, 38054, Note_on_c, 0, 44, 66
2, 38056, Note_on_c, 0, 75, 0
2, 38064, Note_on_c, 0, 71, 0
2, 38067, Note_on_c, 0, 65, 0
2, 38102, Note_on_c, 0, 65, 93
2, 38104, Note_on_c, 0, 71, 101
2, 38106, Note_on_c, 0, 49, 71
2, 38119, Note_on_c, 0, 44, 0
2, 38126, Note_on_c, 0, 65, 0
2, 38136, Note_on_c, 0, 71, 0
2, 38141, Note_on_c, 0, 49, 0
2, 38150, Note_on_c, 0, 56, 73
2, 38175, Note_on_c, 0, 56, 0
2, 38199, Note_on_c, 0, 49, 82
2, 38204, Note_on_c, 0, 73, 117
2, 38227, Note_on_c, 0, 73, 0
2, 38230, Note_on_c, 0, 49, 0
2, 38247, Note_on_c, 0, 44, 76
2, 38293, Note_on_c, 0, 44, 0
2, 38302, Note_on_c, 0, 37, 73
2, 38304, Note_on_c, 0, 71, 107
2, 38306, Note_on_c, 0, 80, 117
2, 38316, Control_c, 0, 64, 56
2, 38328, Control_c, 0, 64, 1
2, 38342, Note_on_c, 0, 71, 0
2, 38342, Control_c, 0, 64, 102
2, 38343, Note_on_c, 0, 80, 0
2, 38354, Control_c, 0, 64, 127
2, 38355, Note_on_c, 0, 37, 0
2, 38355, Note_on_c, 0, 44, 73
2, 38361, Note_on_c, 0, 82, 114
2, 38361, Note_on_c, 0, 73, 114
2, 38385, Note_on_c, 0, 82, 0
2, 38387, Note_on_c, 0, 73, 0
2, 38406, Note_on_c, 0, 49, 85
2, 38409, Note_on_c, 0, 80, 117
2, 38410, Note_on_c, 0, 71, 104
2, 38417, Note_on_c, 0, 44, 0
2, 38430, Note_on_c, 0, 71, 0
2, 38432, Note_on_c, 0, 80, 0
2, 38441, Note_on_c, 0, 49, 0
2, 38451, Note_on_c, 0, 56, 71
2, 38457, Note_on_c, 0, 82, 111
2, 38457, Note_on_c, 0, 73, 127
2, 38472, Note_on_c, 0, 56, 0
2, 38473, Note_on_c, 0, 73, 0
2, 38475, Note_on_c, 0, 82, 0
2, 38492, Note_on_c, 0, 49, 71
2, 38499, Note_on_c, 0, 71, 116
2, 38502, Note_on_c, 0, 80, 117
2, 38520, Note_on_c, 0, 80, 0
2, 38520, Note_on_c, 0, 71, 0
2, 38524, Note_on_c, 0, 49, 0
2, 38536, Note_on_c, 0, 44, 76
2, 38542, Note_on_c, 0, 82, 117
2, 38545, Note_on_c, 0, 73, 127
2, 38562, Note_on_c, 0, 82, 0
2, 38564, Note_on_c, 0, 73, 0
2, 38581, Note_on_c, 0, 44, 0
2, 38583, Note_on_c, 0, 37, 80
2, 38588, Note_on_c, 0, 71, 116
2, 38588, Note_on_c, 0, 80, 125
2, 38599, Control_c, 0, 64, 25
2, 38612, Control_c, 0, 64, 9
2, 38626, Control_c, 0, 64, 124
2, 38631, Note_on_c, 0, 44, 76
2, 38632, Note_on_c, 0, 37, 0
2, 38642, Note_on_c, 0, 71, 0
2, 38642, Control_c, 0, 64, 127
2, 38644, Note_on_c, 0, 80, 0
2, 38675, Note_on_c, 0, 49, 82
2, 38692, Note_on_c, 0, 44, 0
2, 38710, Note_on_c, 0, 49, 0
2, 38721, Note_on_c, 0, 56, 85
2, 38748, Note_on_c, 0, 56, 0
2, 38769, Note_on_c, 0, 49, 85
2, 38799, Note_on_c, 0, 49, 0
2, 38814, Note_on_c, 0, 44, 80
2, 38855, Note_on_c, 0, 44, 0
2, 38864, Note_on_c, 0, 37, 80
2, 38865, Note_on_c, 0, 85, 122
2, 38865, Note_on_c, 0, 89, 110
2, 38872, Control_c, 0, 64, 46
2, 38885, Control_c, 0, 64, 0
2, 38898, Control_c, 0, 64, 82
2, 38910, Control_c, 0, 64, 127
2, 38919, Note_on_c, 0, 37, 0
2, 38919, Note_on_c, 0, 44, 71
2, 38969, Note_on_c, 0, 49, 76
2, 38986, Note_on_c, 0, 44, 0
2, 38992, Note_on_c, 0, 89, 0
2, 38998, Note_on_c, 0, 85, 0
2, 39005, Note_on_c, 0, 49, 0
2, 39012, Note_on_c, 0, 56, 77
2, 39019, Note_on_c, 0, 87, 119
2, 39020, Note_on_c, 0, 83, 93
2, 39036, Note_on_c, 0, 56, 0
2, 39038, Note_on_c, 0, 83, 0
2, 39042, Note_on_c, 0, 87, 0
2, 39060, Note_on_c, 0, 49, 82
2, 39068, Note_on_c, 0, 83, 107
2, 39071, Note_on_c, 0, 80, 111
2, 39094, Note_on_c, 0, 49, 0
2, 39097, Note_on_c, 0, 83, 0
2, 39100, Note_on_c, 0, 80, 0
2, 39113, Note_on_c, 0, 44, 80
2, 39116, Note_on_c, 0, 77, 121
2, 39116, Note_on_c, 0, 80, 72
2, 39133, Note_on_c, 0, 80, 0
2, 39139, Note_on_c, 0, 77, 0
2, 39153, Note_on_c, 0, 44, 0
2, 39162, Note_on_c, 0, 37, 77
2, 39164, Note_on_c, 0, 77, 99
2, 39166, Note_on_c, 0, 71, 110
2, 39177, Control_c, 0, 64, 98
2, 39190, Control_c, 0, 64, 5
2, 39201, Control_c, 0, 64, 0
2, 39214, Note_on_c, 0, 77, 0
2, 39214, Note_on_c, 0, 44, 71
2, 39215, Note_on_c, 0, 37, 0
2, 39215, Control_c, 0, 64, 97
2, 39228, Control_c, 0, 64, 127
2, 39259, Note_on_c, 0, 49, 76
2, 39274, Note_on_c, 0, 44, 0
2, 39298, Note_on_c, 0, 49, 0
2, 39305, Note_on_c, 0, 56, 66
2, 39329, Note_on_c, 0, 56, 0
2, 39350, Note_on_c, 0, 78, 107
2, 39351, Note_on_c, 0, 75, 104
2, 39354, Note_on_c, 0, 49, 77
2, 39377, Note_on_c, 0, 75, 0
2, 39378, Note_on_c, 0, 78, 0
2, 39380, Note_on_c, 0, 49, 0
2, 39401, Note_on_c, 0, 44, 71
2, 39442, Note_on_c, 0, 44, 0
2, 39444, Control_c, 0, 64, 121
2, 39448, Note_on_c, 0, 37, 71
2, 39450, Note_on_c, 0, 78, 91
2, 39451, Note_on_c, 0, 82, 91
2, 39458, Control_c, 0, 64, 30
2, 39471, Control_c, 0, 64, 0
2, 39484, Control_c, 0, 64, 47
2, 39496, Control_c, 0, 64, 127
2, 39506, Note_on_c, 0, 37, 0
2, 39506, Note_on_c, 0, 44, 60
2, 39532, Note_on_c, 0, 71, 0
2, 39536, Note_on_c, 0, 82, 0
2, 39541, Note_on_c, 0, 78, 0
2, 39552, Note_on_c, 0, 49, 62
2, 39568, Note_on_c, 0, 44, 0
2, 39589, Note_on_c, 0, 49, 0
2, 39599, Note_on_c, 0, 56, 65
2, 39621, Note_on_c, 0, 56, 0
2, 39646, Note_on_c, 0, 49, 73
2, 39674, Note_on_c, 0, 49, 0
2, 39691, Note_on_c, 0, 44, 60
2, 39727, Note_on_c, 0, 44, 0
2, 39740, Note_on_c, 0, 37, 54
2, 39744, Control_c, 0, 64, 48
2, 39744, Note_on_c, 0, 77, 83
2, 39746, Note_on_c, 0, 80, 91
2, 39760, Control_c, 0, 64, 0
2, 39772, Control_c, 0, 64, 97
2, 39784, Note_on_c, 0, 37, 0
2, 39785, Control_c, 0, 64, 127
2, 39786, Note_on_c, 0, 80, 0
2, 39786, Note_on_c, 0, 77, 0
2, 39789, Note_on_c, 0, 44, 59
2, 39837, Note_on_c, 0, 49, 62
2, 39843, Note_on_c, 0, 44, 0
2, 39871, Note_on_c, 0, 49, 0
2, 39886, Note_on_c, 0, 56, 55
2, 39904, Note_on_c, 0, 56, 0
2, 39935, Note_on_c, 0, 49, 66
2, 39963, Note_on_c, 0, 49, 0
2, 39982, Note_on_c, 0, 44, 62
2, 40020, Note_on_c, 0, 44, 0
2, 40022, Control_c, 0, 64, 119
2, 40026, Note_on_c, 0, 73, 97
2, 40027, Note_on_c, 0, 77, 93
2, 40032, Note_on_c, 0, 37, 48
2, 40041, Control_c, 0, 64, 13
2, 40054, Control_c, 0, 64, 5
2, 40067, Control_c, 0, 64, 123
2, 40078, Note_on_c, 0, 37, 0
2, 40079, Note_on_c, 0, 44, 60
2, 40085, Control_c, 0, 64, 127
2, 40124, Note_on_c, 0, 49, 62
2, 40140, Note_on_c, 0, 77, 0
2, 40146, Note_on_c, 0, 44, 0
2, 40147, Note_on_c, 0, 73, 0
2, 40154, Note_on_c, 0, 49, 0
2, 40170, Note_on_c, 0, 56, 56
2, 40172, Note_on_c, 0, 71, 95
2, 40174, Note_on_c, 0, 75, 111
2, 40182, Note_on_c, 0, 56, 0
2, 40192, Note_on_c, 0, 75, 0
2, 40193, Note_on_c, 0, 71, 0
2, 40214, Note_on_c, 0, 49, 76
2, 40219, Note_on_c, 0, 71, 88
2, 40221, Note_on_c, 0, 68, 91
2, 40245, Note_on_c, 0, 71, 0
2, 40246, Note_on_c, 0, 49, 0
2, 40248, Note_on_c, 0, 68, 0
2, 40262, Note_on_c, 0, 44, 72
2, 40264, Note_on_c, 0, 68, 80
2, 40272, Note_on_c, 0, 65, 80
2, 40289, Note_on_c, 0, 68, 0
2, 40290, Note_on_c, 0, 65, 0
2, 40301, Note_on_c, 0, 44, 0
2, 40314, Note_on_c, 0, 65, 58
2, 40314, Note_on_c, 0, 37, 70
2, 40320, Note_on_c, 0, 59, 93
2, 40325, Control_c, 0, 64, 118
2, 40336, Control_c, 0, 64, 19
2, 40349, Control_c, 0, 64, 0
2, 40359, Note_on_c, 0, 65, 0
2, 40362, Control_c, 0, 64, 70
2, 40364, Note_on_c, 0, 37, 0
2, 40365, Note_on_c, 0, 44, 70
2, 40379, Control_c, 0, 64, 127
2, 40415, Note_on_c, 0, 49, 60
2, 40426, Note_on_c, 0, 44, 0
2, 40448, Note_on_c, 0, 49, 0
2, 40463, Note_on_c, 0, 56, 59
2, 40488, Note_on_c, 0, 56, 0
2, 40510, Note_on_c, 0, 63, 88
2, 40512, Note_on_c, 0, 66, 83
2, 40514, Note_on_c, 0, 49, 78
2, 40533, Note_on_c, 0, 66, 0
2, 40534, Note_on_c, 0, 63, 0
2, 40537, Note_on_c, 0, 49, 0
2, 40562, Note_on_c, 0, 44, 73
2, 40604, Note_on_c, 0, 44, 0
2, 40611, Control_c, 0, 64, 62
2, 40613, Note_on_c, 0, 66, 80
2, 40613, Note_on_c, 0, 37, 61
2, 40616, Note_on_c, 0, 70, 83
2, 40630, Control_c, 0, 64, 0
2, 40655, Control_c, 0, 64, 110
2, 40668, Note_on_c, 0, 44, 67
2, 40669, Control_c, 0, 64, 127
2, 40671, Note_on_c, 0, 37, 0
2, 40684, Note_on_c, 0, 59, 0
2, 40694, Note_on_c, 0, 70, 0
2, 40702, Note_on_c, 0, 66, 0
2, 40716, Note_on_c, 0, 49, 75
2, 40725, Note_on_c, 0, 44, 0
2, 40746, Note_on_c, 0, 49, 0
2, 40768, Note_on_c, 0, 56, 60
2, 40783, Note_on_c, 0, 56, 0
2, 40817, Note_on_c, 0, 49, 68
2, 40842, Note_on_c, 0, 49, 0
2, 40867, Note_on_c, 0, 44, 58
2, 40912, Control_c, 0, 64, 70
2, 40918, Note_on_c, 0, 49, 70
2, 40921, Note_on_c, 0, 65, 76
2, 40922, Note_on_c, 0, 68, 83
2, 40925, Note_on_c, 0, 44, 0
2, 40930, Control_c, 0, 64, 13
2, 40942, Control_c, 0, 64, 115
2, 40955, Control_c, 0, 64, 127
2, 40965, Note_on_c, 0, 49, 0
2, 40977, Note_on_c, 0, 56, 68
2, 41012, Note_on_c, 0, 56, 0
2, 41032, Note_on_c, 0, 61, 65
2, 41064, Note_on_c, 0, 61, 0
2, 41085, Note_on_c, 0, 56, 61
2, 41103, Note_on_c, 0, 68, 0
2, 41104, Note_on_c, 0, 65, 0
2, 41115, Note_on_c, 0, 56, 0
2, 41133, Note_on_c, 0, 49, 58
2, 41166, Note_on_c, 0, 49, 0
2, 41187, Note_on_c, 0, 44, 58
2, 41217, Control_c, 0, 64, 71
2, 41230, Control_c, 0, 64, 0
2, 41241, Note_on_c, 0, 49, 59
2, 41245, Control_c, 0, 64, 32
2, 41252, Note_on_c, 0, 44, 0
2, 41255, Control_c, 0, 64, 127
2, 41272, Note_on_c, 0, 49, 0
2, 41288, Note_on_c, 0, 56, 58
2, 41320, Note_on_c, 0, 56, 0
2, 41346, Note_on_c, 0, 61, 50
2, 41368, Note_on_c, 0, 61, 0
2, 41395, Note_on_c, 0, 56, 59
2, 41421, Note_on_c, 0, 56, 0
2, 41445, Note_on_c, 0, 49, 61
2, 41480, Note_on_c, 0, 49, 0
2, 41501, Note_on_c, 0, 44, 53
2, 41537, Control_c, 0, 64, 86
2, 41550, Control_c, 0, 64, 2
2, 41552, Note_on_c, 0, 49, 54
2, 41567, Note_on_c, 0, 44, 0
2, 41570, Control_c, 0, 64, 95
2, 41583, Control_c, 0, 64, 127
2, 41594, Note_on_c, 0, 49, 0
2, 41606, Note_on_c, 0, 56, 61
2, 41626, Note_on_c, 0, 56, 0
2, 41664, Note_on_c, 0, 61, 53
2, 41694, Note_on_c, 0, 61, 0
2, 41713, Note_on_c, 0, 56, 63
2, 41748, Note_on_c, 0, 56, 0
2, 41767, Note_on_c, 0, 49, 56
2, 41800, Note_on_c, 0, 49, 0
2, 41822, Note_on_c, 0, 44, 59
2, 41844, Control_c, 0, 64, 120
2, 41857, Control_c, 0, 64, 14
2, 41870, Control_c, 0, 64, 1
2, 41880, Note_on_c, 0, 49, 55
2, 41884, Control_c, 0, 64, 107
2, 41892, Note_on_c, 0, 44, 0
2, 41895, Control_c, 0, 64, 127
2, 41919, Note_on_c, 0, 49, 0
2, 41930, Note_on_c, 0, 56, 60
2, 41966, Note_on_c, 0, 56, 0
2, 41987, Note_on_c, 0, 61, 59
2, 42018, Note_on_c, 0, 61, 0
2, 42038, Note_on_c, 0, 56, 51
2, 42068, Note_on_c, 0, 56, 0
2, 42090, Note_on_c, 0, 49, 62
2, 42129, Note_on_c, 0, 49, 0
2, 42145, Note_on_c, 0, 44, 53
2, 42172, Control_c, 0, 64, 104
2, 42185, Control_c, 0, 64, 7
2, 42198, Control_c, 0, 64, 2
2, 42205, Note_on_c, 0, 49, 50
2, 42210, Control_c, 0, 64, 102
2, 42218, Note_on_c, 0, 44, 0
2, 42223, Control_c, 0, 64, 127
2, 42239, Note_on_c, 0, 49, 0
2, 42266, Note_on_c, 0, 56, 44
2, 42281, Note_on_c, 0, 56, 0
2, 42326, Note_on_c, 0, 61, 45
2, 42365, Note_on_c, 0, 61, 0
2, 42378, Note_on_c, 0, 56, 50
2, 42416, Note_on_c, 0, 56, 0
2, 42444, Note_on_c, 0, 49, 57
2, 42472, Note_on_c, 0, 49, 0
2, 42496, Note_on_c, 0, 44, 52
2, 42527, Note_on_c, 0, 44, 0
2, 42556, Note_on_c, 0, 49, 59
2, 42560, Control_c, 0, 64, 78
2, 42560, Note_on_c, 0, 77, 70
2, 42561, Note_on_c, 0, 73, 78
2, 42571, Control_c, 0, 64, 7
2, 42584, Control_c, 0, 64, 96
2, 42589, Note_on_c, 0, 49, 0
2, 42596, Control_c, 0, 64, 127
2, 42613, Note_on_c, 0, 56, 62
2, 42651, Note_on_c, 0, 56, 0
2, 42664, Note_on_c, 0, 61, 58
2, 42684, Note_on_c, 0, 77, 0
2, 42700, Note_on_c, 0, 61, 0
2, 42704, Note_on_c, 0, 73, 0
2, 42719, Note_on_c, 0, 56, 60
2, 42750, Note_on_c, 0, 56, 0
2, 42770, Note_on_c, 0, 68, 83
2, 42771, Note_on_c, 0, 75, 91
2, 42775, Note_on_c, 0, 49, 61
2, 42798, Note_on_c, 0, 75, 0
2, 42798, Note_on_c, 0, 68, 0
2, 42801, Note_on_c, 0, 49, 0
2, 42819, Note_on_c, 0, 73, 97
2, 42821, Note_on_c, 0, 44, 55
2, 42824, Note_on_c, 0, 77, 95
2, 42845, Note_on_c, 0, 77, 0
2, 42849, Note_on_c, 0, 44, 0
2, 42856, Note_on_c, 0, 73, 0
2, 42860, Control_c, 0, 64, 126
2, 42872, Control_c, 0, 64, 28
2, 42874, Note_on_c, 0, 49, 62
2, 42874, Note_on_c, 0, 75, 91
2, 42875, Note_on_c, 0, 68, 91
2, 42892, Control_c, 0, 64, 38
2, 42904, Control_c, 0, 64, 127
2, 42916, Note_on_c, 0, 49, 0
2, 42930, Note_on_c, 0, 56, 62
2, 42950, Note_on_c, 0, 75, 0
2, 42951, Note_on_c, 0, 68, 0
2, 42967, Note_on_c, 0, 56, 0
2, 42980, Note_on_c, 0, 61, 63
2, 43007, Note_on_c, 0, 61, 0
2, 43025, Note_on_c, 0, 56, 78
2, 43054, Note_on_c, 0, 56, 0
2, 43077, Note_on_c, 0, 65, 78
2, 43081, Note_on_c, 0, 73, 80
2, 43082, Note_on_c, 0, 49, 65
2, 43100, Note_on_c, 0, 65, 0
2, 43104, Note_on_c, 0, 73, 0
2, 43110, Note_on_c, 0, 49, 0
2, 43129, Note_on_c, 0, 44, 58
2, 43156, Note_on_c, 0, 44, 0
2, 43167, Control_c, 0, 64, 126
2, 43179, Note_on_c, 0, 49, 63
2, 43180, Note_on_c, 0, 80, 88
2, 43183, Note_on_c, 0, 77, 74
2, 43192, Control_c, 0, 64, 19
2, 43202, Control_c, 0, 64, 0
2, 43228, Control_c, 0, 64, 97
2, 43236, Note_on_c, 0, 49, 0
2, 43239, Note_on_c, 0, 56, 58
2, 43243, Control_c, 0, 64, 127
2, 43290, Note_on_c, 0, 56, 0
2, 43293, Note_on_c, 0, 61, 68
2, 43312, Note_on_c, 0, 77, 0
2, 43315, Note_on_c, 0, 80, 0
2, 43321, Note_on_c, 0, 61, 0
2, 43336, Note_on_c, 0, 82, 86
2, 43339, Note_on_c, 0, 78, 78
2, 43343, Note_on_c, 0, 56, 61
2, 43368, Note_on_c, 0, 78, 0
2, 43368, Note_on_c, 0, 82, 0
2, 43373, Note_on_c, 0, 56, 0
2, 43390, Note_on_c, 0, 80, 88
2, 43391, Note_on_c, 0, 77, 83
2, 43391, Note_on_c, 0, 49, 61
2, 43413, Note_on_c, 0, 77, 0
2, 43417, Note_on_c, 0, 80, 0
2, 43421, Note_on_c, 0, 49, 0
2, 43436, Note_on_c, 0, 78, 94
2, 43437, Note_on_c, 0, 44, 60
2, 43442, Note_on_c, 0, 82, 73
2, 43463, Note_on_c, 0, 44, 0
2, 43466, Note_on_c, 0, 82, 0
2, 43468, Note_on_c, 0, 78, 0
2, 43479, Control_c, 0, 64, 59
2, 43487, Note_on_c, 0, 49, 67
2, 43489, Note_on_c, 0, 77, 85
2, 43489, Note_on_c, 0, 80, 86
2, 43495, Control_c, 0, 64, 0
2, 43506, Control_c, 0, 64, 70
2, 43519, Control_c, 0, 64, 127
2, 43528, Note_on_c, 0, 49, 0
2, 43541, Note_on_c, 0, 56, 60
2, 43542, Note_on_c, 0, 80, 0
2, 43543, Note_on_c, 0, 77, 0
2, 43576, Note_on_c, 0, 56, 0
2, 43591, Note_on_c, 0, 61, 60
2, 43611, Note_on_c, 0, 61, 0
2, 43647, Note_on_c, 0, 56, 62
2, 43672, Note_on_c, 0, 56, 0
2, 43690, Note_on_c, 0, 49, 61
2, 43721, Note_on_c, 0, 49, 0
2, 43745, Note_on_c, 0, 44, 55
2, 43772, Note_on_c, 0, 44, 0
2, 43787, Control_c, 0, 64, 86
2, 43792, Note_on_c, 0, 77, 88
2, 43794, Note_on_c, 0, 49, 67
2, 43794, Note_on_c, 0, 73, 88
2, 43801, Control_c, 0, 64, 1
2, 43814, Control_c, 0, 64, 0
2, 43827, Control_c, 0, 64, 91
2, 43837, Note_on_c, 0, 49, 0
2, 43840, Control_c, 0, 64, 127
2, 43849, Note_on_c, 0, 56, 62
2, 43864, Note_on_c, 0, 77, 0
2, 43882, Note_on_c, 0, 73, 0
2, 43891, Note_on_c, 0, 56, 0
2, 43899, Note_on_c, 0, 61, 60
2, 43933, Note_on_c, 0, 61, 0
2, 43949, Note_on_c, 0, 56, 62
2, 43981, Note_on_c, 0, 56, 0
2, 43997, Note_on_c, 0, 68, 88
2, 44001, Note_on_c, 0, 75, 91
2, 44004, Note_on_c, 0, 49, 65
2, 44022, Note_on_c, 0, 68, 0
2, 44023, Note_on_c, 0, 75, 0
2, 44031, Note_on_c, 0, 49, 0
2, 44048, Note_on_c, 0, 44, 60
2, 44048, Note_on_c, 0, 73, 100
2, 44050, Note_on_c, 0, 77, 90
2, 44070, Note_on_c, 0, 77, 0
2, 44072, Note_on_c, 0, 44, 0
2, 44075, Note_on_c, 0, 73, 0
2, 44089, Control_c, 0, 64, 65
2, 44093, Note_on_c, 0, 49, 75
2, 44098, Note_on_c, 0, 68, 91
2, 44098, Note_on_c, 0, 75, 88
2, 44112, Control_c, 0, 64, 0
2, 44124, Control_c, 0, 64, 103
2, 44138, Control_c, 0, 64, 127
2, 44141, Note_on_c, 0, 49, 0
2, 44153, Note_on_c, 0, 56, 61
2, 44161, Note_on_c, 0, 75, 0
2, 44164, Note_on_c, 0, 68, 0
2, 44191, Note_on_c, 0, 56, 0
2, 44199, Note_on_c, 0, 61, 70
2, 44228, Note_on_c, 0, 61, 0
2, 44245, Note_on_c, 0, 56, 80
2, 44272, Note_on_c, 0, 56, 0
2, 44293, Note_on_c, 0, 65, 90
2, 44294, Note_on_c, 0, 49, 63
2, 44296, Note_on_c, 0, 73, 97
2, 44312, Note_on_c, 0, 65, 0
2, 44320, Note_on_c, 0, 73, 0
2, 44323, Note_on_c, 0, 49, 0
2, 44338, Note_on_c, 0, 44, 73
2, 44364, Note_on_c, 0, 44, 0
2, 44390, Note_on_c, 0, 49, 70
2, 44394, Note_on_c, 0, 77, 95
2, 44397, Note_on_c, 0, 80, 97
2, 44406, Control_c, 0, 64, 24
2, 44419, Control_c, 0, 64, 3
2, 44425, Note_on_c, 0, 77, 0
2, 44427, Note_on_c, 0, 80, 0
2, 44432, Control_c, 0, 64, 114
2, 44435, Note_on_c, 0, 49, 0
2, 44444, Control_c, 0, 64, 127
2, 44446, Note_on_c, 0, 56, 65
2, 44446, Note_on_c, 0, 82, 100
2, 44448, Note_on_c, 0, 78, 91
2, 44478, Note_on_c, 0, 82, 0
2, 44479, Note_on_c, 0, 78, 0
2, 44487, Note_on_c, 0, 56, 0
2, 44495, Note_on_c, 0, 61, 68
2, 44497, Note_on_c, 0, 77, 93
2, 44499, Note_on_c, 0, 80, 100
2, 44520, Note_on_c, 0, 80, 0
2, 44520, Note_on_c, 0, 77, 0
2, 44522, Note_on_c, 0, 61, 0
2, 44543, Note_on_c, 0, 56, 73
2, 44544, Note_on_c, 0, 82, 100
2, 44545, Note_on_c, 0, 78, 100
2, 44572, Note_on_c, 0, 78, 0
2, 44572, Note_on_c, 0, 82, 0
2, 44574, Note_on_c, 0, 56, 0
2, 44589, Note_on_c, 0, 77, 88
2, 44592, Note_on_c, 0, 80, 107
2, 44592, Note_on_c, 0, 49, 63
2, 44609, Note_on_c, 0, 77, 0
2, 44613, Note_on_c, 0, 80, 0
2, 44619, Note_on_c, 0, 49, 0
2, 44635, Note_on_c, 0, 78, 107
2, 44636, Note_on_c, 0, 44, 73
2, 44639, Note_on_c, 0, 82, 91
2, 44661, Note_on_c, 0, 82, 0
2, 44662, Note_on_c, 0, 44, 0
2, 44664, Note_on_c, 0, 78, 0
2, 44672, Control_c, 0, 64, 56
2, 44684, Note_on_c, 0, 77, 95
2, 44685, Note_on_c, 0, 49, 70
2, 44685, Note_on_c, 0, 80, 104
2, 44697, Control_c, 0, 64, 12
2, 44709, Control_c, 0, 64, 106
2, 44724, Control_c, 0, 64, 127
2, 44725, Note_on_c, 0, 49, 0
2, 44736, Note_on_c, 0, 56, 67
2, 44772, Note_on_c, 0, 56, 0
2, 44784, Note_on_c, 0, 61, 67
2, 44812, Note_on_c, 0, 61, 0
2, 44834, Note_on_c, 0, 56, 78
2, 44867, Note_on_c, 0, 56, 0
2, 44882, Note_on_c, 0, 80, 0
2, 44883, Note_on_c, 0, 77, 0
2, 44885, Note_on_c, 0, 49, 63
2, 44915, Note_on_c, 0, 49, 0
2, 44931, Note_on_c, 0, 44, 83
2, 44961, Note_on_c, 0, 44, 0
2, 44986, Control_c, 0, 64, 113
2, 44995, Note_on_c, 0, 85, 111
2, 44996, Note_on_c, 0, 89, 95
2, 44996, Note_on_c, 0, 49, 70
2, 45008, Control_c, 0, 64, 2
2, 45021, Control_c, 0, 64, 73
2, 45034, Control_c, 0, 64, 127
2, 45046, Note_on_c, 0, 49, 0
2, 45053, Note_on_c, 0, 56, 67
2, 45098, Note_on_c, 0, 56, 0
2, 45109, Note_on_c, 0, 61, 75
2, 45112, Note_on_c, 0, 89, 0
2, 45120, Note_on_c, 0, 85, 0
2, 45137, Note_on_c, 0, 61, 0
2, 45154, Note_on_c, 0, 87, 117
2, 45157, Note_on_c, 0, 80, 104
2, 45163, Note_on_c, 0, 56, 63
2, 45176, Note_on_c, 0, 80, 0
2, 45178, Note_on_c, 0, 87, 0
2, 45191, Note_on_c, 0, 56, 0
2, 45202, Note_on_c, 0, 77, 107
2, 45204, Note_on_c, 0, 85, 125
2, 45208, Note_on_c, 0, 49, 67
2, 45221, Note_on_c, 0, 77, 0
2, 45230, Note_on_c, 0, 85, 0
2, 45238, Note_on_c, 0, 49, 0
2, 45254, Note_on_c, 0, 44, 67
2, 45256, Note_on_c, 0, 77, 98
2, 45256, Note_on_c, 0, 80, 114
2, 45270, Note_on_c, 0, 80, 0
2, 45270, Note_on_c, 0, 77, 0
2, 45284, Note_on_c, 0, 44, 0
2, 45300, Control_c, 0, 64, 118
2, 45310, Note_on_c, 0, 77, 101
2, 45311, Note_on_c, 0, 49, 70
2, 45313, Note_on_c, 0, 73, 111
2, 45321, Control_c, 0, 64, 36
2, 45332, Control_c, 0, 64, 22
2, 45343, Note_on_c, 0, 73, 0
2, 45344, Note_on_c, 0, 77, 0
2, 45345, Control_c, 0, 64, 127
2, 45357, Note_on_c, 0, 49, 0
2, 45368, Note_on_c, 0, 56, 75
2, 45412, Note_on_c, 0, 56, 0
2, 45418, Note_on_c, 0, 61, 68
2, 45447, Note_on_c, 0, 61, 0
2, 45468, Note_on_c, 0, 56, 70
2, 45499, Note_on_c, 0, 56, 0
2, 45517, Note_on_c, 0, 49, 70
2, 45517, Note_on_c, 0, 75, 104
2, 45521, Note_on_c, 0, 78, 86
2, 45539, Note_on_c, 0, 75, 0
2, 45544, Note_on_c, 0, 78, 0
2, 45544, Note_on_c, 0, 49, 0
2, 45565, Note_on_c, 0, 44, 60
2, 45593, Note_on_c, 0, 44, 0
2, 45614, Control_c, 0, 64, 90
2, 45620, Note_on_c, 0, 49, 70
2, 45622, Note_on_c, 0, 78, 91
2, 45623, Note_on_c, 0, 82, 75
2, 45640, Control_c, 0, 64, 0
2, 45651, Control_c, 0, 64, 67
2, 45670, Note_on_c, 0, 49, 0
2, 45672, Control_c, 0, 64, 127
2, 45680, Note_on_c, 0, 56, 63
2, 45727, Note_on_c, 0, 56, 0
2, 45734, Note_on_c, 0, 61, 65
2, 45763, Note_on_c, 0, 61, 0
2, 45786, Note_on_c, 0, 56, 54
2, 45817, Note_on_c, 0, 56, 0
2, 45835, Note_on_c, 0, 49, 65
2, 45845, Note_on_c, 0, 82, 0
2, 45856, Note_on_c, 0, 78, 0
2, 45868, Note_on_c, 0, 49, 0
2, 45888, Note_on_c, 0, 44, 53
2, 45914, Note_on_c, 0, 44, 0
2, 45941, Control_c, 0, 64, 98
2, 45944, Note_on_c, 0, 49, 65
2, 45945, Note_on_c, 0, 77, 88
2, 45946, Note_on_c, 0, 80, 94
2, 45960, Control_c, 0, 64, 0
2, 45972, Control_c, 0, 64, 79
2, 45985, Control_c, 0, 64, 127
2, 45989, Note_on_c, 0, 49, 0
2, 46004, Note_on_c, 0, 56, 65
2, 46044, Note_on_c, 0, 56, 0
2, 46052, Note_on_c, 0, 80, 0
2, 46054, Note_on_c, 0, 77, 0
2, 46059, Note_on_c, 0, 61, 62
2, 46088, Note_on_c, 0, 61, 0
2, 46107, Note_on_c, 0, 56, 61
2, 46142, Note_on_c, 0, 56, 0
2, 46161, Note_on_c, 0, 49, 61
2, 46194, Note_on_c, 0, 49, 0
2, 46211, Note_on_c, 0, 44, 60
2, 46242, Note_on_c, 0, 44, 0
2, 46254, Control_c, 0, 64, 126
2, 46265, Note_on_c, 0, 73, 100
2, 46266, Note_on_c, 0, 77, 95
2, 46267, Note_on_c, 0, 49, 73
2, 46275, Control_c, 0, 64, 20
2, 46286, Control_c, 0, 64, 18
2, 46299, Control_c, 0, 64, 125
2, 46312, Control_c, 0, 64, 127
2, 46318, Note_on_c, 0, 49, 0
2, 46328, Note_on_c, 0, 56, 61
2, 46351, Note_on_c, 0, 77, 0
2, 46354, Note_on_c, 0, 73, 0
2, 46363, Note_on_c, 0, 56, 0
2, 46386, Note_on_c, 0, 61, 68
2, 46420, Note_on_c, 0, 61, 0
2, 46447, Note_on_c, 0, 56, 55
2, 46474, Note_on_c, 0, 56, 0
2, 46511, Note_on_c, 0, 49, 60
2, 46546, Note_on_c, 0, 49, 0
2, 46565, Note_on_c, 0, 45, 63
2, 46574, Control_c, 0, 64, 48
2, 46587, Control_c, 0, 64, 0
2, 46599, Control_c, 0, 64, 88
2, 46612, Control_c, 0, 64, 127
2, 46622, Note_on_c, 0, 49, 60
2, 46644, Note_on_c, 0, 45, 0
2, 46662, Note_on_c, 0, 49, 0
2, 46671, Note_on_c, 0, 57, 64
2, 46709, Note_on_c, 0, 57, 0
2, 46718, Note_on_c, 0, 61, 68
2, 46746, Note_on_c, 0, 61, 0
2, 46767, Note_on_c, 0, 57, 58
2, 46795, Note_on_c, 0, 57, 0
2, 46816, Note_on_c, 0, 49, 68
2, 46848, Note_on_c, 0, 49, 0
2, 46860, Control_c, 0, 64, 120
2, 46866, Note_on_c, 0, 44, 63
2, 46872, Control_c, 0, 64, 17
2, 46885, Control_c, 0, 64, 1
2, 46898, Control_c, 0, 64, 108
2, 46910, Control_c, 0, 64, 127
2, 46916, Note_on_c, 0, 49, 65
2, 46925, Note_on_c, 0, 44, 0
2, 46948, Note_on_c, 0, 49, 0
2, 46966, Note_on_c, 0, 56, 61
2, 47000, Note_on_c, 0, 56, 0
2, 47010, Note_on_c, 0, 61, 61
2, 47038, Note_on_c, 0, 61, 0
2, 47062, Note_on_c, 0, 56, 70
2, 47088, Note_on_c, 0, 56, 0
2, 47102, Note_on_c, 0, 49, 50
2, 47136, Note_on_c, 0, 49, 0
2, 47148, Note_on_c, 0, 42, 70
2, 47154, Control_c, 0, 64, 123
2, 47167, Control_c, 0, 64, 24
2, 47180, Control_c, 0, 64, 14
2, 47193, Control_c, 0, 64, 125
2, 47197, Note_on_c, 0, 42, 0
2, 47199, Note_on_c, 0, 49, 68
2, 47206, Control_c, 0, 64, 127
2, 47235, Note_on_c, 0, 49, 0
2, 47247, Note_on_c, 0, 54, 65
2, 47274, Note_on_c, 0, 54, 0
2, 47290, Note_on_c, 0, 61, 70
2, 47324, Note_on_c, 0, 61, 0
2, 47334, Note_on_c, 0, 54, 65
2, 47373, Note_on_c, 0, 54, 0
2, 47380, Note_on_c, 0, 49, 75
2, 47417, Note_on_c, 0, 49, 0
2, 47428, Note_on_c, 0, 44, 62
2, 47436, Control_c, 0, 64, 32
2, 47449, Control_c, 0, 64, 0
2, 47462, Control_c, 0, 64, 47
2, 47474, Control_c, 0, 64, 127
2, 47477, Note_on_c, 0, 49, 67
2, 47484, Note_on_c, 0, 44, 0
2, 47510, Note_on_c, 0, 49, 0
2, 47524, Note_on_c, 0, 56, 63
2, 47562, Note_on_c, 0, 56, 0
2, 47574, Note_on_c, 0, 61, 53
2, 47597, Note_on_c, 0, 61, 0
2, 47624, Note_on_c, 0, 56, 73
2, 47649, Note_on_c, 0, 56, 0
2, 47669, Note_on_c, 0, 49, 67
2, 47714, Note_on_c, 0, 49, 0
2, 47718, Control_c, 0, 64, 104
2, 47720, Note_on_c, 0, 45, 66
2, 47731, Control_c, 0, 64, 4
2, 47744, Control_c, 0, 64, 0
2, 47756, Control_c, 0, 64, 88
2, 47769, Control_c, 0, 64, 127
2, 47770, Note_on_c, 0, 49, 59
2, 47787, Note_on_c, 0, 45, 0
2, 47811, Note_on_c, 0, 49, 0
2, 47823, Note_on_c, 0, 57, 68
2, 47852, Note_on_c, 0, 57, 0
2, 47870, Note_on_c, 0, 61, 55
2, 47892, Note_on_c, 0, 61, 0
2, 47921, Note_on_c, 0, 57, 72
2, 47949, Note_on_c, 0, 57, 0
2, 47972, Note_on_c, 0, 49, 59
2, 48010, Note_on_c, 0, 49, 0
2, 48025, Control_c, 0, 64, 84
2, 48028, Note_on_c, 0, 45, 64
2, 48037, Control_c, 0, 64, 0
2, 48063, Control_c, 0, 64, 99
2, 48076, Control_c, 0, 64, 127
2, 48082, Note_on_c, 0, 49, 62
2, 48096, Note_on_c, 0, 45, 0
2, 48129, Note_on_c, 0, 49, 0
2, 48142, Note_on_c, 0, 57, 52
2, 48187, Note_on_c, 0, 57, 0
2, 48205, Note_on_c, 0, 61, 53
2, 48237, Note_on_c, 0, 61, 0
2, 48281, Note_on_c, 0, 57, 45
2, 48308, Note_on_c, 0, 57, 0
2, 48355, Note_on_c, 0, 49, 56
2, 48368, Note_on_c, 0, 49, 0
2, 48448, Control_c, 0, 64, 124
2, 48453, Note_on_c, 0, 46, 55
2, 48460, Control_c, 0, 64, 25
2, 48474, Control_c, 0, 64, 3
2, 48486, Control_c, 0, 64, 105
2, 48499, Control_c, 0, 64, 127
2, 48560, Note_on_c, 0, 49, 50
2, 48564, Note_on_c, 0, 82, 68
2, 48575, Note_on_c, 0, 46, 0
2, 48611, Note_on_c, 0, 49, 0
2, 48674, Note_on_c, 0, 84, 83
2, 48675, Note_on_c, 0, 53, 51
2, 48726, Note_on_c, 0, 53, 0
2, 48749, Note_on_c, 0, 61, 59
2, 48750, Note_on_c, 0, 85, 94
2, 48751, Note_on_c, 0, 84, 0
2, 48778, Note_on_c, 0, 82, 0
2, 48788, Note_on_c, 0, 61, 0
2, 48812, Note_on_c, 0, 85, 0
2, 48819, Note_on_c, 0, 81, 78
2, 48820, Note_on_c, 0, 58, 58
2, 48881, Note_on_c, 0, 81, 0
2, 48893, Note_on_c, 0, 65, 51
2, 48894, Note_on_c, 0, 82, 73
2, 48910, Note_on_c, 0, 65, 0
2, 48922, Note_on_c, 0, 58, 0
2, 48981, Note_on_c, 0, 53, 52
2, 48989, Note_on_c, 0, 78, 58
2, 49000, Note_on_c, 0, 53, 0
2, 49002, Note_on_c, 0, 82, 0
2, 49066, Control_c, 0, 64, 121
2, 49079, Control_c, 0, 64, 20
2, 49085, Note_on_c, 0, 78, 0
2, 49089, Note_on_c, 0, 77, 72
2, 49091, Note_on_c, 0, 46, 51
2, 49092, Control_c, 0, 64, 0
2, 49108, Control_c, 0, 64, 49
2, 49120, Control_c, 0, 64, 127
2, 49137, Note_on_c, 0, 46, 0
2, 49173, Note_on_c, 0, 53, 60
2, 49230, Note_on_c, 0, 53, 0
2, 49230, Note_on_c, 0, 77, 0
2, 49247, Note_on_c, 0, 61, 62
2, 49252, Note_on_c, 0, 77, 74
2, 49277, Note_on_c, 0, 61, 0
2, 49315, Note_on_c, 0, 58, 57
2, 49329, Note_on_c, 0, 77, 0
2, 49386, Note_on_c, 0, 65, 55
2, 49390, Note_on_c, 0, 77, 85
2, 49396, Note_on_c, 0, 58, 0
2, 49400, Note_on_c, 0, 65, 0
2, 49457, Note_on_c, 0, 53, 70
2, 49469, Note_on_c, 0, 53, 0
2, 49470, Note_on_c, 0, 77, 0
2, 49544, Control_c, 0, 64, 73
2, 49545, Note_on_c, 0, 77, 80
2, 49545, Note_on_c, 0, 46, 57
2, 49556, Control_c, 0, 64, 0
2, 49569, Control_c, 0, 64, 8
2, 49581, Control_c, 0, 64, 115
2, 49594, Control_c, 0, 64, 127
2, 49606, Note_on_c, 0, 46, 0
2, 49632, Note_on_c, 0, 53, 54
2, 49651, Note_on_c, 0, 53, 0
2, 49706, Note_on_c, 0, 77, 0
2, 49712, Note_on_c, 0, 78, 75
2, 49716, Note_on_c, 0, 63, 52
2, 49749, Note_on_c, 0, 63, 0
2, 49778, Note_on_c, 0, 77, 88
2, 49783, Note_on_c, 0, 78, 0
2, 49784, Note_on_c, 0, 57, 59
2, 49827, Note_on_c, 0, 77, 0
2, 49837, Note_on_c, 0, 65, 61
2, 49840, Note_on_c, 0, 75, 94
2, 49849, Note_on_c, 0, 57, 0
2, 49859, Note_on_c, 0, 65, 0
2, 49894, Note_on_c, 0, 75, 0
2, 49895, Note_on_c, 0, 53, 72
2, 49897, Note_on_c, 0, 72, 78
2, 49907, Note_on_c, 0, 53, 0
2, 49949, Note_on_c, 0, 72, 0
2, 49956, Control_c, 0, 64, 36
2, 49959, Note_on_c, 0, 73, 80
2, 49959, Note_on_c, 0, 46, 58
2, 49969, Control_c, 0, 64, 0
2, 49982, Control_c, 0, 64, 25
2, 49994, Control_c, 0, 64, 127
2, 50003, Note_on_c, 0, 46, 0
2, 50030, Note_on_c, 0, 53, 51
2, 50031, Note_on_c, 0, 73, 0
2, 50088, Note_on_c, 0, 53, 0
2, 50097, Note_on_c, 0, 61, 56
2, 50126, Note_on_c, 0, 61, 0
2, 50167, Note_on_c, 0, 58, 50
2, 50245, Note_on_c, 0, 70, 80
2, 50249, Note_on_c, 0, 65, 50
2, 50262, Note_on_c, 0, 65, 0
2, 50262, Note_on_c, 0, 70, 0
2, 50265, Note_on_c, 0, 58, 0
2, 50327, Note_on_c, 0, 53, 61
2, 50345, Note_on_c, 0, 53, 0
2, 50405, Control_c, 0, 64, 99
2, 50413, Note_on_c, 0, 82, 86
2, 50413, Note_on_c, 0, 46, 63
2, 50418, Control_c, 0, 64, 4
2, 50430, Control_c, 0, 64, 0
2, 50443, Control_c, 0, 64, 70
2, 50456, Control_c, 0, 64, 127
2, 50477, Note_on_c, 0, 46, 0
2, 50507, Note_on_c, 0, 84, 88
2, 50508, Note_on_c, 0, 53, 64
2, 50564, Note_on_c, 0, 53, 0
2, 50574, Note_on_c, 0, 84, 0
2, 50574, Note_on_c, 0, 85, 100
2, 50578, Note_on_c, 0, 61, 65
2, 50605, Note_on_c, 0, 82, 0
2, 50609, Note_on_c, 0, 61, 0
2, 50623, Note_on_c, 0, 85, 0
2, 50635, Note_on_c, 0, 58, 61
2, 50636, Note_on_c, 0, 81, 95
2, 50678, Note_on_c, 0, 81, 0
2, 50695, Note_on_c, 0, 84, 88
2, 50695, Note_on_c, 0, 65, 63
2, 50717, Note_on_c, 0, 65, 0
2, 50726, Note_on_c, 0, 58, 0
2, 50745, Note_on_c, 0, 82, 80
2, 50757, Note_on_c, 0, 84, 0
2, 50774, Note_on_c, 0, 53, 64
2, 50796, Note_on_c, 0, 53, 0
2, 50796, Note_on_c, 0, 78, 80
2, 50803, Note_on_c, 0, 82, 0
2, 50831, Control_c, 0, 64, 125
2, 50836, Note_on_c, 0, 78, 0
2, 50837, Note_on_c, 0, 77, 83
2, 50841, Note_on_c, 0, 46, 59
2, 50847, Control_c, 0, 64, 33
2, 50860, Control_c, 0, 64, 15
2, 50872, Control_c, 0, 64, 120
2, 50877, Note_on_c, 0, 46, 0
2, 50885, Control_c, 0, 64, 127
2, 50888, Note_on_c, 0, 78, 75
2, 50901, Note_on_c, 0, 77, 0
2, 50912, Note_on_c, 0, 53, 66
2, 50936, Note_on_c, 0, 78, 0
2, 50936, Note_on_c, 0, 76, 74
2, 50974, Note_on_c, 0, 53, 0
2, 50982, Note_on_c, 0, 76, 0
2, 50984, Note_on_c, 0, 77, 93
2, 50994, Note_on_c, 0, 61, 60
2, 51000, Note_on_c, 0, 77, 0
2, 51028, Note_on_c, 0, 61, 0
2, 51045, Note_on_c, 0, 101, 95
2, 51084, Note_on_c, 0, 58, 53
2, 51108, Note_on_c, 0, 101, 0
2, 51115, Note_on_c, 0, 100, 93
2, 51166, Note_on_c, 0, 99, 97
2, 51167, Note_on_c, 0, 65, 61
2, 51171, Note_on_c, 0, 100, 0
2, 51186, Note_on_c, 0, 65, 0
2, 51194, Note_on_c, 0, 58, 0
2, 51209, Note_on_c, 0, 97, 91
2, 51218, Note_on_c, 0, 99, 0
2, 51240, Note_on_c, 0, 53, 72
2, 51247, Note_on_c, 0, 96, 80
2, 51251, Note_on_c, 0, 97, 0
2, 51268, Note_on_c, 0, 53, 0
2, 51272, Note_on_c, 0, 96, 0
2, 51282, Note_on_c, 0, 94, 91
2, 51308, Note_on_c, 0, 46, 62
2, 51312, Note_on_c, 0, 93, 88
2, 51325, Note_on_c, 0, 94, 0
2, 51337, Note_on_c, 0, 93, 0
2, 51340, Note_on_c, 0, 90, 91
2, 51343, Note_on_c, 0, 46, 0
2, 51362, Note_on_c, 0, 89, 101
2, 51366, Note_on_c, 0, 90, 0
2, 51380, Note_on_c, 0, 53, 56
2, 51383, Note_on_c, 0, 88, 90
2, 51385, Note_on_c, 0, 89, 0
2, 51404, Note_on_c, 0, 87, 111
2, 51406, Note_on_c, 0, 88, 0
2, 51431, Note_on_c, 0, 85, 117
2, 51432, Note_on_c, 0, 87, 0
2, 51440, Note_on_c, 0, 53, 0
2, 51447, Note_on_c, 0, 84, 85
2, 51448, Note_on_c, 0, 63, 73
2, 51453, Note_on_c, 0, 85, 0
2, 51466, Note_on_c, 0, 84, 0
2, 51476, Note_on_c, 0, 63, 0
2, 51476, Note_on_c, 0, 82, 104
2, 51497, Note_on_c, 0, 82, 0
2, 51499, Note_on_c, 0, 81, 101
2, 51502, Note_on_c, 0, 57, 61
2, 51515, Note_on_c, 0, 81, 0
2, 51523, Note_on_c, 0, 78, 104
2, 51545, Note_on_c, 0, 78, 0
2, 51545, Note_on_c, 0, 77, 90
2, 51556, Note_on_c, 0, 65, 53
2, 51564, Note_on_c, 0, 77, 0
2, 51576, Note_on_c, 0, 65, 0
2, 51576, Note_on_c, 0, 78, 78
2, 51582, Note_on_c, 0, 57, 0
2, 51586, Note_on_c, 0, 78, 0
2, 51586, Note_on_c, 0, 76, 95
2, 51608, Note_on_c, 0, 76, 0
2, 51620, Note_on_c, 0, 77, 83
2, 51629, Note_on_c, 0, 53, 70
2, 51647, Note_on_c, 0, 71, 93
2, 51652, Note_on_c, 0, 77, 0
2, 51664, Note_on_c, 0, 53, 0
2, 51671, Note_on_c, 0, 71, 0
2, 51674, Note_on_c, 0, 72, 88
2, 51700, Note_on_c, 0, 72, 0
2, 51700, Note_on_c, 0, 77, 95
2, 51727, Note_on_c, 0, 75, 97
2, 51735, Note_on_c, 0, 77, 0
2, 51740, Note_on_c, 0, 73, 96
2, 51751, Note_on_c, 0, 75, 0
2, 51758, Note_on_c, 0, 73, 0
2, 51765, Note_on_c, 0, 46, 68
2, 51770, Note_on_c, 0, 73, 86
2, 51777, Control_c, 0, 64, 93
2, 51788, Control_c, 0, 64, 0
2, 51801, Control_c, 0, 64, 88
2, 51813, Control_c, 0, 64, 127
2, 51838, Note_on_c, 0, 73, 0
2, 51852, Note_on_c, 0, 46, 0
2, 51864, Note_on_c, 0, 53, 60
2, 51918, Note_on_c, 0, 53, 0
2, 51937, Note_on_c, 0, 61, 56
2, 51965, Note_on_c, 0, 61, 0
2, 52000, Note_on_c, 0, 58, 56
2, 52083, Note_on_c, 0, 70, 97
2, 52083, Note_on_c, 0, 65, 54
2, 52098, Note_on_c, 0, 65, 0
2, 52108, Note_on_c, 0, 58, 0
2, 52163, Note_on_c, 0, 53, 56
2, 52176, Note_on_c, 0, 53, 0
2, 52213, Note_on_c, 0, 70, 0
2, 52248, Note_on_c, 0, 46, 54
2, 52252, Note_on_c, 0, 82, 97
2, 52252, Control_c, 0, 64, 42
2, 52270, Control_c, 0, 64, 0
2, 52294, Control_c, 0, 64, 81
2, 52307, Control_c, 0, 64, 127
2, 52335, Note_on_c, 0, 46, 0
2, 52345, Note_on_c, 0, 53, 58
2, 52369, Note_on_c, 0, 82, 0
2, 52403, Note_on_c, 0, 53, 0
2, 52422, Note_on_c, 0, 82, 94
2, 52424, Note_on_c, 0, 61, 61
2, 52452, Note_on_c, 0, 61, 0
2, 52478, Note_on_c, 0, 82, 0
2, 52487, Note_on_c, 0, 58, 61
2, 52550, Note_on_c, 0, 82, 97
2, 52550, Note_on_c, 0, 65, 59
2, 52563, Note_on_c, 0, 65, 0
2, 52571, Note_on_c, 0, 58, 0
2, 52607, Note_on_c, 0, 53, 68
2, 52620, Note_on_c, 0, 53, 0
2, 52629, Note_on_c, 0, 82, 0
2, 52676, Note_on_c, 0, 46, 67
2, 52678, Note_on_c, 0, 82, 94
2, 52681, Control_c, 0, 64, 56
2, 52692, Control_c, 0, 64, 0
2, 52704, Control_c, 0, 64, 52
2, 52713, Note_on_c, 0, 46, 0
2, 52717, Control_c, 0, 64, 127
2, 52745, Note_on_c, 0, 53, 66
2, 52769, Note_on_c, 0, 53, 0
2, 52812, Note_on_c, 0, 62, 66
2, 52852, Note_on_c, 0, 62, 0
2, 52879, Note_on_c, 0, 58, 67
2, 52917, Note_on_c, 0, 58, 0
2, 52964, Note_on_c, 0, 68, 59
2, 52966, Note_on_c, 0, 74, 101
2, 52967, Note_on_c, 0, 82, 0
2, 52982, Note_on_c, 0, 68, 0
2, 53038, Note_on_c, 0, 58, 68
2, 53047, Note_on_c, 0, 58, 0
2, 53064, Note_on_c, 0, 74, 0
2, 53127, Control_c, 0, 64, 123
2, 53132, Note_on_c, 0, 51, 63
2, 53136, Note_on_c, 0, 75, 88
2, 53141, Control_c, 0, 64, 23
2, 53152, Control_c, 0, 64, 0
2, 53165, Control_c, 0, 64, 30
2, 53178, Control_c, 0, 64, 127
2, 53218, Note_on_c, 0, 54, 53
2, 53220, Note_on_c, 0, 77, 83
2, 53223, Note_on_c, 0, 75, 0
2, 53237, Note_on_c, 0, 51, 0
2, 53271, Note_on_c, 0, 75, 80
2, 53282, Note_on_c, 0, 54, 0
2, 53286, Note_on_c, 0, 77, 0
2, 53289, Note_on_c, 0, 63, 65
2, 53321, Note_on_c, 0, 74, 78
2, 53323, Note_on_c, 0, 75, 0
2, 53324, Note_on_c, 0, 63, 0
2, 53353, Note_on_c, 0, 58, 59
2, 53368, Note_on_c, 0, 75, 88
2, 53374, Note_on_c, 0, 74, 0
2, 53408, Note_on_c, 0, 58, 0
2, 53422, Note_on_c, 0, 78, 100
2, 53424, Note_on_c, 0, 66, 60
2, 53439, Note_on_c, 0, 75, 0
2, 53458, Note_on_c, 0, 66, 0
2, 53514, Note_on_c, 0, 63, 68
2, 53526, Note_on_c, 0, 63, 0
2, 53535, Note_on_c, 0, 78, 0
2, 53565, Note_on_c, 0, 77, 95
2, 53598, Note_on_c, 0, 77, 0
2, 53616, Note_on_c, 0, 48, 58
2, 53617, Control_c, 0, 64, 108
2, 53621, Note_on_c, 0, 77, 68
2, 53630, Control_c, 0, 64, 10
2, 53643, Control_c, 0, 64, 2
2, 53655, Control_c, 0, 64, 98
2, 53668, Control_c, 0, 64, 127
2, 53698, Note_on_c, 0, 48, 0
2, 53700, Note_on_c, 0, 55, 51
2, 53751, Note_on_c, 0, 55, 0
2, 53768, Note_on_c, 0, 64, 63
2, 53804, Note_on_c, 0, 64, 0
2, 53836, Note_on_c, 0, 60, 63
2, 53860, Note_on_c, 0, 60, 0
2, 53908, Note_on_c, 0, 76, 85
2, 53912, Note_on_c, 0, 70, 60
2, 53916, Note_on_c, 0, 77, 0
2, 53921, Note_on_c, 0, 76, 0
2, 53927, Note_on_c, 0, 70, 0
2, 53986, Note_on_c, 0, 64, 60
2, 54000, Note_on_c, 0, 64, 0
2, 54040, Control_c, 0, 64, 120
2, 54051, Note_on_c, 0, 53, 64
2, 54054, Control_c, 0, 64, 23
2, 54061, Note_on_c, 0, 77, 68
2, 54066, Control_c, 0, 64, 30
2, 54078, Control_c, 0, 64, 126
2, 54088, Note_on_c, 0, 78, 78
2, 54089, Note_on_c, 0, 77, 0
2, 54091, Control_c, 0, 64, 127
2, 54107, Note_on_c, 0, 78, 0
2, 54110, Note_on_c, 0, 77, 70
2, 54119, Note_on_c, 0, 60, 64
2, 54127, Note_on_c, 0, 78, 82
2, 54133, Note_on_c, 0, 77, 0
2, 54138, Note_on_c, 0, 53, 0
2, 54144, Note_on_c, 0, 60, 0
2, 54151, Note_on_c, 0, 78, 0
2, 54151, Note_on_c, 0, 77, 85
2, 54167, Note_on_c, 0, 78, 83
2, 54177, Note_on_c, 0, 69, 78
2, 54180, Note_on_c, 0, 77, 0
2, 54194, Note_on_c, 0, 77, 93
2, 54199, Note_on_c, 0, 78, 0
2, 54211, Note_on_c, 0, 76, 97
2, 54213, Note_on_c, 0, 69, 0
2, 54221, Note_on_c, 0, 77, 0
2, 54245, Note_on_c, 0, 63, 86
2, 54259, Note_on_c, 0, 76, 0
2, 54262, Note_on_c, 0, 77, 110
2, 54302, Note_on_c, 0, 77, 0
2, 54302, Note_on_c, 0, 79, 104
2, 54320, Note_on_c, 0, 72, 66
2, 54345, Note_on_c, 0, 81, 110
2, 54351, Note_on_c, 0, 72, 0
2, 54362, Note_on_c, 0, 63, 0
2, 54386, Note_on_c, 0, 79, 0
2, 54390, Note_on_c, 0, 82, 100
2, 54401, Note_on_c, 0, 81, 0
2, 54409, Note_on_c, 0, 65, 70
2, 54429, Note_on_c, 0, 82, 0
2, 54439, Note_on_c, 0, 65, 0
2, 54440, Note_on_c, 0, 84, 104
2, 54493, Note_on_c, 0, 84, 0
2, 54504, Note_on_c, 0, 85, 117
2, 54506, Note_on_c, 0, 46, 68
2, 54517, Control_c, 0, 64, 56
2, 54529, Control_c, 0, 64, 0
2, 54542, Control_c, 0, 64, 103
2, 54556, Control_c, 0, 64, 127
2, 54564, Note_on_c, 0, 46, 0
2, 54590, Note_on_c, 0, 85, 0
2, 54598, Note_on_c, 0, 53, 72
2, 54650, Note_on_c, 0, 53, 0
2, 54661, Note_on_c, 0, 61, 75
2, 54690, Note_on_c, 0, 61, 0
2, 54718, Note_on_c, 0, 58, 73
2, 54769, Note_on_c, 0, 58, 0
2, 54775, Note_on_c, 0, 82, 100
2, 54776, Note_on_c, 0, 51, 75
2, 54784, Control_c, 0, 64, 78
2, 54796, Control_c, 0, 64, 0
2, 54808, Control_c, 0, 64, 83
2, 54812, Note_on_c, 0, 51, 0
2, 54820, Note_on_c, 0, 78, 94
2, 54822, Control_c, 0, 64, 127
2, 54837, Note_on_c, 0, 82, 0
2, 54848, Note_on_c, 0, 66, 88
2, 54849, Note_on_c, 0, 78, 0
2, 54860, Note_on_c, 0, 66, 0
2, 54864, Note_on_c, 0, 70, 100
2, 54908, Note_on_c, 0, 70, 0
2, 54921, Note_on_c, 0, 73, 114
2, 54923, Control_c, 0, 64, 94
2, 54930, Note_on_c, 0, 41, 44
2, 54936, Control_c, 0, 64, 1
2, 54949, Control_c, 0, 64, 0
2, 54962, Control_c, 0, 64, 67
2, 54975, Control_c, 0, 64, 127
2, 55009, Note_on_c, 0, 53, 52
2, 55012, Note_on_c, 0, 41, 0
2, 55067, Note_on_c, 0, 53, 0
2, 55085, Note_on_c, 0, 58, 54
2, 55160, Note_on_c, 0, 65, 45
2, 55161, Note_on_c, 0, 58, 0
2, 55186, Note_on_c, 0, 65, 0
2, 55242, Note_on_c, 0, 63, 61
2, 55246, Note_on_c, 0, 73, 0
2, 55246, Note_on_c, 0, 72, 74
2, 55282, Control_c, 0, 64, 108
2, 55295, Control_c, 0, 64, 6
2, 55308, Control_c, 0, 64, 0
2, 55321, Control_c, 0, 64, 87
2, 55334, Control_c, 0, 64, 127
2, 55347, Note_on_c, 0, 63, 0
2, 55355, Note_on_c, 0, 57, 54
2, 55379, Note_on_c, 0, 57, 0
2, 55396, Note_on_c, 0, 72, 0
2, 55405, Note_on_c, 0, 70, 97
2, 55462, Note_on_c, 0, 46, 70
2, 55462, Control_c, 0, 64, 93
2, 55474, Control_c, 0, 64, 2
2, 55488, Control_c, 0, 64, 14
2, 55499, Control_c, 0, 64, 127
2, 55520, Note_on_c, 0, 70, 0
2, 55522, Note_on_c, 0, 89, 104
2, 55539, Note_on_c, 0, 46, 0
2, 55556, Note_on_c, 0, 53, 63
2, 55557, Note_on_c, 0, 89, 0
2, 55612, Note_on_c, 0, 53, 0
2, 55628, Note_on_c, 0, 61, 78
2, 55658, Note_on_c, 0, 61, 0
2, 55687, Note_on_c, 0, 58, 73
2, 55694, Note_on_c, 0, 85, 94
2, 55750, Note_on_c, 0, 58, 0
2, 55755, Note_on_c, 0, 51, 83
2, 55757, Control_c, 0, 64, 69
2, 55760, Note_on_c, 0, 82, 91
2, 55769, Control_c, 0, 64, 0
2, 55782, Control_c, 0, 64, 22
2, 55794, Note_on_c, 0, 51, 0
2, 55794, Control_c, 0, 64, 124
2, 55803, Note_on_c, 0, 78, 100
2, 55808, Control_c, 0, 64, 127
2, 55811, Note_on_c, 0, 85, 0
2, 55819, Note_on_c, 0, 82, 0
2, 55827, Note_on_c, 0, 66, 88
2, 55833, Note_on_c, 0, 78, 0
2, 55849, Note_on_c, 0, 66, 0
2, 55857, Note_on_c, 0, 70, 80
2, 55897, Note_on_c, 0, 70, 0
2, 55909, Control_c, 0, 64, 126
2, 55914, Note_on_c, 0, 73, 100
2, 55916, Note_on_c, 0, 41, 57
2, 55923, Control_c, 0, 64, 27
2, 55935, Control_c, 0, 64, 0
2, 55961, Control_c, 0, 64, 84
2, 55974, Control_c, 0, 64, 127
2, 55993, Note_on_c, 0, 41, 0
2, 55997, Note_on_c, 0, 53, 66
2, 56046, Note_on_c, 0, 53, 0
2, 56074, Note_on_c, 0, 58, 59
2, 56152, Note_on_c, 0, 58, 0
2, 56152, Note_on_c, 0, 65, 59
2, 56180, Note_on_c, 0, 65, 0
2, 56235, Note_on_c, 0, 63, 65
2, 56244, Note_on_c, 0, 73, 0
2, 56245, Note_on_c, 0, 72, 72
2, 56256, Control_c, 0, 64, 94
2, 56268, Control_c, 0, 64, 2
2, 56282, Control_c, 0, 64, 0
2, 56294, Control_c, 0, 64, 90
2, 56307, Control_c, 0, 64, 127
2, 56321, Note_on_c, 0, 63, 0
2, 56340, Note_on_c, 0, 57, 64
2, 56363, Note_on_c, 0, 57, 0
2, 56385, Note_on_c, 0, 72, 0
2, 56392, Note_on_c, 0, 70, 91
2, 56440, Note_on_c, 0, 70, 0
2, 56464, Note_on_c, 0, 42, 75
2, 56473, Control_c, 0, 64, 120
2, 56486, Control_c, 0, 64, 18
2, 56499, Control_c, 0, 64, 4
2, 56511, Control_c, 0, 64, 113
2, 56525, Control_c, 0, 64, 127
2, 56531, Note_on_c, 0, 97, 100
2, 56555, Note_on_c, 0, 42, 0
2, 56569, Note_on_c, 0, 97, 0
2, 56571, Note_on_c, 0, 49, 58
2, 56656, Note_on_c, 0, 49, 0
2, 56665, Note_on_c, 0, 94, 104
2, 56665, Note_on_c, 0, 54, 58
2, 56735, Note_on_c, 0, 90, 97
2, 56744, Note_on_c, 0, 54, 0
2, 56752, Note_on_c, 0, 94, 0
2, 56772, Note_on_c, 0, 58, 58
2, 56776, Note_on_c, 0, 90, 0
2, 56796, Note_on_c, 0, 85, 97
2, 56817, Note_on_c, 0, 85, 0
2, 56857, Note_on_c, 0, 64, 64
2, 56858, Note_on_c, 0, 82, 80
2, 56878, Note_on_c, 0, 58, 0
2, 56885, Note_on_c, 0, 64, 0
2, 56907, Note_on_c, 0, 78, 73
2, 56913, Note_on_c, 0, 82, 0
2, 56926, Note_on_c, 0, 78, 0
2, 56931, Note_on_c, 0, 54, 59
2, 56943, Note_on_c, 0, 54, 0
2, 56961, Note_on_c, 0, 70, 65
2, 56989, Note_on_c, 0, 70, 0
2, 57012, Control_c, 0, 64, 110
2, 57015, Note_on_c, 0, 51, 57
2, 57016, Note_on_c, 0, 71, 78
2, 57025, Control_c, 0, 64, 8
2, 57037, Control_c, 0, 64, 0
2, 57050, Control_c, 0, 64, 81
2, 57063, Control_c, 0, 64, 127
2, 57090, Note_on_c, 0, 54, 54
2, 57107, Note_on_c, 0, 71, 0
2, 57113, Note_on_c, 0, 51, 0
2, 57148, Note_on_c, 0, 54, 0
2, 57164, Note_on_c, 0, 59, 44
2, 57182, Note_on_c, 0, 59, 0
2, 57242, Note_on_c, 0, 63, 59
2, 57281, Note_on_c, 0, 63, 0
2, 57319, Note_on_c, 0, 53, 40
2, 57328, Note_on_c, 0, 69, 78
2, 57332, Control_c, 0, 64, 61
2, 57345, Control_c, 0, 64, 0
2, 57370, Control_c, 0, 64, 87
2, 57383, Control_c, 0, 64, 127
2, 57414, Note_on_c, 0, 63, 68
2, 57416, Note_on_c, 0, 53, 0
2, 57424, Note_on_c, 0, 63, 0
2, 57444, Note_on_c, 0, 69, 0
2, 57512, Control_c, 0, 64, 98
2, 57517, Note_on_c, 0, 46, 60
2, 57519, Note_on_c, 0, 70, 73
2, 57524, Control_c, 0, 64, 6
2, 57537, Control_c, 0, 64, 21
2, 57550, Control_c, 0, 64, 123
2, 57562, Control_c, 0, 64, 127
2, 57590, Note_on_c, 0, 46, 0
2, 57613, Note_on_c, 0, 53, 51
2, 57657, Note_on_c, 0, 53, 0
2, 57683, Note_on_c, 0, 61, 60
2, 57710, Note_on_c, 0, 61, 0
2, 57747, Note_on_c, 0, 58, 56
2, 57817, Note_on_c, 0, 65, 59
2, 57830, Note_on_c, 0, 65, 0
2, 57839, Note_on_c, 0, 58, 0
2, 57887, Note_on_c, 0, 53, 68
2, 57898, Note_on_c, 0, 53, 0
2, 57911, Note_on_c, 0, 70, 0
2, 57960, Control_c, 0, 64, 122
2, 57968, Note_on_c, 0, 46, 58
2, 57973, Control_c, 0, 64, 19
2, 57974, Note_on_c, 0, 71, 93
2, 57986, Control_c, 0, 64, 0
2, 57997, Control_c, 0, 64, 82
2, 58011, Control_c, 0, 64, 127
2, 58037, Note_on_c, 0, 46, 0
2, 58050, Note_on_c, 0, 54, 56
2, 58106, Note_on_c, 0, 54, 0
2, 58121, Note_on_c, 0, 63, 63
2, 58153, Note_on_c, 0, 63, 0
2, 58184, Note_on_c, 0, 57, 64
2, 58223, Note_on_c, 0, 57, 0
2, 58232, Note_on_c, 0, 71, 0
2, 58261, Note_on_c, 0, 66, 70
2, 58263, Note_on_c, 0, 69, 76
2, 58282, Note_on_c, 0, 66, 0
2, 58340, Note_on_c, 0, 57, 70
2, 58349, Note_on_c, 0, 57, 0
2, 58367, Note_on_c, 0, 69, 0
2, 58419, Note_on_c, 0, 46, 61
2, 58422, Control_c, 0, 64, 88
2, 58429, Note_on_c, 0, 70, 78
2, 58434, Control_c, 0, 64, 2
2, 58446, Control_c, 0, 64, 0
2, 58471, Control_c, 0, 64, 57
2, 58484, Control_c, 0, 64, 127
2, 58496, Note_on_c, 0, 46, 0
2, 58519, Note_on_c, 0, 53, 50
2, 58567, Note_on_c, 0, 53, 0
2, 58589, Note_on_c, 0, 61, 49
2, 58606, Note_on_c, 0, 61, 0
2, 58651, Note_on_c, 0, 58, 56
2, 58664, Note_on_c, 0, 70, 0
2, 58721, Note_on_c, 0, 65, 40
2, 58733, Note_on_c, 0, 65, 0
2, 58742, Note_on_c, 0, 58, 0
2, 58788, Note_on_c, 0, 53, 61
2, 58801, Note_on_c, 0, 53, 0
2, 58862, Note_on_c, 0, 46, 65
2, 58869, Control_c, 0, 64, 39
2, 58881, Control_c, 0, 64, 0
2, 58883, Note_on_c, 0, 71, 70
2, 58894, Control_c, 0, 64, 85
2, 58908, Control_c, 0, 64, 127
2, 58912, Note_on_c, 0, 46, 0
2, 58920, Note_on_c, 0, 75, 86
2, 58927, Note_on_c, 0, 71, 0
2, 58948, Note_on_c, 0, 54, 65
2, 58956, Note_on_c, 0, 78, 107
2, 58969, Note_on_c, 0, 75, 0
2, 58980, Note_on_c, 0, 78, 0
2, 58996, Note_on_c, 0, 83, 104
2, 59010, Note_on_c, 0, 54, 0
2, 59022, Note_on_c, 0, 83, 0
2, 59043, Note_on_c, 0, 63, 60
2, 59044, Note_on_c, 0, 87, 117
2, 59077, Note_on_c, 0, 63, 0
2, 59139, Note_on_c, 0, 57, 61
2, 59262, Note_on_c, 0, 66, 58
2, 59266, Note_on_c, 0, 57, 0
2, 59276, Note_on_c, 0, 66, 0
2, 59277, Note_on_c, 0, 87, 0
2, 59390, Note_on_c, 0, 53, 51
2, 59391, Note_on_c, 0, 81, 74
2, 59396, Control_c, 0, 64, 47
2, 59407, Control_c, 0, 64, 0
2, 59420, Control_c, 0, 64, 7
2, 59433, Control_c, 0, 64, 114
2, 59446, Control_c, 0, 64, 127
2, 59456, Note_on_c, 0, 53, 0
2, 59530, Note_on_c, 0, 81, 0
2, 59534, Note_on_c, 0, 82, 78
2, 59536, Control_c, 0, 64, 99
2, 59538, Note_on_c, 0, 46, 55
2, 59548, Control_c, 0, 64, 8
2, 59561, Control_c, 0, 64, 32
2, 59574, Control_c, 0, 64, 127
2, 59593, Note_on_c, 0, 46, 0
2, 59649, Note_on_c, 0, 53, 47
2, 59705, Note_on_c, 0, 53, 0
2, 59734, Note_on_c, 0, 61, 59
2, 59768, Note_on_c, 0, 61, 0
2, 59814, Note_on_c, 0, 58, 52
2, 59901, Note_on_c, 0, 65, 53
2, 59909, Note_on_c, 0, 82, 0
2, 59911, Note_on_c, 0, 58, 0
2, 59918, Note_on_c, 0, 65, 0
2, 59990, Note_on_c, 0, 53, 68
2, 60004, Note_on_c, 0, 53, 0
2, 60086, Control_c, 0, 64, 103
2, 60087, Note_on_c, 0, 46, 59
2, 60099, Control_c, 0, 64, 5
2, 60101, Note_on_c, 0, 87, 104
2, 60102, Note_on_c, 0, 90, 97
2, 60112, Control_c, 0, 64, 0
2, 60125, Control_c, 0, 64, 80
2, 60137, Control_c, 0, 64, 127
2, 60169, Note_on_c, 0, 46, 0
2, 60197, Note_on_c, 0, 54, 67
2, 60273, Note_on_c, 0, 54, 0
2, 60274, Note_on_c, 0, 57, 74
2, 60315, Note_on_c, 0, 57, 0
2, 60340, Note_on_c, 0, 59, 83
2, 60358, Note_on_c, 0, 59, 0
2, 60406, Note_on_c, 0, 63, 83
2, 60473, Note_on_c, 0, 66, 91
2, 60503, Note_on_c, 0, 63, 0
2, 60549, Note_on_c, 0, 69, 85
2, 60555, Note_on_c, 0, 66, 0
2, 60559, Note_on_c, 0, 90, 0
2, 60567, Note_on_c, 0, 87, 0
2, 60595, Note_on_c, 0, 69, 0
2, 60632, Note_on_c, 0, 83, 74
2, 60633, Note_on_c, 0, 87, 107
2, 60657, Note_on_c, 0, 87, 0
2, 60664, Note_on_c, 0, 83, 0
2, 60724, Note_on_c, 0, 83, 76
2, 60727, Note_on_c, 0, 81, 98
2, 60746, Note_on_c, 0, 83, 0
2, 60752, Note_on_c, 0, 81, 0
2, 60792, Note_on_c, 0, 78, 91
2, 60793, Note_on_c, 0, 81, 78
2, 60810, Note_on_c, 0, 81, 0
2, 60812, Note_on_c, 0, 78, 0
2, 60853, Note_on_c, 0, 75, 100
2, 60853, Note_on_c, 0, 78, 86
2, 60871, Note_on_c, 0, 75, 0
2, 60875, Note_on_c, 0, 78, 0
2, 60917, Note_on_c, 0, 75, 91
2, 60918, Note_on_c, 0, 71, 88
2, 60938, Note_on_c, 0, 71, 0
2, 60938, Note_on_c, 0, 75, 0
2, 60981, Note_on_c, 0, 71, 74
2, 60983, Note_on_c, 0, 69, 74
2, 60998, Note_on_c, 0, 69, 0
2, 60998, Note_on_c, 0, 71, 0
2, 61046, Note_on_c, 0, 69, 57
2, 61046, Note_on_c, 0, 66, 78
2, 61064, Note_on_c, 0, 69, 0
2, 61069, Note_on_c, 0, 66, 0
2, 61111, Note_on_c, 0, 66, 65
2, 61113, Note_on_c, 0, 63, 88
2, 61125, Note_on_c, 0, 63, 0
2, 61126, Note_on_c, 0, 66, 0
2, 61179, Note_on_c, 0, 63, 83
2, 61180, Note_on_c, 0, 59, 80
2, 61200, Note_on_c, 0, 63, 0
2, 61202, Note_on_c, 0, 59, 0
2, 61260, Note_on_c, 0, 59, 78
2, 61261, Note_on_c, 0, 57, 80
2, 61276, Note_on_c, 0, 57, 0
2, 61276, Note_on_c, 0, 59, 0
2, 61345, Note_on_c, 0, 54, 75
2, 61346, Note_on_c, 0, 63, 78
2, 61350, Note_on_c, 0, 57, 72
2, 61365, Note_on_c, 0, 57, 0
2, 61365, Note_on_c, 0, 63, 0
2, 61368, Note_on_c, 0, 54, 0
2, 61445, Control_c, 0, 64, 116
2, 61450, Note_on_c, 0, 46, 57
2, 61450, Note_on_c, 0, 53, 74
2, 61452, Note_on_c, 0, 58, 67
2, 61453, Note_on_c, 0, 34, 53
2, 61454, Note_on_c, 0, 62, 64
2, 61460, Control_c, 0, 64, 15
2, 61473, Control_c, 0, 64, 0
2, 61499, Control_c, 0, 64, 60
2, 61512, Control_c, 0, 64, 127
2, 61637, Note_on_c, 0, 53, 0
2, 61652, Note_on_c, 0, 62, 0
2, 61654, Note_on_c, 0, 58, 0
2, 61664, Note_on_c, 0, 46, 0
2, 61670, Note_on_c, 0, 34, 0
2, 61851, Note_on_c, 0, 58, 65
2, 61855, Note_on_c, 0, 46, 56
2, 61856, Note_on_c, 0, 34, 59
2, 61859, Note_on_c, 0, 62, 60
2, 61860, Note_on_c, 0, 53, 52
2, 61868, Control_c, 0, 64, 70
2, 61880, Control_c, 0, 64, 0
2, 61905, Control_c, 0, 64, 105
2, 61918, Control_c, 0, 64, 127
2, 61962, Note_on_c, 0, 53, 0
2, 61964, Note_on_c, 0, 62, 0
2, 61967, Note_on_c, 0, 46, 0
2, 61974, Note_on_c, 0, 58, 0
2, 61975, Note_on_c, 0, 34, 0
2, 62083, Note_on_c, 0, 34, 65
2, 62083, Note_on_c, 0, 58, 67
2, 62085, Note_on_c, 0, 53, 68
2, 62085, Note_on_c, 0, 46, 55
2, 62086, Note_on_c, 0, 62, 72
2, 62089, Control_c, 0, 64, 51
2, 62101, Control_c, 0, 64, 0
2, 62126, Control_c, 0, 64, 59
2, 62139, Control_c, 0, 64, 127
2, 62159, Note_on_c, 0, 53, 0
2, 62166, Note_on_c, 0, 58, 0
2, 62172, Note_on_c, 0, 62, 0
2, 62177, Note_on_c, 0, 46, 0
2, 62181, Note_on_c, 0, 34, 0
2, 62306, Control_c, 0, 64, 86
2, 62311, Note_on_c, 0, 34, 56
2, 62311, Note_on_c, 0, 46, 50
2, 62313, Note_on_c, 0, 54, 79
2, 62314, Note_on_c, 0, 58, 65
2, 62318, Note_on_c, 0, 62, 63
2, 62321, Control_c, 0, 64, 0
2, 62450, Note_on_c, 0, 54, 0
2, 62455, Note_on_c, 0, 53, 59
2, 62514, Control_c, 0, 64, 60
2, 62527, Control_c, 0, 64, 127
2, 62564, Note_on_c, 0, 46, 0
2, 62573, Note_on_c, 0, 34, 0
2, 62619, Note_on_c, 0, 53, 0
2, 62632, Note_on_c, 0, 62, 0
2, 62642, Note_on_c, 0, 58, 0
2, 62679, Note_on_c, 0, 34, 60
2, 62705, Control_c, 0, 64, 70
2, 62719, Control_c, 0, 64, 0
2, 62731, Control_c, 0, 64, 62
2, 62744, Control_c, 0, 64, 127
2, 62752, Note_on_c, 0, 50, 45
2, 62810, Note_on_c, 0, 53, 54
2, 62876, Note_on_c, 0, 58, 53
2, 62981, Note_on_c, 0, 62, 32
2, 63961, Control_c, 0, 64, 101
2, 63974, Control_c, 0, 64, 14
2, 63987, Control_c, 0, 64, 0
2, 64558, Note_on_c, 0, 62, 0
2, 64669, Note_on_c, 0, 58, 0
2, 64722, Note_on_c, 0, 53, 0
2, 64767, Note_on_c, 0, 50, 0
2, 64859, Note_on_c, 0, 34, 0
2, 64859, End_track
0, 0, End_of_file
