0, 0, Header, 1, 2, 480 
1, 0, Start_track 
1, 0, Key_signature, 0, "major" 
1, 0, SMPTE_offset, 96, 0, 0, 0, 0
1, 0, Tempo, 500000
1, 0, Time_signature, 4, 2, 24, 8
1, 0, End_track
2, 0, Start_track
2, 1285, Note_on_c, 0, 61, 10
2, 1360, Note_on_c, 0, 45, 37
2, 1370, Note_on_c, 0, 64, 0
2, 1382, Note_on_c, 0, 73, 96
2, 1384, Note_on_c, 0, 63, 0
#2, 1389, Control_c, 0, 64, 120
2, 1475, Note_on_c, 0, 58, 0
2, 1484, Note_on_c, 0, 52, 77
2, 1589, Note_on_c, 0, 45, 62
2, 1654, Note_on_c, 0, 63, 48
2, 1672, Note_on_c, 0, 82, 54
2, 1676, Note_on_c, 0, 66, 42
2, 1704, Note_on_c, 0, 79, 80
2, 1783, Note_on_c, 0, 65, 46
2, 1852, Note_on_c, 0, 53, 66
2, 1856, Note_on_c, 0, 53, 52
#2, 2258, Control_c, 0, 64, 123
2, 2272, Note_on_c, 0, 84, 63
2, 2273, Note_on_c, 0, 65, 68
2, 2276, Note_on_c, 0, 73, 56
2, 2286, Note_on_c, 0, 73, 53
2, 2288, Note_on_c, 0, 66, 79
2, 2335, Note_on_c, 0, 73, 0
#2, 2363, Control_c, 0, 64, 0
2, 2368, Note_on_c, 0, 52, 83
2, 2376, Note_on_c, 0, 53, 0
2, 2382, Note_on_c, 0, 46, 42
2, 2383, Note_on_c, 0, 78, 0
2, 2392, Note_on_c, 0, 53, 0
2, 2418, Note_on_c, 0, 55, 0
2, 2506, Note_on_c, 0, 82, 0
2, 2507, Note_on_c, 0, 84, 0
2, 2530, Note_on_c, 0, 82, 4
2, 2567, Note_on_c, 0, 82, 80
2, 2595, Note_on_c, 0, 63, 50
2, 2625, Note_on_c, 0, 58, 40
#2, 2630, Control_c, 0, 64, 0
2, 2635, Note_on_c, 0, 63, 60
2, 2644, Note_on_c, 0, 56, 56
2, 2646, Note_on_c, 0, 62, 0
2, 2646, Note_on_c, 0, 80, 0
2, 2654, Note_on_c, 0, 82, 0
2, 2666, Note_on_c, 0, 53, 0
2, 2666, Note_on_c, 0, 70, 88
2, 2684, Note_on_c, 0, 46, 77
2, 2835, Note_on_c, 0, 53, 0
2, 2850, Note_on_c, 0, 53, 0
2, 2863, Note_on_c, 0, 88, 66
#2, 2926, Control_c, 0, 64, 43
2, 2926, Note_on_c, 0, 73, 70
#2, 2937, Control_c, 0, 64, 27
2, 2956, Note_on_c, 0, 82, 0
2, 3616, Note_on_c, 0, 56, 08
2, 3657, Note_on_c, 0, 83, 88
2, 3818, Note_on_c, 0, 44, 0
2, 5774, Note_on_c, 0, 64, 0
2, 5830, Note_on_c, 0, 44, 58
2, 6283, Note_on_c, 0, 81, 0
2, 6511, Note_on_c, 0, 53, 81
2, 6617, Note_on_c, 0, 65, 0
2, 6629, Note_on_c, 0, 73, 0
#2, 6789, Control_c, 0, 64, 47
2, 6808, Note_on_c, 0, 65, 0
2, 6816, Note_on_c, 0, 73, 0
2, 6853, Note_on_c, 0, 80, 0
2, 6882, Note_on_c, 0, 82, 87
2, 7382, Note_on_c, 0, 78, 0
2, 7394, Note_on_c, 0, 78, 0
2, 7629, Note_on_c, 0, 56, 0
#2, 7655, Control_c, 0, 64, 58
2, 7740, Note_on_c, 0, 53, 60
2, 7763, Note_on_c, 0, 77, 88
2, 7778, Note_on_c, 0, 67, 60
2, 7786, Note_on_c, 0, 54, 0
#2, 7808, Control_c, 0, 64, 83
2, 7814, Note_on_c, 0, 46, 0
2, 7842, Note_on_c, 0, 82, 0
2, 7858, Note_on_c, 0, 73, 0
2, 7865, Note_on_c, 0, 65, 79
2, 7872, Note_on_c, 0, 82, 0
2, 7926, Note_on_c, 0, 82, 120
2, 7954, Note_on_c, 0, 53, 0
2, 7956, Note_on_c, 0, 73, 0
2, 8090, Note_on_c, 0, 85, 69
2, 8330, Note_on_c, 0, 53, 0
2, 8489, Note_on_c, 0, 63, 58
2, 8533, Note_on_c, 0, 46, 65
2, 8540, Note_on_c, 0, 82, 51
2, 8559, Note_on_c, 0, 77, 92
2, 8579, Note_on_c, 0, 64, 68
2, 8580, Note_on_c, 0, 63, 0
#2, 8592, Control_c, 0, 64, 127
2, 8598, Note_on_c, 0, 77, 79
2, 8632, Note_on_c, 0, 80, 0
2, 8658, Note_on_c, 0, 55, 54
2, 8710, Note_on_c, 0, 46, 0
2, 8728, Note_on_c, 0, 71, 0
2, 8729, Note_on_c, 0, 58, 0
2, 8730, Note_on_c, 0, 77, 037
2, 8740, Note_on_c, 0, 77, 0
2, 8747, Note_on_c, 0, 75, 0
#2, 8780, Control_c, 0, 64, 83
2, 8787, Note_on_c, 0, 55, 55
2, 8844, Note_on_c, 0, 91, 0
2, 8850, Note_on_c, 0, 63, 56
2, 8853, Note_on_c, 0, 82, 0
2, 8855, Note_on_c, 0, 53, 54
2, 8856, Note_on_c, 0, 83, 78
2, 8863, Note_on_c, 0, 83, 0
2, 8880, Note_on_c, 0, 63, 81
2, 8885, Note_on_c, 0, 50, 50
#2, 8886, Control_c, 0, 64, 0
2, 8953, Note_on_c, 0, 75, 0
2, 8956, Note_on_c, 0, 53, 0
#2, 8978, Control_c, 0, 64, 57
2, 9071, Note_on_c, 0, 64, 0
#2, 9488, Control_c, 0, 64, 127
2, 9562, Note_on_c, 0, 53, 93
2, 9581, Note_on_c, 0, 82, 89
2, 9614, Note_on_c, 0, 57, 104
#2, 9654, Control_c, 0, 64, 81
2, 9660, Note_on_c, 0, 58, 0
2, 9750, Note_on_c, 0, 77, 100
#2, 9770, Control_c, 0, 64, 127
2, 9787, Note_on_c, 0, 77, 47
2, 9868, Note_on_c, 0, 77, 0
#2, 9975, Control_c, 0, 64, 12
2, 9982, Note_on_c, 0, 82, 0
2, 9982, End_track
0, 0, End_of_file
